<?xml version="1.0" standalone="no"?>
<!DOCTYPE svg PUBLIC "-//W3C//DTD SVG 20010904//EN"
 "http://www.w3.org/TR/2001/REC-SVG-20010904/DTD/svg10.dtd">
<svg version="1.0" xmlns="http://www.w3.org/2000/svg"
 width="1590.000000pt" height="1495.000000pt" viewBox="0 0 1590.000000 1495.000000"
 preserveAspectRatio="xMidYMid meet">

<g transform="translate(0.000000,1495.000000) scale(0.100000,-0.100000)"
fill="#000000" stroke="none">
<path d="M4660 13055 l0 -65 -130 0 -130 0 0 -65 0 -65 -60 0 -60 0 0 -60 0
-60 -65 0 -65 0 0 -190 0 -190 -65 0 -65 0 0 -190 0 -190 65 0 65 0 0 -190 0
-190 -125 0 -125 0 0 -255 0 -255 -65 0 -65 0 0 -190 0 -190 -65 0 -65 0 0
-315 0 -315 65 0 65 0 0 -315 0 -315 65 0 65 0 0 -190 0 -190 60 0 60 0 0
-190 0 -190 65 0 65 0 0 -380 0 -380 65 0 65 0 0 -130 0 -130 60 0 60 0 0
-125 0 -125 65 0 65 0 0 -125 0 -125 65 0 65 0 0 -130 0 -130 60 0 60 0 0
-125 0 -125 65 0 65 0 0 -125 0 -125 65 0 65 0 0 -445 0 -445 -130 0 -130 0 0
-125 0 -125 -60 0 -60 0 0 -125 0 -125 -65 0 -65 0 0 -255 0 -255 -65 0 -65 0
0 -190 0 -190 -60 0 -60 0 0 -190 0 -190 -65 0 -65 0 0 -255 0 -255 65 0 65 0
0 -60 0 -60 440 0 440 0 0 -65 0 -65 65 0 65 0 0 -65 0 -65 125 0 125 0 0 -60
0 -60 65 0 65 0 0 -65 0 -65 190 0 190 0 0 -65 0 -65 250 0 250 0 0 -60 0 -60
1270 0 1270 0 0 60 0 60 315 0 315 0 0 65 0 65 190 0 190 0 0 65 0 65 125 0
125 0 0 60 0 60 190 0 190 0 0 65 0 65 65 0 65 0 0 125 0 125 60 0 60 0 0 65
0 65 65 0 65 0 0 760 0 760 -65 0 -65 0 0 125 0 125 -60 0 -60 0 0 65 0 65
-65 0 -65 0 0 255 0 255 65 0 65 0 0 60 0 60 60 0 60 0 0 125 0 125 65 0 65 0
0 255 0 255 65 0 65 0 0 255 0 255 60 0 60 0 0 315 0 315 65 0 65 0 0 1140 0
1140 -65 0 -65 0 0 380 0 380 -60 0 -60 0 0 125 0 125 -65 0 -65 0 0 65 0 65
-125 0 -125 0 0 60 0 60 -65 0 -65 0 0 190 0 190 -65 0 -65 0 0 255 0 255 -60
0 -60 0 0 190 0 190 -65 0 -65 0 0 125 0 125 -380 0 -380 0 0 -60 0 -60 -60 0
-60 0 0 -65 0 -65 -65 0 -65 0 0 -65 0 -65 -65 0 -65 0 0 -60 0 -60 -60 0 -60
0 0 60 0 60 -190 0 -190 0 0 65 0 65 -130 0 -130 0 0 65 0 65 -1140 0 -1140 0
0 -65 0 -65 -60 0 -60 0 0 -65 0 -65 -65 0 -65 0 0 -125 0 -125 -65 0 -65 0 0
125 0 125 -60 0 -60 0 0 65 0 65 -65 0 -65 0 0 125 0 125 -60 0 -60 0 0 65 0
65 -190 0 -190 0 0 65 0 65 -190 0 -190 0 0 -65z m630 -255 l0 -60 65 0 65 0
0 -130 0 -130 60 0 60 0 0 -60 0 -60 65 0 65 0 0 -255 0 -255 60 0 60 0 0
-125 0 -125 65 0 65 0 0 -130 0 -130 65 0 65 0 0 -60 0 -60 60 0 60 0 0 -130
0 -130 -190 0 -190 0 0 130 0 130 -60 0 -60 0 0 125 0 125 -65 0 -65 0 0 190
0 190 -60 0 -60 0 0 190 0 190 -65 0 -65 0 0 125 0 125 -65 0 -65 0 0 65 0 65
-60 0 -60 0 0 65 0 65 -65 0 -65 0 0 60 0 60 190 0 190 0 0 -60z m4930 -190
l0 -130 65 0 65 0 0 -190 0 -190 65 0 65 0 0 -250 0 -250 60 0 60 0 0 -130 0
-130 -60 0 -60 0 0 -190 0 -190 -65 0 -65 0 0 -60 0 -60 -65 0 -65 0 0 60 0
60 -60 0 -60 0 0 700 0 700 -65 0 -65 0 0 60 0 60 -65 0 -65 0 0 65 0 65 -60
0 -60 0 0 65 0 65 250 0 250 0 0 -130z m-5180 -190 l0 -60 60 0 60 0 0 -130 0
-130 65 0 65 0 0 -60 0 -60 -315 0 -315 0 0 125 0 125 60 0 60 0 0 65 0 65 65
0 65 0 0 60 0 60 65 0 65 0 0 -60z m4800 -125 l0 -65 65 0 65 0 0 -190 0 -190
-125 0 -125 0 0 125 0 125 -65 0 -65 0 0 65 0 65 65 0 65 0 0 65 0 65 60 0 60
0 0 -65z m-3790 -255 l0 -60 60 0 60 0 0 -65 0 -65 65 0 65 0 0 -65 0 -65 125
0 125 0 0 -60 0 -60 130 0 130 0 0 -65 0 -65 125 0 125 0 0 -65 0 -65 125 0
125 0 0 -60 0 -60 255 0 255 0 0 -65 0 -65 255 0 255 0 0 -65 0 -65 505 0 505
0 0 65 0 65 125 0 125 0 0 65 0 65 65 0 65 0 0 60 0 60 60 0 60 0 0 65 0 65
65 0 65 0 0 -315 0 -315 65 0 65 0 0 -65 0 -65 60 0 60 0 0 -65 0 -65 65 0 65
0 0 65 0 65 65 0 65 0 0 65 0 65 60 0 60 0 0 60 0 60 65 0 65 0 0 65 0 65 -65
0 -65 0 0 65 0 65 65 0 65 0 0 -65 0 -65 125 0 125 0 0 -65 0 -65 65 0 65 0 0
-125 0 -125 65 0 65 0 0 -315 0 -315 -65 0 -65 0 0 -65 0 -65 125 0 125 0 0
-1010 0 -1010 -60 0 -60 0 0 -190 0 -190 -65 0 -65 0 0 60 0 60 -65 0 -65 0 0
65 0 65 -60 0 -60 0 0 65 0 65 -65 0 -65 0 0 60 0 60 -65 0 -65 0 0 -60 0 -60
-60 0 -60 0 0 60 0 60 -65 0 -65 0 0 65 0 65 -65 0 -65 0 0 65 0 65 -60 0 -60
0 0 60 0 60 -65 0 -65 0 0 65 0 65 -60 0 -60 0 0 65 0 65 -65 0 -65 0 0 60 0
60 -65 0 -65 0 0 65 0 65 -60 0 -60 0 0 65 0 65 -65 0 -65 0 0 125 0 125 -65
0 -65 0 0 65 0 65 -60 0 -60 0 0 125 0 125 -65 0 -65 0 0 65 0 65 -65 0 -65 0
0 -65 0 -65 -60 0 -60 0 0 -65 0 -65 -65 0 -65 0 0 -60 0 -60 -65 0 -65 0 0
-65 0 -65 -60 0 -60 0 0 -65 0 -65 -65 0 -65 0 0 -60 0 -60 -65 0 -65 0 0 -65
0 -65 -125 0 -125 0 0 -65 0 -65 -65 0 -65 0 0 -60 0 -60 -60 0 -60 0 0 -65 0
-65 -130 0 -130 0 0 -65 0 -65 -60 0 -60 0 0 -60 0 -60 -65 0 -65 0 0 -65 0
-65 -125 0 -125 0 0 -65 0 -65 -130 0 -130 0 0 -60 0 -60 -60 0 -60 0 0 -65 0
-65 -65 0 -65 0 0 65 0 65 -65 0 -65 0 0 -65 0 -65 -60 0 -60 0 0 -65 0 -65
-65 0 -65 0 0 -60 0 -60 -65 0 -65 0 0 -65 0 -65 -60 0 -60 0 0 65 0 65 -65 0
-65 0 0 -65 0 -65 -60 0 -60 0 0 -65 0 -65 -65 0 -65 0 0 65 0 65 -65 0 -65 0
0 -65 0 -65 -60 0 -60 0 0 -60 0 -60 -65 0 -65 0 0 60 0 60 -65 0 -65 0 0 65
0 65 65 0 65 0 0 65 0 65 -65 0 -65 0 0 60 0 60 -60 0 -60 0 0 65 0 65 -65 0
-65 0 0 65 0 65 65 0 65 0 0 60 0 60 -65 0 -65 0 0 65 0 65 65 0 65 0 0 -65 0
-65 60 0 60 0 0 65 0 65 65 0 65 0 0 -65 0 -65 65 0 65 0 0 65 0 65 60 0 60 0
0 65 0 65 65 0 65 0 0 60 0 60 65 0 65 0 0 65 0 65 60 0 60 0 0 65 0 65 -60 0
-60 0 0 60 0 60 60 0 60 0 0 65 0 65 65 0 65 0 0 65 0 65 -65 0 -65 0 0 60 0
60 65 0 65 0 0 65 0 65 -65 0 -65 0 0 65 0 65 65 0 65 0 0 60 0 60 -65 0 -65
0 0 65 0 65 65 0 65 0 0 65 0 65 -65 0 -65 0 0 60 0 60 65 0 65 0 0 65 0 65
-65 0 -65 0 0 60 0 60 65 0 65 0 0 65 0 65 -65 0 -65 0 0 65 0 65 65 0 65 0 0
60 0 60 -65 0 -65 0 0 65 0 65 65 0 65 0 0 65 0 65 -65 0 -65 0 0 60 0 60 -60
0 -60 0 0 65 0 65 60 0 60 0 0 -65 0 -65 65 0 65 0 0 -60 0 -60 60 0 60 0 0
-65 0 -65 65 0 65 0 0 65 0 65 65 0 65 0 0 -65 0 -65 60 0 60 0 0 65 0 65 65
0 65 0 0 60 0 60 65 0 65 0 0 65 0 65 -65 0 -65 0 0 190 0 190 -65 0 -65 0 0
65 0 65 -60 0 -60 0 0 60 0 60 -65 0 -65 0 0 65 0 65 65 0 65 0 0 65 0 65 -65
0 -65 0 0 60 0 60 65 0 65 0 0 -60z m-1010 -255 l0 -65 60 0 60 0 0 65 0 65
65 0 65 0 0 -65 0 -65 65 0 65 0 0 -60 0 -60 -65 0 -65 0 0 -65 0 -65 65 0 65
0 0 -65 0 -65 60 0 60 0 0 -60 0 -60 -60 0 -60 0 0 60 0 60 -65 0 -65 0 0 65
0 65 -65 0 -65 0 0 65 0 65 -60 0 -60 0 0 60 0 60 -65 0 -65 0 0 65 0 65 65 0
65 0 0 -65z m4930 -125 l0 -60 -65 0 -65 0 0 60 0 60 65 0 65 0 0 -60z m-1010
-2215 l0 -125 65 0 65 0 0 -65 0 -65 60 0 60 0 0 -125 0 -125 65 0 65 0 0 -65
0 -65 -65 0 -65 0 0 -60 0 -60 65 0 65 0 0 -65 0 -65 65 0 65 0 0 65 0 65 60
0 60 0 0 -65 0 -65 65 0 65 0 0 -65 0 -65 65 0 65 0 0 -125 0 -125 60 0 60 0
0 -65 0 -65 -60 0 -60 0 0 -60 0 -60 60 0 60 0 0 -65 0 -65 65 0 65 0 0 65 0
65 60 0 60 0 0 -65 0 -65 65 0 65 0 0 -65 0 -65 65 0 65 0 0 65 0 65 60 0 60
0 0 -65 0 -65 65 0 65 0 0 -60 0 -60 125 0 125 0 0 -65 0 -65 130 0 130 0 0
-65 0 -65 -65 0 -65 0 0 -250 0 -250 -255 0 -255 0 0 60 0 60 -60 0 -60 0 0
65 0 65 -190 0 -190 0 0 65 0 65 -65 0 -65 0 0 60 0 60 -190 0 -190 0 0 65 0
65 -60 0 -60 0 0 65 0 65 -65 0 -65 0 0 125 0 125 -65 0 -65 0 0 65 0 65 -60
0 -60 0 0 440 0 440 -65 0 -65 0 0 130 0 130 -65 0 -65 0 0 250 0 250 65 0 65
0 0 -125z m-250 -315 l0 -190 60 0 60 0 0 -125 0 -125 65 0 65 0 0 -380 0
-380 -125 0 -125 0 0 -65 0 -65 -65 0 -65 0 0 -65 0 -65 -65 0 -65 0 0 -60 0
-60 -60 0 -60 0 0 -65 0 -65 -65 0 -65 0 0 -65 0 -65 -65 0 -65 0 0 -60 0 -60
-60 0 -60 0 0 -65 0 -65 -65 0 -65 0 0 -65 0 -65 -65 0 -65 0 0 -60 0 -60 -60
0 -60 0 0 -65 0 -65 -65 0 -65 0 0 -65 0 -65 -125 0 -125 0 0 -60 0 -60 -65 0
-65 0 0 -65 0 -65 -190 0 -190 0 0 -65 0 -65 -125 0 -125 0 0 -60 0 -60 -65 0
-65 0 0 60 0 60 -65 0 -65 0 0 -60 0 -60 -60 0 -60 0 0 60 0 60 -65 0 -65 0 0
-60 0 -60 -65 0 -65 0 0 -65 0 -65 -60 0 -60 0 0 65 0 65 -65 0 -65 0 0 -65 0
-65 -60 0 -60 0 0 65 0 65 -65 0 -65 0 0 60 0 60 65 0 65 0 0 65 0 65 60 0 60
0 0 65 0 65 65 0 65 0 0 -65 0 -65 60 0 60 0 0 65 0 65 65 0 65 0 0 -65 0 -65
65 0 65 0 0 65 0 65 125 0 125 0 0 60 0 60 125 0 125 0 0 65 0 65 65 0 65 0 0
65 0 65 65 0 65 0 0 60 0 60 60 0 60 0 0 65 0 65 -125 0 -125 0 0 -65 0 -65
-65 0 -65 0 0 -60 0 -60 -60 0 -60 0 0 -65 0 -65 -130 0 -130 0 0 -65 0 -65
-315 0 -315 0 0 65 0 65 -60 0 -60 0 0 -65 0 -65 -65 0 -65 0 0 65 0 65 65 0
65 0 0 65 0 65 250 0 250 0 0 60 0 60 190 0 190 0 0 65 0 65 125 0 125 0 0 65
0 65 130 0 130 0 0 60 0 60 60 0 60 0 0 65 0 65 65 0 65 0 0 65 0 65 65 0 65
0 0 60 0 60 -130 0 -130 0 0 -60 0 -60 -60 0 -60 0 0 -65 0 -65 -65 0 -65 0 0
-65 0 -65 -125 0 -125 0 0 -60 0 -60 -130 0 -130 0 0 -65 0 -65 -60 0 -60 0 0
65 0 65 -65 0 -65 0 0 -65 0 -65 -65 0 -65 0 0 -65 0 -65 -60 0 -60 0 0 65 0
65 -65 0 -65 0 0 -65 0 -65 -60 0 -60 0 0 65 0 65 -65 0 -65 0 0 -65 0 -65
-65 0 -65 0 0 -60 0 -60 -60 0 -60 0 0 60 0 60 60 0 60 0 0 65 0 65 65 0 65 0
0 65 0 65 65 0 65 0 0 -65 0 -65 60 0 60 0 0 65 0 65 65 0 65 0 0 60 0 60 60
0 60 0 0 -60 0 -60 65 0 65 0 0 60 0 60 65 0 65 0 0 130 0 130 125 0 125 0 0
60 0 60 125 0 125 0 0 65 0 65 65 0 65 0 0 65 0 65 125 0 125 0 0 60 0 60 65
0 65 0 0 -60 0 -60 65 0 65 0 0 60 0 60 60 0 60 0 0 130 0 130 130 0 130 0 0
60 0 60 60 0 60 0 0 65 0 65 65 0 65 0 0 65 0 65 65 0 65 0 0 60 0 60 60 0 60
0 0 -60 0 -60 65 0 65 0 0 60 0 60 65 0 65 0 0 65 0 65 60 0 60 0 0 125 0 125
65 0 65 0 0 65 0 65 65 0 65 0 0 -190z m250 -1520 l0 -60 -65 0 -65 0 0 -65 0
-65 65 0 65 0 0 -65 0 -65 65 0 65 0 0 -60 0 -60 -65 0 -65 0 0 -65 0 -65 65
0 65 0 0 -65 0 -65 -65 0 -65 0 0 -60 0 -60 65 0 65 0 0 -65 0 -65 60 0 60 0
0 -65 0 -65 -60 0 -60 0 0 -60 0 -60 60 0 60 0 0 -65 0 -65 -60 0 -60 0 0 -65
0 -65 60 0 60 0 0 -60 0 -60 -60 0 -60 0 0 -65 0 -65 -65 0 -65 0 0 -60 0 -60
65 0 65 0 0 -65 0 -65 -65 0 -65 0 0 -65 0 -65 -65 0 -65 0 0 -60 0 -60 65 0
65 0 0 -65 0 -65 -65 0 -65 0 0 -65 0 -65 65 0 65 0 0 -60 0 -60 -65 0 -65 0
0 60 0 60 -60 0 -60 0 0 -60 0 -60 -65 0 -65 0 0 60 0 60 -65 0 -65 0 0 -60 0
-60 -190 0 -190 0 0 60 0 60 -190 0 -190 0 0 65 0 65 -60 0 -60 0 0 -65 0 -65
-190 0 -190 0 0 65 0 65 -190 0 -190 0 0 65 0 65 -65 0 -65 0 0 -65 0 -65 -65
0 -65 0 0 65 0 65 -60 0 -60 0 0 60 0 60 -65 0 -65 0 0 -60 0 -60 -65 0 -65 0
0 60 0 60 -60 0 -60 0 0 65 0 65 -65 0 -65 0 0 -65 0 -65 -60 0 -60 0 0 65 0
65 -65 0 -65 0 0 -65 0 -65 -65 0 -65 0 0 65 0 65 -60 0 -60 0 0 -65 0 -65
-65 0 -65 0 0 65 0 65 65 0 65 0 0 65 0 65 60 0 60 0 0 -65 0 -65 65 0 65 0 0
65 0 65 65 0 65 0 0 -65 0 -65 60 0 60 0 0 65 0 65 65 0 65 0 0 60 0 60 60 0
60 0 0 -60 0 -60 65 0 65 0 0 60 0 60 65 0 65 0 0 -60 0 -60 60 0 60 0 0 60 0
60 65 0 65 0 0 65 0 65 65 0 65 0 0 60 0 60 60 0 60 0 0 -60 0 -60 65 0 65 0
0 60 0 60 65 0 65 0 0 65 0 65 60 0 60 0 0 65 0 65 130 0 130 0 0 60 0 60 60
0 60 0 0 65 0 65 65 0 65 0 0 65 0 65 125 0 125 0 0 125 0 125 65 0 65 0 0 65
0 65 125 0 125 0 0 60 0 60 65 0 65 0 0 65 0 65 65 0 65 0 0 65 0 65 60 0 60
0 0 60 0 60 65 0 65 0 0 -60z m250 0 l0 -60 -60 0 -60 0 0 60 0 60 60 0 60 0
0 -60z m130 -380 l0 -60 65 0 65 0 0 -65 0 -65 60 0 60 0 0 65 0 65 65 0 65 0
0 -65 0 -65 65 0 65 0 0 -65 0 -65 185 0 185 0 0 -60 0 -60 65 0 65 0 0 -65 0
-65 65 0 65 0 0 -65 0 -65 60 0 60 0 0 65 0 65 190 0 190 0 0 -190 0 -190 -60
0 -60 0 0 -125 0 -125 -65 0 -65 0 0 -65 0 -65 -65 0 -65 0 0 -250 0 -250
-190 0 -190 0 0 -65 0 -65 -185 0 -185 0 0 -65 0 -65 -190 0 -190 0 0 65 0 65
-65 0 -65 0 0 -65 0 -65 -65 0 -65 0 0 65 0 65 -60 0 -60 0 0 65 0 65 60 0 60
0 0 60 0 60 65 0 65 0 0 65 0 65 -65 0 -65 0 0 65 0 65 65 0 65 0 0 60 0 60
65 0 65 0 0 65 0 65 -65 0 -65 0 0 60 0 60 65 0 65 0 0 65 0 65 -65 0 -65 0 0
65 0 65 65 0 65 0 0 60 0 60 -65 0 -65 0 0 65 0 65 65 0 65 0 0 65 0 65 -65 0
-65 0 0 60 0 60 -65 0 -65 0 0 65 0 65 65 0 65 0 0 65 0 65 -65 0 -65 0 0 60
0 60 65 0 65 0 0 -60z m-4180 -1895 l0 -65 65 0 65 0 0 65 0 65 65 0 65 0 0
-65 0 -65 60 0 60 0 0 -315 0 -315 -60 0 -60 0 0 -190 0 -190 -65 0 -65 0 0
-320 0 -320 -65 0 -65 0 0 -190 0 -190 -315 0 -315 0 0 65 0 65 -65 0 -65 0 0
125 0 125 65 0 65 0 0 190 0 190 65 0 65 0 0 190 0 190 60 0 60 0 0 255 0 255
65 0 65 0 0 125 0 125 125 0 125 0 0 65 0 65 -60 0 -60 0 0 65 0 65 60 0 60 0
0 -65z m760 -255 l0 -60 65 0 65 0 0 60 0 60 60 0 60 0 0 -60 0 -60 65 0 65 0
0 -65 0 -65 65 0 65 0 0 65 0 65 60 0 60 0 0 -65 0 -65 190 0 190 0 0 -65 0
-65 320 0 320 0 0 -60 0 -60 440 0 440 0 0 -65 0 -65 65 0 65 0 0 -65 0 -65
65 0 65 0 0 65 0 65 60 0 60 0 0 -125 0 -125 -125 0 -125 0 0 -65 0 -65 -570
0 -570 0 0 65 0 65 -315 0 -315 0 0 60 0 60 -190 0 -190 0 0 65 0 65 -65 0
-65 0 0 65 0 65 -65 0 -65 0 0 -65 0 -65 -60 0 -60 0 0 65 0 65 -190 0 -190 0
0 190 0 190 65 0 65 0 0 60 0 60 60 0 60 0 0 -60z m4810 0 l0 -60 65 0 65 0 0
-130 0 -130 -65 0 -65 0 0 -60 0 -60 -125 0 -125 0 0 -65 0 -65 -65 0 -65 0 0
65 0 65 -65 0 -65 0 0 -65 0 -65 -60 0 -60 0 0 -65 0 -65 -65 0 -65 0 0 -60 0
-60 -60 0 -60 0 0 60 0 60 -65 0 -65 0 0 -60 0 -60 -65 0 -65 0 0 -65 0 -65
-60 0 -60 0 0 65 0 65 -65 0 -65 0 0 60 0 60 -65 0 -65 0 0 65 0 65 65 0 65 0
0 65 0 65 65 0 65 0 0 -65 0 -65 60 0 60 0 0 65 0 65 65 0 65 0 0 60 0 60 65
0 65 0 0 -60 0 -60 60 0 60 0 0 60 0 60 65 0 65 0 0 65 0 65 60 0 60 0 0 -65
0 -65 65 0 65 0 0 130 0 130 125 0 125 0 0 60 0 60 65 0 65 0 0 -60z m250
-695 l0 -255 -125 0 -125 0 0 -65 0 -65 -65 0 -65 0 0 -60 0 -60 -190 0 -190
0 0 60 0 60 -60 0 -60 0 0 -60 0 -60 -65 0 -65 0 0 -65 0 -65 -60 0 -60 0 0
65 0 65 -65 0 -65 0 0 -65 0 -65 -65 0 -65 0 0 -65 0 -65 -60 0 -60 0 0 65 0
65 -65 0 -65 0 0 65 0 65 -65 0 -65 0 0 60 0 60 -60 0 -60 0 0 -60 0 -60 -65
0 -65 0 0 -65 0 -65 -65 0 -65 0 0 -65 0 -65 -60 0 -60 0 0 65 0 65 -65 0 -65
0 0 -65 0 -65 -65 0 -65 0 0 -60 0 -60 -630 0 -630 0 0 60 0 60 -255 0 -255 0
0 65 0 65 -190 0 -190 0 0 65 0 65 -65 0 -65 0 0 -65 0 -65 -60 0 -60 0 0 65
0 65 -190 0 -190 0 0 60 0 60 -125 0 -125 0 0 65 0 65 60 0 60 0 0 190 0 190
130 0 130 0 0 -65 0 -65 60 0 60 0 0 -60 0 -60 65 0 65 0 0 60 0 60 60 0 60 0
0 -60 0 -60 255 0 255 0 0 -65 0 -65 315 0 315 0 0 -65 0 -65 700 0 700 0 0
65 0 65 125 0 125 0 0 65 0 65 65 0 65 0 0 -65 0 -65 60 0 60 0 0 -65 0 -65
65 0 65 0 0 -60 0 -60 65 0 65 0 0 60 0 60 60 0 60 0 0 -60 0 -60 65 0 65 0 0
60 0 60 65 0 65 0 0 65 0 65 60 0 60 0 0 -65 0 -65 65 0 65 0 0 65 0 65 60 0
60 0 0 65 0 65 65 0 65 0 0 60 0 60 125 0 125 0 0 65 0 65 130 0 130 0 0 65 0
65 60 0 60 0 0 -255z m-1890 60 l0 -65 -65 0 -65 0 0 65 0 65 65 0 65 0 0 -65z
m1890 -695 l0 -250 -60 0 -60 0 0 -65 0 -65 -65 0 -65 0 0 -125 0 -125 -65 0
-65 0 0 -65 0 -65 -125 0 -125 0 0 65 0 65 -65 0 -65 0 0 -65 0 -65 -60 0 -60
0 0 -65 0 -65 -65 0 -65 0 0 -60 0 -60 -60 0 -60 0 0 60 0 60 -65 0 -65 0 0
-60 0 -60 -65 0 -65 0 0 -65 0 -65 -60 0 -60 0 0 65 0 65 -65 0 -65 0 0 -65 0
-65 -65 0 -65 0 0 65 0 65 -60 0 -60 0 0 -65 0 -65 -65 0 -65 0 0 -65 0 -65
-1140 0 -1140 0 0 130 0 130 -65 0 -65 0 0 -65 0 -65 -60 0 -60 0 0 65 0 65
-65 0 -65 0 0 -65 0 -65 -65 0 -65 0 0 65 0 65 -60 0 -60 0 0 60 0 60 -65 0
-65 0 0 -60 0 -60 -60 0 -60 0 0 60 0 60 -65 0 -65 0 0 65 0 65 -65 0 -65 0 0
65 0 65 -60 0 -60 0 0 60 0 60 -65 0 -65 0 0 65 0 65 65 0 65 0 0 65 0 65 60
0 60 0 0 60 0 60 -60 0 -60 0 0 65 0 65 60 0 60 0 0 -65 0 -65 65 0 65 0 0 65
0 65 65 0 65 0 0 -65 0 -65 60 0 60 0 0 -60 0 -60 65 0 65 0 0 60 0 60 60 0
60 0 0 -60 0 -60 65 0 65 0 0 60 0 60 125 0 125 0 0 -60 0 -60 255 0 255 0 0
-65 0 -65 825 0 825 0 0 65 0 65 60 0 60 0 0 -65 0 -65 65 0 65 0 0 65 0 65
65 0 65 0 0 60 0 60 60 0 60 0 0 -60 0 -60 65 0 65 0 0 -65 0 -65 65 0 65 0 0
65 0 65 60 0 60 0 0 -65 0 -65 65 0 65 0 0 65 0 65 65 0 65 0 0 60 0 60 60 0
60 0 0 -60 0 -60 65 0 65 0 0 60 0 60 60 0 60 0 0 65 0 65 255 0 255 0 0 65 0
65 65 0 65 0 0 60 0 60 60 0 60 0 0 -250z"/>
<path d="M6050 11785 l0 -65 60 0 60 0 0 -60 0 -60 65 0 65 0 0 60 0 60 -65 0
-65 0 0 65 0 65 -60 0 -60 0 0 -65z"/>
<path d="M6430 11155 l0 -65 60 0 60 0 0 -65 0 -65 -60 0 -60 0 0 -60 0 -60
60 0 60 0 0 60 0 60 65 0 65 0 0 -60 0 -60 65 0 65 0 0 60 0 60 -65 0 -65 0 0
65 0 65 -65 0 -65 0 0 65 0 65 -60 0 -60 0 0 -65z"/>
<path d="M6930 10900 l0 -60 65 0 65 0 0 -65 0 -65 65 0 65 0 0 -65 0 -65 60
0 60 0 0 65 0 65 65 0 65 0 0 -65 0 -65 65 0 65 0 0 -60 0 -60 60 0 60 0 0 60
0 60 -60 0 -60 0 0 65 0 65 -65 0 -65 0 0 65 0 65 -65 0 -65 0 0 -65 0 -65
-60 0 -60 0 0 65 0 65 -65 0 -65 0 0 60 0 60 -65 0 -65 0 0 -60z"/>
<path d="M10730 10900 l0 -60 -65 0 -65 0 0 -65 0 -65 65 0 65 0 0 65 0 65 65
0 65 0 0 -65 0 -65 60 0 60 0 0 65 0 65 -60 0 -60 0 0 60 0 60 -65 0 -65 0 0
-60z"/>
<path d="M5670 10645 l0 -65 60 0 60 0 0 -60 0 -60 -60 0 -60 0 0 -65 0 -65
60 0 60 0 0 65 0 65 65 0 65 0 0 60 0 60 -65 0 -65 0 0 65 0 65 -60 0 -60 0 0
-65z"/>
<path d="M7820 10520 l0 -60 65 0 65 0 0 60 0 60 -65 0 -65 0 0 -60z"/>
<path d="M10860 10520 l0 -60 60 0 60 0 0 60 0 60 -60 0 -60 0 0 -60z"/>
<path d="M10860 10265 l0 -65 60 0 60 0 0 -60 0 -60 -60 0 -60 0 0 -65 0 -65
60 0 60 0 0 -60 0 -60 -60 0 -60 0 0 -65 0 -65 60 0 60 0 0 -65 0 -65 -60 0
-60 0 0 -60 0 -60 -65 0 -65 0 0 -65 0 -65 65 0 65 0 0 -65 0 -65 -65 0 -65 0
0 -60 0 -60 65 0 65 0 0 -65 0 -65 -65 0 -65 0 0 -65 0 -65 65 0 65 0 0 -60 0
-60 -65 0 -65 0 0 -65 0 -65 -65 0 -65 0 0 -65 0 -65 -60 0 -60 0 0 65 0 65
-65 0 -65 0 0 -65 0 -65 -65 0 -65 0 0 65 0 65 -60 0 -60 0 0 65 0 65 -65 0
-65 0 0 60 0 60 -60 0 -60 0 0 -60 0 -60 60 0 60 0 0 -65 0 -65 65 0 65 0 0
-65 0 -65 60 0 60 0 0 -60 0 -60 65 0 65 0 0 -65 0 -65 65 0 65 0 0 -65 0 -65
60 0 60 0 0 65 0 65 65 0 65 0 0 -65 0 -65 65 0 65 0 0 -60 0 -60 60 0 60 0 0
60 0 60 65 0 65 0 0 65 0 65 -65 0 -65 0 0 65 0 65 65 0 65 0 0 60 0 60 -65 0
-65 0 0 65 0 65 65 0 65 0 0 65 0 65 65 0 65 0 0 60 0 60 -65 0 -65 0 0 65 0
65 65 0 65 0 0 65 0 65 -65 0 -65 0 0 60 0 60 65 0 65 0 0 65 0 65 -65 0 -65
0 0 65 0 65 65 0 65 0 0 60 0 60 -65 0 -65 0 0 65 0 65 65 0 65 0 0 65 0 65
-65 0 -65 0 0 60 0 60 -65 0 -65 0 0 65 0 65 65 0 65 0 0 60 0 60 -65 0 -65 0
0 65 0 65 -60 0 -60 0 0 -65z m250 -500 l0 -65 -65 0 -65 0 0 65 0 65 65 0 65
0 0 -65z m0 -255 l0 -60 -65 0 -65 0 0 -65 0 -65 65 0 65 0 0 -65 0 -65 -65 0
-65 0 0 -60 0 -60 65 0 65 0 0 -65 0 -65 -65 0 -65 0 0 -65 0 -65 65 0 65 0 0
-60 0 -60 -65 0 -65 0 0 -65 0 -65 -60 0 -60 0 0 -65 0 -65 60 0 60 0 0 -60 0
-60 -60 0 -60 0 0 -65 0 -65 60 0 60 0 0 -65 0 -65 -60 0 -60 0 0 65 0 65 -65
0 -65 0 0 65 0 65 -65 0 -65 0 0 -65 0 -65 -60 0 -60 0 0 65 0 65 -65 0 -65 0
0 60 0 60 65 0 65 0 0 -60 0 -60 60 0 60 0 0 60 0 60 65 0 65 0 0 65 0 65 65
0 65 0 0 65 0 65 60 0 60 0 0 60 0 60 -60 0 -60 0 0 65 0 65 60 0 60 0 0 65 0
65 -60 0 -60 0 0 60 0 60 60 0 60 0 0 65 0 65 -60 0 -60 0 0 65 0 65 60 0 60
0 0 60 0 60 65 0 65 0 0 -60z"/>
<path d="M10730 8370 l0 -60 65 0 65 0 0 60 0 60 -65 0 -65 0 0 -60z"/>
<path d="M5670 9130 l0 -60 60 0 60 0 0 60 0 60 -60 0 -60 0 0 -60z"/>
<path d="M5670 8875 l0 -65 -65 0 -65 0 0 -60 0 -60 65 0 65 0 0 -65 0 -65
-65 0 -65 0 0 -65 0 -65 -60 0 -60 0 0 -60 0 -60 -65 0 -65 0 0 -65 0 -65 -65
0 -65 0 0 -65 0 -65 -60 0 -60 0 0 -60 0 -60 -65 0 -65 0 0 60 0 60 -65 0 -65
0 0 -60 0 -60 -60 0 -60 0 0 -65 0 -65 60 0 60 0 0 -65 0 -65 65 0 65 0 0 -60
0 -60 65 0 65 0 0 -65 0 -65 -65 0 -65 0 0 -65 0 -65 65 0 65 0 0 65 0 65 60
0 60 0 0 65 0 65 65 0 65 0 0 -65 0 -65 65 0 65 0 0 65 0 65 60 0 60 0 0 60 0
60 65 0 65 0 0 -60 0 -60 60 0 60 0 0 60 0 60 65 0 65 0 0 65 0 65 65 0 65 0
0 65 0 65 60 0 60 0 0 60 0 60 -60 0 -60 0 0 65 0 65 60 0 60 0 0 65 0 65 -60
0 -60 0 0 60 0 60 -65 0 -65 0 0 65 0 65 -65 0 -65 0 0 65 0 65 65 0 65 0 0
60 0 60 -65 0 -65 0 0 65 0 65 -60 0 -60 0 0 -65z m120 -125 l0 -60 -60 0 -60
0 0 60 0 60 60 0 60 0 0 -60z m0 -255 l0 -65 65 0 65 0 0 -60 0 -60 65 0 65 0
0 -65 0 -65 -65 0 -65 0 0 -65 0 -65 65 0 65 0 0 -60 0 -60 -65 0 -65 0 0 -65
0 -65 -65 0 -65 0 0 -65 0 -65 -60 0 -60 0 0 65 0 65 -65 0 -65 0 0 -65 0 -65
-60 0 -60 0 0 -60 0 -60 -65 0 -65 0 0 60 0 60 -65 0 -65 0 0 -60 0 -60 -60 0
-60 0 0 60 0 60 -65 0 -65 0 0 65 0 65 -65 0 -65 0 0 65 0 65 65 0 65 0 0 -65
0 -65 65 0 65 0 0 65 0 65 60 0 60 0 0 60 0 60 65 0 65 0 0 65 0 65 65 0 65 0
0 65 0 65 60 0 60 0 0 60 0 60 65 0 65 0 0 65 0 65 60 0 60 0 0 -65z"/>
<path d="M5670 8370 l0 -60 -65 0 -65 0 0 -65 0 -65 -60 0 -60 0 0 -65 0 -65
-65 0 -65 0 0 -60 0 -60 -65 0 -65 0 0 -65 0 -65 -60 0 -60 0 0 -65 0 -65 60
0 60 0 0 65 0 65 65 0 65 0 0 -65 0 -65 65 0 65 0 0 65 0 65 60 0 60 0 0 65 0
65 65 0 65 0 0 -65 0 -65 60 0 60 0 0 65 0 65 65 0 65 0 0 60 0 60 -65 0 -65
0 0 65 0 65 65 0 65 0 0 65 0 65 -65 0 -65 0 0 60 0 60 -60 0 -60 0 0 -60z
m120 -125 l0 -65 -60 0 -60 0 0 -65 0 -65 60 0 60 0 0 -60 0 -60 -60 0 -60 0
0 60 0 60 -65 0 -65 0 0 -60 0 -60 -60 0 -60 0 0 -65 0 -65 -65 0 -65 0 0 65
0 65 65 0 65 0 0 60 0 60 60 0 60 0 0 65 0 65 65 0 65 0 0 65 0 65 60 0 60 0
0 -65z"/>
<path d="M5160 11660 l0 -60 65 0 65 0 0 60 0 60 -65 0 -65 0 0 -60z"/>
<path d="M9470 8370 l0 -60 60 0 60 0 0 -65 0 -65 65 0 65 0 0 125 0 125 -125
0 -125 0 0 -60z"/>
<path d="M10100 7735 l0 -65 60 0 60 0 0 -60 0 -60 65 0 65 0 0 60 0 60 -65 0
-65 0 0 65 0 65 -60 0 -60 0 0 -65z"/>
<path d="M10480 7610 l0 -60 60 0 60 0 0 -65 0 -65 65 0 65 0 0 -65 0 -65 -65
0 -65 0 0 -60 0 -60 65 0 65 0 0 60 0 60 65 0 65 0 0 65 0 65 -65 0 -65 0 0
65 0 65 -65 0 -65 0 0 60 0 60 -60 0 -60 0 0 -60z"/>
<path d="M10600 6975 l0 -65 65 0 65 0 0 65 0 65 -65 0 -65 0 0 -65z"/>
<path d="M8450 8875 l0 -65 -60 0 -60 0 0 -60 0 -60 60 0 60 0 0 -65 0 -65 65
0 65 0 0 65 0 65 65 0 65 0 0 60 0 60 -65 0 -65 0 0 65 0 65 -65 0 -65 0 0
-65z"/>
<path d="M7950 8560 l0 -130 -65 0 -65 0 0 -60 0 -60 65 0 65 0 0 -65 0 -65
60 0 60 0 0 65 0 65 65 0 65 0 0 60 0 60 -65 0 -65 0 0 130 0 130 -60 0 -60 0
0 -130z"/>
<path d="M7440 8115 l0 -65 -65 0 -65 0 0 -60 0 -60 65 0 65 0 0 -65 0 -65 65
0 65 0 0 65 0 65 60 0 60 0 0 60 0 60 -60 0 -60 0 0 65 0 65 -65 0 -65 0 0
-65z"/>
<path d="M6930 7865 l0 -65 65 0 65 0 0 65 0 65 -65 0 -65 0 0 -65z"/>
<path d="M5670 7105 l0 -65 60 0 60 0 0 65 0 65 -60 0 -60 0 0 -65z"/>
<path d="M5540 6215 l0 -65 -60 0 -60 0 0 -60 0 -60 60 0 60 0 0 60 0 60 65 0
65 0 0 -60 0 -60 60 0 60 0 0 60 0 60 65 0 65 0 0 65 0 65 -65 0 -65 0 0 -65
0 -65 -60 0 -60 0 0 65 0 65 -65 0 -65 0 0 -65z"/>
<path d="M8710 7355 l0 -65 -65 0 -65 0 0 -60 0 -60 65 0 65 0 0 60 0 60 60 0
60 0 0 -60 0 -60 65 0 65 0 0 60 0 60 -65 0 -65 0 0 65 0 65 -60 0 -60 0 0
-65z"/>
<path d="M8710 6595 l0 -65 60 0 60 0 0 65 0 65 -60 0 -60 0 0 -65z"/>
<path d="M8960 6595 l0 -65 65 0 65 0 0 65 0 65 -65 0 -65 0 0 -65z"/>
<path d="M8960 6345 l0 -65 65 0 65 0 0 65 0 65 -65 0 -65 0 0 -65z"/>
<path d="M8960 6090 l0 -60 65 0 65 0 0 60 0 60 -65 0 -65 0 0 -60z"/>
<path d="M6810 5965 l0 -65 -65 0 -65 0 0 -60 0 -60 -65 0 -65 0 0 -65 0 -65
-60 0 -60 0 0 65 0 65 -65 0 -65 0 0 -65 0 -65 -65 0 -65 0 0 65 0 65 -60 0
-60 0 0 -65 0 -65 60 0 60 0 0 -65 0 -65 65 0 65 0 0 65 0 65 65 0 65 0 0 -65
0 -65 60 0 60 0 0 -60 0 -60 65 0 65 0 0 60 0 60 65 0 65 0 0 -60 0 -60 60 0
60 0 0 60 0 60 -60 0 -60 0 0 65 0 65 60 0 60 0 0 65 0 65 65 0 65 0 0 60 0
60 -65 0 -65 0 0 65 0 65 -60 0 -60 0 0 -65z m120 -125 l0 -60 -60 0 -60 0 0
-65 0 -65 -65 0 -65 0 0 -65 0 -65 -65 0 -65 0 0 65 0 65 65 0 65 0 0 65 0 65
65 0 65 0 0 60 0 60 60 0 60 0 0 -60z"/>
<path d="M8830 5715 l0 -65 65 0 65 0 0 65 0 65 -65 0 -65 0 0 -65z"/>
<path d="M9340 6975 l0 -65 65 0 65 0 0 -60 0 -60 60 0 60 0 0 60 0 60 65 0
65 0 0 65 0 65 -65 0 -65 0 0 -65 0 -65 -60 0 -60 0 0 65 0 65 -65 0 -65 0 0
-65z"/>
<path d="M9470 6595 l0 -65 60 0 60 0 0 65 0 65 -60 0 -60 0 0 -65z"/>
<path d="M10350 6470 l0 -60 65 0 65 0 0 60 0 60 -65 0 -65 0 0 -60z"/>
<path d="M9470 6345 l0 -65 60 0 60 0 0 65 0 65 -60 0 -60 0 0 -65z"/>
<path d="M9470 6090 l0 -60 60 0 60 0 0 60 0 60 -60 0 -60 0 0 -60z"/>
<path d="M9470 5840 l0 -60 -65 0 -65 0 0 -65 0 -65 65 0 65 0 0 -65 0 -65
-65 0 -65 0 0 -60 0 -60 -65 0 -65 0 0 -65 0 -65 65 0 65 0 0 65 0 65 65 0 65
0 0 60 0 60 60 0 60 0 0 65 0 65 65 0 65 0 0 65 0 65 -65 0 -65 0 0 60 0 60
-60 0 -60 0 0 -60z m120 -125 l0 -65 -60 0 -60 0 0 65 0 65 60 0 60 0 0 -65z"/>
<path d="M5290 5205 l0 -65 65 0 65 0 0 65 0 65 -65 0 -65 0 0 -65z"/>
<path d="M5800 4890 l0 -130 125 0 125 0 0 -60 0 -60 60 0 60 0 0 60 0 60 65
0 65 0 0 -60 0 -60 65 0 65 0 0 60 0 60 -65 0 -65 0 0 65 0 65 -65 0 -65 0 0
65 0 65 -60 0 -60 0 0 -65 0 -65 -65 0 -65 0 0 65 0 65 -60 0 -60 0 0 -130z
m370 -65 l0 -65 -60 0 -60 0 0 65 0 65 60 0 60 0 0 -65z"/>
<path d="M10100 4700 l0 -60 -65 0 -65 0 0 -65 0 -65 -60 0 -60 0 0 65 0 65
-65 0 -65 0 0 -65 0 -65 -65 0 -65 0 0 -65 0 -65 -60 0 -60 0 0 65 0 65 -65 0
-65 0 0 -65 0 -65 65 0 65 0 0 -60 0 -60 60 0 60 0 0 60 0 60 65 0 65 0 0 65
0 65 65 0 65 0 0 -65 0 -65 60 0 60 0 0 65 0 65 65 0 65 0 0 65 0 65 60 0 60
0 0 60 0 60 -60 0 -60 0 0 -60z"/>
<path d="M5670 4130 l0 -130 125 0 125 0 0 65 0 65 -60 0 -60 0 0 65 0 65 -65
0 -65 0 0 -130z"/>
<path d="M6050 4195 l0 -65 60 0 60 0 0 -65 0 -65 -60 0 -60 0 0 -60 0 -60 60
0 60 0 0 60 0 60 65 0 65 0 0 65 0 65 -65 0 -65 0 0 65 0 65 -60 0 -60 0 0
-65z"/>
<path d="M8960 4065 l0 -65 -65 0 -65 0 0 -60 0 -60 65 0 65 0 0 60 0 60 65 0
65 0 0 65 0 65 -65 0 -65 0 0 -65z"/>
<path d="M10220 4065 l0 -65 65 0 65 0 0 65 0 65 -65 0 -65 0 0 -65z"/>
<path d="M9850 3940 l0 -60 60 0 60 0 0 60 0 60 -60 0 -60 0 0 -60z"/>
<path d="M9470 3815 l0 -65 60 0 60 0 0 65 0 65 -60 0 -60 0 0 -65z"/>
<path d="M10220 3560 l0 -60 -60 0 -60 0 0 -65 0 -65 -65 0 -65 0 0 65 0 65
-60 0 -60 0 0 -65 0 -65 -65 0 -65 0 0 -65 0 -65 -65 0 -65 0 0 65 0 65 -60 0
-60 0 0 -65 0 -65 -65 0 -65 0 0 65 0 65 -65 0 -65 0 0 65 0 65 -60 0 -60 0 0
-65 0 -65 -65 0 -65 0 0 -65 0 -65 -65 0 -65 0 0 65 0 65 -60 0 -60 0 0 -65 0
-65 60 0 60 0 0 -60 0 -60 65 0 65 0 0 -65 0 -65 -65 0 -65 0 0 -65 0 -65 65
0 65 0 0 -60 0 -60 -65 0 -65 0 0 -65 0 -65 65 0 65 0 0 65 0 65 65 0 65 0 0
60 0 60 60 0 60 0 0 -60 0 -60 65 0 65 0 0 60 0 60 65 0 65 0 0 -60 0 -60 60
0 60 0 0 60 0 60 65 0 65 0 0 65 0 65 65 0 65 0 0 -65 0 -65 60 0 60 0 0 65 0
65 65 0 65 0 0 65 0 65 60 0 60 0 0 60 0 60 65 0 65 0 0 65 0 65 -65 0 -65 0
0 65 0 65 65 0 65 0 0 60 0 60 -65 0 -65 0 0 -60z m-1010 -255 l0 -65 65 0 65
0 0 -60 0 -60 65 0 65 0 0 60 0 60 60 0 60 0 0 -60 0 -60 65 0 65 0 0 60 0 60
65 0 65 0 0 65 0 65 60 0 60 0 0 -65 0 -65 65 0 65 0 0 65 0 65 60 0 60 0 0
-65 0 -65 -60 0 -60 0 0 -60 0 -60 -65 0 -65 0 0 -65 0 -65 -60 0 -60 0 0 65
0 65 -65 0 -65 0 0 -65 0 -65 -65 0 -65 0 0 -65 0 -65 -60 0 -60 0 0 65 0 65
-65 0 -65 0 0 -65 0 -65 -65 0 -65 0 0 65 0 65 -60 0 -60 0 0 -65 0 -65 -65 0
-65 0 0 65 0 65 65 0 65 0 0 65 0 65 -65 0 -65 0 0 60 0 60 65 0 65 0 0 65 0
65 60 0 60 0 0 -65z"/>
<path d="M9090 3180 l0 -60 60 0 60 0 0 -65 0 -65 65 0 65 0 0 65 0 65 -65 0
-65 0 0 60 0 60 -60 0 -60 0 0 -60z"/>
<path d="M9850 3180 l0 -60 60 0 60 0 0 60 0 60 -60 0 -60 0 0 -60z"/>
<path d="M9470 3055 l0 -65 60 0 60 0 0 65 0 65 -60 0 -60 0 0 -65z"/>
<path d="M5540 3310 l0 -190 130 0 130 0 0 60 0 60 -65 0 -65 0 0 65 0 65 65
0 65 0 0 65 0 65 -130 0 -130 0 0 -190z"/>
<path d="M6050 3435 l0 -65 -65 0 -65 0 0 -65 0 -65 65 0 65 0 0 -60 0 -60
-65 0 -65 0 0 -65 0 -65 -60 0 -60 0 0 -65 0 -65 60 0 60 0 0 65 0 65 65 0 65
0 0 -65 0 -65 60 0 60 0 0 -60 0 -60 65 0 65 0 0 60 0 60 -65 0 -65 0 0 65 0
65 65 0 65 0 0 65 0 65 -65 0 -65 0 0 60 0 60 65 0 65 0 0 65 0 65 -65 0 -65
0 0 65 0 65 -60 0 -60 0 0 -65z m120 -130 l0 -65 -60 0 -60 0 0 65 0 65 60 0
60 0 0 -65z m0 -250 l0 -65 -60 0 -60 0 0 65 0 65 60 0 60 0 0 -65z"/>
</g>
</svg>
