<?xml version="1.0" standalone="no"?>
<!DOCTYPE svg PUBLIC "-//W3C//DTD SVG 20010904//EN"
 "http://www.w3.org/TR/2001/REC-SVG-20010904/DTD/svg10.dtd">
<svg version="1.0" xmlns="http://www.w3.org/2000/svg"
 width="1600.000000pt" height="1518.000000pt" viewBox="0 0 1600.000000 1518.000000"
 preserveAspectRatio="xMidYMid meet">

<g transform="translate(0.000000,1518.000000) scale(0.100000,-0.100000)"
fill="#000000" stroke="none">
<path d="M5610 13010 l0 -60 -130 0 -130 0 0 -65 0 -65 -125 0 -125 0 0 -65 0
-65 -65 0 -65 0 0 -60 0 -60 -60 0 -60 0 0 -65 0 -65 -65 0 -65 0 0 -65 0 -65
-65 0 -65 0 0 -60 0 -60 -60 0 -60 0 0 -65 0 -65 -65 0 -65 0 0 -125 0 -125
-65 0 -65 0 0 -65 0 -65 -60 0 -60 0 0 -65 0 -65 -65 0 -65 0 0 -125 0 -125
-65 0 -65 0 0 -65 0 -65 -60 0 -60 0 0 -190 0 -190 -65 0 -65 0 0 -440 0 -440
-65 0 -65 0 0 -885 0 -885 65 0 65 0 0 -65 0 -65 65 0 65 0 0 -65 0 -65 60 0
60 0 0 -60 0 -60 65 0 65 0 0 -65 0 -65 570 0 570 0 0 -255 0 -255 65 0 65 0
0 -315 0 -315 60 0 60 0 0 -125 0 -125 65 0 65 0 0 -380 0 -380 -65 0 -65 0 0
-315 0 -315 -60 0 -60 0 0 -825 0 -825 -65 0 -65 0 0 -380 0 -380 65 0 65 0 0
-65 0 -65 190 0 190 0 0 -60 0 -60 315 0 315 0 0 -65 0 -65 1010 0 1010 0 0
65 0 65 255 0 255 0 0 60 0 60 190 0 190 0 0 65 0 65 570 0 570 0 0 65 0 65
440 0 440 0 0 60 0 60 130 0 130 0 0 65 0 65 125 0 125 0 0 635 0 635 -65 0
-65 0 0 315 0 315 -60 0 -60 0 0 255 0 255 -65 0 -65 0 0 440 0 440 65 0 65 0
0 380 0 380 60 0 60 0 0 255 0 255 65 0 65 0 0 440 0 440 190 0 190 0 0 65 0
65 125 0 125 0 0 65 0 65 130 0 130 0 0 945 0 945 -65 0 -65 0 0 130 0 130
-65 0 -65 0 0 190 0 190 -60 0 -60 0 0 125 0 125 -65 0 -65 0 0 190 0 190 -65
0 -65 0 0 65 0 65 -125 0 -125 0 0 60 0 60 -65 0 -65 0 0 65 0 65 -60 0 -60 0
0 65 0 65 -65 0 -65 0 0 60 0 60 -65 0 -65 0 0 65 0 65 -125 0 -125 0 0 65 0
65 -125 0 -125 0 0 60 0 60 -130 0 -130 0 0 65 0 65 -125 0 -125 0 0 65 0 65
-760 0 -760 0 0 60 0 60 -1515 0 -1515 0 0 -60z m370 -255 l0 -65 190 0 190 0
0 -60 0 -60 65 0 65 0 0 -320 0 -320 65 0 65 0 0 130 0 130 125 0 125 0 0 125
0 125 190 0 190 0 0 -65 0 -65 125 0 125 0 0 -60 0 -60 255 0 255 0 0 -65 0
-65 445 0 445 0 0 -125 0 -125 -190 0 -190 0 0 -65 0 -65 -320 0 -320 0 0
-445 0 -445 320 0 320 0 0 -60 0 -60 250 0 250 0 0 -315 0 -315 -190 0 -190 0
0 -65 0 -65 -250 0 -250 0 0 -65 0 -65 -65 0 -65 0 0 -315 0 -315 -65 0 -65 0
0 -65 0 -65 65 0 65 0 0 -60 0 -60 65 0 65 0 0 60 0 60 60 0 60 0 0 -60 0 -60
65 0 65 0 0 60 0 60 65 0 65 0 0 -60 0 -60 60 0 60 0 0 60 0 60 65 0 65 0 0
-60 0 -60 65 0 65 0 0 -65 0 -65 60 0 60 0 0 -315 0 -315 -190 0 -190 0 0 -65
0 -65 -190 0 -190 0 0 -380 0 -380 65 0 65 0 0 -65 0 -65 190 0 190 0 0 -60 0
-60 125 0 125 0 0 -190 0 -190 -60 0 -60 0 0 -65 0 -65 60 0 60 0 0 -65 0 -65
-60 0 -60 0 0 -60 0 -60 60 0 60 0 0 -65 0 -65 -60 0 -60 0 0 -60 0 -60 -65 0
-65 0 0 60 0 60 -65 0 -65 0 0 -60 0 -60 -570 0 -570 0 0 60 0 60 -60 0 -60 0
0 -60 0 -60 -65 0 -65 0 0 60 0 60 -65 0 -65 0 0 65 0 65 -60 0 -60 0 0 60 0
60 60 0 60 0 0 65 0 65 -60 0 -60 0 0 65 0 65 -65 0 -65 0 0 -65 0 -65 -65 0
-65 0 0 65 0 65 65 0 65 0 0 60 0 60 -125 0 -125 0 0 -60 0 -60 -65 0 -65 0 0
190 0 190 -190 0 -190 0 0 60 0 60 190 0 190 0 0 -60 0 -60 65 0 65 0 0 -65 0
-65 125 0 125 0 0 65 0 65 -65 0 -65 0 0 60 0 60 65 0 65 0 0 65 0 65 -255 0
-255 0 0 65 0 65 255 0 255 0 0 60 0 60 -125 0 -125 0 0 65 0 65 125 0 125 0
0 65 0 65 -65 0 -65 0 0 60 0 60 -60 0 -60 0 0 -60 0 -60 -65 0 -65 0 0 -65 0
-65 -65 0 -65 0 0 190 0 190 -190 0 -190 0 0 65 0 65 -60 0 -60 0 0 125 0 125
60 0 60 0 0 125 0 125 65 0 65 0 0 -60 0 -60 65 0 65 0 0 125 0 125 60 0 60 0
0 -125 0 -125 -60 0 -60 0 0 -65 0 -65 125 0 125 0 0 -65 0 -65 -125 0 -125 0
0 65 0 65 -65 0 -65 0 0 -65 0 -65 -65 0 -65 0 0 -60 0 -60 190 0 190 0 0 -65
0 -65 65 0 65 0 0 -65 0 -65 65 0 65 0 0 65 0 65 60 0 60 0 0 -65 0 -65 65 0
65 0 0 65 0 65 65 0 65 0 0 65 0 65 60 0 60 0 0 60 0 60 -60 0 -60 0 0 65 0
65 -65 0 -65 0 0 -65 0 -65 -65 0 -65 0 0 130 0 130 -125 0 -125 0 0 60 0 60
65 0 65 0 0 65 0 65 60 0 60 0 0 65 0 65 -190 0 -190 0 0 125 0 125 -190 0
-190 0 0 65 0 65 255 0 255 0 0 60 0 60 -125 0 -125 0 0 255 0 255 -65 0 -65
0 0 -65 0 -65 -65 0 -65 0 0 65 0 65 65 0 65 0 0 65 0 65 -65 0 -65 0 0 60 0
60 65 0 65 0 0 65 0 65 -65 0 -65 0 0 60 0 60 -60 0 -60 0 0 65 0 65 60 0 60
0 0 65 0 65 -60 0 -60 0 0 190 0 190 -65 0 -65 0 0 60 0 60 -60 0 -60 0 0
-190 0 -190 60 0 60 0 0 -125 0 -125 -60 0 -60 0 0 -190 0 -190 -65 0 -65 0 0
-125 0 -125 65 0 65 0 0 65 0 65 60 0 60 0 0 -65 0 -65 65 0 65 0 0 -695 0
-695 -65 0 -65 0 0 -65 0 -65 -60 0 -60 0 0 -65 0 -65 60 0 60 0 0 -60 0 -60
-60 0 -60 0 0 -65 0 -65 -190 0 -190 0 0 -65 0 -65 -190 0 -190 0 0 65 0 65
125 0 125 0 0 65 0 65 -65 0 -65 0 0 60 0 60 -60 0 -60 0 0 65 0 65 60 0 60 0
0 65 0 65 -60 0 -60 0 0 60 0 60 -255 0 -255 0 0 65 0 65 255 0 255 0 0 -65 0
-65 60 0 60 0 0 65 0 65 65 0 65 0 0 65 0 65 -65 0 -65 0 0 60 0 60 -60 0 -60
0 0 -60 0 -60 -65 0 -65 0 0 60 0 60 65 0 65 0 0 65 0 65 60 0 60 0 0 65 0 65
-60 0 -60 0 0 60 0 60 -130 0 -130 0 0 65 0 65 -190 0 -190 0 0 65 0 65 190 0
190 0 0 -65 0 -65 130 0 130 0 0 65 0 65 -65 0 -65 0 0 60 0 60 -125 0 -125 0
0 65 0 65 125 0 125 0 0 65 0 65 65 0 65 0 0 60 0 60 60 0 60 0 0 65 0 65 -60
0 -60 0 0 60 0 60 60 0 60 0 0 65 0 65 -60 0 -60 0 0 65 0 65 60 0 60 0 0 60
0 60 -60 0 -60 0 0 65 0 65 60 0 60 0 0 65 0 65 -60 0 -60 0 0 60 0 60 60 0
60 0 0 65 0 65 65 0 65 0 0 125 0 125 -65 0 -65 0 0 65 0 65 -60 0 -60 0 0
-65 0 -65 -65 0 -65 0 0 190 0 190 65 0 65 0 0 -60 0 -60 60 0 60 0 0 190 0
190 65 0 65 0 0 -190 0 -190 -65 0 -65 0 0 -65 0 -65 65 0 65 0 0 -65 0 -65
65 0 65 0 0 65 0 65 190 0 190 0 0 65 0 65 -190 0 -190 0 0 60 0 60 190 0 190
0 0 -60 0 -60 60 0 60 0 0 125 0 125 -125 0 -125 0 0 65 0 65 -65 0 -65 0 0
-65 0 -65 -60 0 -60 0 0 190 0 190 60 0 60 0 0 -65 0 -65 65 0 65 0 0 190 0
190 65 0 65 0 0 -190 0 -190 -65 0 -65 0 0 -60 0 -60 190 0 190 0 0 60 0 60
-65 0 -65 0 0 65 0 65 190 0 190 0 0 -65 0 -65 125 0 125 0 0 130 0 130 -190
0 -190 0 0 60 0 60 -60 0 -60 0 0 -60 0 -60 -65 0 -65 0 0 125 0 125 125 0
125 0 0 -65z m4180 -125 l0 -60 65 0 65 0 0 -65 0 -65 60 0 60 0 0 -65 0 -65
-60 0 -60 0 0 -125 0 -125 60 0 60 0 0 -65 0 -65 65 0 65 0 0 190 0 190 65 0
65 0 0 -190 0 -190 -65 0 -65 0 0 -60 0 -60 125 0 125 0 0 60 0 60 190 0 190
0 0 65 0 65 -60 0 -60 0 0 65 0 65 -65 0 -65 0 0 -65 0 -65 -65 0 -65 0 0 65
0 65 65 0 65 0 0 60 0 60 65 0 65 0 0 -60 0 -60 60 0 60 0 0 -65 0 -65 65 0
65 0 0 -65 0 -65 65 0 65 0 0 -60 0 -60 60 0 60 0 0 -65 0 -65 65 0 65 0 0
-65 0 -65 -65 0 -65 0 0 65 0 65 -60 0 -60 0 0 65 0 65 -65 0 -65 0 0 -65 0
-65 -65 0 -65 0 0 65 0 65 -125 0 -125 0 0 -130 0 -130 65 0 65 0 0 -60 0 -60
60 0 60 0 0 60 0 60 65 0 65 0 0 -60 0 -60 65 0 65 0 0 -65 0 -65 -65 0 -65 0
0 -65 0 -65 65 0 65 0 0 -60 0 -60 60 0 60 0 0 -65 0 -65 65 0 65 0 0 65 0 65
65 0 65 0 0 60 0 60 -65 0 -65 0 0 65 0 65 -65 0 -65 0 0 65 0 65 65 0 65 0 0
-65 0 -65 65 0 65 0 0 -65 0 -65 60 0 60 0 0 -60 0 -60 -60 0 -60 0 0 -65 0
-65 -65 0 -65 0 0 -65 0 -65 -65 0 -65 0 0 -60 0 -60 65 0 65 0 0 -65 0 -65
-65 0 -65 0 0 65 0 65 -60 0 -60 0 0 60 0 60 -65 0 -65 0 0 -190 0 -190 65 0
65 0 0 -125 0 -125 60 0 60 0 0 -1330 0 -1330 -60 0 -60 0 0 -250 0 -250 -65
0 -65 0 0 -320 0 -320 -65 0 -65 0 0 -60 0 -60 -250 0 -250 0 0 -65 0 -65
-255 0 -255 0 0 -60 0 -60 -315 0 -315 0 0 60 0 60 -65 0 -65 0 0 -60 0 -60
-60 0 -60 0 0 60 0 60 -65 0 -65 0 0 445 0 445 65 0 65 0 0 60 0 60 250 0 250
0 0 65 0 65 65 0 65 0 0 65 0 65 65 0 65 0 0 315 0 315 -255 0 -255 0 0 65 0
65 -190 0 -190 0 0 380 0 380 125 0 125 0 0 60 0 60 320 0 320 0 0 65 0 65 60
0 60 0 0 65 0 65 65 0 65 0 0 60 0 60 -65 0 -65 0 0 190 0 190 -60 0 -60 0 0
65 0 65 -255 0 -255 0 0 65 0 65 -190 0 -190 0 0 315 0 315 65 0 65 0 0 60 0
60 250 0 250 0 0 65 0 65 65 0 65 0 0 65 0 65 60 0 60 0 0 250 0 250 -60 0
-60 0 0 65 0 65 -255 0 -255 0 0 65 0 65 -190 0 -190 0 0 190 0 190 255 0 255
0 0 60 0 60 125 0 125 0 0 65 0 65 125 0 125 0 0 125 0 125 65 0 65 0 0 -60z
m-3420 -125 l0 -65 -60 0 -60 0 0 65 0 65 60 0 60 0 0 -65z m-2150 -1015 l0
-190 -60 0 -60 0 0 -65 0 -65 125 0 125 0 0 -60 0 -60 -125 0 -125 0 0 60 0
60 -130 0 -130 0 0 130 0 130 65 0 65 0 0 -65 0 -65 65 0 65 0 0 190 0 190 60
0 60 0 0 -190z m4560 125 l0 -65 65 0 65 0 0 -315 0 -315 -320 0 -320 0 0 380
0 380 255 0 255 0 0 -65z m-630 -315 l0 -250 -255 0 -255 0 0 250 0 250 255 0
255 0 0 -250z m1260 190 l0 -60 65 0 65 0 0 -130 0 -130 -65 0 -65 0 0 -60 0
-60 -190 0 -190 0 0 250 0 250 190 0 190 0 0 -60z m-4930 -125 l0 -65 -65 0
-65 0 0 65 0 65 65 0 65 0 0 -65z m-640 -445 l0 -130 -60 0 -60 0 0 -60 0 -60
125 0 125 0 0 -65 0 -65 -125 0 -125 0 0 65 0 65 -65 0 -65 0 0 -65 0 -65 -65
0 -65 0 0 65 0 65 65 0 65 0 0 60 0 60 65 0 65 0 0 130 0 130 60 0 60 0 0
-130z m380 -65 l0 -65 65 0 65 0 0 -125 0 -125 -65 0 -65 0 0 125 0 125 -125
0 -125 0 0 65 0 65 125 0 125 0 0 -65z m7600 0 l0 -65 -130 0 -130 0 0 65 0
65 130 0 130 0 0 -65z m-130 -250 l0 -65 125 0 125 0 0 -125 0 -125 65 0 65 0
0 -255 0 -255 -65 0 -65 0 0 65 0 65 -125 0 -125 0 0 65 0 65 125 0 125 0 0
125 0 125 -60 0 -60 0 0 -65 0 -65 -65 0 -65 0 0 190 0 190 -125 0 -125 0 0
65 0 65 125 0 125 0 0 -65z m-7850 -255 l0 -60 65 0 65 0 0 -65 0 -65 65 0 65
0 0 125 0 125 60 0 60 0 0 -125 0 -125 -60 0 -60 0 0 -60 0 -60 -65 0 -65 0 0
-65 0 -65 -65 0 -65 0 0 190 0 190 -190 0 -190 0 0 60 0 60 190 0 190 0 0 -60z
m7470 0 l0 -60 -65 0 -65 0 0 60 0 60 65 0 65 0 0 -60z m-7720 -250 l0 -60 65
0 65 0 0 -190 0 -190 -65 0 -65 0 0 -65 0 -65 -65 0 -65 0 0 -65 0 -65 -60 0
-60 0 0 190 0 190 60 0 60 0 0 -60 0 -60 65 0 65 0 0 190 0 190 -65 0 -65 0 0
60 0 60 65 0 65 0 0 -60z m7970 0 l0 -60 -60 0 -60 0 0 60 0 60 60 0 60 0 0
-60z m-2530 -570 l0 -380 -315 0 -315 0 0 380 0 380 315 0 315 0 0 -380z
m-760 0 l0 -250 -250 0 -250 0 0 190 0 190 60 0 60 0 0 60 0 60 190 0 190 0 0
-250z m1270 190 l0 -60 65 0 65 0 0 -190 0 -190 -255 0 -255 0 0 250 0 250
190 0 190 0 0 -60z m2280 0 l0 -60 125 0 125 0 0 -510 0 -510 -125 0 -125 0 0
-60 0 -60 -65 0 -65 0 0 60 0 60 -65 0 -65 0 0 65 0 65 65 0 65 0 0 65 0 65
65 0 65 0 0 60 0 60 -65 0 -65 0 0 65 0 65 -65 0 -65 0 0 65 0 65 65 0 65 0 0
-65 0 -65 65 0 65 0 0 255 0 255 -130 0 -130 0 0 60 0 60 130 0 130 0 0 -60z
m-6080 -125 l0 -65 -65 0 -65 0 0 65 0 65 65 0 65 0 0 -65z m5700 -130 l0 -65
-65 0 -65 0 0 65 0 65 65 0 65 0 0 -65z m-7470 -125 l0 -60 65 0 65 0 0 -65 0
-65 60 0 60 0 0 65 0 65 65 0 65 0 0 -65 0 -65 -65 0 -65 0 0 -65 0 -65 -60 0
-60 0 0 -60 0 -60 -65 0 -65 0 0 190 0 190 -190 0 -190 0 0 60 0 60 190 0 190
0 0 -60z m-250 -255 l0 -65 60 0 60 0 0 -190 0 -190 -60 0 -60 0 0 -60 0 -60
-65 0 -65 0 0 -65 0 -65 -65 0 -65 0 0 190 0 190 -60 0 -60 0 0 65 0 65 60 0
60 0 0 -65 0 -65 65 0 65 0 0 -65 0 -65 65 0 65 0 0 190 0 190 -190 0 -190 0
0 65 0 65 190 0 190 0 0 -65z m7720 -125 l0 -190 -65 0 -65 0 0 190 0 190 65
0 65 0 0 -190z m-5700 0 l0 -60 -65 0 -65 0 0 60 0 60 65 0 65 0 0 -60z
m-1520 -505 l0 -65 65 0 65 0 0 -190 0 -190 -65 0 -65 0 0 -65 0 -65 -125 0
-125 0 0 130 0 130 -255 0 -255 0 0 60 0 60 255 0 255 0 0 -60 0 -60 65 0 65
0 0 -65 0 -65 60 0 60 0 0 190 0 190 -190 0 -190 0 0 65 0 65 190 0 190 0 0
-65z m7220 0 l0 -65 -65 0 -65 0 0 65 0 65 65 0 65 0 0 -65z m-2410 -825 l0
-380 -315 0 -315 0 0 380 0 380 315 0 315 0 0 -380z m-3790 190 l0 -60 -65 0
-65 0 0 60 0 60 65 0 65 0 0 -60z m500 0 l0 -60 65 0 65 0 0 -190 0 -190 -65
0 -65 0 0 -65 0 -65 -65 0 -65 0 0 -65 0 -65 -60 0 -60 0 0 190 0 190 -190 0
-190 0 0 65 0 65 190 0 190 0 0 -65 0 -65 60 0 60 0 0 -60 0 -60 65 0 65 0 0
190 0 190 -190 0 -190 0 0 60 0 60 190 0 190 0 0 -60z m2530 -190 l0 -250
-125 0 -125 0 0 250 0 250 125 0 125 0 0 -250z m1270 60 l0 -190 -65 0 -65 0
0 -60 0 -60 -125 0 -125 0 0 250 0 250 190 0 190 0 0 -190z m-4300 -375 l0
-65 60 0 60 0 0 -190 0 -190 -60 0 -60 0 0 -65 0 -65 -65 0 -65 0 0 65 0 65
65 0 65 0 0 190 0 190 -65 0 -65 0 0 65 0 65 65 0 65 0 0 -65z m630 -510 l0
-65 60 0 60 0 0 -190 0 -190 130 0 130 0 0 -60 0 -60 -130 0 -130 0 0 60 0 60
-60 0 -60 0 0 -60 0 -60 -130 0 -130 0 0 125 0 125 -185 0 -185 0 0 65 0 65
185 0 185 0 0 -65 0 -65 65 0 65 0 0 -65 0 -65 65 0 65 0 0 190 0 190 -190 0
-190 0 0 65 0 65 190 0 190 0 0 -65z m-380 -755 l0 -60 440 0 440 0 0 -65 0
-65 570 0 570 0 0 -315 0 -315 -315 0 -315 0 0 60 0 60 -570 0 -570 0 0 65 0
65 -125 0 -125 0 0 65 0 65 -65 0 -65 0 0 250 0 250 65 0 65 0 0 -60z m5310
-130 l0 -190 -60 0 -60 0 0 -60 0 -60 -130 0 -130 0 0 -65 0 -65 -60 0 -60 0
0 -65 0 -65 -380 0 -380 0 0 -60 0 -60 -125 0 -125 0 0 315 0 315 315 0 315 0
0 65 0 65 250 0 250 0 0 60 0 60 190 0 190 0 0 -190z m-1640 -440 l0 -380
-695 0 -695 0 0 65 0 65 -65 0 -65 0 0 315 0 315 760 0 760 0 0 -380z m-3800
-190 l0 -60 65 0 65 0 0 -65 0 -65 65 0 65 0 0 65 0 65 60 0 60 0 0 -65 0 -65
-60 0 -60 0 0 -65 0 -65 -65 0 -65 0 0 -60 0 -60 -65 0 -65 0 0 190 0 190 -60
0 -60 0 0 60 0 60 60 0 60 0 0 -60z m5440 -65 l0 -125 65 0 65 0 0 -255 0
-255 65 0 65 0 0 -315 0 -315 60 0 60 0 0 -505 0 -505 -125 0 -125 0 0 -65 0
-65 -125 0 -125 0 0 -65 0 -65 -380 0 -380 0 0 65 0 65 -65 0 -65 0 0 -65 0
-65 -60 0 -60 0 0 -60 0 -60 -65 0 -65 0 0 60 0 60 65 0 65 0 0 65 0 65 60 0
60 0 0 65 0 65 -60 0 -60 0 0 60 0 60 -130 0 -130 0 0 65 0 65 130 0 130 0 0
-65 0 -65 60 0 60 0 0 65 0 65 65 0 65 0 0 65 0 65 -65 0 -65 0 0 60 0 60 -60
0 -60 0 0 -60 0 -60 -65 0 -65 0 0 60 0 60 65 0 65 0 0 65 0 65 -65 0 -65 0 0
65 0 65 65 0 65 0 0 60 0 60 -65 0 -65 0 0 65 0 65 -125 0 -125 0 0 65 0 65
125 0 125 0 0 -65 0 -65 65 0 65 0 0 -65 0 -65 60 0 60 0 0 65 0 65 65 0 65 0
0 65 0 65 -65 0 -65 0 0 60 0 60 -125 0 -125 0 0 65 0 65 125 0 125 0 0 -65 0
-65 65 0 65 0 0 65 0 65 60 0 60 0 0 65 0 65 -125 0 -125 0 0 60 0 60 125 0
125 0 0 65 0 65 -60 0 -60 0 0 65 0 65 -65 0 -65 0 0 -65 0 -65 -60 0 -60 0 0
-65 0 -65 -65 0 -65 0 0 190 0 190 -125 0 -125 0 0 65 0 65 125 0 125 0 0 -65
0 -65 65 0 65 0 0 -60 0 -60 60 0 60 0 0 125 0 125 125 0 125 0 0 -65 0 -65
65 0 65 0 0 65 0 65 65 0 65 0 0 -65 0 -65 60 0 60 0 0 65 0 65 65 0 65 0 0
65 0 65 65 0 65 0 0 60 0 60 60 0 60 0 0 -125z m-4170 -60 l0 -65 60 0 60 0 0
-65 0 -65 130 0 130 0 0 -60 0 -60 -130 0 -130 0 0 60 0 60 -60 0 -60 0 0 -60
0 -60 -65 0 -65 0 0 190 0 190 65 0 65 0 0 -65z m-380 -130 l0 -65 60 0 60 0
0 -190 0 -190 -60 0 -60 0 0 -60 0 -60 190 0 190 0 0 -65 0 -65 60 0 60 0 0
-125 0 -125 -60 0 -60 0 0 125 0 125 -190 0 -190 0 0 65 0 65 -65 0 -65 0 0
-65 0 -65 -65 0 -65 0 0 190 0 190 -185 0 -185 0 0 65 0 65 185 0 185 0 0 -65
0 -65 65 0 65 0 0 -65 0 -65 65 0 65 0 0 190 0 190 -190 0 -190 0 0 65 0 65
190 0 190 0 0 -65z m1260 0 l0 -65 190 0 190 0 0 -60 0 -60 65 0 65 0 0 -65 0
-65 -65 0 -65 0 0 -65 0 -65 -60 0 -60 0 0 -60 0 -60 -255 0 -255 0 0 60 0 60
-65 0 -65 0 0 130 0 130 65 0 65 0 0 125 0 125 125 0 125 0 0 -65z m1020 -565
l0 -380 -190 0 -190 0 0 -65 0 -65 -255 0 -255 0 0 -315 0 -315 65 0 65 0 0
-130 0 -130 315 0 315 0 0 -125 0 -125 65 0 65 0 0 -190 0 -190 -130 0 -130 0
0 -65 0 -65 -250 0 -250 0 0 -60 0 -60 -700 0 -700 0 0 60 0 60 -60 0 -60 0 0
65 0 65 60 0 60 0 0 65 0 65 -60 0 -60 0 0 60 0 60 60 0 60 0 0 65 0 65 65 0
65 0 0 65 0 65 65 0 65 0 0 60 0 60 -255 0 -255 0 0 65 0 65 255 0 255 0 0 65
0 65 -130 0 -130 0 0 60 0 60 130 0 130 0 0 130 0 130 125 0 125 0 0 60 0 60
-65 0 -65 0 0 65 0 65 65 0 65 0 0 65 0 65 65 0 65 0 0 60 0 60 -65 0 -65 0 0
65 0 65 65 0 65 0 0 65 0 65 -65 0 -65 0 0 60 0 60 -190 0 -190 0 0 65 0 65
190 0 190 0 0 -65 0 -65 65 0 65 0 0 -60 0 -60 60 0 60 0 0 -65 0 -65 65 0 65
0 0 -65 0 -65 65 0 65 0 0 65 0 65 60 0 60 0 0 -65 0 -65 65 0 65 0 0 65 0 65
125 0 125 0 0 65 0 65 65 0 65 0 0 60 0 60 65 0 65 0 0 130 0 130 190 0 190 0
0 -380z m250 250 l0 -130 125 0 125 0 0 -60 0 -60 65 0 65 0 0 -65 0 -65 65 0
65 0 0 190 0 190 -190 0 -190 0 0 65 0 65 190 0 190 0 0 -65 0 -65 60 0 60 0
0 -190 0 -190 -60 0 -60 0 0 -65 0 -65 -65 0 -65 0 0 -60 0 -60 -65 0 -65 0 0
190 0 190 -190 0 -190 0 0 190 0 190 65 0 65 0 0 -130z m-3540 -65 l0 -65 -65
0 -65 0 0 65 0 65 65 0 65 0 0 -65z m500 -125 l0 -60 65 0 65 0 0 -190 0 -190
-65 0 -65 0 0 -65 0 -65 190 0 190 0 0 -65 0 -65 65 0 65 0 0 -190 0 -190 -65
0 -65 0 0 -60 0 -60 -65 0 -65 0 0 -65 0 -65 -60 0 -60 0 0 190 0 190 -190 0
-190 0 0 65 0 65 190 0 190 0 0 -65 0 -65 60 0 60 0 0 -65 0 -65 65 0 65 0 0
190 0 190 -190 0 -190 0 0 65 0 65 -60 0 -60 0 0 -65 0 -65 -65 0 -65 0 0 190
0 190 -190 0 -190 0 0 65 0 65 190 0 190 0 0 -65 0 -65 65 0 65 0 0 -60 0 -60
60 0 60 0 0 190 0 190 -190 0 -190 0 0 60 0 60 190 0 190 0 0 -60z m3040 -255
l0 -65 65 0 65 0 0 -60 0 -60 -65 0 -65 0 0 60 0 60 -65 0 -65 0 0 65 0 65 65
0 65 0 0 -65z m-2410 -125 l0 -60 65 0 65 0 0 -65 0 -65 65 0 65 0 0 -65 0
-65 -65 0 -65 0 0 -60 0 -60 -65 0 -65 0 0 190 0 190 -190 0 -190 0 0 60 0 60
190 0 190 0 0 -60z m-1130 -125 l0 -65 60 0 60 0 0 -190 0 -190 -60 0 -60 0 0
-65 0 -65 190 0 190 0 0 -60 0 -60 60 0 60 0 0 -190 0 -190 -60 0 -60 0 0 -65
0 -65 -65 0 -65 0 0 -65 0 -65 -65 0 -65 0 0 190 0 190 -125 0 -125 0 0 65 0
65 125 0 125 0 0 -65 0 -65 65 0 65 0 0 -60 0 -60 65 0 65 0 0 190 0 190 -190
0 -190 0 0 60 0 60 -65 0 -65 0 0 65 0 65 65 0 65 0 0 190 0 190 -65 0 -65 0
0 65 0 65 65 0 65 0 0 -65z m3670 -445 l0 -380 -320 0 -320 0 0 380 0 380 320
0 320 0 0 -380z m-760 0 l0 -250 -130 0 -130 0 0 60 0 60 -60 0 -60 0 0 190 0
190 190 0 190 0 0 -250z m1140 0 l0 -250 -130 0 -130 0 0 250 0 250 130 0 130
0 0 -250z m0 -445 l0 -65 -65 0 -65 0 0 65 0 65 65 0 65 0 0 -65z m-260 -190
l0 -125 -60 0 -60 0 0 -65 0 -65 190 0 190 0 0 -60 0 -60 -190 0 -190 0 0 60
0 60 -65 0 -65 0 0 -60 0 -60 -65 0 -65 0 0 125 0 125 130 0 130 0 0 125 0
125 60 0 60 0 0 -125z m-3920 -60 l0 -65 65 0 65 0 0 -190 0 -190 -65 0 -65 0
0 190 0 190 -65 0 -65 0 0 65 0 65 65 0 65 0 0 -65z m1140 0 l0 -65 -190 0
-190 0 0 65 0 65 190 0 190 0 0 -65z m3290 0 l0 -65 -190 0 -190 0 0 65 0 65
190 0 190 0 0 -65z m-3550 -255 l0 -60 65 0 65 0 0 -190 0 -190 -65 0 -65 0 0
190 0 190 -185 0 -185 0 0 60 0 60 185 0 185 0 0 -60z m-370 -255 l0 -65 -65
0 -65 0 0 65 0 65 65 0 65 0 0 -65z"/>
<path d="M5980 12250 l0 -60 -60 0 -60 0 0 -65 0 -65 60 0 60 0 0 65 0 65 65
0 65 0 0 -65 0 -65 65 0 65 0 0 65 0 65 -65 0 -65 0 0 60 0 60 -65 0 -65 0 0
-60z"/>
<path d="M5610 11365 l0 -65 60 0 60 0 0 -65 0 -65 65 0 65 0 0 65 0 65 -65 0
-65 0 0 65 0 65 -60 0 -60 0 0 -65z"/>
<path d="M4970 11110 l0 -60 65 0 65 0 0 60 0 60 -65 0 -65 0 0 -60z"/>
<path d="M4970 10605 l0 -65 65 0 65 0 0 65 0 65 -65 0 -65 0 0 -65z"/>
<path d="M6110 10605 l0 -65 -65 0 -65 0 0 -65 0 -65 65 0 65 0 0 65 0 65 65
0 65 0 0 65 0 65 -65 0 -65 0 0 -65z"/>
<path d="M4970 10350 l0 -60 65 0 65 0 0 60 0 60 -65 0 -65 0 0 -60z"/>
<path d="M4970 10100 l0 -60 -60 0 -60 0 0 -65 0 -65 -65 0 -65 0 0 -65 0 -65
65 0 65 0 0 -60 0 -60 60 0 60 0 0 -65 0 -65 -60 0 -60 0 0 -65 0 -65 60 0 60
0 0 -60 0 -60 65 0 65 0 0 60 0 60 -65 0 -65 0 0 65 0 65 65 0 65 0 0 65 0 65
-65 0 -65 0 0 60 0 60 65 0 65 0 0 65 0 65 -65 0 -65 0 0 65 0 65 65 0 65 0 0
60 0 60 -65 0 -65 0 0 -60z m0 -255 l0 -65 -60 0 -60 0 0 65 0 65 60 0 60 0 0
-65z"/>
<path d="M6490 9150 l0 -130 125 0 125 0 0 -60 0 -60 65 0 65 0 0 -65 0 -65
-65 0 -65 0 0 -125 0 -125 130 0 130 0 0 -65 0 -65 60 0 60 0 0 -65 0 -65 65
0 65 0 0 -60 0 -60 -65 0 -65 0 0 -65 0 -65 -60 0 -60 0 0 -65 0 -65 -65 0
-65 0 0 -60 0 -60 65 0 65 0 0 -65 0 -65 -65 0 -65 0 0 -65 0 -65 65 0 65 0 0
-60 0 -60 -65 0 -65 0 0 -65 0 -65 65 0 65 0 0 -65 0 -65 -65 0 -65 0 0 -60 0
-60 65 0 65 0 0 -65 0 -65 -65 0 -65 0 0 -65 0 -65 65 0 65 0 0 -60 0 -60 60
0 60 0 0 60 0 60 -60 0 -60 0 0 65 0 65 60 0 60 0 0 65 0 65 -60 0 -60 0 0 60
0 60 60 0 60 0 0 65 0 65 -60 0 -60 0 0 65 0 65 60 0 60 0 0 60 0 60 65 0 65
0 0 65 0 65 -65 0 -65 0 0 65 0 65 65 0 65 0 0 60 0 60 -65 0 -65 0 0 65 0 65
65 0 65 0 0 65 0 65 65 0 65 0 0 60 0 60 60 0 60 0 0 65 0 65 65 0 65 0 0 -65
0 -65 65 0 65 0 0 65 0 65 60 0 60 0 0 65 0 65 65 0 65 0 0 60 0 60 65 0 65 0
0 -60 0 -60 60 0 60 0 0 60 0 60 65 0 65 0 0 65 0 65 65 0 65 0 0 -65 0 -65
60 0 60 0 0 65 0 65 65 0 65 0 0 65 0 65 -65 0 -65 0 0 -65 0 -65 -60 0 -60 0
0 65 0 65 -65 0 -65 0 0 -65 0 -65 -65 0 -65 0 0 65 0 65 -60 0 -60 0 0 -65 0
-65 -65 0 -65 0 0 65 0 65 -65 0 -65 0 0 60 0 60 -60 0 -60 0 0 65 0 65 -65 0
-65 0 0 -65 0 -65 -65 0 -65 0 0 65 0 65 -60 0 -60 0 0 -65 0 -65 -65 0 -65 0
0 65 0 65 -65 0 -65 0 0 -65 0 -65 -60 0 -60 0 0 65 0 65 -65 0 -65 0 0 65 0
65 -65 0 -65 0 0 -65 0 -65 -60 0 -60 0 0 65 0 65 -65 0 -65 0 0 -130z m380
-65 l0 -65 65 0 65 0 0 -60 0 -60 60 0 60 0 0 60 0 60 65 0 65 0 0 -60 0 -60
65 0 65 0 0 60 0 60 60 0 60 0 0 -60 0 -60 65 0 65 0 0 60 0 60 65 0 65 0 0
-60 0 -60 60 0 60 0 0 -65 0 -65 65 0 65 0 0 -65 0 -65 -65 0 -65 0 0 -60 0
-60 -60 0 -60 0 0 -65 0 -65 -65 0 -65 0 0 65 0 65 -65 0 -65 0 0 -65 0 -65
-60 0 -60 0 0 -65 0 -65 -65 0 -65 0 0 65 0 65 -65 0 -65 0 0 65 0 65 -60 0
-60 0 0 60 0 60 -65 0 -65 0 0 65 0 65 65 0 65 0 0 65 0 65 -65 0 -65 0 0 60
0 60 -65 0 -65 0 0 65 0 65 65 0 65 0 0 -65z m1390 -380 l0 -65 -60 0 -60 0 0
65 0 65 60 0 60 0 0 -65z m-1140 -885 l0 -60 -60 0 -60 0 0 60 0 60 60 0 60 0
0 -60z m0 -255 l0 -65 -60 0 -60 0 0 65 0 65 60 0 60 0 0 -65z"/>
<path d="M7120 8835 l0 -65 -60 0 -60 0 0 -65 0 -65 60 0 60 0 0 -60 0 -60 65
0 65 0 0 -65 0 -65 65 0 65 0 0 65 0 65 60 0 60 0 0 60 0 60 65 0 65 0 0 -60
0 -60 65 0 65 0 0 60 0 60 60 0 60 0 0 65 0 65 -60 0 -60 0 0 65 0 65 -65 0
-65 0 0 -65 0 -65 -65 0 -65 0 0 65 0 65 -60 0 -60 0 0 -65 0 -65 -65 0 -65 0
0 65 0 65 -65 0 -65 0 0 -65z m130 -130 l0 -65 65 0 65 0 0 65 0 65 60 0 60 0
0 -65 0 -65 -60 0 -60 0 0 -60 0 -60 -65 0 -65 0 0 60 0 60 -65 0 -65 0 0 65
0 65 65 0 65 0 0 -65z m510 0 l0 -65 -65 0 -65 0 0 65 0 65 65 0 65 0 0 -65z"/>
<path d="M4970 9085 l0 -65 65 0 65 0 0 65 0 65 -65 0 -65 0 0 -65z"/>
<path d="M4970 8580 l0 -60 65 0 65 0 0 60 0 60 -65 0 -65 0 0 -60z"/>
<path d="M4970 8325 l0 -65 65 0 65 0 0 65 0 65 -65 0 -65 0 0 -65z"/>
<path d="M8770 6425 l0 -65 65 0 65 0 0 65 0 65 -65 0 -65 0 0 -65z"/>
<path d="M8770 6175 l0 -65 65 0 65 0 0 65 0 65 -65 0 -65 0 0 -65z"/>
<path d="M11170 11870 l0 -60 65 0 65 0 0 60 0 60 -65 0 -65 0 0 -60z"/>
<path d="M11170 11365 l0 -65 65 0 65 0 0 65 0 65 -65 0 -65 0 0 -65z"/>
<path d="M11300 10985 l0 -65 65 0 65 0 0 -65 0 -65 60 0 60 0 0 65 0 65 -60
0 -60 0 0 65 0 65 -65 0 -65 0 0 -65z"/>
<path d="M10410 9340 l0 -60 -60 0 -60 0 0 -65 0 -65 -65 0 -65 0 0 -65 0 -65
65 0 65 0 0 65 0 65 60 0 60 0 0 -65 0 -65 65 0 65 0 0 65 0 65 65 0 65 0 0
-65 0 -65 60 0 60 0 0 65 0 65 65 0 65 0 0 65 0 65 -65 0 -65 0 0 60 0 60 -60
0 -60 0 0 -60 0 -60 -65 0 -65 0 0 60 0 60 -65 0 -65 0 0 -60z m130 -125 l0
-65 -65 0 -65 0 0 65 0 65 65 0 65 0 0 -65z m250 0 l0 -65 -60 0 -60 0 0 65 0
65 60 0 60 0 0 -65z"/>
<path d="M9280 6175 l0 -65 60 0 60 0 0 65 0 65 -60 0 -60 0 0 -65z"/>
<path d="M8770 11300 l0 -250 190 0 190 0 0 250 0 250 -190 0 -190 0 0 -250z
m250 0 l0 -130 -60 0 -60 0 0 130 0 130 60 0 60 0 0 -130z"/>
<path d="M8900 9530 l0 -250 190 0 190 0 0 250 0 250 -190 0 -190 0 0 -250z
m250 0 l0 -130 -65 0 -65 0 0 130 0 130 65 0 65 0 0 -130z"/>
<path d="M12060 8705 l0 -65 65 0 65 0 0 65 0 65 -65 0 -65 0 0 -65z"/>
<path d="M8900 7630 l0 -250 190 0 190 0 0 250 0 250 -190 0 -190 0 0 -250z
m250 0 l0 -130 -65 0 -65 0 0 130 0 130 65 0 65 0 0 -130z"/>
<path d="M8140 5480 l0 -250 630 0 630 0 0 250 0 250 -630 0 -630 0 0 -250z
m1140 0 l0 -130 -510 0 -510 0 0 130 0 130 510 0 510 0 0 -130z"/>
<path d="M10920 5035 l0 -65 -65 0 -65 0 0 -60 0 -60 -60 0 -60 0 0 60 0 60
-65 0 -65 0 0 -60 0 -60 -65 0 -65 0 0 60 0 60 -60 0 -60 0 0 -60 0 -60 60 0
60 0 0 -65 0 -65 65 0 65 0 0 -65 0 -65 -65 0 -65 0 0 -60 0 -60 65 0 65 0 0
-65 0 -65 -65 0 -65 0 0 -65 0 -65 -60 0 -60 0 0 -60 0 -60 60 0 60 0 0 -65 0
-65 -60 0 -60 0 0 -65 0 -65 -65 0 -65 0 0 -60 0 -60 -60 0 -60 0 0 -65 0 -65
60 0 60 0 0 -65 0 -65 65 0 65 0 0 -60 0 -60 60 0 60 0 0 -65 0 -65 -60 0 -60
0 0 -65 0 -65 -65 0 -65 0 0 -60 0 -60 65 0 65 0 0 60 0 60 60 0 60 0 0 65 0
65 65 0 65 0 0 -65 0 -65 65 0 65 0 0 65 0 65 60 0 60 0 0 65 0 65 65 0 65 0
0 60 0 60 -65 0 -65 0 0 65 0 65 65 0 65 0 0 65 0 65 -65 0 -65 0 0 60 0 60
65 0 65 0 0 65 0 65 -65 0 -65 0 0 65 0 65 65 0 65 0 0 60 0 60 -65 0 -65 0 0
65 0 65 65 0 65 0 0 65 0 65 -65 0 -65 0 0 60 0 60 65 0 65 0 0 65 0 65 -65 0
-65 0 0 65 0 65 65 0 65 0 0 60 0 60 65 0 65 0 0 65 0 65 -65 0 -65 0 0 -65z
m-250 -250 l0 -65 60 0 60 0 0 -65 0 -65 -60 0 -60 0 0 -60 0 -60 60 0 60 0 0
-65 0 -65 -60 0 -60 0 0 -65 0 -65 60 0 60 0 0 -60 0 -60 -60 0 -60 0 0 -65 0
-65 60 0 60 0 0 -65 0 -65 -60 0 -60 0 0 -60 0 -60 60 0 60 0 0 -65 0 -65 -60
0 -60 0 0 -65 0 -65 60 0 60 0 0 -60 0 -60 -60 0 -60 0 0 -65 0 -65 -65 0 -65
0 0 65 0 65 -65 0 -65 0 0 60 0 60 -60 0 -60 0 0 65 0 65 -65 0 -65 0 0 65 0
65 65 0 65 0 0 60 0 60 60 0 60 0 0 65 0 65 65 0 65 0 0 65 0 65 -65 0 -65 0
0 60 0 60 65 0 65 0 0 65 0 65 65 0 65 0 0 65 0 65 -65 0 -65 0 0 60 0 60 65
0 65 0 0 65 0 65 -65 0 -65 0 0 65 0 65 65 0 65 0 0 -65z"/>
<path d="M10540 4150 l0 -60 65 0 65 0 0 60 0 60 -65 0 -65 0 0 -60z"/>
<path d="M10540 3895 l0 -65 -65 0 -65 0 0 -60 0 -60 -60 0 -60 0 0 -65 0 -65
60 0 60 0 0 -65 0 -65 65 0 65 0 0 -60 0 -60 65 0 65 0 0 60 0 60 -65 0 -65 0
0 65 0 65 65 0 65 0 0 65 0 65 -65 0 -65 0 0 60 0 60 65 0 65 0 0 65 0 65 -65
0 -65 0 0 -65z m0 -250 l0 -65 -65 0 -65 0 0 65 0 65 65 0 65 0 0 -65z"/>
<path d="M7380 4275 l0 -65 60 0 60 0 0 -60 0 -60 -60 0 -60 0 0 -65 0 -65
-65 0 -65 0 0 -65 0 -65 65 0 65 0 0 -60 0 -60 -65 0 -65 0 0 -65 0 -65 -65 0
-65 0 0 -65 0 -65 -60 0 -60 0 0 -60 0 -60 60 0 60 0 0 -65 0 -65 -60 0 -60 0
0 -65 0 -65 60 0 60 0 0 -60 0 -60 -60 0 -60 0 0 -65 0 -65 -65 0 -65 0 0 -65
0 -65 -65 0 -65 0 0 -60 0 -60 65 0 65 0 0 -65 0 -65 -65 0 -65 0 0 -65 0 -65
65 0 65 0 0 65 0 65 65 0 65 0 0 -65 0 -65 60 0 60 0 0 65 0 65 65 0 65 0 0
65 0 65 65 0 65 0 0 -65 0 -65 60 0 60 0 0 65 0 65 -60 0 -60 0 0 60 0 60 60
0 60 0 0 65 0 65 65 0 65 0 0 65 0 65 -65 0 -65 0 0 60 0 60 65 0 65 0 0 65 0
65 -65 0 -65 0 0 65 0 65 65 0 65 0 0 60 0 60 65 0 65 0 0 65 0 65 -65 0 -65
0 0 65 0 65 65 0 65 0 0 60 0 60 60 0 60 0 0 65 0 65 -60 0 -60 0 0 65 0 65
60 0 60 0 0 60 0 60 -60 0 -60 0 0 -60 0 -60 -65 0 -65 0 0 60 0 60 -65 0 -65
0 0 65 0 65 -60 0 -60 0 0 -65z m250 -250 l0 -65 65 0 65 0 0 -65 0 -65 -65 0
-65 0 0 -60 0 -60 -65 0 -65 0 0 -65 0 -65 65 0 65 0 0 -65 0 -65 -65 0 -65 0
0 -60 0 -60 -60 0 -60 0 0 -65 0 -65 60 0 60 0 0 -65 0 -65 -60 0 -60 0 0 -60
0 -60 60 0 60 0 0 -65 0 -65 -60 0 -60 0 0 -65 0 -65 -65 0 -65 0 0 -60 0 -60
-65 0 -65 0 0 -65 0 -65 -60 0 -60 0 0 65 0 65 -65 0 -65 0 0 60 0 60 65 0 65
0 0 65 0 65 60 0 60 0 0 65 0 65 65 0 65 0 0 60 0 60 -65 0 -65 0 0 65 0 65
65 0 65 0 0 65 0 65 -65 0 -65 0 0 60 0 60 65 0 65 0 0 65 0 65 65 0 65 0 0
65 0 65 60 0 60 0 0 60 0 60 -60 0 -60 0 0 65 0 65 60 0 60 0 0 65 0 65 65 0
65 0 0 -65z"/>
<path d="M7500 3895 l0 -65 65 0 65 0 0 65 0 65 -65 0 -65 0 0 -65z"/>
<path d="M7380 3515 l0 -65 -65 0 -65 0 0 -60 0 -60 65 0 65 0 0 60 0 60 60 0
60 0 0 65 0 65 -60 0 -60 0 0 -65z"/>
<path d="M7250 3135 l0 -65 65 0 65 0 0 65 0 65 -65 0 -65 0 0 -65z"/>
<path d="M7250 2885 l0 -65 -65 0 -65 0 0 -65 0 -65 -60 0 -60 0 0 -60 0 -60
60 0 60 0 0 60 0 60 65 0 65 0 0 65 0 65 65 0 65 0 0 65 0 65 -65 0 -65 0 0
-65z"/>
<path d="M8770 3580 l0 -250 190 0 190 0 0 250 0 250 -190 0 -190 0 0 -250z
m250 0 l0 -130 -60 0 -60 0 0 130 0 130 60 0 60 0 0 -130z"/>
</g>
</svg>
