<?xml version="1.0" standalone="no"?>
<!DOCTYPE svg PUBLIC "-//W3C//DTD SVG 20010904//EN"
 "http://www.w3.org/TR/2001/REC-SVG-20010904/DTD/svg10.dtd">
<svg version="1.0" xmlns="http://www.w3.org/2000/svg"
 width="1592.000000pt" height="1516.000000pt" viewBox="0 0 1592.000000 1516.000000"
 preserveAspectRatio="xMidYMid meet">

<g transform="translate(0.000000,1516.000000) scale(0.100000,-0.100000)"
fill="#000000" stroke="none">
<path d="M5380 14790 l0 -60 -190 0 -190 0 0 -65 0 -65 -125 0 -125 0 0 -440
0 -440 -65 0 -65 0 0 -1520 0 -1520 -65 0 -65 0 0 -1015 0 -1015 65 0 65 0 0
-125 0 -125 65 0 65 0 0 -570 0 -570 60 0 60 0 0 -820 0 -820 65 0 65 0 0
-760 0 -760 65 0 65 0 0 -445 0 -445 60 0 60 0 0 -315 0 -315 65 0 65 0 0
-130 0 -130 -65 0 -65 0 0 -250 0 -250 -60 0 -60 0 0 -190 0 -190 60 0 60 0 0
-65 0 -65 65 0 65 0 0 -60 0 -60 65 0 65 0 0 -65 0 -65 565 0 565 0 0 65 0 65
130 0 130 0 0 60 0 60 60 0 60 0 0 130 0 130 65 0 65 0 0 60 0 60 65 0 65 0 0
315 0 315 -130 0 -130 0 0 130 0 130 -60 0 -60 0 0 190 0 190 60 0 60 0 0 315
0 315 65 0 65 0 0 635 0 635 65 0 65 0 0 315 0 315 60 0 60 0 0 440 0 440 65
0 65 0 0 1395 0 1395 65 0 65 0 0 630 0 630 60 0 60 0 0 255 0 255 -125 0
-125 0 0 190 0 190 -65 0 -65 0 0 255 0 255 -60 0 -60 0 0 190 0 190 630 0
630 0 0 60 0 60 65 0 65 0 0 -190 0 -190 -65 0 -65 0 0 -190 0 -190 -60 0 -60
0 0 -1200 0 -1200 60 0 60 0 0 -570 0 -570 65 0 65 0 0 -570 0 -570 65 0 65 0
0 -630 0 -630 60 0 60 0 0 -1330 0 -1330 65 0 65 0 0 -190 0 -190 -65 0 -65 0
0 -190 0 -190 65 0 65 0 0 -190 0 -190 65 0 65 0 0 -190 0 -190 60 0 60 0 0
-125 0 -125 130 0 130 0 0 -65 0 -65 60 0 60 0 0 -65 0 -65 315 0 315 0 0 65
0 65 65 0 65 0 0 65 0 65 125 0 125 0 0 190 0 190 65 0 65 0 0 315 0 315 -65
0 -65 0 0 60 0 60 -60 0 -60 0 0 190 0 190 60 0 60 0 0 190 0 190 65 0 65 0 0
320 0 320 65 0 65 0 0 190 0 190 60 0 60 0 0 760 0 760 65 0 65 0 0 820 0 820
65 0 65 0 0 695 0 695 60 0 60 0 0 1015 0 1015 -60 0 -60 0 0 1140 0 1140 -65
0 -65 0 0 125 0 125 -65 0 -65 0 0 505 0 505 -60 0 -60 0 0 65 0 65 -130 0
-130 0 0 60 0 60 -380 0 -380 0 0 -60 0 -60 -375 0 -375 0 0 60 0 60 -950 0
-950 0 0 -60 0 -60 -130 0 -130 0 0 125 0 125 -125 0 -125 0 0 65 0 65 -125 0
-125 0 0 60 0 60 -570 0 -570 0 0 -60z m880 -250 l0 -190 -60 0 -60 0 0 -65 0
-65 190 0 190 0 0 -60 0 -60 60 0 60 0 0 -190 0 -190 -60 0 -60 0 0 190 0 190
-190 0 -190 0 0 60 0 60 -65 0 -65 0 0 -125 0 -125 125 0 125 0 0 -65 0 -65
65 0 65 0 0 -125 0 -125 -65 0 -65 0 0 125 0 125 -125 0 -125 0 0 -60 0 -60
65 0 65 0 0 -65 0 -65 -65 0 -65 0 0 -65 0 -65 65 0 65 0 0 -60 0 -60 60 0 60
0 0 -65 0 -65 65 0 65 0 0 -65 0 -65 -65 0 -65 0 0 -60 0 -60 65 0 65 0 0 -65
0 -65 65 0 65 0 0 -65 0 -65 60 0 60 0 0 -60 0 -60 -60 0 -60 0 0 -65 0 -65
-65 0 -65 0 0 -65 0 -65 65 0 65 0 0 -60 0 -60 -65 0 -65 0 0 -65 0 -65 65 0
65 0 0 -65 0 -65 -65 0 -65 0 0 -60 0 -60 65 0 65 0 0 -65 0 -65 -65 0 -65 0
0 -65 0 -65 65 0 65 0 0 -60 0 -60 -65 0 -65 0 0 -65 0 -65 65 0 65 0 0 -65 0
-65 -65 0 -65 0 0 -60 0 -60 65 0 65 0 0 -65 0 -65 -65 0 -65 0 0 -65 0 -65
65 0 65 0 0 -60 0 -60 -65 0 -65 0 0 -65 0 -65 65 0 65 0 0 -65 0 -65 -65 0
-65 0 0 -60 0 -60 65 0 65 0 0 -65 0 -65 -65 0 -65 0 0 -60 0 -60 65 0 65 0 0
-65 0 -65 60 0 60 0 0 -65 0 -65 -60 0 -60 0 0 -60 0 -60 -65 0 -65 0 0 -65 0
-65 65 0 65 0 0 -65 0 -65 60 0 60 0 0 -60 0 -60 -60 0 -60 0 0 -65 0 -65 60
0 60 0 0 -65 0 -65 -60 0 -60 0 0 -60 0 -60 60 0 60 0 0 -65 0 -65 -60 0 -60
0 0 -65 0 -65 60 0 60 0 0 -60 0 -60 65 0 65 0 0 -65 0 -65 65 0 65 0 0 190 0
190 -65 0 -65 0 0 65 0 65 65 0 65 0 0 -65 0 -65 60 0 60 0 0 -190 0 -190 190
0 190 0 0 -65 0 -65 -190 0 -190 0 0 65 0 65 -60 0 -60 0 0 -65 0 -65 -65 0
-65 0 0 -60 0 -60 -65 0 -65 0 0 -65 0 -65 -60 0 -60 0 0 -65 0 -65 60 0 60 0
0 -60 0 -60 -60 0 -60 0 0 -65 0 -65 60 0 60 0 0 -65 0 -65 65 0 65 0 0 -60 0
-60 -65 0 -65 0 0 60 0 60 -60 0 -60 0 0 -60 0 -60 -65 0 -65 0 0 -65 0 -65
65 0 65 0 0 -65 0 -65 60 0 60 0 0 65 0 65 65 0 65 0 0 -65 0 -65 -65 0 -65 0
0 -60 0 -60 -60 0 -60 0 0 -65 0 -65 -65 0 -65 0 0 -65 0 -65 65 0 65 0 0 -60
0 -60 125 0 125 0 0 -65 0 -65 65 0 65 0 0 -190 0 -190 -65 0 -65 0 0 -60 0
-60 190 0 190 0 0 -65 0 -65 65 0 65 0 0 -125 0 -125 -65 0 -65 0 0 125 0 125
-190 0 -190 0 0 65 0 65 -65 0 -65 0 0 -65 0 -65 -125 0 -125 0 0 -65 0 -65
255 0 255 0 0 -60 0 -60 60 0 60 0 0 -65 0 -65 65 0 65 0 0 -65 0 -65 -65 0
-65 0 0 -60 0 -60 -60 0 -60 0 0 190 0 190 -255 0 -255 0 0 -65 0 -65 125 0
125 0 0 -65 0 -65 65 0 65 0 0 -190 0 -190 -65 0 -65 0 0 -60 0 -60 -125 0
-125 0 0 -65 0 -65 65 0 65 0 0 -65 0 -65 -65 0 -65 0 0 -60 0 -60 190 0 190
0 0 -65 0 -65 65 0 65 0 0 -190 0 -190 -65 0 -65 0 0 -65 0 -65 -65 0 -65 0 0
-60 0 -60 -60 0 -60 0 0 60 0 60 -65 0 -65 0 0 -60 0 -60 -65 0 -65 0 0 -65 0
-65 65 0 65 0 0 -65 0 -65 -65 0 -65 0 0 -60 0 -60 255 0 255 0 0 -65 0 -65
65 0 65 0 0 -65 0 -65 -65 0 -65 0 0 65 0 65 -255 0 -255 0 0 -65 0 -65 130 0
130 0 0 -60 0 -60 60 0 60 0 0 -65 0 -65 65 0 65 0 0 -65 0 -65 -65 0 -65 0 0
-60 0 -60 -60 0 -60 0 0 190 0 190 -130 0 -130 0 0 -130 0 -130 65 0 65 0 0
-190 0 -190 -65 0 -65 0 0 -125 0 -125 190 0 190 0 0 -65 0 -65 65 0 65 0 0
-60 0 -60 65 0 65 0 0 190 0 190 -190 0 -190 0 0 60 0 60 190 0 190 0 0 -60 0
-60 125 0 125 0 0 -130 0 -130 -65 0 -65 0 0 -60 0 -60 -60 0 -60 0 0 -65 0
-65 -65 0 -65 0 0 -60 0 -60 -65 0 -65 0 0 185 0 185 -315 0 -315 0 0 65 0 65
-65 0 -65 0 0 -125 0 -125 -60 0 -60 0 0 -65 0 -65 -65 0 -65 0 0 -60 0 -60
-125 0 -125 0 0 60 0 60 65 0 65 0 0 125 0 125 60 0 60 0 0 -60 0 -60 65 0 65
0 0 190 0 190 -65 0 -65 0 0 60 0 60 65 0 65 0 0 -60 0 -60 60 0 60 0 0 125 0
125 -125 0 -125 0 0 65 0 65 190 0 190 0 0 60 0 60 -65 0 -65 0 0 65 0 65 65
0 65 0 0 255 0 255 -65 0 -65 0 0 -65 0 -65 -60 0 -60 0 0 65 0 65 -190 0
-190 0 0 60 0 60 190 0 190 0 0 65 0 65 -65 0 -65 0 0 65 0 65 65 0 65 0 0 60
0 60 60 0 60 0 0 65 0 65 -60 0 -60 0 0 65 0 65 -65 0 -65 0 0 60 0 60 65 0
65 0 0 65 0 65 -65 0 -65 0 0 65 0 65 65 0 65 0 0 60 0 60 -65 0 -65 0 0 65 0
65 65 0 65 0 0 65 0 65 -65 0 -65 0 0 60 0 60 -60 0 -60 0 0 65 0 65 60 0 60
0 0 65 0 65 65 0 65 0 0 60 0 60 -65 0 -65 0 0 65 0 65 -125 0 -125 0 0 65 0
65 125 0 125 0 0 60 0 60 65 0 65 0 0 65 0 65 -65 0 -65 0 0 65 0 65 -60 0
-60 0 0 -65 0 -65 -65 0 -65 0 0 190 0 190 -125 0 -125 0 0 60 0 60 125 0 125
0 0 -60 0 -60 65 0 65 0 0 -65 0 -65 60 0 60 0 0 65 0 65 65 0 65 0 0 60 0 60
-65 0 -65 0 0 65 0 65 -60 0 -60 0 0 65 0 65 60 0 60 0 0 60 0 60 -60 0 -60 0
0 65 0 65 -65 0 -65 0 0 -65 0 -65 -65 0 -65 0 0 -60 0 -60 -60 0 -60 0 0 190
0 190 60 0 60 0 0 -65 0 -65 65 0 65 0 0 65 0 65 65 0 65 0 0 60 0 60 -65 0
-65 0 0 65 0 65 -125 0 -125 0 0 65 0 65 125 0 125 0 0 -65 0 -65 65 0 65 0 0
65 0 65 60 0 60 0 0 60 0 60 -60 0 -60 0 0 65 0 65 60 0 60 0 0 65 0 65 -60 0
-60 0 0 60 0 60 -65 0 -65 0 0 65 0 65 -65 0 -65 0 0 65 0 65 65 0 65 0 0 190
0 190 -65 0 -65 0 0 60 0 60 65 0 65 0 0 65 0 65 -125 0 -125 0 0 190 0 190
-190 0 -190 0 0 65 0 65 190 0 190 0 0 -65 0 -65 60 0 60 0 0 125 0 125 -125
0 -125 0 0 65 0 65 125 0 125 0 0 190 0 190 -60 0 -60 0 0 -65 0 -65 -65 0
-65 0 0 190 0 190 -125 0 -125 0 0 65 0 65 125 0 125 0 0 -65 0 -65 65 0 65 0
0 -60 0 -60 60 0 60 0 0 60 0 60 65 0 65 0 0 65 0 65 -65 0 -65 0 0 60 0 60
-190 0 -190 0 0 65 0 65 190 0 190 0 0 65 0 65 -125 0 -125 0 0 60 0 60 125 0
125 0 0 -60 0 -60 65 0 65 0 0 315 0 315 -65 0 -65 0 0 65 0 65 65 0 65 0 0
60 0 60 65 0 65 0 0 65 0 65 -65 0 -65 0 0 65 0 65 -65 0 -65 0 0 60 0 60 65
0 65 0 0 65 0 65 65 0 65 0 0 65 0 65 -65 0 -65 0 0 60 0 60 65 0 65 0 0 65 0
65 -65 0 -65 0 0 65 0 65 -65 0 -65 0 0 60 0 60 65 0 65 0 0 65 0 65 65 0 65
0 0 65 0 65 -65 0 -65 0 0 60 0 60 -65 0 -65 0 0 65 0 65 65 0 65 0 0 65 0 65
65 0 65 0 0 60 0 60 -65 0 -65 0 0 65 0 65 65 0 65 0 0 65 0 65 -65 0 -65 0 0
60 0 60 65 0 65 0 0 -60 0 -60 60 0 60 0 0 190 0 190 -60 0 -60 0 0 60 0 60
-130 0 -130 0 0 65 0 65 255 0 255 0 0 60 0 60 -125 0 -125 0 0 65 0 65 185 0
185 0 0 -65 0 -65 65 0 65 0 0 -60 0 -60 65 0 65 0 0 190 0 190 60 0 60 0 0
-190z m-1130 -130 l0 -60 -65 0 -65 0 0 60 0 60 65 0 65 0 0 -60z m1510 0 l0
-60 -125 0 -125 0 0 60 0 60 125 0 125 0 0 -60z m260 -570 l0 -630 60 0 60 0
0 -505 0 -505 65 0 65 0 0 -255 0 -255 65 0 65 0 0 -255 0 -255 60 0 60 0 0
-190 0 -190 130 0 130 0 0 -125 0 -125 -65 0 -65 0 0 65 0 65 -125 0 -125 0 0
190 0 190 -65 0 -65 0 0 250 0 250 -65 0 -65 0 0 320 0 320 -60 0 -60 0 0 315
0 315 -65 0 -65 0 0 820 0 820 65 0 65 0 0 -630z m880 385 l0 -125 -60 0 -60
0 0 -320 0 -320 -190 0 -190 0 0 -60 0 -60 -130 0 -130 0 0 440 0 440 190 0
190 0 0 65 0 65 190 0 190 0 0 -125z m1270 -65 l0 -190 65 0 65 0 0 -255 0
-255 -700 0 -700 0 0 255 0 255 65 0 65 0 0 190 0 190 570 0 570 0 0 -190z
m1390 65 l0 -125 -65 0 -65 0 0 -65 0 -65 190 0 190 0 0 -65 0 -65 65 0 65 0
0 -190 0 -190 -65 0 -65 0 0 -60 0 -60 -60 0 -60 0 0 -65 0 -65 -65 0 -65 0 0
65 0 65 65 0 65 0 0 60 0 60 -65 0 -65 0 0 65 0 65 -125 0 -125 0 0 -125 0
-125 60 0 60 0 0 -65 0 -65 -60 0 -60 0 0 65 0 65 -65 0 -65 0 0 505 0 505
190 0 190 0 0 -125z m-760 -385 l0 -380 -190 0 -190 0 0 320 0 320 -60 0 -60
0 0 60 0 60 250 0 250 0 0 -380z m250 -315 l0 -695 -60 0 -60 0 0 -315 0 -315
-65 0 -65 0 0 -130 0 -130 -60 0 -60 0 0 -190 0 -190 -65 0 -65 0 0 -125 0
-125 -65 0 -65 0 0 -125 0 -125 -60 0 -60 0 0 -190 0 -190 -65 0 -65 0 0 -65
0 -65 -65 0 -65 0 0 -125 0 -125 -190 0 -190 0 0 60 0 60 130 0 130 0 0 65 0
65 60 0 60 0 0 65 0 65 65 0 65 0 0 250 0 250 65 0 65 0 0 130 0 130 60 0 60
0 0 125 0 125 65 0 65 0 0 190 0 190 65 0 65 0 0 125 0 125 60 0 60 0 0 320 0
320 65 0 65 0 0 630 0 630 60 0 60 0 0 -695z m890 635 l0 -60 -125 0 -125 0 0
60 0 60 125 0 125 0 0 -60z m-5690 -125 l0 -65 -65 0 -65 0 0 65 0 65 65 0 65
0 0 -65z m250 0 l0 -65 -65 0 -65 0 0 65 0 65 65 0 65 0 0 -65z m-250 -255 l0
-60 -65 0 -65 0 0 60 0 60 65 0 65 0 0 -60z m-130 -445 l0 -125 -65 0 -65 0 0
125 0 125 65 0 65 0 0 -125z m250 65 l0 -60 -60 0 -60 0 0 60 0 60 60 0 60 0
0 -60z m1390 0 l0 -60 -60 0 -60 0 0 60 0 60 60 0 60 0 0 -60z m2660 -125 l0
-65 -60 0 -60 0 0 -65 0 -65 -950 0 -950 0 0 -60 0 -60 -65 0 -65 0 0 125 0
125 125 0 125 0 0 65 0 65 950 0 950 0 0 -65z m-2660 -130 l0 -65 -60 0 -60 0
0 65 0 65 60 0 60 0 0 -65z m4310 0 l0 -65 -65 0 -65 0 0 65 0 65 65 0 65 0 0
-65z m-6080 -125 l0 -60 -60 0 -60 0 0 60 0 60 60 0 60 0 0 -60z m5440 0 l0
-60 65 0 65 0 0 60 0 60 65 0 65 0 0 -60 0 -60 60 0 60 0 0 -65 0 -65 -60 0
-60 0 0 -65 0 -65 60 0 60 0 0 -60 0 -60 65 0 65 0 0 125 0 125 65 0 65 0 0
-190 0 -190 125 0 125 0 0 -65 0 -65 -125 0 -125 0 0 65 0 65 -130 0 -130 0 0
-65 0 -65 65 0 65 0 0 -60 0 -60 125 0 125 0 0 -65 0 -65 65 0 65 0 0 -190 0
-190 -65 0 -65 0 0 -65 0 -65 -60 0 -60 0 0 -60 0 -60 -65 0 -65 0 0 125 0
125 -65 0 -65 0 0 -65 0 -65 -60 0 -60 0 0 -60 0 -60 60 0 60 0 0 -65 0 -65
-60 0 -60 0 0 -65 0 -65 60 0 60 0 0 -60 0 -60 -60 0 -60 0 0 -65 0 -65 60 0
60 0 0 -65 0 -65 -60 0 -60 0 0 -60 0 -60 60 0 60 0 0 -65 0 -65 130 0 130 0
0 125 0 125 -65 0 -65 0 0 65 0 65 65 0 65 0 0 -65 0 -65 60 0 60 0 0 -60 0
-60 65 0 65 0 0 -65 0 -65 65 0 65 0 0 -65 0 -65 -65 0 -65 0 0 65 0 65 -65 0
-65 0 0 -65 0 -65 -60 0 -60 0 0 -60 0 -60 190 0 190 0 0 -65 0 -65 -190 0
-190 0 0 -60 0 -60 60 0 60 0 0 -65 0 -65 65 0 65 0 0 -190 0 -190 -65 0 -65
0 0 -65 0 -65 -60 0 -60 0 0 -60 0 -60 -65 0 -65 0 0 -65 0 -65 -65 0 -65 0 0
-65 0 -65 -60 0 -60 0 0 -60 0 -60 60 0 60 0 0 -65 0 -65 130 0 130 0 0 -65 0
-65 60 0 60 0 0 -60 0 -60 65 0 65 0 0 -65 0 -65 -65 0 -65 0 0 -65 0 -65 -60
0 -60 0 0 190 0 190 -130 0 -130 0 0 -60 0 -60 -60 0 -60 0 0 -65 0 -65 125 0
125 0 0 -190 0 -190 -65 0 -65 0 0 -65 0 -65 -125 0 -125 0 0 65 0 65 -65 0
-65 0 0 -65 0 -65 -60 0 -60 0 0 -60 0 -60 125 0 125 0 0 -130 0 -130 -65 0
-65 0 0 -60 0 -60 -60 0 -60 0 0 -65 0 -65 -65 0 -65 0 0 -65 0 -65 255 0 255
0 0 -60 0 -60 60 0 60 0 0 -65 0 -65 65 0 65 0 0 125 0 125 65 0 65 0 0 -125
0 -125 -65 0 -65 0 0 -65 0 -65 -65 0 -65 0 0 -60 0 -60 -60 0 -60 0 0 190 0
190 -255 0 -255 0 0 -65 0 -65 125 0 125 0 0 -65 0 -65 65 0 65 0 0 -190 0
-190 -65 0 -65 0 0 190 0 190 -125 0 -125 0 0 -60 0 -60 -65 0 -65 0 0 -65 0
-65 65 0 65 0 0 -65 0 -65 65 0 65 0 0 -60 0 -60 -65 0 -65 0 0 -65 0 -65 65
0 65 0 0 -60 0 -60 -65 0 -65 0 0 -65 0 -65 65 0 65 0 0 -65 0 -65 -65 0 -65
0 0 -60 0 -60 65 0 65 0 0 -65 0 -65 60 0 60 0 0 -65 0 -65 65 0 65 0 0 190 0
190 -65 0 -65 0 0 65 0 65 65 0 65 0 0 -65 0 -65 65 0 65 0 0 -190 0 -190 -65
0 -65 0 0 -60 0 -60 190 0 190 0 0 -65 0 -65 65 0 65 0 0 -190 0 -190 -65 0
-65 0 0 -65 0 -65 -65 0 -65 0 0 -60 0 -60 -60 0 -60 0 0 190 0 190 -190 0
-190 0 0 -65 0 -65 60 0 60 0 0 -65 0 -65 65 0 65 0 0 -190 0 -190 -65 0 -65
0 0 -60 0 -60 -60 0 -60 0 0 -190 0 -190 125 0 125 0 0 -65 0 -65 65 0 65 0 0
-190 0 -190 -65 0 -65 0 0 190 0 190 -125 0 -125 0 0 -65 0 -65 -65 0 -65 0 0
-60 0 -60 65 0 65 0 0 -65 0 -65 60 0 60 0 0 -65 0 -65 -60 0 -60 0 0 -60 0
-60 -65 0 -65 0 0 -65 0 -65 65 0 65 0 0 -65 0 -65 60 0 60 0 0 -60 0 -60 -60
0 -60 0 0 -65 0 -65 60 0 60 0 0 -65 0 -65 65 0 65 0 0 -190 0 -190 -65 0 -65
0 0 -60 0 -60 190 0 190 0 0 -65 0 -65 -190 0 -190 0 0 65 0 65 -60 0 -60 0 0
-65 0 -65 -65 0 -65 0 0 65 0 65 -65 0 -65 0 0 -190 0 -190 -60 0 -60 0 0 -65
0 -65 190 0 190 0 0 -60 0 -60 -190 0 -190 0 0 60 0 60 -125 0 -125 0 0 130 0
130 -130 0 -130 0 0 60 0 60 130 0 130 0 0 -60 0 -60 60 0 60 0 0 125 0 125
-125 0 -125 0 0 60 0 60 125 0 125 0 0 255 0 255 -60 0 -60 0 0 -125 0 -125
-65 0 -65 0 0 125 0 125 65 0 65 0 0 65 0 65 60 0 60 0 0 60 0 60 -60 0 -60 0
0 65 0 65 -130 0 -130 0 0 65 0 65 130 0 130 0 0 60 0 60 60 0 60 0 0 65 0 65
-60 0 -60 0 0 65 0 65 60 0 60 0 0 60 0 60 -60 0 -60 0 0 65 0 65 60 0 60 0 0
65 0 65 -60 0 -60 0 0 60 0 60 -190 0 -190 0 0 65 0 65 190 0 190 0 0 65 0 65
-65 0 -65 0 0 60 0 60 -65 0 -65 0 0 -60 0 -60 -60 0 -60 0 0 190 0 190 -65 0
-65 0 0 60 0 60 65 0 65 0 0 -60 0 -60 60 0 60 0 0 -65 0 -65 65 0 65 0 0 190
0 190 -190 0 -190 0 0 65 0 65 190 0 190 0 0 60 0 60 -65 0 -65 0 0 65 0 65
65 0 65 0 0 65 0 65 65 0 65 0 0 60 0 60 -65 0 -65 0 0 65 0 65 -65 0 -65 0 0
65 0 65 65 0 65 0 0 60 0 60 -65 0 -65 0 0 65 0 65 65 0 65 0 0 65 0 65 -65 0
-65 0 0 60 0 60 65 0 65 0 0 65 0 65 -65 0 -65 0 0 60 0 60 -60 0 -60 0 0 -60
0 -60 -65 0 -65 0 0 60 0 60 65 0 65 0 0 65 0 65 -65 0 -65 0 0 65 0 65 -65 0
-65 0 0 60 0 60 65 0 65 0 0 -60 0 -60 65 0 65 0 0 60 0 60 60 0 60 0 0 65 0
65 -60 0 -60 0 0 65 0 65 60 0 60 0 0 60 0 60 -60 0 -60 0 0 65 0 65 60 0 60
0 0 65 0 65 -60 0 -60 0 0 60 0 60 60 0 60 0 0 65 0 65 -60 0 -60 0 0 65 0 65
60 0 60 0 0 60 0 60 -60 0 -60 0 0 65 0 65 60 0 60 0 0 65 0 65 -60 0 -60 0 0
60 0 60 60 0 60 0 0 65 0 65 -60 0 -60 0 0 65 0 65 -65 0 -65 0 0 60 0 60 65
0 65 0 0 65 0 65 60 0 60 0 0 65 0 65 -60 0 -60 0 0 60 0 60 -130 0 -130 0 0
65 0 65 130 0 130 0 0 65 0 65 -65 0 -65 0 0 60 0 60 65 0 65 0 0 65 0 65 60
0 60 0 0 65 0 65 -60 0 -60 0 0 60 0 60 -65 0 -65 0 0 130 0 130 -125 0 -125
0 0 60 0 60 125 0 125 0 0 -60 0 -60 125 0 125 0 0 60 0 60 65 0 65 0 0 65 0
65 -125 0 -125 0 0 60 0 60 125 0 125 0 0 65 0 65 -65 0 -65 0 0 65 0 65 65 0
65 0 0 -65 0 -65 65 0 65 0 0 65 0 65 60 0 60 0 0 60 0 60 -60 0 -60 0 0 65 0
65 60 0 60 0 0 65 0 65 -60 0 -60 0 0 60 0 60 60 0 60 0 0 65 0 65 -60 0 -60
0 0 65 0 65 60 0 60 0 0 60 0 60 65 0 65 0 0 65 0 65 -65 0 -65 0 0 65 0 65
125 0 125 0 0 60 0 60 -60 0 -60 0 0 65 0 65 125 0 125 0 0 65 0 65 65 0 65 0
0 60 0 60 -65 0 -65 0 0 65 0 65 -65 0 -65 0 0 65 0 65 65 0 65 0 0 60 0 60
65 0 65 0 0 65 0 65 -65 0 -65 0 0 65 0 65 65 0 65 0 0 60 0 60 60 0 60 0 0
-60z m-5180 -125 l0 -65 -65 0 -65 0 0 65 0 65 65 0 65 0 0 -65z m6070 -130
l0 -65 -65 0 -65 0 0 65 0 65 65 0 65 0 0 -65z m-6200 -125 l0 -60 -65 0 -65
0 0 60 0 60 65 0 65 0 0 -60z m0 -380 l0 -60 65 0 65 0 0 60 0 60 60 0 60 0 0
-60 0 -60 -60 0 -60 0 0 -65 0 -65 -65 0 -65 0 0 -65 0 -65 -65 0 -65 0 0 190
0 190 65 0 65 0 0 -60z m1770 0 l0 -60 -65 0 -65 0 0 60 0 60 65 0 65 0 0 -60z
m0 -505 l0 -65 -65 0 -65 0 0 65 0 65 65 0 65 0 0 -65z m-1640 -130 l0 -65
-130 0 -130 0 0 65 0 65 130 0 130 0 0 -65z m-130 -250 l0 -65 65 0 65 0 0
-65 0 -65 60 0 60 0 0 -60 0 -60 -60 0 -60 0 0 -65 0 -65 -65 0 -65 0 0 190 0
190 -65 0 -65 0 0 65 0 65 65 0 65 0 0 -65z m6200 0 l0 -65 -65 0 -65 0 0 65
0 65 65 0 65 0 0 -65z m-4180 -130 l0 -65 -190 0 -190 0 0 65 0 65 190 0 190
0 0 -65z m4180 -125 l0 -60 -190 0 -190 0 0 60 0 60 190 0 190 0 0 -60z
m-4430 -125 l0 -65 -65 0 -65 0 0 65 0 65 65 0 65 0 0 -65z m250 -320 l0 -125
-60 0 -60 0 0 -65 0 -65 125 0 125 0 0 -60 0 -60 -125 0 -125 0 0 60 0 60
-130 0 -130 0 0 65 0 65 130 0 130 0 0 125 0 125 60 0 60 0 0 -125z m380 -190
l0 -65 65 0 65 0 0 -60 0 -60 -125 0 -125 0 0 125 0 125 60 0 60 0 0 -65z
m-380 -375 l0 -60 65 0 65 0 0 -65 0 -65 65 0 65 0 0 125 0 125 60 0 60 0 0
-125 0 -125 -60 0 -60 0 0 -65 0 -65 -65 0 -65 0 0 -60 0 -60 -65 0 -65 0 0
190 0 190 -125 0 -125 0 0 60 0 60 125 0 125 0 0 -60z m1650 -65 l0 -125 65 0
65 0 0 -65 0 -65 60 0 60 0 0 -60 0 -60 65 0 65 0 0 -65 0 -65 -125 0 -125 0
0 125 0 125 -65 0 -65 0 0 -190 0 -190 65 0 65 0 0 -125 0 -125 -65 0 -65 0 0
65 0 65 -65 0 -65 0 0 440 0 440 65 0 65 0 0 -125z m-3800 -315 l0 -190 -60 0
-60 0 0 190 0 190 60 0 60 0 0 -190z m2030 -125 l0 -65 -65 0 -65 0 0 65 0 65
65 0 65 0 0 -65z m630 0 l0 -65 -125 0 -125 0 0 65 0 65 125 0 125 0 0 -65z
m-130 -255 l0 -60 -190 0 -190 0 0 60 0 60 190 0 190 0 0 -60z m3930 -125 l0
-65 -130 0 -130 0 0 65 0 65 130 0 130 0 0 -65z m-4180 -130 l0 -65 65 0 65 0
0 -60 0 -60 60 0 60 0 0 -65 0 -65 -60 0 -60 0 0 -65 0 -65 -65 0 -65 0 0 190
0 190 -190 0 -190 0 0 65 0 65 190 0 190 0 0 -65z m-2280 -125 l0 -60 65 0 65
0 0 -130 0 -130 -65 0 -65 0 0 130 0 130 -60 0 -60 0 0 60 0 60 60 0 60 0 0
-60z m6330 0 l0 -60 65 0 65 0 0 -65 0 -65 -65 0 -65 0 0 65 0 65 -190 0 -190
0 0 60 0 60 190 0 190 0 0 -60z m-2150 -125 l0 -65 -125 0 -125 0 0 -125 0
-125 60 0 60 0 0 -190 0 -190 -125 0 -125 0 0 380 0 380 190 0 190 0 0 -65z
m-3920 -510 l0 -65 -65 0 -65 0 0 65 0 65 65 0 65 0 0 -65z m2020 -250 l0 -65
65 0 65 0 0 -190 0 -190 -65 0 -65 0 0 -65 0 -65 -65 0 -65 0 0 -60 0 -60 -60
0 -60 0 0 190 0 190 -65 0 -65 0 0 60 0 60 65 0 65 0 0 -60 0 -60 60 0 60 0 0
-65 0 -65 65 0 65 0 0 190 0 190 -125 0 -125 0 0 65 0 65 125 0 125 0 0 -65z
m4050 0 l0 -65 -125 0 -125 0 0 65 0 65 125 0 125 0 0 -65z m-6070 -130 l0
-65 -65 0 -65 0 0 65 0 65 65 0 65 0 0 -65z m3920 0 l0 -65 -65 0 -65 0 0
-125 0 -125 65 0 65 0 0 -190 0 -190 -65 0 -65 0 0 -125 0 -125 65 0 65 0 0
-65 0 -65 -65 0 -65 0 0 65 0 65 -60 0 -60 0 0 505 0 505 125 0 125 0 0 -65z
m2150 -125 l0 -60 -190 0 -190 0 0 60 0 60 190 0 190 0 0 -60z m-5820 -255 l0
-65 -65 0 -65 0 0 65 0 65 65 0 65 0 0 -65z m5570 0 l0 -65 60 0 60 0 0 -125
0 -125 -60 0 -60 0 0 125 0 125 -190 0 -190 0 0 65 0 65 190 0 190 0 0 -65z
m-3550 -250 l0 -65 -125 0 -125 0 0 65 0 65 125 0 125 0 0 -65z m3290 0 l0
-65 -125 0 -125 0 0 65 0 65 125 0 125 0 0 -65z m-3410 -255 l0 -60 60 0 60 0
0 -190 0 -190 -60 0 -60 0 0 -65 0 -65 -65 0 -65 0 0 -65 0 -65 -65 0 -65 0 0
190 0 190 -190 0 -190 0 0 65 0 65 190 0 190 0 0 -65 0 -65 65 0 65 0 0 -60 0
-60 65 0 65 0 0 190 0 190 -190 0 -190 0 0 60 0 60 190 0 190 0 0 -60z m3790
-885 l0 -445 -125 0 -125 0 0 -60 0 -60 -65 0 -65 0 0 190 0 190 -190 0 -190
0 0 60 0 60 190 0 190 0 0 -60 0 -60 65 0 65 0 0 -65 0 -65 65 0 65 0 0 190 0
190 -190 0 -190 0 0 60 0 60 190 0 190 0 0 65 0 65 -65 0 -65 0 0 65 0 65 125
0 125 0 0 -445z m-3790 0 l0 -65 -130 0 -130 0 0 65 0 65 130 0 130 0 0 -65z
m1900 -125 l0 -60 -65 0 -65 0 0 60 0 60 65 0 65 0 0 -60z m0 -255 l0 -65
-130 0 -130 0 0 65 0 65 130 0 130 0 0 -65z m1770 -380 l0 -65 -130 0 -130 0
0 65 0 65 130 0 130 0 0 -65z m-5440 -125 l0 -60 -130 0 -130 0 0 60 0 60 130
0 130 0 0 -60z m3670 -65 l0 -125 -65 0 -65 0 0 125 0 125 65 0 65 0 0 -125z
m-3800 -445 l0 -190 -65 0 -65 0 0 190 0 190 65 0 65 0 0 -190z m1640 130 l0
-60 -60 0 -60 0 0 60 0 60 60 0 60 0 0 -60z m0 -255 l0 -65 -190 0 -190 0 0
65 0 65 190 0 190 0 0 -65z m-1510 -250 l0 -65 -65 0 -65 0 0 65 0 65 65 0 65
0 0 -65z m5440 0 l0 -65 -65 0 -65 0 0 65 0 65 65 0 65 0 0 -65z m-130 -255
l0 -60 -125 0 -125 0 0 60 0 60 125 0 125 0 0 -60z m-5310 -125 l0 -65 60 0
60 0 0 -65 0 -65 -60 0 -60 0 0 -60 0 -60 -65 0 -65 0 0 190 0 190 65 0 65 0
0 -65z m5180 -130 l0 -65 -190 0 -190 0 0 65 0 65 190 0 190 0 0 -65z m-3670
-125 l0 -60 -60 0 -60 0 0 60 0 60 60 0 60 0 0 -60z m2280 -125 l0 -65 65 0
65 0 0 -190 0 -190 -65 0 -65 0 0 -65 0 -65 -125 0 -125 0 0 130 0 130 65 0
65 0 0 -65 0 -65 60 0 60 0 0 190 0 190 -125 0 -125 0 0 65 0 65 125 0 125 0
0 -65z m-2400 -130 l0 -65 -190 0 -190 0 0 65 0 65 190 0 190 0 0 -65z m-1270
-505 l0 -60 65 0 65 0 0 60 0 60 60 0 60 0 0 -60 0 -60 -60 0 -60 0 0 -65 0
-65 -65 0 -65 0 0 -65 0 -65 -60 0 -60 0 0 190 0 190 60 0 60 0 0 -60z m4940
-125 l0 -65 -65 0 -65 0 0 65 0 65 65 0 65 0 0 -65z m-1140 -255 l0 -60 -125
0 -125 0 0 60 0 60 125 0 125 0 0 -60z m-250 -255 l0 -65 60 0 60 0 0 -190 0
-190 -60 0 -60 0 0 190 0 190 -65 0 -65 0 0 65 0 65 65 0 65 0 0 -65z m1510
-380 l0 -65 -60 0 -60 0 0 65 0 65 60 0 60 0 0 -65z m-4300 -250 l0 -65 65 0
65 0 0 -190 0 -190 -65 0 -65 0 0 -60 0 -60 -125 0 -125 0 0 125 0 125 -190 0
-190 0 0 65 0 65 190 0 190 0 0 -65 0 -65 60 0 60 0 0 -65 0 -65 65 0 65 0 0
190 0 190 -190 0 -190 0 0 65 0 65 190 0 190 0 0 -65z m4050 -250 l0 -65 65 0
65 0 0 -65 0 -65 -65 0 -65 0 0 65 0 65 -190 0 -190 0 0 65 0 65 190 0 190 0
0 -65z m-3670 -130 l0 -65 -65 0 -65 0 0 65 0 65 65 0 65 0 0 -65z m-890 -125
l0 -60 -60 0 -60 0 0 60 0 60 60 0 60 0 0 -60z"/>
<path d="M5510 13525 l0 -65 60 0 60 0 0 65 0 65 -60 0 -60 0 0 -65z"/>
<path d="M5510 13275 l0 -65 -65 0 -65 0 0 -65 0 -65 65 0 65 0 0 -60 0 -60
60 0 60 0 0 60 0 60 -60 0 -60 0 0 65 0 65 60 0 60 0 0 65 0 65 -60 0 -60 0 0
-65z"/>
<path d="M6140 13145 l0 -65 60 0 60 0 0 65 0 65 -60 0 -60 0 0 -65z"/>
<path d="M6140 12895 l0 -65 60 0 60 0 0 -65 0 -65 -60 0 -60 0 0 -60 0 -60
60 0 60 0 0 -65 0 -65 -60 0 -60 0 0 -65 0 -65 60 0 60 0 0 -60 0 -60 -60 0
-60 0 0 -65 0 -65 60 0 60 0 0 -65 0 -65 -60 0 -60 0 0 -60 0 -60 60 0 60 0 0
-65 0 -65 -60 0 -60 0 0 -65 0 -65 60 0 60 0 0 -60 0 -60 -60 0 -60 0 0 -65 0
-65 60 0 60 0 0 -65 0 -65 -60 0 -60 0 0 -60 0 -60 60 0 60 0 0 -65 0 -65 -60
0 -60 0 0 -65 0 -65 -65 0 -65 0 0 -60 0 -60 65 0 65 0 0 -65 0 -65 -65 0 -65
0 0 -65 0 -65 65 0 65 0 0 -60 0 -60 60 0 60 0 0 60 0 60 65 0 65 0 0 65 0 65
-65 0 -65 0 0 65 0 65 65 0 65 0 0 60 0 60 -65 0 -65 0 0 65 0 65 65 0 65 0 0
65 0 65 -65 0 -65 0 0 60 0 60 65 0 65 0 0 65 0 65 -65 0 -65 0 0 65 0 65 65
0 65 0 0 60 0 60 -65 0 -65 0 0 65 0 65 65 0 65 0 0 65 0 65 -65 0 -65 0 0 60
0 60 65 0 65 0 0 65 0 65 -65 0 -65 0 0 65 0 65 65 0 65 0 0 60 0 60 -65 0
-65 0 0 65 0 65 65 0 65 0 0 65 0 65 65 0 65 0 0 60 0 60 -65 0 -65 0 0 65 0
65 -65 0 -65 0 0 65 0 65 -60 0 -60 0 0 -65z m250 -255 l0 -60 -65 0 -65 0 0
60 0 60 65 0 65 0 0 -60z m-130 -1900 l0 -60 -60 0 -60 0 0 60 0 60 60 0 60 0
0 -60z m0 -255 l0 -65 -60 0 -60 0 0 65 0 65 60 0 60 0 0 -65z"/>
<path d="M5510 12765 l0 -65 -65 0 -65 0 0 -60 0 -60 65 0 65 0 0 -65 0 -65
60 0 60 0 0 65 0 65 -60 0 -60 0 0 60 0 60 60 0 60 0 0 65 0 65 -60 0 -60 0 0
-65z"/>
<path d="M5510 12260 l0 -60 60 0 60 0 0 60 0 60 -60 0 -60 0 0 -60z"/>
<path d="M5510 12005 l0 -65 -65 0 -65 0 0 -60 0 -60 65 0 65 0 0 60 0 60 60
0 60 0 0 65 0 65 -60 0 -60 0 0 -65z"/>
<path d="M5380 11375 l0 -65 65 0 65 0 0 65 0 65 -65 0 -65 0 0 -65z"/>
<path d="M5250 10485 l0 -65 65 0 65 0 0 65 0 65 -65 0 -65 0 0 -65z"/>
<path d="M6140 10110 l0 -60 60 0 60 0 0 60 0 60 -60 0 -60 0 0 -60z"/>
<path d="M6140 9855 l0 -65 60 0 60 0 0 65 0 65 -60 0 -60 0 0 -65z"/>
<path d="M6390 9855 l0 -65 65 0 65 0 0 65 0 65 -65 0 -65 0 0 -65z"/>
<path d="M6140 9605 l0 -65 60 0 60 0 0 65 0 65 -60 0 -60 0 0 -65z"/>
<path d="M6390 9350 l0 -60 65 0 65 0 0 60 0 60 -65 0 -65 0 0 -60z"/>
<path d="M6390 9095 l0 -65 65 0 65 0 0 65 0 65 -65 0 -65 0 0 -65z"/>
<path d="M6390 8845 l0 -65 65 0 65 0 0 65 0 65 -65 0 -65 0 0 -65z"/>
<path d="M6390 8590 l0 -60 65 0 65 0 0 -65 0 -65 -65 0 -65 0 0 -65 0 -65 65
0 65 0 0 -60 0 -60 60 0 60 0 0 60 0 60 65 0 65 0 0 65 0 65 -65 0 -65 0 0 65
0 65 -60 0 -60 0 0 60 0 60 -65 0 -65 0 0 -60z m250 -255 l0 -65 -60 0 -60 0
0 65 0 65 60 0 60 0 0 -65z"/>
<path d="M5380 8085 l0 -65 65 0 65 0 0 -65 0 -65 60 0 60 0 0 65 0 65 -60 0
-60 0 0 65 0 65 -65 0 -65 0 0 -65z"/>
<path d="M6140 8085 l0 -65 60 0 60 0 0 -65 0 -65 -60 0 -60 0 0 -60 0 -60 60
0 60 0 0 -65 0 -65 -60 0 -60 0 0 -65 0 -65 60 0 60 0 0 -60 0 -60 -60 0 -60
0 0 -65 0 -65 60 0 60 0 0 -65 0 -65 -60 0 -60 0 0 -60 0 -60 60 0 60 0 0 -65
0 -65 -60 0 -60 0 0 -65 0 -65 60 0 60 0 0 -60 0 -60 65 0 65 0 0 -65 0 -65
-65 0 -65 0 0 -65 0 -65 65 0 65 0 0 -60 0 -60 -65 0 -65 0 0 -65 0 -65 65 0
65 0 0 -60 0 -60 -65 0 -65 0 0 -65 0 -65 -60 0 -60 0 0 -65 0 -65 60 0 60 0
0 -60 0 -60 -60 0 -60 0 0 -65 0 -65 60 0 60 0 0 -65 0 -65 -60 0 -60 0 0 -60
0 -60 60 0 60 0 0 -65 0 -65 -60 0 -60 0 0 -65 0 -65 60 0 60 0 0 -60 0 -60
65 0 65 0 0 60 0 60 125 0 125 0 0 190 0 190 -125 0 -125 0 0 65 0 65 -65 0
-65 0 0 65 0 65 65 0 65 0 0 60 0 60 -65 0 -65 0 0 65 0 65 65 0 65 0 0 65 0
65 65 0 65 0 0 60 0 60 125 0 125 0 0 190 0 190 -125 0 -125 0 0 65 0 65 -65
0 -65 0 0 60 0 60 -65 0 -65 0 0 65 0 65 65 0 65 0 0 65 0 65 65 0 65 0 0 60
0 60 -65 0 -65 0 0 65 0 65 -65 0 -65 0 0 65 0 65 65 0 65 0 0 60 0 60 65 0
65 0 0 65 0 65 -65 0 -65 0 0 65 0 65 65 0 65 0 0 60 0 60 -65 0 -65 0 0 65 0
65 -65 0 -65 0 0 65 0 65 -60 0 -60 0 0 -65z m250 -255 l0 -60 -65 0 -65 0 0
60 0 60 65 0 65 0 0 -60z m0 -255 l0 -65 -65 0 -65 0 0 65 0 65 65 0 65 0 0
-65z m0 -505 l0 -60 -65 0 -65 0 0 60 0 60 65 0 65 0 0 -60z m130 -635 l0 -65
-65 0 -65 0 0 65 0 65 65 0 65 0 0 -65z m0 -250 l0 -65 -65 0 -65 0 0 65 0 65
65 0 65 0 0 -65z m-130 -885 l0 -60 65 0 65 0 0 -65 0 -65 -65 0 -65 0 0 -65
0 -65 -65 0 -65 0 0 65 0 65 65 0 65 0 0 65 0 65 -65 0 -65 0 0 60 0 60 65 0
65 0 0 -60z"/>
<path d="M5510 7195 l0 -65 60 0 60 0 0 -60 0 -60 -60 0 -60 0 0 -65 0 -65 60
0 60 0 0 -65 0 -65 65 0 65 0 0 65 0 65 60 0 60 0 0 65 0 65 -60 0 -60 0 0 60
0 60 -65 0 -65 0 0 65 0 65 -60 0 -60 0 0 -65z m250 -250 l0 -65 -65 0 -65 0
0 65 0 65 65 0 65 0 0 -65z"/>
<path d="M5630 6565 l0 -65 65 0 65 0 0 65 0 65 -65 0 -65 0 0 -65z"/>
<path d="M5630 6060 l0 -60 65 0 65 0 0 -65 0 -65 60 0 60 0 0 65 0 65 -60 0
-60 0 0 60 0 60 -65 0 -65 0 0 -60z"/>
<path d="M5760 5680 l0 -60 -65 0 -65 0 0 -65 0 -65 65 0 65 0 0 -65 0 -65 60
0 60 0 0 65 0 65 -60 0 -60 0 0 65 0 65 60 0 60 0 0 60 0 60 -60 0 -60 0 0
-60z"/>
<path d="M5760 5175 l0 -65 -65 0 -65 0 0 -65 0 -65 65 0 65 0 0 -60 0 -60 60
0 60 0 0 60 0 60 -60 0 -60 0 0 65 0 65 60 0 60 0 0 65 0 65 -60 0 -60 0 0
-65z"/>
<path d="M6260 4665 l0 -65 65 0 65 0 0 65 0 65 -65 0 -65 0 0 -65z"/>
<path d="M6260 4415 l0 -65 65 0 65 0 0 -65 0 -65 -65 0 -65 0 0 -60 0 -60 65
0 65 0 0 -65 0 -65 -65 0 -65 0 0 -65 0 -65 65 0 65 0 0 65 0 65 65 0 65 0 0
65 0 65 60 0 60 0 0 -65 0 -65 65 0 65 0 0 190 0 190 -190 0 -190 0 0 65 0 65
-65 0 -65 0 0 -65z m260 -255 l0 -60 -65 0 -65 0 0 60 0 60 65 0 65 0 0 -60z"/>
<path d="M5760 4160 l0 -60 60 0 60 0 0 60 0 60 -60 0 -60 0 0 -60z"/>
<path d="M5760 3655 l0 -65 60 0 60 0 0 65 0 65 -60 0 -60 0 0 -65z"/>
<path d="M5760 3400 l0 -60 60 0 60 0 0 60 0 60 -60 0 -60 0 0 -60z"/>
<path d="M6010 3400 l0 -60 65 0 65 0 0 60 0 60 -65 0 -65 0 0 -60z"/>
<path d="M8040 13905 l0 -315 440 0 440 0 0 315 0 315 -440 0 -440 0 0 -315z
m760 -60 l0 -125 -255 0 -255 0 0 125 0 125 255 0 255 0 0 -125z"/>
<path d="M10310 13780 l0 -60 65 0 65 0 0 -65 0 -65 65 0 65 0 0 -65 0 -65 60
0 60 0 0 190 0 190 -190 0 -190 0 0 -60z"/>
<path d="M10440 12895 l0 -65 65 0 65 0 0 65 0 65 -65 0 -65 0 0 -65z"/>
<path d="M10440 12640 l0 -60 65 0 65 0 0 -65 0 -65 -65 0 -65 0 0 -65 0 -65
65 0 65 0 0 -60 0 -60 -65 0 -65 0 0 -65 0 -65 65 0 65 0 0 -65 0 -65 -65 0
-65 0 0 -60 0 -60 65 0 65 0 0 -65 0 -65 -65 0 -65 0 0 -65 0 -65 65 0 65 0 0
65 0 65 60 0 60 0 0 65 0 65 130 0 130 0 0 -65 0 -65 60 0 60 0 0 190 0 190
-125 0 -125 0 0 65 0 65 -65 0 -65 0 0 60 0 60 -60 0 -60 0 0 65 0 65 60 0 60
0 0 65 0 65 -60 0 -60 0 0 60 0 60 -65 0 -65 0 0 -60z m250 -505 l0 -65 65 0
65 0 0 -65 0 -65 -65 0 -65 0 0 -60 0 -60 -60 0 -60 0 0 60 0 60 60 0 60 0 0
65 0 65 -60 0 -60 0 0 65 0 65 60 0 60 0 0 -65z"/>
<path d="M10060 12515 l0 -65 65 0 65 0 0 65 0 65 -65 0 -65 0 0 -65z"/>
<path d="M9680 11375 l0 -65 65 0 65 0 0 65 0 65 -65 0 -65 0 0 -65z"/>
<path d="M10440 11375 l0 -65 65 0 65 0 0 65 0 65 -65 0 -65 0 0 -65z"/>
<path d="M10440 11120 l0 -60 65 0 65 0 0 60 0 60 -65 0 -65 0 0 -60z"/>
<path d="M10440 10865 l0 -65 65 0 65 0 0 65 0 65 -65 0 -65 0 0 -65z"/>
<path d="M10440 10615 l0 -65 65 0 65 0 0 -65 0 -65 60 0 60 0 0 -60 0 -60
-60 0 -60 0 0 -65 0 -65 60 0 60 0 0 -60 0 -60 -60 0 -60 0 0 -65 0 -65 60 0
60 0 0 -65 0 -65 -60 0 -60 0 0 -60 0 -60 60 0 60 0 0 -65 0 -65 -60 0 -60 0
0 -65 0 -65 60 0 60 0 0 -60 0 -60 -60 0 -60 0 0 -65 0 -65 60 0 60 0 0 65 0
65 65 0 65 0 0 60 0 60 -65 0 -65 0 0 65 0 65 65 0 65 0 0 65 0 65 65 0 65 0
0 -65 0 -65 60 0 60 0 0 190 0 190 -60 0 -60 0 0 65 0 65 -65 0 -65 0 0 60 0
60 65 0 65 0 0 65 0 65 -65 0 -65 0 0 60 0 60 -65 0 -65 0 0 65 0 65 -60 0
-60 0 0 65 0 65 -65 0 -65 0 0 -65z m380 -380 l0 -65 -65 0 -65 0 0 65 0 65
65 0 65 0 0 -65z m0 -250 l0 -65 -65 0 -65 0 0 65 0 65 65 0 65 0 0 -65z m0
-255 l0 -60 -65 0 -65 0 0 60 0 60 65 0 65 0 0 -60z"/>
<path d="M9560 10485 l0 -65 -65 0 -65 0 0 -60 0 -60 65 0 65 0 0 -65 0 -65
-65 0 -65 0 0 -60 0 -60 -65 0 -65 0 0 -65 0 -65 -60 0 -60 0 0 -65 0 -65 60
0 60 0 0 -60 0 -60 65 0 65 0 0 60 0 60 -65 0 -65 0 0 65 0 65 65 0 65 0 0 65
0 65 65 0 65 0 0 60 0 60 60 0 60 0 0 65 0 65 -60 0 -60 0 0 60 0 60 60 0 60
0 0 65 0 65 -60 0 -60 0 0 -65z"/>
<path d="M10310 9985 l0 -65 65 0 65 0 0 65 0 65 -65 0 -65 0 0 -65z"/>
<path d="M10310 9730 l0 -60 65 0 65 0 0 60 0 60 -65 0 -65 0 0 -60z"/>
<path d="M9180 9350 l0 -60 60 0 60 0 0 60 0 60 -60 0 -60 0 0 -60z"/>
<path d="M9180 9095 l0 -65 60 0 60 0 0 65 0 65 -60 0 -60 0 0 -65z"/>
<path d="M10440 8845 l0 -65 -65 0 -65 0 0 -65 0 -65 65 0 65 0 0 -60 0 -60
-65 0 -65 0 0 -65 0 -65 -60 0 -60 0 0 65 0 65 -65 0 -65 0 0 -65 0 -65 65 0
65 0 0 -65 0 -65 -65 0 -65 0 0 -60 0 -60 65 0 65 0 0 -65 0 -65 -65 0 -65 0
0 -65 0 -65 65 0 65 0 0 65 0 65 60 0 60 0 0 65 0 65 65 0 65 0 0 60 0 60 65
0 65 0 0 -125 0 -125 60 0 60 0 0 125 0 125 -60 0 -60 0 0 65 0 65 -65 0 -65
0 0 65 0 65 65 0 65 0 0 60 0 60 60 0 60 0 0 65 0 65 -60 0 -60 0 0 65 0 65
-65 0 -65 0 0 -65z m130 -130 l0 -65 -65 0 -65 0 0 65 0 65 65 0 65 0 0 -65z
m-130 -380 l0 -65 -65 0 -65 0 0 -60 0 -60 -60 0 -60 0 0 60 0 60 60 0 60 0 0
65 0 65 65 0 65 0 0 -65z"/>
<path d="M9180 8590 l0 -60 60 0 60 0 0 -65 0 -65 65 0 65 0 0 65 0 65 -65 0
-65 0 0 60 0 60 -60 0 -60 0 0 -60z"/>
<path d="M9300 8210 l0 -60 65 0 65 0 0 60 0 60 -65 0 -65 0 0 -60z"/>
<path d="M9300 7955 l0 -65 65 0 65 0 0 -60 0 -60 -65 0 -65 0 0 -65 0 -65 65
0 65 0 0 -65 0 -65 -65 0 -65 0 0 -60 0 -60 65 0 65 0 0 -65 0 -65 -65 0 -65
0 0 -65 0 -65 65 0 65 0 0 -60 0 -60 -65 0 -65 0 0 -65 0 -65 65 0 65 0 0 -65
0 -65 -65 0 -65 0 0 -60 0 -60 -60 0 -60 0 0 -65 0 -65 60 0 60 0 0 -65 0 -65
65 0 65 0 0 -60 0 -60 65 0 65 0 0 60 0 60 -65 0 -65 0 0 65 0 65 65 0 65 0 0
65 0 65 -65 0 -65 0 0 60 0 60 65 0 65 0 0 65 0 65 -65 0 -65 0 0 65 0 65 65
0 65 0 0 60 0 60 -65 0 -65 0 0 65 0 65 65 0 65 0 0 65 0 65 -65 0 -65 0 0 60
0 60 65 0 65 0 0 65 0 65 -65 0 -65 0 0 65 0 65 65 0 65 0 0 60 0 60 -65 0
-65 0 0 65 0 65 -65 0 -65 0 0 -65z m130 -1390 l0 -65 -65 0 -65 0 0 65 0 65
65 0 65 0 0 -65z"/>
<path d="M9680 7830 l0 -60 65 0 65 0 0 60 0 60 -65 0 -65 0 0 -60z"/>
<path d="M10060 7705 l0 -65 65 0 65 0 0 65 0 65 -65 0 -65 0 0 -65z"/>
<path d="M10060 7450 l0 -60 65 0 65 0 0 60 0 60 -65 0 -65 0 0 -60z"/>
<path d="M9930 7070 l0 -60 65 0 65 0 0 60 0 60 -65 0 -65 0 0 -60z"/>
<path d="M9930 6815 l0 -65 65 0 65 0 0 65 0 65 -65 0 -65 0 0 -65z"/>
<path d="M9930 6310 l0 -60 65 0 65 0 0 60 0 60 -65 0 -65 0 0 -60z"/>
<path d="M9430 6060 l0 -60 65 0 65 0 0 60 0 60 -65 0 -65 0 0 -60z"/>
<path d="M9430 5805 l0 -65 65 0 65 0 0 65 0 65 -65 0 -65 0 0 -65z"/>
<path d="M9430 5555 l0 -65 65 0 65 0 0 -65 0 -65 60 0 60 0 0 65 0 65 -60 0
-60 0 0 65 0 65 -65 0 -65 0 0 -65z"/>
<path d="M10060 5425 l0 -65 65 0 65 0 0 -60 0 -60 -65 0 -65 0 0 -65 0 -65
65 0 65 0 0 -65 0 -65 -65 0 -65 0 0 -60 0 -60 65 0 65 0 0 60 0 60 190 0 190
0 0 -60 0 -60 60 0 60 0 0 -65 0 -65 65 0 65 0 0 190 0 190 -190 0 -190 0 0
65 0 65 -65 0 -65 0 0 60 0 60 -60 0 -60 0 0 65 0 65 -65 0 -65 0 0 -65z m250
-250 l0 -65 -60 0 -60 0 0 65 0 65 60 0 60 0 0 -65z"/>
<path d="M9560 5175 l0 -65 60 0 60 0 0 65 0 65 -60 0 -60 0 0 -65z"/>
<path d="M9560 4920 l0 -60 60 0 60 0 0 60 0 60 -60 0 -60 0 0 -60z"/>
<path d="M9560 4665 l0 -65 60 0 60 0 0 65 0 65 -60 0 -60 0 0 -65z"/>
<path d="M10060 4665 l0 -65 65 0 65 0 0 -60 0 -60 -65 0 -65 0 0 -65 0 -65
65 0 65 0 0 -65 0 -65 60 0 60 0 0 190 0 190 -60 0 -60 0 0 65 0 65 -65 0 -65
0 0 -65z"/>
<path d="M9560 4415 l0 -65 -65 0 -65 0 0 -65 0 -65 65 0 65 0 0 -60 0 -60 60
0 60 0 0 -65 0 -65 -60 0 -60 0 0 -65 0 -65 60 0 60 0 0 -60 0 -60 65 0 65 0
0 60 0 60 -65 0 -65 0 0 65 0 65 65 0 65 0 0 65 0 65 -65 0 -65 0 0 60 0 60
-60 0 -60 0 0 65 0 65 60 0 60 0 0 65 0 65 -60 0 -60 0 0 -65z"/>
<path d="M9680 3525 l0 -65 65 0 65 0 0 -60 0 -60 -65 0 -65 0 0 -65 0 -65 65
0 65 0 0 65 0 65 60 0 60 0 0 60 0 60 -60 0 -60 0 0 65 0 65 -65 0 -65 0 0
-65z"/>
<path d="M10060 3145 l0 -65 65 0 65 0 0 65 0 65 -65 0 -65 0 0 -65z"/>
<path d="M9560 2895 l0 -65 60 0 60 0 0 65 0 65 -60 0 -60 0 0 -65z"/>
<path d="M10060 2640 l0 -60 65 0 65 0 0 60 0 60 -65 0 -65 0 0 -60z"/>
<path d="M10060 2260 l0 -190 65 0 65 0 0 -65 0 -65 -65 0 -65 0 0 -60 0 -60
65 0 65 0 0 60 0 60 60 0 60 0 0 190 0 190 -60 0 -60 0 0 65 0 65 -65 0 -65 0
0 -190z"/>
<path d="M9680 1505 l0 -65 65 0 65 0 0 65 0 65 -65 0 -65 0 0 -65z"/>
</g>
</svg>
