<?xml version="1.0" standalone="no"?>
<!DOCTYPE svg PUBLIC "-//W3C//DTD SVG 20010904//EN"
 "http://www.w3.org/TR/2001/REC-SVG-20010904/DTD/svg10.dtd">
<svg version="1.0" xmlns="http://www.w3.org/2000/svg"
 width="1418.000000pt" height="1419.000000pt" viewBox="0 0 1418.000000 1419.000000"
 preserveAspectRatio="xMidYMid meet">

<g transform="translate(0.000000,1419.000000) scale(0.100000,-0.100000)"
fill="#000000" stroke="none">
<path d="M5760 13255 l0 -55 -170 0 -170 0 0 -55 0 -55 -110 0 -110 0 0 -55 0
-55 -165 0 -165 0 0 -55 0 -55 -55 0 -55 0 0 -55 0 -55 -55 0 -55 0 0 -115 0
-115 -60 0 -60 0 0 -55 0 -55 -55 0 -55 0 0 -55 0 -55 -55 0 -55 0 0 -55 0
-55 -55 0 -55 0 0 -110 0 -110 -55 0 -55 0 0 -110 0 -110 -55 0 -55 0 0 -225
0 -225 -55 0 -55 0 0 -220 0 -220 -55 0 -55 0 0 -170 0 -170 -55 0 -55 0 0
-665 0 -665 55 0 55 0 0 -610 0 -610 55 0 55 0 0 -170 0 -170 55 0 55 0 0
-385 0 -385 -55 0 -55 0 0 -335 0 -335 -55 0 -55 0 0 -225 0 -225 -55 0 -55 0
0 -165 0 -165 -60 0 -60 0 0 -55 0 -55 -55 0 -55 0 0 -55 0 -55 -55 0 -55 0 0
-55 0 -55 -55 0 -55 0 0 -55 0 -55 -55 0 -55 0 0 -115 0 -115 -55 0 -55 0 0
-55 0 -55 -55 0 -55 0 0 -55 0 -55 -55 0 -55 0 0 -55 0 -55 -55 0 -55 0 0 -55
0 -55 -60 0 -60 0 0 -55 0 -55 -110 0 -110 0 0 -55 0 -55 -55 0 -55 0 0 -55 0
-55 -55 0 -55 0 0 -55 0 -55 -55 0 -55 0 0 -115 0 -115 -55 0 -55 0 0 -55 0
-55 -55 0 -55 0 0 -110 0 -110 165 0 165 0 0 55 0 55 55 0 55 0 0 55 0 55 280
0 280 0 0 -55 0 -55 110 0 110 0 0 -55 0 -55 165 0 165 0 0 -55 0 -55 170 0
170 0 0 -55 0 -55 55 0 55 0 0 -55 0 -55 55 0 55 0 0 -55 0 -55 55 0 55 0 0
-60 0 -60 55 0 55 0 0 -55 0 -55 55 0 55 0 0 -55 0 -55 55 0 55 0 0 -55 0 -55
55 0 55 0 0 -55 0 -55 55 0 55 0 0 -55 0 -55 60 0 60 0 0 -55 0 -55 55 0 55 0
0 -55 0 -55 55 0 55 0 0 -55 0 -55 165 0 165 0 0 -60 0 -60 110 0 110 0 0 -55
0 -55 170 0 170 0 0 -55 0 -55 220 0 220 0 0 -55 0 -55 225 0 225 0 0 -55 0
-55 220 0 220 0 0 -55 0 -55 165 0 165 0 0 -55 0 -55 280 0 280 0 0 -55 0 -55
110 0 110 0 0 -55 0 -55 280 0 280 0 0 55 0 55 110 0 110 0 0 55 0 55 110 0
110 0 0 55 0 55 110 0 110 0 0 55 0 55 170 0 170 0 0 55 0 55 110 0 110 0 0
55 0 55 110 0 110 0 0 55 0 55 110 0 110 0 0 55 0 55 115 0 115 0 0 60 0 60
55 0 55 0 0 55 0 55 55 0 55 0 0 55 0 55 55 0 55 0 0 55 0 55 55 0 55 0 0 55
0 55 110 0 110 0 0 55 0 55 55 0 55 0 0 55 0 55 60 0 60 0 0 55 0 55 110 0
110 0 0 55 0 55 55 0 55 0 0 60 0 60 55 0 55 0 0 165 0 165 -55 0 -55 0 0 55
0 55 -55 0 -55 0 0 55 0 55 -55 0 -55 0 0 110 0 110 -55 0 -55 0 0 225 0 225
-60 0 -60 0 0 165 0 165 -55 0 -55 0 0 165 0 165 -55 0 -55 0 0 170 0 170 -55
0 -55 0 0 165 0 165 -55 0 -55 0 0 165 0 165 -55 0 -55 0 0 500 0 500 55 0 55
0 0 1500 0 1500 -55 0 -55 0 0 225 0 225 -55 0 -55 0 0 165 0 165 -55 0 -55 0
0 170 0 170 -60 0 -60 0 0 165 0 165 -55 0 -55 0 0 110 0 110 -55 0 -55 0 0
110 0 110 -55 0 -55 0 0 115 0 115 -55 0 -55 0 0 110 0 110 -55 0 -55 0 0 55
0 55 -55 0 -55 0 0 110 0 110 -55 0 -55 0 0 55 0 55 -55 0 -55 0 0 55 0 55
-170 0 -170 0 0 60 0 60 -110 0 -110 0 0 55 0 55 -165 0 -165 0 0 55 0 55 -55
0 -55 0 0 55 0 55 -225 0 -225 0 0 55 0 55 -335 0 -335 0 0 55 0 55 -885 0
-885 0 0 -55z m550 -110 l0 -55 55 0 55 0 0 55 0 55 55 0 55 0 0 -55 0 -55 60
0 60 0 0 55 0 55 55 0 55 0 0 -55 0 -55 55 0 55 0 0 55 0 55 55 0 55 0 0 -55
0 -55 55 0 55 0 0 55 0 55 55 0 55 0 0 -55 0 -55 55 0 55 0 0 -55 0 -55 55 0
55 0 0 55 0 55 55 0 55 0 0 -55 0 -55 60 0 60 0 0 55 0 55 55 0 55 0 0 -55 0
-55 55 0 55 0 0 55 0 55 55 0 55 0 0 -55 0 -55 55 0 55 0 0 -55 0 -55 55 0 55
0 0 55 0 55 55 0 55 0 0 -55 0 -55 55 0 55 0 0 55 0 55 55 0 55 0 0 -55 0 -55
60 0 60 0 0 -55 0 -55 55 0 55 0 0 -60 0 -60 55 0 55 0 0 60 0 60 55 0 55 0 0
-60 0 -60 55 0 55 0 0 -55 0 -55 55 0 55 0 0 -55 0 -55 55 0 55 0 0 55 0 55
55 0 55 0 0 -55 0 -55 55 0 55 0 0 -55 0 -55 60 0 60 0 0 -55 0 -55 55 0 55 0
0 -55 0 -55 55 0 55 0 0 -55 0 -55 55 0 55 0 0 -55 0 -55 -55 0 -55 0 0 -55 0
-55 55 0 55 0 0 -60 0 -60 55 0 55 0 0 -55 0 -55 55 0 55 0 0 -55 0 -55 -55 0
-55 0 0 -55 0 -55 55 0 55 0 0 -55 0 -55 55 0 55 0 0 -55 0 -55 55 0 55 0 0
-55 0 -55 -55 0 -55 0 0 -55 0 -55 55 0 55 0 0 -55 0 -55 55 0 55 0 0 -60 0
-60 -55 0 -55 0 0 -55 0 -55 55 0 55 0 0 -55 0 -55 -55 0 -55 0 0 -55 0 -55
55 0 55 0 0 -55 0 -55 60 0 60 0 0 -55 0 -55 55 0 55 0 0 -55 0 -55 -55 0 -55
0 0 -55 0 -55 55 0 55 0 0 -60 0 -60 -55 0 -55 0 0 -55 0 -55 55 0 55 0 0 -55
0 -55 55 0 55 0 0 -55 0 -55 -55 0 -55 0 0 -55 0 -55 55 0 55 0 0 -55 0 -55
-55 0 -55 0 0 -55 0 -55 55 0 55 0 0 -55 0 -55 -55 0 -55 0 0 -55 0 -55 55 0
55 0 0 -60 0 -60 -55 0 -55 0 0 -55 0 -55 55 0 55 0 0 -55 0 -55 -55 0 -55 0
0 -55 0 -55 55 0 55 0 0 -55 0 -55 -55 0 -55 0 0 -55 0 -55 55 0 55 0 0 -55 0
-55 -55 0 -55 0 0 -55 0 -55 55 0 55 0 0 -55 0 -55 -55 0 -55 0 0 -60 0 -60
55 0 55 0 0 -55 0 -55 -55 0 -55 0 0 -55 0 -55 55 0 55 0 0 -220 0 -220 -55 0
-55 0 0 -445 0 -445 -55 0 -55 0 0 -55 0 -55 55 0 55 0 0 -55 0 -55 -55 0 -55
0 0 -55 0 -55 55 0 55 0 0 -60 0 -60 -55 0 -55 0 0 -55 0 -55 55 0 55 0 0 -55
0 -55 55 0 55 0 0 -55 0 -55 -55 0 -55 0 0 -55 0 -55 55 0 55 0 0 -55 0 -55
55 0 55 0 0 -55 0 -55 -55 0 -55 0 0 -55 0 -55 55 0 55 0 0 -55 0 -55 55 0 55
0 0 -60 0 -60 -55 0 -55 0 0 -55 0 -55 55 0 55 0 0 -55 0 -55 55 0 55 0 0 -55
0 -55 -55 0 -55 0 0 -55 0 -55 55 0 55 0 0 -55 0 -55 55 0 55 0 0 -55 0 -55
-55 0 -55 0 0 -55 0 -55 55 0 55 0 0 -55 0 -55 55 0 55 0 0 -60 0 -60 -55 0
-55 0 0 -55 0 -55 55 0 55 0 0 -55 0 -55 -55 0 -55 0 0 -55 0 -55 55 0 55 0 0
-55 0 -55 60 0 60 0 0 -55 0 -55 55 0 55 0 0 -55 0 -55 55 0 55 0 0 -110 0
-110 -55 0 -55 0 0 -60 0 -60 -115 0 -115 0 0 -55 0 -55 -55 0 -55 0 0 -55 0
-55 -55 0 -55 0 0 -55 0 -55 -110 0 -110 0 0 -55 0 -55 -55 0 -55 0 0 -55 0
-55 -55 0 -55 0 0 -55 0 -55 -55 0 -55 0 0 -55 0 -55 -60 0 -60 0 0 -55 0 -55
-110 0 -110 0 0 -60 0 -60 -110 0 -110 0 0 -55 0 -55 -110 0 -110 0 0 -55 0
-55 -170 0 -170 0 0 -55 0 -55 -110 0 -110 0 0 -55 0 -55 -110 0 -110 0 0 -55
0 -55 -165 0 -165 0 0 -55 0 -55 -55 0 -55 0 0 -55 0 -55 -170 0 -170 0 0 55
0 55 -110 0 -110 0 0 55 0 55 -280 0 -280 0 0 55 0 55 -110 0 -110 0 0 55 0
55 -220 0 -220 0 0 55 0 55 -225 0 -225 0 0 55 0 55 -220 0 -220 0 0 55 0 55
-165 0 -165 0 0 60 0 60 -170 0 -170 0 0 55 0 55 -110 0 -110 0 0 55 0 55 -55
0 -55 0 0 55 0 55 -55 0 -55 0 0 55 0 55 -55 0 -55 0 0 55 0 55 -55 0 -55 0 0
55 0 55 -60 0 -60 0 0 55 0 55 -55 0 -55 0 0 55 0 55 -55 0 -55 0 0 60 0 60
-55 0 -55 0 0 55 0 55 -55 0 -55 0 0 55 0 55 -55 0 -55 0 0 55 0 55 -55 0 -55
0 0 55 0 55 -55 0 -55 0 0 55 0 55 -55 0 -55 0 0 55 0 55 -60 0 -60 0 0 -55 0
-55 -55 0 -55 0 0 55 0 55 -55 0 -55 0 0 55 0 55 -55 0 -55 0 0 55 0 55 -55 0
-55 0 0 -55 0 -55 -55 0 -55 0 0 55 0 55 -55 0 -55 0 0 60 0 60 -55 0 -55 0 0
55 0 55 -55 0 -55 0 0 -55 0 -55 -60 0 -60 0 0 -60 0 -60 -55 0 -55 0 0 60 0
60 55 0 55 0 0 55 0 55 60 0 60 0 0 55 0 55 55 0 55 0 0 -55 0 -55 55 0 55 0
0 55 0 55 55 0 55 0 0 55 0 55 55 0 55 0 0 -55 0 -55 55 0 55 0 0 55 0 55 55
0 55 0 0 55 0 55 -55 0 -55 0 0 55 0 55 55 0 55 0 0 55 0 55 -55 0 -55 0 0 55
0 55 55 0 55 0 0 -55 0 -55 55 0 55 0 0 55 0 55 55 0 55 0 0 55 0 55 -55 0
-55 0 0 60 0 60 55 0 55 0 0 -60 0 -60 60 0 60 0 0 60 0 60 55 0 55 0 0 55 0
55 -55 0 -55 0 0 55 0 55 55 0 55 0 0 55 0 55 55 0 55 0 0 -55 0 -55 55 0 55
0 0 55 0 55 55 0 55 0 0 -55 0 -55 55 0 55 0 0 55 0 55 55 0 55 0 0 -55 0 -55
55 0 55 0 0 -55 0 -55 55 0 55 0 0 55 0 55 60 0 60 0 0 -55 0 -55 55 0 55 0 0
-55 0 -55 55 0 55 0 0 -60 0 -60 55 0 55 0 0 60 0 60 55 0 55 0 0 -60 0 -60
55 0 55 0 0 -55 0 -55 55 0 55 0 0 -55 0 -55 55 0 55 0 0 -55 0 -55 55 0 55 0
0 55 0 55 60 0 60 0 0 55 0 55 -60 0 -60 0 0 55 0 55 -55 0 -55 0 0 60 0 60
-55 0 -55 0 0 55 0 55 -55 0 -55 0 0 55 0 55 -55 0 -55 0 0 55 0 55 -55 0 -55
0 0 -55 0 -55 -55 0 -55 0 0 55 0 55 -55 0 -55 0 0 55 0 55 -55 0 -55 0 0 -55
0 -55 -60 0 -60 0 0 55 0 55 -55 0 -55 0 0 55 0 55 -55 0 -55 0 0 55 0 55 -55
0 -55 0 0 -55 0 -55 -55 0 -55 0 0 55 0 55 55 0 55 0 0 55 0 55 55 0 55 0 0
55 0 55 -55 0 -55 0 0 60 0 60 -55 0 -55 0 0 -60 0 -60 -55 0 -55 0 0 60 0 60
55 0 55 0 0 55 0 55 55 0 55 0 0 -55 0 -55 55 0 55 0 0 55 0 55 55 0 55 0 0
55 0 55 -55 0 -55 0 0 55 0 55 -55 0 -55 0 0 -55 0 -55 -55 0 -55 0 0 55 0 55
55 0 55 0 0 55 0 55 55 0 55 0 0 -55 0 -55 55 0 55 0 0 55 0 55 55 0 55 0 0
55 0 55 -55 0 -55 0 0 55 0 55 -55 0 -55 0 0 -55 0 -55 -55 0 -55 0 0 55 0 55
-55 0 -55 0 0 55 0 55 55 0 55 0 0 -55 0 -55 55 0 55 0 0 55 0 55 55 0 55 0 0
55 0 55 -55 0 -55 0 0 60 0 60 -55 0 -55 0 0 55 0 55 55 0 55 0 0 55 0 55 55
0 55 0 0 55 0 55 -55 0 -55 0 0 55 0 55 -55 0 -55 0 0 55 0 55 55 0 55 0 0 55
0 55 55 0 55 0 0 55 0 55 -55 0 -55 0 0 55 0 55 -55 0 -55 0 0 60 0 60 -55 0
-55 0 0 55 0 55 55 0 55 0 0 55 0 55 55 0 55 0 0 55 0 55 -55 0 -55 0 0 55 0
55 -55 0 -55 0 0 -55 0 -55 -55 0 -55 0 0 55 0 55 55 0 55 0 0 55 0 55 55 0
55 0 0 -55 0 -55 55 0 55 0 0 55 0 55 55 0 55 0 0 55 0 55 -55 0 -55 0 0 55 0
55 -55 0 -55 0 0 -55 0 -55 -55 0 -55 0 0 55 0 55 -55 0 -55 0 0 55 0 55 55 0
55 0 0 60 0 60 55 0 55 0 0 55 0 55 -55 0 -55 0 0 55 0 55 -55 0 -55 0 0 55 0
55 55 0 55 0 0 55 0 55 55 0 55 0 0 55 0 55 55 0 55 0 0 55 0 55 -55 0 -55 0
0 55 0 55 -55 0 -55 0 0 -55 0 -55 -55 0 -55 0 0 -55 0 -55 -55 0 -55 0 0 55
0 55 55 0 55 0 0 55 0 55 55 0 55 0 0 55 0 55 -55 0 -55 0 0 60 0 60 -55 0
-55 0 0 55 0 55 55 0 55 0 0 55 0 55 -55 0 -55 0 0 55 0 55 55 0 55 0 0 -55 0
-55 55 0 55 0 0 55 0 55 55 0 55 0 0 55 0 55 -55 0 -55 0 0 55 0 55 -55 0 -55
0 0 55 0 55 55 0 55 0 0 -55 0 -55 55 0 55 0 0 55 0 55 55 0 55 0 0 55 0 55
-55 0 -55 0 0 60 0 60 55 0 55 0 0 55 0 55 -55 0 -55 0 0 55 0 55 -55 0 -55 0
0 55 0 55 55 0 55 0 0 55 0 55 55 0 55 0 0 55 0 55 55 0 55 0 0 55 0 55 -55 0
-55 0 0 55 0 55 55 0 55 0 0 55 0 55 -55 0 -55 0 0 60 0 60 55 0 55 0 0 55 0
55 55 0 55 0 0 55 0 55 -55 0 -55 0 0 55 0 55 55 0 55 0 0 55 0 55 60 0 60 0
0 55 0 55 55 0 55 0 0 55 0 55 55 0 55 0 0 55 0 55 55 0 55 0 0 55 0 55 55 0
55 0 0 60 0 60 55 0 55 0 0 55 0 55 55 0 55 0 0 -55 0 -55 55 0 55 0 0 55 0
55 55 0 55 0 0 55 0 55 60 0 60 0 0 -55 0 -55 55 0 55 0 0 55 0 55 55 0 55 0
0 55 0 55 55 0 55 0 0 -55 0 -55 55 0 55 0 0 55 0 55 55 0 55 0 0 55 0 55 55
0 55 0 0 -55z m-2220 -2445 l0 -60 -55 0 -55 0 0 60 0 60 55 0 55 0 0 -60z"/>
<path d="M6200 13035 l0 -55 -55 0 -55 0 0 -55 0 -55 -55 0 -55 0 0 55 0 55
-55 0 -55 0 0 -55 0 -55 -55 0 -55 0 0 -55 0 -55 -55 0 -55 0 0 55 0 55 -60 0
-60 0 0 -55 0 -55 -55 0 -55 0 0 -60 0 -60 -55 0 -55 0 0 60 0 60 -55 0 -55 0
0 -60 0 -60 -55 0 -55 0 0 -55 0 -55 -55 0 -55 0 0 -55 0 -55 -55 0 -55 0 0
-55 0 -55 -55 0 -55 0 0 -55 0 -55 -55 0 -55 0 0 -55 0 -55 -60 0 -60 0 0 -55
0 -55 60 0 60 0 0 -55 0 -55 -60 0 -60 0 0 -55 0 -55 -55 0 -55 0 0 -60 0 -60
55 0 55 0 0 -55 0 -55 -55 0 -55 0 0 -55 0 -55 55 0 55 0 0 -55 0 -55 -55 0
-55 0 0 -55 0 -55 -55 0 -55 0 0 -55 0 -55 -55 0 -55 0 0 -55 0 -55 55 0 55 0
0 -55 0 -55 55 0 55 0 0 -55 0 -55 -55 0 -55 0 0 -60 0 -60 55 0 55 0 0 -55 0
-55 -55 0 -55 0 0 -55 0 -55 -55 0 -55 0 0 -55 0 -55 55 0 55 0 0 -55 0 -55
-55 0 -55 0 0 -55 0 -55 -55 0 -55 0 0 -55 0 -55 -55 0 -55 0 0 -55 0 -55 55
0 55 0 0 -60 0 -60 55 0 55 0 0 -55 0 -55 55 0 55 0 0 -55 0 -55 55 0 55 0 0
-55 0 -55 -55 0 -55 0 0 -55 0 -55 -55 0 -55 0 0 -55 0 -55 -55 0 -55 0 0 -55
0 -55 55 0 55 0 0 -55 0 -55 55 0 55 0 0 -55 0 -55 -55 0 -55 0 0 -60 0 -60
-55 0 -55 0 0 -55 0 -55 55 0 55 0 0 55 0 55 55 0 55 0 0 -55 0 -55 55 0 55 0
0 -55 0 -55 55 0 55 0 0 -55 0 -55 -55 0 -55 0 0 -55 0 -55 -55 0 -55 0 0 -55
0 -55 55 0 55 0 0 -55 0 -55 -55 0 -55 0 0 -55 0 -55 -55 0 -55 0 0 -55 0 -55
55 0 55 0 0 -60 0 -60 55 0 55 0 0 -55 0 -55 55 0 55 0 0 -55 0 -55 -55 0 -55
0 0 -55 0 -55 -55 0 -55 0 0 -55 0 -55 55 0 55 0 0 -55 0 -55 55 0 55 0 0 -55
0 -55 -55 0 -55 0 0 -55 0 -55 -55 0 -55 0 0 -55 0 -55 55 0 55 0 0 -60 0 -60
55 0 55 0 0 -55 0 -55 -55 0 -55 0 0 -55 0 -55 55 0 55 0 0 -55 0 -55 60 0 60
0 0 -55 0 -55 -60 0 -60 0 0 -55 0 -55 -55 0 -55 0 0 -55 0 -55 55 0 55 0 0
-55 0 -55 -55 0 -55 0 0 -55 0 -55 -55 0 -55 0 0 -60 0 -60 55 0 55 0 0 -55 0
-55 -55 0 -55 0 0 -55 0 -55 55 0 55 0 0 -55 0 -55 55 0 55 0 0 -55 0 -55 60
0 60 0 0 55 0 55 55 0 55 0 0 -55 0 -55 55 0 55 0 0 -55 0 -55 55 0 55 0 0 55
0 55 55 0 55 0 0 -55 0 -55 55 0 55 0 0 -55 0 -55 55 0 55 0 0 -55 0 -55 55 0
55 0 0 -55 0 -55 55 0 55 0 0 -60 0 -60 60 0 60 0 0 60 0 60 55 0 55 0 0 -60
0 -60 55 0 55 0 0 60 0 60 55 0 55 0 0 -60 0 -60 55 0 55 0 0 60 0 60 55 0 55
0 0 -60 0 -60 55 0 55 0 0 -55 0 -55 55 0 55 0 0 -55 0 -55 55 0 55 0 0 -55 0
-55 60 0 60 0 0 55 0 55 55 0 55 0 0 -55 0 -55 55 0 55 0 0 -55 0 -55 55 0 55
0 0 55 0 55 55 0 55 0 0 -55 0 -55 55 0 55 0 0 55 0 55 -55 0 -55 0 0 55 0 55
-55 0 -55 0 0 -55 0 -55 -55 0 -55 0 0 55 0 55 -55 0 -55 0 0 55 0 55 -55 0
-55 0 0 55 0 55 55 0 55 0 0 60 0 60 -55 0 -55 0 0 -60 0 -60 -60 0 -60 0 0
60 0 60 -55 0 -55 0 0 55 0 55 -55 0 -55 0 0 55 0 55 55 0 55 0 0 55 0 55 -55
0 -55 0 0 55 0 55 55 0 55 0 0 55 0 55 55 0 55 0 0 -55 0 -55 60 0 60 0 0 55
0 55 -60 0 -60 0 0 55 0 55 -55 0 -55 0 0 55 0 55 -55 0 -55 0 0 55 0 55 55 0
55 0 0 60 0 60 -55 0 -55 0 0 55 0 55 -55 0 -55 0 0 55 0 55 -55 0 -55 0 0
-55 0 -55 -55 0 -55 0 0 55 0 55 -55 0 -55 0 0 55 0 55 -55 0 -55 0 0 55 0 55
55 0 55 0 0 55 0 55 -55 0 -55 0 0 55 0 55 -55 0 -55 0 0 -55 0 -55 -60 0 -60
0 0 55 0 55 -55 0 -55 0 0 55 0 55 55 0 55 0 0 55 0 55 -55 0 -55 0 0 60 0 60
55 0 55 0 0 55 0 55 -55 0 -55 0 0 55 0 55 55 0 55 0 0 55 0 55 60 0 60 0 0
-55 0 -55 55 0 55 0 0 55 0 55 55 0 55 0 0 -55 0 -55 55 0 55 0 0 55 0 55 -55
0 -55 0 0 55 0 55 55 0 55 0 0 55 0 55 -55 0 -55 0 0 55 0 55 55 0 55 0 0 55
0 55 -55 0 -55 0 0 55 0 55 55 0 55 0 0 60 0 60 55 0 55 0 0 55 0 55 55 0 55
0 0 -55 0 -55 55 0 55 0 0 55 0 55 55 0 55 0 0 -280 0 -280 55 0 55 0 0 -55 0
-55 -55 0 -55 0 0 -55 0 -55 55 0 55 0 0 -165 0 -165 60 0 60 0 0 -60 0 -60
55 0 55 0 0 -55 0 -55 -55 0 -55 0 0 -55 0 -55 55 0 55 0 0 -55 0 -55 55 0 55
0 0 -55 0 -55 -55 0 -55 0 0 -55 0 -55 55 0 55 0 0 -55 0 -55 55 0 55 0 0 -55
0 -55 55 0 55 0 0 -55 0 -55 -55 0 -55 0 0 -60 0 -60 55 0 55 0 0 -55 0 -55
-55 0 -55 0 0 -55 0 -55 55 0 55 0 0 -55 0 -55 -55 0 -55 0 0 -55 0 -55 55 0
55 0 0 -55 0 -55 55 0 55 0 0 55 0 55 55 0 55 0 0 -55 0 -55 55 0 55 0 0 -55
0 -55 55 0 55 0 0 55 0 55 60 0 60 0 0 -55 0 -55 55 0 55 0 0 -55 0 -55 55 0
55 0 0 55 0 55 55 0 55 0 0 -55 0 -55 165 0 165 0 0 -55 0 -55 55 0 55 0 0
-60 0 -60 335 0 335 0 0 60 0 60 165 0 165 0 0 55 0 55 115 0 115 0 0 55 0 55
55 0 55 0 0 55 0 55 55 0 55 0 0 55 0 55 55 0 55 0 0 110 0 110 55 0 55 0 0
110 0 110 55 0 55 0 0 115 0 115 55 0 55 0 0 330 0 330 55 0 55 0 0 390 0 390
55 0 55 0 0 55 0 55 60 0 60 0 0 -55 0 -55 55 0 55 0 0 55 0 55 -55 0 -55 0 0
55 0 55 55 0 55 0 0 55 0 55 -55 0 -55 0 0 60 0 60 55 0 55 0 0 55 0 55 -55 0
-55 0 0 55 0 55 55 0 55 0 0 55 0 55 -55 0 -55 0 0 55 0 55 55 0 55 0 0 55 0
55 -55 0 -55 0 0 55 0 55 55 0 55 0 0 55 0 55 -55 0 -55 0 0 55 0 55 55 0 55
0 0 60 0 60 -55 0 -55 0 0 55 0 55 55 0 55 0 0 55 0 55 -55 0 -55 0 0 55 0 55
55 0 55 0 0 55 0 55 -55 0 -55 0 0 55 0 55 55 0 55 0 0 55 0 55 -55 0 -55 0 0
55 0 55 -60 0 -60 0 0 55 0 55 60 0 60 0 0 60 0 60 -60 0 -60 0 0 55 0 55 60
0 60 0 0 55 0 55 -60 0 -60 0 0 55 0 55 -55 0 -55 0 0 55 0 55 -55 0 -55 0 0
55 0 55 55 0 55 0 0 55 0 55 -55 0 -55 0 0 55 0 55 55 0 55 0 0 60 0 60 -55 0
-55 0 0 55 0 55 -55 0 -55 0 0 55 0 55 55 0 55 0 0 55 0 55 -55 0 -55 0 0 55
0 55 -55 0 -55 0 0 55 0 55 -55 0 -55 0 0 55 0 55 55 0 55 0 0 55 0 55 -55 0
-55 0 0 55 0 55 -55 0 -55 0 0 60 0 60 -55 0 -55 0 0 55 0 55 55 0 55 0 0 55
0 55 -55 0 -55 0 0 55 0 55 -55 0 -55 0 0 55 0 55 -60 0 -60 0 0 55 0 55 -55
0 -55 0 0 55 0 55 -55 0 -55 0 0 -55 0 -55 -55 0 -55 0 0 55 0 55 -55 0 -55 0
0 55 0 55 -55 0 -55 0 0 55 0 55 -55 0 -55 0 0 -55 0 -55 55 0 55 0 0 -55 0
-55 55 0 55 0 0 -55 0 -55 55 0 55 0 0 -55 0 -55 -55 0 -55 0 0 -55 0 -55 55
0 55 0 0 -55 0 -55 55 0 55 0 0 -55 0 -55 55 0 55 0 0 -55 0 -55 55 0 55 0 0
-60 0 -60 60 0 60 0 0 -55 0 -55 55 0 55 0 0 55 0 55 55 0 55 0 0 -55 0 -55
55 0 55 0 0 -55 0 -55 -55 0 -55 0 0 -55 0 -55 55 0 55 0 0 -55 0 -55 55 0 55
0 0 -55 0 -55 55 0 55 0 0 -55 0 -55 -55 0 -55 0 0 -55 0 -55 55 0 55 0 0 -55
0 -55 -55 0 -55 0 0 -60 0 -60 55 0 55 0 0 -55 0 -55 -55 0 -55 0 0 -55 0 -55
55 0 55 0 0 -55 0 -55 -55 0 -55 0 0 -55 0 -55 -55 0 -55 0 0 55 0 55 -110 0
-110 0 0 55 0 55 -55 0 -55 0 0 55 0 55 -115 0 -115 0 0 55 0 55 -500 0 -500
0 0 -55 0 -55 -220 0 -220 0 0 -55 0 -55 -110 0 -110 0 0 -55 0 -55 -115 0
-115 0 0 -55 0 -55 -55 0 -55 0 0 -55 0 -55 -55 0 -55 0 0 -55 0 -55 -55 0
-55 0 0 -55 0 -55 -55 0 -55 0 0 -60 0 -60 -55 0 -55 0 0 -55 0 -55 -55 0 -55
0 0 -110 0 -110 -55 0 -55 0 0 -110 0 -110 -55 0 -55 0 0 -110 0 -110 -60 0
-60 0 0 -280 0 -280 -55 0 -55 0 0 -165 0 -165 -55 0 -55 0 0 -55 0 -55 -55 0
-55 0 0 55 0 55 -55 0 -55 0 0 -55 0 -55 -55 0 -55 0 0 55 0 55 -55 0 -55 0 0
55 0 55 -55 0 -55 0 0 55 0 55 55 0 55 0 0 55 0 55 -55 0 -55 0 0 55 0 55 55
0 55 0 0 55 0 55 55 0 55 0 0 55 0 55 55 0 55 0 0 60 0 60 -55 0 -55 0 0 55 0
55 55 0 55 0 0 55 0 55 55 0 55 0 0 55 0 55 -55 0 -55 0 0 55 0 55 55 0 55 0
0 55 0 55 -55 0 -55 0 0 55 0 55 55 0 55 0 0 55 0 55 55 0 55 0 0 55 0 55 -55
0 -55 0 0 -55 0 -55 -55 0 -55 0 0 -55 0 -55 -55 0 -55 0 0 -55 0 -55 55 0 55
0 0 -55 0 -55 -55 0 -55 0 0 -55 0 -55 -55 0 -55 0 0 55 0 55 -55 0 -55 0 0
-55 0 -55 -55 0 -55 0 0 55 0 55 -60 0 -60 0 0 55 0 55 -55 0 -55 0 0 55 0 55
55 0 55 0 0 55 0 55 -55 0 -55 0 0 55 0 55 55 0 55 0 0 60 0 60 60 0 60 0 0
55 0 55 -60 0 -60 0 0 55 0 55 60 0 60 0 0 55 0 55 55 0 55 0 0 55 0 55 -55 0
-55 0 0 55 0 55 -60 0 -60 0 0 55 0 55 -55 0 -55 0 0 55 0 55 55 0 55 0 0 60
0 60 -55 0 -55 0 0 55 0 55 55 0 55 0 0 55 0 55 60 0 60 0 0 55 0 55 -60 0
-60 0 0 55 0 55 60 0 60 0 0 55 0 55 -60 0 -60 0 0 55 0 55 60 0 60 0 0 55 0
55 55 0 55 0 0 -55 0 -55 55 0 55 0 0 55 0 55 -55 0 -55 0 0 55 0 55 55 0 55
0 0 60 0 60 55 0 55 0 0 55 0 55 -55 0 -55 0 0 55 0 55 55 0 55 0 0 55 0 55
55 0 55 0 0 -55 0 -55 55 0 55 0 0 55 0 55 -55 0 -55 0 0 55 0 55 55 0 55 0 0
55 0 55 -55 0 -55 0 0 55 0 55 55 0 55 0 0 55 0 55 55 0 55 0 0 55 0 55 55 0
55 0 0 -55 0 -55 55 0 55 0 0 55 0 55 60 0 60 0 0 60 0 60 55 0 55 0 0 -60 0
-60 55 0 55 0 0 60 0 60 55 0 55 0 0 55 0 55 55 0 55 0 0 -55 0 -55 55 0 55 0
0 55 0 55 55 0 55 0 0 55 0 55 -55 0 -55 0 0 55 0 55 -55 0 -55 0 0 -55 0 -55
-55 0 -55 0 0 55 0 55 -55 0 -55 0 0 -55 0 -55 -55 0 -55 0 0 55 0 55 -55 0
-55 0 0 -55 0 -55 -60 0 -60 0 0 55 0 55 -55 0 -55 0 0 -55 0 -55 -55 0 -55 0
0 55 0 55 -55 0 -55 0 0 -55z m110 -110 l0 -55 55 0 55 0 0 55 0 55 55 0 55 0
0 -55 0 -55 60 0 60 0 0 55 0 55 55 0 55 0 0 -55 0 -55 55 0 55 0 0 55 0 55
55 0 55 0 0 -55 0 -55 -55 0 -55 0 0 -55 0 -55 -55 0 -55 0 0 55 0 55 -55 0
-55 0 0 -55 0 -55 -60 0 -60 0 0 -60 0 -60 -55 0 -55 0 0 60 0 60 -55 0 -55 0
0 -60 0 -60 -55 0 -55 0 0 -55 0 -55 -55 0 -55 0 0 -55 0 -55 -55 0 -55 0 0
-55 0 -55 55 0 55 0 0 -55 0 -55 -55 0 -55 0 0 -55 0 -55 -55 0 -55 0 0 -55 0
-55 -55 0 -55 0 0 -55 0 -55 55 0 55 0 0 -55 0 -55 -55 0 -55 0 0 -60 0 -60
-55 0 -55 0 0 -55 0 -55 -60 0 -60 0 0 -55 0 -55 -55 0 -55 0 0 -55 0 -55 55
0 55 0 0 -55 0 -55 -55 0 -55 0 0 -55 0 -55 55 0 55 0 0 -55 0 -55 -55 0 -55
0 0 -55 0 -55 -55 0 -55 0 0 -55 0 -55 55 0 55 0 0 -60 0 -60 -55 0 -55 0 0
-55 0 -55 55 0 55 0 0 -55 0 -55 55 0 55 0 0 -55 0 -55 60 0 60 0 0 -55 0 -55
-60 0 -60 0 0 -55 0 -55 -55 0 -55 0 0 -55 0 -55 55 0 55 0 0 -55 0 -55 -55 0
-55 0 0 -60 0 -60 -55 0 -55 0 0 -55 0 -55 55 0 55 0 0 -55 0 -55 -55 0 -55 0
0 -55 0 -55 55 0 55 0 0 -55 0 -55 55 0 55 0 0 -55 0 -55 60 0 60 0 0 -55 0
-55 55 0 55 0 0 55 0 55 55 0 55 0 0 -55 0 -55 55 0 55 0 0 55 0 55 55 0 55 0
0 -55 0 -55 -55 0 -55 0 0 -55 0 -55 -55 0 -55 0 0 -55 0 -55 55 0 55 0 0 -60
0 -60 -55 0 -55 0 0 -55 0 -55 -55 0 -55 0 0 -55 0 -55 -55 0 -55 0 0 -55 0
-55 55 0 55 0 0 -55 0 -55 -55 0 -55 0 0 -55 0 -55 55 0 55 0 0 -55 0 -55 55
0 55 0 0 -55 0 -55 55 0 55 0 0 -55 0 -55 -55 0 -55 0 0 -60 0 -60 -55 0 -55
0 0 -55 0 -55 55 0 55 0 0 -55 0 -55 -55 0 -55 0 0 -55 0 -55 55 0 55 0 0 -55
0 -55 -55 0 -55 0 0 -55 0 -55 -55 0 -55 0 0 55 0 55 -60 0 -60 0 0 -55 0 -55
-55 0 -55 0 0 -55 0 -55 -55 0 -55 0 0 -55 0 -55 55 0 55 0 0 -55 0 -55 -55 0
-55 0 0 -60 0 -60 55 0 55 0 0 -55 0 -55 -55 0 -55 0 0 -55 0 -55 55 0 55 0 0
-55 0 -55 55 0 55 0 0 -55 0 -55 60 0 60 0 0 55 0 55 55 0 55 0 0 -55 0 -55
-55 0 -55 0 0 -55 0 -55 55 0 55 0 0 -55 0 -55 55 0 55 0 0 -55 0 -55 55 0 55
0 0 -55 0 -55 55 0 55 0 0 55 0 55 55 0 55 0 0 -55 0 -55 55 0 55 0 0 -60 0
-60 -55 0 -55 0 0 -55 0 -55 55 0 55 0 0 -55 0 -55 55 0 55 0 0 -55 0 -55 -55
0 -55 0 0 -55 0 -55 -55 0 -55 0 0 -55 0 -55 55 0 55 0 0 -55 0 -55 -55 0 -55
0 0 -55 0 -55 55 0 55 0 0 -55 0 -55 55 0 55 0 0 -60 0 -60 55 0 55 0 0 -55 0
-55 60 0 60 0 0 -55 0 -55 -60 0 -60 0 0 55 0 55 -55 0 -55 0 0 55 0 55 -55 0
-55 0 0 60 0 60 -55 0 -55 0 0 55 0 55 -55 0 -55 0 0 -55 0 -55 -55 0 -55 0 0
55 0 55 -55 0 -55 0 0 -55 0 -55 -55 0 -55 0 0 55 0 55 -55 0 -55 0 0 -55 0
-55 -60 0 -60 0 0 55 0 55 -55 0 -55 0 0 55 0 55 -55 0 -55 0 0 55 0 55 -55 0
-55 0 0 55 0 55 -55 0 -55 0 0 55 0 55 -55 0 -55 0 0 -55 0 -55 -55 0 -55 0 0
55 0 55 -55 0 -55 0 0 55 0 55 -55 0 -55 0 0 -55 0 -55 -60 0 -60 0 0 55 0 55
-55 0 -55 0 0 55 0 55 55 0 55 0 0 55 0 55 -55 0 -55 0 0 60 0 60 55 0 55 0 0
55 0 55 60 0 60 0 0 55 0 55 -60 0 -60 0 0 55 0 55 60 0 60 0 0 55 0 55 55 0
55 0 0 55 0 55 -55 0 -55 0 0 55 0 55 -60 0 -60 0 0 55 0 55 60 0 60 0 0 55 0
55 -60 0 -60 0 0 60 0 60 -55 0 -55 0 0 55 0 55 55 0 55 0 0 55 0 55 60 0 60
0 0 55 0 55 -60 0 -60 0 0 55 0 55 60 0 60 0 0 55 0 55 -60 0 -60 0 0 55 0 55
60 0 60 0 0 55 0 55 -60 0 -60 0 0 55 0 55 -55 0 -55 0 0 60 0 60 55 0 55 0 0
55 0 55 -55 0 -55 0 0 55 0 55 55 0 55 0 0 55 0 55 -55 0 -55 0 0 55 0 55 55
0 55 0 0 55 0 55 60 0 60 0 0 55 0 55 -60 0 -60 0 0 55 0 55 -55 0 -55 0 0 55
0 55 -55 0 -55 0 0 60 0 60 55 0 55 0 0 55 0 55 -55 0 -55 0 0 55 0 55 -55 0
-55 0 0 55 0 55 55 0 55 0 0 55 0 55 55 0 55 0 0 55 0 55 55 0 55 0 0 55 0 55
-55 0 -55 0 0 55 0 55 -55 0 -55 0 0 55 0 55 -55 0 -55 0 0 60 0 60 55 0 55 0
0 55 0 55 -55 0 -55 0 0 55 0 55 55 0 55 0 0 55 0 55 55 0 55 0 0 55 0 55 -55
0 -55 0 0 55 0 55 55 0 55 0 0 55 0 55 55 0 55 0 0 55 0 55 -55 0 -55 0 0 60
0 60 55 0 55 0 0 55 0 55 -55 0 -55 0 0 55 0 55 -55 0 -55 0 0 55 0 55 55 0
55 0 0 55 0 55 55 0 55 0 0 55 0 55 60 0 60 0 0 55 0 55 -60 0 -60 0 0 55 0
55 60 0 60 0 0 55 0 55 -60 0 -60 0 0 60 0 60 60 0 60 0 0 55 0 55 55 0 55 0
0 55 0 55 -55 0 -55 0 0 55 0 55 55 0 55 0 0 55 0 55 55 0 55 0 0 55 0 55 55
0 55 0 0 55 0 55 55 0 55 0 0 55 0 55 55 0 55 0 0 55 0 55 55 0 55 0 0 -55 0
-55 55 0 55 0 0 55 0 55 55 0 55 0 0 60 0 60 60 0 60 0 0 -60 0 -60 55 0 55 0
0 60 0 60 55 0 55 0 0 55 0 55 55 0 55 0 0 -55 0 -55 55 0 55 0 0 55 0 55 55
0 55 0 0 55 0 55 55 0 55 0 0 -55z m890 0 l0 -55 -55 0 -55 0 0 55 0 55 55 0
55 0 0 -55z m2220 -670 l0 -55 55 0 55 0 0 -55 0 -55 60 0 60 0 0 -55 0 -55
55 0 55 0 0 -55 0 -55 -55 0 -55 0 0 -55 0 -55 55 0 55 0 0 -60 0 -60 -55 0
-55 0 0 60 0 60 -60 0 -60 0 0 55 0 55 -55 0 -55 0 0 55 0 55 -55 0 -55 0 0
55 0 55 -55 0 -55 0 0 55 0 55 55 0 55 0 0 55 0 55 55 0 55 0 0 -55z m890
-1555 l0 -60 -55 0 -55 0 0 60 0 60 55 0 55 0 0 -60z m0 -225 l0 -55 -55 0
-55 0 0 55 0 55 55 0 55 0 0 -55z m0 -220 l0 -55 55 0 55 0 0 -55 0 -55 55 0
55 0 0 -55 0 -55 -55 0 -55 0 0 -55 0 -55 55 0 55 0 0 -60 0 -60 -55 0 -55 0
0 -55 0 -55 55 0 55 0 0 -55 0 -55 60 0 60 0 0 -55 0 -55 -60 0 -60 0 0 -55 0
-55 60 0 60 0 0 -55 0 -55 -60 0 -60 0 0 -55 0 -55 60 0 60 0 0 -55 0 -55 -60
0 -60 0 0 -55 0 -55 60 0 60 0 0 -60 0 -60 -60 0 -60 0 0 -55 0 -55 60 0 60 0
0 -55 0 -55 -60 0 -60 0 0 -55 0 -55 60 0 60 0 0 -55 0 -55 -60 0 -60 0 0 55
0 55 -55 0 -55 0 0 55 0 55 55 0 55 0 0 55 0 55 -55 0 -55 0 0 55 0 55 55 0
55 0 0 60 0 60 -55 0 -55 0 0 55 0 55 -55 0 -55 0 0 55 0 55 55 0 55 0 0 55 0
55 -55 0 -55 0 0 55 0 55 -55 0 -55 0 0 55 0 55 55 0 55 0 0 55 0 55 -55 0
-55 0 0 55 0 55 55 0 55 0 0 55 0 55 -55 0 -55 0 0 60 0 60 -55 0 -55 0 0 55
0 55 -55 0 -55 0 0 55 0 55 55 0 55 0 0 55 0 55 55 0 55 0 0 55 0 55 55 0 55
0 0 -55z m-110 -2110 l0 -55 -55 0 -55 0 0 -55 0 -55 55 0 55 0 0 -55 0 -55
55 0 55 0 0 -60 0 -60 -55 0 -55 0 0 -55 0 -55 55 0 55 0 0 -55 0 -55 -55 0
-55 0 0 -55 0 -55 -55 0 -55 0 0 -55 0 -55 55 0 55 0 0 -55 0 -55 -55 0 -55 0
0 -55 0 -55 -55 0 -55 0 0 -55 0 -55 55 0 55 0 0 -55 0 -55 -55 0 -55 0 0 -60
0 -60 55 0 55 0 0 -55 0 -55 -55 0 -55 0 0 -55 0 -55 55 0 55 0 0 -55 0 -55
-55 0 -55 0 0 -55 0 -55 -55 0 -55 0 0 -55 0 -55 55 0 55 0 0 -55 0 -55 -55 0
-55 0 0 -55 0 -55 -55 0 -55 0 0 -55 0 -55 55 0 55 0 0 -60 0 -60 -55 0 -55 0
0 -55 0 -55 -55 0 -55 0 0 -55 0 -55 -60 0 -60 0 0 -55 0 -55 -55 0 -55 0 0
-55 0 -55 -55 0 -55 0 0 -55 0 -55 -55 0 -55 0 0 -55 0 -55 -55 0 -55 0 0 -55
0 -55 -55 0 -55 0 0 55 0 55 -55 0 -55 0 0 -55 0 -55 -55 0 -55 0 0 -55 0 -55
-55 0 -55 0 0 55 0 55 -60 0 -60 0 0 55 0 55 -55 0 -55 0 0 55 0 55 55 0 55 0
0 55 0 55 -55 0 -55 0 0 55 0 55 55 0 55 0 0 55 0 55 60 0 60 0 0 -55 0 -55
55 0 55 0 0 55 0 55 55 0 55 0 0 55 0 55 55 0 55 0 0 -55 0 -55 55 0 55 0 0
55 0 55 55 0 55 0 0 55 0 55 -55 0 -55 0 0 60 0 60 55 0 55 0 0 55 0 55 -55 0
-55 0 0 55 0 55 -55 0 -55 0 0 55 0 55 55 0 55 0 0 55 0 55 55 0 55 0 0 55 0
55 55 0 55 0 0 55 0 55 -55 0 -55 0 0 55 0 55 55 0 55 0 0 55 0 55 55 0 55 0
0 60 0 60 55 0 55 0 0 55 0 55 -55 0 -55 0 0 55 0 55 55 0 55 0 0 -55 0 -55
60 0 60 0 0 55 0 55 55 0 55 0 0 55 0 55 55 0 55 0 0 55 0 55 -55 0 -55 0 0
55 0 55 55 0 55 0 0 55 0 55 -55 0 -55 0 0 55 0 55 55 0 55 0 0 55 0 55 55 0
55 0 0 60 0 60 55 0 55 0 0 55 0 55 -55 0 -55 0 0 55 0 55 55 0 55 0 0 55 0
55 55 0 55 0 0 -55z m450 0 l0 -55 -60 0 -60 0 0 55 0 55 60 0 60 0 0 -55z m0
-220 l0 -55 -60 0 -60 0 0 55 0 55 60 0 60 0 0 -55z m0 -230 l0 -55 -60 0 -60
0 0 55 0 55 60 0 60 0 0 -55z m-3670 -1440 l0 -55 -55 0 -55 0 0 55 0 55 55 0
55 0 0 -55z m220 -445 l0 -60 55 0 55 0 0 -55 0 -55 -55 0 -55 0 0 -55 0 -55
55 0 55 0 0 -55 0 -55 55 0 55 0 0 -55 0 -55 55 0 55 0 0 -55 0 -55 -55 0 -55
0 0 55 0 55 -55 0 -55 0 0 55 0 55 -55 0 -55 0 0 -55 0 -55 -55 0 -55 0 0 55
0 55 55 0 55 0 0 55 0 55 -55 0 -55 0 0 55 0 55 55 0 55 0 0 55 0 55 -55 0
-55 0 0 60 0 60 55 0 55 0 0 -60z m1780 0 l0 -60 -55 0 -55 0 0 60 0 60 55 0
55 0 0 -60z m-220 -115 l0 -55 -55 0 -55 0 0 55 0 55 55 0 55 0 0 -55z m-340
-110 l0 -55 -55 0 -55 0 0 55 0 55 55 0 55 0 0 -55z m-550 -220 l0 -55 -55 0
-55 0 0 55 0 55 55 0 55 0 0 -55z m440 0 l0 -55 -55 0 -55 0 0 55 0 55 55 0
55 0 0 -55z m-220 -110 l0 -55 -55 0 -55 0 0 55 0 55 55 0 55 0 0 -55z m220
-110 l0 -55 -55 0 -55 0 0 55 0 55 55 0 55 0 0 -55z"/>
<path d="M6200 12815 l0 -55 -55 0 -55 0 0 -60 0 -60 -55 0 -55 0 0 60 0 60
-55 0 -55 0 0 -60 0 -60 -55 0 -55 0 0 -55 0 -55 -55 0 -55 0 0 55 0 55 -60 0
-60 0 0 -55 0 -55 -55 0 -55 0 0 -55 0 -55 -55 0 -55 0 0 55 0 55 -55 0 -55 0
0 -55 0 -55 -55 0 -55 0 0 -55 0 -55 -55 0 -55 0 0 -55 0 -55 -55 0 -55 0 0
-55 0 -55 -55 0 -55 0 0 -55 0 -55 55 0 55 0 0 -55 0 -55 -55 0 -55 0 0 -55 0
-55 -55 0 -55 0 0 -60 0 -60 55 0 55 0 0 -55 0 -55 -55 0 -55 0 0 -55 0 -55
55 0 55 0 0 -55 0 -55 -55 0 -55 0 0 -55 0 -55 -60 0 -60 0 0 -55 0 -55 -55 0
-55 0 0 -55 0 -55 55 0 55 0 0 -55 0 -55 60 0 60 0 0 -55 0 -55 -60 0 -60 0 0
-60 0 -60 60 0 60 0 0 -55 0 -55 -60 0 -60 0 0 -55 0 -55 -55 0 -55 0 0 -55 0
-55 55 0 55 0 0 -55 0 -55 -55 0 -55 0 0 -55 0 -55 -55 0 -55 0 0 -55 0 -55
55 0 55 0 0 -55 0 -55 -55 0 -55 0 0 -60 0 -60 55 0 55 0 0 -55 0 -55 55 0 55
0 0 -55 0 -55 60 0 60 0 0 -55 0 -55 -60 0 -60 0 0 -55 0 -55 -55 0 -55 0 0
-55 0 -55 -55 0 -55 0 0 -55 0 -55 55 0 55 0 0 -55 0 -55 55 0 55 0 0 -55 0
-55 -55 0 -55 0 0 -60 0 -60 55 0 55 0 0 -55 0 -55 60 0 60 0 0 -55 0 -55 55
0 55 0 0 -55 0 -55 -55 0 -55 0 0 -55 0 -55 -60 0 -60 0 0 -55 0 -55 60 0 60
0 0 -55 0 -55 -60 0 -60 0 0 -55 0 -55 60 0 60 0 0 -55 0 -55 -60 0 -60 0 0
-60 0 -60 60 0 60 0 0 -55 0 -55 55 0 55 0 0 -55 0 -55 -55 0 -55 0 0 -55 0
-55 55 0 55 0 0 -55 0 -55 -55 0 -55 0 0 -55 0 -55 55 0 55 0 0 -55 0 -55 -55
0 -55 0 0 -55 0 -55 -60 0 -60 0 0 -55 0 -55 60 0 60 0 0 -60 0 -60 55 0 55 0
0 -55 0 -55 -55 0 -55 0 0 -55 0 -55 55 0 55 0 0 -55 0 -55 55 0 55 0 0 -55 0
-55 -55 0 -55 0 0 -55 0 -55 -55 0 -55 0 0 -55 0 -55 55 0 55 0 0 -55 0 -55
-55 0 -55 0 0 -55 0 -55 -60 0 -60 0 0 -60 0 -60 60 0 60 0 0 -55 0 -55 -60 0
-60 0 0 -55 0 -55 60 0 60 0 0 55 0 55 55 0 55 0 0 -55 0 -55 55 0 55 0 0 -55
0 -55 55 0 55 0 0 55 0 55 55 0 55 0 0 -55 0 -55 55 0 55 0 0 -55 0 -55 55 0
55 0 0 -55 0 -55 55 0 55 0 0 -55 0 -55 55 0 55 0 0 -55 0 -55 60 0 60 0 0 55
0 55 55 0 55 0 0 -55 0 -55 55 0 55 0 0 55 0 55 55 0 55 0 0 -55 0 -55 55 0
55 0 0 55 0 55 55 0 55 0 0 55 0 55 -55 0 -55 0 0 55 0 55 55 0 55 0 0 55 0
55 55 0 55 0 0 55 0 55 -55 0 -55 0 0 55 0 55 -55 0 -55 0 0 55 0 55 55 0 55
0 0 60 0 60 -55 0 -55 0 0 -60 0 -60 -55 0 -55 0 0 60 0 60 -55 0 -55 0 0 55
0 55 -55 0 -55 0 0 55 0 55 -55 0 -55 0 0 55 0 55 -60 0 -60 0 0 55 0 55 -55
0 -55 0 0 55 0 55 -55 0 -55 0 0 55 0 55 -55 0 -55 0 0 55 0 55 55 0 55 0 0
55 0 55 -55 0 -55 0 0 60 0 60 55 0 55 0 0 55 0 55 -55 0 -55 0 0 55 0 55 55
0 55 0 0 55 0 55 55 0 55 0 0 55 0 55 55 0 55 0 0 55 0 55 60 0 60 0 0 -55 0
-55 55 0 55 0 0 55 0 55 -55 0 -55 0 0 55 0 55 55 0 55 0 0 55 0 55 -55 0 -55
0 0 55 0 55 55 0 55 0 0 60 0 60 55 0 55 0 0 55 0 55 -55 0 -55 0 0 55 0 55
-55 0 -55 0 0 55 0 55 -60 0 -60 0 0 55 0 55 60 0 60 0 0 55 0 55 -60 0 -60 0
0 55 0 55 60 0 60 0 0 55 0 55 55 0 55 0 0 55 0 55 55 0 55 0 0 60 0 60 -55 0
-55 0 0 55 0 55 55 0 55 0 0 55 0 55 -55 0 -55 0 0 -55 0 -55 -55 0 -55 0 0
55 0 55 -60 0 -60 0 0 55 0 55 -55 0 -55 0 0 55 0 55 -55 0 -55 0 0 55 0 55
-55 0 -55 0 0 55 0 55 55 0 55 0 0 55 0 55 -55 0 -55 0 0 55 0 55 55 0 55 0 0
60 0 60 55 0 55 0 0 55 0 55 -55 0 -55 0 0 -55 0 -55 -55 0 -55 0 0 55 0 55
-55 0 -55 0 0 -55 0 -55 -55 0 -55 0 0 55 0 55 -55 0 -55 0 0 55 0 55 55 0 55
0 0 55 0 55 -55 0 -55 0 0 55 0 55 55 0 55 0 0 55 0 55 -55 0 -55 0 0 55 0 55
55 0 55 0 0 55 0 55 55 0 55 0 0 -55 0 -55 55 0 55 0 0 55 0 55 55 0 55 0 0
60 0 60 -55 0 -55 0 0 55 0 55 55 0 55 0 0 55 0 55 55 0 55 0 0 55 0 55 -55 0
-55 0 0 55 0 55 55 0 55 0 0 55 0 55 -55 0 -55 0 0 55 0 55 55 0 55 0 0 55 0
55 55 0 55 0 0 55 0 55 60 0 60 0 0 60 0 60 55 0 55 0 0 55 0 55 -55 0 -55 0
0 55 0 55 55 0 55 0 0 55 0 55 55 0 55 0 0 55 0 55 55 0 55 0 0 55 0 55 -55 0
-55 0 0 55 0 55 55 0 55 0 0 55 0 55 55 0 55 0 0 55 0 55 55 0 55 0 0 60 0 60
55 0 55 0 0 55 0 55 -55 0 -55 0 0 -55z m-220 -230 l0 -55 -55 0 -55 0 0 -55
0 -55 -55 0 -55 0 0 -55 0 -55 55 0 55 0 0 -55 0 -55 -55 0 -55 0 0 -55 0 -55
-55 0 -55 0 0 -55 0 -55 -60 0 -60 0 0 -55 0 -55 60 0 60 0 0 -55 0 -55 -60 0
-60 0 0 -60 0 -60 -55 0 -55 0 0 -55 0 -55 -55 0 -55 0 0 -55 0 -55 -55 0 -55
0 0 -55 0 -55 55 0 55 0 0 -55 0 -55 -55 0 -55 0 0 -55 0 -55 55 0 55 0 0 -55
0 -55 -55 0 -55 0 0 -55 0 -55 -55 0 -55 0 0 -55 0 -55 55 0 55 0 0 -60 0 -60
-55 0 -55 0 0 60 0 60 -55 0 -55 0 0 -60 0 -60 -55 0 -55 0 0 -55 0 -55 -55 0
-55 0 0 -55 0 -55 55 0 55 0 0 -55 0 -55 -55 0 -55 0 0 -55 0 -55 55 0 55 0 0
-55 0 -55 -55 0 -55 0 0 -55 0 -55 55 0 55 0 0 -55 0 -55 55 0 55 0 0 -60 0
-60 55 0 55 0 0 60 0 60 55 0 55 0 0 -60 0 -60 -55 0 -55 0 0 -55 0 -55 55 0
55 0 0 -55 0 -55 -55 0 -55 0 0 -55 0 -55 55 0 55 0 0 -55 0 -55 55 0 55 0 0
-55 0 -55 55 0 55 0 0 -55 0 -55 55 0 55 0 0 -55 0 -55 60 0 60 0 0 -55 0 -55
55 0 55 0 0 -60 0 -60 -55 0 -55 0 0 -55 0 -55 -60 0 -60 0 0 -55 0 -55 -55 0
-55 0 0 -55 0 -55 55 0 55 0 0 -55 0 -55 -55 0 -55 0 0 -55 0 -55 55 0 55 0 0
-55 0 -55 60 0 60 0 0 -55 0 -55 55 0 55 0 0 -55 0 -55 -55 0 -55 0 0 -60 0
-60 -60 0 -60 0 0 -55 0 -55 60 0 60 0 0 -55 0 -55 -60 0 -60 0 0 -55 0 -55
-55 0 -55 0 0 -55 0 -55 -55 0 -55 0 0 -55 0 -55 -55 0 -55 0 0 -55 0 -55 -55
0 -55 0 0 -55 0 -55 55 0 55 0 0 -55 0 -55 -55 0 -55 0 0 -60 0 -60 55 0 55 0
0 -55 0 -55 -55 0 -55 0 0 -55 0 -55 55 0 55 0 0 -55 0 -55 55 0 55 0 0 -55 0
-55 55 0 55 0 0 -55 0 -55 55 0 55 0 0 -55 0 -55 60 0 60 0 0 -55 0 -55 55 0
55 0 0 -55 0 -55 55 0 55 0 0 -60 0 -60 55 0 55 0 0 -55 0 -55 55 0 55 0 0
-55 0 -55 55 0 55 0 0 -55 0 -55 -55 0 -55 0 0 -55 0 -55 -55 0 -55 0 0 -55 0
-55 55 0 55 0 0 -55 0 -55 -55 0 -55 0 0 55 0 55 -55 0 -55 0 0 -55 0 -55 -55
0 -55 0 0 55 0 55 -55 0 -55 0 0 -55 0 -55 -60 0 -60 0 0 55 0 55 -55 0 -55 0
0 55 0 55 -55 0 -55 0 0 55 0 55 -55 0 -55 0 0 55 0 55 -55 0 -55 0 0 55 0 55
-55 0 -55 0 0 -55 0 -55 -55 0 -55 0 0 55 0 55 -55 0 -55 0 0 55 0 55 -55 0
-55 0 0 60 0 60 55 0 55 0 0 55 0 55 55 0 55 0 0 55 0 55 -55 0 -55 0 0 55 0
55 55 0 55 0 0 55 0 55 55 0 55 0 0 55 0 55 -55 0 -55 0 0 55 0 55 -55 0 -55
0 0 55 0 55 55 0 55 0 0 55 0 55 -55 0 -55 0 0 60 0 60 -55 0 -55 0 0 55 0 55
55 0 55 0 0 55 0 55 55 0 55 0 0 55 0 55 -55 0 -55 0 0 55 0 55 55 0 55 0 0
55 0 55 -55 0 -55 0 0 55 0 55 55 0 55 0 0 55 0 55 -55 0 -55 0 0 55 0 55 -55
0 -55 0 0 60 0 60 55 0 55 0 0 55 0 55 -55 0 -55 0 0 55 0 55 55 0 55 0 0 55
0 55 -55 0 -55 0 0 55 0 55 55 0 55 0 0 55 0 55 55 0 55 0 0 55 0 55 -55 0
-55 0 0 55 0 55 -55 0 -55 0 0 55 0 55 -60 0 -60 0 0 60 0 60 60 0 60 0 0 55
0 55 -60 0 -60 0 0 55 0 55 -55 0 -55 0 0 55 0 55 55 0 55 0 0 55 0 55 60 0
60 0 0 55 0 55 55 0 55 0 0 55 0 55 -55 0 -55 0 0 55 0 55 -60 0 -60 0 0 55 0
55 -55 0 -55 0 0 60 0 60 55 0 55 0 0 55 0 55 -55 0 -55 0 0 55 0 55 55 0 55
0 0 55 0 55 60 0 60 0 0 55 0 55 -60 0 -60 0 0 55 0 55 60 0 60 0 0 55 0 55
55 0 55 0 0 55 0 55 -55 0 -55 0 0 60 0 60 55 0 55 0 0 55 0 55 -55 0 -55 0 0
55 0 55 -60 0 -60 0 0 55 0 55 60 0 60 0 0 55 0 55 55 0 55 0 0 55 0 55 55 0
55 0 0 55 0 55 -55 0 -55 0 0 55 0 55 55 0 55 0 0 55 0 55 -55 0 -55 0 0 60 0
60 55 0 55 0 0 55 0 55 55 0 55 0 0 55 0 55 -55 0 -55 0 0 55 0 55 55 0 55 0
0 55 0 55 55 0 55 0 0 55 0 55 55 0 55 0 0 55 0 55 55 0 55 0 0 -55 0 -55 55
0 55 0 0 55 0 55 55 0 55 0 0 55 0 55 60 0 60 0 0 -55 0 -55 55 0 55 0 0 55 0
55 55 0 55 0 0 55 0 55 55 0 55 0 0 -55z"/>
<path d="M5530 12365 l0 -55 -55 0 -55 0 0 -55 0 -55 -55 0 -55 0 0 55 0 55
-55 0 -55 0 0 -55 0 -55 -55 0 -55 0 0 -55 0 -55 -55 0 -55 0 0 -55 0 -55 55
0 55 0 0 -55 0 -55 -55 0 -55 0 0 -55 0 -55 -55 0 -55 0 0 -60 0 -60 55 0 55
0 0 -55 0 -55 -55 0 -55 0 0 -55 0 -55 55 0 55 0 0 -55 0 -55 -55 0 -55 0 0
-55 0 -55 -55 0 -55 0 0 -55 0 -55 -55 0 -55 0 0 -55 0 -55 55 0 55 0 0 -55 0
-55 55 0 55 0 0 -55 0 -55 -55 0 -55 0 0 -60 0 -60 55 0 55 0 0 60 0 60 55 0
55 0 0 55 0 55 55 0 55 0 0 55 0 55 55 0 55 0 0 55 0 55 -55 0 -55 0 0 55 0
55 55 0 55 0 0 55 0 55 -55 0 -55 0 0 55 0 55 55 0 55 0 0 55 0 55 55 0 55 0
0 55 0 55 55 0 55 0 0 60 0 60 55 0 55 0 0 55 0 55 -55 0 -55 0 0 55 0 55 55
0 55 0 0 55 0 55 60 0 60 0 0 55 0 55 55 0 55 0 0 55 0 55 -55 0 -55 0 0 55 0
55 -60 0 -60 0 0 -55z m120 -110 l0 -55 -60 0 -60 0 0 -55 0 -55 -55 0 -55 0
0 -55 0 -55 -55 0 -55 0 0 -55 0 -55 55 0 55 0 0 -55 0 -55 -55 0 -55 0 0 -60
0 -60 -55 0 -55 0 0 -55 0 -55 -55 0 -55 0 0 -55 0 -55 -55 0 -55 0 0 55 0 55
55 0 55 0 0 55 0 55 -55 0 -55 0 0 60 0 60 55 0 55 0 0 55 0 55 55 0 55 0 0
55 0 55 -55 0 -55 0 0 55 0 55 55 0 55 0 0 55 0 55 55 0 55 0 0 -55 0 -55 55
0 55 0 0 55 0 55 55 0 55 0 0 55 0 55 60 0 60 0 0 -55z m-560 -1000 l0 -55
-55 0 -55 0 0 -55 0 -55 55 0 55 0 0 -55 0 -55 -55 0 -55 0 0 -55 0 -55 -55 0
-55 0 0 55 0 55 -55 0 -55 0 0 55 0 55 55 0 55 0 0 55 0 55 55 0 55 0 0 55 0
55 55 0 55 0 0 -55z"/>
<path d="M5200 12035 l0 -55 55 0 55 0 0 55 0 55 -55 0 -55 0 0 -55z"/>
<path d="M5200 11815 l0 -55 -55 0 -55 0 0 -60 0 -60 55 0 55 0 0 60 0 60 55
0 55 0 0 55 0 55 -55 0 -55 0 0 -55z"/>
<path d="M4870 11035 l0 -55 55 0 55 0 0 55 0 55 -55 0 -55 0 0 -55z"/>
<path d="M4650 10365 l0 -55 55 0 55 0 0 55 0 55 -55 0 -55 0 0 -55z"/>
<path d="M4650 10145 l0 -55 -60 0 -60 0 0 -55 0 -55 60 0 60 0 0 -55 0 -55
-60 0 -60 0 0 -60 0 -60 60 0 60 0 0 -55 0 -55 55 0 55 0 0 -55 0 -55 55 0 55
0 0 -55 0 -55 -55 0 -55 0 0 -55 0 -55 -55 0 -55 0 0 -55 0 -55 -60 0 -60 0 0
-55 0 -55 60 0 60 0 0 -55 0 -55 55 0 55 0 0 -55 0 -55 -55 0 -55 0 0 -60 0
-60 55 0 55 0 0 -55 0 -55 55 0 55 0 0 -55 0 -55 55 0 55 0 0 -55 0 -55 -55 0
-55 0 0 -55 0 -55 -55 0 -55 0 0 -55 0 -55 55 0 55 0 0 -55 0 -55 -55 0 -55 0
0 -55 0 -55 55 0 55 0 0 -55 0 -55 -55 0 -55 0 0 -60 0 -60 55 0 55 0 0 -55 0
-55 55 0 55 0 0 -55 0 -55 -55 0 -55 0 0 -55 0 -55 55 0 55 0 0 -55 0 -55 -55
0 -55 0 0 -55 0 -55 55 0 55 0 0 -55 0 -55 -55 0 -55 0 0 -55 0 -55 -55 0 -55
0 0 -55 0 -55 55 0 55 0 0 -60 0 -60 55 0 55 0 0 -55 0 -55 -55 0 -55 0 0 -55
0 -55 55 0 55 0 0 -55 0 -55 55 0 55 0 0 -55 0 -55 -55 0 -55 0 0 -55 0 -55
-55 0 -55 0 0 -55 0 -55 55 0 55 0 0 -55 0 -55 -55 0 -55 0 0 -55 0 -55 -55 0
-55 0 0 -60 0 -60 55 0 55 0 0 -55 0 -55 55 0 55 0 0 55 0 55 55 0 55 0 0 -55
0 -55 55 0 55 0 0 -55 0 -55 55 0 55 0 0 -55 0 -55 55 0 55 0 0 -55 0 -55 55
0 55 0 0 -55 0 -55 60 0 60 0 0 55 0 55 55 0 55 0 0 -55 0 -55 55 0 55 0 0 55
0 55 55 0 55 0 0 55 0 55 55 0 55 0 0 55 0 55 -55 0 -55 0 0 55 0 55 -55 0
-55 0 0 55 0 55 -55 0 -55 0 0 60 0 60 -55 0 -55 0 0 55 0 55 -60 0 -60 0 0
55 0 55 -55 0 -55 0 0 55 0 55 -55 0 -55 0 0 55 0 55 -55 0 -55 0 0 55 0 55
-55 0 -55 0 0 55 0 55 -55 0 -55 0 0 55 0 55 55 0 55 0 0 55 0 55 -55 0 -55 0
0 60 0 60 55 0 55 0 0 55 0 55 -55 0 -55 0 0 55 0 55 55 0 55 0 0 55 0 55 55
0 55 0 0 55 0 55 55 0 55 0 0 55 0 55 55 0 55 0 0 55 0 55 55 0 55 0 0 55 0
55 -55 0 -55 0 0 55 0 55 55 0 55 0 0 60 0 60 60 0 60 0 0 55 0 55 -60 0 -60
0 0 55 0 55 -55 0 -55 0 0 55 0 55 -55 0 -55 0 0 55 0 55 55 0 55 0 0 55 0 55
-55 0 -55 0 0 55 0 55 55 0 55 0 0 55 0 55 55 0 55 0 0 55 0 55 60 0 60 0 0
60 0 60 -60 0 -60 0 0 55 0 55 -55 0 -55 0 0 55 0 55 -55 0 -55 0 0 55 0 55
-55 0 -55 0 0 55 0 55 -55 0 -55 0 0 55 0 55 -55 0 -55 0 0 55 0 55 55 0 55 0
0 55 0 55 -55 0 -55 0 0 55 0 55 -55 0 -55 0 0 60 0 60 -55 0 -55 0 0 55 0 55
-55 0 -55 0 0 55 0 55 55 0 55 0 0 55 0 55 -55 0 -55 0 0 -55z m110 -335 l0
-60 55 0 55 0 0 -55 0 -55 55 0 55 0 0 -55 0 -55 -55 0 -55 0 0 55 0 55 -55 0
-55 0 0 55 0 55 -55 0 -55 0 0 60 0 60 55 0 55 0 0 -60z m220 -445 l0 -55 55
0 55 0 0 -55 0 -55 55 0 55 0 0 -55 0 -55 55 0 55 0 0 -55 0 -55 55 0 55 0 0
-55 0 -55 55 0 55 0 0 -60 0 -60 -55 0 -55 0 0 -55 0 -55 -55 0 -55 0 0 -55 0
-55 -55 0 -55 0 0 -55 0 -55 55 0 55 0 0 -55 0 -55 -55 0 -55 0 0 -55 0 -55
55 0 55 0 0 -55 0 -55 55 0 55 0 0 -55 0 -55 55 0 55 0 0 -55 0 -55 -55 0 -55
0 0 -60 0 -60 -55 0 -55 0 0 -55 0 -55 55 0 55 0 0 -55 0 -55 -55 0 -55 0 0
-55 0 -55 -55 0 -55 0 0 -55 0 -55 -55 0 -55 0 0 -55 0 -55 -55 0 -55 0 0 55
0 55 55 0 55 0 0 55 0 55 -55 0 -55 0 0 55 0 55 55 0 55 0 0 55 0 55 -55 0
-55 0 0 55 0 55 -55 0 -55 0 0 60 0 60 55 0 55 0 0 55 0 55 -55 0 -55 0 0 55
0 55 55 0 55 0 0 55 0 55 -55 0 -55 0 0 55 0 55 55 0 55 0 0 55 0 55 55 0 55
0 0 55 0 55 -55 0 -55 0 0 55 0 55 -55 0 -55 0 0 55 0 55 -55 0 -55 0 0 60 0
60 55 0 55 0 0 55 0 55 -55 0 -55 0 0 55 0 55 -55 0 -55 0 0 55 0 55 55 0 55
0 0 55 0 55 55 0 55 0 0 55 0 55 55 0 55 0 0 -55z m0 -2440 l0 -55 -55 0 -55
0 0 55 0 55 55 0 55 0 0 -55z m220 -670 l0 -55 55 0 55 0 0 -55 0 -55 55 0 55
0 0 -55 0 -55 55 0 55 0 0 -55 0 -55 60 0 60 0 0 -60 0 -60 55 0 55 0 0 -55 0
-55 55 0 55 0 0 -55 0 -55 55 0 55 0 0 -55 0 -55 -55 0 -55 0 0 -55 0 -55 -55
0 -55 0 0 55 0 55 -55 0 -55 0 0 -55 0 -55 -60 0 -60 0 0 55 0 55 -55 0 -55 0
0 55 0 55 -55 0 -55 0 0 55 0 55 -55 0 -55 0 0 55 0 55 -55 0 -55 0 0 60 0 60
-55 0 -55 0 0 -60 0 -60 -55 0 -55 0 0 60 0 60 55 0 55 0 0 55 0 55 55 0 55 0
0 55 0 55 -55 0 -55 0 0 55 0 55 55 0 55 0 0 55 0 55 55 0 55 0 0 -55z"/>
<path d="M4870 9255 l0 -55 -55 0 -55 0 0 -55 0 -55 55 0 55 0 0 -55 0 -55 55
0 55 0 0 -55 0 -55 -55 0 -55 0 0 -60 0 -60 55 0 55 0 0 -55 0 -55 55 0 55 0
0 -55 0 -55 55 0 55 0 0 55 0 55 55 0 55 0 0 55 0 55 55 0 55 0 0 60 0 60 -55
0 -55 0 0 55 0 55 -55 0 -55 0 0 55 0 55 -55 0 -55 0 0 55 0 55 -55 0 -55 0 0
55 0 55 -55 0 -55 0 0 -55z m110 -110 l0 -55 55 0 55 0 0 -55 0 -55 55 0 55 0
0 -55 0 -55 55 0 55 0 0 -60 0 -60 -55 0 -55 0 0 -55 0 -55 -55 0 -55 0 0 55
0 55 -55 0 -55 0 0 60 0 60 55 0 55 0 0 55 0 55 -55 0 -55 0 0 55 0 55 -55 0
-55 0 0 55 0 55 55 0 55 0 0 -55z"/>
<path d="M5090 8810 l0 -60 55 0 55 0 0 60 0 60 -55 0 -55 0 0 -60z"/>
<path d="M5090 8365 l0 -55 -55 0 -55 0 0 -55 0 -55 55 0 55 0 0 -55 0 -55
-55 0 -55 0 0 -55 0 -55 55 0 55 0 0 -55 0 -55 -55 0 -55 0 0 -60 0 -60 55 0
55 0 0 -55 0 -55 55 0 55 0 0 -55 0 -55 -55 0 -55 0 0 -55 0 -55 55 0 55 0 0
55 0 55 55 0 55 0 0 55 0 55 -55 0 -55 0 0 55 0 55 55 0 55 0 0 60 0 60 55 0
55 0 0 55 0 55 -55 0 -55 0 0 55 0 55 -55 0 -55 0 0 55 0 55 -55 0 -55 0 0 55
0 55 55 0 55 0 0 55 0 55 -55 0 -55 0 0 -55z m110 -330 l0 -55 55 0 55 0 0
-55 0 -55 -55 0 -55 0 0 -60 0 -60 -55 0 -55 0 0 60 0 60 55 0 55 0 0 55 0 55
-55 0 -55 0 0 55 0 55 55 0 55 0 0 -55z"/>
<path d="M5090 6145 l0 -55 55 0 55 0 0 -55 0 -55 -55 0 -55 0 0 -55 0 -55 55
0 55 0 0 -60 0 -60 55 0 55 0 0 -55 0 -55 55 0 55 0 0 -55 0 -55 55 0 55 0 0
-55 0 -55 60 0 60 0 0 55 0 55 55 0 55 0 0 -55 0 -55 55 0 55 0 0 55 0 55 -55
0 -55 0 0 55 0 55 -55 0 -55 0 0 55 0 55 -60 0 -60 0 0 60 0 60 -55 0 -55 0 0
55 0 55 -55 0 -55 0 0 55 0 55 -55 0 -55 0 0 55 0 55 -55 0 -55 0 0 -55z m220
-220 l0 -55 55 0 55 0 0 -60 0 -60 55 0 55 0 0 -55 0 -55 60 0 60 0 0 -55 0
-55 -60 0 -60 0 0 55 0 55 -55 0 -55 0 0 55 0 55 -55 0 -55 0 0 60 0 60 -55 0
-55 0 0 55 0 55 55 0 55 0 0 -55z"/>
<path d="M6420 12815 l0 -55 55 0 55 0 0 55 0 55 -55 0 -55 0 0 -55z"/>
<path d="M5420 10255 l0 -55 55 0 55 0 0 55 0 55 -55 0 -55 0 0 -55z"/>
<path d="M9310 12145 l0 -55 55 0 55 0 0 -55 0 -55 55 0 55 0 0 -55 0 -55 60
0 60 0 0 55 0 55 -60 0 -60 0 0 55 0 55 -55 0 -55 0 0 55 0 55 -55 0 -55 0 0
-55z"/>
<path d="M10200 10145 l0 -55 -55 0 -55 0 0 -55 0 -55 55 0 55 0 0 -55 0 -55
55 0 55 0 0 -60 0 -60 55 0 55 0 0 60 0 60 -55 0 -55 0 0 55 0 55 55 0 55 0 0
55 0 55 -55 0 -55 0 0 55 0 55 -55 0 -55 0 0 -55z m110 -110 l0 -55 -55 0 -55
0 0 55 0 55 55 0 55 0 0 -55z"/>
<path d="M10310 9585 l0 -55 55 0 55 0 0 -55 0 -55 -55 0 -55 0 0 -55 0 -55
55 0 55 0 0 -55 0 -55 55 0 55 0 0 55 0 55 -55 0 -55 0 0 55 0 55 55 0 55 0 0
55 0 55 -55 0 -55 0 0 55 0 55 -55 0 -55 0 0 -55z"/>
<path d="M10420 9035 l0 -55 55 0 55 0 0 55 0 55 -55 0 -55 0 0 -55z"/>
<path d="M10090 7810 l0 -60 -55 0 -55 0 0 -55 0 -55 -55 0 -55 0 0 -55 0 -55
55 0 55 0 0 -55 0 -55 -55 0 -55 0 0 -55 0 -55 55 0 55 0 0 -55 0 -55 -55 0
-55 0 0 -55 0 -55 -55 0 -55 0 0 -55 0 -55 -55 0 -55 0 0 -55 0 -55 -60 0 -60
0 0 -60 0 -60 -55 0 -55 0 0 -55 0 -55 -55 0 -55 0 0 -55 0 -55 55 0 55 0 0
-55 0 -55 -55 0 -55 0 0 -55 0 -55 -55 0 -55 0 0 -55 0 -55 -55 0 -55 0 0 -55
0 -55 55 0 55 0 0 -55 0 -55 55 0 55 0 0 -55 0 -55 -55 0 -55 0 0 -60 0 -60
55 0 55 0 0 -55 0 -55 -55 0 -55 0 0 -55 0 -55 -55 0 -55 0 0 -55 0 -55 -55 0
-55 0 0 55 0 55 -55 0 -55 0 0 -55 0 -55 -55 0 -55 0 0 -55 0 -55 -55 0 -55 0
0 55 0 55 -60 0 -60 0 0 -55 0 -55 60 0 60 0 0 -55 0 -55 -60 0 -60 0 0 -55 0
-55 60 0 60 0 0 -55 0 -55 55 0 55 0 0 55 0 55 55 0 55 0 0 55 0 55 55 0 55 0
0 -55 0 -55 55 0 55 0 0 55 0 55 55 0 55 0 0 55 0 55 55 0 55 0 0 55 0 55 55
0 55 0 0 55 0 55 55 0 55 0 0 55 0 55 60 0 60 0 0 55 0 55 55 0 55 0 0 60 0
60 -55 0 -55 0 0 55 0 55 55 0 55 0 0 55 0 55 55 0 55 0 0 55 0 55 -55 0 -55
0 0 55 0 55 55 0 55 0 0 55 0 55 55 0 55 0 0 55 0 55 -55 0 -55 0 0 55 0 55
55 0 55 0 0 55 0 55 -55 0 -55 0 0 60 0 60 55 0 55 0 0 55 0 55 -55 0 -55 0 0
55 0 55 55 0 55 0 0 55 0 55 55 0 55 0 0 55 0 55 -55 0 -55 0 0 55 0 55 55 0
55 0 0 55 0 55 55 0 55 0 0 55 0 55 -55 0 -55 0 0 55 0 55 55 0 55 0 0 60 0
60 -55 0 -55 0 0 -60z m0 -225 l0 -55 -55 0 -55 0 0 55 0 55 55 0 55 0 0 -55z
m-220 -660 l0 -55 -55 0 -55 0 0 -60 0 -60 55 0 55 0 0 -55 0 -55 -55 0 -55 0
0 -55 0 -55 55 0 55 0 0 -55 0 -55 -55 0 -55 0 0 -55 0 -55 -55 0 -55 0 0 -55
0 -55 55 0 55 0 0 -55 0 -55 -55 0 -55 0 0 -55 0 -55 -60 0 -60 0 0 -55 0 -55
60 0 60 0 0 -60 0 -60 -60 0 -60 0 0 -55 0 -55 -55 0 -55 0 0 -55 0 -55 -55 0
-55 0 0 -55 0 -55 -55 0 -55 0 0 -55 0 -55 -55 0 -55 0 0 -55 0 -55 -55 0 -55
0 0 55 0 55 -55 0 -55 0 0 -55 0 -55 -55 0 -55 0 0 -55 0 -55 -55 0 -55 0 0
55 0 55 55 0 55 0 0 55 0 55 55 0 55 0 0 55 0 55 55 0 55 0 0 -55 0 -55 55 0
55 0 0 55 0 55 55 0 55 0 0 55 0 55 55 0 55 0 0 55 0 55 55 0 55 0 0 55 0 55
-55 0 -55 0 0 60 0 60 55 0 55 0 0 55 0 55 -55 0 -55 0 0 55 0 55 -55 0 -55 0
0 55 0 55 55 0 55 0 0 55 0 55 55 0 55 0 0 55 0 55 55 0 55 0 0 55 0 55 -55 0
-55 0 0 55 0 55 55 0 55 0 0 55 0 55 60 0 60 0 0 60 0 60 55 0 55 0 0 55 0 55
55 0 55 0 0 -55z"/>
<path d="M9650 6695 l0 -55 -60 0 -60 0 0 -55 0 -55 60 0 60 0 0 -55 0 -55
-60 0 -60 0 0 -55 0 -55 -55 0 -55 0 0 -55 0 -55 -55 0 -55 0 0 -55 0 -55 55
0 55 0 0 -55 0 -55 55 0 55 0 0 55 0 55 60 0 60 0 0 55 0 55 -60 0 -60 0 0 55
0 55 60 0 60 0 0 55 0 55 55 0 55 0 0 55 0 55 -55 0 -55 0 0 55 0 55 55 0 55
0 0 55 0 55 -55 0 -55 0 0 -55z m-120 -550 l0 -55 -55 0 -55 0 0 55 0 55 55 0
55 0 0 -55z"/>
<path d="M9420 5810 l0 -60 55 0 55 0 0 60 0 60 -55 0 -55 0 0 -60z"/>
<path d="M7420 12925 l0 -55 55 0 55 0 0 55 0 55 -55 0 -55 0 0 -55z"/>
<path d="M7650 12925 l0 -55 55 0 55 0 0 -55 0 -55 55 0 55 0 0 -60 0 -60 55
0 55 0 0 60 0 60 55 0 55 0 0 -60 0 -60 55 0 55 0 0 60 0 60 55 0 55 0 0 -60
0 -60 55 0 55 0 0 60 0 60 55 0 55 0 0 -60 0 -60 60 0 60 0 0 -55 0 -55 55 0
55 0 0 55 0 55 -55 0 -55 0 0 60 0 60 -60 0 -60 0 0 55 0 55 -55 0 -55 0 0
-55 0 -55 -55 0 -55 0 0 55 0 55 -55 0 -55 0 0 -55 0 -55 -55 0 -55 0 0 55 0
55 -55 0 -55 0 0 55 0 55 -55 0 -55 0 0 -55 0 -55 -55 0 -55 0 0 55 0 55 -55
0 -55 0 0 -55z m330 -110 l0 -55 -55 0 -55 0 0 55 0 55 55 0 55 0 0 -55z"/>
<path d="M10530 5585 l0 -55 60 0 60 0 0 -55 0 -55 -60 0 -60 0 0 -55 0 -55
-55 0 -55 0 0 -55 0 -55 -55 0 -55 0 0 55 0 55 -55 0 -55 0 0 -55 0 -55 55 0
55 0 0 -55 0 -55 -55 0 -55 0 0 -55 0 -55 55 0 55 0 0 -55 0 -55 55 0 55 0 0
55 0 55 55 0 55 0 0 -55 0 -55 60 0 60 0 0 -60 0 -60 55 0 55 0 0 60 0 60 55
0 55 0 0 -60 0 -60 55 0 55 0 0 60 0 60 -55 0 -55 0 0 55 0 55 -55 0 -55 0 0
55 0 55 55 0 55 0 0 55 0 55 -55 0 -55 0 0 55 0 55 -55 0 -55 0 0 55 0 55 55
0 55 0 0 55 0 55 -55 0 -55 0 0 55 0 55 -60 0 -60 0 0 -55z m120 -330 l0 -55
55 0 55 0 0 -55 0 -55 -55 0 -55 0 0 -55 0 -55 55 0 55 0 0 -55 0 -55 -55 0
-55 0 0 55 0 55 -60 0 -60 0 0 55 0 55 -55 0 -55 0 0 -55 0 -55 -55 0 -55 0 0
55 0 55 55 0 55 0 0 55 0 55 55 0 55 0 0 55 0 55 60 0 60 0 0 -55z"/>
<path d="M10530 5145 l0 -55 60 0 60 0 0 55 0 55 -60 0 -60 0 0 -55z"/>
<path d="M6760 5365 l0 -55 55 0 55 0 0 55 0 55 -55 0 -55 0 0 -55z"/>
<path d="M3760 5035 l0 -55 55 0 55 0 0 -55 0 -55 -55 0 -55 0 0 -60 0 -60
-55 0 -55 0 0 -55 0 -55 -60 0 -60 0 0 -55 0 -55 -55 0 -55 0 0 -55 0 -55 -55
0 -55 0 0 -55 0 -55 55 0 55 0 0 -55 0 -55 -55 0 -55 0 0 -55 0 -55 -55 0 -55
0 0 -55 0 -55 -55 0 -55 0 0 55 0 55 -55 0 -55 0 0 -55 0 -55 -55 0 -55 0 0
-55 0 -55 55 0 55 0 0 -60 0 -60 55 0 55 0 0 60 0 60 55 0 55 0 0 -60 0 -60
55 0 55 0 0 -55 0 -55 55 0 55 0 0 -55 0 -55 55 0 55 0 0 55 0 55 60 0 60 0 0
-55 0 -55 55 0 55 0 0 -55 0 -55 55 0 55 0 0 -55 0 -55 55 0 55 0 0 -55 0 -55
55 0 55 0 0 -55 0 -55 55 0 55 0 0 -55 0 -55 55 0 55 0 0 -55 0 -55 55 0 55 0
0 -60 0 -60 55 0 55 0 0 -55 0 -55 60 0 60 0 0 -55 0 -55 55 0 55 0 0 -55 0
-55 55 0 55 0 0 -55 0 -55 55 0 55 0 0 -55 0 -55 55 0 55 0 0 55 0 55 55 0 55
0 0 -55 0 -55 55 0 55 0 0 -55 0 -55 55 0 55 0 0 55 0 55 55 0 55 0 0 -55 0
-55 60 0 60 0 0 -55 0 -55 55 0 55 0 0 55 0 55 55 0 55 0 0 -55 0 -55 55 0 55
0 0 -55 0 -55 55 0 55 0 0 55 0 55 55 0 55 0 0 -55 0 -55 55 0 55 0 0 -60 0
-60 55 0 55 0 0 60 0 60 55 0 55 0 0 -60 0 -60 60 0 60 0 0 -55 0 -55 55 0 55
0 0 55 0 55 55 0 55 0 0 -55 0 -55 55 0 55 0 0 -55 0 -55 55 0 55 0 0 55 0 55
55 0 55 0 0 -55 0 -55 55 0 55 0 0 55 0 55 55 0 55 0 0 -55 0 -55 55 0 55 0 0
-55 0 -55 60 0 60 0 0 55 0 55 55 0 55 0 0 -55 0 -55 55 0 55 0 0 -55 0 -55
55 0 55 0 0 55 0 55 55 0 55 0 0 -55 0 -55 55 0 55 0 0 55 0 55 55 0 55 0 0
-55 0 -55 55 0 55 0 0 55 0 55 55 0 55 0 0 55 0 55 60 0 60 0 0 -55 0 -55 55
0 55 0 0 55 0 55 55 0 55 0 0 -55 0 -55 55 0 55 0 0 55 0 55 55 0 55 0 0 55 0
55 55 0 55 0 0 -55 0 -55 55 0 55 0 0 55 0 55 55 0 55 0 0 -55 0 -55 55 0 55
0 0 55 0 55 60 0 60 0 0 55 0 55 55 0 55 0 0 60 0 60 55 0 55 0 0 -60 0 -60
55 0 55 0 0 60 0 60 55 0 55 0 0 55 0 55 55 0 55 0 0 55 0 55 55 0 55 0 0 -55
0 -55 55 0 55 0 0 55 0 55 55 0 55 0 0 55 0 55 60 0 60 0 0 55 0 55 55 0 55 0
0 55 0 55 55 0 55 0 0 55 0 55 55 0 55 0 0 55 0 55 55 0 55 0 0 55 0 55 55 0
55 0 0 -55 0 -55 55 0 55 0 0 55 0 55 55 0 55 0 0 60 0 60 -55 0 -55 0 0 55 0
55 55 0 55 0 0 55 0 55 60 0 60 0 0 -55 0 -55 55 0 55 0 0 55 0 55 -55 0 -55
0 0 55 0 55 -60 0 -60 0 0 55 0 55 -55 0 -55 0 0 55 0 55 -55 0 -55 0 0 55 0
55 55 0 55 0 0 55 0 55 -55 0 -55 0 0 55 0 55 55 0 55 0 0 60 0 60 -55 0 -55
0 0 55 0 55 -55 0 -55 0 0 55 0 55 55 0 55 0 0 55 0 55 -55 0 -55 0 0 55 0 55
-55 0 -55 0 0 55 0 55 55 0 55 0 0 55 0 55 -55 0 -55 0 0 55 0 55 -55 0 -55 0
0 -55 0 -55 55 0 55 0 0 -55 0 -55 -55 0 -55 0 0 -55 0 -55 -55 0 -55 0 0 -55
0 -55 -55 0 -55 0 0 -55 0 -55 -60 0 -60 0 0 55 0 55 -55 0 -55 0 0 -55 0 -55
-55 0 -55 0 0 55 0 55 -55 0 -55 0 0 -55 0 -55 55 0 55 0 0 -55 0 -55 55 0 55
0 0 -55 0 -55 -55 0 -55 0 0 -60 0 -60 55 0 55 0 0 60 0 60 55 0 55 0 0 -60 0
-60 60 0 60 0 0 60 0 60 55 0 55 0 0 -60 0 -60 55 0 55 0 0 -55 0 -55 55 0 55
0 0 -55 0 -55 -55 0 -55 0 0 -55 0 -55 55 0 55 0 0 -55 0 -55 -55 0 -55 0 0
-55 0 -55 -55 0 -55 0 0 55 0 55 -55 0 -55 0 0 -55 0 -55 -60 0 -60 0 0 -55 0
-55 -55 0 -55 0 0 55 0 55 -55 0 -55 0 0 -55 0 -55 -55 0 -55 0 0 55 0 55 -55
0 -55 0 0 55 0 55 55 0 55 0 0 55 0 55 -55 0 -55 0 0 -55 0 -55 -55 0 -55 0 0
-55 0 -55 55 0 55 0 0 -55 0 -55 -55 0 -55 0 0 -55 0 -55 -55 0 -55 0 0 55 0
55 -55 0 -55 0 0 -55 0 -55 -55 0 -55 0 0 -55 0 -55 55 0 55 0 0 55 0 55 55 0
55 0 0 -55 0 -55 55 0 55 0 0 -60 0 -60 -55 0 -55 0 0 -55 0 -55 -55 0 -55 0
0 -55 0 -55 -55 0 -55 0 0 55 0 55 -60 0 -60 0 0 -55 0 -55 -55 0 -55 0 0 -55
0 -55 -55 0 -55 0 0 55 0 55 -55 0 -55 0 0 -55 0 -55 -55 0 -55 0 0 -55 0 -55
-55 0 -55 0 0 55 0 55 -55 0 -55 0 0 -55 0 -55 55 0 55 0 0 -55 0 -55 -55 0
-55 0 0 -55 0 -55 -55 0 -55 0 0 55 0 55 -55 0 -55 0 0 -55 0 -55 -60 0 -60 0
0 55 0 55 -55 0 -55 0 0 -55 0 -55 -55 0 -55 0 0 55 0 55 -55 0 -55 0 0 -55 0
-55 -55 0 -55 0 0 55 0 55 -55 0 -55 0 0 -55 0 -55 -55 0 -55 0 0 55 0 55 -55
0 -55 0 0 55 0 55 -55 0 -55 0 0 -55 0 -55 -60 0 -60 0 0 55 0 55 -55 0 -55 0
0 55 0 55 -55 0 -55 0 0 55 0 55 -55 0 -55 0 0 55 0 55 55 0 55 0 0 55 0 55
55 0 55 0 0 -55 0 -55 55 0 55 0 0 -55 0 -55 60 0 60 0 0 55 0 55 55 0 55 0 0
-55 0 -55 55 0 55 0 0 -55 0 -55 55 0 55 0 0 55 0 55 55 0 55 0 0 -55 0 -55
55 0 55 0 0 55 0 55 -55 0 -55 0 0 55 0 55 -55 0 -55 0 0 -55 0 -55 -55 0 -55
0 0 55 0 55 -55 0 -55 0 0 55 0 55 -55 0 -55 0 0 -55 0 -55 -60 0 -60 0 0 55
0 55 -55 0 -55 0 0 60 0 60 -55 0 -55 0 0 -60 0 -60 -55 0 -55 0 0 60 0 60
-55 0 -55 0 0 55 0 55 -55 0 -55 0 0 55 0 55 -55 0 -55 0 0 -55 0 -55 -55 0
-55 0 0 55 0 55 -55 0 -55 0 0 -55 0 -55 -60 0 -60 0 0 55 0 55 -55 0 -55 0 0
-55 0 -55 -55 0 -55 0 0 55 0 55 -55 0 -55 0 0 55 0 55 -55 0 -55 0 0 55 0 55
-55 0 -55 0 0 55 0 55 55 0 55 0 0 55 0 55 55 0 55 0 0 55 0 55 55 0 55 0 0
-55 0 -55 55 0 55 0 0 55 0 55 55 0 55 0 0 -55 0 -55 60 0 60 0 0 55 0 55 -60
0 -60 0 0 55 0 55 -55 0 -55 0 0 60 0 60 55 0 55 0 0 55 0 55 -55 0 -55 0 0
-55 0 -55 -55 0 -55 0 0 55 0 55 -55 0 -55 0 0 55 0 55 -55 0 -55 0 0 55 0 55
-55 0 -55 0 0 -55 0 -55 -55 0 -55 0 0 55 0 55 -55 0 -55 0 0 -55 0 -55 -55 0
-55 0 0 55 0 55 -60 0 -60 0 0 55 0 55 60 0 60 0 0 55 0 55 -60 0 -60 0 0 -55
0 -55 -55 0 -55 0 0 55 0 55 -55 0 -55 0 0 55 0 55 -55 0 -55 0 0 55 0 55 -55
0 -55 0 0 55 0 55 -55 0 -55 0 0 -55 0 -55 -55 0 -55 0 0 55 0 55 -55 0 -55 0
0 60 0 60 -55 0 -55 0 0 55 0 55 -60 0 -60 0 0 -55 0 -55 -55 0 -55 0 0 55 0
55 -55 0 -55 0 0 55 0 55 -55 0 -55 0 0 -55 0 -55 -55 0 -55 0 0 55 0 55 -55
0 -55 0 0 -55 0 -55 -55 0 -55 0 0 55 0 55 -55 0 -55 0 0 -55z m330 -110 l0
-55 55 0 55 0 0 55 0 55 55 0 55 0 0 -55 0 -55 55 0 55 0 0 -60 0 -60 55 0 55
0 0 60 0 60 60 0 60 0 0 -60 0 -60 55 0 55 0 0 -55 0 -55 55 0 55 0 0 -55 0
-55 55 0 55 0 0 55 0 55 55 0 55 0 0 -55 0 -55 55 0 55 0 0 -55 0 -55 55 0 55
0 0 -55 0 -55 55 0 55 0 0 -55 0 -55 55 0 55 0 0 -55 0 -55 60 0 60 0 0 -55 0
-55 55 0 55 0 0 55 0 55 55 0 55 0 0 -55 0 -55 55 0 55 0 0 55 0 55 55 0 55 0
0 -55 0 -55 55 0 55 0 0 -55 0 -55 55 0 55 0 0 -60 0 -60 55 0 55 0 0 -55 0
-55 -55 0 -55 0 0 55 0 55 -55 0 -55 0 0 -55 0 -55 -55 0 -55 0 0 -55 0 -55
-55 0 -55 0 0 -55 0 -55 -55 0 -55 0 0 -55 0 -55 55 0 55 0 0 -55 0 -55 55 0
55 0 0 -55 0 -55 55 0 55 0 0 -55 0 -55 55 0 55 0 0 -55 0 -55 55 0 55 0 0 55
0 55 55 0 55 0 0 -55 0 -55 60 0 60 0 0 55 0 55 55 0 55 0 0 -55 0 -55 55 0
55 0 0 55 0 55 55 0 55 0 0 -55 0 -55 55 0 55 0 0 -60 0 -60 55 0 55 0 0 -55
0 -55 -55 0 -55 0 0 -55 0 -55 55 0 55 0 0 -55 0 -55 55 0 55 0 0 -55 0 -55
55 0 55 0 0 -55 0 -55 55 0 55 0 0 -55 0 -55 60 0 60 0 0 55 0 55 55 0 55 0 0
-55 0 -55 55 0 55 0 0 -55 0 -55 55 0 55 0 0 55 0 55 55 0 55 0 0 -55 0 -55
55 0 55 0 0 55 0 55 55 0 55 0 0 -55 0 -55 55 0 55 0 0 55 0 55 55 0 55 0 0
-55 0 -55 60 0 60 0 0 55 0 55 55 0 55 0 0 -55 0 -55 55 0 55 0 0 55 0 55 55
0 55 0 0 55 0 55 55 0 55 0 0 55 0 55 55 0 55 0 0 55 0 55 55 0 55 0 0 -55 0
-55 55 0 55 0 0 55 0 55 55 0 55 0 0 55 0 55 60 0 60 0 0 -55 0 -55 55 0 55 0
0 55 0 55 55 0 55 0 0 55 0 55 55 0 55 0 0 55 0 55 55 0 55 0 0 60 0 60 -55 0
-55 0 0 55 0 55 55 0 55 0 0 55 0 55 55 0 55 0 0 -55 0 -55 55 0 55 0 0 55 0
55 55 0 55 0 0 -55 0 -55 55 0 55 0 0 55 0 55 60 0 60 0 0 55 0 55 55 0 55 0
0 -55 0 -55 55 0 55 0 0 55 0 55 55 0 55 0 0 55 0 55 55 0 55 0 0 55 0 55 -55
0 -55 0 0 55 0 55 55 0 55 0 0 55 0 55 -55 0 -55 0 0 55 0 55 -55 0 -55 0 0
60 0 60 -55 0 -55 0 0 55 0 55 -55 0 -55 0 0 -55 0 -55 -60 0 -60 0 0 55 0 55
-55 0 -55 0 0 55 0 55 55 0 55 0 0 -55 0 -55 60 0 60 0 0 55 0 55 55 0 55 0 0
55 0 55 55 0 55 0 0 55 0 55 55 0 55 0 0 -55 0 -55 55 0 55 0 0 -55 0 -55 -55
0 -55 0 0 -55 0 -55 55 0 55 0 0 -55 0 -55 55 0 55 0 0 -60 0 -60 -55 0 -55 0
0 -55 0 -55 55 0 55 0 0 -55 0 -55 -55 0 -55 0 0 -55 0 -55 55 0 55 0 0 -55 0
-55 55 0 55 0 0 -55 0 -55 55 0 55 0 0 -55 0 -55 -55 0 -55 0 0 -55 0 -55 -55
0 -55 0 0 -55 0 -55 55 0 55 0 0 -60 0 -60 -55 0 -55 0 0 60 0 60 -55 0 -55 0
0 -60 0 -60 -55 0 -55 0 0 -55 0 -55 -55 0 -55 0 0 -55 0 -55 -55 0 -55 0 0
-55 0 -55 -55 0 -55 0 0 -55 0 -55 -60 0 -60 0 0 -55 0 -55 -55 0 -55 0 0 -55
0 -55 -55 0 -55 0 0 55 0 55 -55 0 -55 0 0 -55 0 -55 -55 0 -55 0 0 -55 0 -55
-55 0 -55 0 0 -55 0 -55 -55 0 -55 0 0 55 0 55 -55 0 -55 0 0 -55 0 -55 -55 0
-55 0 0 -60 0 -60 -60 0 -60 0 0 -55 0 -55 -55 0 -55 0 0 55 0 55 -55 0 -55 0
0 -55 0 -55 -55 0 -55 0 0 55 0 55 -55 0 -55 0 0 -55 0 -55 -55 0 -55 0 0 -55
0 -55 -55 0 -55 0 0 55 0 55 -55 0 -55 0 0 -55 0 -55 -55 0 -55 0 0 55 0 55
-60 0 -60 0 0 -55 0 -55 -55 0 -55 0 0 -55 0 -55 -55 0 -55 0 0 55 0 55 -55 0
-55 0 0 -55 0 -55 -55 0 -55 0 0 55 0 55 -55 0 -55 0 0 -55 0 -55 -55 0 -55 0
0 55 0 55 -55 0 -55 0 0 55 0 55 -55 0 -55 0 0 -55 0 -55 -60 0 -60 0 0 55 0
55 -55 0 -55 0 0 55 0 55 -55 0 -55 0 0 -55 0 -55 -55 0 -55 0 0 55 0 55 -55
0 -55 0 0 -55 0 -55 -55 0 -55 0 0 55 0 55 -55 0 -55 0 0 60 0 60 -55 0 -55 0
0 -60 0 -60 -55 0 -55 0 0 60 0 60 -60 0 -60 0 0 55 0 55 -55 0 -55 0 0 -55 0
-55 -55 0 -55 0 0 55 0 55 -55 0 -55 0 0 55 0 55 -55 0 -55 0 0 -55 0 -55 -55
0 -55 0 0 55 0 55 -55 0 -55 0 0 55 0 55 -55 0 -55 0 0 -55 0 -55 -55 0 -55 0
0 55 0 55 -60 0 -60 0 0 55 0 55 -55 0 -55 0 0 -55 0 -55 -55 0 -55 0 0 55 0
55 -55 0 -55 0 0 55 0 55 -55 0 -55 0 0 -55 0 -55 -55 0 -55 0 0 55 0 55 -55
0 -55 0 0 55 0 55 -55 0 -55 0 0 55 0 55 -55 0 -55 0 0 55 0 55 -60 0 -60 0 0
60 0 60 -55 0 -55 0 0 55 0 55 -55 0 -55 0 0 55 0 55 -55 0 -55 0 0 55 0 55
-55 0 -55 0 0 55 0 55 -55 0 -55 0 0 55 0 55 -55 0 -55 0 0 55 0 55 -55 0 -55
0 0 55 0 55 -55 0 -55 0 0 55 0 55 -60 0 -60 0 0 -55 0 -55 -55 0 -55 0 0 55
0 55 -55 0 -55 0 0 60 0 60 -55 0 -55 0 0 55 0 55 55 0 55 0 0 55 0 55 55 0
55 0 0 55 0 55 55 0 55 0 0 55 0 55 -55 0 -55 0 0 55 0 55 55 0 55 0 0 55 0
55 60 0 60 0 0 55 0 55 55 0 55 0 0 55 0 55 55 0 55 0 0 60 0 60 55 0 55 0 0
55 0 55 55 0 55 0 0 -55z m-1000 -1000 l0 -55 -55 0 -55 0 0 55 0 55 55 0 55
0 0 -55z"/>
<path d="M3980 4810 l0 -60 -55 0 -55 0 0 -55 0 -55 -55 0 -55 0 0 -55 0 -55
-55 0 -55 0 0 -55 0 -55 -60 0 -60 0 0 -55 0 -55 60 0 60 0 0 -55 0 -55 -60 0
-60 0 0 -55 0 -55 -55 0 -55 0 0 -55 0 -55 -55 0 -55 0 0 -55 0 -55 55 0 55 0
0 -60 0 -60 55 0 55 0 0 60 0 60 60 0 60 0 0 -60 0 -60 55 0 55 0 0 -55 0 -55
55 0 55 0 0 -55 0 -55 55 0 55 0 0 -55 0 -55 55 0 55 0 0 -55 0 -55 55 0 55 0
0 -55 0 -55 55 0 55 0 0 -55 0 -55 55 0 55 0 0 -55 0 -55 55 0 55 0 0 -55 0
-55 60 0 60 0 0 -60 0 -60 55 0 55 0 0 -55 0 -55 55 0 55 0 0 -55 0 -55 55 0
55 0 0 -55 0 -55 55 0 55 0 0 55 0 55 55 0 55 0 0 -55 0 -55 55 0 55 0 0 -55
0 -55 55 0 55 0 0 55 0 55 55 0 55 0 0 -55 0 -55 60 0 60 0 0 -55 0 -55 55 0
55 0 0 55 0 55 55 0 55 0 0 -55 0 -55 55 0 55 0 0 -55 0 -55 55 0 55 0 0 55 0
55 55 0 55 0 0 -55 0 -55 55 0 55 0 0 -55 0 -55 55 0 55 0 0 55 0 55 55 0 55
0 0 -55 0 -55 60 0 60 0 0 -55 0 -55 55 0 55 0 0 55 0 55 55 0 55 0 0 -55 0
-55 55 0 55 0 0 -60 0 -60 55 0 55 0 0 60 0 60 55 0 55 0 0 -60 0 -60 55 0 55
0 0 60 0 60 55 0 55 0 0 -60 0 -60 55 0 55 0 0 -55 0 -55 60 0 60 0 0 55 0 55
55 0 55 0 0 -55 0 -55 55 0 55 0 0 -55 0 -55 55 0 55 0 0 55 0 55 55 0 55 0 0
-55 0 -55 55 0 55 0 0 55 0 55 55 0 55 0 0 -55 0 -55 55 0 55 0 0 55 0 55 55
0 55 0 0 55 0 55 60 0 60 0 0 -55 0 -55 55 0 55 0 0 55 0 55 55 0 55 0 0 -55
0 -55 55 0 55 0 0 55 0 55 55 0 55 0 0 60 0 60 55 0 55 0 0 -60 0 -60 55 0 55
0 0 60 0 60 55 0 55 0 0 -60 0 -60 55 0 55 0 0 60 0 60 60 0 60 0 0 55 0 55
55 0 55 0 0 55 0 55 55 0 55 0 0 -55 0 -55 55 0 55 0 0 55 0 55 55 0 55 0 0
55 0 55 55 0 55 0 0 55 0 55 55 0 55 0 0 -55 0 -55 55 0 55 0 0 55 0 55 55 0
55 0 0 55 0 55 60 0 60 0 0 55 0 55 55 0 55 0 0 55 0 55 55 0 55 0 0 55 0 55
55 0 55 0 0 60 0 60 55 0 55 0 0 55 0 55 55 0 55 0 0 55 0 55 55 0 55 0 0 55
0 55 -55 0 -55 0 0 55 0 55 -55 0 -55 0 0 -55 0 -55 -55 0 -55 0 0 -55 0 -55
-55 0 -55 0 0 -55 0 -55 -55 0 -55 0 0 55 0 55 -55 0 -55 0 0 -55 0 -55 -60 0
-60 0 0 -55 0 -55 -55 0 -55 0 0 55 0 55 -55 0 -55 0 0 -55 0 -55 -55 0 -55 0
0 55 0 55 -55 0 -55 0 0 -55 0 -55 55 0 55 0 0 -60 0 -60 -55 0 -55 0 0 -55 0
-55 -55 0 -55 0 0 -55 0 -55 -55 0 -55 0 0 -55 0 -55 -55 0 -55 0 0 -55 0 -55
-55 0 -55 0 0 55 0 55 -60 0 -60 0 0 -55 0 -55 -55 0 -55 0 0 -55 0 -55 -55 0
-55 0 0 55 0 55 -55 0 -55 0 0 -55 0 -55 -55 0 -55 0 0 -55 0 -55 -55 0 -55 0
0 -55 0 -55 -55 0 -55 0 0 -55 0 -55 -55 0 -55 0 0 55 0 55 -55 0 -55 0 0 -55
0 -55 -60 0 -60 0 0 55 0 55 -55 0 -55 0 0 -55 0 -55 -55 0 -55 0 0 55 0 55
-55 0 -55 0 0 -55 0 -55 -55 0 -55 0 0 55 0 55 -55 0 -55 0 0 -55 0 -55 -55 0
-55 0 0 55 0 55 -55 0 -55 0 0 55 0 55 -55 0 -55 0 0 -55 0 -55 -60 0 -60 0 0
55 0 55 -55 0 -55 0 0 55 0 55 -55 0 -55 0 0 55 0 55 -55 0 -55 0 0 55 0 55
-55 0 -55 0 0 55 0 55 -55 0 -55 0 0 55 0 55 55 0 55 0 0 55 0 55 -55 0 -55 0
0 60 0 60 -55 0 -55 0 0 -60 0 -60 -55 0 -55 0 0 60 0 60 -55 0 -55 0 0 -60 0
-60 -60 0 -60 0 0 60 0 60 -55 0 -55 0 0 -60 0 -60 -55 0 -55 0 0 60 0 60 -55
0 -55 0 0 55 0 55 -55 0 -55 0 0 55 0 55 -55 0 -55 0 0 55 0 55 -55 0 -55 0 0
55 0 55 -55 0 -55 0 0 55 0 55 55 0 55 0 0 55 0 55 55 0 55 0 0 55 0 55 55 0
55 0 0 55 0 55 55 0 55 0 0 60 0 60 -55 0 -55 0 0 55 0 55 -55 0 -55 0 0 -55
0 -55 -55 0 -55 0 0 55 0 55 -55 0 -55 0 0 -55 0 -55 -55 0 -55 0 0 55 0 55
-60 0 -60 0 0 55 0 55 -55 0 -55 0 0 55 0 55 -55 0 -55 0 0 55 0 55 -55 0 -55
0 0 55 0 55 -55 0 -55 0 0 55 0 55 -55 0 -55 0 0 -55 0 -55 -55 0 -55 0 0 55
0 55 -55 0 -55 0 0 55 0 55 -55 0 -55 0 0 55 0 55 -60 0 -60 0 0 -55 0 -55
-55 0 -55 0 0 55 0 55 -55 0 -55 0 0 60 0 60 -55 0 -55 0 0 -60 0 -60 -55 0
-55 0 0 60 0 60 -55 0 -55 0 0 -60z m110 -115 l0 -55 55 0 55 0 0 55 0 55 55
0 55 0 0 -55 0 -55 55 0 55 0 0 -55 0 -55 55 0 55 0 0 55 0 55 60 0 60 0 0
-55 0 -55 55 0 55 0 0 -55 0 -55 55 0 55 0 0 -55 0 -55 55 0 55 0 0 55 0 55
55 0 55 0 0 -55 0 -55 55 0 55 0 0 -55 0 -55 55 0 55 0 0 -55 0 -55 55 0 55 0
0 -55 0 -55 55 0 55 0 0 -55 0 -55 60 0 60 0 0 -60 0 -60 55 0 55 0 0 60 0 60
55 0 55 0 0 -60 0 -60 55 0 55 0 0 60 0 60 55 0 55 0 0 -60 0 -60 -55 0 -55 0
0 -55 0 -55 -55 0 -55 0 0 -55 0 -55 -55 0 -55 0 0 -55 0 -55 -55 0 -55 0 0
-55 0 -55 55 0 55 0 0 -55 0 -55 55 0 55 0 0 -55 0 -55 55 0 55 0 0 -55 0 -55
55 0 55 0 0 -55 0 -55 55 0 55 0 0 -60 0 -60 55 0 55 0 0 -55 0 -55 55 0 55 0
0 55 0 55 55 0 55 0 0 -55 0 -55 60 0 60 0 0 55 0 55 55 0 55 0 0 -55 0 -55
55 0 55 0 0 55 0 55 55 0 55 0 0 -55 0 -55 -55 0 -55 0 0 -55 0 -55 55 0 55 0
0 -55 0 -55 55 0 55 0 0 -55 0 -55 55 0 55 0 0 -55 0 -55 55 0 55 0 0 -55 0
-55 55 0 55 0 0 -55 0 -55 55 0 55 0 0 -55 0 -55 60 0 60 0 0 55 0 55 55 0 55
0 0 -55 0 -55 55 0 55 0 0 -60 0 -60 55 0 55 0 0 60 0 60 55 0 55 0 0 -60 0
-60 55 0 55 0 0 60 0 60 55 0 55 0 0 -60 0 -60 55 0 55 0 0 60 0 60 55 0 55 0
0 -60 0 -60 -55 0 -55 0 0 -55 0 -55 -55 0 -55 0 0 55 0 55 -55 0 -55 0 0 -55
0 -55 -55 0 -55 0 0 55 0 55 -55 0 -55 0 0 -55 0 -55 -55 0 -55 0 0 55 0 55
-55 0 -55 0 0 60 0 60 -55 0 -55 0 0 -60 0 -60 -60 0 -60 0 0 60 0 60 -55 0
-55 0 0 55 0 55 -55 0 -55 0 0 -55 0 -55 -55 0 -55 0 0 55 0 55 -55 0 -55 0 0
-55 0 -55 -55 0 -55 0 0 55 0 55 -55 0 -55 0 0 55 0 55 -55 0 -55 0 0 -55 0
-55 -55 0 -55 0 0 55 0 55 -60 0 -60 0 0 55 0 55 -55 0 -55 0 0 -55 0 -55 -55
0 -55 0 0 55 0 55 -55 0 -55 0 0 55 0 55 -55 0 -55 0 0 -55 0 -55 -55 0 -55 0
0 55 0 55 -55 0 -55 0 0 55 0 55 -55 0 -55 0 0 -55 0 -55 -55 0 -55 0 0 55 0
55 -60 0 -60 0 0 55 0 55 -55 0 -55 0 0 -55 0 -55 -55 0 -55 0 0 55 0 55 -55
0 -55 0 0 55 0 55 -55 0 -55 0 0 -55 0 -55 -55 0 -55 0 0 55 0 55 -55 0 -55 0
0 55 0 55 -55 0 -55 0 0 60 0 60 -55 0 -55 0 0 55 0 55 -60 0 -60 0 0 55 0 55
-55 0 -55 0 0 55 0 55 -55 0 -55 0 0 55 0 55 -55 0 -55 0 0 55 0 55 -55 0 -55
0 0 55 0 55 -55 0 -55 0 0 55 0 55 -55 0 -55 0 0 55 0 55 -55 0 -55 0 0 60 0
60 -55 0 -55 0 0 55 0 55 -60 0 -60 0 0 -55 0 -55 -55 0 -55 0 0 55 0 55 55 0
55 0 0 55 0 55 60 0 60 0 0 55 0 55 55 0 55 0 0 55 0 55 -55 0 -55 0 0 55 0
55 55 0 55 0 0 55 0 55 55 0 55 0 0 55 0 55 55 0 55 0 0 55 0 55 55 0 55 0 0
-55z m7110 -1550 l0 -55 -55 0 -55 0 0 -55 0 -55 -55 0 -55 0 0 -55 0 -55 -55
0 -55 0 0 -60 0 -60 -55 0 -55 0 0 -55 0 -55 -55 0 -55 0 0 -55 0 -55 -60 0
-60 0 0 -55 0 -55 -55 0 -55 0 0 -55 0 -55 -55 0 -55 0 0 55 0 55 -55 0 -55 0
0 -55 0 -55 -55 0 -55 0 0 -55 0 -55 -55 0 -55 0 0 -55 0 -55 -55 0 -55 0 0
55 0 55 -55 0 -55 0 0 -55 0 -55 -55 0 -55 0 0 -55 0 -55 -60 0 -60 0 0 -55 0
-55 -55 0 -55 0 0 55 0 55 -55 0 -55 0 0 -55 0 -55 -55 0 -55 0 0 55 0 55 -55
0 -55 0 0 -55 0 -55 -55 0 -55 0 0 -60 0 -60 -55 0 -55 0 0 60 0 60 55 0 55 0
0 55 0 55 55 0 55 0 0 55 0 55 55 0 55 0 0 55 0 55 55 0 55 0 0 -55 0 -55 55
0 55 0 0 55 0 55 55 0 55 0 0 55 0 55 60 0 60 0 0 -55 0 -55 55 0 55 0 0 55 0
55 55 0 55 0 0 55 0 55 55 0 55 0 0 55 0 55 55 0 55 0 0 55 0 55 55 0 55 0 0
55 0 55 55 0 55 0 0 60 0 60 55 0 55 0 0 -60 0 -60 55 0 55 0 0 60 0 60 60 0
60 0 0 55 0 55 55 0 55 0 0 -55 0 -55 55 0 55 0 0 55 0 55 55 0 55 0 0 55 0
55 55 0 55 0 0 55 0 55 55 0 55 0 0 -55z m-2440 -1335 l0 -60 -55 0 -55 0 0
60 0 60 55 0 55 0 0 -60z"/>
<path d="M3980 4585 l0 -55 -55 0 -55 0 0 -55 0 -55 -55 0 -55 0 0 -55 0 -55
55 0 55 0 0 -55 0 -55 -55 0 -55 0 0 -55 0 -55 -55 0 -55 0 0 -55 0 -55 55 0
55 0 0 -55 0 -55 55 0 55 0 0 -60 0 -60 55 0 55 0 0 -55 0 -55 55 0 55 0 0
-55 0 -55 55 0 55 0 0 -55 0 -55 55 0 55 0 0 -55 0 -55 55 0 55 0 0 -55 0 -55
55 0 55 0 0 -55 0 -55 60 0 60 0 0 -55 0 -55 55 0 55 0 0 -55 0 -55 55 0 55 0
0 -60 0 -60 55 0 55 0 0 -55 0 -55 55 0 55 0 0 55 0 55 55 0 55 0 0 -55 0 -55
55 0 55 0 0 -55 0 -55 55 0 55 0 0 55 0 55 55 0 55 0 0 -55 0 -55 60 0 60 0 0
-55 0 -55 55 0 55 0 0 55 0 55 55 0 55 0 0 -55 0 -55 55 0 55 0 0 -55 0 -55
55 0 55 0 0 55 0 55 55 0 55 0 0 -55 0 -55 55 0 55 0 0 -55 0 -55 55 0 55 0 0
55 0 55 55 0 55 0 0 -55 0 -55 60 0 60 0 0 -55 0 -55 55 0 55 0 0 55 0 55 55
0 55 0 0 -55 0 -55 55 0 55 0 0 -55 0 -55 55 0 55 0 0 55 0 55 55 0 55 0 0
-55 0 -55 55 0 55 0 0 55 0 55 -55 0 -55 0 0 55 0 55 -55 0 -55 0 0 55 0 55
-55 0 -55 0 0 55 0 55 -55 0 -55 0 0 55 0 55 -55 0 -55 0 0 55 0 55 -55 0 -55
0 0 -55 0 -55 -60 0 -60 0 0 55 0 55 -55 0 -55 0 0 -55 0 -55 -55 0 -55 0 0
55 0 55 -55 0 -55 0 0 55 0 55 -55 0 -55 0 0 60 0 60 -55 0 -55 0 0 55 0 55
-55 0 -55 0 0 55 0 55 -55 0 -55 0 0 55 0 55 -55 0 -55 0 0 55 0 55 -60 0 -60
0 0 55 0 55 60 0 60 0 0 55 0 55 55 0 55 0 0 55 0 55 55 0 55 0 0 55 0 55 -55
0 -55 0 0 -55 0 -55 -55 0 -55 0 0 55 0 55 -60 0 -60 0 0 60 0 60 -55 0 -55 0
0 55 0 55 -55 0 -55 0 0 55 0 55 -55 0 -55 0 0 55 0 55 -55 0 -55 0 0 55 0 55
-55 0 -55 0 0 -55 0 -55 -55 0 -55 0 0 55 0 55 -55 0 -55 0 0 55 0 55 -55 0
-55 0 0 55 0 55 -60 0 -60 0 0 -55 0 -55 -55 0 -55 0 0 55 0 55 -55 0 -55 0 0
55 0 55 -55 0 -55 0 0 -55 0 -55 -55 0 -55 0 0 55 0 55 -55 0 -55 0 0 -55z
m110 -110 l0 -55 55 0 55 0 0 55 0 55 55 0 55 0 0 -55 0 -55 55 0 55 0 0 -55
0 -55 55 0 55 0 0 55 0 55 60 0 60 0 0 -55 0 -55 55 0 55 0 0 -55 0 -55 55 0
55 0 0 -55 0 -55 55 0 55 0 0 55 0 55 55 0 55 0 0 -55 0 -55 55 0 55 0 0 -55
0 -55 55 0 55 0 0 -55 0 -55 55 0 55 0 0 -60 0 -60 55 0 55 0 0 -55 0 -55 60
0 60 0 0 -55 0 -55 -60 0 -60 0 0 -55 0 -55 -55 0 -55 0 0 -55 0 -55 55 0 55
0 0 -55 0 -55 60 0 60 0 0 -55 0 -55 55 0 55 0 0 -55 0 -55 55 0 55 0 0 -55 0
-55 55 0 55 0 0 -60 0 -60 55 0 55 0 0 -55 0 -55 55 0 55 0 0 -55 0 -55 55 0
55 0 0 -55 0 -55 55 0 55 0 0 55 0 55 55 0 55 0 0 -55 0 -55 60 0 60 0 0 55 0
55 55 0 55 0 0 -55 0 -55 55 0 55 0 0 -55 0 -55 55 0 55 0 0 -55 0 -55 55 0
55 0 0 -55 0 -55 -55 0 -55 0 0 55 0 55 -55 0 -55 0 0 55 0 55 -55 0 -55 0 0
-55 0 -55 -55 0 -55 0 0 55 0 55 -60 0 -60 0 0 55 0 55 -55 0 -55 0 0 -55 0
-55 -55 0 -55 0 0 55 0 55 -55 0 -55 0 0 55 0 55 -55 0 -55 0 0 -55 0 -55 -55
0 -55 0 0 55 0 55 -55 0 -55 0 0 55 0 55 -55 0 -55 0 0 -55 0 -55 -55 0 -55 0
0 55 0 55 -60 0 -60 0 0 55 0 55 -55 0 -55 0 0 -55 0 -55 -55 0 -55 0 0 55 0
55 -55 0 -55 0 0 60 0 60 -55 0 -55 0 0 -60 0 -60 -55 0 -55 0 0 60 0 60 -55
0 -55 0 0 55 0 55 -55 0 -55 0 0 55 0 55 -55 0 -55 0 0 55 0 55 -60 0 -60 0 0
55 0 55 -55 0 -55 0 0 55 0 55 -55 0 -55 0 0 55 0 55 -55 0 -55 0 0 55 0 55
-55 0 -55 0 0 55 0 55 -55 0 -55 0 0 60 0 60 -55 0 -55 0 0 55 0 55 -55 0 -55
0 0 55 0 55 55 0 55 0 0 55 0 55 55 0 55 0 0 55 0 55 -55 0 -55 0 0 55 0 55
55 0 55 0 0 55 0 55 55 0 55 0 0 -55z"/>
<path d="M3980 4365 l0 -55 55 0 55 0 0 -55 0 -55 -55 0 -55 0 0 -55 0 -55
-55 0 -55 0 0 -55 0 -55 55 0 55 0 0 -55 0 -55 55 0 55 0 0 -60 0 -60 55 0 55
0 0 -55 0 -55 55 0 55 0 0 -55 0 -55 55 0 55 0 0 -55 0 -55 55 0 55 0 0 -55 0
-55 60 0 60 0 0 -55 0 -55 55 0 55 0 0 -55 0 -55 55 0 55 0 0 -55 0 -55 55 0
55 0 0 -55 0 -55 55 0 55 0 0 55 0 55 55 0 55 0 0 -55 0 -55 55 0 55 0 0 -60
0 -60 55 0 55 0 0 60 0 60 55 0 55 0 0 -60 0 -60 60 0 60 0 0 -55 0 -55 55 0
55 0 0 55 0 55 55 0 55 0 0 -55 0 -55 55 0 55 0 0 -55 0 -55 55 0 55 0 0 55 0
55 -55 0 -55 0 0 55 0 55 -55 0 -55 0 0 60 0 60 -55 0 -55 0 0 55 0 55 -55 0
-55 0 0 55 0 55 -60 0 -60 0 0 55 0 55 -55 0 -55 0 0 55 0 55 -55 0 -55 0 0
55 0 55 55 0 55 0 0 55 0 55 55 0 55 0 0 55 0 55 -55 0 -55 0 0 55 0 55 -55 0
-55 0 0 60 0 60 -55 0 -55 0 0 55 0 55 -55 0 -55 0 0 55 0 55 -55 0 -55 0 0
-55 0 -55 -55 0 -55 0 0 55 0 55 -55 0 -55 0 0 55 0 55 -55 0 -55 0 0 55 0 55
-60 0 -60 0 0 -55 0 -55 -55 0 -55 0 0 55 0 55 -55 0 -55 0 0 55 0 55 -55 0
-55 0 0 -55 0 -55 -55 0 -55 0 0 55 0 55 -55 0 -55 0 0 -55z m330 -110 l0 -55
55 0 55 0 0 -55 0 -55 55 0 55 0 0 55 0 55 60 0 60 0 0 -55 0 -55 55 0 55 0 0
-55 0 -55 55 0 55 0 0 -55 0 -55 55 0 55 0 0 55 0 55 55 0 55 0 0 -55 0 -55
55 0 55 0 0 -60 0 -60 55 0 55 0 0 -55 0 -55 55 0 55 0 0 -55 0 -55 -55 0 -55
0 0 -55 0 -55 -55 0 -55 0 0 -55 0 -55 55 0 55 0 0 -55 0 -55 55 0 55 0 0 -55
0 -55 55 0 55 0 0 -55 0 -55 60 0 60 0 0 -55 0 -55 55 0 55 0 0 -60 0 -60 -55
0 -55 0 0 60 0 60 -60 0 -60 0 0 55 0 55 -55 0 -55 0 0 -55 0 -55 -55 0 -55 0
0 55 0 55 -55 0 -55 0 0 55 0 55 -55 0 -55 0 0 -55 0 -55 -55 0 -55 0 0 55 0
55 -55 0 -55 0 0 55 0 55 -55 0 -55 0 0 55 0 55 -55 0 -55 0 0 55 0 55 -60 0
-60 0 0 55 0 55 -55 0 -55 0 0 55 0 55 -55 0 -55 0 0 55 0 55 -55 0 -55 0 0
60 0 60 -55 0 -55 0 0 55 0 55 -55 0 -55 0 0 55 0 55 55 0 55 0 0 55 0 55 55
0 55 0 0 55 0 55 55 0 55 0 0 -55z"/>
<path d="M4200 4145 l0 -55 -55 0 -55 0 0 -55 0 -55 55 0 55 0 0 -55 0 -55 55
0 55 0 0 -60 0 -60 55 0 55 0 0 -55 0 -55 55 0 55 0 0 -55 0 -55 60 0 60 0 0
-55 0 -55 55 0 55 0 0 -55 0 -55 55 0 55 0 0 -55 0 -55 55 0 55 0 0 -55 0 -55
55 0 55 0 0 55 0 55 55 0 55 0 0 -55 0 -55 55 0 55 0 0 -55 0 -55 55 0 55 0 0
55 0 55 -55 0 -55 0 0 55 0 55 -55 0 -55 0 0 55 0 55 -55 0 -55 0 0 55 0 55
55 0 55 0 0 55 0 55 55 0 55 0 0 55 0 55 -55 0 -55 0 0 55 0 55 -55 0 -55 0 0
60 0 60 -55 0 -55 0 0 -60 0 -60 -55 0 -55 0 0 60 0 60 -55 0 -55 0 0 55 0 55
-55 0 -55 0 0 55 0 55 -60 0 -60 0 0 -55 0 -55 -55 0 -55 0 0 55 0 55 -55 0
-55 0 0 55 0 55 -55 0 -55 0 0 -55z m110 -110 l0 -55 55 0 55 0 0 -55 0 -55
55 0 55 0 0 55 0 55 60 0 60 0 0 -55 0 -55 55 0 55 0 0 -60 0 -60 55 0 55 0 0
-55 0 -55 55 0 55 0 0 55 0 55 55 0 55 0 0 -55 0 -55 55 0 55 0 0 -55 0 -55
-55 0 -55 0 0 -55 0 -55 -55 0 -55 0 0 -55 0 -55 55 0 55 0 0 -55 0 -55 -55 0
-55 0 0 55 0 55 -55 0 -55 0 0 55 0 55 -55 0 -55 0 0 55 0 55 -55 0 -55 0 0
55 0 55 -60 0 -60 0 0 55 0 55 -55 0 -55 0 0 60 0 60 -55 0 -55 0 0 55 0 55
-55 0 -55 0 0 55 0 55 55 0 55 0 0 -55z"/>
<path d="M4530 3810 l0 -60 60 0 60 0 0 -55 0 -55 55 0 55 0 0 -55 0 -55 55 0
55 0 0 -55 0 -55 55 0 55 0 0 55 0 55 55 0 55 0 0 55 0 55 -55 0 -55 0 0 -55
0 -55 -55 0 -55 0 0 55 0 55 -55 0 -55 0 0 55 0 55 -55 0 -55 0 0 60 0 60 -60
0 -60 0 0 -60z"/>
<path d="M6650 2365 l0 -55 55 0 55 0 0 55 0 55 -55 0 -55 0 0 -55z"/>
<path d="M10650 2810 l0 -60 -60 0 -60 0 0 -55 0 -55 -55 0 -55 0 0 55 0 55
-55 0 -55 0 0 -55 0 -55 -55 0 -55 0 0 -55 0 -55 -55 0 -55 0 0 -55 0 -55 -55
0 -55 0 0 -55 0 -55 -55 0 -55 0 0 -55 0 -55 55 0 55 0 0 55 0 55 55 0 55 0 0
55 0 55 55 0 55 0 0 55 0 55 55 0 55 0 0 -55 0 -55 55 0 55 0 0 55 0 55 55 0
55 0 0 55 0 55 60 0 60 0 0 55 0 55 55 0 55 0 0 60 0 60 -55 0 -55 0 0 -60z
m-230 -225 l0 -55 -55 0 -55 0 0 55 0 55 55 0 55 0 0 -55z"/>
<path d="M9530 2145 l0 -55 -55 0 -55 0 0 -55 0 -55 55 0 55 0 0 55 0 55 60 0
60 0 0 55 0 55 -60 0 -60 0 0 -55z"/>
<path d="M9200 2035 l0 -55 55 0 55 0 0 55 0 55 -55 0 -55 0 0 -55z"/>
<path d="M10870 4145 l0 -55 -55 0 -55 0 0 -55 0 -55 55 0 55 0 0 -55 0 -55
55 0 55 0 0 -60 0 -60 55 0 55 0 0 60 0 60 -55 0 -55 0 0 55 0 55 -55 0 -55 0
0 55 0 55 55 0 55 0 0 55 0 55 -55 0 -55 0 0 -55z"/>
<path d="M7090 4145 l0 -55 55 0 55 0 0 55 0 55 -55 0 -55 0 0 -55z"/>
<path d="M6760 3585 l0 -55 55 0 55 0 0 55 0 55 -55 0 -55 0 0 -55z"/>
<path d="M9420 2925 l0 -55 -55 0 -55 0 0 -60 0 -60 -55 0 -55 0 0 60 0 60
-55 0 -55 0 0 -60 0 -60 55 0 55 0 0 -55 0 -55 55 0 55 0 0 55 0 55 55 0 55 0
0 60 0 60 55 0 55 0 0 55 0 55 -55 0 -55 0 0 -55z"/>
</g>
</svg>
