<?xml version="1.0" standalone="no"?>
<!DOCTYPE svg PUBLIC "-//W3C//DTD SVG 20010904//EN"
 "http://www.w3.org/TR/2001/REC-SVG-20010904/DTD/svg10.dtd">
<svg version="1.0" xmlns="http://www.w3.org/2000/svg"
 width="1592.000000pt" height="1501.000000pt" viewBox="0 0 1592.000000 1501.000000"
 preserveAspectRatio="xMidYMid meet">

<g transform="translate(0.000000,1501.000000) scale(0.100000,-0.100000)"
fill="#000000" stroke="none">
<path d="M10270 13640 l0 -60 -130 0 -130 0 0 -65 0 -65 -125 0 -125 0 0 -65
0 -65 -60 0 -60 0 0 -60 0 -60 -65 0 -65 0 0 -65 0 -65 -125 0 -125 0 0 -65 0
-65 -65 0 -65 0 0 -60 0 -60 -65 0 -65 0 0 -65 0 -65 -125 0 -125 0 0 -65 0
-65 -65 0 -65 0 0 -60 0 -60 -820 0 -820 0 0 -130 0 -130 -65 0 -65 0 0 -1645
0 -1645 65 0 65 0 0 -125 0 -125 60 0 60 0 0 -445 0 -445 65 0 65 0 0 -380 0
-380 65 0 65 0 0 -190 0 -190 60 0 60 0 0 -1075 0 -1075 65 0 65 0 0 -695 0
-695 65 0 65 0 0 -65 0 -65 3540 0 3540 0 0 320 0 320 -60 0 -60 0 0 60 0 60
-190 0 -190 0 0 65 0 65 -65 0 -65 0 0 65 0 65 -65 0 -65 0 0 60 0 60 -60 0
-60 0 0 65 0 65 -125 0 -125 0 0 65 0 65 -65 0 -65 0 0 60 0 60 -125 0 -125 0
0 65 0 65 -65 0 -65 0 0 65 0 65 -65 0 -65 0 0 60 0 60 -125 0 -125 0 0 65 0
65 -65 0 -65 0 0 65 0 65 -60 0 -60 0 0 60 0 60 -65 0 -65 0 0 65 0 65 -125 0
-125 0 0 65 0 65 -65 0 -65 0 0 60 0 60 -125 0 -125 0 0 65 0 65 -130 0 -130
0 0 65 0 65 -60 0 -60 0 0 60 0 60 -65 0 -65 0 0 65 0 65 -125 0 -125 0 0 190
0 190 -65 0 -65 0 0 125 0 125 -65 0 -65 0 0 1835 0 1835 65 0 65 0 0 1645 0
1645 -315 0 -315 0 0 -60z m500 -1580 l0 -1520 -60 0 -60 0 0 -1965 0 -1965
60 0 60 0 0 -125 0 -125 65 0 65 0 0 -250 0 -250 65 0 65 0 0 60 0 60 60 0 60
0 0 -60 0 -60 65 0 65 0 0 -65 0 -65 65 0 65 0 0 -65 0 -65 125 0 125 0 0 -60
0 -60 125 0 125 0 0 -65 0 -65 65 0 65 0 0 -65 0 -65 125 0 125 0 0 -60 0 -60
65 0 65 0 0 -65 0 -65 65 0 65 0 0 -65 0 -65 60 0 60 0 0 -60 0 -60 130 0 130
0 0 -65 0 -65 60 0 60 0 0 -65 0 -65 65 0 65 0 0 -60 0 -60 125 0 125 0 0 -65
0 -65 65 0 65 0 0 -125 0 -125 65 0 65 0 0 60 0 60 60 0 60 0 0 -60 0 -60 65
0 65 0 0 -65 0 -65 60 0 60 0 0 -65 0 -65 -60 0 -60 0 0 65 0 65 -65 0 -65 0
0 -65 0 -65 -60 0 -60 0 0 -125 0 -125 60 0 60 0 0 65 0 65 125 0 125 0 0 -65
0 -65 190 0 190 0 0 65 0 65 65 0 65 0 0 -65 0 -65 65 0 65 0 0 -65 0 -65
-570 0 -570 0 0 190 0 190 65 0 65 0 0 65 0 65 -65 0 -65 0 0 65 0 65 -65 0
-65 0 0 -65 0 -65 -60 0 -60 0 0 65 0 65 -65 0 -65 0 0 60 0 60 -65 0 -65 0 0
-60 0 -60 -60 0 -60 0 0 60 0 60 -65 0 -65 0 0 -190 0 -190 -65 0 -65 0 0 -60
0 -60 -60 0 -60 0 0 -65 0 -65 -65 0 -65 0 0 190 0 190 -190 0 -190 0 0 65 0
65 190 0 190 0 0 -65 0 -65 65 0 65 0 0 -65 0 -65 60 0 60 0 0 190 0 190 -60
0 -60 0 0 65 0 65 -65 0 -65 0 0 -65 0 -65 -65 0 -65 0 0 65 0 65 -60 0 -60 0
0 -65 0 -65 -65 0 -65 0 0 65 0 65 65 0 65 0 0 65 0 65 -65 0 -65 0 0 60 0 60
-65 0 -65 0 0 -60 0 -60 -60 0 -60 0 0 60 0 60 -65 0 -65 0 0 -60 0 -60 -65 0
-65 0 0 60 0 60 -60 0 -60 0 0 65 0 65 -65 0 -65 0 0 -65 0 -65 -65 0 -65 0 0
65 0 65 -60 0 -60 0 0 -65 0 -65 -65 0 -65 0 0 65 0 65 -65 0 -65 0 0 65 0 65
-60 0 -60 0 0 -65 0 -65 -65 0 -65 0 0 65 0 65 -65 0 -65 0 0 -65 0 -65 -60 0
-60 0 0 65 0 65 60 0 60 0 0 60 0 60 -60 0 -60 0 0 65 0 65 -65 0 -65 0 0 65
0 65 -65 0 -65 0 0 -65 0 -65 -60 0 -60 0 0 65 0 65 -65 0 -65 0 0 60 0 60
-60 0 -60 0 0 65 0 65 -65 0 -65 0 0 -255 0 -255 -65 0 -65 0 0 -60 0 -60 -60
0 -60 0 0 -65 0 -65 -65 0 -65 0 0 190 0 190 -255 0 -255 0 0 65 0 65 255 0
255 0 0 -65 0 -65 65 0 65 0 0 -65 0 -65 60 0 60 0 0 255 0 255 -60 0 -60 0 0
-65 0 -65 -130 0 -130 0 0 65 0 65 130 0 130 0 0 65 0 65 -65 0 -65 0 0 60 0
60 65 0 65 0 0 65 0 65 -65 0 -65 0 0 65 0 65 65 0 65 0 0 60 0 60 -65 0 -65
0 0 65 0 65 -190 0 -190 0 0 60 0 60 190 0 190 0 0 -60 0 -60 65 0 65 0 0 -65
0 -65 60 0 60 0 0 65 0 65 65 0 65 0 0 60 0 60 -65 0 -65 0 0 65 0 65 -190 0
-190 0 0 65 0 65 190 0 190 0 0 -65 0 -65 65 0 65 0 0 -65 0 -65 65 0 65 0 0
65 0 65 60 0 60 0 0 65 0 65 -60 0 -60 0 0 60 0 60 -65 0 -65 0 0 65 0 65 -65
0 -65 0 0 -65 0 -65 -60 0 -60 0 0 65 0 65 60 0 60 0 0 65 0 65 -60 0 -60 0 0
60 0 60 -65 0 -65 0 0 -125 0 -125 -65 0 -65 0 0 125 0 125 -60 0 -60 0 0 65
0 65 -65 0 -65 0 0 65 0 65 65 0 65 0 0 60 0 60 -65 0 -65 0 0 65 0 65 -65 0
-65 0 0 65 0 65 65 0 65 0 0 60 0 60 65 0 65 0 0 65 0 65 -65 0 -65 0 0 65 0
65 -125 0 -125 0 0 60 0 60 125 0 125 0 0 -60 0 -60 65 0 65 0 0 60 0 60 60 0
60 0 0 65 0 65 -60 0 -60 0 0 65 0 65 60 0 60 0 0 60 0 60 -60 0 -60 0 0 65 0
65 60 0 60 0 0 65 0 65 65 0 65 0 0 60 0 60 65 0 65 0 0 65 0 65 60 0 60 0 0
65 0 65 -60 0 -60 0 0 60 0 60 -65 0 -65 0 0 -60 0 -60 -65 0 -65 0 0 -65 0
-65 -60 0 -60 0 0 65 0 65 60 0 60 0 0 60 0 60 -60 0 -60 0 0 65 0 65 -65 0
-65 0 0 -65 0 -65 -125 0 -125 0 0 65 0 65 -65 0 -65 0 0 -65 0 -65 -65 0 -65
0 0 -60 0 -60 -60 0 -60 0 0 190 0 190 -190 0 -190 0 0 60 0 60 190 0 190 0 0
-60 0 -60 60 0 60 0 0 -65 0 -65 65 0 65 0 0 190 0 190 -190 0 -190 0 0 65 0
65 190 0 190 0 0 -65 0 -65 65 0 65 0 0 -190 0 -190 125 0 125 0 0 65 0 65 65
0 65 0 0 60 0 60 -65 0 -65 0 0 65 0 65 -65 0 -65 0 0 65 0 65 65 0 65 0 0 60
0 60 65 0 65 0 0 65 0 65 -65 0 -65 0 0 60 0 60 -65 0 -65 0 0 65 0 65 65 0
65 0 0 65 0 65 65 0 65 0 0 60 0 60 60 0 60 0 0 65 0 65 65 0 65 0 0 65 0 65
65 0 65 0 0 60 0 60 60 0 60 0 0 65 0 65 130 0 130 0 0 125 0 125 60 0 60 0 0
65 0 65 -60 0 -60 0 0 65 0 65 -65 0 -65 0 0 60 0 60 65 0 65 0 0 65 0 65 -65
0 -65 0 0 65 0 65 -190 0 -190 0 0 60 0 60 190 0 190 0 0 -60 0 -60 65 0 65 0
0 -65 0 -65 60 0 60 0 0 65 0 65 65 0 65 0 0 60 0 60 -65 0 -65 0 0 65 0 65
-190 0 -190 0 0 65 0 65 -60 0 -60 0 0 -65 0 -65 -65 0 -65 0 0 190 0 190 65
0 65 0 0 -65 0 -65 60 0 60 0 0 190 0 190 65 0 65 0 0 -190 0 -190 -65 0 -65
0 0 -60 0 -60 190 0 190 0 0 60 0 60 -60 0 -60 0 0 65 0 65 60 0 60 0 0 -65 0
-65 65 0 65 0 0 65 0 65 60 0 60 0 0 65 0 65 -60 0 -60 0 0 60 0 60 -65 0 -65
0 0 -60 0 -60 -60 0 -60 0 0 60 0 60 60 0 60 0 0 65 0 65 65 0 65 0 0 65 0 65
60 0 60 0 0 60 0 60 65 0 65 0 0 65 0 65 65 0 65 0 0 -65 0 -65 60 0 60 0 0
130 0 130 190 0 190 0 0 -1520z m-1770 190 l0 -190 -60 0 -60 0 0 -65 0 -65
190 0 190 0 0 -65 0 -65 60 0 60 0 0 -190 0 -190 -60 0 -60 0 0 -60 0 -60 -65
0 -65 0 0 -65 0 -65 -65 0 -65 0 0 190 0 190 -190 0 -190 0 0 65 0 65 190 0
190 0 0 -65 0 -65 65 0 65 0 0 -65 0 -65 65 0 65 0 0 190 0 190 -190 0 -190 0
0 65 0 65 -65 0 -65 0 0 -65 0 -65 -65 0 -65 0 0 190 0 190 -190 0 -190 0 0
65 0 65 190 0 190 0 0 -65 0 -65 65 0 65 0 0 -60 0 -60 65 0 65 0 0 190 0 190
60 0 60 0 0 -190z m-1140 -65 l0 -125 -60 0 -60 0 0 -65 0 -65 -65 0 -65 0 0
-65 0 -65 -65 0 -65 0 0 190 0 190 -125 0 -125 0 0 65 0 65 315 0 315 0 0
-125z m-630 -190 l0 -65 65 0 65 0 0 -190 0 -190 -65 0 -65 0 0 -65 0 -65 -65
0 -65 0 0 65 0 65 65 0 65 0 0 190 0 190 -65 0 -65 0 0 65 0 65 65 0 65 0 0
-65z m1140 0 l0 -65 65 0 65 0 0 -190 0 -190 -65 0 -65 0 0 -65 0 -65 190 0
190 0 0 -60 0 -60 65 0 65 0 0 -190 0 -190 -65 0 -65 0 0 -65 0 -65 -65 0 -65
0 0 -65 0 -65 -60 0 -60 0 0 190 0 190 -190 0 -190 0 0 65 0 65 190 0 190 0 0
-65 0 -65 60 0 60 0 0 -60 0 -60 65 0 65 0 0 190 0 190 -190 0 -190 0 0 60 0
60 -65 0 -65 0 0 -60 0 -60 -60 0 -60 0 0 190 0 190 -190 0 -190 0 0 60 0 60
190 0 190 0 0 -60 0 -60 60 0 60 0 0 -65 0 -65 65 0 65 0 0 190 0 190 -190 0
-190 0 0 65 0 65 190 0 190 0 0 -65z m-510 -510 l0 -65 65 0 65 0 0 -190 0
-190 -65 0 -65 0 0 -60 0 -60 190 0 190 0 0 -65 0 -65 65 0 65 0 0 -190 0
-190 -65 0 -65 0 0 -65 0 -65 -60 0 -60 0 0 -60 0 -60 -65 0 -65 0 0 190 0
190 -190 0 -190 0 0 60 0 60 190 0 190 0 0 -60 0 -60 65 0 65 0 0 -65 0 -65
60 0 60 0 0 190 0 190 -190 0 -190 0 0 65 0 65 -60 0 -60 0 0 -65 0 -65 -65 0
-65 0 0 190 0 190 -190 0 -190 0 0 65 0 65 190 0 190 0 0 -65 0 -65 65 0 65 0
0 -65 0 -65 60 0 60 0 0 190 0 190 -190 0 -190 0 0 65 0 65 190 0 190 0 0 -65z
m-500 -505 l0 -60 60 0 60 0 0 -190 0 -190 -60 0 -60 0 0 -65 0 -65 190 0 190
0 0 -65 0 -65 60 0 60 0 0 -185 0 -185 -60 0 -60 0 0 -65 0 -65 -65 0 -65 0 0
-65 0 -65 -65 0 -65 0 0 190 0 190 -190 0 -190 0 0 65 0 65 190 0 190 0 0 -65
0 -65 65 0 65 0 0 -60 0 -60 65 0 65 0 0 185 0 185 -190 0 -190 0 0 65 0 65
-65 0 -65 0 0 -65 0 -65 -65 0 -65 0 0 190 0 190 65 0 65 0 0 -60 0 -60 65 0
65 0 0 190 0 190 -130 0 -130 0 0 60 0 60 130 0 130 0 0 -60z m1140 -885 l0
-65 -130 0 -130 0 0 65 0 65 130 0 130 0 0 -65z m-1270 -250 l0 -65 65 0 65 0
0 -190 0 -190 -65 0 -65 0 0 -65 0 -65 -65 0 -65 0 0 65 0 65 65 0 65 0 0 190
0 190 -65 0 -65 0 0 65 0 65 65 0 65 0 0 -65z m630 -510 l0 -65 65 0 65 0 0
-190 0 -190 190 0 190 0 0 -60 0 -60 65 0 65 0 0 -65 0 -65 60 0 60 0 0 190 0
190 -125 0 -125 0 0 65 0 65 125 0 125 0 0 -65 0 -65 65 0 65 0 0 -190 0 -190
-65 0 -65 0 0 -65 0 -65 -125 0 -125 0 0 130 0 130 -190 0 -190 0 0 60 0 60
-65 0 -65 0 0 -60 0 -60 -125 0 -125 0 0 125 0 125 -190 0 -190 0 0 65 0 65
190 0 190 0 0 -65 0 -65 65 0 65 0 0 -65 0 -65 60 0 60 0 0 190 0 190 -190 0
-190 0 0 65 0 65 190 0 190 0 0 -65z m-500 -505 l0 -60 -65 0 -65 0 0 60 0 60
65 0 65 0 0 -60z m250 -315 l0 -125 190 0 190 0 0 -65 0 -65 65 0 65 0 0 -65
0 -65 60 0 60 0 0 130 0 130 65 0 65 0 0 -130 0 -130 -65 0 -65 0 0 -60 0 -60
-60 0 -60 0 0 -65 0 -65 -65 0 -65 0 0 190 0 190 -190 0 -190 0 0 65 0 65 -65
0 -65 0 0 -65 0 -65 -60 0 -60 0 0 65 0 65 60 0 60 0 0 125 0 125 65 0 65 0 0
-125z m510 60 l0 -65 -130 0 -130 0 0 65 0 65 130 0 130 0 0 -65z m630 -250
l0 -65 -65 0 -65 0 0 65 0 65 65 0 65 0 0 -65z m-1010 -255 l0 -60 60 0 60 0
0 -190 0 -190 -60 0 -60 0 0 -65 0 -65 -65 0 -65 0 0 -65 0 -65 -65 0 -65 0 0
190 0 190 65 0 65 0 0 -60 0 -60 65 0 65 0 0 190 0 190 -130 0 -130 0 0 60 0
60 130 0 130 0 0 -60z m880 -255 l0 -65 -190 0 -190 0 0 65 0 65 190 0 190 0
0 -65z m-250 -250 l0 -65 65 0 65 0 0 -190 0 -190 -65 0 -65 0 0 -65 0 -65
190 0 190 0 0 -60 0 -60 65 0 65 0 0 -190 0 -190 -65 0 -65 0 0 -65 0 -65 -65
0 -65 0 0 -65 0 -65 -60 0 -60 0 0 190 0 190 -190 0 -190 0 0 65 0 65 190 0
190 0 0 -65 0 -65 60 0 60 0 0 -60 0 -60 65 0 65 0 0 190 0 190 -190 0 -190 0
0 60 0 60 -65 0 -65 0 0 -60 0 -60 -60 0 -60 0 0 190 0 190 -190 0 -190 0 0
60 0 60 190 0 190 0 0 -60 0 -60 60 0 60 0 0 -65 0 -65 65 0 65 0 0 190 0 190
-190 0 -190 0 0 65 0 65 190 0 190 0 0 -65z m-510 -510 l0 -65 65 0 65 0 0
-190 0 -190 -65 0 -65 0 0 -60 0 -60 190 0 190 0 0 -65 0 -65 65 0 65 0 0
-190 0 -190 -65 0 -65 0 0 -60 0 -60 -60 0 -60 0 0 -65 0 -65 -65 0 -65 0 0
190 0 190 -125 0 -125 0 0 60 0 60 125 0 125 0 0 -60 0 -60 65 0 65 0 0 -65 0
-65 60 0 60 0 0 190 0 190 -190 0 -190 0 0 65 0 65 -60 0 -60 0 0 60 0 60 60
0 60 0 0 190 0 190 -125 0 -125 0 0 65 0 65 125 0 125 0 0 -65z m1020 -1135
l0 -60 60 0 60 0 0 -190 0 -190 -60 0 -60 0 0 -65 0 -65 -65 0 -65 0 0 -65 0
-65 -65 0 -65 0 0 190 0 190 -190 0 -190 0 0 65 0 65 190 0 190 0 0 -65 0 -65
65 0 65 0 0 -60 0 -60 65 0 65 0 0 190 0 190 -190 0 -190 0 0 60 0 60 190 0
190 0 0 -60z m-1020 -250 l0 -190 -60 0 -60 0 0 190 0 190 60 0 60 0 0 -190z
m510 -255 l0 -65 65 0 65 0 0 -190 0 -190 -65 0 -65 0 0 -65 0 -65 -65 0 -65
0 0 -60 0 -60 -60 0 -60 0 0 190 0 190 -190 0 -190 0 0 60 0 60 190 0 190 0 0
-60 0 -60 60 0 60 0 0 -65 0 -65 65 0 65 0 0 190 0 190 -190 0 -190 0 0 65 0
65 190 0 190 0 0 -65z m-510 -510 l0 -65 65 0 65 0 0 -190 0 -190 -65 0 -65 0
0 190 0 190 -60 0 -60 0 0 65 0 65 60 0 60 0 0 -65z m1020 -125 l0 -60 60 0
60 0 0 -190 0 -190 -60 0 -60 0 0 -65 0 -65 -65 0 -65 0 0 -65 0 -65 -65 0
-65 0 0 190 0 190 -250 0 -250 0 0 65 0 65 250 0 250 0 0 -65 0 -65 65 0 65 0
0 -60 0 -60 65 0 65 0 0 190 0 190 -190 0 -190 0 0 60 0 60 190 0 190 0 0 -60z
m1130 0 l0 -60 65 0 65 0 0 -190 0 -190 -65 0 -65 0 0 -65 0 -65 190 0 190 0
0 -65 0 -65 65 0 65 0 0 -190 0 -190 -65 0 -65 0 0 -60 0 -60 -125 0 -125 0 0
125 0 125 -190 0 -190 0 0 65 0 65 190 0 190 0 0 -65 0 -65 65 0 65 0 0 -65 0
-65 60 0 60 0 0 190 0 190 -190 0 -190 0 0 65 0 65 -60 0 -60 0 0 -65 0 -65
-65 0 -65 0 0 190 0 190 -190 0 -190 0 0 65 0 65 190 0 190 0 0 -65 0 -65 65
0 65 0 0 -60 0 -60 60 0 60 0 0 190 0 190 -185 0 -185 0 0 60 0 60 185 0 185
0 0 -60z m640 -380 l0 -60 60 0 60 0 0 -65 0 -65 65 0 65 0 0 65 0 65 65 0 65
0 0 -65 0 -65 -65 0 -65 0 0 -65 0 -65 -65 0 -65 0 0 -60 0 -60 -60 0 -60 0 0
190 0 190 -190 0 -190 0 0 60 0 60 190 0 190 0 0 -60z m-2280 -125 l0 -65 65
0 65 0 0 -190 0 -190 -65 0 -65 0 0 190 0 190 -190 0 -190 0 0 65 0 65 190 0
190 0 0 -65z m1140 0 l0 -65 65 0 65 0 0 -190 0 -190 -65 0 -65 0 0 -65 0 -65
-125 0 -125 0 0 130 0 130 -190 0 -190 0 0 60 0 60 190 0 190 0 0 -60 0 -60
60 0 60 0 0 -65 0 -65 65 0 65 0 0 190 0 190 -190 0 -190 0 0 65 0 65 190 0
190 0 0 -65z m2020 -130 l0 -65 65 0 65 0 0 -190 0 -190 -65 0 -65 0 0 -60 0
-60 -60 0 -60 0 0 -65 0 -65 -65 0 -65 0 0 190 0 190 -190 0 -190 0 0 65 0 65
190 0 190 0 0 -65 0 -65 65 0 65 0 0 -65 0 -65 60 0 60 0 0 190 0 190 -190 0
-190 0 0 65 0 65 190 0 190 0 0 -65z m380 -60 l0 -125 -60 0 -60 0 0 125 0
125 60 0 60 0 0 -125z m-3790 -65 l0 -60 60 0 60 0 0 -65 0 -65 -60 0 -60 0 0
65 0 65 -130 0 -130 0 0 60 0 60 130 0 130 0 0 -60z m880 -255 l0 -65 -190 0
-190 0 0 65 0 65 190 0 190 0 0 -65z m-500 -125 l0 -60 630 0 630 0 0 -65 0
-65 190 0 190 0 0 -65 0 -65 255 0 255 0 0 -60 0 -60 2025 0 2025 0 0 -65 0
-65 -3355 0 -3355 0 0 65 0 65 -65 0 -65 0 0 250 0 250 320 0 320 0 0 -60z
m2530 0 l0 -60 60 0 60 0 0 -130 0 -130 -60 0 -60 0 0 130 0 130 -190 0 -190
0 0 60 0 60 190 0 190 0 0 -60z m1140 0 l0 -60 60 0 60 0 0 -130 0 -130 -60 0
-60 0 0 130 0 130 -190 0 -190 0 0 60 0 60 190 0 190 0 0 -60z m1140 0 l0 -60
60 0 60 0 0 -130 0 -130 -60 0 -60 0 0 130 0 130 -190 0 -190 0 0 60 0 60 190
0 190 0 0 -60z m-1400 -255 l0 -65 -190 0 -190 0 0 65 0 65 190 0 190 0 0 -65z
m1140 0 l0 -65 -190 0 -190 0 0 65 0 65 190 0 190 0 0 -65z"/>
<path d="M10140 13260 l0 -60 -65 0 -65 0 0 -65 0 -65 -60 0 -60 0 0 -65 0
-65 60 0 60 0 0 -60 0 -60 65 0 65 0 0 60 0 60 -65 0 -65 0 0 65 0 65 65 0 65
0 0 65 0 65 65 0 65 0 0 60 0 60 -65 0 -65 0 0 -60z"/>
<path d="M10010 12625 l0 -65 -60 0 -60 0 0 -60 0 -60 -65 0 -65 0 0 -65 0
-65 65 0 65 0 0 -65 0 -65 60 0 60 0 0 65 0 65 -60 0 -60 0 0 65 0 65 60 0 60
0 0 60 0 60 65 0 65 0 0 65 0 65 -65 0 -65 0 0 -65z"/>
<path d="M9890 11995 l0 -65 -65 0 -65 0 0 -65 0 -65 -60 0 -60 0 0 -60 0 -60
60 0 60 0 0 -65 0 -65 65 0 65 0 0 65 0 65 60 0 60 0 0 60 0 60 -60 0 -60 0 0
65 0 65 60 0 60 0 0 65 0 65 -60 0 -60 0 0 -65z m0 -255 l0 -60 -65 0 -65 0 0
60 0 60 65 0 65 0 0 -60z"/>
<path d="M9380 10980 l0 -60 -60 0 -60 0 0 -65 0 -65 -65 0 -65 0 0 -65 0 -65
-65 0 -65 0 0 -60 0 -60 -60 0 -60 0 0 -65 0 -65 -65 0 -65 0 0 -65 0 -65 65
0 65 0 0 -60 0 -60 60 0 60 0 0 60 0 60 -60 0 -60 0 0 65 0 65 60 0 60 0 0 65
0 65 65 0 65 0 0 60 0 60 65 0 65 0 0 -60 0 -60 60 0 60 0 0 60 0 60 65 0 65
0 0 -60 0 -60 65 0 65 0 0 60 0 60 -65 0 -65 0 0 65 0 65 -65 0 -65 0 0 65 0
65 65 0 65 0 0 60 0 60 -65 0 -65 0 0 -60z m0 -255 l0 -65 -60 0 -60 0 0 65 0
65 60 0 60 0 0 -65z"/>
<path d="M8880 9970 l0 -60 -65 0 -65 0 0 -65 0 -65 65 0 65 0 0 -65 0 -65 60
0 60 0 0 -60 0 -60 -60 0 -60 0 0 -65 0 -65 60 0 60 0 0 -65 0 -65 65 0 65 0
0 65 0 65 65 0 65 0 0 -65 0 -65 60 0 60 0 0 -60 0 -60 65 0 65 0 0 -65 0 -65
-65 0 -65 0 0 -65 0 -65 -60 0 -60 0 0 -60 0 -60 -65 0 -65 0 0 -65 0 -65 -65
0 -65 0 0 -65 0 -65 65 0 65 0 0 -60 0 -60 -65 0 -65 0 0 -65 0 -65 65 0 65 0
0 -65 0 -65 -65 0 -65 0 0 -60 0 -60 -60 0 -60 0 0 -65 0 -65 60 0 60 0 0 -65
0 -65 -60 0 -60 0 0 -60 0 -60 -65 0 -65 0 0 -65 0 -65 65 0 65 0 0 -65 0 -65
60 0 60 0 0 -60 0 -60 -60 0 -60 0 0 -65 0 -65 60 0 60 0 0 -65 0 -65 65 0 65
0 0 65 0 65 65 0 65 0 0 -65 0 -65 60 0 60 0 0 -60 0 -60 65 0 65 0 0 60 0 60
-65 0 -65 0 0 65 0 65 -60 0 -60 0 0 65 0 65 -65 0 -65 0 0 60 0 60 65 0 65 0
0 65 0 65 -65 0 -65 0 0 65 0 65 65 0 65 0 0 60 0 60 -65 0 -65 0 0 65 0 65
65 0 65 0 0 65 0 65 -65 0 -65 0 0 60 0 60 65 0 65 0 0 65 0 65 -65 0 -65 0 0
65 0 65 65 0 65 0 0 60 0 60 60 0 60 0 0 -60 0 -60 65 0 65 0 0 60 0 60 65 0
65 0 0 65 0 65 60 0 60 0 0 65 0 65 -60 0 -60 0 0 60 0 60 60 0 60 0 0 65 0
65 -60 0 -60 0 0 65 0 65 -65 0 -65 0 0 60 0 60 65 0 65 0 0 65 0 65 -65 0
-65 0 0 65 0 65 -65 0 -65 0 0 60 0 60 -60 0 -60 0 0 65 0 65 -65 0 -65 0 0
65 0 65 65 0 65 0 0 60 0 60 -65 0 -65 0 0 -60 0 -60 -65 0 -65 0 0 60 0 60
-60 0 -60 0 0 -60z m120 -125 l0 -65 65 0 65 0 0 -65 0 -65 65 0 65 0 0 -60 0
-60 60 0 60 0 0 -65 0 -65 65 0 65 0 0 -65 0 -65 -65 0 -65 0 0 65 0 65 -60 0
-60 0 0 65 0 65 -65 0 -65 0 0 -65 0 -65 -65 0 -65 0 0 65 0 65 65 0 65 0 0
60 0 60 -65 0 -65 0 0 65 0 65 -60 0 -60 0 0 65 0 65 60 0 60 0 0 -65z m640
-890 l0 -65 -65 0 -65 0 0 -60 0 -60 65 0 65 0 0 -65 0 -65 -65 0 -65 0 0 -65
0 -65 -65 0 -65 0 0 65 0 65 -60 0 -60 0 0 -65 0 -65 -65 0 -65 0 0 65 0 65
65 0 65 0 0 65 0 65 60 0 60 0 0 60 0 60 65 0 65 0 0 65 0 65 65 0 65 0 0 -65z
m-510 -1010 l0 -65 -65 0 -65 0 0 65 0 65 65 0 65 0 0 -65z m0 -255 l0 -60
-65 0 -65 0 0 -65 0 -65 65 0 65 0 0 -65 0 -65 -65 0 -65 0 0 65 0 65 -60 0
-60 0 0 65 0 65 60 0 60 0 0 60 0 60 65 0 65 0 0 -60z m0 -505 l0 -65 -65 0
-65 0 0 65 0 65 65 0 65 0 0 -65z"/>
<path d="M9380 8705 l0 -65 65 0 65 0 0 65 0 65 -65 0 -65 0 0 -65z"/>
<path d="M9640 6675 l0 -65 60 0 60 0 0 -60 0 -60 65 0 65 0 0 -65 0 -65 -65
0 -65 0 0 -65 0 -65 -60 0 -60 0 0 -60 0 -60 -65 0 -65 0 0 -65 0 -65 -65 0
-65 0 0 -60 0 -60 -60 0 -60 0 0 -65 0 -65 60 0 60 0 0 -65 0 -65 -60 0 -60 0
0 -60 0 -60 60 0 60 0 0 -65 0 -65 65 0 65 0 0 65 0 65 65 0 65 0 0 -65 0 -65
60 0 60 0 0 -65 0 -65 65 0 65 0 0 -60 0 -60 60 0 60 0 0 60 0 60 65 0 65 0 0
-60 0 -60 65 0 65 0 0 -65 0 -65 60 0 60 0 0 -65 0 -65 65 0 65 0 0 -60 0 -60
65 0 65 0 0 60 0 60 60 0 60 0 0 -60 0 -60 65 0 65 0 0 -65 0 -65 65 0 65 0 0
65 0 65 60 0 60 0 0 -65 0 -65 65 0 65 0 0 65 0 65 -65 0 -65 0 0 60 0 60 -60
0 -60 0 0 -60 0 -60 -65 0 -65 0 0 60 0 60 -65 0 -65 0 0 65 0 65 -60 0 -60 0
0 65 0 65 -65 0 -65 0 0 -65 0 -65 -65 0 -65 0 0 65 0 65 -60 0 -60 0 0 60 0
60 -65 0 -65 0 0 65 0 65 -65 0 -65 0 0 65 0 65 -60 0 -60 0 0 60 0 60 -65 0
-65 0 0 65 0 65 -60 0 -60 0 0 65 0 65 60 0 60 0 0 60 0 60 -60 0 -60 0 0 65
0 65 60 0 60 0 0 60 0 60 65 0 65 0 0 -60 0 -60 60 0 60 0 0 60 0 60 65 0 65
0 0 65 0 65 -65 0 -65 0 0 65 0 65 65 0 65 0 0 60 0 60 -65 0 -65 0 0 65 0 65
-60 0 -60 0 0 -65 0 -65 -65 0 -65 0 0 65 0 65 -60 0 -60 0 0 -65z m370 -125
l0 -60 -60 0 -60 0 0 60 0 60 60 0 60 0 0 -60z m0 -255 l0 -65 -60 0 -60 0 0
65 0 65 60 0 60 0 0 -65z m-370 -375 l0 -60 -65 0 -65 0 0 -65 0 -65 65 0 65
0 0 -65 0 -65 60 0 60 0 0 -60 0 -60 65 0 65 0 0 -65 0 -65 60 0 60 0 0 -65 0
-65 -60 0 -60 0 0 65 0 65 -65 0 -65 0 0 65 0 65 -60 0 -60 0 0 60 0 60 -65 0
-65 0 0 -60 0 -60 -65 0 -65 0 0 60 0 60 65 0 65 0 0 65 0 65 -65 0 -65 0 0
65 0 65 65 0 65 0 0 60 0 60 65 0 65 0 0 -60z m1010 -1015 l0 -65 -65 0 -65 0
0 65 0 65 65 0 65 0 0 -65z"/>
<path d="M11530 4525 l0 -65 65 0 65 0 0 65 0 65 -65 0 -65 0 0 -65z"/>
<path d="M11790 4525 l0 -65 60 0 60 0 0 65 0 65 -60 0 -60 0 0 -65z"/>
<path d="M12040 4525 l0 -65 65 0 65 0 0 -60 0 -60 60 0 60 0 0 -65 0 -65 65
0 65 0 0 65 0 65 65 0 65 0 0 -65 0 -65 60 0 60 0 0 -65 0 -65 65 0 65 0 0 65
0 65 65 0 65 0 0 -65 0 -65 60 0 60 0 0 65 0 65 -60 0 -60 0 0 65 0 65 -65 0
-65 0 0 60 0 60 -65 0 -65 0 0 -60 0 -60 -60 0 -60 0 0 60 0 60 -65 0 -65 0 0
65 0 65 -65 0 -65 0 0 -65 0 -65 -60 0 -60 0 0 65 0 65 -65 0 -65 0 0 -65z
m380 -125 l0 -60 -65 0 -65 0 0 60 0 60 65 0 65 0 0 -60z m380 -125 l0 -65
-65 0 -65 0 0 65 0 65 65 0 65 0 0 -65z"/>
<path d="M13180 4145 l0 -65 65 0 65 0 0 -60 0 -60 60 0 60 0 0 60 0 60 -60 0
-60 0 0 65 0 65 -65 0 -65 0 0 -65z"/>
<path d="M13690 3895 l0 -65 60 0 60 0 0 65 0 65 -60 0 -60 0 0 -65z"/>
<path d="M7610 12120 l0 -60 65 0 65 0 0 60 0 60 -65 0 -65 0 0 -60z"/>
<path d="M3690 12880 l0 -60 -320 0 -320 0 0 -130 0 -130 -60 0 -60 0 0 -60 0
-60 -65 0 -65 0 0 -65 0 -65 -65 0 -65 0 0 -65 0 -65 -60 0 -60 0 0 -380 0
-380 -65 0 -65 0 0 -60 0 -60 -65 0 -65 0 0 -510 0 -510 65 0 65 0 0 -315 0
-315 65 0 65 0 0 -440 0 -440 60 0 60 0 0 -320 0 -320 65 0 65 0 0 -125 0
-125 65 0 65 0 0 -380 0 -380 60 0 60 0 0 -445 0 -445 65 0 65 0 0 -440 0
-440 65 0 65 0 0 -1140 0 -1140 60 0 60 0 0 -315 0 -315 65 0 65 0 0 -130 0
-130 65 0 65 0 0 -60 0 -60 60 0 60 0 0 -65 0 -65 65 0 65 0 0 -65 0 -65 1010
0 1010 0 0 65 0 65 130 0 130 0 0 65 0 65 60 0 60 0 0 60 0 60 65 0 65 0 0 65
0 65 65 0 65 0 0 760 0 760 -65 0 -65 0 0 445 0 445 -65 0 -65 0 0 60 0 60
-60 0 -60 0 0 65 0 65 -65 0 -65 0 0 190 0 190 -65 0 -65 0 0 505 0 505 -60 0
-60 0 0 1585 0 1585 60 0 60 0 0 315 0 315 65 0 65 0 0 630 0 630 -125 0 -125
0 0 130 0 130 -65 0 -65 0 0 250 0 250 -60 0 -60 0 0 130 0 130 -65 0 -65 0 0
125 0 125 -65 0 -65 0 0 65 0 65 -190 0 -190 0 0 60 0 60 -630 0 -630 0 0 -60z
m630 -125 l0 -65 65 0 65 0 0 65 0 65 190 0 190 0 0 -65 0 -65 190 0 190 0 0
-65 0 -65 60 0 60 0 0 -125 0 -125 65 0 65 0 0 -125 0 -125 65 0 65 0 0 -190
0 -190 -65 0 -65 0 0 -65 0 -65 125 0 125 0 0 -125 0 -125 65 0 65 0 0 -65 0
-65 60 0 60 0 0 -445 0 -445 -60 0 -60 0 0 -315 0 -315 -65 0 -65 0 0 -1710 0
-1710 65 0 65 0 0 -505 0 -505 60 0 60 0 0 -190 0 -190 65 0 65 0 0 -60 0 -60
65 0 65 0 0 -255 0 -255 60 0 60 0 0 -315 0 -315 65 0 65 0 0 -190 0 -190 -65
0 -65 0 0 -65 0 -65 -60 0 -60 0 0 -65 0 -65 -65 0 -65 0 0 65 0 65 -65 0 -65
0 0 65 0 65 -60 0 -60 0 0 -65 0 -65 -65 0 -65 0 0 -65 0 -65 65 0 65 0 0 -60
0 -60 60 0 60 0 0 -130 0 -130 -60 0 -60 0 0 130 0 130 -65 0 -65 0 0 60 0 60
-60 0 -60 0 0 -60 0 -60 -65 0 -65 0 0 60 0 60 -65 0 -65 0 0 65 0 65 -60 0
-60 0 0 65 0 65 60 0 60 0 0 60 0 60 -60 0 -60 0 0 65 0 65 -65 0 -65 0 0 -65
0 -65 -65 0 -65 0 0 65 0 65 -60 0 -60 0 0 -65 0 -65 -65 0 -65 0 0 65 0 65
-65 0 -65 0 0 65 0 65 -60 0 -60 0 0 -65 0 -65 -65 0 -65 0 0 65 0 65 -65 0
-65 0 0 -65 0 -65 -125 0 -125 0 0 65 0 65 125 0 125 0 0 60 0 60 65 0 65 0 0
65 0 65 -65 0 -65 0 0 65 0 65 -60 0 -60 0 0 -65 0 -65 -65 0 -65 0 0 190 0
190 -190 0 -190 0 0 65 0 65 190 0 190 0 0 -65 0 -65 65 0 65 0 0 -65 0 -65
60 0 60 0 0 190 0 190 -125 0 -125 0 0 65 0 65 125 0 125 0 0 -65 0 -65 65 0
65 0 0 -190 0 -190 65 0 65 0 0 65 0 65 60 0 60 0 0 -65 0 -65 65 0 65 0 0 65
0 65 65 0 65 0 0 65 0 65 60 0 60 0 0 60 0 60 -60 0 -60 0 0 65 0 65 -65 0
-65 0 0 -65 0 -65 -65 0 -65 0 0 -60 0 -60 -60 0 -60 0 0 60 0 60 60 0 60 0 0
65 0 65 -60 0 -60 0 0 65 0 65 -190 0 -190 0 0 60 0 60 -65 0 -65 0 0 -60 0
-60 -65 0 -65 0 0 -65 0 -65 -60 0 -60 0 0 190 0 190 -65 0 -65 0 0 65 0 65
65 0 65 0 0 -65 0 -65 60 0 60 0 0 -65 0 -65 65 0 65 0 0 190 0 190 -190 0
-190 0 0 65 0 65 190 0 190 0 0 -65 0 -65 65 0 65 0 0 -190 0 -190 190 0 190
0 0 65 0 65 60 0 60 0 0 65 0 65 -60 0 -60 0 0 60 0 60 -65 0 -65 0 0 -60 0
-60 -65 0 -65 0 0 190 0 190 -190 0 -190 0 0 60 0 60 190 0 190 0 0 -60 0 -60
65 0 65 0 0 -65 0 -65 65 0 65 0 0 65 0 65 60 0 60 0 0 -65 0 -65 65 0 65 0 0
-65 0 -65 65 0 65 0 0 65 0 65 60 0 60 0 0 -65 0 -65 65 0 65 0 0 65 0 65 65
0 65 0 0 65 0 65 -65 0 -65 0 0 60 0 60 -65 0 -65 0 0 65 0 65 -60 0 -60 0 0
-65 0 -65 -65 0 -65 0 0 65 0 65 -65 0 -65 0 0 -65 0 -65 -60 0 -60 0 0 65 0
65 -190 0 -190 0 0 65 0 65 190 0 190 0 0 -65 0 -65 60 0 60 0 0 65 0 65 65 0
65 0 0 60 0 60 -65 0 -65 0 0 65 0 65 65 0 65 0 0 60 0 60 -65 0 -65 0 0 65 0
65 65 0 65 0 0 65 0 65 -65 0 -65 0 0 60 0 60 65 0 65 0 0 65 0 65 -65 0 -65
0 0 65 0 65 65 0 65 0 0 60 0 60 65 0 65 0 0 65 0 65 60 0 60 0 0 65 0 65 -60
0 -60 0 0 60 0 60 60 0 60 0 0 65 0 65 -60 0 -60 0 0 65 0 65 60 0 60 0 0 60
0 60 65 0 65 0 0 65 0 65 65 0 65 0 0 65 0 65 -65 0 -65 0 0 60 0 60 -65 0
-65 0 0 65 0 65 65 0 65 0 0 65 0 65 65 0 65 0 0 60 0 60 -65 0 -65 0 0 65 0
65 -65 0 -65 0 0 65 0 65 65 0 65 0 0 60 0 60 65 0 65 0 0 65 0 65 -65 0 -65
0 0 65 0 65 65 0 65 0 0 60 0 60 -65 0 -65 0 0 65 0 65 65 0 65 0 0 65 0 65
-65 0 -65 0 0 60 0 60 -65 0 -65 0 0 65 0 65 65 0 65 0 0 65 0 65 -65 0 -65 0
0 60 0 60 65 0 65 0 0 65 0 65 65 0 65 0 0 60 0 60 -65 0 -65 0 0 65 0 65 65
0 65 0 0 65 0 65 -65 0 -65 0 0 60 0 60 65 0 65 0 0 65 0 65 -65 0 -65 0 0 65
0 65 65 0 65 0 0 60 0 60 -65 0 -65 0 0 65 0 65 65 0 65 0 0 65 0 65 -65 0
-65 0 0 60 0 60 -65 0 -65 0 0 65 0 65 -60 0 -60 0 0 65 0 65 -65 0 -65 0 0
60 0 60 -65 0 -65 0 0 65 0 65 65 0 65 0 0 65 0 65 -65 0 -65 0 0 60 0 60 -60
0 -60 0 0 65 0 65 -130 0 -130 0 0 -65 0 -65 -125 0 -125 0 0 65 0 65 125 0
125 0 0 65 0 65 -60 0 -60 0 0 60 0 60 125 0 125 0 0 65 0 65 -65 0 -65 0 0
65 0 65 65 0 65 0 0 -65z m-890 -255 l0 -60 65 0 65 0 0 -65 0 -65 65 0 65 0
0 125 0 125 60 0 60 0 0 -125 0 -125 -60 0 -60 0 0 -65 0 -65 -65 0 -65 0 0
-60 0 -60 -65 0 -65 0 0 190 0 190 -60 0 -60 0 0 60 0 60 60 0 60 0 0 -60z
m-250 -255 l0 -65 65 0 65 0 0 -190 0 -190 -65 0 -65 0 0 -60 0 -60 -65 0 -65
0 0 -65 0 -65 -60 0 -60 0 0 190 0 190 -65 0 -65 0 0 65 0 65 65 0 65 0 0 -65
0 -65 60 0 60 0 0 -65 0 -65 65 0 65 0 0 190 0 190 -65 0 -65 0 0 65 0 65 65
0 65 0 0 -65z m890 -250 l0 -65 60 0 60 0 0 -65 0 -65 65 0 65 0 0 130 0 130
65 0 65 0 0 -130 0 -130 -65 0 -65 0 0 -60 0 -60 125 0 125 0 0 -65 0 -65
-125 0 -125 0 0 65 0 65 -65 0 -65 0 0 -65 0 -65 -60 0 -60 0 0 190 0 190
-190 0 -190 0 0 65 0 65 190 0 190 0 0 -65z m-260 -255 l0 -60 65 0 65 0 0
-190 0 -190 -65 0 -65 0 0 -65 0 -65 190 0 190 0 0 -65 0 -65 65 0 65 0 0
-190 0 -190 -65 0 -65 0 0 -60 0 -60 -60 0 -60 0 0 -65 0 -65 -65 0 -65 0 0
190 0 190 -190 0 -190 0 0 65 0 65 190 0 190 0 0 -65 0 -65 65 0 65 0 0 -65 0
-65 60 0 60 0 0 190 0 190 -190 0 -190 0 0 65 0 65 -60 0 -60 0 0 -65 0 -65
-65 0 -65 0 0 190 0 190 -190 0 -190 0 0 65 0 65 190 0 190 0 0 -65 0 -65 65
0 65 0 0 -60 0 -60 60 0 60 0 0 190 0 190 -190 0 -190 0 0 60 0 60 190 0 190
0 0 -60z m640 -380 l0 -60 60 0 60 0 0 -65 0 -65 65 0 65 0 0 65 0 65 65 0 65
0 0 -65 0 -65 -65 0 -65 0 0 -65 0 -65 -65 0 -65 0 0 -60 0 -60 -60 0 -60 0 0
190 0 190 -190 0 -190 0 0 60 0 60 190 0 190 0 0 -60z m-1140 -125 l0 -65 60
0 60 0 0 -190 0 -190 -60 0 -60 0 0 -65 0 -65 190 0 190 0 0 -60 0 -60 60 0
60 0 0 -190 0 -190 -60 0 -60 0 0 -65 0 -65 -65 0 -65 0 0 -60 0 -60 -65 0
-65 0 0 185 0 185 -190 0 -190 0 0 65 0 65 190 0 190 0 0 -65 0 -65 65 0 65 0
0 -60 0 -60 65 0 65 0 0 190 0 190 -190 0 -190 0 0 60 0 60 -65 0 -65 0 0 -60
0 -60 -65 0 -65 0 0 190 0 190 -190 0 -190 0 0 60 0 60 190 0 190 0 0 -60 0
-60 65 0 65 0 0 -65 0 -65 65 0 65 0 0 190 0 190 -190 0 -190 0 0 65 0 65 190
0 190 0 0 -65z m1640 -380 l0 -65 -125 0 -125 0 0 65 0 65 125 0 125 0 0 -65z
m-2150 -130 l0 -65 65 0 65 0 0 -190 0 -190 -65 0 -65 0 0 -60 0 -60 190 0
190 0 0 -65 0 -65 65 0 65 0 0 -190 0 -190 -65 0 -65 0 0 -60 0 -60 -65 0 -65
0 0 -65 0 -65 -60 0 -60 0 0 190 0 190 -130 0 -130 0 0 65 0 65 130 0 130 0 0
-65 0 -65 60 0 60 0 0 -65 0 -65 65 0 65 0 0 190 0 190 -190 0 -190 0 0 65 0
65 -65 0 -65 0 0 60 0 60 65 0 65 0 0 190 0 190 -125 0 -125 0 0 65 0 65 125
0 125 0 0 -65z m2030 -125 l0 -60 60 0 60 0 0 -190 0 -190 -60 0 -60 0 0 -65
0 -65 -65 0 -65 0 0 -60 0 -60 -65 0 -65 0 0 185 0 185 -190 0 -190 0 0 65 0
65 190 0 190 0 0 -65 0 -65 65 0 65 0 0 -60 0 -60 65 0 65 0 0 190 0 190 -190
0 -190 0 0 60 0 60 190 0 190 0 0 -60z m-510 -505 l0 -65 65 0 65 0 0 -190 0
-190 -65 0 -65 0 0 -60 0 -60 -65 0 -65 0 0 -65 0 -65 -60 0 -60 0 0 190 0
190 -190 0 -190 0 0 65 0 65 190 0 190 0 0 -65 0 -65 60 0 60 0 0 -65 0 -65
65 0 65 0 0 190 0 190 -190 0 -190 0 0 65 0 65 190 0 190 0 0 -65z m510 -380
l0 -65 -130 0 -130 0 0 65 0 65 130 0 130 0 0 -65z m-1020 -125 l0 -60 65 0
65 0 0 -190 0 -190 -65 0 -65 0 0 -65 0 -65 -60 0 -60 0 0 -65 0 -65 -65 0
-65 0 0 190 0 190 -190 0 -190 0 0 65 0 65 190 0 190 0 0 -65 0 -65 65 0 65 0
0 -60 0 -60 60 0 60 0 0 190 0 190 -190 0 -190 0 0 60 0 60 190 0 190 0 0 -60z
m1020 -125 l0 -65 60 0 60 0 0 -65 0 -65 -60 0 -60 0 0 65 0 65 -190 0 -190 0
0 65 0 65 190 0 190 0 0 -65z m-260 -255 l0 -60 65 0 65 0 0 -65 0 -65 65 0
65 0 0 65 0 65 60 0 60 0 0 -65 0 -65 -60 0 -60 0 0 -65 0 -65 -65 0 -65 0 0
-60 0 -60 -65 0 -65 0 0 190 0 190 -250 0 -250 0 0 60 0 60 250 0 250 0 0 -60z
m-1260 -125 l0 -65 60 0 60 0 0 -190 0 -190 -60 0 -60 0 0 -65 0 -65 -65 0
-65 0 0 -60 0 -60 -65 0 -65 0 0 190 0 190 -60 0 -60 0 0 60 0 60 60 0 60 0 0
-60 0 -60 65 0 65 0 0 -65 0 -65 65 0 65 0 0 190 0 190 -190 0 -190 0 0 65 0
65 190 0 190 0 0 -65z m1010 -130 l0 -65 65 0 65 0 0 -190 0 -190 -65 0 -65 0
0 -60 0 -60 -65 0 -65 0 0 -65 0 -65 -60 0 -60 0 0 190 0 190 -255 0 -255 0 0
65 0 65 255 0 255 0 0 -65 0 -65 60 0 60 0 0 -65 0 -65 65 0 65 0 0 190 0 190
-190 0 -190 0 0 65 0 65 190 0 190 0 0 -65z m-510 -505 l0 -60 65 0 65 0 0
-190 0 -190 -65 0 -65 0 0 -65 0 -65 -60 0 -60 0 0 -65 0 -65 -65 0 -65 0 0
190 0 190 -255 0 -255 0 0 65 0 65 255 0 255 0 0 -65 0 -65 65 0 65 0 0 -60 0
-60 60 0 60 0 0 190 0 190 -190 0 -190 0 0 60 0 60 190 0 190 0 0 -60z m1020
0 l0 -60 -130 0 -130 0 0 60 0 60 130 0 130 0 0 -60z m-130 -255 l0 -65 -190
0 -190 0 0 65 0 65 190 0 190 0 0 -65z m-1390 -250 l0 -65 60 0 60 0 0 -190 0
-190 -60 0 -60 0 0 -65 0 -65 -65 0 -65 0 0 65 0 65 65 0 65 0 0 190 0 190
-65 0 -65 0 0 65 0 65 65 0 65 0 0 -65z m1140 0 l0 -65 60 0 60 0 0 -190 0
-190 -60 0 -60 0 0 -65 0 -65 125 0 125 0 0 -60 0 -60 -125 0 -125 0 0 60 0
60 -65 0 -65 0 0 -60 0 -60 -65 0 -65 0 0 190 0 190 -190 0 -190 0 0 60 0 60
190 0 190 0 0 -60 0 -60 65 0 65 0 0 -65 0 -65 65 0 65 0 0 190 0 190 -190 0
-190 0 0 65 0 65 190 0 190 0 0 -65z m380 0 l0 -65 -65 0 -65 0 0 65 0 65 65
0 65 0 0 -65z m-890 -510 l0 -65 65 0 65 0 0 -190 0 -190 -65 0 -65 0 0 -60 0
-60 190 0 190 0 0 -65 0 -65 -190 0 -190 0 0 65 0 65 -65 0 -65 0 0 -65 0 -65
-60 0 -60 0 0 190 0 190 -190 0 -190 0 0 65 0 65 190 0 190 0 0 -65 0 -65 60
0 60 0 0 -65 0 -65 65 0 65 0 0 190 0 190 -190 0 -190 0 0 65 0 65 190 0 190
0 0 -65z m510 -380 l0 -65 -130 0 -130 0 0 65 0 65 130 0 130 0 0 -65z m-1020
-125 l0 -60 65 0 65 0 0 -190 0 -190 -65 0 -65 0 0 190 0 190 -60 0 -60 0 0
60 0 60 60 0 60 0 0 -60z m640 -380 l0 -60 60 0 60 0 0 -65 0 -65 65 0 65 0 0
125 0 125 65 0 65 0 0 -125 0 -125 -65 0 -65 0 0 -65 0 -65 -65 0 -65 0 0 -60
0 -60 -60 0 -60 0 0 190 0 190 -190 0 -190 0 0 60 0 60 190 0 190 0 0 -60z
m-260 -255 l0 -65 65 0 65 0 0 -185 0 -185 -65 0 -65 0 0 -65 0 -65 -60 0 -60
0 0 -65 0 -65 -65 0 -65 0 0 190 0 190 -65 0 -65 0 0 65 0 65 65 0 65 0 0 -65
0 -65 65 0 65 0 0 -60 0 -60 60 0 60 0 0 185 0 185 -190 0 -190 0 0 65 0 65
190 0 190 0 0 -65z m640 -250 l0 -65 -65 0 -65 0 0 65 0 65 65 0 65 0 0 -65z
m-760 -2025 l0 -60 60 0 60 0 0 -190 0 -190 -60 0 -60 0 0 -65 0 -65 -65 0
-65 0 0 65 0 65 65 0 65 0 0 190 0 190 -65 0 -65 0 0 60 0 60 65 0 65 0 0 -60z
m380 -760 l0 -60 60 0 60 0 0 -65 0 -65 65 0 65 0 0 125 0 125 65 0 65 0 0
-125 0 -125 -65 0 -65 0 0 -65 0 -65 190 0 190 0 0 -60 0 -60 65 0 65 0 0
-190 0 -190 -65 0 -65 0 0 190 0 190 -190 0 -190 0 0 60 0 60 -65 0 -65 0 0
-60 0 -60 -60 0 -60 0 0 190 0 190 -190 0 -190 0 0 60 0 60 190 0 190 0 0 -60z
m760 -125 l0 -65 -65 0 -65 0 0 65 0 65 65 0 65 0 0 -65z m-1020 -320 l0 -125
65 0 65 0 0 -65 0 -65 65 0 65 0 0 -60 0 -60 125 0 125 0 0 -65 0 -65 760 0
760 0 0 65 0 65 125 0 125 0 0 60 0 60 65 0 65 0 0 65 0 65 60 0 60 0 0 125 0
125 65 0 65 0 0 -250 0 -250 -65 0 -65 0 0 -65 0 -65 -60 0 -60 0 0 -65 0 -65
-65 0 -65 0 0 -60 0 -60 -125 0 -125 0 0 -65 0 -65 -825 0 -825 0 0 65 0 65
-60 0 -60 0 0 60 0 60 -65 0 -65 0 0 65 0 65 -65 0 -65 0 0 125 0 125 -60 0
-60 0 0 190 0 190 60 0 60 0 0 -125z m1270 0 l0 -125 -65 0 -65 0 0 125 0 125
65 0 65 0 0 -125z m-630 -190 l0 -65 60 0 60 0 0 -60 0 -60 -60 0 -60 0 0 60
0 60 -130 0 -130 0 0 65 0 65 130 0 130 0 0 -65z m1140 0 l0 -65 60 0 60 0 0
-60 0 -60 -60 0 -60 0 0 60 0 60 -190 0 -190 0 0 65 0 65 190 0 190 0 0 -65z"/>
<path d="M4450 12625 l0 -65 -65 0 -65 0 0 -60 0 -60 65 0 65 0 0 -65 0 -65
60 0 60 0 0 -65 0 -65 65 0 65 0 0 -60 0 -60 65 0 65 0 0 -65 0 -65 -65 0 -65
0 0 -65 0 -65 65 0 65 0 0 -60 0 -60 60 0 60 0 0 -65 0 -65 65 0 65 0 0 -65 0
-65 65 0 65 0 0 -60 0 -60 60 0 60 0 0 -65 0 -65 -60 0 -60 0 0 -65 0 -65 60
0 60 0 0 -60 0 -60 -60 0 -60 0 0 -65 0 -65 60 0 60 0 0 -65 0 -65 -60 0 -60
0 0 -60 0 -60 60 0 60 0 0 -65 0 -65 -60 0 -60 0 0 -65 0 -65 60 0 60 0 0 -60
0 -60 -60 0 -60 0 0 -65 0 -65 -65 0 -65 0 0 -60 0 -60 65 0 65 0 0 -65 0 -65
-65 0 -65 0 0 -65 0 -65 65 0 65 0 0 -60 0 -60 60 0 60 0 0 -65 0 -65 -60 0
-60 0 0 -65 0 -65 60 0 60 0 0 -60 0 -60 -60 0 -60 0 0 -65 0 -65 60 0 60 0 0
-65 0 -65 -60 0 -60 0 0 -60 0 -60 -65 0 -65 0 0 -65 0 -65 65 0 65 0 0 -65 0
-65 60 0 60 0 0 -60 0 -60 -60 0 -60 0 0 -65 0 -65 -65 0 -65 0 0 -65 0 -65
65 0 65 0 0 -60 0 -60 60 0 60 0 0 60 0 60 65 0 65 0 0 65 0 65 -65 0 -65 0 0
65 0 65 65 0 65 0 0 60 0 60 -65 0 -65 0 0 65 0 65 65 0 65 0 0 65 0 65 -65 0
-65 0 0 60 0 60 65 0 65 0 0 65 0 65 -65 0 -65 0 0 65 0 65 65 0 65 0 0 60 0
60 -65 0 -65 0 0 65 0 65 65 0 65 0 0 65 0 65 -65 0 -65 0 0 60 0 60 65 0 65
0 0 65 0 65 -65 0 -65 0 0 65 0 65 65 0 65 0 0 60 0 60 -65 0 -65 0 0 65 0 65
65 0 65 0 0 60 0 60 65 0 65 0 0 65 0 65 -65 0 -65 0 0 65 0 65 65 0 65 0 0
60 0 60 -65 0 -65 0 0 65 0 65 65 0 65 0 0 65 0 65 -65 0 -65 0 0 60 0 60 65
0 65 0 0 65 0 65 -65 0 -65 0 0 65 0 65 65 0 65 0 0 60 0 60 -65 0 -65 0 0 65
0 65 -65 0 -65 0 0 65 0 65 -60 0 -60 0 0 60 0 60 -65 0 -65 0 0 65 0 65 -65
0 -65 0 0 65 0 65 65 0 65 0 0 60 0 60 -65 0 -65 0 0 65 0 65 -60 0 -60 0 0
65 0 65 -65 0 -65 0 0 60 0 60 -65 0 -65 0 0 65 0 65 -60 0 -60 0 0 -65z m120
-125 l0 -60 65 0 65 0 0 -65 0 -65 65 0 65 0 0 -65 0 -65 60 0 60 0 0 -60 0
-60 -60 0 -60 0 0 60 0 60 -65 0 -65 0 0 65 0 65 -65 0 -65 0 0 65 0 65 -60 0
-60 0 0 60 0 60 60 0 60 0 0 -60z m380 -635 l0 -65 65 0 65 0 0 -60 0 -60 65
0 65 0 0 -65 0 -65 60 0 60 0 0 -65 0 -65 65 0 65 0 0 -60 0 -60 -65 0 -65 0
0 60 0 60 -60 0 -60 0 0 65 0 65 -65 0 -65 0 0 65 0 65 -65 0 -65 0 0 60 0 60
-60 0 -60 0 0 65 0 65 60 0 60 0 0 -65z m510 -760 l0 -65 -65 0 -65 0 0 65 0
65 65 0 65 0 0 -65z m0 -250 l0 -65 -65 0 -65 0 0 65 0 65 65 0 65 0 0 -65z
m0 -255 l0 -60 -65 0 -65 0 0 60 0 60 65 0 65 0 0 -60z m0 -255 l0 -65 -65 0
-65 0 0 65 0 65 65 0 65 0 0 -65z m-130 -375 l0 -60 -60 0 -60 0 0 60 0 60 60
0 60 0 0 -60z m0 -255 l0 -65 -60 0 -60 0 0 65 0 65 60 0 60 0 0 -65z m0
-1010 l0 -65 -60 0 -60 0 0 65 0 65 60 0 60 0 0 -65z m0 -510 l0 -65 -60 0
-60 0 0 65 0 65 60 0 60 0 0 -65z"/>
<path d="M5210 7815 l0 -65 -65 0 -65 0 0 -60 0 -60 -65 0 -65 0 0 -65 0 -65
65 0 65 0 0 -65 0 -65 -65 0 -65 0 0 -60 0 -60 65 0 65 0 0 -65 0 -65 -65 0
-65 0 0 -65 0 -65 -60 0 -60 0 0 -60 0 -60 -65 0 -65 0 0 -65 0 -65 65 0 65 0
0 -65 0 -65 -65 0 -65 0 0 -60 0 -60 65 0 65 0 0 -65 0 -65 -65 0 -65 0 0 -65
0 -65 65 0 65 0 0 -60 0 -60 -65 0 -65 0 0 -65 0 -65 65 0 65 0 0 -60 0 -60
-65 0 -65 0 0 -65 0 -65 65 0 65 0 0 65 0 65 60 0 60 0 0 -65 0 -65 65 0 65 0
0 -65 0 -65 65 0 65 0 0 -60 0 -60 60 0 60 0 0 60 0 60 -60 0 -60 0 0 65 0 65
60 0 60 0 0 65 0 65 -60 0 -60 0 0 60 0 60 -65 0 -65 0 0 65 0 65 65 0 65 0 0
60 0 60 -65 0 -65 0 0 65 0 65 65 0 65 0 0 65 0 65 -65 0 -65 0 0 60 0 60 65
0 65 0 0 65 0 65 -65 0 -65 0 0 65 0 65 65 0 65 0 0 60 0 60 60 0 60 0 0 65 0
65 -60 0 -60 0 0 65 0 65 60 0 60 0 0 60 0 60 -60 0 -60 0 0 65 0 65 60 0 60
0 0 65 0 65 -60 0 -60 0 0 60 0 60 60 0 60 0 0 65 0 65 -60 0 -60 0 0 -65z m0
-250 l0 -65 -65 0 -65 0 0 65 0 65 65 0 65 0 0 -65z m0 -255 l0 -60 -65 0 -65
0 0 60 0 60 65 0 65 0 0 -60z m0 -255 l0 -65 -65 0 -65 0 0 -60 0 -60 -65 0
-65 0 0 -65 0 -65 65 0 65 0 0 -65 0 -65 -65 0 -65 0 0 -60 0 -60 65 0 65 0 0
-65 0 -65 -65 0 -65 0 0 -65 0 -65 65 0 65 0 0 -60 0 -60 -65 0 -65 0 0 -65 0
-65 65 0 65 0 0 -60 0 -60 65 0 65 0 0 -65 0 -65 -65 0 -65 0 0 65 0 65 -65 0
-65 0 0 60 0 60 -60 0 -60 0 0 65 0 65 60 0 60 0 0 60 0 60 -60 0 -60 0 0 65
0 65 60 0 60 0 0 65 0 65 -60 0 -60 0 0 60 0 60 60 0 60 0 0 65 0 65 -60 0
-60 0 0 65 0 65 60 0 60 0 0 60 0 60 65 0 65 0 0 65 0 65 65 0 65 0 0 -65z"/>
<path d="M4450 5285 l0 -65 60 0 60 0 0 -60 0 -60 65 0 65 0 0 -65 0 -65 -65
0 -65 0 0 -65 0 -65 -60 0 -60 0 0 -60 0 -60 60 0 60 0 0 -65 0 -65 65 0 65 0
0 65 0 65 -65 0 -65 0 0 60 0 60 65 0 65 0 0 65 0 65 65 0 65 0 0 65 0 65 60
0 60 0 0 60 0 60 -60 0 -60 0 0 -60 0 -60 -65 0 -65 0 0 60 0 60 -65 0 -65 0
0 65 0 65 -60 0 -60 0 0 -65z"/>
<path d="M4950 4525 l0 -65 65 0 65 0 0 -60 0 -60 -65 0 -65 0 0 -65 0 -65
-60 0 -60 0 0 -65 0 -65 -65 0 -65 0 0 -60 0 -60 65 0 65 0 0 60 0 60 60 0 60
0 0 -60 0 -60 65 0 65 0 0 60 0 60 65 0 65 0 0 -60 0 -60 60 0 60 0 0 60 0 60
65 0 65 0 0 -60 0 -60 65 0 65 0 0 60 0 60 60 0 60 0 0 65 0 65 -60 0 -60 0 0
65 0 65 -65 0 -65 0 0 -65 0 -65 -65 0 -65 0 0 65 0 65 -60 0 -60 0 0 60 0 60
-65 0 -65 0 0 65 0 65 -65 0 -65 0 0 -65z m380 -380 l0 -65 -60 0 -60 0 0 65
0 65 60 0 60 0 0 -65z m260 0 l0 -65 -65 0 -65 0 0 65 0 65 65 0 65 0 0 -65z"/>
<path d="M4190 4020 l0 -60 65 0 65 0 0 -65 0 -65 65 0 65 0 0 65 0 65 60 0
60 0 0 60 0 60 -60 0 -60 0 0 -60 0 -60 -65 0 -65 0 0 60 0 60 -65 0 -65 0 0
-60z"/>
<path d="M4320 3640 l0 -60 65 0 65 0 0 60 0 60 -65 0 -65 0 0 -60z"/>
<path d="M4570 3640 l0 -60 65 0 65 0 0 60 0 60 -65 0 -65 0 0 -60z"/>
<path d="M5330 3385 l0 -65 65 0 65 0 0 -60 0 -60 -65 0 -65 0 0 -65 0 -65 65
0 65 0 0 -65 0 -65 65 0 65 0 0 65 0 65 60 0 60 0 0 65 0 65 65 0 65 0 0 60 0
60 -65 0 -65 0 0 65 0 65 -60 0 -60 0 0 -65 0 -65 -65 0 -65 0 0 65 0 65 -65
0 -65 0 0 -65z m380 -125 l0 -60 -60 0 -60 0 0 -65 0 -65 -65 0 -65 0 0 65 0
65 65 0 65 0 0 60 0 60 60 0 60 0 0 -60z"/>
</g>
</svg>
