<?xml version="1.0" standalone="no"?>
<!DOCTYPE svg PUBLIC "-//W3C//DTD SVG 20010904//EN"
 "http://www.w3.org/TR/2001/REC-SVG-20010904/DTD/svg10.dtd">
<svg version="1.0" xmlns="http://www.w3.org/2000/svg"
 width="1490.000000pt" height="1481.000000pt" viewBox="0 0 1490.000000 1481.000000"
 preserveAspectRatio="xMidYMid meet">

<g transform="translate(0.000000,1481.000000) scale(0.100000,-0.100000)"
fill="#000000" stroke="none">
<path d="M5510 13420 l0 -60 -120 0 -120 0 0 -65 0 -65 -190 0 -190 0 0 -60 0
-60 -120 0 -120 0 0 -65 0 -65 -125 0 -125 0 0 -60 0 -60 -125 0 -125 0 0 -60
0 -60 -60 0 -60 0 0 -65 0 -65 -65 0 -65 0 0 -60 0 -60 -60 0 -60 0 0 -65 0
-65 -60 0 -60 0 0 -60 0 -60 -65 0 -65 0 0 -60 0 -60 -60 0 -60 0 0 -65 0 -65
-65 0 -65 0 0 -60 0 -60 -60 0 -60 0 0 -65 0 -65 -60 0 -60 0 0 -60 0 -60 -65
0 -65 0 0 -125 0 -125 -60 0 -60 0 0 -120 0 -120 -65 0 -65 0 0 -250 0 -250
-60 0 -60 0 0 -185 0 -185 -60 0 -60 0 0 -375 0 -375 -65 0 -65 0 0 -930 0
-930 65 0 65 0 0 -555 0 -555 60 0 60 0 0 -185 0 -185 60 0 60 0 0 -185 0
-185 65 0 65 0 0 -190 0 -190 60 0 60 0 0 -60 0 -60 65 0 65 0 0 -125 0 -125
60 0 60 0 0 -125 0 -125 60 0 60 0 0 -60 0 -60 65 0 65 0 0 -60 0 -60 60 0 60
0 0 -65 0 -65 65 0 65 0 0 -125 0 -125 60 0 60 0 0 -60 0 -60 60 0 60 0 0 -60
0 -60 65 0 65 0 0 -65 0 -65 125 0 125 0 0 -60 0 -60 60 0 60 0 0 -65 0 -65
125 0 125 0 0 -60 0 -60 120 0 120 0 0 -60 0 -60 435 0 435 0 0 -65 0 -65 185
0 185 0 0 -60 0 -60 125 0 125 0 0 -65 0 -65 125 0 125 0 0 -60 0 -60 125 0
125 0 0 -60 0 -60 185 0 185 0 0 -65 0 -65 125 0 125 0 0 -60 0 -60 60 0 60 0
0 -65 0 -65 125 0 125 0 0 -60 0 -60 125 0 125 0 0 -60 0 -60 125 0 125 0 0
-65 0 -65 60 0 60 0 0 -60 0 -60 125 0 125 0 0 -60 0 -60 60 0 60 0 0 -65 0
-65 125 0 125 0 0 -60 0 -60 60 0 60 0 0 -65 0 -65 65 0 65 0 0 -60 0 -60 60
0 60 0 0 -60 0 -60 250 0 250 0 0 60 0 60 60 0 60 0 0 60 0 60 60 0 60 0 0 65
0 65 65 0 65 0 0 60 0 60 60 0 60 0 0 65 0 65 65 0 65 0 0 60 0 60 60 0 60 0
0 125 0 125 60 0 60 0 0 185 0 185 -60 0 -60 0 0 60 0 60 -60 0 -60 0 0 65 0
65 -65 0 -65 0 0 60 0 60 -60 0 -60 0 0 60 0 60 -65 0 -65 0 0 65 0 65 -60 0
-60 0 0 60 0 60 -60 0 -60 0 0 65 0 65 -65 0 -65 0 0 60 0 60 -60 0 -60 0 0
60 0 60 -65 0 -65 0 0 65 0 65 -60 0 -60 0 0 60 0 60 -60 0 -60 0 0 65 0 65
-65 0 -65 0 0 185 0 185 -60 0 -60 0 0 125 0 125 -60 0 -60 0 0 120 0 120 60
0 60 0 0 125 0 125 60 0 60 0 0 65 0 65 65 0 65 0 0 60 0 60 60 0 60 0 0 60 0
60 125 0 125 0 0 65 0 65 125 0 125 0 0 125 0 125 495 0 495 0 0 -65 0 -65 60
0 60 0 0 -60 0 -60 65 0 65 0 0 -65 0 -65 60 0 60 0 0 -60 0 -60 60 0 60 0 0
-60 0 -60 65 0 65 0 0 -65 0 -65 60 0 60 0 0 -60 0 -60 65 0 65 0 0 -65 0 -65
245 0 245 0 0 65 0 65 65 0 65 0 0 60 0 60 60 0 60 0 0 65 0 65 60 0 60 0 0
60 0 60 65 0 65 0 0 60 0 60 60 0 60 0 0 250 0 250 -60 0 -60 0 0 60 0 60 -65
0 -65 0 0 125 0 125 -60 0 -60 0 0 65 0 65 -60 0 -60 0 0 60 0 60 -65 0 -65 0
0 60 0 60 -60 0 -60 0 0 125 0 125 -65 0 -65 0 0 185 0 185 -60 0 -60 0 0 125
0 125 -60 0 -60 0 0 125 0 125 -65 0 -65 0 0 125 0 125 -60 0 -60 0 0 120 0
120 -65 0 -65 0 0 65 0 65 65 0 65 0 0 60 0 60 125 0 125 0 0 125 0 125 60 0
60 0 0 495 0 495 -60 0 -60 0 0 310 0 310 -65 0 -65 0 0 125 0 125 -60 0 -60
0 0 125 0 125 -65 0 -65 0 0 125 0 125 -60 0 -60 0 0 60 0 60 -60 0 -60 0 0
60 0 60 -65 0 -65 0 0 65 0 65 -60 0 -60 0 0 60 0 60 -65 0 -65 0 0 60 0 60
-60 0 -60 0 0 65 0 65 -60 0 -60 0 0 60 0 60 -65 0 -65 0 0 65 0 65 -60 0 -60
0 0 60 0 60 -125 0 -125 0 0 60 0 60 -60 0 -60 0 0 65 0 65 -65 0 -65 0 0 60
0 60 -125 0 -125 0 0 65 0 65 -60 0 -60 0 0 60 0 60 -60 0 -60 0 0 60 0 60
-310 0 -310 0 0 65 0 65 -65 0 -65 0 0 60 0 60 -370 0 -370 0 0 65 0 65 -250
0 -250 0 0 60 0 60 -930 0 -930 0 0 -60z m620 -125 l0 -65 65 0 65 0 0 65 0
65 60 0 60 0 0 -65 0 -65 65 0 65 0 0 65 0 65 60 0 60 0 0 -65 0 -65 60 0 60
0 0 65 0 65 65 0 65 0 0 -65 0 -65 60 0 60 0 0 65 0 65 65 0 65 0 0 -65 0 -65
60 0 60 0 0 -60 0 -60 60 0 60 0 0 60 0 60 65 0 65 0 0 -60 0 -60 60 0 60 0 0
60 0 60 65 0 65 0 0 -60 0 -60 60 0 60 0 0 -65 0 -65 60 0 60 0 0 65 0 65 65
0 65 0 0 -65 0 -65 60 0 60 0 0 65 0 65 65 0 65 0 0 -65 0 -65 60 0 60 0 0
-60 0 -60 60 0 60 0 0 -60 0 -60 65 0 65 0 0 60 0 60 60 0 60 0 0 -60 0 -60
65 0 65 0 0 60 0 60 60 0 60 0 0 -60 0 -60 125 0 125 0 0 -65 0 -65 60 0 60 0
0 -60 0 -60 125 0 125 0 0 -125 0 -125 125 0 125 0 0 -60 0 -60 60 0 60 0 0
-65 0 -65 60 0 60 0 0 -60 0 -60 65 0 65 0 0 -65 0 -65 60 0 60 0 0 -60 0 -60
65 0 65 0 0 -60 0 -60 120 0 120 0 0 -65 0 -65 65 0 65 0 0 -60 0 -60 60 0 60
0 0 -60 0 -60 65 0 65 0 0 -65 0 -65 60 0 60 0 0 -125 0 -125 60 0 60 0 0
-185 0 -185 125 0 125 0 0 -125 0 -125 -60 0 -60 0 0 -60 0 -60 60 0 60 0 0
-60 0 -60 -60 0 -60 0 0 -65 0 -65 60 0 60 0 0 -60 0 -60 65 0 65 0 0 -310 0
-310 -190 0 -190 0 0 60 0 60 -120 0 -120 0 0 65 0 65 -125 0 -125 0 0 120 0
120 -65 0 -65 0 0 125 0 125 -60 0 -60 0 0 -185 0 -185 60 0 60 0 0 -60 0 -60
-60 0 -60 0 0 60 0 60 -60 0 -60 0 0 -60 0 -60 -190 0 -190 0 0 -65 0 -65
-245 0 -245 0 0 -60 0 -60 -65 0 -65 0 0 60 0 60 -120 0 -120 0 0 -125 0 -125
-65 0 -65 0 0 -60 0 -60 -60 0 -60 0 0 -60 0 -60 -60 0 -60 0 0 -65 0 -65 -65
0 -65 0 0 -60 0 -60 -60 0 -60 0 0 -65 0 -65 -65 0 -65 0 0 65 0 65 -120 0
-120 0 0 -65 0 -65 60 0 60 0 0 -60 0 -60 60 0 60 0 0 -60 0 -60 -60 0 -60 0
0 -65 0 -65 -60 0 -60 0 0 -310 0 -310 -65 0 -65 0 0 -185 0 -185 -60 0 -60 0
0 -60 0 -60 60 0 60 0 0 -310 0 -310 -125 0 -125 0 0 -65 0 -65 125 0 125 0 0
-185 0 -185 65 0 65 0 0 -185 0 -185 60 0 60 0 0 -185 0 -185 60 0 60 0 0 -65
0 -65 65 0 65 0 0 -120 0 -120 -65 0 -65 0 0 -65 0 -65 125 0 125 0 0 -60 0
-60 65 0 65 0 0 -185 0 -185 60 0 60 0 0 -65 0 -65 60 0 60 0 0 -60 0 -60 65
0 65 0 0 -65 0 -65 60 0 60 0 0 -60 0 -60 60 0 60 0 0 -60 0 -60 65 0 65 0 0
-65 0 -65 60 0 60 0 0 -60 0 -60 65 0 65 0 0 -65 0 -65 60 0 60 0 0 -60 0 -60
60 0 60 0 0 -60 0 -60 65 0 65 0 0 -65 0 -65 60 0 60 0 0 -60 0 -60 65 0 65 0
0 -65 0 -65 60 0 60 0 0 -60 0 -60 -60 0 -60 0 0 -125 0 -125 -65 0 -65 0 0
-60 0 -60 -125 0 -125 0 0 -125 0 -125 -60 0 -60 0 0 -60 0 -60 -60 0 -60 0 0
-65 0 -65 -65 0 -65 0 0 -60 0 -60 -60 0 -60 0 0 60 0 60 -65 0 -65 0 0 65 0
65 -60 0 -60 0 0 60 0 60 -60 0 -60 0 0 65 0 65 -65 0 -65 0 0 60 0 60 -120 0
-120 0 0 60 0 60 -65 0 -65 0 0 65 0 65 -125 0 -125 0 0 60 0 60 -60 0 -60 0
0 60 0 60 -125 0 -125 0 0 65 0 65 -125 0 -125 0 0 60 0 60 -120 0 -120 0 0
65 0 65 -65 0 -65 0 0 60 0 60 -125 0 -125 0 0 60 0 60 -185 0 -185 0 0 65 0
65 -125 0 -125 0 0 60 0 60 -120 0 -120 0 0 65 0 65 -125 0 -125 0 0 60 0 60
-125 0 -125 0 0 60 0 60 -125 0 -125 0 0 65 0 65 -60 0 -60 0 0 -65 0 -65 -65
0 -65 0 0 65 0 65 -60 0 -60 0 0 -65 0 -65 -60 0 -60 0 0 65 0 65 -65 0 -65 0
0 -65 0 -65 -60 0 -60 0 0 65 0 65 -65 0 -65 0 0 60 0 60 -60 0 -60 0 0 65 0
65 -60 0 -60 0 0 -65 0 -65 -65 0 -65 0 0 65 0 65 -60 0 -60 0 0 60 0 60 -60
0 -60 0 0 60 0 60 -65 0 -65 0 0 65 0 65 -60 0 -60 0 0 60 0 60 -65 0 -65 0 0
65 0 65 -60 0 -60 0 0 60 0 60 -60 0 -60 0 0 60 0 60 60 0 60 0 0 -60 0 -60
60 0 60 0 0 60 0 60 65 0 65 0 0 -60 0 -60 60 0 60 0 0 60 0 60 65 0 65 0 0
-60 0 -60 60 0 60 0 0 60 0 60 60 0 60 0 0 65 0 65 -60 0 -60 0 0 60 0 60 -60
0 -60 0 0 -60 0 -60 -65 0 -65 0 0 60 0 60 -60 0 -60 0 0 -60 0 -60 -65 0 -65
0 0 60 0 60 -60 0 -60 0 0 -60 0 -60 -60 0 -60 0 0 60 0 60 -65 0 -65 0 0 -60
0 -60 -60 0 -60 0 0 60 0 60 -65 0 -65 0 0 65 0 65 65 0 65 0 0 60 0 60 -65 0
-65 0 0 60 0 60 -60 0 -60 0 0 65 0 65 -60 0 -60 0 0 60 0 60 60 0 60 0 0 65
0 65 -60 0 -60 0 0 60 0 60 60 0 60 0 0 60 0 60 -60 0 -60 0 0 65 0 65 -65 0
-65 0 0 60 0 60 65 0 65 0 0 -60 0 -60 60 0 60 0 0 60 0 60 60 0 60 0 0 -60 0
-60 65 0 65 0 0 60 0 60 60 0 60 0 0 -60 0 -60 65 0 65 0 0 -65 0 -65 60 0 60
0 0 65 0 65 60 0 60 0 0 -65 0 -65 65 0 65 0 0 65 0 65 60 0 60 0 0 -65 0 -65
370 0 370 0 0 65 0 65 -245 0 -245 0 0 60 0 60 -60 0 -60 0 0 65 0 65 -65 0
-65 0 0 -65 0 -65 -60 0 -60 0 0 65 0 65 -65 0 -65 0 0 -65 0 -65 -60 0 -60 0
0 65 0 65 -60 0 -60 0 0 60 0 60 -65 0 -65 0 0 -60 0 -60 -60 0 -60 0 0 60 0
60 -65 0 -65 0 0 -60 0 -60 -60 0 -60 0 0 60 0 60 -60 0 -60 0 0 -60 0 -60
-65 0 -65 0 0 60 0 60 -60 0 -60 0 0 60 0 60 60 0 60 0 0 65 0 65 -60 0 -60 0
0 60 0 60 -65 0 -65 0 0 60 0 60 65 0 65 0 0 65 0 65 -65 0 -65 0 0 60 0 60
65 0 65 0 0 65 0 65 -65 0 -65 0 0 60 0 60 65 0 65 0 0 60 0 60 -65 0 -65 0 0
65 0 65 65 0 65 0 0 -65 0 -65 60 0 60 0 0 65 0 65 65 0 65 0 0 -65 0 -65 60
0 60 0 0 65 0 65 60 0 60 0 0 -65 0 -65 65 0 65 0 0 65 0 65 60 0 60 0 0 -65
0 -65 65 0 65 0 0 -60 0 -60 60 0 60 0 0 60 0 60 60 0 60 0 0 -60 0 -60 65 0
65 0 0 185 0 185 -65 0 -65 0 0 65 0 65 -60 0 -60 0 0 -65 0 -65 -60 0 -60 0
0 65 0 65 -65 0 -65 0 0 -65 0 -65 -60 0 -60 0 0 65 0 65 -65 0 -65 0 0 -65 0
-65 -60 0 -60 0 0 65 0 65 -60 0 -60 0 0 -65 0 -65 -65 0 -65 0 0 65 0 65 -60
0 -60 0 0 -65 0 -65 -65 0 -65 0 0 65 0 65 -60 0 -60 0 0 60 0 60 60 0 60 0 0
60 0 60 -60 0 -60 0 0 65 0 65 60 0 60 0 0 60 0 60 -60 0 -60 0 0 65 0 65 60
0 60 0 0 60 0 60 -60 0 -60 0 0 60 0 60 60 0 60 0 0 65 0 65 -60 0 -60 0 0 60
0 60 60 0 60 0 0 65 0 65 -60 0 -60 0 0 60 0 60 60 0 60 0 0 60 0 60 65 0 65
0 0 65 0 65 60 0 60 0 0 60 0 60 -60 0 -60 0 0 65 0 65 -65 0 -65 0 0 60 0 60
65 0 65 0 0 60 0 60 60 0 60 0 0 65 0 65 -60 0 -60 0 0 60 0 60 60 0 60 0 0
65 0 65 65 0 65 0 0 60 0 60 -65 0 -65 0 0 60 0 60 65 0 65 0 0 65 0 65 -65 0
-65 0 0 60 0 60 65 0 65 0 0 65 0 65 60 0 60 0 0 60 0 60 60 0 60 0 0 60 0 60
65 0 65 0 0 -60 0 -60 60 0 60 0 0 60 0 60 65 0 65 0 0 65 0 65 60 0 60 0 0
60 0 60 60 0 60 0 0 60 0 60 -60 0 -60 0 0 65 0 65 -60 0 -60 0 0 -65 0 -65
-65 0 -65 0 0 -60 0 -60 -60 0 -60 0 0 60 0 60 60 0 60 0 0 65 0 65 65 0 65 0
0 60 0 60 60 0 60 0 0 65 0 65 60 0 60 0 0 60 0 60 65 0 65 0 0 60 0 60 60 0
60 0 0 65 0 65 65 0 65 0 0 60 0 60 60 0 60 0 0 -60 0 -60 60 0 60 0 0 60 0
60 65 0 65 0 0 65 0 65 60 0 60 0 0 -65 0 -65 60 0 60 0 0 65 0 65 65 0 65 0
0 60 0 60 60 0 60 0 0 -60 0 -60 65 0 65 0 0 60 0 60 60 0 60 0 0 -60 0 -60
60 0 60 0 0 60 0 60 65 0 65 0 0 -60 0 -60 60 0 60 0 0 60 0 60 185 0 185 0 0
60 0 60 -60 0 -60 0 0 65 0 65 -60 0 -60 0 0 60 0 60 60 0 60 0 0 65 0 65 60
0 60 0 0 -65z m-370 -125 l0 -60 -60 0 -60 0 0 60 0 60 60 0 60 0 0 -60z
m5700 -5205 l0 -65 65 0 65 0 0 -60 0 -60 -65 0 -65 0 0 -65 0 -65 65 0 65 0
0 -60 0 -60 60 0 60 0 0 -60 0 -60 65 0 65 0 0 -65 0 -65 -65 0 -65 0 0 -60 0
-60 65 0 65 0 0 -65 0 -65 60 0 60 0 0 -60 0 -60 -60 0 -60 0 0 -60 0 -60 60
0 60 0 0 -65 0 -65 60 0 60 0 0 -60 0 -60 65 0 65 0 0 -60 0 -60 60 0 60 0 0
-65 0 -65 65 0 65 0 0 -60 0 -60 60 0 60 0 0 -65 0 -65 -60 0 -60 0 0 -60 0
-60 60 0 60 0 0 -60 0 -60 60 0 60 0 0 -65 0 -65 65 0 65 0 0 -60 0 -60 -65 0
-65 0 0 -65 0 -65 -60 0 -60 0 0 -60 0 -60 -60 0 -60 0 0 -60 0 -60 -65 0 -65
0 0 -65 0 -65 -60 0 -60 0 0 -60 0 -60 -65 0 -65 0 0 60 0 60 -60 0 -60 0 0
65 0 65 -60 0 -60 0 0 60 0 60 -65 0 -65 0 0 60 0 60 -60 0 -60 0 0 65 0 65
-65 0 -65 0 0 60 0 60 -60 0 -60 0 0 65 0 65 -60 0 -60 0 0 60 0 60 -65 0 -65
0 0 60 0 60 -60 0 -60 0 0 -60 0 -60 -65 0 -65 0 0 60 0 60 -60 0 -60 0 0 -60
0 -60 -60 0 -60 0 0 60 0 60 60 0 60 0 0 65 0 65 60 0 60 0 0 60 0 60 -60 0
-60 0 0 65 0 65 -60 0 -60 0 0 60 0 60 60 0 60 0 0 60 0 60 -60 0 -60 0 0 65
0 65 -65 0 -65 0 0 -65 0 -65 -60 0 -60 0 0 65 0 65 60 0 60 0 0 60 0 60 65 0
65 0 0 60 0 60 60 0 60 0 0 65 0 65 -60 0 -60 0 0 60 0 60 60 0 60 0 0 65 0
65 -60 0 -60 0 0 60 0 60 60 0 60 0 0 60 0 60 60 0 60 0 0 65 0 65 65 0 65 0
0 60 0 60 60 0 60 0 0 -60 0 -60 65 0 65 0 0 60 0 60 60 0 60 0 0 65 0 65 60
0 60 0 0 -65z"/>
<path d="M6010 13170 l0 -60 60 0 60 0 0 -65 0 -65 65 0 65 0 0 -120 0 -120
310 0 310 0 0 -65 0 -65 125 0 125 0 0 -60 0 -60 185 0 185 0 0 -65 0 -65 125
0 125 0 0 -60 0 -60 120 0 120 0 0 -60 0 -60 125 0 125 0 0 -65 0 -65 125 0
125 0 0 -60 0 -60 125 0 125 0 0 60 0 60 -125 0 -125 0 0 65 0 65 -125 0 -125
0 0 60 0 60 -125 0 -125 0 0 60 0 60 -120 0 -120 0 0 65 0 65 -125 0 -125 0 0
60 0 60 -125 0 -125 0 0 125 0 125 60 0 60 0 0 -60 0 -60 65 0 65 0 0 60 0 60
60 0 60 0 0 -60 0 -60 65 0 65 0 0 60 0 60 60 0 60 0 0 -60 0 -60 60 0 60 0 0
60 0 60 65 0 65 0 0 -60 0 -60 60 0 60 0 0 60 0 60 65 0 65 0 0 -60 0 -60 60
0 60 0 0 60 0 60 -60 0 -60 0 0 60 0 60 -65 0 -65 0 0 -60 0 -60 -60 0 -60 0
0 60 0 60 -65 0 -65 0 0 -60 0 -60 -60 0 -60 0 0 60 0 60 -60 0 -60 0 0 65 0
65 -65 0 -65 0 0 -65 0 -65 -60 0 -60 0 0 65 0 65 -65 0 -65 0 0 -65 0 -65
-60 0 -60 0 0 65 0 65 -60 0 -60 0 0 60 0 60 -65 0 -65 0 0 -60 0 -60 -60 0
-60 0 0 60 0 60 -65 0 -65 0 0 -60 0 -60 -60 0 -60 0 0 60 0 60 -60 0 -60 0 0
-60 0 -60 -65 0 -65 0 0 60 0 60 -60 0 -60 0 0 -60 0 -60 -65 0 -65 0 0 60 0
60 -60 0 -60 0 0 -60z m370 -125 l0 -65 65 0 65 0 0 65 0 65 60 0 60 0 0 -65
0 -65 60 0 60 0 0 65 0 65 65 0 65 0 0 -65 0 -65 60 0 60 0 0 65 0 65 65 0 65
0 0 -65 0 -65 60 0 60 0 0 -60 0 -60 -60 0 -60 0 0 -60 0 -60 -125 0 -125 0 0
120 0 120 -65 0 -65 0 0 -60 0 -60 -60 0 -60 0 0 60 0 60 -60 0 -60 0 0 -60 0
-60 -65 0 -65 0 0 60 0 60 -60 0 -60 0 0 65 0 65 60 0 60 0 0 -65z m1120 -125
l0 -60 -65 0 -65 0 0 60 0 60 65 0 65 0 0 -60z m250 0 l0 -60 -65 0 -65 0 0
60 0 60 65 0 65 0 0 -60z"/>
<path d="M7000 12920 l0 -60 65 0 65 0 0 60 0 60 -65 0 -65 0 0 -60z"/>
<path d="M5020 12675 l0 -65 -65 0 -65 0 0 -60 0 -60 -60 0 -60 0 0 60 0 60
-60 0 -60 0 0 -60 0 -60 -65 0 -65 0 0 -65 0 -65 -60 0 -60 0 0 65 0 65 -60 0
-60 0 0 -65 0 -65 -65 0 -65 0 0 -60 0 -60 -60 0 -60 0 0 -60 0 -60 -65 0 -65
0 0 -65 0 -65 -60 0 -60 0 0 -60 0 -60 60 0 60 0 0 -65 0 -65 65 0 65 0 0 -60
0 -60 -65 0 -65 0 0 -60 0 -60 -60 0 -60 0 0 -65 0 -65 -60 0 -60 0 0 -60 0
-60 -65 0 -65 0 0 -60 0 -60 -60 0 -60 0 0 60 0 60 -65 0 -65 0 0 -60 0 -60
-60 0 -60 0 0 -65 0 -65 -60 0 -60 0 0 -60 0 -60 60 0 60 0 0 -65 0 -65 -60 0
-60 0 0 -60 0 -60 60 0 60 0 0 -60 0 -60 -60 0 -60 0 0 -65 0 -65 -65 0 -65 0
0 -60 0 -60 65 0 65 0 0 -65 0 -65 -65 0 -65 0 0 -60 0 -60 -60 0 -60 0 0 -60
0 -60 60 0 60 0 0 -65 0 -65 65 0 65 0 0 -60 0 -60 -65 0 -65 0 0 -65 0 -65
-60 0 -60 0 0 -60 0 -60 -65 0 -65 0 0 -60 0 -60 65 0 65 0 0 -65 0 -65 -65 0
-65 0 0 -60 0 -60 65 0 65 0 0 -65 0 -65 -65 0 -65 0 0 -60 0 -60 65 0 65 0 0
-60 0 -60 -65 0 -65 0 0 -65 0 -65 65 0 65 0 0 -60 0 -60 -65 0 -65 0 0 -65 0
-65 65 0 65 0 0 -60 0 -60 -65 0 -65 0 0 -60 0 -60 65 0 65 0 0 60 0 60 60 0
60 0 0 -60 0 -60 65 0 65 0 0 60 0 60 60 0 60 0 0 -60 0 -60 60 0 60 0 0 60 0
60 65 0 65 0 0 -60 0 -60 60 0 60 0 0 60 0 60 65 0 65 0 0 -60 0 -60 60 0 60
0 0 60 0 60 60 0 60 0 0 -60 0 -60 65 0 65 0 0 -65 0 -65 60 0 60 0 0 -60 0
-60 65 0 65 0 0 60 0 60 60 0 60 0 0 -60 0 -60 60 0 60 0 0 60 0 60 65 0 65 0
0 65 0 65 -65 0 -65 0 0 60 0 60 -60 0 -60 0 0 60 0 60 60 0 60 0 0 65 0 65
-60 0 -60 0 0 60 0 60 60 0 60 0 0 65 0 65 65 0 65 0 0 60 0 60 60 0 60 0 0
60 0 60 -60 0 -60 0 0 65 0 65 60 0 60 0 0 60 0 60 60 0 60 0 0 65 0 65 -60 0
-60 0 0 -65 0 -65 -60 0 -60 0 0 -60 0 -60 -65 0 -65 0 0 -65 0 -65 -60 0 -60
0 0 -60 0 -60 -60 0 -60 0 0 -60 0 -60 -65 0 -65 0 0 60 0 60 -60 0 -60 0 0
-60 0 -60 -65 0 -65 0 0 60 0 60 -60 0 -60 0 0 -60 0 -60 -60 0 -60 0 0 60 0
60 -65 0 -65 0 0 60 0 60 65 0 65 0 0 65 0 65 -65 0 -65 0 0 60 0 60 65 0 65
0 0 65 0 65 -65 0 -65 0 0 60 0 60 65 0 65 0 0 60 0 60 -65 0 -65 0 0 65 0 65
65 0 65 0 0 60 0 60 245 0 245 0 0 65 0 65 -125 0 -125 0 0 60 0 60 65 0 65 0
0 60 0 60 60 0 60 0 0 65 0 65 65 0 65 0 0 60 0 60 -65 0 -65 0 0 -60 0 -60
-60 0 -60 0 0 60 0 60 -65 0 -65 0 0 65 0 65 65 0 65 0 0 60 0 60 -65 0 -65 0
0 60 0 60 65 0 65 0 0 65 0 65 -65 0 -65 0 0 60 0 60 65 0 65 0 0 65 0 65 60
0 60 0 0 60 0 60 65 0 65 0 0 60 0 60 -65 0 -65 0 0 65 0 65 65 0 65 0 0 60 0
60 60 0 60 0 0 60 0 60 245 0 245 0 0 -60 0 -60 125 0 125 0 0 60 0 60 125 0
125 0 0 -60 0 -60 125 0 125 0 0 60 0 60 -125 0 -125 0 0 65 0 65 -125 0 -125
0 0 -65 0 -65 -125 0 -125 0 0 125 0 125 65 0 65 0 0 65 0 65 60 0 60 0 0 60
0 60 -60 0 -60 0 0 60 0 60 60 0 60 0 0 65 0 65 -60 0 -60 0 0 60 0 60 60 0
60 0 0 65 0 65 -60 0 -60 0 0 -65z m-250 -250 l0 -65 60 0 60 0 0 65 0 65 65
0 65 0 0 -65 0 -65 -65 0 -65 0 0 -60 0 -60 65 0 65 0 0 -60 0 -60 -65 0 -65
0 0 -65 0 -65 -60 0 -60 0 0 -60 0 -60 -60 0 -60 0 0 60 0 60 -65 0 -65 0 0
-60 0 -60 -60 0 -60 0 0 60 0 60 -60 0 -60 0 0 -60 0 -60 -65 0 -65 0 0 60 0
60 -60 0 -60 0 0 -60 0 -60 -65 0 -65 0 0 60 0 60 65 0 65 0 0 65 0 65 60 0
60 0 0 60 0 60 65 0 65 0 0 60 0 60 60 0 60 0 0 -60 0 -60 60 0 60 0 0 60 0
60 65 0 65 0 0 65 0 65 60 0 60 0 0 -65z m-490 -745 l0 -60 -65 0 -65 0 0 -60
0 -60 -60 0 -60 0 0 -65 0 -65 60 0 60 0 0 -60 0 -60 -60 0 -60 0 0 -60 0 -60
-65 0 -65 0 0 -65 0 -65 -60 0 -60 0 0 -60 0 -60 60 0 60 0 0 -65 0 -65 -60 0
-60 0 0 -60 0 -60 60 0 60 0 0 -60 0 -60 -60 0 -60 0 0 -65 0 -65 60 0 60 0 0
-60 0 -60 65 0 65 0 0 -65 0 -65 -65 0 -65 0 0 -60 0 -60 -60 0 -60 0 0 -60 0
-60 -60 0 -60 0 0 60 0 60 -65 0 -65 0 0 -60 0 -60 -60 0 -60 0 0 -65 0 -65
-65 0 -65 0 0 65 0 65 -60 0 -60 0 0 -65 0 -65 -60 0 -60 0 0 65 0 65 -65 0
-65 0 0 60 0 60 65 0 65 0 0 60 0 60 60 0 60 0 0 65 0 65 -60 0 -60 0 0 60 0
60 60 0 60 0 0 65 0 65 60 0 60 0 0 60 0 60 -60 0 -60 0 0 60 0 60 60 0 60 0
0 65 0 65 -60 0 -60 0 0 60 0 60 60 0 60 0 0 65 0 65 65 0 65 0 0 -65 0 -65
60 0 60 0 0 65 0 65 65 0 65 0 0 60 0 60 60 0 60 0 0 60 0 60 60 0 60 0 0 65
0 65 65 0 65 0 0 60 0 60 60 0 60 0 0 60 0 60 65 0 65 0 0 -60z m-1120 -2105
l0 -65 60 0 60 0 0 65 0 65 65 0 65 0 0 -65 0 -65 60 0 60 0 0 -60 0 -60 -60
0 -60 0 0 -60 0 -60 60 0 60 0 0 -65 0 -65 -60 0 -60 0 0 -60 0 -60 60 0 60 0
0 -65 0 -65 -60 0 -60 0 0 -60 0 -60 60 0 60 0 0 -60 0 -60 65 0 65 0 0 -65 0
-65 60 0 60 0 0 65 0 65 60 0 60 0 0 -65 0 -65 65 0 65 0 0 65 0 65 60 0 60 0
0 -65 0 -65 65 0 65 0 0 65 0 65 60 0 60 0 0 60 0 60 60 0 60 0 0 60 0 60 65
0 65 0 0 -60 0 -60 -65 0 -65 0 0 -60 0 -60 -60 0 -60 0 0 -65 0 -65 -60 0
-60 0 0 -60 0 -60 60 0 60 0 0 -65 0 -65 -60 0 -60 0 0 -60 0 -60 60 0 60 0 0
-60 0 -60 60 0 60 0 0 -65 0 -65 -60 0 -60 0 0 65 0 65 -60 0 -60 0 0 -65 0
-65 -65 0 -65 0 0 65 0 65 -60 0 -60 0 0 60 0 60 -65 0 -65 0 0 60 0 60 -60 0
-60 0 0 -60 0 -60 -60 0 -60 0 0 60 0 60 -65 0 -65 0 0 -60 0 -60 -60 0 -60 0
0 60 0 60 -65 0 -65 0 0 -60 0 -60 -60 0 -60 0 0 60 0 60 -60 0 -60 0 0 -60 0
-60 -65 0 -65 0 0 60 0 60 -60 0 -60 0 0 65 0 65 60 0 60 0 0 60 0 60 -60 0
-60 0 0 65 0 65 60 0 60 0 0 60 0 60 -60 0 -60 0 0 60 0 60 60 0 60 0 0 65 0
65 -60 0 -60 0 0 60 0 60 60 0 60 0 0 65 0 65 -60 0 -60 0 0 60 0 60 60 0 60
0 0 60 0 60 65 0 65 0 0 65 0 65 60 0 60 0 0 -65z"/>
<path d="M4650 12300 l0 -60 -65 0 -65 0 0 -60 0 -60 -60 0 -60 0 0 60 0 60
-60 0 -60 0 0 -60 0 -60 -65 0 -65 0 0 -65 0 -65 65 0 65 0 0 65 0 65 60 0 60
0 0 -65 0 -65 60 0 60 0 0 65 0 65 65 0 65 0 0 -65 0 -65 60 0 60 0 0 65 0 65
60 0 60 0 0 60 0 60 -60 0 -60 0 0 60 0 60 -60 0 -60 0 0 -60z m120 -120 l0
-60 -60 0 -60 0 0 60 0 60 60 0 60 0 0 -60z"/>
<path d="M3900 11310 l0 -60 -60 0 -60 0 0 -60 0 -60 -60 0 -60 0 0 -65 0 -65
-65 0 -65 0 0 -60 0 -60 -60 0 -60 0 0 60 0 60 -65 0 -65 0 0 -60 0 -60 65 0
65 0 0 -65 0 -65 -65 0 -65 0 0 -60 0 -60 65 0 65 0 0 -60 0 -60 -65 0 -65 0
0 -65 0 -65 -60 0 -60 0 0 -60 0 -60 60 0 60 0 0 -65 0 -65 -60 0 -60 0 0 -60
0 -60 -60 0 -60 0 0 -60 0 -60 60 0 60 0 0 60 0 60 60 0 60 0 0 -60 0 -60 65
0 65 0 0 60 0 60 60 0 60 0 0 60 0 60 65 0 65 0 0 -60 0 -60 60 0 60 0 0 60 0
60 60 0 60 0 0 65 0 65 -60 0 -60 0 0 60 0 60 -60 0 -60 0 0 65 0 65 60 0 60
0 0 60 0 60 -60 0 -60 0 0 60 0 60 60 0 60 0 0 65 0 65 -60 0 -60 0 0 60 0 60
60 0 60 0 0 65 0 65 60 0 60 0 0 60 0 60 65 0 65 0 0 60 0 60 -65 0 -65 0 0
-60z m-240 -495 l0 -65 -65 0 -65 0 0 -60 0 -60 65 0 65 0 0 -60 0 -60 -65 0
-65 0 0 -65 0 -65 65 0 65 0 0 -60 0 -60 60 0 60 0 0 -65 0 -65 -60 0 -60 0 0
65 0 65 -65 0 -65 0 0 -65 0 -65 -60 0 -60 0 0 -60 0 -60 -65 0 -65 0 0 60 0
60 65 0 65 0 0 65 0 65 -65 0 -65 0 0 60 0 60 65 0 65 0 0 65 0 65 60 0 60 0
0 60 0 60 -60 0 -60 0 0 60 0 60 60 0 60 0 0 65 0 65 65 0 65 0 0 -65z"/>
<path d="M3410 10320 l0 -60 60 0 60 0 0 60 0 60 -60 0 -60 0 0 -60z"/>
<path d="M3040 9450 l0 -60 -65 0 -65 0 0 -60 0 -60 65 0 65 0 0 -65 0 -65
-65 0 -65 0 0 -60 0 -60 65 0 65 0 0 -65 0 -65 -65 0 -65 0 0 -60 0 -60 65 0
65 0 0 -60 0 -60 -65 0 -65 0 0 -65 0 -65 65 0 65 0 0 -60 0 -60 -65 0 -65 0
0 -65 0 -65 65 0 65 0 0 65 0 65 60 0 60 0 0 -65 0 -65 60 0 60 0 0 65 0 65
65 0 65 0 0 -65 0 -65 60 0 60 0 0 65 0 65 65 0 65 0 0 -65 0 -65 60 0 60 0 0
65 0 65 60 0 60 0 0 -65 0 -65 65 0 65 0 0 -60 0 -60 60 0 60 0 0 -60 0 -60
65 0 65 0 0 60 0 60 -65 0 -65 0 0 60 0 60 65 0 65 0 0 65 0 65 -65 0 -65 0 0
60 0 60 -60 0 -60 0 0 -60 0 -60 -65 0 -65 0 0 60 0 60 -60 0 -60 0 0 -60 0
-60 -60 0 -60 0 0 60 0 60 -65 0 -65 0 0 65 0 65 -60 0 -60 0 0 60 0 60 -65 0
-65 0 0 60 0 60 65 0 65 0 0 65 0 65 -65 0 -65 0 0 60 0 60 65 0 65 0 0 65 0
65 -65 0 -65 0 0 60 0 60 65 0 65 0 0 60 0 60 -65 0 -65 0 0 -60 0 -60 -60 0
-60 0 0 60 0 60 -60 0 -60 0 0 -60z m120 -120 l0 -60 60 0 60 0 0 -65 0 -65
-60 0 -60 0 0 -60 0 -60 60 0 60 0 0 -65 0 -65 -60 0 -60 0 0 -60 0 -60 60 0
60 0 0 -60 0 -60 65 0 65 0 0 -65 0 -65 60 0 60 0 0 -60 0 -60 -60 0 -60 0 0
60 0 60 -65 0 -65 0 0 -60 0 -60 -60 0 -60 0 0 60 0 60 -60 0 -60 0 0 65 0 65
60 0 60 0 0 60 0 60 -60 0 -60 0 0 60 0 60 60 0 60 0 0 65 0 65 -60 0 -60 0 0
60 0 60 60 0 60 0 0 65 0 65 -60 0 -60 0 0 60 0 60 60 0 60 0 0 -60z m990
-995 l0 -65 -60 0 -60 0 0 65 0 65 60 0 60 0 0 -65z"/>
<path d="M3160 8585 l0 -65 60 0 60 0 0 65 0 65 -60 0 -60 0 0 -65z"/>
<path d="M8860 11620 l0 -120 125 0 125 0 0 -65 0 -65 60 0 60 0 0 -60 0 -60
65 0 65 0 0 -60 0 -60 60 0 60 0 0 120 0 120 -125 0 -125 0 0 65 0 65 -60 0
-60 0 0 60 0 60 -60 0 -60 0 0 60 0 60 -65 0 -65 0 0 -120z"/>
<path d="M5760 11560 l0 -60 185 0 185 0 0 -65 0 -65 250 0 250 0 0 -60 0 -60
125 0 125 0 0 60 0 60 -125 0 -125 0 0 65 0 65 -250 0 -250 0 0 60 0 60 -185
0 -185 0 0 -60z"/>
<path d="M7000 11190 l0 -60 125 0 125 0 0 -65 0 -65 125 0 125 0 0 -60 0 -60
60 0 60 0 0 125 0 125 -125 0 -125 0 0 60 0 60 -185 0 -185 0 0 -60z"/>
<path d="M9600 11005 l0 -125 65 0 65 0 0 -65 0 -65 60 0 60 0 0 -60 0 -60 65
0 65 0 0 -60 0 -60 60 0 60 0 0 60 0 60 -60 0 -60 0 0 60 0 60 -65 0 -65 0 0
125 0 125 -60 0 -60 0 0 65 0 65 -65 0 -65 0 0 -125z"/>
<path d="M7750 10815 l0 -65 60 0 60 0 0 -60 0 -60 60 0 60 0 0 -60 0 -60 125
0 125 0 0 60 0 60 -125 0 -125 0 0 60 0 60 -60 0 -60 0 0 65 0 65 -60 0 -60 0
0 -65z"/>
<path d="M8370 10320 l0 -60 60 0 60 0 0 -65 0 -65 60 0 60 0 0 -120 0 -120
125 0 125 0 0 -125 0 -125 125 0 125 0 0 -185 0 -185 60 0 60 0 0 -65 0 -65
65 0 65 0 0 125 0 125 -65 0 -65 0 0 125 0 125 -60 0 -60 0 0 60 0 60 -60 0
-60 0 0 65 0 65 -65 0 -65 0 0 60 0 60 -60 0 -60 0 0 60 0 60 -65 0 -65 0 0
65 0 65 -60 0 -60 0 0 60 0 60 -60 0 -60 0 0 -60z"/>
<path d="M10220 10255 l0 -125 125 0 125 0 0 -60 0 -60 65 0 65 0 0 -125 0
-125 60 0 60 0 0 125 0 125 -60 0 -60 0 0 60 0 60 -65 0 -65 0 0 65 0 65 -60
0 -60 0 0 60 0 60 -65 0 -65 0 0 -125z"/>
<path d="M11340 10320 l0 -60 60 0 60 0 0 -65 0 -65 65 0 65 0 0 65 0 65 -65
0 -65 0 0 60 0 60 -60 0 -60 0 0 -60z"/>
<path d="M4280 9825 l0 -65 60 0 60 0 0 -60 0 -60 185 0 185 0 0 60 0 60 -60
0 -60 0 0 65 0 65 -185 0 -185 0 0 -65z"/>
<path d="M5020 9575 l0 -65 310 0 310 0 0 -60 0 -60 60 0 60 0 0 125 0 125
-370 0 -370 0 0 -65z"/>
<path d="M5890 9450 l0 -60 60 0 60 0 0 60 0 60 -60 0 -60 0 0 -60z"/>
<path d="M6130 9330 l0 -60 65 0 65 0 0 60 0 60 -65 0 -65 0 0 -60z"/>
<path d="M6880 9080 l0 -60 125 0 125 0 0 -65 0 -65 185 0 185 0 0 65 0 65
-65 0 -65 0 0 60 0 60 -245 0 -245 0 0 -60z"/>
<path d="M7620 8830 l0 -60 125 0 125 0 0 -60 0 -60 60 0 60 0 0 -65 0 -65 65
0 65 0 0 -60 0 -60 125 0 125 0 0 60 0 60 -65 0 -65 0 0 65 0 65 -125 0 -125
0 0 60 0 60 -60 0 -60 0 0 60 0 60 -125 0 -125 0 0 -60z"/>
<path d="M2910 7590 l0 -60 -60 0 -60 0 0 -60 0 -60 60 0 60 0 0 -65 0 -65
-60 0 -60 0 0 -60 0 -60 60 0 60 0 0 -65 0 -65 -60 0 -60 0 0 -60 0 -60 60 0
60 0 0 -60 0 -60 65 0 65 0 0 -65 0 -65 -65 0 -65 0 0 -60 0 -60 65 0 65 0 0
60 0 60 60 0 60 0 0 -60 0 -60 60 0 60 0 0 60 0 60 65 0 65 0 0 -60 0 -60 60
0 60 0 0 60 0 60 65 0 65 0 0 -60 0 -60 60 0 60 0 0 -60 0 -60 60 0 60 0 0 60
0 60 65 0 65 0 0 -60 0 -60 60 0 60 0 0 60 0 60 -60 0 -60 0 0 60 0 60 -65 0
-65 0 0 65 0 65 65 0 65 0 0 60 0 60 -65 0 -65 0 0 60 0 60 65 0 65 0 0 65 0
65 -65 0 -65 0 0 60 0 60 65 0 65 0 0 65 0 65 -65 0 -65 0 0 60 0 60 -60 0
-60 0 0 -60 0 -60 -60 0 -60 0 0 60 0 60 -65 0 -65 0 0 60 0 60 -60 0 -60 0 0
-60 0 -60 -65 0 -65 0 0 60 0 60 -60 0 -60 0 0 -60 0 -60 -60 0 -60 0 0 60 0
60 -65 0 -65 0 0 -60z m130 -120 l0 -60 60 0 60 0 0 60 0 60 60 0 60 0 0 -60
0 -60 65 0 65 0 0 60 0 60 60 0 60 0 0 -60 0 -60 65 0 65 0 0 -65 0 -65 60 0
60 0 0 65 0 65 60 0 60 0 0 -65 0 -65 -60 0 -60 0 0 -60 0 -60 60 0 60 0 0
-65 0 -65 -60 0 -60 0 0 -60 0 -60 60 0 60 0 0 -60 0 -60 -60 0 -60 0 0 -65 0
-65 60 0 60 0 0 -60 0 -60 -60 0 -60 0 0 60 0 60 -60 0 -60 0 0 65 0 65 -65 0
-65 0 0 -65 0 -65 -60 0 -60 0 0 65 0 65 -65 0 -65 0 0 -65 0 -65 -60 0 -60 0
0 65 0 65 -60 0 -60 0 0 60 0 60 -65 0 -65 0 0 60 0 60 65 0 65 0 0 65 0 65
-65 0 -65 0 0 60 0 60 65 0 65 0 0 65 0 65 -65 0 -65 0 0 60 0 60 65 0 65 0 0
-60z"/>
<path d="M3160 7345 l0 -65 -60 0 -60 0 0 -60 0 -60 60 0 60 0 0 -65 0 -65
-60 0 -60 0 0 -60 0 -60 60 0 60 0 0 -60 0 -60 60 0 60 0 0 60 0 60 65 0 65 0
0 -60 0 -60 60 0 60 0 0 60 0 60 65 0 65 0 0 -60 0 -60 60 0 60 0 0 60 0 60
-60 0 -60 0 0 60 0 60 60 0 60 0 0 65 0 65 -60 0 -60 0 0 60 0 60 -65 0 -65 0
0 65 0 65 -60 0 -60 0 0 -65 0 -65 -65 0 -65 0 0 65 0 65 -60 0 -60 0 0 -65z
m120 -125 l0 -60 65 0 65 0 0 60 0 60 60 0 60 0 0 -60 0 -60 65 0 65 0 0 -65
0 -65 -65 0 -65 0 0 -60 0 -60 -60 0 -60 0 0 60 0 60 -65 0 -65 0 0 -60 0 -60
-60 0 -60 0 0 60 0 60 60 0 60 0 0 65 0 65 -60 0 -60 0 0 60 0 60 60 0 60 0 0
-60z"/>
<path d="M3410 7095 l0 -65 60 0 60 0 0 65 0 65 -60 0 -60 0 0 -65z"/>
<path d="M4520 7590 l0 -60 250 0 250 0 0 -60 0 -60 310 0 310 0 0 60 0 60
-250 0 -250 0 0 60 0 60 -310 0 -310 0 0 -60z"/>
<path d="M5760 7345 l0 -65 65 0 65 0 0 -60 0 -60 185 0 185 0 0 60 0 60 -185
0 -185 0 0 65 0 65 -65 0 -65 0 0 -65z"/>
<path d="M4650 7095 l0 -65 60 0 60 0 0 -60 0 -60 60 0 60 0 0 60 0 60 -60 0
-60 0 0 65 0 65 -60 0 -60 0 0 -65z"/>
<path d="M6380 7095 l0 -65 65 0 65 0 0 -60 0 -60 185 0 185 0 0 -60 0 -60
185 0 185 0 0 60 0 60 -125 0 -125 0 0 60 0 60 -185 0 -185 0 0 65 0 65 -125
0 -125 0 0 -65z"/>
<path d="M7370 6600 l0 -60 65 0 65 0 0 -60 0 -60 125 0 125 0 0 -65 0 -65 60
0 60 0 0 -60 0 -60 60 0 60 0 0 60 0 60 -60 0 -60 0 0 65 0 65 -60 0 -60 0 0
60 0 60 -65 0 -65 0 0 60 0 60 -125 0 -125 0 0 -60z"/>
<path d="M3160 6105 l0 -65 60 0 60 0 0 -60 0 -60 -60 0 -60 0 0 -60 0 -60 60
0 60 0 0 -65 0 -65 -60 0 -60 0 0 -60 0 -60 60 0 60 0 0 -65 0 -65 65 0 65 0
0 -60 0 -60 60 0 60 0 0 -60 0 -60 -60 0 -60 0 0 -65 0 -65 60 0 60 0 0 65 0
65 65 0 65 0 0 -65 0 -65 60 0 60 0 0 65 0 65 60 0 60 0 0 -65 0 -65 65 0 65
0 0 65 0 65 60 0 60 0 0 -65 0 -65 65 0 65 0 0 65 0 65 -65 0 -65 0 0 60 0 60
-60 0 -60 0 0 60 0 60 60 0 60 0 0 65 0 65 -60 0 -60 0 0 60 0 60 -65 0 -65 0
0 65 0 65 65 0 65 0 0 60 0 60 -65 0 -65 0 0 60 0 60 -60 0 -60 0 0 -60 0 -60
-60 0 -60 0 0 60 0 60 -65 0 -65 0 0 65 0 65 -60 0 -60 0 0 -65 0 -65 -65 0
-65 0 0 65 0 65 -60 0 -60 0 0 -65z m370 -125 l0 -60 65 0 65 0 0 -60 0 -60
60 0 60 0 0 60 0 60 60 0 60 0 0 -60 0 -60 -60 0 -60 0 0 -65 0 -65 60 0 60 0
0 -60 0 -60 65 0 65 0 0 -65 0 -65 -65 0 -65 0 0 -60 0 -60 65 0 65 0 0 -60 0
-60 -65 0 -65 0 0 60 0 60 -60 0 -60 0 0 -60 0 -60 -60 0 -60 0 0 60 0 60 -65
0 -65 0 0 60 0 60 -60 0 -60 0 0 65 0 65 -65 0 -65 0 0 60 0 60 65 0 65 0 0
65 0 65 -65 0 -65 0 0 60 0 60 65 0 65 0 0 60 0 60 60 0 60 0 0 -60z"/>
<path d="M3410 5860 l0 -60 60 0 60 0 0 -65 0 -65 -60 0 -60 0 0 -60 0 -60 60
0 60 0 0 -65 0 -65 65 0 65 0 0 -60 0 -60 60 0 60 0 0 60 0 60 60 0 60 0 0 65
0 65 -60 0 -60 0 0 60 0 60 -60 0 -60 0 0 65 0 65 -65 0 -65 0 0 60 0 60 -60
0 -60 0 0 -60z m250 -250 l0 -60 60 0 60 0 0 -65 0 -65 -60 0 -60 0 0 65 0 65
-65 0 -65 0 0 60 0 60 65 0 65 0 0 -60z"/>
<path d="M5020 6105 l0 -65 245 0 245 0 0 65 0 65 -245 0 -245 0 0 -65z"/>
<path d="M5510 5860 l0 -60 190 0 190 0 0 60 0 60 -190 0 -190 0 0 -60z"/>
<path d="M5270 5735 l0 -65 60 0 60 0 0 -60 0 -60 -60 0 -60 0 0 -65 0 -65 60
0 60 0 0 -60 0 -60 -60 0 -60 0 0 -60 0 -60 -65 0 -65 0 0 -65 0 -65 65 0 65
0 0 -60 0 -60 -65 0 -65 0 0 -65 0 -65 -60 0 -60 0 0 65 0 65 -65 0 -65 0 0
-65 0 -65 -60 0 -60 0 0 65 0 65 -60 0 -60 0 0 -65 0 -65 -65 0 -65 0 0 -60 0
-60 -60 0 -60 0 0 -60 0 -60 -60 0 -60 0 0 60 0 60 -65 0 -65 0 0 -60 0 -60
-60 0 -60 0 0 60 0 60 -65 0 -65 0 0 -60 0 -60 65 0 65 0 0 -65 0 -65 60 0 60
0 0 -60 0 -60 65 0 65 0 0 -65 0 -65 60 0 60 0 0 -60 0 -60 60 0 60 0 0 -60 0
-60 65 0 65 0 0 60 0 60 60 0 60 0 0 -60 0 -60 60 0 60 0 0 -65 0 -65 65 0 65
0 0 -60 0 -60 60 0 60 0 0 60 0 60 65 0 65 0 0 -60 0 -60 60 0 60 0 0 60 0 60
60 0 60 0 0 -60 0 -60 65 0 65 0 0 60 0 60 60 0 60 0 0 65 0 65 -60 0 -60 0 0
60 0 60 60 0 60 0 0 60 0 60 65 0 65 0 0 65 0 65 -65 0 -65 0 0 60 0 60 -60 0
-60 0 0 -60 0 -60 -65 0 -65 0 0 60 0 60 -60 0 -60 0 0 65 0 65 185 0 185 0 0
60 0 60 -185 0 -185 0 0 60 0 60 -60 0 -60 0 0 65 0 65 60 0 60 0 0 60 0 60
60 0 60 0 0 65 0 65 65 0 65 0 0 60 0 60 -65 0 -65 0 0 60 0 60 65 0 65 0 0
65 0 65 -65 0 -65 0 0 60 0 60 -60 0 -60 0 0 65 0 65 -60 0 -60 0 0 -65z m240
-250 l0 -65 -60 0 -60 0 0 65 0 65 60 0 60 0 0 -65z m0 -245 l0 -60 -60 0 -60
0 0 -65 0 -65 -60 0 -60 0 0 65 0 65 60 0 60 0 0 60 0 60 60 0 60 0 0 -60z
m-490 -500 l0 -60 60 0 60 0 0 60 0 60 65 0 65 0 0 -60 0 -60 -65 0 -65 0 0
-60 0 -60 65 0 65 0 0 -65 0 -65 60 0 60 0 0 -60 0 -60 60 0 60 0 0 -65 0 -65
65 0 65 0 0 65 0 65 60 0 60 0 0 -65 0 -65 -60 0 -60 0 0 -60 0 -60 -65 0 -65
0 0 -60 0 -60 65 0 65 0 0 -65 0 -65 -65 0 -65 0 0 65 0 65 -60 0 -60 0 0 -65
0 -65 -60 0 -60 0 0 65 0 65 -65 0 -65 0 0 -65 0 -65 -60 0 -60 0 0 65 0 65
-65 0 -65 0 0 60 0 60 -60 0 -60 0 0 60 0 60 -60 0 -60 0 0 -60 0 -60 -65 0
-65 0 0 60 0 60 -60 0 -60 0 0 65 0 65 -60 0 -60 0 0 60 0 60 -65 0 -65 0 0
65 0 65 65 0 65 0 0 -65 0 -65 60 0 60 0 0 65 0 65 60 0 60 0 0 60 0 60 65 0
65 0 0 -60 0 -60 60 0 60 0 0 60 0 60 60 0 60 0 0 60 0 60 65 0 65 0 0 -60z"/>
<path d="M4890 4620 l0 -60 -60 0 -60 0 0 -65 0 -65 -60 0 -60 0 0 65 0 65
-65 0 -65 0 0 -65 0 -65 -60 0 -60 0 0 -60 0 -60 60 0 60 0 0 -65 0 -65 65 0
65 0 0 65 0 65 60 0 60 0 0 -65 0 -65 60 0 60 0 0 -60 0 -60 65 0 65 0 0 -60
0 -60 60 0 60 0 0 60 0 60 65 0 65 0 0 -60 0 -60 60 0 60 0 0 60 0 60 60 0 60
0 0 60 0 60 -60 0 -60 0 0 65 0 65 -60 0 -60 0 0 60 0 60 -65 0 -65 0 0 65 0
65 -60 0 -60 0 0 60 0 60 -65 0 -65 0 0 -60z m130 -125 l0 -65 60 0 60 0 0
-60 0 -60 65 0 65 0 0 -65 0 -65 60 0 60 0 0 -60 0 -60 -60 0 -60 0 0 60 0 60
-65 0 -65 0 0 -60 0 -60 -60 0 -60 0 0 60 0 60 -65 0 -65 0 0 65 0 65 -60 0
-60 0 0 60 0 60 60 0 60 0 0 65 0 65 65 0 65 0 0 -65z m-370 -125 l0 -60 -65
0 -65 0 0 60 0 60 65 0 65 0 0 -60z"/>
<path d="M4890 4370 l0 -60 65 0 65 0 0 -65 0 -65 60 0 60 0 0 65 0 65 -60 0
-60 0 0 60 0 60 -65 0 -65 0 0 -60z"/>
<path d="M6010 5735 l0 -65 60 0 60 0 0 -60 0 -60 65 0 65 0 0 -65 0 -65 125
0 125 0 0 -60 0 -60 185 0 185 0 0 -60 0 -60 185 0 185 0 0 -65 0 -65 185 0
185 0 0 65 0 65 -185 0 -185 0 0 60 0 60 -125 0 -125 0 0 60 0 60 -185 0 -185
0 0 65 0 65 -125 0 -125 0 0 60 0 60 -60 0 -60 0 0 65 0 65 -125 0 -125 0 0
-65z"/>
<path d="M7750 5115 l0 -65 120 0 120 0 0 65 0 65 -120 0 -120 0 0 -65z"/>
<path d="M8120 4865 l0 -65 125 0 125 0 0 65 0 65 -125 0 -125 0 0 -65z"/>
<path d="M8370 4620 l0 -60 60 0 60 0 0 60 0 60 -60 0 -60 0 0 -60z"/>
<path d="M5890 4495 l0 -65 60 0 60 0 0 -125 0 -125 60 0 60 0 0 65 0 65 125
0 125 0 0 60 0 60 -125 0 -125 0 0 65 0 65 -120 0 -120 0 0 -65z"/>
<path d="M6510 4245 l0 -65 60 0 60 0 0 -60 0 -60 185 0 185 0 0 -60 0 -60
185 0 185 0 0 -65 0 -65 125 0 125 0 0 65 0 65 -125 0 -125 0 0 60 0 60 -185
0 -185 0 0 60 0 60 -125 0 -125 0 0 65 0 65 -120 0 -120 0 0 -65z"/>
<path d="M7750 3750 l0 -60 60 0 60 0 0 -65 0 -65 60 0 60 0 0 -60 0 -60 125
0 125 0 0 60 0 60 -125 0 -125 0 0 65 0 65 -60 0 -60 0 0 60 0 60 -60 0 -60 0
0 -60z"/>
<path d="M8370 3380 l0 -60 60 0 60 0 0 -65 0 -65 60 0 60 0 0 -60 0 -60 65 0
65 0 0 -65 0 -65 60 0 60 0 0 -60 0 -60 185 0 185 0 0 60 0 60 -120 0 -120 0
0 65 0 65 -125 0 -125 0 0 60 0 60 -65 0 -65 0 0 125 0 125 -120 0 -120 0 0
-60z"/>
<path d="M9230 2635 l0 -65 65 0 65 0 0 -60 0 -60 120 0 120 0 0 60 0 60 -60
0 -60 0 0 65 0 65 -125 0 -125 0 0 -65z"/>
<path d="M9600 2260 l0 -60 65 0 65 0 0 -60 0 -60 125 0 125 0 0 -65 0 -65 60
0 60 0 0 -60 0 -60 60 0 60 0 0 60 0 60 -60 0 -60 0 0 65 0 65 -60 0 -60 0 0
60 0 60 -65 0 -65 0 0 60 0 60 -125 0 -125 0 0 -60z"/>
<path d="M11340 7840 l0 -60 -60 0 -60 0 0 -65 0 -65 -65 0 -65 0 0 65 0 65
-60 0 -60 0 0 -65 0 -65 -65 0 -65 0 0 -60 0 -60 -60 0 -60 0 0 -60 0 -60 60
0 60 0 0 -65 0 -65 -60 0 -60 0 0 -60 0 -60 60 0 60 0 0 -65 0 -65 -60 0 -60
0 0 -60 0 -60 -60 0 -60 0 0 -60 0 -60 60 0 60 0 0 -65 0 -65 60 0 60 0 0 -60
0 -60 -60 0 -60 0 0 -60 0 -60 60 0 60 0 0 -65 0 -65 65 0 65 0 0 -60 0 -60
-65 0 -65 0 0 -65 0 -65 65 0 65 0 0 65 0 65 60 0 60 0 0 -65 0 -65 65 0 65 0
0 -60 0 -60 60 0 60 0 0 -60 0 -60 60 0 60 0 0 -65 0 -65 65 0 65 0 0 -60 0
-60 60 0 60 0 0 -65 0 -65 65 0 65 0 0 -60 0 -60 60 0 60 0 0 -60 0 -60 60 0
60 0 0 -65 0 -65 65 0 65 0 0 65 0 65 60 0 60 0 0 60 0 60 65 0 65 0 0 60 0
60 60 0 60 0 0 65 0 65 60 0 60 0 0 60 0 60 -60 0 -60 0 0 65 0 65 -60 0 -60
0 0 60 0 60 -65 0 -65 0 0 60 0 60 65 0 65 0 0 65 0 65 -65 0 -65 0 0 60 0 60
-60 0 -60 0 0 65 0 65 -65 0 -65 0 0 60 0 60 -60 0 -60 0 0 60 0 60 -60 0 -60
0 0 65 0 65 -65 0 -65 0 0 60 0 60 65 0 65 0 0 60 0 60 -65 0 -65 0 0 65 0 65
-60 0 -60 0 0 60 0 60 60 0 60 0 0 65 0 65 -60 0 -60 0 0 60 0 60 -65 0 -65 0
0 60 0 60 -60 0 -60 0 0 65 0 65 60 0 60 0 0 60 0 60 -60 0 -60 0 0 -60z
m-250 -250 l0 -60 65 0 65 0 0 60 0 60 60 0 60 0 0 -60 0 -60 60 0 60 0 0 -60
0 -60 65 0 65 0 0 -65 0 -65 -65 0 -65 0 0 -60 0 -60 65 0 65 0 0 -65 0 -65
60 0 60 0 0 -60 0 -60 -60 0 -60 0 0 -60 0 -60 60 0 60 0 0 -65 0 -65 65 0 65
0 0 -60 0 -60 60 0 60 0 0 -60 0 -60 60 0 60 0 0 -65 0 -65 65 0 65 0 0 -60 0
-60 60 0 60 0 0 -65 0 -65 -60 0 -60 0 0 -60 0 -60 60 0 60 0 0 -60 0 -60 65
0 65 0 0 -65 0 -65 60 0 60 0 0 -60 0 -60 -60 0 -60 0 0 -65 0 -65 -65 0 -65
0 0 -60 0 -60 -60 0 -60 0 0 -60 0 -60 -65 0 -65 0 0 60 0 60 -60 0 -60 0 0
60 0 60 -60 0 -60 0 0 65 0 65 -65 0 -65 0 0 60 0 60 -60 0 -60 0 0 65 0 65
-65 0 -65 0 0 60 0 60 -60 0 -60 0 0 60 0 60 -60 0 -60 0 0 65 0 65 -65 0 -65
0 0 60 0 60 -60 0 -60 0 0 65 0 65 -65 0 -65 0 0 60 0 60 65 0 65 0 0 60 0 60
-65 0 -65 0 0 65 0 65 -60 0 -60 0 0 60 0 60 60 0 60 0 0 60 0 60 65 0 65 0 0
65 0 65 -65 0 -65 0 0 60 0 60 65 0 65 0 0 65 0 65 -65 0 -65 0 0 60 0 60 65
0 65 0 0 60 0 60 60 0 60 0 0 -60z"/>
<path d="M10970 7470 l0 -60 60 0 60 0 0 -65 0 -65 -60 0 -60 0 0 -60 0 -60
60 0 60 0 0 -65 0 -65 -60 0 -60 0 0 -60 0 -60 -65 0 -65 0 0 -60 0 -60 65 0
65 0 0 -65 0 -65 60 0 60 0 0 -60 0 -60 -60 0 -60 0 0 -60 0 -60 60 0 60 0 0
-65 0 -65 65 0 65 0 0 -60 0 -60 60 0 60 0 0 -65 0 -65 60 0 60 0 0 -60 0 -60
65 0 65 0 0 -60 0 -60 60 0 60 0 0 -65 0 -65 65 0 65 0 0 -60 0 -60 60 0 60 0
0 -65 0 -65 60 0 60 0 0 -60 0 -60 65 0 65 0 0 60 0 60 60 0 60 0 0 65 0 65
65 0 65 0 0 60 0 60 -65 0 -65 0 0 65 0 65 -60 0 -60 0 0 60 0 60 -65 0 -65 0
0 60 0 60 65 0 65 0 0 65 0 65 -65 0 -65 0 0 60 0 60 -60 0 -60 0 0 65 0 65
-60 0 -60 0 0 60 0 60 -65 0 -65 0 0 60 0 60 -60 0 -60 0 0 65 0 65 -65 0 -65
0 0 60 0 60 65 0 65 0 0 60 0 60 -65 0 -65 0 0 65 0 65 -60 0 -60 0 0 60 0 60
60 0 60 0 0 65 0 65 -60 0 -60 0 0 60 0 60 -60 0 -60 0 0 -60 0 -60 -65 0 -65
0 0 60 0 60 -60 0 -60 0 0 -60z m370 -125 l0 -65 -60 0 -60 0 0 -60 0 -60 60
0 60 0 0 -65 0 -65 60 0 60 0 0 -60 0 -60 -60 0 -60 0 0 -60 0 -60 60 0 60 0
0 -65 0 -65 65 0 65 0 0 -60 0 -60 60 0 60 0 0 -60 0 -60 65 0 65 0 0 -65 0
-65 60 0 60 0 0 -60 0 -60 60 0 60 0 0 -65 0 -65 -60 0 -60 0 0 -60 0 -60 60
0 60 0 0 -60 0 -60 65 0 65 0 0 -65 0 -65 60 0 60 0 0 -60 0 -60 -60 0 -60 0
0 -65 0 -65 -65 0 -65 0 0 65 0 65 -60 0 -60 0 0 60 0 60 -60 0 -60 0 0 65 0
65 -65 0 -65 0 0 60 0 60 -60 0 -60 0 0 60 0 60 -65 0 -65 0 0 65 0 65 -60 0
-60 0 0 60 0 60 -60 0 -60 0 0 65 0 65 -65 0 -65 0 0 60 0 60 65 0 65 0 0 60
0 60 -65 0 -65 0 0 65 0 65 -60 0 -60 0 0 60 0 60 60 0 60 0 0 60 0 60 65 0
65 0 0 65 0 65 -65 0 -65 0 0 60 0 60 65 0 65 0 0 65 0 65 60 0 60 0 0 -65z"/>
<path d="M11220 6970 l0 -60 -65 0 -65 0 0 -60 0 -60 65 0 65 0 0 -65 0 -65
60 0 60 0 0 -60 0 -60 -60 0 -60 0 0 -60 0 -60 60 0 60 0 0 -65 0 -65 60 0 60
0 0 -60 0 -60 65 0 65 0 0 -65 0 -65 60 0 60 0 0 -60 0 -60 65 0 65 0 0 -60 0
-60 60 0 60 0 0 -65 0 -65 60 0 60 0 0 -60 0 -60 65 0 65 0 0 60 0 60 -65 0
-65 0 0 65 0 65 -60 0 -60 0 0 60 0 60 -60 0 -60 0 0 60 0 60 60 0 60 0 0 65
0 65 -60 0 -60 0 0 60 0 60 -65 0 -65 0 0 65 0 65 -60 0 -60 0 0 60 0 60 -65
0 -65 0 0 60 0 60 -60 0 -60 0 0 65 0 65 -60 0 -60 0 0 60 0 60 60 0 60 0 0
60 0 60 -60 0 -60 0 0 -60z m240 -490 l0 -60 65 0 65 0 0 -65 0 -65 60 0 60 0
0 -60 0 -60 65 0 65 0 0 -65 0 -65 -65 0 -65 0 0 65 0 65 -60 0 -60 0 0 60 0
60 -65 0 -65 0 0 65 0 65 -60 0 -60 0 0 60 0 60 60 0 60 0 0 -60z"/>
</g>
</svg>
