<?xml version="1.0" standalone="no"?>
<!DOCTYPE svg PUBLIC "-//W3C//DTD SVG 20010904//EN"
 "http://www.w3.org/TR/2001/REC-SVG-20010904/DTD/svg10.dtd">
<svg version="1.0" xmlns="http://www.w3.org/2000/svg"
 width="1600.000000pt" height="1531.000000pt" viewBox="0 0 1600.000000 1531.000000"
 preserveAspectRatio="xMidYMid meet">

<g transform="translate(0.000000,1531.000000) scale(0.100000,-0.100000)"
fill="#000000" stroke="none">
<path d="M3998 15303 c2201 -2 5803 -2 8005 0 2201 1 400 2 -4003 2 -4403 0
-6204 -1 -4002 -2z"/>
<path d="M7530 14470 l0 -60 -505 0 -505 0 0 -65 0 -65 -380 0 -380 0 0 -60 0
-60 -190 0 -190 0 0 -65 0 -65 -60 0 -60 0 0 -65 0 -65 -65 0 -65 0 0 -190 0
-190 65 0 65 0 0 -60 0 -60 -65 0 -65 0 0 -65 0 -65 -125 0 -125 0 0 -65 0
-65 -65 0 -65 0 0 -380 0 -380 -65 0 -65 0 0 -950 0 -950 65 0 65 0 0 -1200 0
-1200 65 0 65 0 0 -255 0 -255 60 0 60 0 0 -60 0 -60 130 0 130 0 0 -65 0 -65
-65 0 -65 0 0 -65 0 -65 -65 0 -65 0 0 -695 0 -695 65 0 65 0 0 -250 0 -250
65 0 65 0 0 -190 0 -190 -65 0 -65 0 0 -445 0 -445 -65 0 -65 0 0 -445 0 -445
65 0 65 0 0 -380 0 -380 65 0 65 0 0 -190 0 -190 60 0 60 0 0 -125 0 -125 65
0 65 0 0 -60 0 -60 65 0 65 0 0 -65 0 -65 565 0 565 0 0 125 0 125 65 0 65 0
0 65 0 65 65 0 65 0 0 125 0 125 60 0 60 0 0 315 0 315 65 0 65 0 0 320 0 320
65 0 65 0 0 1075 0 1075 60 0 60 0 0 125 0 125 65 0 65 0 0 130 0 130 65 0 65
0 0 185 0 185 60 0 60 0 0 700 0 700 65 0 65 0 0 1075 0 1075 -65 0 -65 0 0
125 0 125 -60 0 -60 0 0 65 0 65 -65 0 -65 0 0 60 0 60 -65 0 -65 0 0 65 0 65
-60 0 -60 0 0 65 0 65 -65 0 -65 0 0 60 0 60 -65 0 -65 0 0 65 0 65 -60 0 -60
0 0 65 0 65 -65 0 -65 0 0 60 0 60 -65 0 -65 0 0 65 0 65 -60 0 -60 0 0 65 0
65 -65 0 -65 0 0 125 0 125 -65 0 -65 0 0 65 0 65 -60 0 -60 0 0 125 0 125
-65 0 -65 0 0 125 0 125 -65 0 -65 0 0 65 0 65 -60 0 -60 0 0 125 0 125 125 0
125 0 0 -60 0 -60 315 0 315 0 0 -65 0 -65 950 0 950 0 0 65 0 65 570 0 570 0
0 60 0 60 125 0 125 0 0 -60 0 -60 -60 0 -60 0 0 -130 0 -130 -125 0 -125 0 0
-60 0 -60 -65 0 -65 0 0 -65 0 -65 -65 0 -65 0 0 -65 0 -65 -60 0 -60 0 0 -60
0 -60 -65 0 -65 0 0 -65 0 -65 -65 0 -65 0 0 -65 0 -65 -60 0 -60 0 0 -60 0
-60 -65 0 -65 0 0 -65 0 -65 -65 0 -65 0 0 -65 0 -65 -60 0 -60 0 0 -125 0
-125 -65 0 -65 0 0 -190 0 -190 -65 0 -65 0 0 -695 0 -695 65 0 65 0 0 -1015
0 -1015 65 0 65 0 0 -380 0 -380 60 0 60 0 0 -60 0 -60 65 0 65 0 0 -190 0
-190 65 0 65 0 0 -380 0 -380 60 0 60 0 0 -505 0 -505 65 0 65 0 0 -445 0
-445 65 0 65 0 0 -315 0 -315 60 0 60 0 0 -190 0 -190 65 0 65 0 0 -65 0 -65
570 0 570 0 0 65 0 65 125 0 125 0 0 60 0 60 65 0 65 0 0 510 0 510 60 0 60 0
0 440 0 440 65 0 65 0 0 445 0 445 65 0 65 0 0 760 0 760 60 0 60 0 0 1770 0
1770 -60 0 -60 0 0 445 0 445 -65 0 -65 0 0 190 0 190 65 0 65 0 0 630 0 630
-65 0 -65 0 0 320 0 320 -65 0 -65 0 0 125 0 125 -60 0 -60 0 0 65 0 65 -65 0
-65 0 0 60 0 60 -65 0 -65 0 0 65 0 65 -60 0 -60 0 0 65 0 65 -190 0 -190 0 0
60 0 60 -130 0 -130 0 0 65 0 65 -315 0 -315 0 0 60 0 60 -950 0 -950 0 0 -60z
m1780 -125 l0 -65 315 0 315 0 0 -60 0 -60 125 0 125 0 0 -65 0 -65 190 0 190
0 0 -65 0 -65 65 0 65 0 0 -60 0 -60 60 0 60 0 0 -65 0 -65 65 0 65 0 0 -65 0
-65 65 0 65 0 0 -60 0 -60 -65 0 -65 0 0 -65 0 -65 65 0 65 0 0 -65 0 -65 60
0 60 0 0 -60 0 -60 -60 0 -60 0 0 60 0 60 -65 0 -65 0 0 65 0 65 -65 0 -65 0
0 65 0 65 -60 0 -60 0 0 60 0 60 -65 0 -65 0 0 65 0 65 -65 0 -65 0 0 -65 0
-65 -60 0 -60 0 0 65 0 65 -65 0 -65 0 0 -65 0 -65 -65 0 -65 0 0 65 0 65 -60
0 -60 0 0 -65 0 -65 -65 0 -65 0 0 65 0 65 -380 0 -380 0 0 65 0 65 -570 0
-570 0 0 -65 0 -65 -760 0 -760 0 0 -65 0 -65 -60 0 -60 0 0 65 0 65 -65 0
-65 0 0 -65 0 -65 -65 0 -65 0 0 65 0 65 -60 0 -60 0 0 -65 0 -65 -65 0 -65 0
0 65 0 65 -60 0 -60 0 0 -65 0 -65 -65 0 -65 0 0 65 0 65 -65 0 -65 0 0 65 0
65 65 0 65 0 0 60 0 60 65 0 65 0 0 65 0 65 60 0 60 0 0 -65 0 -65 65 0 65 0
0 65 0 65 60 0 60 0 0 -65 0 -65 65 0 65 0 0 65 0 65 65 0 65 0 0 65 0 65 60
0 60 0 0 -65 0 -65 65 0 65 0 0 65 0 65 65 0 65 0 0 -65 0 -65 60 0 60 0 0 65
0 65 65 0 65 0 0 60 0 60 380 0 380 0 0 65 0 65 825 0 825 0 0 -65z m-380
-760 l0 -65 380 0 380 0 0 -60 0 -60 -65 0 -65 0 0 -65 0 -65 -1330 0 -1330 0
0 65 0 65 -125 0 -125 0 0 60 0 60 695 0 695 0 0 65 0 65 445 0 445 0 0 -65z
m-3550 -505 l0 -60 65 0 65 0 0 -65 0 -65 65 0 65 0 0 -125 0 -125 60 0 60 0
0 -130 0 -130 65 0 65 0 0 -60 0 -60 60 0 60 0 0 -130 0 -130 65 0 65 0 0
-125 0 -125 65 0 65 0 0 -65 0 -65 60 0 60 0 0 -125 0 -125 65 0 65 0 0 -65 0
-65 65 0 65 0 0 -60 0 -60 60 0 60 0 0 -65 0 -65 65 0 65 0 0 -65 0 -65 65 0
65 0 0 -60 0 -60 60 0 60 0 0 -65 0 -65 65 0 65 0 0 -65 0 -65 65 0 65 0 0
-60 0 -60 60 0 60 0 0 -65 0 -65 65 0 65 0 0 -60 0 -60 65 0 65 0 0 -130 0
-130 60 0 60 0 0 -60 0 -60 -125 0 -125 0 0 125 0 125 -65 0 -65 0 0 65 0 65
-60 0 -60 0 0 60 0 60 -65 0 -65 0 0 65 0 65 -65 0 -65 0 0 60 0 60 -60 0 -60
0 0 65 0 65 -65 0 -65 0 0 65 0 65 -65 0 -65 0 0 60 0 60 -60 0 -60 0 0 65 0
65 -65 0 -65 0 0 65 0 65 -65 0 -65 0 0 60 0 60 -60 0 -60 0 0 130 0 130 -65
0 -65 0 0 60 0 60 -65 0 -65 0 0 130 0 130 -60 0 -60 0 0 125 0 125 -65 0 -65
0 0 65 0 65 -60 0 -60 0 0 60 0 60 -65 0 -65 0 0 130 0 130 -65 0 -65 0 0 60
0 60 -60 0 -60 0 0 65 0 65 -130 0 -130 0 0 65 0 65 65 0 65 0 0 60 0 60 125
0 125 0 0 -60z m510 -255 l0 -65 -65 0 -65 0 0 65 0 65 65 0 65 0 0 -65z
m-760 -125 l0 -60 65 0 65 0 0 -65 0 -65 60 0 60 0 0 -125 0 -125 65 0 65 0 0
-65 0 -65 65 0 65 0 0 -65 0 -65 60 0 60 0 0 -125 0 -125 65 0 65 0 0 -125 0
-125 60 0 60 0 0 -65 0 -65 65 0 65 0 0 -190 0 -190 125 0 125 0 0 -65 0 -65
65 0 65 0 0 -60 0 -60 65 0 65 0 0 -65 0 -65 60 0 60 0 0 -125 0 -125 130 0
130 0 0 -65 0 -65 60 0 60 0 0 -60 0 -60 65 0 65 0 0 -130 0 -130 65 0 65 0 0
-250 0 -250 60 0 60 0 0 -130 0 -130 -60 0 -60 0 0 -60 0 -60 60 0 60 0 0 -65
0 -65 65 0 65 0 0 -65 0 -65 -65 0 -65 0 0 -60 0 -60 65 0 65 0 0 -65 0 -65
-65 0 -65 0 0 -65 0 -65 65 0 65 0 0 -60 0 -60 65 0 65 0 0 -65 0 -65 -65 0
-65 0 0 -65 0 -65 65 0 65 0 0 -60 0 -60 -65 0 -65 0 0 -65 0 -65 65 0 65 0 0
-65 0 -65 -65 0 -65 0 0 -60 0 -60 -65 0 -65 0 0 -65 0 -65 65 0 65 0 0 -65 0
-65 -65 0 -65 0 0 -60 0 -60 -60 0 -60 0 0 60 0 60 -65 0 -65 0 0 -60 0 -60
-65 0 -65 0 0 -65 0 -65 -60 0 -60 0 0 -65 0 -65 60 0 60 0 0 -60 0 -60 65 0
65 0 0 60 0 60 65 0 65 0 0 -60 0 -60 60 0 60 0 0 60 0 60 65 0 65 0 0 65 0
65 65 0 65 0 0 -65 0 -65 -65 0 -65 0 0 -60 0 -60 -65 0 -65 0 0 -65 0 -65
-60 0 -60 0 0 -65 0 -65 -65 0 -65 0 0 65 0 65 -65 0 -65 0 0 -65 0 -65 -60 0
-60 0 0 -60 0 -60 60 0 60 0 0 -65 0 -65 65 0 65 0 0 -60 0 -60 -65 0 -65 0 0
-65 0 -65 -60 0 -60 0 0 -65 0 -65 -445 0 -445 0 0 -60 0 -60 -125 0 -125 0 0
-130 0 -130 190 0 190 0 0 65 0 65 60 0 60 0 0 65 0 65 65 0 65 0 0 -65 0 -65
65 0 65 0 0 -65 0 -65 60 0 60 0 0 -60 0 -60 65 0 65 0 0 60 0 60 65 0 65 0 0
-60 0 -60 60 0 60 0 0 -65 0 -65 65 0 65 0 0 -65 0 -65 -65 0 -65 0 0 -60 0
-60 65 0 65 0 0 -65 0 -65 -65 0 -65 0 0 -65 0 -65 65 0 65 0 0 -60 0 -60 -65
0 -65 0 0 -65 0 -65 65 0 65 0 0 -65 0 -65 -65 0 -65 0 0 -60 0 -60 65 0 65 0
0 -320 0 -320 -65 0 -65 0 0 -60 0 -60 -60 0 -60 0 0 -65 0 -65 60 0 60 0 0
-65 0 -65 -60 0 -60 0 0 -60 0 -60 60 0 60 0 0 -65 0 -65 -60 0 -60 0 0 -65 0
-65 -65 0 -65 0 0 -60 0 -60 65 0 65 0 0 -65 0 -65 -65 0 -65 0 0 -65 0 -65
65 0 65 0 0 -60 0 -60 -65 0 -65 0 0 -65 0 -65 -65 0 -65 0 0 -65 0 -65 -60 0
-60 0 0 -60 0 -60 -65 0 -65 0 0 -65 0 -65 65 0 65 0 0 -60 0 -60 -65 0 -65 0
0 60 0 60 -65 0 -65 0 0 -60 0 -60 -60 0 -60 0 0 60 0 60 -65 0 -65 0 0 -60 0
-60 -65 0 -65 0 0 60 0 60 -60 0 -60 0 0 65 0 65 -65 0 -65 0 0 60 0 60 -60 0
-60 0 0 190 0 190 -65 0 -65 0 0 65 0 65 65 0 65 0 0 65 0 65 -65 0 -65 0 0
60 0 60 -65 0 -65 0 0 65 0 65 65 0 65 0 0 65 0 65 -65 0 -65 0 0 60 0 60 65
0 65 0 0 65 0 65 -65 0 -65 0 0 65 0 65 -60 0 -60 0 0 60 0 60 60 0 60 0 0 65
0 65 -60 0 -60 0 0 65 0 65 60 0 60 0 0 60 0 60 65 0 65 0 0 65 0 65 -65 0
-65 0 0 65 0 65 65 0 65 0 0 60 0 60 -65 0 -65 0 0 65 0 65 65 0 65 0 0 65 0
65 -65 0 -65 0 0 60 0 60 65 0 65 0 0 445 0 445 -65 0 -65 0 0 65 0 65 65 0
65 0 0 60 0 60 -65 0 -65 0 0 65 0 65 65 0 65 0 0 65 0 65 -65 0 -65 0 0 60 0
60 -60 0 -60 0 0 445 0 445 60 0 60 0 0 60 0 60 65 0 65 0 0 190 0 190 -65 0
-65 0 0 65 0 65 -60 0 -60 0 0 65 0 65 -65 0 -65 0 0 60 0 60 65 0 65 0 0 65
0 65 -65 0 -65 0 0 65 0 65 65 0 65 0 0 60 0 60 -65 0 -65 0 0 65 0 65 -65 0
-65 0 0 65 0 65 65 0 65 0 0 60 0 60 -65 0 -65 0 0 65 0 65 65 0 65 0 0 65 0
65 -65 0 -65 0 0 60 0 60 65 0 65 0 0 65 0 65 -65 0 -65 0 0 65 0 65 65 0 65
0 0 60 0 60 -65 0 -65 0 0 65 0 65 65 0 65 0 0 65 0 65 -65 0 -65 0 0 60 0 60
65 0 65 0 0 65 0 65 -65 0 -65 0 0 65 0 65 65 0 65 0 0 60 0 60 -65 0 -65 0 0
65 0 65 65 0 65 0 0 60 0 60 -65 0 -65 0 0 65 0 65 65 0 65 0 0 65 0 65 -65 0
-65 0 0 60 0 60 -60 0 -60 0 0 65 0 65 60 0 60 0 0 65 0 65 -60 0 -60 0 0 60
0 60 60 0 60 0 0 65 0 65 -60 0 -60 0 0 65 0 65 60 0 60 0 0 60 0 60 -60 0
-60 0 0 65 0 65 60 0 60 0 0 65 0 65 -60 0 -60 0 0 60 0 60 60 0 60 0 0 65 0
65 -60 0 -60 0 0 65 0 65 60 0 60 0 0 250 0 250 65 0 65 0 0 -60z m5440 0 l0
-60 65 0 65 0 0 60 0 60 60 0 60 0 0 -60 0 -60 65 0 65 0 0 60 0 60 65 0 65 0
0 -60 0 -60 -65 0 -65 0 0 -65 0 -65 -65 0 -65 0 0 -65 0 -65 -60 0 -60 0 0
-60 0 -60 -65 0 -65 0 0 -65 0 -65 -65 0 -65 0 0 -65 0 -65 -60 0 -60 0 0 -60
0 -60 -65 0 -65 0 0 -65 0 -65 -65 0 -65 0 0 -65 0 -65 -60 0 -60 0 0 -60 0
-60 -65 0 -65 0 0 60 0 60 65 0 65 0 0 65 0 65 -65 0 -65 0 0 65 0 65 65 0 65
0 0 60 0 60 60 0 60 0 0 65 0 65 65 0 65 0 0 65 0 65 65 0 65 0 0 60 0 60 -65
0 -65 0 0 65 0 65 65 0 65 0 0 65 0 65 60 0 60 0 0 60 0 60 65 0 65 0 0 -60z
m760 -380 l0 -190 -65 0 -65 0 0 -65 0 -65 -60 0 -60 0 0 -60 0 -60 -65 0 -65
0 0 -130 0 -130 -65 0 -65 0 0 -60 0 -60 -60 0 -60 0 0 -65 0 -65 -65 0 -65 0
0 -125 0 -125 -65 0 -65 0 0 -65 0 -65 -125 0 -125 0 0 -65 0 -65 -65 0 -65 0
0 -60 0 -60 -125 0 -125 0 0 -65 0 -65 -60 0 -60 0 0 -65 0 -65 -65 0 -65 0 0
-60 0 -60 -65 0 -65 0 0 -65 0 -65 -60 0 -60 0 0 -60 0 -60 -255 0 -255 0 0
60 0 60 -125 0 -125 0 0 65 0 65 60 0 60 0 0 60 0 60 65 0 65 0 0 -60 0 -60
255 0 255 0 0 60 0 60 60 0 60 0 0 65 0 65 65 0 65 0 0 65 0 65 125 0 125 0 0
60 0 60 65 0 65 0 0 65 0 65 60 0 60 0 0 65 0 65 130 0 130 0 0 60 0 60 60 0
60 0 0 130 0 130 65 0 65 0 0 60 0 60 65 0 65 0 0 65 0 65 60 0 60 0 0 125 0
125 65 0 65 0 0 65 0 65 65 0 65 0 0 125 0 125 60 0 60 0 0 65 0 65 65 0 65 0
0 -190z m0 -570 l0 -130 -65 0 -65 0 0 -315 0 -315 65 0 65 0 0 -440 0 -440
65 0 65 0 0 -1460 0 -1460 -320 0 -320 0 0 -60 0 -60 -60 0 -60 0 0 -65 0 -65
-130 0 -130 0 0 -125 0 -125 65 0 65 0 0 -65 0 -65 65 0 65 0 0 65 0 65 60 0
60 0 0 60 0 60 65 0 65 0 0 -60 0 -60 65 0 65 0 0 60 0 60 60 0 60 0 0 -60 0
-60 65 0 65 0 0 -65 0 -65 -65 0 -65 0 0 -65 0 -65 65 0 65 0 0 -185 0 -185
-65 0 -65 0 0 -65 0 -65 -125 0 -125 0 0 65 0 65 -255 0 -255 0 0 125 0 125
65 0 65 0 0 125 0 125 -65 0 -65 0 0 -65 0 -65 -60 0 -60 0 0 65 0 65 -65 0
-65 0 0 -190 0 -190 65 0 65 0 0 -60 0 -60 -65 0 -65 0 0 60 0 60 -65 0 -65 0
0 65 0 65 -60 0 -60 0 0 -65 0 -65 -65 0 -65 0 0 -60 0 -60 -60 0 -60 0 0 -65
0 -65 -65 0 -65 0 0 -65 0 -65 -65 0 -65 0 0 -60 0 -60 -60 0 -60 0 0 -65 0
-65 60 0 60 0 0 -65 0 -65 65 0 65 0 0 65 0 65 65 0 65 0 0 65 0 65 60 0 60 0
0 60 0 60 65 0 65 0 0 -60 0 -60 60 0 60 0 0 60 0 60 65 0 65 0 0 -60 0 -60
-65 0 -65 0 0 -65 0 -65 -60 0 -60 0 0 -65 0 -65 60 0 60 0 0 -60 0 -60 65 0
65 0 0 60 0 60 65 0 65 0 0 65 0 65 190 0 190 0 0 -65 0 -65 60 0 60 0 0 65 0
65 65 0 65 0 0 65 0 65 65 0 65 0 0 -65 0 -65 125 0 125 0 0 -125 0 -125 -65
0 -65 0 0 -445 0 -445 -60 0 -60 0 0 -445 0 -445 -65 0 -65 0 0 -505 0 -505
-65 0 -65 0 0 -65 0 -65 -125 0 -125 0 0 -60 0 -60 -65 0 -65 0 0 60 0 60 -60
0 -60 0 0 -60 0 -60 -65 0 -65 0 0 60 0 60 -65 0 -65 0 0 -60 0 -60 -60 0 -60
0 0 60 0 60 -65 0 -65 0 0 65 0 65 -60 0 -60 0 0 65 0 65 60 0 60 0 0 60 0 60
-60 0 -60 0 0 65 0 65 -65 0 -65 0 0 65 0 65 65 0 65 0 0 60 0 60 -65 0 -65 0
0 65 0 65 65 0 65 0 0 65 0 65 -65 0 -65 0 0 60 0 60 -65 0 -65 0 0 65 0 65
65 0 65 0 0 65 0 65 -65 0 -65 0 0 60 0 60 65 0 65 0 0 65 0 65 -65 0 -65 0 0
190 0 190 -60 0 -60 0 0 65 0 65 60 0 60 0 0 60 0 60 -60 0 -60 0 0 320 0 320
-65 0 -65 0 0 60 0 60 65 0 65 0 0 65 0 65 -65 0 -65 0 0 65 0 65 65 0 65 0 0
60 0 60 60 0 60 0 0 65 0 65 65 0 65 0 0 65 0 65 65 0 65 0 0 60 0 60 -190 0
-190 0 0 65 0 65 -65 0 -65 0 0 -65 0 -65 -65 0 -65 0 0 65 0 65 65 0 65 0 0
60 0 60 -65 0 -65 0 0 65 0 65 -60 0 -60 0 0 65 0 65 -65 0 -65 0 0 60 0 60
65 0 65 0 0 65 0 65 -65 0 -65 0 0 65 0 65 65 0 65 0 0 60 0 60 -65 0 -65 0 0
65 0 65 -65 0 -65 0 0 65 0 65 65 0 65 0 0 60 0 60 -65 0 -65 0 0 65 0 65 65
0 65 0 0 65 0 65 -65 0 -65 0 0 60 0 60 65 0 65 0 0 65 0 65 -65 0 -65 0 0 65
0 65 65 0 65 0 0 60 0 60 -65 0 -65 0 0 65 0 65 65 0 65 0 0 65 0 65 -65 0
-65 0 0 60 0 60 65 0 65 0 0 65 0 65 -65 0 -65 0 0 190 0 190 65 0 65 0 0 65
0 65 -65 0 -65 0 0 60 0 60 -60 0 -60 0 0 65 0 65 60 0 60 0 0 65 0 65 -60 0
-60 0 0 60 0 60 60 0 60 0 0 65 0 65 -60 0 -60 0 0 65 0 65 60 0 60 0 0 -65 0
-65 65 0 65 0 0 -65 0 -65 65 0 65 0 0 65 0 65 190 0 190 0 0 -65 0 -65 60 0
60 0 0 65 0 65 65 0 65 0 0 65 0 65 65 0 65 0 0 60 0 60 60 0 60 0 0 125 0
125 65 0 65 0 0 65 0 65 125 0 125 0 0 65 0 65 65 0 65 0 0 60 0 60 125 0 125
0 0 65 0 65 65 0 65 0 0 125 0 125 60 0 60 0 0 65 0 65 65 0 65 0 0 65 0 65
65 0 65 0 0 125 0 125 60 0 60 0 0 65 0 65 65 0 65 0 0 -130z"/>
<path d="M5640 13840 l0 -60 -65 0 -65 0 0 -65 0 -65 65 0 65 0 0 65 0 65 60
0 60 0 0 60 0 60 -60 0 -60 0 0 -60z"/>
<path d="M10700 13585 l0 -65 60 0 60 0 0 -60 0 -60 65 0 65 0 0 60 0 60 -65
0 -65 0 0 65 0 65 -60 0 -60 0 0 -65z"/>
<path d="M5000 11180 l0 -60 65 0 65 0 0 60 0 60 -65 0 -65 0 0 -60z"/>
<path d="M5000 10925 l0 -65 65 0 65 0 0 -60 0 -60 65 0 65 0 0 60 0 60 -65 0
-65 0 0 65 0 65 -65 0 -65 0 0 -65z"/>
<path d="M5130 10545 l0 -65 65 0 65 0 0 65 0 65 -65 0 -65 0 0 -65z"/>
<path d="M5130 10295 l0 -65 65 0 65 0 0 65 0 65 -65 0 -65 0 0 -65z"/>
<path d="M6770 10170 l0 -60 65 0 65 0 0 -65 0 -65 -65 0 -65 0 0 -65 0 -65
65 0 65 0 0 -60 0 -60 -65 0 -65 0 0 -65 0 -65 65 0 65 0 0 -65 0 -65 -65 0
-65 0 0 -60 0 -60 65 0 65 0 0 -65 0 -65 -65 0 -65 0 0 -65 0 -65 65 0 65 0 0
-60 0 -60 -65 0 -65 0 0 -65 0 -65 -60 0 -60 0 0 -65 0 -65 60 0 60 0 0 -60 0
-60 -60 0 -60 0 0 -65 0 -65 60 0 60 0 0 -65 0 -65 65 0 65 0 0 -60 0 -60 -65
0 -65 0 0 -65 0 -65 65 0 65 0 0 65 0 65 65 0 65 0 0 60 0 60 -65 0 -65 0 0
65 0 65 65 0 65 0 0 65 0 65 -65 0 -65 0 0 60 0 60 65 0 65 0 0 65 0 65 -65 0
-65 0 0 65 0 65 65 0 65 0 0 60 0 60 -65 0 -65 0 0 65 0 65 65 0 65 0 0 65 0
65 -65 0 -65 0 0 60 0 60 65 0 65 0 0 65 0 65 -65 0 -65 0 0 65 0 65 65 0 65
0 0 60 0 60 -65 0 -65 0 0 65 0 65 65 0 65 0 0 65 0 65 -65 0 -65 0 0 60 0 60
-65 0 -65 0 0 -60z m130 -1395 l0 -65 -65 0 -65 0 0 65 0 65 65 0 65 0 0 -65z
m0 -250 l0 -65 -65 0 -65 0 0 65 0 65 65 0 65 0 0 -65z"/>
<path d="M5130 10045 l0 -65 65 0 65 0 0 65 0 65 -65 0 -65 0 0 -65z"/>
<path d="M5130 9790 l0 -60 65 0 65 0 0 60 0 60 -65 0 -65 0 0 -60z"/>
<path d="M5130 9535 l0 -65 65 0 65 0 0 65 0 65 -65 0 -65 0 0 -65z"/>
<path d="M5130 9285 l0 -65 65 0 65 0 0 65 0 65 -65 0 -65 0 0 -65z"/>
<path d="M5890 9285 l0 -65 60 0 60 0 0 65 0 65 -60 0 -60 0 0 -65z"/>
<path d="M7280 9155 l0 -65 -65 0 -65 0 0 -60 0 -60 65 0 65 0 0 -65 0 -65
-65 0 -65 0 0 -65 0 -65 65 0 65 0 0 -60 0 -60 -65 0 -65 0 0 -65 0 -65 65 0
65 0 0 -65 0 -65 -65 0 -65 0 0 -60 0 -60 65 0 65 0 0 -65 0 -65 -65 0 -65 0
0 -65 0 -65 65 0 65 0 0 -60 0 -60 -65 0 -65 0 0 -65 0 -65 65 0 65 0 0 -65 0
-65 -65 0 -65 0 0 -60 0 -60 65 0 65 0 0 -65 0 -65 -65 0 -65 0 0 -65 0 -65
-60 0 -60 0 0 -60 0 -60 -65 0 -65 0 0 60 0 60 -65 0 -65 0 0 65 0 65 65 0 65
0 0 65 0 65 -65 0 -65 0 0 -65 0 -65 -60 0 -60 0 0 -65 0 -65 -65 0 -65 0 0
65 0 65 -65 0 -65 0 0 -65 0 -65 65 0 65 0 0 -60 0 -60 -65 0 -65 0 0 -65 0
-65 65 0 65 0 0 65 0 65 65 0 65 0 0 -65 0 -65 60 0 60 0 0 -65 0 -65 -60 0
-60 0 0 -60 0 -60 60 0 60 0 0 -65 0 -65 -60 0 -60 0 0 -65 0 -65 -445 0 -445
0 0 -60 0 -60 -60 0 -60 0 0 -65 0 -65 -65 0 -65 0 0 65 0 65 -65 0 -65 0 0
-65 0 -65 65 0 65 0 0 -60 0 -60 65 0 65 0 0 -65 0 -65 -65 0 -65 0 0 -65 0
-65 65 0 65 0 0 65 0 65 60 0 60 0 0 -65 0 -65 65 0 65 0 0 65 0 65 -65 0 -65
0 0 65 0 65 65 0 65 0 0 60 0 60 60 0 60 0 0 -60 0 -60 65 0 65 0 0 60 0 60
65 0 65 0 0 65 0 65 60 0 60 0 0 -65 0 -65 190 0 190 0 0 -60 0 -60 65 0 65 0
0 -65 0 -65 65 0 65 0 0 65 0 65 60 0 60 0 0 60 0 60 -60 0 -60 0 0 65 0 65
-65 0 -65 0 0 60 0 60 65 0 65 0 0 65 0 65 60 0 60 0 0 65 0 65 -60 0 -60 0 0
60 0 60 -65 0 -65 0 0 65 0 65 65 0 65 0 0 65 0 65 60 0 60 0 0 60 0 60 65 0
65 0 0 65 0 65 65 0 65 0 0 -65 0 -65 60 0 60 0 0 65 0 65 -60 0 -60 0 0 65 0
65 60 0 60 0 0 60 0 60 65 0 65 0 0 65 0 65 -65 0 -65 0 0 65 0 65 65 0 65 0
0 60 0 60 -65 0 -65 0 0 65 0 65 65 0 65 0 0 65 0 65 -65 0 -65 0 0 60 0 60
-60 0 -60 0 0 65 0 65 60 0 60 0 0 65 0 65 -60 0 -60 0 0 60 0 60 60 0 60 0 0
65 0 65 -60 0 -60 0 0 65 0 65 -65 0 -65 0 0 60 0 60 65 0 65 0 0 65 0 65 -65
0 -65 0 0 -65z m130 -380 l0 -65 -65 0 -65 0 0 65 0 65 65 0 65 0 0 -65z m0
-250 l0 -65 -65 0 -65 0 0 65 0 65 65 0 65 0 0 -65z m0 -255 l0 -60 60 0 60 0
0 -65 0 -65 -60 0 -60 0 0 -65 0 -65 60 0 60 0 0 -60 0 -60 -60 0 -60 0 0 -65
0 -65 60 0 60 0 0 -65 0 -65 -60 0 -60 0 0 -60 0 -60 -65 0 -65 0 0 60 0 60
65 0 65 0 0 65 0 65 -65 0 -65 0 0 65 0 65 65 0 65 0 0 60 0 60 -65 0 -65 0 0
65 0 65 65 0 65 0 0 65 0 65 -65 0 -65 0 0 60 0 60 65 0 65 0 0 -60z m-640
-1140 l0 -60 65 0 65 0 0 -65 0 -65 -65 0 -65 0 0 65 0 65 -60 0 -60 0 0 60 0
60 60 0 60 0 0 -60z m130 -380 l0 -60 65 0 65 0 0 -65 0 -65 -65 0 -65 0 0
-65 0 -65 -65 0 -65 0 0 65 0 65 65 0 65 0 0 65 0 65 -65 0 -65 0 0 60 0 60
65 0 65 0 0 -60z m130 -630 l0 -60 -65 0 -65 0 0 60 0 60 65 0 65 0 0 -60z"/>
<path d="M5130 9030 l0 -60 65 0 65 0 0 60 0 60 -65 0 -65 0 0 -60z"/>
<path d="M5890 9030 l0 -60 60 0 60 0 0 60 0 60 -60 0 -60 0 0 -60z"/>
<path d="M5130 8775 l0 -65 65 0 65 0 0 65 0 65 -65 0 -65 0 0 -65z"/>
<path d="M5890 8775 l0 -65 60 0 60 0 0 65 0 65 -60 0 -60 0 0 -65z"/>
<path d="M5130 8525 l0 -65 65 0 65 0 0 65 0 65 -65 0 -65 0 0 -65z"/>
<path d="M5890 8525 l0 -65 60 0 60 0 0 -65 0 -65 -60 0 -60 0 0 -60 0 -60 60
0 60 0 0 -65 0 -65 -60 0 -60 0 0 -65 0 -65 60 0 60 0 0 -60 0 -60 65 0 65 0
0 60 0 60 -65 0 -65 0 0 65 0 65 65 0 65 0 0 65 0 65 -65 0 -65 0 0 60 0 60
65 0 65 0 0 65 0 65 -65 0 -65 0 0 65 0 65 -60 0 -60 0 0 -65z"/>
<path d="M6770 7890 l0 -60 65 0 65 0 0 60 0 60 -65 0 -65 0 0 -60z"/>
<path d="M6010 7635 l0 -65 65 0 65 0 0 65 0 65 -65 0 -65 0 0 -65z"/>
<path d="M6770 7635 l0 -65 65 0 65 0 0 65 0 65 -65 0 -65 0 0 -65z"/>
<path d="M6010 7385 l0 -65 65 0 65 0 0 -65 0 -65 65 0 65 0 0 65 0 65 -65 0
-65 0 0 65 0 65 -65 0 -65 0 0 -65z"/>
<path d="M5380 7005 l0 -65 65 0 65 0 0 65 0 65 -65 0 -65 0 0 -65z"/>
<path d="M7280 6625 l0 -65 65 0 65 0 0 65 0 65 -65 0 -65 0 0 -65z"/>
<path d="M5510 5615 l0 -65 65 0 65 0 0 -65 0 -65 60 0 60 0 0 65 0 65 -60 0
-60 0 0 65 0 65 -65 0 -65 0 0 -65z"/>
<path d="M6390 5485 l0 -65 -60 0 -60 0 0 -60 0 -60 60 0 60 0 0 -65 0 -65 65
0 65 0 0 65 0 65 65 0 65 0 0 -65 0 -65 60 0 60 0 0 -65 0 -65 -60 0 -60 0 0
-60 0 -60 -65 0 -65 0 0 -65 0 -65 65 0 65 0 0 -65 0 -65 -65 0 -65 0 0 -60 0
-60 65 0 65 0 0 -65 0 -65 -65 0 -65 0 0 -65 0 -65 -65 0 -65 0 0 -60 0 -60
65 0 65 0 0 -65 0 -65 -65 0 -65 0 0 -65 0 -65 65 0 65 0 0 -60 0 -60 -65 0
-65 0 0 -65 0 -65 65 0 65 0 0 -65 0 -65 -65 0 -65 0 0 -60 0 -60 65 0 65 0 0
-65 0 -65 -65 0 -65 0 0 -65 0 -65 65 0 65 0 0 -60 0 -60 -65 0 -65 0 0 -65 0
-65 65 0 65 0 0 -65 0 -65 65 0 65 0 0 -60 0 -60 -65 0 -65 0 0 -65 0 -65 65
0 65 0 0 -65 0 -65 -65 0 -65 0 0 -60 0 -60 65 0 65 0 0 -65 0 -65 -65 0 -65
0 0 -65 0 -65 65 0 65 0 0 65 0 65 60 0 60 0 0 65 0 65 65 0 65 0 0 60 0 60
-65 0 -65 0 0 65 0 65 65 0 65 0 0 65 0 65 -65 0 -65 0 0 60 0 60 65 0 65 0 0
65 0 65 65 0 65 0 0 65 0 65 -65 0 -65 0 0 60 0 60 65 0 65 0 0 65 0 65 -65 0
-65 0 0 65 0 65 65 0 65 0 0 60 0 60 60 0 60 0 0 65 0 65 -60 0 -60 0 0 65 0
65 60 0 60 0 0 60 0 60 -60 0 -60 0 0 65 0 65 60 0 60 0 0 65 0 65 -60 0 -60
0 0 60 0 60 60 0 60 0 0 65 0 65 -60 0 -60 0 0 65 0 65 60 0 60 0 0 60 0 60
-60 0 -60 0 0 65 0 65 60 0 60 0 0 65 0 65 -60 0 -60 0 0 60 0 60 60 0 60 0 0
65 0 65 -60 0 -60 0 0 65 0 65 -65 0 -65 0 0 -65 0 -65 -65 0 -65 0 0 65 0 65
-60 0 -60 0 0 60 0 60 -65 0 -65 0 0 65 0 65 -65 0 -65 0 0 -65z m130 -125 l0
-60 -65 0 -65 0 0 60 0 60 65 0 65 0 0 -60z m510 -255 l0 -65 -65 0 -65 0 0
-60 0 -60 65 0 65 0 0 -65 0 -65 -65 0 -65 0 0 -65 0 -65 65 0 65 0 0 -60 0
-60 -65 0 -65 0 0 -65 0 -65 65 0 65 0 0 -65 0 -65 -65 0 -65 0 0 -60 0 -60
65 0 65 0 0 -65 0 -65 -65 0 -65 0 0 -65 0 -65 65 0 65 0 0 -60 0 -60 -65 0
-65 0 0 -65 0 -65 65 0 65 0 0 -65 0 -65 -65 0 -65 0 0 -60 0 -60 -65 0 -65 0
0 -65 0 -65 65 0 65 0 0 -65 0 -65 -65 0 -65 0 0 -60 0 -60 65 0 65 0 0 -65 0
-65 -65 0 -65 0 0 -65 0 -65 -60 0 -60 0 0 65 0 65 -65 0 -65 0 0 65 0 65 65
0 65 0 0 60 0 60 -65 0 -65 0 0 65 0 65 65 0 65 0 0 65 0 65 -65 0 -65 0 0 60
0 60 65 0 65 0 0 65 0 65 -65 0 -65 0 0 65 0 65 65 0 65 0 0 60 0 60 -65 0
-65 0 0 65 0 65 65 0 65 0 0 65 0 65 -65 0 -65 0 0 60 0 60 65 0 65 0 0 65 0
65 60 0 60 0 0 65 0 65 -60 0 -60 0 0 60 0 60 60 0 60 0 0 65 0 65 -60 0 -60
0 0 65 0 65 60 0 60 0 0 60 0 60 65 0 65 0 0 65 0 65 65 0 65 0 0 -65z m-260
-2530 l0 -65 -60 0 -60 0 0 65 0 65 60 0 60 0 0 -65z m0 -255 l0 -60 -60 0
-60 0 0 60 0 60 60 0 60 0 0 -60z"/>
<path d="M6770 4855 l0 -65 65 0 65 0 0 65 0 65 -65 0 -65 0 0 -65z"/>
<path d="M6770 4600 l0 -60 65 0 65 0 0 60 0 60 -65 0 -65 0 0 -60z"/>
<path d="M6770 4345 l0 -65 -60 0 -60 0 0 -60 0 -60 60 0 60 0 0 -65 0 -65
-60 0 -60 0 0 -65 0 -65 60 0 60 0 0 -60 0 -60 -60 0 -60 0 0 -65 0 -65 60 0
60 0 0 -65 0 -65 -60 0 -60 0 0 -60 0 -60 60 0 60 0 0 60 0 60 65 0 65 0 0 65
0 65 -65 0 -65 0 0 65 0 65 65 0 65 0 0 60 0 60 -65 0 -65 0 0 65 0 65 65 0
65 0 0 65 0 65 -65 0 -65 0 0 60 0 60 65 0 65 0 0 65 0 65 -65 0 -65 0 0 -65z"/>
<path d="M6650 3205 l0 -65 60 0 60 0 0 65 0 65 -60 0 -60 0 0 -65z"/>
<path d="M6650 2955 l0 -65 60 0 60 0 0 65 0 65 -60 0 -60 0 0 -65z"/>
<path d="M5890 4980 l0 -60 60 0 60 0 0 -65 0 -65 -60 0 -60 0 0 -65 0 -65 60
0 60 0 0 -60 0 -60 -60 0 -60 0 0 -65 0 -65 60 0 60 0 0 -65 0 -65 -60 0 -60
0 0 -60 0 -60 60 0 60 0 0 -65 0 -65 -60 0 -60 0 0 -65 0 -65 60 0 60 0 0 -60
0 -60 -60 0 -60 0 0 -65 0 -65 60 0 60 0 0 -65 0 -65 -60 0 -60 0 0 -60 0 -60
60 0 60 0 0 -65 0 -65 65 0 65 0 0 65 0 65 -65 0 -65 0 0 60 0 60 65 0 65 0 0
65 0 65 -65 0 -65 0 0 65 0 65 65 0 65 0 0 60 0 60 -65 0 -65 0 0 65 0 65 65
0 65 0 0 65 0 65 -65 0 -65 0 0 60 0 60 65 0 65 0 0 65 0 65 -65 0 -65 0 0 65
0 65 65 0 65 0 0 60 0 60 -65 0 -65 0 0 65 0 65 65 0 65 0 0 65 0 65 -65 0
-65 0 0 60 0 60 -60 0 -60 0 0 -60z"/>
<path d="M5380 3715 l0 -65 65 0 65 0 0 65 0 65 -65 0 -65 0 0 -65z"/>
<path d="M5380 3460 l0 -60 65 0 65 0 0 60 0 60 -65 0 -65 0 0 -60z"/>
<path d="M6010 3080 l0 -60 65 0 65 0 0 60 0 60 -65 0 -65 0 0 -60z"/>
<path d="M5510 2825 l0 -65 65 0 65 0 0 65 0 65 -65 0 -65 0 0 -65z"/>
<path d="M6010 2825 l0 -65 65 0 65 0 0 65 0 65 -65 0 -65 0 0 -65z"/>
<path d="M6010 2575 l0 -65 65 0 65 0 0 65 0 65 -65 0 -65 0 0 -65z"/>
<path d="M5760 2065 l0 -65 65 0 65 0 0 65 0 65 -65 0 -65 0 0 -65z"/>
<path d="M6270 1815 l0 -65 60 0 60 0 0 65 0 65 -60 0 -60 0 0 -65z"/>
<path d="M10440 12575 l0 -65 -60 0 -60 0 0 -65 0 -65 60 0 60 0 0 -60 0 -60
-60 0 -60 0 0 -65 0 -65 -65 0 -65 0 0 -65 0 -65 -65 0 -65 0 0 -60 0 -60 -60
0 -60 0 0 -65 0 -65 60 0 60 0 0 65 0 65 65 0 65 0 0 60 0 60 65 0 65 0 0 65
0 65 60 0 60 0 0 65 0 65 65 0 65 0 0 60 0 60 65 0 65 0 0 65 0 65 60 0 60 0
0 65 0 65 -60 0 -60 0 0 -65 0 -65 -65 0 -65 0 0 65 0 65 -65 0 -65 0 0 -65z
m130 -130 l0 -65 -65 0 -65 0 0 65 0 65 65 0 65 0 0 -65z"/>
<path d="M10950 11055 l0 -65 65 0 65 0 0 65 0 65 -65 0 -65 0 0 -65z"/>
<path d="M10950 10800 l0 -60 65 0 65 0 0 60 0 60 -65 0 -65 0 0 -60z"/>
<path d="M10320 10675 l0 -65 -65 0 -65 0 0 -65 0 -65 -65 0 -65 0 0 -60 0
-60 65 0 65 0 0 60 0 60 65 0 65 0 0 65 0 65 60 0 60 0 0 -65 0 -65 65 0 65 0
0 65 0 65 -65 0 -65 0 0 65 0 65 -60 0 -60 0 0 -65z"/>
<path d="M10440 10295 l0 -65 65 0 65 0 0 65 0 65 -65 0 -65 0 0 -65z"/>
<path d="M9690 10045 l0 -65 60 0 60 0 0 65 0 65 -60 0 -60 0 0 -65z"/>
<path d="M10440 10045 l0 -65 65 0 65 0 0 65 0 65 -65 0 -65 0 0 -65z"/>
<path d="M8670 9790 l0 -60 65 0 65 0 0 -65 0 -65 -65 0 -65 0 0 -65 0 -65 65
0 65 0 0 -60 0 -60 65 0 65 0 0 -65 0 -65 -65 0 -65 0 0 -65 0 -65 65 0 65 0
0 -60 0 -60 60 0 60 0 0 60 0 60 -60 0 -60 0 0 65 0 65 60 0 60 0 0 65 0 65
-60 0 -60 0 0 60 0 60 60 0 60 0 0 65 0 65 -60 0 -60 0 0 65 0 65 60 0 60 0 0
60 0 60 -60 0 -60 0 0 -60 0 -60 -65 0 -65 0 0 60 0 60 -65 0 -65 0 0 -60z
m260 -255 l0 -65 -65 0 -65 0 0 65 0 65 65 0 65 0 0 -65z"/>
<path d="M9430 9790 l0 -60 -60 0 -60 0 0 -65 0 -65 60 0 60 0 0 -65 0 -65 65
0 65 0 0 65 0 65 -65 0 -65 0 0 65 0 65 65 0 65 0 0 60 0 60 -65 0 -65 0 0
-60z"/>
<path d="M9430 9285 l0 -65 65 0 65 0 0 65 0 65 -65 0 -65 0 0 -65z"/>
<path d="M8800 8650 l0 -60 65 0 65 0 0 -65 0 -65 -65 0 -65 0 0 -65 0 -65 65
0 65 0 0 -60 0 -60 -65 0 -65 0 0 -65 0 -65 65 0 65 0 0 -65 0 -65 -65 0 -65
0 0 -60 0 -60 65 0 65 0 0 -65 0 -65 -65 0 -65 0 0 -65 0 -65 65 0 65 0 0 -60
0 -60 -65 0 -65 0 0 -65 0 -65 65 0 65 0 0 -65 0 -65 60 0 60 0 0 -60 0 -60
-60 0 -60 0 0 -65 0 -65 60 0 60 0 0 -65 0 -65 -60 0 -60 0 0 -60 0 -60 60 0
60 0 0 -65 0 -65 65 0 65 0 0 -65 0 -65 65 0 65 0 0 65 0 65 -65 0 -65 0 0 65
0 65 -65 0 -65 0 0 60 0 60 65 0 65 0 0 65 0 65 -65 0 -65 0 0 65 0 65 65 0
65 0 0 60 0 60 -65 0 -65 0 0 65 0 65 65 0 65 0 0 65 0 65 -65 0 -65 0 0 60 0
60 65 0 65 0 0 65 0 65 -65 0 -65 0 0 65 0 65 65 0 65 0 0 60 0 60 -65 0 -65
0 0 65 0 65 -60 0 -60 0 0 65 0 65 60 0 60 0 0 60 0 60 -60 0 -60 0 0 65 0 65
60 0 60 0 0 65 0 65 -60 0 -60 0 0 60 0 60 -65 0 -65 0 0 -60z m250 -760 l0
-60 -60 0 -60 0 0 60 0 60 60 0 60 0 0 -60z m0 -255 l0 -65 -60 0 -60 0 0 65
0 65 60 0 60 0 0 -65z m0 -250 l0 -65 -60 0 -60 0 0 65 0 65 60 0 60 0 0 -65z"/>
<path d="M11200 7510 l0 -60 65 0 65 0 0 60 0 60 -65 0 -65 0 0 -60z"/>
<path d="M10320 6625 l0 -65 60 0 60 0 0 65 0 65 -60 0 -60 0 0 -65z"/>
<path d="M9560 6370 l0 -60 65 0 65 0 0 -65 0 -65 60 0 60 0 0 65 0 65 65 0
65 0 0 60 0 60 -65 0 -65 0 0 -60 0 -60 -60 0 -60 0 0 60 0 60 -65 0 -65 0 0
-60z"/>
<path d="M9810 5615 l0 -65 -60 0 -60 0 0 -65 0 -65 -65 0 -65 0 0 -60 0 -60
-65 0 -65 0 0 -65 0 -65 65 0 65 0 0 -65 0 -65 65 0 65 0 0 65 0 65 60 0 60 0
0 65 0 65 -60 0 -60 0 0 60 0 60 60 0 60 0 0 65 0 65 65 0 65 0 0 65 0 65 -65
0 -65 0 0 -65z m-120 -380 l0 -65 -65 0 -65 0 0 65 0 65 65 0 65 0 0 -65z"/>
<path d="M10570 5360 l0 -60 65 0 65 0 0 -65 0 -65 -65 0 -65 0 0 -65 0 -65
65 0 65 0 0 -60 0 -60 -65 0 -65 0 0 -65 0 -65 65 0 65 0 0 -65 0 -65 -65 0
-65 0 0 -60 0 -60 65 0 65 0 0 -65 0 -65 -65 0 -65 0 0 -65 0 -65 65 0 65 0 0
-60 0 -60 -65 0 -65 0 0 -65 0 -65 65 0 65 0 0 -65 0 -65 -65 0 -65 0 0 -60 0
-60 65 0 65 0 0 60 0 60 60 0 60 0 0 65 0 65 -60 0 -60 0 0 65 0 65 60 0 60 0
0 60 0 60 -60 0 -60 0 0 65 0 65 60 0 60 0 0 65 0 65 -60 0 -60 0 0 60 0 60
60 0 60 0 0 65 0 65 65 0 65 0 0 65 0 65 -65 0 -65 0 0 60 0 60 65 0 65 0 0
65 0 65 -65 0 -65 0 0 65 0 65 65 0 65 0 0 60 0 60 -65 0 -65 0 0 -60 0 -60
-60 0 -60 0 0 60 0 60 -65 0 -65 0 0 -60z m250 -255 l0 -65 -60 0 -60 0 0 65
0 65 60 0 60 0 0 -65z m0 -250 l0 -65 -60 0 -60 0 0 65 0 65 60 0 60 0 0 -65z"/>
<path d="M9940 5235 l0 -65 60 0 60 0 0 -65 0 -65 -60 0 -60 0 0 -60 0 -60 60
0 60 0 0 -65 0 -65 65 0 65 0 0 65 0 65 65 0 65 0 0 60 0 60 -65 0 -65 0 0 65
0 65 65 0 65 0 0 65 0 65 -65 0 -65 0 0 -65 0 -65 -65 0 -65 0 0 65 0 65 -60
0 -60 0 0 -65z m250 -255 l0 -60 -65 0 -65 0 0 60 0 60 65 0 65 0 0 -60z"/>
<path d="M10060 4600 l0 -60 65 0 65 0 0 60 0 60 -65 0 -65 0 0 -60z"/>
<path d="M10060 4345 l0 -65 65 0 65 0 0 65 0 65 -65 0 -65 0 0 -65z"/>
<path d="M10570 3585 l0 -65 65 0 65 0 0 65 0 65 -65 0 -65 0 0 -65z"/>
<path d="M10570 3335 l0 -65 -65 0 -65 0 0 -65 0 -65 65 0 65 0 0 -60 0 -60
-65 0 -65 0 0 -65 0 -65 -60 0 -60 0 0 -65 0 -65 60 0 60 0 0 -60 0 -60 -60 0
-60 0 0 -65 0 -65 -65 0 -65 0 0 -65 0 -65 65 0 65 0 0 65 0 65 60 0 60 0 0
-65 0 -65 65 0 65 0 0 65 0 65 65 0 65 0 0 65 0 65 -65 0 -65 0 0 60 0 60 65
0 65 0 0 65 0 65 -65 0 -65 0 0 65 0 65 65 0 65 0 0 60 0 60 -65 0 -65 0 0 65
0 65 65 0 65 0 0 65 0 65 -65 0 -65 0 0 -65z m0 -510 l0 -65 -65 0 -65 0 0 65
0 65 65 0 65 0 0 -65z m0 -250 l0 -65 -65 0 -65 0 0 65 0 65 65 0 65 0 0 -65z"/>
<path d="M9940 2445 l0 -65 60 0 60 0 0 65 0 65 -60 0 -60 0 0 -65z"/>
</g>
</svg>
