<?xml version="1.0" standalone="no"?>
<!DOCTYPE svg PUBLIC "-//W3C//DTD SVG 20010904//EN"
 "http://www.w3.org/TR/2001/REC-SVG-20010904/DTD/svg10.dtd">
<svg version="1.0" xmlns="http://www.w3.org/2000/svg"
 width="1579.000000pt" height="1514.000000pt" viewBox="0 0 1579.000000 1514.000000"
 preserveAspectRatio="xMidYMid meet">

<g transform="translate(0.000000,1514.000000) scale(0.100000,-0.100000)"
fill="#000000" stroke="none">
<path d="M8590 14175 l0 -125 -65 0 -65 0 0 -65 0 -65 -60 0 -60 0 0 65 0 65
-570 0 -570 0 0 -65 0 -65 -130 0 -130 0 0 -65 0 -65 -190 0 -190 0 0 -60 0
-60 -125 0 -125 0 0 -65 0 -65 -65 0 -65 0 0 -65 0 -65 -60 0 -60 0 0 -60 0
-60 -65 0 -65 0 0 -130 0 -130 -65 0 -65 0 0 -125 0 -125 -60 0 -60 0 0 -65 0
-65 -65 0 -65 0 0 -125 0 -125 -60 0 -60 0 0 -125 0 -125 -65 0 -65 0 0 -255
0 -255 -65 0 -65 0 0 -190 0 -190 -60 0 -60 0 0 -65 0 -65 -65 0 -65 0 0 -60
0 -60 -65 0 -65 0 0 -65 0 -65 -60 0 -60 0 0 -125 0 -125 -65 0 -65 0 0 -65 0
-65 -65 0 -65 0 0 -190 0 -190 -60 0 -60 0 0 -125 0 -125 -65 0 -65 0 0 -125
0 -125 -65 0 -65 0 0 -130 0 -130 -60 0 -60 0 0 -250 0 -250 -65 0 -65 0 0
-320 0 -320 -65 0 -65 0 0 -315 0 -315 -60 0 -60 0 0 -255 0 -255 -65 0 -65 0
0 -60 0 -60 -65 0 -65 0 0 -445 0 -445 65 0 65 0 0 -250 0 -250 65 0 65 0 0
-130 0 -130 60 0 60 0 0 -60 0 -60 65 0 65 0 0 -65 0 -65 65 0 65 0 0 -65 0
-65 60 0 60 0 0 -60 0 -60 65 0 65 0 0 -65 0 -65 65 0 65 0 0 -65 0 -65 60 0
60 0 0 -60 0 -60 65 0 65 0 0 -65 0 -65 65 0 65 0 0 -65 0 -65 60 0 60 0 0
-60 0 -60 130 0 130 0 0 -65 0 -65 60 0 60 0 0 -65 0 -65 130 0 130 0 0 -60 0
-60 60 0 60 0 0 -65 0 -65 130 0 130 0 0 -65 0 -65 125 0 125 0 0 -60 0 -60
125 0 125 0 0 -65 0 -65 125 0 125 0 0 -65 0 -65 255 0 255 0 0 -60 0 -60 125
0 125 0 0 -65 0 -65 190 0 190 0 0 -65 0 -65 65 0 65 0 0 -60 0 -60 190 0 190
0 0 -65 0 -65 65 0 65 0 0 -65 0 -65 60 0 60 0 0 -60 0 -60 65 0 65 0 0 -65 0
-65 125 0 125 0 0 -65 0 -65 65 0 65 0 0 -60 0 -60 65 0 65 0 0 -65 0 -65 60
0 60 0 0 -60 0 -60 130 0 130 0 0 -65 0 -65 125 0 125 0 0 65 0 65 65 0 65 0
0 60 0 60 60 0 60 0 0 65 0 65 315 0 315 0 0 60 0 60 65 0 65 0 0 130 0 130
65 0 65 0 0 125 0 125 60 0 60 0 0 65 0 65 65 0 65 0 0 190 0 190 65 0 65 0 0
60 0 60 60 0 60 0 0 190 0 190 -60 0 -60 0 0 130 0 130 -65 0 -65 0 0 60 0 60
-65 0 -65 0 0 65 0 65 -190 0 -190 0 0 65 0 65 -60 0 -60 0 0 60 0 60 -65 0
-65 0 0 65 0 65 -65 0 -65 0 0 65 0 65 -60 0 -60 0 0 60 0 60 -65 0 -65 0 0
65 0 65 -60 0 -60 0 0 65 0 65 -65 0 -65 0 0 60 0 60 -65 0 -65 0 0 65 0 65
-60 0 -60 0 0 65 0 65 -130 0 -130 0 0 60 0 60 -60 0 -60 0 0 65 0 65 -65 0
-65 0 0 65 0 65 -65 0 -65 0 0 60 0 60 -60 0 -60 0 0 65 0 65 -65 0 -65 0 0
65 0 65 -65 0 -65 0 0 60 0 60 -60 0 -60 0 0 65 0 65 -190 0 -190 0 0 125 0
125 -255 0 -255 0 0 125 0 125 65 0 65 0 0 130 0 130 60 0 60 0 0 125 0 125
65 0 65 0 0 125 0 125 125 0 125 0 0 130 0 130 65 0 65 0 0 60 0 60 65 0 65 0
0 190 0 190 -65 0 -65 0 0 130 0 130 65 0 65 0 0 60 0 60 60 0 60 0 0 -190 0
-190 65 0 65 0 0 -60 0 -60 65 0 65 0 0 -65 0 -65 60 0 60 0 0 -65 0 -65 320
0 320 0 0 65 0 65 190 0 190 0 0 65 0 65 60 0 60 0 0 60 0 60 65 0 65 0 0 65
0 65 60 0 60 0 0 65 0 65 65 0 65 0 0 60 0 60 65 0 65 0 0 130 0 130 60 0 60
0 0 125 0 125 65 0 65 0 0 255 0 255 65 0 65 0 0 190 0 190 125 0 125 0 0 375
0 375 65 0 65 0 0 65 0 65 60 0 60 0 0 885 0 885 -60 0 -60 0 0 190 0 190 -65
0 -65 0 0 65 0 65 -65 0 -65 0 0 65 0 65 -60 0 -60 0 0 60 0 60 -65 0 -65 0 0
130 0 130 -125 0 -125 0 0 60 0 60 -130 0 -130 0 0 65 0 65 -190 0 -190 0 0
65 0 65 -250 0 -250 0 0 60 0 60 -65 0 -65 0 0 65 0 65 -315 0 -315 0 0 -125z
m510 -65 l0 -60 60 0 60 0 0 -65 0 -65 65 0 65 0 0 -65 0 -65 65 0 65 0 0 65
0 65 60 0 60 0 0 -65 0 -65 65 0 65 0 0 -60 0 -60 60 0 60 0 0 60 0 60 130 0
130 0 0 -60 0 -60 125 0 125 0 0 -65 0 -65 125 0 125 0 0 -125 0 -125 65 0 65
0 0 -65 0 -65 65 0 65 0 0 -65 0 -65 60 0 60 0 0 -60 0 -60 65 0 65 0 0 -190
0 -190 65 0 65 0 0 -760 0 -760 -65 0 -65 0 0 -65 0 -65 -65 0 -65 0 0 -380 0
-380 -190 0 -190 0 0 -60 0 -60 65 0 65 0 0 -65 0 -65 -65 0 -65 0 0 -190 0
-190 -60 0 -60 0 0 -65 0 -65 60 0 60 0 0 -60 0 -60 -60 0 -60 0 0 -65 0 -65
-65 0 -65 0 0 -190 0 -190 -65 0 -65 0 0 -65 0 -65 -60 0 -60 0 0 -60 0 -60
-65 0 -65 0 0 -65 0 -65 -60 0 -60 0 0 -65 0 -65 -65 0 -65 0 0 -60 0 -60 -65
0 -65 0 0 60 0 60 -60 0 -60 0 0 -60 0 -60 -65 0 -65 0 0 -65 0 -65 -65 0 -65
0 0 65 0 65 -60 0 -60 0 0 60 0 60 -65 0 -65 0 0 65 0 65 -65 0 -65 0 0 65 0
65 -60 0 -60 0 0 60 0 60 60 0 60 0 0 65 0 65 -60 0 -60 0 0 65 0 65 60 0 60
0 0 60 0 60 -60 0 -60 0 0 65 0 65 60 0 60 0 0 65 0 65 -60 0 -60 0 0 60 0 60
60 0 60 0 0 65 0 65 65 0 65 0 0 65 0 65 65 0 65 0 0 60 0 60 60 0 60 0 0 65
0 65 65 0 65 0 0 65 0 65 -65 0 -65 0 0 60 0 60 65 0 65 0 0 65 0 65 65 0 65
0 0 60 0 60 60 0 60 0 0 65 0 65 65 0 65 0 0 65 0 65 -65 0 -65 0 0 60 0 60
65 0 65 0 0 65 0 65 60 0 60 0 0 65 0 65 65 0 65 0 0 125 0 125 -125 0 -125 0
0 65 0 65 -65 0 -65 0 0 -65 0 -65 -60 0 -60 0 0 65 0 65 60 0 60 0 0 60 0 60
-60 0 -60 0 0 65 0 65 60 0 60 0 0 65 0 65 -60 0 -60 0 0 315 0 315 60 0 60 0
0 65 0 65 -60 0 -60 0 0 60 0 60 -65 0 -65 0 0 65 0 65 65 0 65 0 0 65 0 65
-65 0 -65 0 0 60 0 60 -65 0 -65 0 0 65 0 65 65 0 65 0 0 -65 0 -65 65 0 65 0
0 -60 0 -60 60 0 60 0 0 -65 0 -65 65 0 65 0 0 -65 0 -65 60 0 60 0 0 -60 0
-60 -60 0 -60 0 0 -65 0 -65 60 0 60 0 0 -65 0 -65 65 0 65 0 0 -60 0 -60 65
0 65 0 0 60 0 60 60 0 60 0 0 65 0 65 -60 0 -60 0 0 65 0 65 60 0 60 0 0 60 0
60 -60 0 -60 0 0 65 0 65 -65 0 -65 0 0 65 0 65 -65 0 -65 0 0 60 0 60 65 0
65 0 0 65 0 65 -65 0 -65 0 0 65 0 65 -60 0 -60 0 0 -65 0 -65 -65 0 -65 0 0
65 0 65 -60 0 -60 0 0 60 0 60 -65 0 -65 0 0 65 0 65 -65 0 -65 0 0 65 0 65
-60 0 -60 0 0 60 0 60 -65 0 -65 0 0 65 0 65 -65 0 -65 0 0 -65 0 -65 -60 0
-60 0 0 -60 0 -60 60 0 60 0 0 -65 0 -65 65 0 65 0 0 -65 0 -65 -65 0 -65 0 0
-60 0 -60 65 0 65 0 0 -65 0 -65 65 0 65 0 0 -190 0 -190 60 0 60 0 0 -315 0
-315 65 0 65 0 0 -65 0 -65 -65 0 -65 0 0 -65 0 -65 65 0 65 0 0 -60 0 -60
-65 0 -65 0 0 60 0 60 -60 0 -60 0 0 -60 0 -60 -65 0 -65 0 0 60 0 60 65 0 65
0 0 65 0 65 -65 0 -65 0 0 65 0 65 -65 0 -65 0 0 60 0 60 -60 0 -60 0 0 65 0
65 -65 0 -65 0 0 65 0 65 -65 0 -65 0 0 60 0 60 -60 0 -60 0 0 -190 0 -190 60
0 60 0 0 -60 0 -60 65 0 65 0 0 -255 0 -255 65 0 65 0 0 -125 0 -125 60 0 60
0 0 -65 0 -65 65 0 65 0 0 -65 0 -65 -65 0 -65 0 0 -60 0 -60 65 0 65 0 0 -65
0 -65 -65 0 -65 0 0 -65 0 -65 -60 0 -60 0 0 -60 0 -60 60 0 60 0 0 -65 0 -65
-60 0 -60 0 0 -65 0 -65 -65 0 -65 0 0 65 0 65 65 0 65 0 0 65 0 65 -65 0 -65
0 0 60 0 60 -65 0 -65 0 0 65 0 65 -60 0 -60 0 0 65 0 65 -65 0 -65 0 0 60 0
60 -65 0 -65 0 0 65 0 65 65 0 65 0 0 65 0 65 -65 0 -65 0 0 60 0 60 -60 0
-60 0 0 65 0 65 60 0 60 0 0 65 0 65 -60 0 -60 0 0 60 0 60 -65 0 -65 0 0 65
0 65 65 0 65 0 0 125 0 125 -65 0 -65 0 0 130 0 130 -65 0 -65 0 0 60 0 60
-125 0 -125 0 0 65 0 65 -65 0 -65 0 0 65 0 65 -60 0 -60 0 0 60 0 60 -255 0
-255 0 0 -60 0 -60 190 0 190 0 0 -65 0 -65 65 0 65 0 0 -65 0 -65 60 0 60 0
0 -60 0 -60 65 0 65 0 0 -130 0 -130 65 0 65 0 0 -315 0 -315 60 0 60 0 0
-190 0 -190 65 0 65 0 0 -190 0 -190 65 0 65 0 0 -190 0 -190 60 0 60 0 0
-125 0 -125 -60 0 -60 0 0 -65 0 -65 60 0 60 0 0 -60 0 -60 -60 0 -60 0 0 60
0 60 -65 0 -65 0 0 65 0 65 -65 0 -65 0 0 60 0 60 -60 0 -60 0 0 65 0 65 -65
0 -65 0 0 65 0 65 -65 0 -65 0 0 60 0 60 -60 0 -60 0 0 -60 0 -60 -65 0 -65 0
0 60 0 60 -65 0 -65 0 0 65 0 65 -60 0 -60 0 0 -65 0 -65 -65 0 -65 0 0 65 0
65 -65 0 -65 0 0 -65 0 -65 -60 0 -60 0 0 65 0 65 -65 0 -65 0 0 -65 0 -65
-65 0 -65 0 0 65 0 65 -60 0 -60 0 0 -125 0 -125 190 0 190 0 0 -65 0 -65 190
0 190 0 0 -65 0 -65 125 0 125 0 0 -60 0 -60 125 0 125 0 0 -65 0 -65 65 0 65
0 0 -60 0 -60 65 0 65 0 0 -65 0 -65 60 0 60 0 0 -65 0 -65 65 0 65 0 0 -125
0 -125 65 0 65 0 0 -65 0 -65 -65 0 -65 0 0 -60 0 -60 -65 0 -65 0 0 60 0 60
-60 0 -60 0 0 -60 0 -60 -65 0 -65 0 0 60 0 60 -65 0 -65 0 0 -60 0 -60 -60 0
-60 0 0 -65 0 -65 60 0 60 0 0 -65 0 -65 -60 0 -60 0 0 -60 0 -60 60 0 60 0 0
-65 0 -65 65 0 65 0 0 -65 0 -65 65 0 65 0 0 -60 0 -60 60 0 60 0 0 -65 0 -65
65 0 65 0 0 -65 0 -65 65 0 65 0 0 -60 0 -60 -65 0 -65 0 0 -65 0 -65 65 0 65
0 0 -65 0 -65 -65 0 -65 0 0 65 0 65 -65 0 -65 0 0 65 0 65 -60 0 -60 0 0 60
0 60 -65 0 -65 0 0 65 0 65 -65 0 -65 0 0 65 0 65 -60 0 -60 0 0 60 0 60 -65
0 -65 0 0 65 0 65 -65 0 -65 0 0 65 0 65 -60 0 -60 0 0 -65 0 -65 -65 0 -65 0
0 -65 0 -65 -65 0 -65 0 0 -60 0 -60 65 0 65 0 0 -65 0 -65 -65 0 -65 0 0 -65
0 -65 65 0 65 0 0 -60 0 -60 65 0 65 0 0 -65 0 -65 60 0 60 0 0 -65 0 -65 65
0 65 0 0 -60 0 -60 65 0 65 0 0 60 0 60 60 0 60 0 0 -60 0 -60 65 0 65 0 0
-65 0 -65 65 0 65 0 0 -65 0 -65 60 0 60 0 0 -60 0 -60 -60 0 -60 0 0 60 0 60
-65 0 -65 0 0 65 0 65 -65 0 -65 0 0 65 0 65 -60 0 -60 0 0 -65 0 -65 -65 0
-65 0 0 65 0 65 -65 0 -65 0 0 -65 0 -65 -60 0 -60 0 0 -65 0 -65 60 0 60 0 0
-60 0 -60 65 0 65 0 0 -65 0 -65 65 0 65 0 0 -65 0 -65 60 0 60 0 0 -60 0 -60
-60 0 -60 0 0 60 0 60 -65 0 -65 0 0 -60 0 -60 -65 0 -65 0 0 60 0 60 -190 0
-190 0 0 65 0 65 -60 0 -60 0 0 -65 0 -65 -65 0 -65 0 0 65 0 65 -65 0 -65 0
0 -65 0 -65 -60 0 -60 0 0 65 0 65 -65 0 -65 0 0 -65 0 -65 -65 0 -65 0 0 -60
0 -60 -185 0 -185 0 0 -65 0 -65 -65 0 -65 0 0 -65 0 -65 -65 0 -65 0 0 -60 0
-60 -60 0 -60 0 0 -65 0 -65 60 0 60 0 0 -65 0 -65 -60 0 -60 0 0 -125 0 -125
-65 0 -65 0 0 -190 0 -190 65 0 65 0 0 -60 0 -60 125 0 125 0 0 -65 0 -65 65
0 65 0 0 -65 0 -65 60 0 60 0 0 -60 0 -60 65 0 65 0 0 -65 0 -65 65 0 65 0 0
-65 0 -65 60 0 60 0 0 -60 0 -60 125 0 125 0 0 -65 0 -65 130 0 130 0 0 -65 0
-65 60 0 60 0 0 -60 0 -60 65 0 65 0 0 -65 0 -65 65 0 65 0 0 -65 0 -65 60 0
60 0 0 -60 0 -60 65 0 65 0 0 -65 0 -65 190 0 190 0 0 -65 0 -65 65 0 65 0 0
-60 0 -60 190 0 190 0 0 -65 0 -65 60 0 60 0 0 -65 0 -65 65 0 65 0 0 -60 0
-60 65 0 65 0 0 -65 0 -65 125 0 125 0 0 -65 0 -65 65 0 65 0 0 -60 0 -60 60
0 60 0 0 -65 0 -65 65 0 65 0 0 -65 0 -65 65 0 65 0 0 -60 0 -60 125 0 125 0
0 -65 0 -65 125 0 125 0 0 -65 0 -65 65 0 65 0 0 -60 0 -60 65 0 65 0 0 -190
0 -190 -65 0 -65 0 0 -65 0 -65 -65 0 -65 0 0 65 0 65 -125 0 -125 0 0 60 0
60 -65 0 -65 0 0 65 0 65 -60 0 -60 0 0 65 0 65 -65 0 -65 0 0 60 0 60 -125 0
-125 0 0 65 0 65 -65 0 -65 0 0 65 0 65 -65 0 -65 0 0 60 0 60 -60 0 -60 0 0
65 0 65 -190 0 -190 0 0 65 0 65 -65 0 -65 0 0 60 0 60 -190 0 -190 0 0 65 0
65 -125 0 -125 0 0 65 0 65 -190 0 -190 0 0 60 0 60 -190 0 -190 0 0 65 0 65
-65 0 -65 0 0 65 0 65 -190 0 -190 0 0 60 0 60 -60 0 -60 0 0 65 0 65 -65 0
-65 0 0 65 0 65 -190 0 -190 0 0 60 0 60 -65 0 -65 0 0 65 0 65 -125 0 -125 0
0 65 0 65 -65 0 -65 0 0 60 0 60 -60 0 -60 0 0 65 0 65 -65 0 -65 0 0 65 0 65
-65 0 -65 0 0 60 0 60 -60 0 -60 0 0 65 0 65 -65 0 -65 0 0 65 0 65 -65 0 -65
0 0 60 0 60 -60 0 -60 0 0 65 0 65 -65 0 -65 0 0 255 0 255 -65 0 -65 0 0 185
0 185 -60 0 -60 0 0 65 0 65 60 0 60 0 0 65 0 65 -60 0 -60 0 0 60 0 60 60 0
60 0 0 65 0 65 65 0 65 0 0 65 0 65 65 0 65 0 0 60 0 60 -65 0 -65 0 0 190 0
190 65 0 65 0 0 320 0 320 60 0 60 0 0 60 0 60 65 0 65 0 0 65 0 65 -65 0 -65
0 0 190 0 190 65 0 65 0 0 65 0 65 65 0 65 0 0 60 0 60 -65 0 -65 0 0 65 0 65
65 0 65 0 0 65 0 65 60 0 60 0 0 60 0 60 -60 0 -60 0 0 65 0 65 60 0 60 0 0
125 0 125 65 0 65 0 0 130 0 130 65 0 65 0 0 185 0 185 60 0 60 0 0 65 0 65
65 0 65 0 0 65 0 65 65 0 65 0 0 60 0 60 60 0 60 0 0 65 0 65 65 0 65 0 0 65
0 65 65 0 65 0 0 60 0 60 60 0 60 0 0 65 0 65 -60 0 -60 0 0 65 0 65 60 0 60
0 0 190 0 190 190 0 190 0 0 -65 0 -65 125 0 125 0 0 -65 0 -65 65 0 65 0 0
-60 0 -60 65 0 65 0 0 -130 0 -130 60 0 60 0 0 65 0 65 65 0 65 0 0 65 0 65
-65 0 -65 0 0 60 0 60 -60 0 -60 0 0 65 0 65 60 0 60 0 0 65 0 65 -60 0 -60 0
0 60 0 60 -65 0 -65 0 0 -60 0 -60 -65 0 -65 0 0 60 0 60 -60 0 -60 0 0 65 0
65 -65 0 -65 0 0 65 0 65 -65 0 -65 0 0 -65 0 -65 -60 0 -60 0 0 65 0 65 60 0
60 0 0 60 0 60 65 0 65 0 0 65 0 65 -65 0 -65 0 0 65 0 65 65 0 65 0 0 60 0
60 65 0 65 0 0 65 0 65 60 0 60 0 0 65 0 65 65 0 65 0 0 60 0 60 -65 0 -65 0
0 65 0 65 65 0 65 0 0 65 0 65 65 0 65 0 0 60 0 60 60 0 60 0 0 65 0 65 320 0
320 0 0 65 0 65 125 0 125 0 0 60 0 60 65 0 65 0 0 65 0 65 60 0 60 0 0 -125
0 -125 65 0 65 0 0 -65 0 -65 -65 0 -65 0 0 -65 0 -65 65 0 65 0 0 -60 0 -60
65 0 65 0 0 -65 0 -65 250 0 250 0 0 65 0 65 65 0 65 0 0 250 0 250 65 0 65 0
0 65 0 65 60 0 60 0 0 65 0 65 65 0 65 0 0 60 0 60 65 0 65 0 0 -60z m-2920
-7215 l0 -65 65 0 65 0 0 65 0 65 65 0 65 0 0 -65 0 -65 -65 0 -65 0 0 -65 0
-65 65 0 65 0 0 -60 0 -60 -65 0 -65 0 0 60 0 60 -65 0 -65 0 0 -60 0 -60 -60
0 -60 0 0 -130 0 -130 125 0 125 0 0 65 0 65 65 0 65 0 0 -65 0 -65 60 0 60 0
0 65 0 65 255 0 255 0 0 65 0 65 65 0 65 0 0 -65 0 -65 60 0 60 0 0 -125 0
-125 130 0 130 0 0 60 0 60 125 0 125 0 0 -125 0 -125 190 0 190 0 0 -60 0
-60 65 0 65 0 0 -65 0 -65 60 0 60 0 0 -65 0 -65 65 0 65 0 0 -60 0 -60 65 0
65 0 0 -65 0 -65 60 0 60 0 0 -65 0 -65 65 0 65 0 0 -60 0 -60 65 0 65 0 0
-65 0 -65 125 0 125 0 0 -65 0 -65 65 0 65 0 0 -60 0 -60 60 0 60 0 0 -65 0
-65 65 0 65 0 0 -65 0 -65 65 0 65 0 0 -60 0 -60 60 0 60 0 0 -65 0 -65 65 0
65 0 0 -65 0 -65 60 0 60 0 0 -60 0 -60 65 0 65 0 0 -65 0 -65 65 0 65 0 0
-65 0 -65 190 0 190 0 0 -60 0 -60 60 0 60 0 0 -65 0 -65 65 0 65 0 0 -125 0
-125 65 0 65 0 0 -65 0 -65 -65 0 -65 0 0 -65 0 -65 -65 0 -65 0 0 -125 0
-125 -60 0 -60 0 0 -65 0 -65 -65 0 -65 0 0 -60 0 -60 -65 0 -65 0 0 -65 0
-65 65 0 65 0 0 -65 0 -65 -65 0 -65 0 0 -60 0 -60 -60 0 -60 0 0 -65 0 -65
-65 0 -65 0 0 -65 0 -65 -190 0 -190 0 0 65 0 65 65 0 65 0 0 65 0 65 -65 0
-65 0 0 60 0 60 -60 0 -60 0 0 65 0 65 -65 0 -65 0 0 65 0 65 -65 0 -65 0 0
60 0 60 -60 0 -60 0 0 65 0 65 -65 0 -65 0 0 -65 0 -65 -65 0 -65 0 0 65 0 65
-60 0 -60 0 0 65 0 65 -65 0 -65 0 0 60 0 60 -65 0 -65 0 0 65 0 65 -60 0 -60
0 0 65 0 65 -65 0 -65 0 0 60 0 60 -65 0 -65 0 0 65 0 65 -60 0 -60 0 0 65 0
65 -65 0 -65 0 0 60 0 60 -65 0 -65 0 0 65 0 65 -60 0 -60 0 0 -65 0 -65 -65
0 -65 0 0 65 0 65 -65 0 -65 0 0 65 0 65 -60 0 -60 0 0 60 0 60 60 0 60 0 0
-60 0 -60 65 0 65 0 0 60 0 60 65 0 65 0 0 65 0 65 60 0 60 0 0 65 0 65 -60 0
-60 0 0 60 0 60 60 0 60 0 0 65 0 65 65 0 65 0 0 65 0 65 -65 0 -65 0 0 60 0
60 -60 0 -60 0 0 -60 0 -60 -65 0 -65 0 0 60 0 60 -65 0 -65 0 0 -60 0 -60
-60 0 -60 0 0 60 0 60 -65 0 -65 0 0 -125 0 -125 -125 0 -125 0 0 -65 0 -65
60 0 60 0 0 -60 0 -60 -60 0 -60 0 0 -65 0 -65 60 0 60 0 0 -65 0 -65 65 0 65
0 0 -60 0 -60 -65 0 -65 0 0 60 0 60 -60 0 -60 0 0 65 0 65 -65 0 -65 0 0 65
0 65 -65 0 -65 0 0 60 0 60 -60 0 -60 0 0 65 0 65 -65 0 -65 0 0 65 0 65 -65
0 -65 0 0 60 0 60 -60 0 -60 0 0 -60 0 -60 -65 0 -65 0 0 60 0 60 -65 0 -65 0
0 65 0 65 -60 0 -60 0 0 65 0 65 -65 0 -65 0 0 60 0 60 -60 0 -60 0 0 65 0 65
-65 0 -65 0 0 65 0 65 -65 0 -65 0 0 60 0 60 -60 0 -60 0 0 65 0 65 -65 0 -65
0 0 -65 0 -65 -65 0 -65 0 0 65 0 65 -60 0 -60 0 0 65 0 65 60 0 60 0 0 60 0
60 65 0 65 0 0 65 0 65 65 0 65 0 0 60 0 60 -65 0 -65 0 0 65 0 65 65 0 65 0
0 65 0 65 60 0 60 0 0 60 0 60 65 0 65 0 0 65 0 65 60 0 60 0 0 -65 0 -65 65
0 65 0 0 65 0 65 65 0 65 0 0 65 0 65 60 0 60 0 0 -65z m510 0 l0 -65 -65 0
-65 0 0 65 0 65 65 0 65 0 0 -65z m1010 -2280 l0 -65 65 0 65 0 0 -60 0 -60
-65 0 -65 0 0 -65 0 -65 -60 0 -60 0 0 65 0 65 -65 0 -65 0 0 60 0 60 65 0 65
0 0 65 0 65 60 0 60 0 0 -65z"/>
<path d="M8970 13985 l0 -65 65 0 65 0 0 -65 0 -65 60 0 60 0 0 -60 0 -60 65
0 65 0 0 -65 0 -65 65 0 65 0 0 -65 0 -65 60 0 60 0 0 -60 0 -60 65 0 65 0 0
60 0 60 60 0 60 0 0 -60 0 -60 65 0 65 0 0 -65 0 -65 65 0 65 0 0 -65 0 -65
-65 0 -65 0 0 -60 0 -60 65 0 65 0 0 60 0 60 60 0 60 0 0 -60 0 -60 65 0 65 0
0 -65 0 -65 65 0 65 0 0 65 0 65 60 0 60 0 0 60 0 60 65 0 65 0 0 -60 0 -60
65 0 65 0 0 60 0 60 -65 0 -65 0 0 65 0 65 -65 0 -65 0 0 65 0 65 -60 0 -60 0
0 60 0 60 -65 0 -65 0 0 65 0 65 -65 0 -65 0 0 -65 0 -65 65 0 65 0 0 -60 0
-60 -65 0 -65 0 0 -65 0 -65 -60 0 -60 0 0 65 0 65 -65 0 -65 0 0 60 0 60 65
0 65 0 0 65 0 65 -65 0 -65 0 0 65 0 65 -65 0 -65 0 0 -65 0 -65 -60 0 -60 0
0 65 0 65 -65 0 -65 0 0 60 0 60 -60 0 -60 0 0 -60 0 -60 -65 0 -65 0 0 60 0
60 -65 0 -65 0 0 65 0 65 -60 0 -60 0 0 65 0 65 -65 0 -65 0 0 -65z m630 -380
l0 -65 65 0 65 0 0 -65 0 -65 -65 0 -65 0 0 65 0 65 -60 0 -60 0 0 65 0 65 60
0 60 0 0 -65z m380 -130 l0 -65 -65 0 -65 0 0 65 0 65 65 0 65 0 0 -65z m510
-250 l0 -65 60 0 60 0 0 -65 0 -65 -60 0 -60 0 0 -60 0 -60 -65 0 -65 0 0 60
0 60 -65 0 -65 0 0 65 0 65 65 0 65 0 0 65 0 65 65 0 65 0 0 -65z"/>
<path d="M10360 13095 l0 -65 65 0 65 0 0 65 0 65 -65 0 -65 0 0 -65z"/>
<path d="M6310 13095 l0 -65 65 0 65 0 0 -60 0 -60 -65 0 -65 0 0 -65 0 -65
65 0 65 0 0 65 0 65 60 0 60 0 0 60 0 60 65 0 65 0 0 65 0 65 -65 0 -65 0 0
-65 0 -65 -60 0 -60 0 0 65 0 65 -65 0 -65 0 0 -65z"/>
<path d="M8460 12715 l0 -65 65 0 65 0 0 65 0 65 -65 0 -65 0 0 -65z"/>
<path d="M9480 12715 l0 -65 60 0 60 0 0 -60 0 -60 65 0 65 0 0 60 0 60 -65 0
-65 0 0 65 0 65 -60 0 -60 0 0 -65z"/>
<path d="M10230 12465 l0 -65 65 0 65 0 0 65 0 65 -65 0 -65 0 0 -65z"/>
<path d="M8840 12335 l0 -65 65 0 65 0 0 65 0 65 -65 0 -65 0 0 -65z"/>
<path d="M9600 12335 l0 -65 65 0 65 0 0 -60 0 -60 60 0 60 0 0 -65 0 -65 65
0 65 0 0 -65 0 -65 65 0 65 0 0 -60 0 -60 -65 0 -65 0 0 -65 0 -65 65 0 65 0
0 -65 0 -65 60 0 60 0 0 65 0 65 -60 0 -60 0 0 65 0 65 60 0 60 0 0 60 0 60
-60 0 -60 0 0 65 0 65 60 0 60 0 0 65 0 65 -60 0 -60 0 0 -65 0 -65 -65 0 -65
0 0 65 0 65 -65 0 -65 0 0 60 0 60 -60 0 -60 0 0 65 0 65 -65 0 -65 0 0 -65z"/>
<path d="M5930 12210 l0 -60 65 0 65 0 0 -65 0 -65 60 0 60 0 0 -65 0 -65 65
0 65 0 0 65 0 65 -65 0 -65 0 0 65 0 65 -60 0 -60 0 0 60 0 60 -65 0 -65 0 0
-60z"/>
<path d="M6440 11955 l0 -65 60 0 60 0 0 -60 0 -60 65 0 65 0 0 -65 0 -65 -65
0 -65 0 0 -65 0 -65 65 0 65 0 0 -60 0 -60 65 0 65 0 0 -65 0 -65 -65 0 -65 0
0 -65 0 -65 -65 0 -65 0 0 -60 0 -60 -60 0 -60 0 0 60 0 60 -65 0 -65 0 0 -60
0 -60 -65 0 -65 0 0 -65 0 -65 65 0 65 0 0 65 0 65 65 0 65 0 0 -65 0 -65 60
0 60 0 0 65 0 65 65 0 65 0 0 -65 0 -65 65 0 65 0 0 65 0 65 60 0 60 0 0 -65
0 -65 65 0 65 0 0 -65 0 -65 65 0 65 0 0 65 0 65 60 0 60 0 0 -65 0 -65 65 0
65 0 0 -60 0 -60 65 0 65 0 0 -65 0 -65 60 0 60 0 0 -65 0 -65 65 0 65 0 0
-60 0 -60 65 0 65 0 0 60 0 60 -65 0 -65 0 0 65 0 65 -65 0 -65 0 0 65 0 65
-60 0 -60 0 0 60 0 60 60 0 60 0 0 65 0 65 -60 0 -60 0 0 65 0 65 -65 0 -65 0
0 60 0 60 -65 0 -65 0 0 65 0 65 -60 0 -60 0 0 65 0 65 -65 0 -65 0 0 60 0 60
-65 0 -65 0 0 65 0 65 -60 0 -60 0 0 65 0 65 -65 0 -65 0 0 60 0 60 -65 0 -65
0 0 65 0 65 -60 0 -60 0 0 -65z m380 -380 l0 -65 60 0 60 0 0 -60 0 -60 65 0
65 0 0 -65 0 -65 65 0 65 0 0 -65 0 -65 60 0 60 0 0 -60 0 -60 65 0 65 0 0
-65 0 -65 65 0 65 0 0 -65 0 -65 -65 0 -65 0 0 65 0 65 -65 0 -65 0 0 65 0 65
-60 0 -60 0 0 -65 0 -65 -65 0 -65 0 0 65 0 65 -65 0 -65 0 0 60 0 60 -60 0
-60 0 0 -60 0 -60 -65 0 -65 0 0 60 0 60 65 0 65 0 0 65 0 65 60 0 60 0 0 65
0 65 -60 0 -60 0 0 60 0 60 -65 0 -65 0 0 65 0 65 65 0 65 0 0 -65z"/>
<path d="M6940 11195 l0 -65 65 0 65 0 0 -60 0 -60 65 0 65 0 0 60 0 60 -65 0
-65 0 0 65 0 65 -65 0 -65 0 0 -65z"/>
<path d="M7960 11955 l0 -65 60 0 60 0 0 -60 0 -60 65 0 65 0 0 60 0 60 -65 0
-65 0 0 65 0 65 -60 0 -60 0 0 -65z"/>
<path d="M9600 11830 l0 -60 65 0 65 0 0 -65 0 -65 -65 0 -65 0 0 -65 0 -65
65 0 65 0 0 -60 0 -60 60 0 60 0 0 60 0 60 -60 0 -60 0 0 65 0 65 60 0 60 0 0
65 0 65 -60 0 -60 0 0 60 0 60 -65 0 -65 0 0 -60z"/>
<path d="M8080 11575 l0 -65 65 0 65 0 0 -60 0 -60 65 0 65 0 0 -65 0 -65 -65
0 -65 0 0 -65 0 -65 65 0 65 0 0 -60 0 -60 60 0 60 0 0 -65 0 -65 65 0 65 0 0
-65 0 -65 65 0 65 0 0 65 0 65 60 0 60 0 0 65 0 65 -60 0 -60 0 0 60 0 60 60
0 60 0 0 65 0 65 -60 0 -60 0 0 65 0 65 -65 0 -65 0 0 -65 0 -65 -65 0 -65 0
0 65 0 65 -60 0 -60 0 0 60 0 60 -65 0 -65 0 0 65 0 65 -65 0 -65 0 0 -65z
m380 -380 l0 -65 65 0 65 0 0 65 0 65 65 0 65 0 0 -65 0 -65 -65 0 -65 0 0
-60 0 -60 65 0 65 0 0 -65 0 -65 -65 0 -65 0 0 65 0 65 -65 0 -65 0 0 60 0 60
-60 0 -60 0 0 65 0 65 60 0 60 0 0 -65z"/>
<path d="M10740 11450 l0 -60 65 0 65 0 0 60 0 60 -65 0 -65 0 0 -60z"/>
<path d="M10110 11325 l0 -65 60 0 60 0 0 65 0 65 -60 0 -60 0 0 -65z"/>
<path d="M10740 11195 l0 -65 65 0 65 0 0 65 0 65 -65 0 -65 0 0 -65z"/>
<path d="M10110 11070 l0 -60 60 0 60 0 0 60 0 60 -60 0 -60 0 0 -60z"/>
<path d="M5930 10945 l0 -65 65 0 65 0 0 65 0 65 -65 0 -65 0 0 -65z"/>
<path d="M9850 10815 l0 -65 -60 0 -60 0 0 -60 0 -60 60 0 60 0 0 -65 0 -65
-60 0 -60 0 0 -65 0 -65 -65 0 -65 0 0 -60 0 -60 -60 0 -60 0 0 -65 0 -65 -65
0 -65 0 0 -60 0 -60 65 0 65 0 0 -65 0 -65 -65 0 -65 0 0 -65 0 -65 -65 0 -65
0 0 -60 0 -60 -60 0 -60 0 0 -65 0 -65 -65 0 -65 0 0 -65 0 -65 -65 0 -65 0 0
-60 0 -60 65 0 65 0 0 -65 0 -65 -65 0 -65 0 0 -65 0 -65 65 0 65 0 0 -60 0
-60 -65 0 -65 0 0 -65 0 -65 65 0 65 0 0 -65 0 -65 -65 0 -65 0 0 -60 0 -60
65 0 65 0 0 -65 0 -65 65 0 65 0 0 -65 0 -65 60 0 60 0 0 -60 0 -60 65 0 65 0
0 60 0 60 -65 0 -65 0 0 65 0 65 65 0 65 0 0 65 0 65 -65 0 -65 0 0 60 0 60
65 0 65 0 0 65 0 65 -65 0 -65 0 0 65 0 65 65 0 65 0 0 60 0 60 -65 0 -65 0 0
65 0 65 65 0 65 0 0 65 0 65 -65 0 -65 0 0 60 0 60 65 0 65 0 0 65 0 65 65 0
65 0 0 -65 0 -65 60 0 60 0 0 65 0 65 65 0 65 0 0 65 0 65 -65 0 -65 0 0 60 0
60 -60 0 -60 0 0 65 0 65 60 0 60 0 0 65 0 65 -60 0 -60 0 0 60 0 60 60 0 60
0 0 65 0 65 65 0 65 0 0 -65 0 -65 60 0 60 0 0 65 0 65 65 0 65 0 0 60 0 60
-65 0 -65 0 0 65 0 65 65 0 65 0 0 65 0 65 -65 0 -65 0 0 60 0 60 65 0 65 0 0
65 0 65 -65 0 -65 0 0 -65z m0 -505 l0 -60 -60 0 -60 0 0 60 0 60 60 0 60 0 0
-60z m-370 -630 l0 -60 60 0 60 0 0 -65 0 -65 -60 0 -60 0 0 65 0 65 -65 0
-65 0 0 -65 0 -65 -65 0 -65 0 0 -65 0 -65 -60 0 -60 0 0 -60 0 -60 60 0 60 0
0 -65 0 -65 -60 0 -60 0 0 -65 0 -65 60 0 60 0 0 -60 0 -60 -60 0 -60 0 0 -65
0 -65 60 0 60 0 0 -65 0 -65 -60 0 -60 0 0 -60 0 -60 60 0 60 0 0 -65 0 -65
-60 0 -60 0 0 65 0 65 -65 0 -65 0 0 60 0 60 65 0 65 0 0 65 0 65 -65 0 -65 0
0 65 0 65 65 0 65 0 0 60 0 60 -65 0 -65 0 0 65 0 65 65 0 65 0 0 65 0 65 -65
0 -65 0 0 60 0 60 65 0 65 0 0 65 0 65 60 0 60 0 0 65 0 65 65 0 65 0 0 60 0
60 65 0 65 0 0 -60z"/>
<path d="M10110 10815 l0 -65 60 0 60 0 0 65 0 65 -60 0 -60 0 0 -65z"/>
<path d="M10110 10565 l0 -65 60 0 60 0 0 65 0 65 -60 0 -60 0 0 -65z"/>
<path d="M5930 9935 l0 -65 65 0 65 0 0 65 0 65 -65 0 -65 0 0 -65z"/>
<path d="M6180 9935 l0 -65 65 0 65 0 0 -65 0 -65 65 0 65 0 0 -60 0 -60 60 0
60 0 0 -65 0 -65 65 0 65 0 0 -65 0 -65 65 0 65 0 0 -60 0 -60 60 0 60 0 0
-65 0 -65 65 0 65 0 0 -65 0 -65 65 0 65 0 0 65 0 65 -65 0 -65 0 0 65 0 65
65 0 65 0 0 60 0 60 60 0 60 0 0 65 0 65 65 0 65 0 0 -65 0 -65 65 0 65 0 0
65 0 65 -65 0 -65 0 0 65 0 65 -65 0 -65 0 0 60 0 60 -60 0 -60 0 0 -60 0 -60
-65 0 -65 0 0 60 0 60 -65 0 -65 0 0 65 0 65 -60 0 -60 0 0 65 0 65 -65 0 -65
0 0 -65 0 -65 -65 0 -65 0 0 65 0 65 -60 0 -60 0 0 -65 0 -65 -65 0 -65 0 0
65 0 65 -65 0 -65 0 0 -65z m380 -130 l0 -65 65 0 65 0 0 65 0 65 65 0 65 0 0
-65 0 -65 60 0 60 0 0 -60 0 -60 65 0 65 0 0 -65 0 -65 65 0 65 0 0 65 0 65
60 0 60 0 0 -65 0 -65 -60 0 -60 0 0 -65 0 -65 -65 0 -65 0 0 -60 0 -60 -65 0
-65 0 0 60 0 60 -60 0 -60 0 0 65 0 65 -65 0 -65 0 0 65 0 65 -65 0 -65 0 0
60 0 60 -60 0 -60 0 0 65 0 65 60 0 60 0 0 -65z"/>
<path d="M6690 9680 l0 -60 65 0 65 0 0 -65 0 -65 60 0 60 0 0 -65 0 -65 65 0
65 0 0 65 0 65 -65 0 -65 0 0 65 0 65 -60 0 -60 0 0 60 0 60 -65 0 -65 0 0
-60z"/>
<path d="M5170 9425 l0 -65 65 0 65 0 0 -60 0 -60 65 0 65 0 0 60 0 60 60 0
60 0 0 -60 0 -60 65 0 65 0 0 -65 0 -65 60 0 60 0 0 -65 0 -65 65 0 65 0 0
-60 0 -60 65 0 65 0 0 -65 0 -65 60 0 60 0 0 -65 0 -65 65 0 65 0 0 -60 0 -60
65 0 65 0 0 -65 0 -65 60 0 60 0 0 65 0 65 -60 0 -60 0 0 60 0 60 60 0 60 0 0
65 0 65 65 0 65 0 0 65 0 65 65 0 65 0 0 60 0 60 -65 0 -65 0 0 -60 0 -60 -65
0 -65 0 0 60 0 60 -60 0 -60 0 0 65 0 65 -65 0 -65 0 0 65 0 65 -65 0 -65 0 0
-65 0 -65 -60 0 -60 0 0 65 0 65 -65 0 -65 0 0 60 0 60 -65 0 -65 0 0 65 0 65
-60 0 -60 0 0 -65 0 -65 -65 0 -65 0 0 65 0 65 -60 0 -60 0 0 -65 0 -65 -65 0
-65 0 0 65 0 65 -65 0 -65 0 0 -65z m630 -125 l0 -60 65 0 65 0 0 -65 0 -65
65 0 65 0 0 -65 0 -65 60 0 60 0 0 65 0 65 65 0 65 0 0 -65 0 -65 65 0 65 0 0
-60 0 -60 60 0 60 0 0 -65 0 -65 -60 0 -60 0 0 -65 0 -65 -65 0 -65 0 0 65 0
65 -65 0 -65 0 0 65 0 65 -60 0 -60 0 0 60 0 60 -65 0 -65 0 0 65 0 65 -65 0
-65 0 0 65 0 65 -60 0 -60 0 0 60 0 60 60 0 60 0 0 -60z"/>
<path d="M6180 8920 l0 -60 65 0 65 0 0 -65 0 -65 65 0 65 0 0 65 0 65 -65 0
-65 0 0 60 0 60 -65 0 -65 0 0 -60z"/>
<path d="M4410 9175 l0 -65 65 0 65 0 0 65 0 65 -65 0 -65 0 0 -65z"/>
<path d="M7200 8665 l0 -65 60 0 60 0 0 -60 0 -60 65 0 65 0 0 -65 0 -65 65 0
65 0 0 -65 0 -65 60 0 60 0 0 -60 0 -60 65 0 65 0 0 60 0 60 -65 0 -65 0 0 65
0 65 -60 0 -60 0 0 65 0 65 -65 0 -65 0 0 60 0 60 -65 0 -65 0 0 65 0 65 -60
0 -60 0 0 -65z"/>
<path d="M5050 8540 l0 -60 60 0 60 0 0 60 0 60 -60 0 -60 0 0 -60z"/>
<path d="M5300 8540 l0 -60 65 0 65 0 0 -65 0 -65 60 0 60 0 0 -65 0 -65 -60
0 -60 0 0 -60 0 -60 60 0 60 0 0 60 0 60 65 0 65 0 0 -60 0 -60 60 0 60 0 0
-65 0 -65 65 0 65 0 0 -65 0 -65 65 0 65 0 0 65 0 65 60 0 60 0 0 -65 0 -65
65 0 65 0 0 -60 0 -60 65 0 65 0 0 -65 0 -65 60 0 60 0 0 -65 0 -65 65 0 65 0
0 -60 0 -60 65 0 65 0 0 -65 0 -65 60 0 60 0 0 -65 0 -65 65 0 65 0 0 65 0 65
-65 0 -65 0 0 65 0 65 -60 0 -60 0 0 60 0 60 -65 0 -65 0 0 65 0 65 65 0 65 0
0 65 0 65 60 0 60 0 0 60 0 60 -60 0 -60 0 0 -60 0 -60 -65 0 -65 0 0 -65 0
-65 -65 0 -65 0 0 65 0 65 -60 0 -60 0 0 60 0 60 -65 0 -65 0 0 65 0 65 -65 0
-65 0 0 65 0 65 -60 0 -60 0 0 60 0 60 -65 0 -65 0 0 65 0 65 -65 0 -65 0 0
-65 0 -65 -60 0 -60 0 0 65 0 65 -65 0 -65 0 0 65 0 65 -60 0 -60 0 0 60 0 60
-65 0 -65 0 0 -60z m630 -380 l0 -60 65 0 65 0 0 -65 0 -65 -65 0 -65 0 0 65
0 65 -65 0 -65 0 0 60 0 60 65 0 65 0 0 -60z"/>
<path d="M4670 8160 l0 -60 -65 0 -65 0 0 -65 0 -65 -65 0 -65 0 0 -65 0 -65
65 0 65 0 0 65 0 65 65 0 65 0 0 -65 0 -65 60 0 60 0 0 65 0 65 65 0 65 0 0
-65 0 -65 65 0 65 0 0 65 0 65 60 0 60 0 0 -65 0 -65 65 0 65 0 0 -60 0 -60
65 0 65 0 0 -65 0 -65 60 0 60 0 0 65 0 65 65 0 65 0 0 -65 0 -65 60 0 60 0 0
-65 0 -65 -60 0 -60 0 0 -60 0 -60 60 0 60 0 0 -65 0 -65 -60 0 -60 0 0 -65 0
-65 60 0 60 0 0 65 0 65 65 0 65 0 0 65 0 65 65 0 65 0 0 -65 0 -65 60 0 60 0
0 65 0 65 65 0 65 0 0 -65 0 -65 65 0 65 0 0 65 0 65 -65 0 -65 0 0 60 0 60
-65 0 -65 0 0 65 0 65 -60 0 -60 0 0 -65 0 -65 -65 0 -65 0 0 65 0 65 -65 0
-65 0 0 65 0 65 -60 0 -60 0 0 60 0 60 -65 0 -65 0 0 65 0 65 -60 0 -60 0 0
-65 0 -65 -65 0 -65 0 0 65 0 65 -65 0 -65 0 0 65 0 65 -60 0 -60 0 0 -65 0
-65 -65 0 -65 0 0 65 0 65 -65 0 -65 0 0 60 0 60 -60 0 -60 0 0 -60z m120
-125 l0 -65 -60 0 -60 0 0 65 0 65 60 0 60 0 0 -65z m760 -255 l0 -60 -60 0
-60 0 0 60 0 60 60 0 60 0 0 -60z m380 -380 l0 -60 -65 0 -65 0 0 60 0 60 65
0 65 0 0 -60z m250 0 l0 -60 -60 0 -60 0 0 60 0 60 60 0 60 0 0 -60z"/>
<path d="M3650 6640 l0 -60 65 0 65 0 0 60 0 60 -65 0 -65 0 0 -60z"/>
<path d="M4920 6385 l0 -65 65 0 65 0 0 65 0 65 -65 0 -65 0 0 -65z"/>
<path d="M6060 6765 l0 -65 -65 0 -65 0 0 -60 0 -60 -65 0 -65 0 0 60 0 60
-60 0 -60 0 0 -60 0 -60 -65 0 -65 0 0 -65 0 -65 -60 0 -60 0 0 -65 0 -65 60
0 60 0 0 -60 0 -60 -60 0 -60 0 0 -65 0 -65 -65 0 -65 0 0 -60 0 -60 -65 0
-65 0 0 -65 0 -65 65 0 65 0 0 65 0 65 65 0 65 0 0 -65 0 -65 60 0 60 0 0 -65
0 -65 65 0 65 0 0 -60 0 -60 65 0 65 0 0 -65 0 -65 60 0 60 0 0 -65 0 -65 65
0 65 0 0 -60 0 -60 60 0 60 0 0 -65 0 -65 65 0 65 0 0 -65 0 -65 65 0 65 0 0
65 0 65 60 0 60 0 0 -65 0 -65 65 0 65 0 0 -60 0 -60 65 0 65 0 0 -65 0 -65
60 0 60 0 0 -65 0 -65 65 0 65 0 0 -60 0 -60 65 0 65 0 0 60 0 60 -65 0 -65 0
0 65 0 65 65 0 65 0 0 65 0 65 60 0 60 0 0 60 0 60 65 0 65 0 0 65 0 65 -65 0
-65 0 0 65 0 65 65 0 65 0 0 60 0 60 -65 0 -65 0 0 65 0 65 65 0 65 0 0 65 0
65 -65 0 -65 0 0 60 0 60 -60 0 -60 0 0 65 0 65 -65 0 -65 0 0 -65 0 -65 65 0
65 0 0 -60 0 -60 -65 0 -65 0 0 -65 0 -65 -190 0 -190 0 0 65 0 65 -65 0 -65
0 0 -65 0 -65 -60 0 -60 0 0 65 0 65 -65 0 -65 0 0 60 0 60 65 0 65 0 0 65 0
65 -65 0 -65 0 0 65 0 65 190 0 190 0 0 -65 0 -65 65 0 65 0 0 65 0 65 60 0
60 0 0 60 0 60 -60 0 -60 0 0 65 0 65 -190 0 -190 0 0 60 0 60 -65 0 -65 0 0
-60 0 -60 -65 0 -65 0 0 -65 0 -65 -190 0 -190 0 0 65 0 65 -60 0 -60 0 0 60
0 60 60 0 60 0 0 65 0 65 65 0 65 0 0 65 0 65 65 0 65 0 0 60 0 60 60 0 60 0
0 65 0 65 -60 0 -60 0 0 -65z m-260 -250 l0 -65 -60 0 -60 0 0 -65 0 -65 -65
0 -65 0 0 65 0 65 65 0 65 0 0 65 0 65 60 0 60 0 0 -65z m-120 -380 l0 -65 60
0 60 0 0 -60 0 -60 -60 0 -60 0 0 -65 0 -65 65 0 65 0 0 -65 0 -65 -65 0 -65
0 0 65 0 65 -65 0 -65 0 0 65 0 65 -60 0 -60 0 0 60 0 60 60 0 60 0 0 65 0 65
65 0 65 0 0 -65z m760 0 l0 -65 -65 0 -65 0 0 65 0 65 65 0 65 0 0 -65z m380
-125 l0 -60 -65 0 -65 0 0 60 0 60 65 0 65 0 0 -60z m-640 -190 l0 -130 -125
0 -125 0 0 130 0 130 125 0 125 0 0 -130z m-120 -315 l0 -65 60 0 60 0 0 65 0
65 65 0 65 0 0 -65 0 -65 65 0 65 0 0 -65 0 -65 60 0 60 0 0 65 0 65 65 0 65
0 0 -65 0 -65 -65 0 -65 0 0 -60 0 -60 -60 0 -60 0 0 -65 0 -65 -65 0 -65 0 0
65 0 65 -65 0 -65 0 0 60 0 60 -60 0 -60 0 0 65 0 65 -65 0 -65 0 0 65 0 65
65 0 65 0 0 -65z m880 -255 l0 -60 65 0 65 0 0 -65 0 -65 -65 0 -65 0 0 -65 0
-65 -60 0 -60 0 0 65 0 65 -65 0 -65 0 0 65 0 65 65 0 65 0 0 60 0 60 60 0 60
0 0 -60z m380 0 l0 -60 -60 0 -60 0 0 60 0 60 60 0 60 0 0 -60z m0 -255 l0
-65 -60 0 -60 0 0 -60 0 -60 -65 0 -65 0 0 -65 0 -65 -65 0 -65 0 0 65 0 65
65 0 65 0 0 60 0 60 65 0 65 0 0 65 0 65 60 0 60 0 0 -65z"/>
<path d="M5550 6010 l0 -60 65 0 65 0 0 60 0 60 -65 0 -65 0 0 -60z"/>
<path d="M6180 5375 l0 -65 65 0 65 0 0 -60 0 -60 65 0 65 0 0 60 0 60 -65 0
-65 0 0 65 0 65 -65 0 -65 0 0 -65z"/>
<path d="M7580 5250 l0 -60 60 0 60 0 0 -65 0 -65 65 0 65 0 0 -65 0 -65 65 0
65 0 0 65 0 65 -65 0 -65 0 0 65 0 65 -65 0 -65 0 0 60 0 60 -60 0 -60 0 0
-60z"/>
<path d="M8080 4995 l0 -65 65 0 65 0 0 -60 0 -60 65 0 65 0 0 60 0 60 -65 0
-65 0 0 65 0 65 -65 0 -65 0 0 -65z"/>
<path d="M8590 4745 l0 -65 -65 0 -65 0 0 -65 0 -65 -60 0 -60 0 0 65 0 65
-65 0 -65 0 0 -65 0 -65 -65 0 -65 0 0 -60 0 -60 65 0 65 0 0 -65 0 -65 -65 0
-65 0 0 -65 0 -65 -60 0 -60 0 0 -60 0 -60 -65 0 -65 0 0 -65 0 -65 65 0 65 0
0 65 0 65 60 0 60 0 0 -65 0 -65 65 0 65 0 0 65 0 65 65 0 65 0 0 -190 0 -190
60 0 60 0 0 -65 0 -65 65 0 65 0 0 -65 0 -65 65 0 65 0 0 -60 0 -60 60 0 60 0
0 -65 0 -65 65 0 65 0 0 -65 0 -65 65 0 65 0 0 -60 0 -60 60 0 60 0 0 -65 0
-65 65 0 65 0 0 65 0 65 65 0 65 0 0 -65 0 -65 60 0 60 0 0 -65 0 -65 65 0 65
0 0 -60 0 -60 65 0 65 0 0 -65 0 -65 60 0 60 0 0 -65 0 -65 65 0 65 0 0 -60 0
-60 60 0 60 0 0 -65 0 -65 65 0 65 0 0 65 0 65 65 0 65 0 0 60 0 60 60 0 60 0
0 65 0 65 -60 0 -60 0 0 65 0 65 60 0 60 0 0 60 0 60 65 0 65 0 0 65 0 65 -65
0 -65 0 0 65 0 65 -60 0 -60 0 0 190 0 190 -65 0 -65 0 0 -65 0 -65 -65 0 -65
0 0 -65 0 -65 -185 0 -185 0 0 65 0 65 -65 0 -65 0 0 65 0 65 -65 0 -65 0 0
60 0 60 65 0 65 0 0 65 0 65 65 0 65 0 0 65 0 65 -190 0 -190 0 0 -65 0 -65
-65 0 -65 0 0 65 0 65 -65 0 -65 0 0 60 0 60 -60 0 -60 0 0 65 0 65 -65 0 -65
0 0 190 0 190 65 0 65 0 0 -65 0 -65 60 0 60 0 0 -60 0 -60 65 0 65 0 0 -65 0
-65 65 0 65 0 0 -65 0 -65 60 0 60 0 0 65 0 65 -60 0 -60 0 0 65 0 65 -65 0
-65 0 0 60 0 60 -65 0 -65 0 0 65 0 65 -60 0 -60 0 0 65 0 65 -65 0 -65 0 0
60 0 60 -65 0 -65 0 0 -60 0 -60 -60 0 -60 0 0 -65 0 -65 -65 0 -65 0 0 65 0
65 -65 0 -65 0 0 60 0 60 65 0 65 0 0 65 0 65 65 0 65 0 0 65 0 65 -65 0 -65
0 0 -65z m-250 -255 l0 -60 60 0 60 0 0 -65 0 -65 65 0 65 0 0 -65 0 -65 -65
0 -65 0 0 -60 0 -60 -60 0 -60 0 0 60 0 60 -65 0 -65 0 0 -60 0 -60 -65 0 -65
0 0 60 0 60 65 0 65 0 0 65 0 65 65 0 65 0 0 65 0 65 -65 0 -65 0 0 60 0 60
65 0 65 0 0 -60z m630 -125 l0 -65 -65 0 -65 0 0 -65 0 -65 -60 0 -60 0 0 65
0 65 60 0 60 0 0 65 0 65 65 0 65 0 0 -65z m-250 -380 l0 -65 60 0 60 0 0 -65
0 -65 -60 0 -60 0 0 -60 0 -60 -65 0 -65 0 0 60 0 60 -65 0 -65 0 0 65 0 65
65 0 65 0 0 65 0 65 65 0 65 0 0 -65z m380 -255 l0 -60 60 0 60 0 0 -65 0 -65
-60 0 -60 0 0 -65 0 -65 -65 0 -65 0 0 -60 0 -60 65 0 65 0 0 -65 0 -65 -65 0
-65 0 0 65 0 65 -65 0 -65 0 0 60 0 60 -60 0 -60 0 0 65 0 65 60 0 60 0 0 65
0 65 65 0 65 0 0 60 0 60 65 0 65 0 0 -60z m250 -380 l0 -60 65 0 65 0 0 -65
0 -65 -130 0 -130 0 0 125 0 125 65 0 65 0 0 -60z m380 -255 l0 -65 65 0 65 0
0 -190 0 -190 -65 0 -65 0 0 65 0 65 -65 0 -65 0 0 65 0 65 -60 0 -60 0 0 60
0 60 60 0 60 0 0 65 0 65 65 0 65 0 0 -65z m-380 -125 l0 -60 -65 0 -65 0 0
60 0 60 65 0 65 0 0 -60z m760 -125 l0 -65 60 0 60 0 0 -65 0 -65 -125 0 -125
0 0 130 0 130 65 0 65 0 0 -65z m380 0 l0 -65 60 0 60 0 0 -65 0 -65 -60 0
-60 0 0 -60 0 -60 -65 0 -65 0 0 -65 0 -65 65 0 65 0 0 -65 0 -65 -65 0 -65 0
0 -60 0 -60 -65 0 -65 0 0 60 0 60 -60 0 -60 0 0 65 0 65 -65 0 -65 0 0 65 0
65 65 0 65 0 0 -65 0 -65 60 0 60 0 0 65 0 65 65 0 65 0 0 60 0 60 65 0 65 0
0 65 0 65 -65 0 -65 0 0 65 0 65 65 0 65 0 0 -65z"/>
<path d="M8340 4235 l0 -65 60 0 60 0 0 65 0 65 -60 0 -60 0 0 -65z"/>
<path d="M8970 3605 l0 -65 -65 0 -65 0 0 -65 0 -65 65 0 65 0 0 65 0 65 65 0
65 0 0 65 0 65 -65 0 -65 0 0 -65z"/>
<path d="M9600 2970 l0 -60 65 0 65 0 0 60 0 60 -65 0 -65 0 0 -60z"/>
<path d="M10230 2335 l0 -65 65 0 65 0 0 65 0 65 -65 0 -65 0 0 -65z"/>
<path d="M9980 3605 l0 -65 65 0 65 0 0 -65 0 -65 60 0 60 0 0 65 0 65 -60 0
-60 0 0 65 0 65 -65 0 -65 0 0 -65z"/>
<path d="M10610 3225 l0 -65 65 0 65 0 0 -65 0 -65 65 0 65 0 0 65 0 65 -65 0
-65 0 0 65 0 65 -65 0 -65 0 0 -65z"/>
</g>
</svg>
