<?xml version="1.0" standalone="no"?>
<!DOCTYPE svg PUBLIC "-//W3C//DTD SVG 20010904//EN"
 "http://www.w3.org/TR/2001/REC-SVG-20010904/DTD/svg10.dtd">
<svg version="1.0" xmlns="http://www.w3.org/2000/svg"
 width="1602.000000pt" height="1514.000000pt" viewBox="0 0 1602.000000 1514.000000"
 preserveAspectRatio="xMidYMid meet">

<g transform="translate(0.000000,1514.000000) scale(0.100000,-0.100000)"
fill="#000000" stroke="none">
<path d="M7490 12335 l0 -65 -190 0 -190 0 0 -125 0 -125 -125 0 -125 0 0 -65
0 -65 -125 0 -125 0 0 -60 0 -60 -130 0 -130 0 0 -130 0 -130 -60 0 -60 0 0
-250 0 -250 -65 0 -65 0 0 -65 0 -65 -65 0 -65 0 0 -125 0 -125 -60 0 -60 0 0
-190 0 -190 -65 0 -65 0 0 -125 0 -125 -125 0 -125 0 0 -65 0 -65 -125 0 -125
0 0 -65 0 -65 -130 0 -130 0 0 -60 0 -60 -125 0 -125 0 0 -65 0 -65 -125 0
-125 0 0 -65 0 -65 -130 0 -130 0 0 -60 0 -60 -60 0 -60 0 0 -65 0 -65 -130 0
-130 0 0 -65 0 -65 -125 0 -125 0 0 -60 0 -60 -190 0 -190 0 0 -65 0 -65 -125
0 -125 0 0 -65 0 -65 -130 0 -130 0 0 -60 0 -60 -60 0 -60 0 0 -65 0 -65 -130
0 -130 0 0 -65 0 -65 -60 0 -60 0 0 -60 0 -60 -65 0 -65 0 0 -65 0 -65 -65 0
-65 0 0 -65 0 -65 -60 0 -60 0 0 -505 0 -505 60 0 60 0 0 -125 0 -125 65 0 65
0 0 -130 0 -130 65 0 65 0 0 -125 0 -125 60 0 60 0 0 -125 0 -125 65 0 65 0 0
-65 0 -65 65 0 65 0 0 -60 0 -60 60 0 60 0 0 -65 0 -65 65 0 65 0 0 -65 0 -65
65 0 65 0 0 -60 0 -60 60 0 60 0 0 -65 0 -65 65 0 65 0 0 -65 0 -65 65 0 65 0
0 -60 0 -60 60 0 60 0 0 -65 0 -65 130 0 130 0 0 -65 0 -65 125 0 125 0 0 -60
0 -60 125 0 125 0 0 -65 0 -65 130 0 130 0 0 -65 0 -65 60 0 60 0 0 -60 0 -60
130 0 130 0 0 -65 0 -65 190 0 190 0 0 -65 0 -65 125 0 125 0 0 -60 0 -60 190
0 190 0 0 -65 0 -65 125 0 125 0 0 -65 0 -65 315 0 315 0 0 -60 0 -60 255 0
255 0 0 -65 0 -65 1390 0 1390 0 0 65 0 65 320 0 320 0 0 60 0 60 125 0 125 0
0 65 0 65 125 0 125 0 0 65 0 65 190 0 190 0 0 60 0 60 130 0 130 0 0 65 0 65
125 0 125 0 0 65 0 65 65 0 65 0 0 60 0 60 125 0 125 0 0 65 0 65 65 0 65 0 0
190 0 190 60 0 60 0 0 125 0 125 65 0 65 0 0 65 0 65 65 0 65 0 0 125 0 125
60 0 60 0 0 130 0 130 65 0 65 0 0 125 0 125 65 0 65 0 0 190 0 190 60 0 60 0
0 250 0 250 65 0 65 0 0 320 0 320 65 0 65 0 0 695 0 695 -65 0 -65 0 0 255 0
255 -125 0 -125 0 0 60 0 60 -255 0 -255 0 0 65 0 65 -190 0 -190 0 0 65 0 65
-65 0 -65 0 0 60 0 60 -125 0 -125 0 0 65 0 65 -190 0 -190 0 0 440 0 440 -65
0 -65 0 0 190 0 190 -60 0 -60 0 0 130 0 130 -65 0 -65 0 0 125 0 125 -65 0
-65 0 0 65 0 65 -125 0 -125 0 0 60 0 60 -65 0 -65 0 0 65 0 65 -125 0 -125 0
0 65 0 65 -190 0 -190 0 0 60 0 60 -125 0 -125 0 0 65 0 65 -1205 0 -1205 0 0
-65z m2280 -125 l0 -60 125 0 125 0 0 -65 0 -65 190 0 190 0 0 -65 0 -65 130
0 130 0 0 -60 0 -60 60 0 60 0 0 -65 0 -65 130 0 130 0 0 -65 0 -65 60 0 60 0
0 -125 0 -125 65 0 65 0 0 -125 0 -125 65 0 65 0 0 -190 0 -190 60 0 60 0 0
-635 0 -635 -60 0 -60 0 0 -190 0 -190 60 0 60 0 0 -60 0 -60 -60 0 -60 0 0
-130 0 -130 -130 0 -130 0 0 -60 0 -60 -60 0 -60 0 0 -65 0 -65 60 0 60 0 0
-65 0 -65 65 0 65 0 0 65 0 65 65 0 65 0 0 65 0 65 60 0 60 0 0 125 0 125 130
0 130 0 0 65 0 65 -65 0 -65 0 0 440 0 440 125 0 125 0 0 -60 0 -60 130 0 130
0 0 -65 0 -65 60 0 60 0 0 -65 0 -65 190 0 190 0 0 -60 0 -60 255 0 255 0 0
-130 0 -130 65 0 65 0 0 65 0 65 60 0 60 0 0 -65 0 -65 -60 0 -60 0 0 -60 0
-60 60 0 60 0 0 -130 0 -130 65 0 65 0 0 -250 0 -250 -65 0 -65 0 0 -65 0 -65
65 0 65 0 0 -65 0 -65 -65 0 -65 0 0 -60 0 -60 65 0 65 0 0 -65 0 -65 -65 0
-65 0 0 -315 0 -315 -60 0 -60 0 0 -190 0 -190 -65 0 -65 0 0 -65 0 -65 65 0
65 0 0 -65 0 -65 -65 0 -65 0 0 -60 0 -60 -65 0 -65 0 0 -65 0 -65 65 0 65 0
0 -60 0 -60 -65 0 -65 0 0 -65 0 -65 -60 0 -60 0 0 -65 0 -65 -65 0 -65 0 0
-60 0 -60 65 0 65 0 0 -65 0 -65 -65 0 -65 0 0 -125 0 -125 -65 0 -65 0 0 -65
0 -65 -125 0 -125 0 0 -65 0 -65 65 0 65 0 0 -60 0 -60 -65 0 -65 0 0 -65 0
-65 -65 0 -65 0 0 -65 0 -65 65 0 65 0 0 -60 0 -60 -65 0 -65 0 0 -65 0 -65
-125 0 -125 0 0 -65 0 -65 -65 0 -65 0 0 -60 0 -60 -125 0 -125 0 0 -65 0 -65
-65 0 -65 0 0 65 0 65 -60 0 -60 0 0 -65 0 -65 -65 0 -65 0 0 -65 0 -65 -65 0
-65 0 0 65 0 65 -60 0 -60 0 0 -65 0 -65 -65 0 -65 0 0 -60 0 -60 -65 0 -65 0
0 -65 0 -65 -60 0 -60 0 0 65 0 65 -65 0 -65 0 0 -65 0 -65 -65 0 -65 0 0 -65
0 -65 -60 0 -60 0 0 65 0 65 -65 0 -65 0 0 -65 0 -65 -65 0 -65 0 0 65 0 65
-60 0 -60 0 0 -65 0 -65 -65 0 -65 0 0 -60 0 -60 -60 0 -60 0 0 60 0 60 -65 0
-65 0 0 -60 0 -60 -65 0 -65 0 0 60 0 60 -60 0 -60 0 0 -60 0 -60 -65 0 -65 0
0 60 0 60 -65 0 -65 0 0 -60 0 -60 -60 0 -60 0 0 60 0 60 -65 0 -65 0 0 -60 0
-60 -190 0 -190 0 0 125 0 125 65 0 65 0 0 190 0 190 60 0 60 0 0 125 0 125
380 0 380 0 0 65 0 65 255 0 255 0 0 65 0 65 60 0 60 0 0 -65 0 -65 65 0 65 0
0 -65 0 -65 190 0 190 0 0 130 0 130 125 0 125 0 0 -65 0 -65 65 0 65 0 0 380
0 380 -190 0 -190 0 0 125 0 125 -190 0 -190 0 0 -60 0 -60 -65 0 -65 0 0 -65
0 -65 -315 0 -315 0 0 -65 0 -65 -250 0 -250 0 0 65 0 65 60 0 60 0 0 125 0
125 65 0 65 0 0 130 0 130 380 0 380 0 0 60 0 60 125 0 125 0 0 65 0 65 65 0
65 0 0 -65 0 -65 60 0 60 0 0 -60 0 -60 190 0 190 0 0 125 0 125 65 0 65 0 0
-65 0 -65 65 0 65 0 0 65 0 65 60 0 60 0 0 65 0 65 65 0 65 0 0 60 0 60 -65 0
-65 0 0 190 0 190 -190 0 -190 0 0 125 0 125 -190 0 -190 0 0 -60 0 -60 -60 0
-60 0 0 -65 0 -65 -255 0 -255 0 0 -65 0 -65 -125 0 -125 0 0 130 0 130 65 0
65 0 0 125 0 125 60 0 60 0 0 190 0 190 125 0 125 0 0 65 0 65 255 0 255 0 0
-65 0 -65 65 0 65 0 0 -65 0 -65 190 0 190 0 0 130 0 130 190 0 190 0 0 315 0
315 -65 0 -65 0 0 65 0 65 -65 0 -65 0 0 -65 0 -65 -60 0 -60 0 0 65 0 65 60
0 60 0 0 60 0 60 -60 0 -60 0 0 65 0 65 -65 0 -65 0 0 65 0 65 -65 0 -65 0 0
-65 0 -65 -60 0 -60 0 0 -65 0 -65 -65 0 -65 0 0 -60 0 -60 -65 0 -65 0 0 -65
0 -65 -60 0 -60 0 0 125 0 125 125 0 125 0 0 65 0 65 -65 0 -65 0 0 65 0 65
65 0 65 0 0 60 0 60 65 0 65 0 0 65 0 65 60 0 60 0 0 65 0 65 65 0 65 0 0 60
0 60 65 0 65 0 0 65 0 65 60 0 60 0 0 65 0 65 65 0 65 0 0 60 0 60 65 0 65 0
0 65 0 65 -65 0 -65 0 0 65 0 65 65 0 65 0 0 60 0 60 -65 0 -65 0 0 190 0 190
-65 0 -65 0 0 255 0 255 -60 0 -60 0 0 190 0 190 -65 0 -65 0 0 60 0 60 -65 0
-65 0 0 65 0 65 -60 0 -60 0 0 65 0 65 -65 0 -65 0 0 60 0 60 -65 0 -65 0 0
65 0 65 -125 0 -125 0 0 65 0 65 -190 0 -190 0 0 60 0 60 -125 0 -125 0 0 65
0 65 -825 0 -825 0 0 -65 0 -65 -190 0 -190 0 0 -60 0 -60 -125 0 -125 0 0
-65 0 -65 -65 0 -65 0 0 -65 0 -65 -60 0 -60 0 0 -60 0 -60 -65 0 -65 0 0 -65
0 -65 -65 0 -65 0 0 -125 0 -125 -60 0 -60 0 0 -255 0 -255 60 0 60 0 0 -65 0
-65 65 0 65 0 0 -60 0 -60 65 0 65 0 0 -65 0 -65 60 0 60 0 0 -60 0 -60 65 0
65 0 0 -65 0 -65 65 0 65 0 0 -65 0 -65 60 0 60 0 0 -60 0 -60 65 0 65 0 0
-65 0 -65 65 0 65 0 0 -65 0 -65 125 0 125 0 0 -60 0 -60 65 0 65 0 0 -65 0
-65 125 0 125 0 0 -65 0 -65 125 0 125 0 0 -60 0 -60 65 0 65 0 0 -65 0 -65
125 0 125 0 0 -65 0 -65 190 0 190 0 0 -60 0 -60 445 0 445 0 0 -65 0 -65 -65
0 -65 0 0 -190 0 -190 -65 0 -65 0 0 -65 0 -65 -250 0 -250 0 0 -60 0 -60
-190 0 -190 0 0 -190 0 -190 65 0 65 0 0 -130 0 -130 60 0 60 0 0 -60 0 -60
65 0 65 0 0 60 0 60 65 0 65 0 0 -60 0 -60 -65 0 -65 0 0 -130 0 -130 -65 0
-65 0 0 -190 0 -190 -125 0 -125 0 0 65 0 65 -65 0 -65 0 0 -65 0 -65 -60 0
-60 0 0 65 0 65 -65 0 -65 0 0 -125 0 -125 -255 0 -255 0 0 -65 0 -65 65 0 65
0 0 -60 0 -60 -65 0 -65 0 0 -65 0 -65 65 0 65 0 0 -65 0 -65 65 0 65 0 0 -60
0 -60 60 0 60 0 0 -65 0 -65 65 0 65 0 0 65 0 65 125 0 125 0 0 -65 0 -65 -60
0 -60 0 0 -125 0 -125 -65 0 -65 0 0 -130 0 -130 -125 0 -125 0 0 65 0 65 -65
0 -65 0 0 -65 0 -65 -65 0 -65 0 0 65 0 65 -60 0 -60 0 0 -65 0 -65 -65 0 -65
0 0 -60 0 -60 65 0 65 0 0 -65 0 -65 -65 0 -65 0 0 -65 0 -65 65 0 65 0 0 -60
0 -60 -65 0 -65 0 0 -65 0 -65 65 0 65 0 0 -65 0 -65 60 0 60 0 0 65 0 65 65
0 65 0 0 -65 0 -65 65 0 65 0 0 -60 0 -60 -65 0 -65 0 0 -190 0 -190 -65 0
-65 0 0 -190 0 -190 -60 0 -60 0 0 60 0 60 -130 0 -130 0 0 -60 0 -60 -125 0
-125 0 0 60 0 60 -65 0 -65 0 0 65 0 65 -60 0 -60 0 0 -65 0 -65 -65 0 -65 0
0 65 0 65 -65 0 -65 0 0 -65 0 -65 -60 0 -60 0 0 65 0 65 -320 0 -320 0 0 65
0 65 -60 0 -60 0 0 60 0 60 -65 0 -65 0 0 130 0 130 -125 0 -125 0 0 -65 0
-65 60 0 60 0 0 -65 0 -65 -60 0 -60 0 0 65 0 65 -65 0 -65 0 0 65 0 65 -60 0
-60 0 0 -65 0 -65 -65 0 -65 0 0 65 0 65 -65 0 -65 0 0 60 0 60 -60 0 -60 0 0
-60 0 -60 -65 0 -65 0 0 60 0 60 -125 0 -125 0 0 130 0 130 60 0 60 0 0 190 0
190 -60 0 -60 0 0 -65 0 -65 -65 0 -65 0 0 -65 0 -65 -65 0 -65 0 0 -60 0 -60
-60 0 -60 0 0 60 0 60 -65 0 -65 0 0 65 0 65 -65 0 -65 0 0 65 0 65 -60 0 -60
0 0 -65 0 -65 -65 0 -65 0 0 65 0 65 -65 0 -65 0 0 60 0 60 -60 0 -60 0 0 65
0 65 -130 0 -130 0 0 65 0 65 -60 0 -60 0 0 125 0 125 -65 0 -65 0 0 65 0 65
-65 0 -65 0 0 60 0 60 -60 0 -60 0 0 65 0 65 -65 0 -65 0 0 65 0 65 -65 0 -65
0 0 60 0 60 -60 0 -60 0 0 65 0 65 -65 0 -65 0 0 125 0 125 -65 0 -65 0 0 125
0 125 -60 0 -60 0 0 65 0 65 60 0 60 0 0 65 0 65 -60 0 -60 0 0 60 0 60 -65 0
-65 0 0 320 0 320 65 0 65 0 0 60 0 60 60 0 60 0 0 65 0 65 65 0 65 0 0 65 0
65 65 0 65 0 0 60 0 60 125 0 125 0 0 65 0 65 65 0 65 0 0 65 0 65 125 0 125
0 0 60 0 60 125 0 125 0 0 65 0 65 190 0 190 0 0 65 0 65 130 0 130 0 0 60 0
60 125 0 125 0 0 65 0 65 65 0 65 0 0 65 0 65 125 0 125 0 0 60 0 60 125 0
125 0 0 65 0 65 130 0 130 0 0 65 0 65 125 0 125 0 0 60 0 60 125 0 125 0 0
65 0 65 65 0 65 0 0 -65 0 -65 -65 0 -65 0 0 -60 0 -60 65 0 65 0 0 -65 0 -65
60 0 60 0 0 65 0 65 65 0 65 0 0 -65 0 -65 65 0 65 0 0 -65 0 -65 60 0 60 0 0
-60 0 -60 65 0 65 0 0 -65 0 -65 65 0 65 0 0 -65 0 -65 60 0 60 0 0 -60 0 -60
65 0 65 0 0 -65 0 -65 65 0 65 0 0 -65 0 -65 60 0 60 0 0 -60 0 -60 65 0 65 0
0 -65 0 -65 190 0 190 0 0 -65 0 -65 65 0 65 0 0 -60 0 -60 60 0 60 0 0 -65 0
-65 65 0 65 0 0 65 0 65 65 0 65 0 0 60 0 60 -65 0 -65 0 0 65 0 65 -125 0
-125 0 0 65 0 65 -130 0 -130 0 0 60 0 60 -60 0 -60 0 0 65 0 65 -130 0 -130
0 0 65 0 65 -60 0 -60 0 0 60 0 60 -65 0 -65 0 0 65 0 65 -65 0 -65 0 0 65 0
65 -60 0 -60 0 0 125 0 125 -65 0 -65 0 0 65 0 65 -65 0 -65 0 0 60 0 60 -60
0 -60 0 0 65 0 65 60 0 60 0 0 65 0 65 -60 0 -60 0 0 60 0 60 -65 0 -65 0 0
-60 0 -60 -65 0 -65 0 0 60 0 60 65 0 65 0 0 65 0 65 65 0 65 0 0 60 0 60 -65
0 -65 0 0 65 0 65 65 0 65 0 0 65 0 65 60 0 60 0 0 125 0 125 65 0 65 0 0 255
0 255 65 0 65 0 0 125 0 125 125 0 125 0 0 65 0 65 125 0 125 0 0 60 0 60 130
0 130 0 0 65 0 65 60 0 60 0 0 65 0 65 130 0 130 0 0 60 0 60 1010 0 1010 0 0
-60z m-3670 -2405 l0 -65 -65 0 -65 0 0 65 0 65 65 0 65 0 0 -65z m4810 -2025
l0 -440 -65 0 -65 0 0 60 0 60 -60 0 -60 0 0 320 0 320 60 0 60 0 0 60 0 60
65 0 65 0 0 -440z m-380 -65 l0 -125 -255 0 -255 0 0 -65 0 -65 -185 0 -185 0
0 -60 0 -60 -130 0 -130 0 0 60 0 60 -60 0 -60 0 0 65 0 65 190 0 190 0 0 65
0 65 250 0 250 0 0 60 0 60 190 0 190 0 0 -125z m760 0 l0 -125 -125 0 -125 0
0 125 0 125 125 0 125 0 0 -125z m-630 -1515 l0 -380 -65 0 -65 0 0 65 0 65
-65 0 -65 0 0 250 0 250 65 0 65 0 0 65 0 65 65 0 65 0 0 -380z m-380 -5 l0
-125 -130 0 -130 0 0 -60 0 -60 -125 0 -125 0 0 -65 0 -65 -570 0 -570 0 0 65
0 65 -60 0 -60 0 0 60 0 60 190 0 190 0 0 65 0 65 505 0 505 0 0 60 0 60 190
0 190 0 0 -125z m760 0 l0 -125 -130 0 -130 0 0 125 0 125 130 0 130 0 0 -125z
m-640 -1385 l0 -380 -60 0 -60 0 0 60 0 60 -65 0 -65 0 0 255 0 255 65 0 65 0
0 65 0 65 60 0 60 0 0 -380z m-380 -5 l0 -125 -125 0 -125 0 0 -65 0 -65 -190
0 -190 0 0 -60 0 -60 -505 0 -505 0 0 60 0 60 -65 0 -65 0 0 130 0 130 635 0
635 0 0 60 0 60 250 0 250 0 0 -125z m760 0 l0 -125 -125 0 -125 0 0 125 0
125 125 0 125 0 0 -125z"/>
<path d="M6230 10435 l0 -65 60 0 60 0 0 -60 0 -60 -60 0 -60 0 0 -65 0 -65
60 0 60 0 0 -60 0 -60 65 0 65 0 0 -65 0 -65 -65 0 -65 0 0 -65 0 -65 65 0 65
0 0 -60 0 -60 65 0 65 0 0 -65 0 -65 60 0 60 0 0 -65 0 -65 65 0 65 0 0 65 0
65 65 0 65 0 0 -65 0 -65 60 0 60 0 0 65 0 65 65 0 65 0 0 65 0 65 -65 0 -65
0 0 60 0 60 -60 0 -60 0 0 65 0 65 -65 0 -65 0 0 65 0 65 -65 0 -65 0 0 60 0
60 -60 0 -60 0 0 65 0 65 -65 0 -65 0 0 60 0 60 -65 0 -65 0 0 65 0 65 -60 0
-60 0 0 -65z m250 -250 l0 -65 65 0 65 0 0 -60 0 -60 60 0 60 0 0 -65 0 -65
65 0 65 0 0 -65 0 -65 65 0 65 0 0 -60 0 -60 60 0 60 0 0 -65 0 -65 -60 0 -60
0 0 65 0 65 -65 0 -65 0 0 -65 0 -65 -65 0 -65 0 0 65 0 65 -60 0 -60 0 0 60
0 60 -65 0 -65 0 0 65 0 65 65 0 65 0 0 65 0 65 -65 0 -65 0 0 60 0 60 -65 0
-65 0 0 65 0 65 65 0 65 0 0 -65z"/>
<path d="M6610 9805 l0 -65 60 0 60 0 0 -60 0 -60 65 0 65 0 0 60 0 60 -65 0
-65 0 0 65 0 65 -60 0 -60 0 0 -65z"/>
<path d="M5600 9555 l0 -65 -65 0 -65 0 0 -65 0 -65 -65 0 -65 0 0 -60 0 -60
190 0 190 0 0 -65 0 -65 65 0 65 0 0 65 0 65 60 0 60 0 0 -65 0 -65 65 0 65 0
0 65 0 65 65 0 65 0 0 -65 0 -65 60 0 60 0 0 -65 0 -65 -60 0 -60 0 0 -60 0
-60 -65 0 -65 0 0 -65 0 -65 65 0 65 0 0 -65 0 -65 -65 0 -65 0 0 -60 0 -60
-65 0 -65 0 0 60 0 60 -60 0 -60 0 0 -60 0 -60 60 0 60 0 0 -65 0 -65 -60 0
-60 0 0 -65 0 -65 -65 0 -65 0 0 -60 0 -60 -60 0 -60 0 0 -65 0 -65 -65 0 -65
0 0 -65 0 -65 -65 0 -65 0 0 255 0 255 65 0 65 0 0 65 0 65 65 0 65 0 0 125 0
125 60 0 60 0 0 65 0 65 65 0 65 0 0 60 0 60 -65 0 -65 0 0 -60 0 -60 -60 0
-60 0 0 60 0 60 -65 0 -65 0 0 -60 0 -60 -65 0 -65 0 0 60 0 60 -60 0 -60 0 0
-60 0 -60 -65 0 -65 0 0 -65 0 -65 -65 0 -65 0 0 -65 0 -65 -60 0 -60 0 0 -60
0 -60 -65 0 -65 0 0 -65 0 -65 -65 0 -65 0 0 -65 0 -65 65 0 65 0 0 65 0 65
65 0 65 0 0 -65 0 -65 60 0 60 0 0 65 0 65 65 0 65 0 0 -65 0 -65 65 0 65 0 0
-190 0 -190 -65 0 -65 0 0 -60 0 -60 -65 0 -65 0 0 60 0 60 -60 0 -60 0 0 -60
0 -60 -65 0 -65 0 0 -65 0 -65 -65 0 -65 0 0 65 0 65 -60 0 -60 0 0 -65 0 -65
-65 0 -65 0 0 -65 0 -65 65 0 65 0 0 -60 0 -60 -65 0 -65 0 0 -65 0 -65 -65 0
-65 0 0 -65 0 -65 -60 0 -60 0 0 -60 0 -60 -190 0 -190 0 0 125 0 125 60 0 60
0 0 65 0 65 65 0 65 0 0 125 0 125 65 0 65 0 0 65 0 65 60 0 60 0 0 60 0 60
-60 0 -60 0 0 65 0 65 125 0 125 0 0 65 0 65 65 0 65 0 0 125 0 125 -65 0 -65
0 0 65 0 65 65 0 65 0 0 125 0 125 -65 0 -65 0 0 -125 0 -125 -65 0 -65 0 0
60 0 60 -60 0 -60 0 0 -60 0 -60 -320 0 -320 0 0 -65 0 -65 445 0 445 0 0 -65
0 -65 -65 0 -65 0 0 -60 0 -60 -60 0 -60 0 0 -65 0 -65 -65 0 -65 0 0 65 0 65
-65 0 -65 0 0 -65 0 -65 -60 0 -60 0 0 65 0 65 -65 0 -65 0 0 -65 0 -65 -65 0
-65 0 0 -65 0 -65 65 0 65 0 0 -60 0 -60 -65 0 -65 0 0 -65 0 -65 -60 0 -60 0
0 -65 0 -65 -65 0 -65 0 0 -60 0 -60 65 0 65 0 0 -65 0 -65 -65 0 -65 0 0 -65
0 -65 -190 0 -190 0 0 320 0 320 65 0 65 0 0 125 0 125 60 0 60 0 0 125 0 125
65 0 65 0 0 65 0 65 65 0 65 0 0 65 0 65 -65 0 -65 0 0 -65 0 -65 -65 0 -65 0
0 -65 0 -65 -60 0 -60 0 0 -60 0 -60 -65 0 -65 0 0 -65 0 -65 -65 0 -65 0 0
-65 0 -65 -60 0 -60 0 0 -60 0 -60 -65 0 -65 0 0 -65 0 -65 -65 0 -65 0 0 -65
0 -65 -60 0 -60 0 0 -60 0 -60 60 0 60 0 0 -65 0 -65 -60 0 -60 0 0 -65 0 -65
60 0 60 0 0 -60 0 -60 65 0 65 0 0 60 0 60 125 0 125 0 0 -60 0 -60 380 0 380
0 0 -130 0 -130 -125 0 -125 0 0 -60 0 -60 -65 0 -65 0 0 60 0 60 -60 0 -60 0
0 -60 0 -60 -65 0 -65 0 0 60 0 60 -65 0 -65 0 0 -60 0 -60 -60 0 -60 0 0 -65
0 -65 60 0 60 0 0 -65 0 -65 -60 0 -60 0 0 -60 0 -60 60 0 60 0 0 -65 0 -65
65 0 65 0 0 -60 0 -60 65 0 65 0 0 -65 0 -65 60 0 60 0 0 -65 0 -65 65 0 65 0
0 -60 0 -60 65 0 65 0 0 -65 0 -65 60 0 60 0 0 65 0 65 130 0 130 0 0 60 0 60
125 0 125 0 0 65 0 65 65 0 65 0 0 -65 0 -65 60 0 60 0 0 -60 0 -60 -60 0 -60
0 0 -65 0 -65 -65 0 -65 0 0 -65 0 -65 -65 0 -65 0 0 -60 0 -60 -60 0 -60 0 0
-65 0 -65 60 0 60 0 0 -65 0 -65 65 0 65 0 0 -60 0 -60 65 0 65 0 0 60 0 60
60 0 60 0 0 -60 0 -60 65 0 65 0 0 -65 0 -65 65 0 65 0 0 65 0 65 -65 0 -65 0
0 60 0 60 65 0 65 0 0 190 0 190 60 0 60 0 0 190 0 190 -60 0 -60 0 0 65 0 65
60 0 60 0 0 65 0 65 65 0 65 0 0 60 0 60 65 0 65 0 0 -60 0 -60 60 0 60 0 0
60 0 60 65 0 65 0 0 65 0 65 125 0 125 0 0 60 0 60 130 0 130 0 0 -60 0 -60
60 0 60 0 0 60 0 60 65 0 65 0 0 65 0 65 -65 0 -65 0 0 65 0 65 65 0 65 0 0
60 0 60 60 0 60 0 0 65 0 65 65 0 65 0 0 65 0 65 65 0 65 0 0 60 0 60 60 0 60
0 0 65 0 65 65 0 65 0 0 65 0 65 65 0 65 0 0 -65 0 -65 60 0 60 0 0 -65 0 -65
65 0 65 0 0 -60 0 -60 -65 0 -65 0 0 -65 0 -65 -60 0 -60 0 0 -65 0 -65 -65 0
-65 0 0 -60 0 -60 -65 0 -65 0 0 -65 0 -65 -60 0 -60 0 0 65 0 65 -65 0 -65 0
0 -65 0 -65 65 0 65 0 0 -65 0 -65 -65 0 -65 0 0 -60 0 -60 65 0 65 0 0 -65 0
-65 60 0 60 0 0 -60 0 -60 -60 0 -60 0 0 -65 0 -65 60 0 60 0 0 -65 0 -65 -60
0 -60 0 0 -60 0 -60 -65 0 -65 0 0 -65 0 -65 -65 0 -65 0 0 65 0 65 -60 0 -60
0 0 60 0 60 -65 0 -65 0 0 65 0 65 -60 0 -60 0 0 65 0 65 60 0 60 0 0 60 0 60
-60 0 -60 0 0 -60 0 -60 -65 0 -65 0 0 -65 0 -65 -65 0 -65 0 0 -65 0 -65 -60
0 -60 0 0 -60 0 -60 -65 0 -65 0 0 -65 0 -65 -65 0 -65 0 0 -65 0 -65 -60 0
-60 0 0 -60 0 -60 -65 0 -65 0 0 -65 0 -65 65 0 65 0 0 -65 0 -65 -65 0 -65 0
0 -60 0 -60 65 0 65 0 0 60 0 60 60 0 60 0 0 -60 0 -60 65 0 65 0 0 -65 0 -65
125 0 125 0 0 125 0 125 65 0 65 0 0 -60 0 -60 65 0 65 0 0 -190 0 -190 -65 0
-65 0 0 -65 0 -65 -65 0 -65 0 0 -65 0 -65 65 0 65 0 0 -60 0 -60 65 0 65 0 0
60 0 60 60 0 60 0 0 -60 0 -60 65 0 65 0 0 60 0 60 60 0 60 0 0 130 0 130 -60
0 -60 0 0 125 0 125 -65 0 -65 0 0 65 0 65 65 0 65 0 0 60 0 60 60 0 60 0 0
65 0 65 -60 0 -60 0 0 65 0 65 60 0 60 0 0 60 0 60 65 0 65 0 0 65 0 65 65 0
65 0 0 65 0 65 60 0 60 0 0 60 0 60 65 0 65 0 0 65 0 65 65 0 65 0 0 -65 0
-65 60 0 60 0 0 65 0 65 65 0 65 0 0 65 0 65 65 0 65 0 0 -65 0 -65 60 0 60 0
0 65 0 65 65 0 65 0 0 -65 0 -65 65 0 65 0 0 -65 0 -65 -65 0 -65 0 0 -60 0
-60 65 0 65 0 0 -65 0 -65 -65 0 -65 0 0 -65 0 -65 -65 0 -65 0 0 -60 0 -60
-60 0 -60 0 0 60 0 60 -65 0 -65 0 0 -60 0 -60 -65 0 -65 0 0 60 0 60 -60 0
-60 0 0 -60 0 -60 60 0 60 0 0 -65 0 -65 -60 0 -60 0 0 -65 0 -65 -65 0 -65 0
0 65 0 65 -65 0 -65 0 0 -65 0 -65 65 0 65 0 0 -60 0 -60 -65 0 -65 0 0 -65 0
-65 65 0 65 0 0 -65 0 -65 -65 0 -65 0 0 -60 0 -60 65 0 65 0 0 -65 0 -65 -65
0 -65 0 0 -65 0 -65 -60 0 -60 0 0 -60 0 -60 60 0 60 0 0 -65 0 -65 -60 0 -60
0 0 -65 0 -65 60 0 60 0 0 -60 0 -60 130 0 130 0 0 60 0 60 60 0 60 0 0 65 0
65 -125 0 -125 0 0 65 0 65 65 0 65 0 0 60 0 60 60 0 60 0 0 65 0 65 65 0 65
0 0 -125 0 -125 125 0 125 0 0 -65 0 -65 -60 0 -60 0 0 -65 0 -65 -65 0 -65 0
0 -60 0 -60 65 0 65 0 0 -65 0 -65 60 0 60 0 0 65 0 65 65 0 65 0 0 -65 0 -65
65 0 65 0 0 65 0 65 60 0 60 0 0 60 0 60 65 0 65 0 0 -125 0 -125 65 0 65 0 0
125 0 125 -65 0 -65 0 0 65 0 65 -65 0 -65 0 0 65 0 65 65 0 65 0 0 60 0 60
65 0 65 0 0 65 0 65 60 0 60 0 0 -65 0 -65 65 0 65 0 0 65 0 65 -65 0 -65 0 0
65 0 65 65 0 65 0 0 60 0 60 -65 0 -65 0 0 65 0 65 65 0 65 0 0 65 0 65 -65 0
-65 0 0 -65 0 -65 -60 0 -60 0 0 -65 0 -65 60 0 60 0 0 -60 0 -60 -60 0 -60 0
0 -65 0 -65 -65 0 -65 0 0 65 0 65 -65 0 -65 0 0 -65 0 -65 -60 0 -60 0 0 65
0 65 -65 0 -65 0 0 60 0 60 65 0 65 0 0 65 0 65 -65 0 -65 0 0 65 0 65 65 0
65 0 0 60 0 60 -65 0 -65 0 0 65 0 65 65 0 65 0 0 65 0 65 60 0 60 0 0 60 0
60 -60 0 -60 0 0 65 0 65 60 0 60 0 0 65 0 65 65 0 65 0 0 -65 0 -65 65 0 65
0 0 65 0 65 60 0 60 0 0 -65 0 -65 65 0 65 0 0 65 0 65 65 0 65 0 0 -65 0 -65
60 0 60 0 0 -65 0 -65 -60 0 -60 0 0 -60 0 -60 60 0 60 0 0 -65 0 -65 65 0 65
0 0 65 0 65 65 0 65 0 0 -65 0 -65 60 0 60 0 0 65 0 65 -60 0 -60 0 0 60 0 60
60 0 60 0 0 65 0 65 -60 0 -60 0 0 65 0 65 -65 0 -65 0 0 60 0 60 -65 0 -65 0
0 65 0 65 -60 0 -60 0 0 65 0 65 60 0 60 0 0 60 0 60 -60 0 -60 0 0 65 0 65
60 0 60 0 0 60 0 60 -60 0 -60 0 0 65 0 65 60 0 60 0 0 65 0 65 65 0 65 0 0
60 0 60 65 0 65 0 0 65 0 65 60 0 60 0 0 -65 0 -65 65 0 65 0 0 -60 0 -60 65
0 65 0 0 -65 0 -65 60 0 60 0 0 65 0 65 65 0 65 0 0 -65 0 -65 65 0 65 0 0 65
0 65 -65 0 -65 0 0 60 0 60 65 0 65 0 0 65 0 65 60 0 60 0 0 65 0 65 -60 0
-60 0 0 60 0 60 -65 0 -65 0 0 -60 0 -60 -65 0 -65 0 0 60 0 60 -60 0 -60 0 0
-60 0 -60 -65 0 -65 0 0 -65 0 -65 -65 0 -65 0 0 65 0 65 -60 0 -60 0 0 -65 0
-65 -65 0 -65 0 0 65 0 65 -65 0 -65 0 0 60 0 60 65 0 65 0 0 65 0 65 -65 0
-65 0 0 65 0 65 -60 0 -60 0 0 60 0 60 60 0 60 0 0 65 0 65 -60 0 -60 0 0 65
0 65 60 0 60 0 0 60 0 60 65 0 65 0 0 65 0 65 -65 0 -65 0 0 -65 0 -65 -60 0
-60 0 0 65 0 65 -65 0 -65 0 0 -65 0 -65 -65 0 -65 0 0 65 0 65 -60 0 -60 0 0
-65 0 -65 60 0 60 0 0 -60 0 -60 -60 0 -60 0 0 -65 0 -65 -65 0 -65 0 0 65 0
65 -65 0 -65 0 0 -65 0 -65 -60 0 -60 0 0 65 0 65 -65 0 -65 0 0 60 0 60 -65
0 -65 0 0 65 0 65 65 0 65 0 0 65 0 65 -65 0 -65 0 0 60 0 60 65 0 65 0 0 65
0 65 -65 0 -65 0 0 65 0 65 -60 0 -60 0 0 -65 0 -65 -65 0 -65 0 0 -65 0 -65
-65 0 -65 0 0 -60 0 -60 -60 0 -60 0 0 -65 0 -65 -65 0 -65 0 0 -65 0 -65 65
0 65 0 0 -60 0 -60 -65 0 -65 0 0 -65 0 -65 -65 0 -65 0 0 65 0 65 -60 0 -60
0 0 60 0 60 -65 0 -65 0 0 65 0 65 65 0 65 0 0 65 0 65 -65 0 -65 0 0 60 0 60
65 0 65 0 0 65 0 65 60 0 60 0 0 65 0 65 65 0 65 0 0 60 0 60 65 0 65 0 0 -60
0 -60 60 0 60 0 0 60 0 60 65 0 65 0 0 65 0 65 -65 0 -65 0 0 65 0 65 -60 0
-60 0 0 60 0 60 -65 0 -65 0 0 65 0 65 -65 0 -65 0 0 65 0 65 -60 0 -60 0 0
60 0 60 -65 0 -65 0 0 65 0 65 -65 0 -65 0 0 -65 0 -65 -60 0 -60 0 0 65 0 65
-65 0 -65 0 0 65 0 65 -60 0 -60 0 0 -65z m120 -130 l0 -65 65 0 65 0 0 -60 0
-60 -65 0 -65 0 0 60 0 60 -60 0 -60 0 0 65 0 65 60 0 60 0 0 -65z m380 -125
l0 -60 -65 0 -65 0 0 60 0 60 65 0 65 0 0 -60z m380 -380 l0 -60 65 0 65 0 0
-65 0 -65 60 0 60 0 0 -65 0 -65 -60 0 -60 0 0 65 0 65 -65 0 -65 0 0 -65 0
-65 -65 0 -65 0 0 -60 0 -60 -60 0 -60 0 0 -65 0 -65 -65 0 -65 0 0 -65 0 -65
-65 0 -65 0 0 -60 0 -60 65 0 65 0 0 -65 0 -65 -65 0 -65 0 0 -65 0 -65 65 0
65 0 0 -60 0 -60 65 0 65 0 0 -65 0 -65 60 0 60 0 0 -65 0 -65 65 0 65 0 0 65
0 65 65 0 65 0 0 65 0 65 60 0 60 0 0 60 0 60 -60 0 -60 0 0 65 0 65 60 0 60
0 0 65 0 65 65 0 65 0 0 60 0 60 65 0 65 0 0 65 0 65 60 0 60 0 0 -65 0 -65
-60 0 -60 0 0 -60 0 -60 60 0 60 0 0 -65 0 -65 -60 0 -60 0 0 -65 0 -65 60 0
60 0 0 -60 0 -60 65 0 65 0 0 -65 0 -65 65 0 65 0 0 -65 0 -65 60 0 60 0 0 65
0 65 65 0 65 0 0 -65 0 -65 65 0 65 0 0 65 0 65 60 0 60 0 0 65 0 65 65 0 65
0 0 60 0 60 65 0 65 0 0 -60 0 -60 -65 0 -65 0 0 -65 0 -65 65 0 65 0 0 -65 0
-65 -65 0 -65 0 0 -60 0 -60 65 0 65 0 0 -65 0 -65 60 0 60 0 0 -65 0 -65 -60
0 -60 0 0 -60 0 -60 60 0 60 0 0 -65 0 -65 65 0 65 0 0 -65 0 -65 -65 0 -65 0
0 -60 0 -60 -60 0 -60 0 0 -65 0 -65 -65 0 -65 0 0 -65 0 -65 65 0 65 0 0 -60
0 -60 -65 0 -65 0 0 -65 0 -65 65 0 65 0 0 -60 0 -60 -65 0 -65 0 0 -65 0 -65
65 0 65 0 0 -65 0 -65 60 0 60 0 0 -60 0 -60 65 0 65 0 0 -65 0 -65 65 0 65 0
0 -65 0 -65 -65 0 -65 0 0 -60 0 -60 -65 0 -65 0 0 60 0 60 65 0 65 0 0 65 0
65 -65 0 -65 0 0 65 0 65 -60 0 -60 0 0 60 0 60 -65 0 -65 0 0 -60 0 -60 -65
0 -65 0 0 60 0 60 -60 0 -60 0 0 -60 0 -60 -65 0 -65 0 0 60 0 60 -65 0 -65 0
0 -60 0 -60 -60 0 -60 0 0 60 0 60 60 0 60 0 0 65 0 65 -60 0 -60 0 0 65 0 65
-65 0 -65 0 0 60 0 60 -65 0 -65 0 0 -60 0 -60 -60 0 -60 0 0 60 0 60 -65 0
-65 0 0 -60 0 -60 -65 0 -65 0 0 -65 0 -65 -60 0 -60 0 0 65 0 65 -65 0 -65 0
0 -65 0 -65 -65 0 -65 0 0 65 0 65 65 0 65 0 0 60 0 60 -65 0 -65 0 0 65 0 65
-60 0 -60 0 0 60 0 60 60 0 60 0 0 65 0 65 65 0 65 0 0 65 0 65 65 0 65 0 0
60 0 60 60 0 60 0 0 65 0 65 65 0 65 0 0 65 0 65 65 0 65 0 0 60 0 60 -65 0
-65 0 0 65 0 65 -65 0 -65 0 0 65 0 65 -60 0 -60 0 0 60 0 60 -65 0 -65 0 0
-60 0 -60 -65 0 -65 0 0 -65 0 -65 -60 0 -60 0 0 -65 0 -65 -65 0 -65 0 0 -60
0 -60 -65 0 -65 0 0 -65 0 -65 -60 0 -60 0 0 -65 0 -65 -65 0 -65 0 0 -60 0
-60 -60 0 -60 0 0 -65 0 -65 60 0 60 0 0 -65 0 -65 -60 0 -60 0 0 65 0 65 -65
0 -65 0 0 65 0 65 -65 0 -65 0 0 -65 0 -65 -60 0 -60 0 0 -65 0 -65 -65 0 -65
0 0 -60 0 -60 -65 0 -65 0 0 -65 0 -65 -60 0 -60 0 0 65 0 65 -65 0 -65 0 0
-65 0 -65 -65 0 -65 0 0 -60 0 -60 -60 0 -60 0 0 -65 0 -65 -65 0 -65 0 0 -65
0 -65 65 0 65 0 0 -60 0 -60 -65 0 -65 0 0 -65 0 -65 65 0 65 0 0 -65 0 -65
-65 0 -65 0 0 -60 0 -60 -65 0 -65 0 0 -65 0 -65 65 0 65 0 0 -65 0 -65 -65 0
-65 0 0 65 0 65 -60 0 -60 0 0 -65 0 -65 -65 0 -65 0 0 65 0 65 -65 0 -65 0 0
65 0 65 65 0 65 0 0 60 0 60 65 0 65 0 0 65 0 65 60 0 60 0 0 65 0 65 65 0 65
0 0 60 0 60 -65 0 -65 0 0 65 0 65 65 0 65 0 0 65 0 65 -65 0 -65 0 0 60 0 60
-60 0 -60 0 0 -60 0 -60 -65 0 -65 0 0 -65 0 -65 -65 0 -65 0 0 65 0 65 -60 0
-60 0 0 -65 0 -65 -65 0 -65 0 0 -65 0 -65 -65 0 -65 0 0 -60 0 -60 -60 0 -60
0 0 315 0 315 -65 0 -65 0 0 -65 0 -65 -65 0 -65 0 0 -60 0 -60 65 0 65 0 0
-65 0 -65 -65 0 -65 0 0 65 0 65 -60 0 -60 0 0 60 0 60 -65 0 -65 0 0 65 0 65
-65 0 -65 0 0 60 0 60 65 0 65 0 0 65 0 65 -65 0 -65 0 0 65 0 65 65 0 65 0 0
-65 0 -65 65 0 65 0 0 65 0 65 60 0 60 0 0 -65 0 -65 65 0 65 0 0 65 0 65 65
0 65 0 0 -65 0 -65 -65 0 -65 0 0 -65 0 -65 125 0 125 0 0 130 0 130 65 0 65
0 0 60 0 60 65 0 65 0 0 65 0 65 -65 0 -65 0 0 65 0 65 65 0 65 0 0 -65 0 -65
380 0 380 0 0 125 0 125 -65 0 -65 0 0 -60 0 -60 -65 0 -65 0 0 60 0 60 65 0
65 0 0 65 0 65 65 0 65 0 0 65 0 65 60 0 60 0 0 60 0 60 -60 0 -60 0 0 65 0
65 60 0 60 0 0 -65 0 -65 65 0 65 0 0 65 0 65 65 0 65 0 0 65 0 65 60 0 60 0
0 -65 0 -65 65 0 65 0 0 65 0 65 65 0 65 0 0 60 0 60 60 0 60 0 0 -60 0 -60
65 0 65 0 0 60 0 60 65 0 65 0 0 65 0 65 60 0 60 0 0 65 0 65 65 0 65 0 0 60
0 60 60 0 60 0 0 65 0 65 65 0 65 0 0 65 0 65 65 0 65 0 0 60 0 60 60 0 60 0
0 65 0 65 -60 0 -60 0 0 65 0 65 60 0 60 0 0 60 0 60 65 0 65 0 0 -60z m-1140
-125 l0 -65 65 0 65 0 0 65 0 65 65 0 65 0 0 -65 0 -65 -65 0 -65 0 0 -65 0
-65 -65 0 -65 0 0 -60 0 -60 -60 0 -60 0 0 -65 0 -65 -65 0 -65 0 0 65 0 65
-65 0 -65 0 0 -65 0 -65 -60 0 -60 0 0 65 0 65 60 0 60 0 0 60 0 60 65 0 65 0
0 65 0 65 65 0 65 0 0 65 0 65 60 0 60 0 0 -65z m-1640 -890 l0 -65 60 0 60 0
0 65 0 65 65 0 65 0 0 -65 0 -65 65 0 65 0 0 -60 0 -60 -65 0 -65 0 0 -65 0
-65 -65 0 -65 0 0 -65 0 -65 -60 0 -60 0 0 -60 0 -60 -65 0 -65 0 0 -65 0 -65
-65 0 -65 0 0 -65 0 -65 -60 0 -60 0 0 65 0 65 60 0 60 0 0 65 0 65 -60 0 -60
0 0 60 0 60 60 0 60 0 0 65 0 65 65 0 65 0 0 65 0 65 65 0 65 0 0 60 0 60 -65
0 -65 0 0 65 0 65 65 0 65 0 0 -65z m-1020 -250 l0 -65 -60 0 -60 0 0 -65 0
-65 -65 0 -65 0 0 -60 0 -60 65 0 65 0 0 -65 0 -65 -65 0 -65 0 0 -65 0 -65
-65 0 -65 0 0 65 0 65 65 0 65 0 0 65 0 65 -65 0 -65 0 0 60 0 60 65 0 65 0 0
65 0 65 65 0 65 0 0 65 0 65 60 0 60 0 0 -65z m6330 -760 l0 -65 65 0 65 0 0
65 0 65 65 0 65 0 0 -65 0 -65 -65 0 -65 0 0 -65 0 -65 -65 0 -65 0 0 -60 0
-60 -60 0 -60 0 0 60 0 60 -65 0 -65 0 0 65 0 65 65 0 65 0 0 65 0 65 60 0 60
0 0 -65z m-3410 -1140 l0 -65 60 0 60 0 0 -60 0 -60 65 0 65 0 0 -65 0 -65 60
0 60 0 0 -65 0 -65 -60 0 -60 0 0 -60 0 -60 -65 0 -65 0 0 -65 0 -65 65 0 65
0 0 -65 0 -65 -65 0 -65 0 0 -60 0 -60 -60 0 -60 0 0 60 0 60 -65 0 -65 0 0
65 0 65 -65 0 -65 0 0 -65 0 -65 -60 0 -60 0 0 -60 0 -60 -65 0 -65 0 0 60 0
60 -65 0 -65 0 0 65 0 65 -60 0 -60 0 0 65 0 65 60 0 60 0 0 60 0 60 65 0 65
0 0 65 0 65 65 0 65 0 0 65 0 65 60 0 60 0 0 60 0 60 65 0 65 0 0 65 0 65 65
0 65 0 0 -65z m1770 -505 l0 -60 -65 0 -65 0 0 -65 0 -65 -65 0 -65 0 0 -65 0
-65 65 0 65 0 0 -60 0 -60 -65 0 -65 0 0 -65 0 -65 65 0 65 0 0 -65 0 -65 -65
0 -65 0 0 -60 0 -60 65 0 65 0 0 -65 0 -65 65 0 65 0 0 -65 0 -65 60 0 60 0 0
65 0 65 65 0 65 0 0 -65 0 -65 -65 0 -65 0 0 -60 0 -60 -60 0 -60 0 0 -65 0
-65 60 0 60 0 0 -65 0 -65 -60 0 -60 0 0 -60 0 -60 -65 0 -65 0 0 60 0 60 -65
0 -65 0 0 -60 0 -60 -60 0 -60 0 0 60 0 60 60 0 60 0 0 65 0 65 65 0 65 0 0
65 0 65 -65 0 -65 0 0 60 0 60 65 0 65 0 0 65 0 65 -65 0 -65 0 0 65 0 65 -60
0 -60 0 0 -65 0 -65 -65 0 -65 0 0 65 0 65 -65 0 -65 0 0 -65 0 -65 -60 0 -60
0 0 -65 0 -65 -65 0 -65 0 0 -60 0 -60 -65 0 -65 0 0 60 0 60 65 0 65 0 0 65
0 65 65 0 65 0 0 65 0 65 -65 0 -65 0 0 60 0 60 65 0 65 0 0 65 0 65 -65 0
-65 0 0 65 0 65 65 0 65 0 0 60 0 60 60 0 60 0 0 65 0 65 65 0 65 0 0 65 0 65
65 0 65 0 0 -65 0 -65 60 0 60 0 0 65 0 65 65 0 65 0 0 60 0 60 65 0 65 0 0
-60z m-1650 -885 l0 -65 65 0 65 0 0 -65 0 -65 -65 0 -65 0 0 65 0 65 -60 0
-60 0 0 -65 0 -65 -65 0 -65 0 0 65 0 65 65 0 65 0 0 65 0 65 60 0 60 0 0 -65z
m760 -510 l0 -65 -65 0 -65 0 0 65 0 65 65 0 65 0 0 -65z"/>
<path d="M6350 8795 l0 -65 65 0 65 0 0 65 0 65 -65 0 -65 0 0 -65z"/>
<path d="M5850 8035 l0 -65 -65 0 -65 0 0 -65 0 -65 65 0 65 0 0 -60 0 -60 60
0 60 0 0 -65 0 -65 -60 0 -60 0 0 -65 0 -65 -65 0 -65 0 0 -60 0 -60 -60 0
-60 0 0 -65 0 -65 -65 0 -65 0 0 -65 0 -65 -65 0 -65 0 0 65 0 65 -60 0 -60 0
0 -65 0 -65 -65 0 -65 0 0 -60 0 -60 65 0 65 0 0 -65 0 -65 -65 0 -65 0 0 -65
0 -65 -65 0 -65 0 0 -60 0 -60 -60 0 -60 0 0 60 0 60 -65 0 -65 0 0 -60 0 -60
-65 0 -65 0 0 -65 0 -65 -60 0 -60 0 0 65 0 65 -65 0 -65 0 0 -65 0 -65 -65 0
-65 0 0 65 0 65 -60 0 -60 0 0 -65 0 -65 -65 0 -65 0 0 -65 0 -65 -65 0 -65 0
0 -60 0 -60 -60 0 -60 0 0 -65 0 -65 -65 0 -65 0 0 -60 0 -60 65 0 65 0 0 60
0 60 60 0 60 0 0 -60 0 -60 65 0 65 0 0 60 0 60 65 0 65 0 0 65 0 65 60 0 60
0 0 -65 0 -65 65 0 65 0 0 -60 0 -60 65 0 65 0 0 60 0 60 60 0 60 0 0 65 0 65
65 0 65 0 0 60 0 60 65 0 65 0 0 -60 0 -60 60 0 60 0 0 60 0 60 65 0 65 0 0
65 0 65 65 0 65 0 0 65 0 65 60 0 60 0 0 60 0 60 65 0 65 0 0 -60 0 -60 65 0
65 0 0 60 0 60 60 0 60 0 0 65 0 65 65 0 65 0 0 65 0 65 60 0 60 0 0 60 0 60
65 0 65 0 0 65 0 65 65 0 65 0 0 65 0 65 60 0 60 0 0 60 0 60 -60 0 -60 0 0
65 0 65 -65 0 -65 0 0 65 0 65 -65 0 -65 0 0 60 0 60 -60 0 -60 0 0 65 0 65
60 0 60 0 0 65 0 65 -60 0 -60 0 0 -65z m250 -510 l0 -65 65 0 65 0 0 -60 0
-60 -65 0 -65 0 0 -65 0 -65 -65 0 -65 0 0 -65 0 -65 -60 0 -60 0 0 -60 0 -60
-65 0 -65 0 0 -65 0 -65 -60 0 -60 0 0 -65 0 -65 -65 0 -65 0 0 65 0 65 -65 0
-65 0 0 -65 0 -65 -60 0 -60 0 0 -60 0 -60 -65 0 -65 0 0 -65 0 -65 -65 0 -65
0 0 -65 0 -65 -60 0 -60 0 0 65 0 65 -65 0 -65 0 0 -65 0 -65 -65 0 -65 0 0
-60 0 -60 -60 0 -60 0 0 -65 0 -65 -65 0 -65 0 0 65 0 65 -65 0 -65 0 0 60 0
60 -60 0 -60 0 0 -60 0 -60 -65 0 -65 0 0 -65 0 -65 -65 0 -65 0 0 65 0 65 65
0 65 0 0 60 0 60 65 0 65 0 0 65 0 65 60 0 60 0 0 -65 0 -65 65 0 65 0 0 65 0
65 65 0 65 0 0 -65 0 -65 60 0 60 0 0 65 0 65 65 0 65 0 0 65 0 65 65 0 65 0
0 -65 0 -65 60 0 60 0 0 65 0 65 65 0 65 0 0 60 0 60 65 0 65 0 0 65 0 65 60
0 60 0 0 65 0 65 -60 0 -60 0 0 60 0 60 60 0 60 0 0 -60 0 -60 65 0 65 0 0 60
0 60 65 0 65 0 0 65 0 65 60 0 60 0 0 65 0 65 65 0 65 0 0 60 0 60 60 0 60 0
0 65 0 65 65 0 65 0 0 -65z"/>
<path d="M5970 7400 l0 -60 -60 0 -60 0 0 -65 0 -65 -65 0 -65 0 0 -65 0 -65
-60 0 -60 0 0 -60 0 -60 -65 0 -65 0 0 -65 0 -65 65 0 65 0 0 65 0 65 60 0 60
0 0 60 0 60 65 0 65 0 0 65 0 65 60 0 60 0 0 65 0 65 65 0 65 0 0 60 0 60 -65
0 -65 0 0 -60z"/>
<path d="M4330 6260 l0 -60 65 0 65 0 0 60 0 60 -65 0 -65 0 0 -60z"/>
<path d="M6860 8035 l0 -65 -65 0 -65 0 0 -65 0 -65 65 0 65 0 0 -60 0 -60
-65 0 -65 0 0 -65 0 -65 -60 0 -60 0 0 -65 0 -65 60 0 60 0 0 -60 0 -60 65 0
65 0 0 -65 0 -65 65 0 65 0 0 -65 0 -65 60 0 60 0 0 65 0 65 65 0 65 0 0 65 0
65 65 0 65 0 0 60 0 60 -65 0 -65 0 0 65 0 65 -65 0 -65 0 0 65 0 65 -60 0
-60 0 0 60 0 60 -65 0 -65 0 0 65 0 65 65 0 65 0 0 65 0 65 -65 0 -65 0 0 -65z
m130 -380 l0 -65 60 0 60 0 0 -65 0 -65 65 0 65 0 0 -60 0 -60 -65 0 -65 0 0
-65 0 -65 -60 0 -60 0 0 65 0 65 -65 0 -65 0 0 60 0 60 -65 0 -65 0 0 65 0 65
65 0 65 0 0 65 0 65 65 0 65 0 0 -65z"/>
<path d="M6860 7525 l0 -65 65 0 65 0 0 -60 0 -60 60 0 60 0 0 60 0 60 -60 0
-60 0 0 65 0 65 -65 0 -65 0 0 -65z"/>
<path d="M5220 7655 l0 -65 -65 0 -65 0 0 -65 0 -65 -65 0 -65 0 0 65 0 65
-60 0 -60 0 0 -65 0 -65 -65 0 -65 0 0 -60 0 -60 -65 0 -65 0 0 -65 0 -65 -60
0 -60 0 0 -65 0 -65 60 0 60 0 0 -60 0 -60 65 0 65 0 0 -65 0 -65 65 0 65 0 0
65 0 65 -65 0 -65 0 0 60 0 60 65 0 65 0 0 65 0 65 60 0 60 0 0 65 0 65 65 0
65 0 0 60 0 60 65 0 65 0 0 65 0 65 60 0 60 0 0 65 0 65 -60 0 -60 0 0 -65z
m-260 -255 l0 -60 -60 0 -60 0 0 -65 0 -65 -65 0 -65 0 0 -65 0 -65 -65 0 -65
0 0 65 0 65 65 0 65 0 0 65 0 65 65 0 65 0 0 60 0 60 60 0 60 0 0 -60z"/>
<path d="M7870 7525 l0 -65 65 0 65 0 0 65 0 65 -65 0 -65 0 0 -65z"/>
<path d="M7870 7275 l0 -65 65 0 65 0 0 -65 0 -65 -65 0 -65 0 0 -60 0 -60
-60 0 -60 0 0 -65 0 -65 -65 0 -65 0 0 -65 0 -65 -65 0 -65 0 0 -60 0 -60 65
0 65 0 0 -65 0 -65 -65 0 -65 0 0 -65 0 -65 65 0 65 0 0 -60 0 -60 -65 0 -65
0 0 -65 0 -65 -60 0 -60 0 0 -60 0 -60 60 0 60 0 0 -65 0 -65 65 0 65 0 0 -65
0 -65 65 0 65 0 0 65 0 65 60 0 60 0 0 -65 0 -65 65 0 65 0 0 65 0 65 -65 0
-65 0 0 65 0 65 65 0 65 0 0 60 0 60 -65 0 -65 0 0 65 0 65 65 0 65 0 0 60 0
60 -65 0 -65 0 0 65 0 65 65 0 65 0 0 65 0 65 65 0 65 0 0 60 0 60 60 0 60 0
0 65 0 65 -60 0 -60 0 0 65 0 65 -65 0 -65 0 0 60 0 60 65 0 65 0 0 65 0 65
-65 0 -65 0 0 65 0 65 -65 0 -65 0 0 -65z m130 -380 l0 -65 65 0 65 0 0 -65 0
-65 -65 0 -65 0 0 -60 0 -60 -65 0 -65 0 0 -65 0 -65 -60 0 -60 0 0 -65 0 -65
60 0 60 0 0 -60 0 -60 -60 0 -60 0 0 -65 0 -65 60 0 60 0 0 -60 0 -60 -60 0
-60 0 0 -65 0 -65 -65 0 -65 0 0 65 0 65 -65 0 -65 0 0 60 0 60 65 0 65 0 0
65 0 65 65 0 65 0 0 60 0 60 -65 0 -65 0 0 65 0 65 65 0 65 0 0 65 0 65 -65 0
-65 0 0 60 0 60 65 0 65 0 0 65 0 65 60 0 60 0 0 65 0 65 65 0 65 0 0 -65z"/>
<path d="M7870 6765 l0 -65 -60 0 -60 0 0 -60 0 -60 60 0 60 0 0 60 0 60 65 0
65 0 0 65 0 65 -65 0 -65 0 0 -65z"/>
<path d="M7620 6010 l0 -60 65 0 65 0 0 60 0 60 -65 0 -65 0 0 -60z"/>
<path d="M6860 6765 l0 -65 -65 0 -65 0 0 -60 0 -60 -60 0 -60 0 0 -65 0 -65
-65 0 -65 0 0 -65 0 -65 -65 0 -65 0 0 -60 0 -60 65 0 65 0 0 -65 0 -65 65 0
65 0 0 -60 0 -60 60 0 60 0 0 60 0 60 65 0 65 0 0 65 0 65 65 0 65 0 0 -65 0
-65 60 0 60 0 0 65 0 65 -60 0 -60 0 0 60 0 60 60 0 60 0 0 65 0 65 -60 0 -60
0 0 65 0 65 -65 0 -65 0 0 60 0 60 65 0 65 0 0 65 0 65 -65 0 -65 0 0 -65z m0
-250 l0 -65 65 0 65 0 0 -65 0 -65 -65 0 -65 0 0 -60 0 -60 -65 0 -65 0 0 -65
0 -65 -60 0 -60 0 0 65 0 65 -65 0 -65 0 0 60 0 60 65 0 65 0 0 65 0 65 60 0
60 0 0 65 0 65 65 0 65 0 0 -65z"/>
<path d="M6730 6385 l0 -65 -60 0 -60 0 0 -60 0 -60 60 0 60 0 0 60 0 60 65 0
65 0 0 65 0 65 -65 0 -65 0 0 -65z"/>
<path d="M2940 6385 l0 -65 -65 0 -65 0 0 -60 0 -60 65 0 65 0 0 -65 0 -65 60
0 60 0 0 65 0 65 65 0 65 0 0 60 0 60 -65 0 -65 0 0 65 0 65 -60 0 -60 0 0
-65z m120 -125 l0 -60 -60 0 -60 0 0 60 0 60 60 0 60 0 0 -60z"/>
<path d="M4200 5375 l0 -65 -60 0 -60 0 0 -60 0 -60 -65 0 -65 0 0 -65 0 -65
65 0 65 0 0 65 0 65 60 0 60 0 0 60 0 60 65 0 65 0 0 65 0 65 -65 0 -65 0 0
-65z"/>
<path d="M5220 8665 l0 -65 -65 0 -65 0 0 -60 0 -60 65 0 65 0 0 60 0 60 60 0
60 0 0 65 0 65 -60 0 -60 0 0 -65z"/>
<path d="M3820 7780 l0 -60 -60 0 -60 0 0 -65 0 -65 -65 0 -65 0 0 -65 0 -65
-65 0 -65 0 0 -60 0 -60 65 0 65 0 0 60 0 60 65 0 65 0 0 65 0 65 60 0 60 0 0
65 0 65 65 0 65 0 0 60 0 60 -65 0 -65 0 0 -60z"/>
<path d="M8890 6765 l0 -65 60 0 60 0 0 65 0 65 -60 0 -60 0 0 -65z"/>
<path d="M5470 5630 l0 -60 -65 0 -65 0 0 -65 0 -65 -60 0 -60 0 0 -65 0 -65
-65 0 -65 0 0 -60 0 -60 -65 0 -65 0 0 -65 0 -65 65 0 65 0 0 -65 0 -65 65 0
65 0 0 65 0 65 60 0 60 0 0 65 0 65 65 0 65 0 0 -65 0 -65 65 0 65 0 0 -65 0
-65 60 0 60 0 0 65 0 65 -60 0 -60 0 0 65 0 65 60 0 60 0 0 60 0 60 65 0 65 0
0 65 0 65 -65 0 -65 0 0 65 0 65 -60 0 -60 0 0 60 0 60 -65 0 -65 0 0 -60z
m130 -125 l0 -65 60 0 60 0 0 -65 0 -65 -60 0 -60 0 0 -60 0 -60 -65 0 -65 0
0 60 0 60 -65 0 -65 0 0 -60 0 -60 -60 0 -60 0 0 -65 0 -65 -65 0 -65 0 0 65
0 65 65 0 65 0 0 60 0 60 60 0 60 0 0 65 0 65 65 0 65 0 0 65 0 65 65 0 65 0
0 -65z"/>
<path d="M5470 5375 l0 -65 65 0 65 0 0 65 0 65 -65 0 -65 0 0 -65z"/>
<path d="M6860 4995 l0 -65 -65 0 -65 0 0 -60 0 -60 -60 0 -60 0 0 -65 0 -65
60 0 60 0 0 -65 0 -65 -60 0 -60 0 0 -60 0 -60 60 0 60 0 0 60 0 60 65 0 65 0
0 -60 0 -60 65 0 65 0 0 60 0 60 60 0 60 0 0 65 0 65 -60 0 -60 0 0 65 0 65
60 0 60 0 0 60 0 60 -60 0 -60 0 0 65 0 65 -65 0 -65 0 0 -65z m130 -125 l0
-60 -65 0 -65 0 0 -65 0 -65 65 0 65 0 0 -65 0 -65 -65 0 -65 0 0 65 0 65 -65
0 -65 0 0 65 0 65 65 0 65 0 0 60 0 60 65 0 65 0 0 -60z"/>
<path d="M7240 4110 l0 -60 65 0 65 0 0 60 0 60 -65 0 -65 0 0 -60z"/>
<path d="M7240 3855 l0 -65 65 0 65 0 0 65 0 65 -65 0 -65 0 0 -65z"/>
<path d="M4960 9300 l0 -60 130 0 130 0 0 60 0 60 -130 0 -130 0 0 -60z"/>
<path d="M4460 8985 l0 -125 60 0 60 0 0 125 0 125 -60 0 -60 0 0 -125z"/>
<path d="M11040 8920 l0 -60 -65 0 -65 0 0 -65 0 -65 -65 0 -65 0 0 -65 0 -65
-60 0 -60 0 0 -60 0 -60 -65 0 -65 0 0 -65 0 -65 65 0 65 0 0 65 0 65 60 0 60
0 0 60 0 60 65 0 65 0 0 -60 0 -60 65 0 65 0 0 60 0 60 60 0 60 0 0 65 0 65
-60 0 -60 0 0 65 0 65 60 0 60 0 0 60 0 60 -60 0 -60 0 0 -60z m0 -255 l0 -65
-65 0 -65 0 0 65 0 65 65 0 65 0 0 -65z"/>
<path d="M12300 8920 l0 -60 -60 0 -60 0 0 -65 0 -65 -65 0 -65 0 0 65 0 65
-65 0 -65 0 0 -65 0 -65 -60 0 -60 0 0 -65 0 -65 -65 0 -65 0 0 -60 0 -60 -65
0 -65 0 0 -65 0 -65 -60 0 -60 0 0 -65 0 -65 -65 0 -65 0 0 -60 0 -60 65 0 65
0 0 -65 0 -65 60 0 60 0 0 65 0 65 190 0 190 0 0 60 0 60 65 0 65 0 0 -60 0
-60 65 0 65 0 0 60 0 60 60 0 60 0 0 65 0 65 65 0 65 0 0 65 0 65 -65 0 -65 0
0 60 0 60 65 0 65 0 0 65 0 65 65 0 65 0 0 -125 0 -125 125 0 125 0 0 60 0 60
125 0 125 0 0 65 0 65 130 0 130 0 0 65 0 65 -65 0 -65 0 0 60 0 60 -65 0 -65
0 0 -60 0 -60 -60 0 -60 0 0 60 0 60 -65 0 -65 0 0 -60 0 -60 -65 0 -65 0 0
60 0 60 -60 0 -60 0 0 -60 0 -60 -65 0 -65 0 0 60 0 60 -65 0 -65 0 0 -60z
m130 -125 l0 -65 -65 0 -65 0 0 -65 0 -65 -60 0 -60 0 0 -60 0 -60 -65 0 -65
0 0 -65 0 -65 65 0 65 0 0 -65 0 -65 -65 0 -65 0 0 65 0 65 -65 0 -65 0 0 65
0 65 -60 0 -60 0 0 -65 0 -65 -65 0 -65 0 0 -65 0 -65 -65 0 -65 0 0 -60 0
-60 -60 0 -60 0 0 60 0 60 60 0 60 0 0 65 0 65 65 0 65 0 0 65 0 65 65 0 65 0
0 60 0 60 60 0 60 0 0 65 0 65 65 0 65 0 0 -65 0 -65 65 0 65 0 0 65 0 65 60
0 60 0 0 65 0 65 65 0 65 0 0 -65z m250 0 l0 -65 65 0 65 0 0 65 0 65 65 0 65
0 0 -65 0 -65 -65 0 -65 0 0 -65 0 -65 -65 0 -65 0 0 65 0 65 -60 0 -60 0 0
65 0 65 60 0 60 0 0 -65z"/>
<path d="M11920 8540 l0 -60 65 0 65 0 0 60 0 60 -65 0 -65 0 0 -60z"/>
<path d="M12430 8160 l0 -60 65 0 65 0 0 -65 0 -65 125 0 125 0 0 -65 0 -65
65 0 65 0 0 -60 0 -60 125 0 125 0 0 -65 0 -65 125 0 125 0 0 65 0 65 -60 0
-60 0 0 60 0 60 60 0 60 0 0 65 0 65 -60 0 -60 0 0 65 0 65 60 0 60 0 0 60 0
60 -60 0 -60 0 0 -60 0 -60 -65 0 -65 0 0 -65 0 -65 -65 0 -65 0 0 65 0 65
-60 0 -60 0 0 -65 0 -65 -65 0 -65 0 0 65 0 65 -65 0 -65 0 0 60 0 60 -125 0
-125 0 0 -60z m890 -255 l0 -65 -65 0 -65 0 0 65 0 65 65 0 65 0 0 -65z"/>
<path d="M8760 7905 l0 -65 65 0 65 0 0 -60 0 -60 -65 0 -65 0 0 -65 0 -65 65
0 65 0 0 65 0 65 60 0 60 0 0 60 0 60 65 0 65 0 0 65 0 65 -65 0 -65 0 0 -65
0 -65 -60 0 -60 0 0 65 0 65 -65 0 -65 0 0 -65z"/>
<path d="M9270 7905 l0 -65 60 0 60 0 0 65 0 65 -60 0 -60 0 0 -65z"/>
<path d="M11920 7525 l0 -65 -60 0 -60 0 0 -60 0 -60 -65 0 -65 0 0 -65 0 -65
-65 0 -65 0 0 65 0 65 -60 0 -60 0 0 -65 0 -65 -65 0 -65 0 0 -65 0 -65 -65 0
-65 0 0 -60 0 -60 65 0 65 0 0 -65 0 -65 65 0 65 0 0 -65 0 -65 60 0 60 0 0
-60 0 -60 65 0 65 0 0 -65 0 -65 -65 0 -65 0 0 -65 0 -65 65 0 65 0 0 -60 0
-60 -65 0 -65 0 0 -65 0 -65 -60 0 -60 0 0 65 0 65 -65 0 -65 0 0 -65 0 -65
65 0 65 0 0 -60 0 -60 -65 0 -65 0 0 -65 0 -65 -65 0 -65 0 0 -65 0 -65 -60 0
-60 0 0 -60 0 -60 -65 0 -65 0 0 -65 0 -65 65 0 65 0 0 -65 0 -65 -65 0 -65 0
0 -60 0 -60 65 0 65 0 0 -65 0 -65 60 0 60 0 0 -65 0 -65 -60 0 -60 0 0 -60 0
-60 60 0 60 0 0 -65 0 -65 -60 0 -60 0 0 -65 0 -65 60 0 60 0 0 -60 0 -60 -60
0 -60 0 0 -65 0 -65 -65 0 -65 0 0 -65 0 -65 65 0 65 0 0 -60 0 -60 -65 0 -65
0 0 -65 0 -65 65 0 65 0 0 65 0 65 60 0 60 0 0 -65 0 -65 65 0 65 0 0 65 0 65
65 0 65 0 0 60 0 60 60 0 60 0 0 -60 0 -60 65 0 65 0 0 60 0 60 65 0 65 0 0
65 0 65 -65 0 -65 0 0 65 0 65 65 0 65 0 0 60 0 60 60 0 60 0 0 65 0 65 65 0
65 0 0 65 0 65 65 0 65 0 0 -65 0 -65 60 0 60 0 0 65 0 65 65 0 65 0 0 60 0
60 -65 0 -65 0 0 65 0 65 65 0 65 0 0 65 0 65 -65 0 -65 0 0 60 0 60 -60 0
-60 0 0 -60 0 -60 -65 0 -65 0 0 60 0 60 -65 0 -65 0 0 65 0 65 65 0 65 0 0
65 0 65 -65 0 -65 0 0 60 0 60 65 0 65 0 0 65 0 65 65 0 65 0 0 65 0 65 60 0
60 0 0 -65 0 -65 65 0 65 0 0 65 0 65 -65 0 -65 0 0 60 0 60 -60 0 -60 0 0
-60 0 -60 -65 0 -65 0 0 60 0 60 -65 0 -65 0 0 65 0 65 -60 0 -60 0 0 60 0 60
60 0 60 0 0 65 0 65 -60 0 -60 0 0 65 0 65 60 0 60 0 0 60 0 60 65 0 65 0 0
-60 0 -60 65 0 65 0 0 60 0 60 60 0 60 0 0 -60 0 -60 65 0 65 0 0 60 0 60 65
0 65 0 0 -60 0 -60 60 0 60 0 0 -65 0 -65 65 0 65 0 0 -65 0 -65 65 0 65 0 0
65 0 65 60 0 60 0 0 -65 0 -65 65 0 65 0 0 65 0 65 -65 0 -65 0 0 65 0 65 -60
0 -60 0 0 -65 0 -65 -65 0 -65 0 0 65 0 65 -65 0 -65 0 0 60 0 60 -60 0 -60 0
0 65 0 65 60 0 60 0 0 65 0 65 -60 0 -60 0 0 60 0 60 60 0 60 0 0 65 0 65 -60
0 -60 0 0 65 0 65 -65 0 -65 0 0 60 0 60 -65 0 -65 0 0 65 0 65 -60 0 -60 0 0
-65 0 -65 -65 0 -65 0 0 65 0 65 -65 0 -65 0 0 -65z m130 -125 l0 -60 65 0 65
0 0 60 0 60 60 0 60 0 0 -60 0 -60 65 0 65 0 0 -65 0 -65 65 0 65 0 0 -65 0
-65 -65 0 -65 0 0 -60 0 -60 65 0 65 0 0 -65 0 -65 -65 0 -65 0 0 -65 0 -65
-65 0 -65 0 0 65 0 65 -60 0 -60 0 0 -65 0 -65 -65 0 -65 0 0 65 0 65 -65 0
-65 0 0 -65 0 -65 -60 0 -60 0 0 -60 0 -60 -65 0 -65 0 0 60 0 60 -65 0 -65 0
0 65 0 65 -60 0 -60 0 0 65 0 65 -65 0 -65 0 0 60 0 60 65 0 65 0 0 65 0 65
60 0 60 0 0 -65 0 -65 65 0 65 0 0 65 0 65 65 0 65 0 0 65 0 65 60 0 60 0 0
60 0 60 65 0 65 0 0 -60z m-250 -1015 l0 -65 -65 0 -65 0 0 65 0 65 65 0 65 0
0 -65z m0 -250 l0 -65 60 0 60 0 0 -60 0 -60 65 0 65 0 0 -65 0 -65 -65 0 -65
0 0 -65 0 -65 -60 0 -60 0 0 -60 0 -60 60 0 60 0 0 -65 0 -65 -60 0 -60 0 0
-65 0 -65 60 0 60 0 0 -60 0 -60 65 0 65 0 0 -65 0 -65 65 0 65 0 0 65 0 65
60 0 60 0 0 -65 0 -65 -60 0 -60 0 0 -65 0 -65 60 0 60 0 0 -60 0 -60 -60 0
-60 0 0 60 0 60 -65 0 -65 0 0 -60 0 -60 -65 0 -65 0 0 -65 0 -65 -60 0 -60 0
0 -65 0 -65 -65 0 -65 0 0 -60 0 -60 -65 0 -65 0 0 -65 0 -65 65 0 65 0 0 -65
0 -65 -65 0 -65 0 0 65 0 65 -60 0 -60 0 0 -65 0 -65 -65 0 -65 0 0 -60 0 -60
-65 0 -65 0 0 60 0 60 -60 0 -60 0 0 65 0 65 60 0 60 0 0 65 0 65 65 0 65 0 0
60 0 60 -65 0 -65 0 0 65 0 65 65 0 65 0 0 65 0 65 -65 0 -65 0 0 60 0 60 65
0 65 0 0 65 0 65 -65 0 -65 0 0 65 0 65 -60 0 -60 0 0 60 0 60 60 0 60 0 0 65
0 65 -60 0 -60 0 0 65 0 65 60 0 60 0 0 60 0 60 65 0 65 0 0 65 0 65 65 0 65
0 0 65 0 65 60 0 60 0 0 60 0 60 65 0 65 0 0 65 0 65 65 0 65 0 0 -65z"/>
<path d="M11920 7275 l0 -65 -60 0 -60 0 0 -65 0 -65 -65 0 -65 0 0 -60 0 -60
-65 0 -65 0 0 60 0 60 -60 0 -60 0 0 -60 0 -60 60 0 60 0 0 -65 0 -65 65 0 65
0 0 -65 0 -65 65 0 65 0 0 65 0 65 60 0 60 0 0 65 0 65 65 0 65 0 0 -65 0 -65
65 0 65 0 0 65 0 65 60 0 60 0 0 -65 0 -65 65 0 65 0 0 65 0 65 -65 0 -65 0 0
60 0 60 65 0 65 0 0 65 0 65 -65 0 -65 0 0 65 0 65 -60 0 -60 0 0 -65 0 -65
-65 0 -65 0 0 65 0 65 -65 0 -65 0 0 -65z m130 -130 l0 -65 65 0 65 0 0 65 0
65 60 0 60 0 0 -65 0 -65 -60 0 -60 0 0 -60 0 -60 -65 0 -65 0 0 60 0 60 -65
0 -65 0 0 -60 0 -60 -60 0 -60 0 0 -65 0 -65 -65 0 -65 0 0 65 0 65 65 0 65 0
0 60 0 60 60 0 60 0 0 65 0 65 65 0 65 0 0 -65z"/>
<path d="M11670 6010 l0 -60 -65 0 -65 0 0 -65 0 -65 -60 0 -60 0 0 -65 0 -65
-65 0 -65 0 0 -60 0 -60 -65 0 -65 0 0 -65 0 -65 65 0 65 0 0 -65 0 -65 -65 0
-65 0 0 -60 0 -60 65 0 65 0 0 -65 0 -65 65 0 65 0 0 -65 0 -65 -65 0 -65 0 0
-60 0 -60 65 0 65 0 0 -65 0 -65 -65 0 -65 0 0 -65 0 -65 65 0 65 0 0 -60 0
-60 -65 0 -65 0 0 -65 0 -65 -65 0 -65 0 0 -65 0 -65 65 0 65 0 0 65 0 65 65
0 65 0 0 65 0 65 60 0 60 0 0 60 0 60 65 0 65 0 0 65 0 65 65 0 65 0 0 65 0
65 60 0 60 0 0 60 0 60 65 0 65 0 0 65 0 65 -65 0 -65 0 0 65 0 65 -60 0 -60
0 0 60 0 60 -65 0 -65 0 0 65 0 65 65 0 65 0 0 65 0 65 -65 0 -65 0 0 60 0 60
65 0 65 0 0 65 0 65 60 0 60 0 0 65 0 65 -60 0 -60 0 0 60 0 60 -65 0 -65 0 0
-60z m130 -125 l0 -65 -65 0 -65 0 0 -65 0 -65 -65 0 -65 0 0 -60 0 -60 65 0
65 0 0 -65 0 -65 -65 0 -65 0 0 -65 0 -65 65 0 65 0 0 -60 0 -60 65 0 65 0 0
-65 0 -65 60 0 60 0 0 -65 0 -65 -60 0 -60 0 0 -60 0 -60 -65 0 -65 0 0 -65 0
-65 -65 0 -65 0 0 -65 0 -65 -60 0 -60 0 0 65 0 65 60 0 60 0 0 65 0 65 -60 0
-60 0 0 60 0 60 60 0 60 0 0 65 0 65 -60 0 -60 0 0 65 0 65 -65 0 -65 0 0 60
0 60 65 0 65 0 0 65 0 65 -65 0 -65 0 0 65 0 65 65 0 65 0 0 60 0 60 60 0 60
0 0 65 0 65 65 0 65 0 0 65 0 65 65 0 65 0 0 -65z"/>
<path d="M11420 5505 l0 -65 60 0 60 0 0 65 0 65 -60 0 -60 0 0 -65z"/>
<path d="M11420 5250 l0 -60 60 0 60 0 0 -65 0 -65 65 0 65 0 0 -65 0 -65 -65
0 -65 0 0 -60 0 -60 65 0 65 0 0 60 0 60 65 0 65 0 0 65 0 65 -65 0 -65 0 0
65 0 65 -65 0 -65 0 0 60 0 60 -60 0 -60 0 0 -60z"/>
<path d="M13190 7020 l0 -60 65 0 65 0 0 60 0 60 -65 0 -65 0 0 -60z"/>
<path d="M12560 5885 l0 -65 60 0 60 0 0 -65 0 -65 65 0 65 0 0 65 0 65 65 0
65 0 0 65 0 65 -65 0 -65 0 0 -65 0 -65 -65 0 -65 0 0 65 0 65 -60 0 -60 0 0
-65z"/>
<path d="M8250 4110 l0 -60 -60 0 -60 0 0 -65 0 -65 60 0 60 0 0 65 0 65 65 0
65 0 0 60 0 60 -65 0 -65 0 0 -60z"/>
<path d="M9770 4110 l0 -60 -60 0 -60 0 0 -65 0 -65 -65 0 -65 0 0 65 0 65
-65 0 -65 0 0 -65 0 -65 -60 0 -60 0 0 65 0 65 -65 0 -65 0 0 -65 0 -65 65 0
65 0 0 -65 0 -65 -65 0 -65 0 0 -60 0 -60 -65 0 -65 0 0 60 0 60 -60 0 -60 0
0 -60 0 -60 60 0 60 0 0 -65 0 -65 -60 0 -60 0 0 -65 0 -65 60 0 60 0 0 65 0
65 65 0 65 0 0 -65 0 -65 65 0 65 0 0 65 0 65 60 0 60 0 0 -65 0 -65 65 0 65
0 0 65 0 65 65 0 65 0 0 -65 0 -65 60 0 60 0 0 65 0 65 65 0 65 0 0 65 0 65
60 0 60 0 0 -65 0 -65 65 0 65 0 0 65 0 65 65 0 65 0 0 -65 0 -65 60 0 60 0 0
65 0 65 65 0 65 0 0 60 0 60 -65 0 -65 0 0 65 0 65 -60 0 -60 0 0 65 0 65 -65
0 -65 0 0 60 0 60 -65 0 -65 0 0 -60 0 -60 -60 0 -60 0 0 60 0 60 -65 0 -65 0
0 -60z m130 -125 l0 -65 60 0 60 0 0 65 0 65 65 0 65 0 0 -65 0 -65 65 0 65 0
0 -65 0 -65 60 0 60 0 0 -60 0 -60 -60 0 -60 0 0 60 0 60 -65 0 -65 0 0 -60 0
-60 -65 0 -65 0 0 60 0 60 -60 0 -60 0 0 -60 0 -60 -65 0 -65 0 0 -65 0 -65
-60 0 -60 0 0 65 0 65 -65 0 -65 0 0 -65 0 -65 -65 0 -65 0 0 65 0 65 -60 0
-60 0 0 -65 0 -65 -65 0 -65 0 0 65 0 65 65 0 65 0 0 60 0 60 60 0 60 0 0 65
0 65 65 0 65 0 0 -65 0 -65 65 0 65 0 0 65 0 65 60 0 60 0 0 65 0 65 65 0 65
0 0 -65z"/>
<path d="M9770 3855 l0 -65 -60 0 -60 0 0 -60 0 -60 60 0 60 0 0 60 0 60 65 0
65 0 0 65 0 65 -65 0 -65 0 0 -65z"/>
<path d="M10020 3855 l0 -65 65 0 65 0 0 65 0 65 -65 0 -65 0 0 -65z"/>
<path d="M9390 3730 l0 -60 65 0 65 0 0 60 0 60 -65 0 -65 0 0 -60z"/>
<path d="M10660 3730 l0 -60 60 0 60 0 0 60 0 60 -60 0 -60 0 0 -60z"/>
</g>
</svg>
