<?xml version="1.0" standalone="no"?>
<!DOCTYPE svg PUBLIC "-//W3C//DTD SVG 20010904//EN"
 "http://www.w3.org/TR/2001/REC-SVG-20010904/DTD/svg10.dtd">
<svg version="1.0" xmlns="http://www.w3.org/2000/svg"
 width="1605.000000pt" height="1516.000000pt" viewBox="0 0 1605.000000 1516.000000"
 preserveAspectRatio="xMidYMid meet">

<g transform="translate(0.000000,1516.000000) scale(0.100000,-0.100000)"
fill="#000000" stroke="none">
<path d="M7670 14275 l0 -65 -190 0 -190 0 0 -60 0 -60 -190 0 -190 0 0 -65 0
-65 -125 0 -125 0 0 -65 0 -65 -65 0 -65 0 0 -60 0 -60 -65 0 -65 0 0 -65 0
-65 -60 0 -60 0 0 -65 0 -65 -65 0 -65 0 0 -60 0 -60 -65 0 -65 0 0 -65 0 -65
-60 0 -60 0 0 -65 0 -65 -65 0 -65 0 0 -60 0 -60 -60 0 -60 0 0 -65 0 -65 -65
0 -65 0 0 -125 0 -125 -65 0 -65 0 0 -65 0 -65 -60 0 -60 0 0 -65 0 -65 -65 0
-65 0 0 -125 0 -125 -65 0 -65 0 0 -65 0 -65 -60 0 -60 0 0 -60 0 -60 -65 0
-65 0 0 -190 0 -190 -65 0 -65 0 0 -190 0 -190 -60 0 -60 0 0 -65 0 -65 -65 0
-65 0 0 -255 0 -255 -65 0 -65 0 0 -185 0 -185 -60 0 -60 0 0 -130 0 -130 -65
0 -65 0 0 -250 0 -250 -65 0 -65 0 0 -190 0 -190 -60 0 -60 0 0 -190 0 -190
-65 0 -65 0 0 -445 0 -445 -65 0 -65 0 0 -695 0 -695 65 0 65 0 0 -65 0 -65
65 0 65 0 0 -125 0 -125 60 0 60 0 0 -125 0 -125 65 0 65 0 0 -65 0 -65 65 0
65 0 0 -65 0 -65 125 0 125 0 0 -60 0 -60 65 0 65 0 0 -65 0 -65 60 0 60 0 0
-65 0 -65 65 0 65 0 0 -60 0 -60 65 0 65 0 0 -65 0 -65 60 0 60 0 0 -65 0 -65
130 0 130 0 0 -60 0 -60 60 0 60 0 0 -65 0 -65 65 0 65 0 0 -65 0 -65 65 0 65
0 0 -60 0 -60 125 0 125 0 0 -65 0 -65 65 0 65 0 0 -65 0 -65 60 0 60 0 0 -60
0 -60 65 0 65 0 0 -65 0 -65 125 0 125 0 0 -65 0 -65 125 0 125 0 0 -60 0 -60
65 0 65 0 0 -65 0 -65 65 0 65 0 0 -65 0 -65 60 0 60 0 0 -60 0 -60 130 0 130
0 0 -65 0 -65 125 0 125 0 0 -65 0 -65 65 0 65 0 0 -60 0 -60 125 0 125 0 0
-130 0 -130 65 0 65 0 0 -60 0 -60 60 0 60 0 0 -65 0 -65 130 0 130 0 0 -65 0
-65 125 0 125 0 0 -60 0 -60 125 0 125 0 0 -65 0 -65 130 0 130 0 0 -60 0 -60
125 0 125 0 0 -65 0 -65 315 0 315 0 0 65 0 65 125 0 125 0 0 60 0 60 65 0 65
0 0 65 0 65 65 0 65 0 0 60 0 60 125 0 125 0 0 65 0 65 65 0 65 0 0 65 0 65
60 0 60 0 0 60 0 60 65 0 65 0 0 190 0 190 65 0 65 0 0 130 0 130 60 0 60 0 0
250 0 250 -125 0 -125 0 0 65 0 65 -65 0 -65 0 0 65 0 65 -60 0 -60 0 0 60 0
60 -65 0 -65 0 0 65 0 65 -65 0 -65 0 0 65 0 65 -60 0 -60 0 0 60 0 60 -65 0
-65 0 0 65 0 65 -65 0 -65 0 0 65 0 65 -125 0 -125 0 0 60 0 60 -125 0 -125 0
0 65 0 65 -65 0 -65 0 0 65 0 65 -60 0 -60 0 0 60 0 60 -65 0 -65 0 0 65 0 65
-65 0 -65 0 0 65 0 65 -60 0 -60 0 0 60 0 60 -65 0 -65 0 0 65 0 65 -65 0 -65
0 0 65 0 65 -60 0 -60 0 0 60 0 60 -65 0 -65 0 0 65 0 65 -65 0 -65 0 0 65 0
65 -60 0 -60 0 0 60 0 60 -65 0 -65 0 0 65 0 65 -65 0 -65 0 0 60 0 60 -60 0
-60 0 0 190 0 190 -65 0 -65 0 0 190 0 190 255 0 255 0 0 -60 0 -60 250 0 250
0 0 -65 0 -65 760 0 760 0 0 315 0 315 -65 0 -65 0 0 320 0 320 65 0 65 0 0
1770 0 1770 -65 0 -65 0 0 695 0 695 -60 0 -60 0 0 255 0 255 -65 0 -65 0 0
255 0 255 -125 0 -125 0 0 60 0 60 -125 0 -125 0 0 65 0 65 -1015 0 -1015 0 0
-65z m1900 -255 l0 -190 -65 0 -65 0 0 130 0 130 -125 0 -125 0 0 -65 0 -65
65 0 65 0 0 -65 0 -65 -190 0 -190 0 0 -125 0 -125 60 0 60 0 0 -65 0 -65 65
0 65 0 0 -60 0 -60 65 0 65 0 0 -65 0 -65 60 0 60 0 0 125 0 125 65 0 65 0 0
65 0 65 -125 0 -125 0 0 65 0 65 125 0 125 0 0 -65 0 -65 65 0 65 0 0 190 0
190 60 0 60 0 0 -190 0 -190 -60 0 -60 0 0 -65 0 -65 60 0 60 0 0 -60 0 -60
-125 0 -125 0 0 -65 0 -65 250 0 250 0 0 -65 0 -65 65 0 65 0 0 -60 0 -60 65
0 65 0 0 -65 0 -65 -190 0 -190 0 0 65 0 65 60 0 60 0 0 60 0 60 -250 0 -250
0 0 -60 0 -60 65 0 65 0 0 -65 0 -65 60 0 60 0 0 -65 0 -65 65 0 65 0 0 -60 0
-60 -65 0 -65 0 0 -65 0 -65 65 0 65 0 0 -65 0 -65 -65 0 -65 0 0 -60 0 -60
65 0 65 0 0 -65 0 -65 60 0 60 0 0 -65 0 -65 65 0 65 0 0 -60 0 -60 65 0 65 0
0 -65 0 -65 -65 0 -65 0 0 65 0 65 -65 0 -65 0 0 -65 0 -65 -60 0 -60 0 0 -65
0 -65 -65 0 -65 0 0 -60 0 -60 65 0 65 0 0 -65 0 -65 -65 0 -65 0 0 -65 0 -65
-60 0 -60 0 0 -60 0 -60 60 0 60 0 0 -65 0 -65 65 0 65 0 0 -65 0 -65 125 0
125 0 0 -60 0 -60 -125 0 -125 0 0 -65 0 -65 60 0 60 0 0 -65 0 -65 -60 0 -60
0 0 -60 0 -60 60 0 60 0 0 -65 0 -65 -60 0 -60 0 0 -60 0 -60 65 0 65 0 0
-255 0 -255 -130 0 -130 0 0 -65 0 -65 -60 0 -60 0 0 65 0 65 -65 0 -65 0 0
-190 0 -190 65 0 65 0 0 -65 0 -65 -65 0 -65 0 0 -60 0 -60 -65 0 -65 0 0 -65
0 -65 65 0 65 0 0 -65 0 -65 65 0 65 0 0 -60 0 -60 -65 0 -65 0 0 -65 0 -65
-65 0 -65 0 0 -65 0 -65 65 0 65 0 0 -60 0 -60 -65 0 -65 0 0 -65 0 -65 65 0
65 0 0 -65 0 -65 -65 0 -65 0 0 -125 0 -125 -60 0 -60 0 0 125 0 125 60 0 60
0 0 65 0 65 -125 0 -125 0 0 -125 0 -125 -65 0 -65 0 0 -65 0 -65 65 0 65 0 0
-65 0 -65 65 0 65 0 0 -60 0 -60 -190 0 -190 0 0 -130 0 -130 -65 0 -65 0 0
130 0 130 65 0 65 0 0 60 0 60 60 0 60 0 0 65 0 65 -125 0 -125 0 0 65 0 65
125 0 125 0 0 190 0 190 -60 0 -60 0 0 -65 0 -65 -65 0 -65 0 0 380 0 380 65
0 65 0 0 125 0 125 60 0 60 0 0 130 0 130 65 0 65 0 0 190 0 190 65 0 65 0 0
60 0 60 -65 0 -65 0 0 380 0 380 -65 0 -65 0 0 -65 0 -65 -60 0 -60 0 0 -125
0 -125 -130 0 -130 0 0 65 0 65 -60 0 -60 0 0 -65 0 -65 -65 0 -65 0 0 -60 0
-60 190 0 190 0 0 -65 0 -65 65 0 65 0 0 -190 0 -190 -65 0 -65 0 0 65 0 65
-65 0 -65 0 0 -190 0 -190 -60 0 -60 0 0 190 0 190 60 0 60 0 0 60 0 60 65 0
65 0 0 65 0 65 -190 0 -190 0 0 -190 0 -190 -65 0 -65 0 0 190 0 190 -60 0
-60 0 0 -65 0 -65 -65 0 -65 0 0 65 0 65 -190 0 -190 0 0 -65 0 -65 125 0 125
0 0 -60 0 -60 65 0 65 0 0 -65 0 -65 -125 0 -125 0 0 -65 0 -65 -65 0 -65 0 0
-60 0 -60 125 0 125 0 0 60 0 60 190 0 190 0 0 -60 0 -60 65 0 65 0 0 -65 0
-65 65 0 65 0 0 -65 0 -65 -190 0 -190 0 0 -190 0 -190 -65 0 -65 0 0 -60 0
-60 65 0 65 0 0 -65 0 -65 60 0 60 0 0 -65 0 -65 -190 0 -190 0 0 -190 0 -190
-60 0 -60 0 0 190 0 190 60 0 60 0 0 65 0 65 65 0 65 0 0 65 0 65 -190 0 -190
0 0 -190 0 -190 -65 0 -65 0 0 190 0 190 65 0 65 0 0 60 0 60 190 0 190 0 0
190 0 190 65 0 65 0 0 65 0 65 60 0 60 0 0 65 0 65 -190 0 -190 0 0 -130 0
-130 -60 0 -60 0 0 65 0 65 -130 0 -130 0 0 -65 0 -65 65 0 65 0 0 -60 0 -60
65 0 65 0 0 -65 0 -65 -190 0 -190 0 0 -190 0 -190 -65 0 -65 0 0 190 0 190
65 0 65 0 0 65 0 65 60 0 60 0 0 60 0 60 -125 0 -125 0 0 65 0 65 -65 0 -65 0
0 -65 0 -65 -60 0 -60 0 0 -60 0 -60 60 0 60 0 0 -130 0 -130 -60 0 -60 0 0
130 0 130 -65 0 -65 0 0 -65 0 -65 -65 0 -65 0 0 -65 0 -65 65 0 65 0 0 -60 0
-60 65 0 65 0 0 -65 0 -65 60 0 60 0 0 -65 0 -65 65 0 65 0 0 -60 0 -60 -190
0 -190 0 0 -65 0 -65 65 0 65 0 0 -65 0 -65 60 0 60 0 0 65 0 65 190 0 190 0
0 -65 0 -65 65 0 65 0 0 -60 0 -60 65 0 65 0 0 -65 0 -65 -190 0 -190 0 0 -65
0 -65 -65 0 -65 0 0 65 0 65 65 0 65 0 0 65 0 65 60 0 60 0 0 60 0 60 -190 0
-190 0 0 -60 0 -60 -60 0 -60 0 0 -65 0 -65 60 0 60 0 0 -65 0 -65 -60 0 -60
0 0 -60 0 -60 60 0 60 0 0 -65 0 -65 -60 0 -60 0 0 65 0 65 -65 0 -65 0 0 -65
0 -65 -65 0 -65 0 0 -65 0 -65 65 0 65 0 0 -60 0 -60 65 0 65 0 0 60 0 60 60
0 60 0 0 -60 0 -60 -60 0 -60 0 0 -65 0 -65 -65 0 -65 0 0 -65 0 -65 65 0 65
0 0 -60 0 -60 -65 0 -65 0 0 -65 0 -65 65 0 65 0 0 -65 0 -65 60 0 60 0 0 190
0 190 65 0 65 0 0 65 0 65 65 0 65 0 0 65 0 65 -65 0 -65 0 0 60 0 60 65 0 65
0 0 -60 0 -60 60 0 60 0 0 190 0 190 65 0 65 0 0 60 0 60 125 0 125 0 0 -60 0
-60 -125 0 -125 0 0 -190 0 -190 -65 0 -65 0 0 -130 0 -130 -125 0 -125 0 0
-190 0 -190 -65 0 -65 0 0 -60 0 -60 -60 0 -60 0 0 -65 0 -65 60 0 60 0 0 -60
0 -60 65 0 65 0 0 60 0 60 65 0 65 0 0 -60 0 -60 60 0 60 0 0 -65 0 -65 65 0
65 0 0 -65 0 -65 -65 0 -65 0 0 65 0 65 -60 0 -60 0 0 -65 0 -65 -65 0 -65 0
0 -60 0 -60 65 0 65 0 0 -65 0 -65 60 0 60 0 0 65 0 65 190 0 190 0 0 -65 0
-65 65 0 65 0 0 -65 0 -65 65 0 65 0 0 -60 0 -60 -190 0 -190 0 0 -65 0 -65
-65 0 -65 0 0 65 0 65 65 0 65 0 0 60 0 60 60 0 60 0 0 65 0 65 -190 0 -190 0
0 -65 0 -65 -60 0 -60 0 0 -60 0 -60 60 0 60 0 0 -65 0 -65 -60 0 -60 0 0 -65
0 -65 60 0 60 0 0 -60 0 -60 65 0 65 0 0 60 0 60 65 0 65 0 0 -60 0 -60 -65 0
-65 0 0 -65 0 -65 65 0 65 0 0 -125 0 -125 125 0 125 0 0 -65 0 -65 65 0 65 0
0 190 0 190 60 0 60 0 0 65 0 65 65 0 65 0 0 60 0 60 -190 0 -190 0 0 -60 0
-60 -65 0 -65 0 0 60 0 60 65 0 65 0 0 65 0 65 190 0 190 0 0 -65 0 -65 65 0
65 0 0 -60 0 -60 60 0 60 0 0 -65 0 -65 -190 0 -190 0 0 -190 0 -190 -60 0
-60 0 0 -125 0 -125 125 0 125 0 0 190 0 190 65 0 65 0 0 60 0 60 190 0 190 0
0 -60 0 -60 60 0 60 0 0 -65 0 -65 65 0 65 0 0 -65 0 -65 -190 0 -190 0 0
-190 0 -190 -65 0 -65 0 0 -60 0 -60 65 0 65 0 0 -65 0 -65 65 0 65 0 0 190 0
190 60 0 60 0 0 65 0 65 190 0 190 0 0 -65 0 -65 65 0 65 0 0 -65 0 -65 65 0
65 0 0 -60 0 -60 -190 0 -190 0 0 -190 0 -190 -65 0 -65 0 0 -65 0 -65 65 0
65 0 0 -65 0 -65 60 0 60 0 0 65 0 65 65 0 65 0 0 -65 0 -65 65 0 65 0 0 65 0
65 60 0 60 0 0 65 0 65 65 0 65 0 0 60 0 60 -190 0 -190 0 0 -60 0 -60 -65 0
-65 0 0 60 0 60 65 0 65 0 0 65 0 65 190 0 190 0 0 -65 0 -65 65 0 65 0 0 -60
0 -60 60 0 60 0 0 -65 0 -65 -60 0 -60 0 0 65 0 65 -65 0 -65 0 0 -65 0 -65
-65 0 -65 0 0 -65 0 -65 -60 0 -60 0 0 -60 0 -60 60 0 60 0 0 -65 0 -65 65 0
65 0 0 65 0 65 65 0 65 0 0 60 0 60 60 0 60 0 0 -60 0 -60 -60 0 -60 0 0 -65
0 -65 -65 0 -65 0 0 -65 0 -65 65 0 65 0 0 -60 0 -60 -65 0 -65 0 0 -65 0 -65
-65 0 -65 0 0 -65 0 -65 65 0 65 0 0 -60 0 -60 -65 0 -65 0 0 60 0 60 -60 0
-60 0 0 -60 0 -60 -65 0 -65 0 0 60 0 60 -65 0 -65 0 0 -60 0 -60 -60 0 -60 0
0 60 0 60 -65 0 -65 0 0 -190 0 -190 -65 0 -65 0 0 65 0 65 -125 0 -125 0 0
65 0 65 -125 0 -125 0 0 60 0 60 -65 0 -65 0 0 65 0 65 -65 0 -65 0 0 190 0
190 -60 0 -60 0 0 -65 0 -65 -65 0 -65 0 0 65 0 65 -65 0 -65 0 0 65 0 65
-125 0 -125 0 0 60 0 60 -65 0 -65 0 0 65 0 65 -125 0 -125 0 0 65 0 65 -65 0
-65 0 0 60 0 60 -60 0 -60 0 0 65 0 65 -130 0 -130 0 0 65 0 65 -60 0 -60 0 0
60 0 60 -65 0 -65 0 0 65 0 65 -65 0 -65 0 0 65 0 65 -125 0 -125 0 0 60 0 60
-125 0 -125 0 0 65 0 65 -65 0 -65 0 0 65 0 65 -60 0 -60 0 0 60 0 60 -65 0
-65 0 0 65 0 65 -65 0 -65 0 0 65 0 65 -125 0 -125 0 0 60 0 60 -65 0 -65 0 0
65 0 65 -60 0 -60 0 0 65 0 65 -65 0 -65 0 0 60 0 60 -65 0 -65 0 0 65 0 65
-125 0 -125 0 0 65 0 65 -65 0 -65 0 0 60 0 60 -60 0 -60 0 0 130 0 130 -65 0
-65 0 0 125 0 125 -65 0 -65 0 0 60 0 60 -60 0 -60 0 0 510 0 510 60 0 60 0 0
440 0 440 65 0 65 0 0 255 0 255 65 0 65 0 0 190 0 190 60 0 60 0 0 190 0 190
65 0 65 0 0 190 0 190 65 0 65 0 0 190 0 190 60 0 60 0 0 250 0 250 65 0 65 0
0 65 0 65 65 0 65 0 0 190 0 190 60 0 60 0 0 125 0 125 65 0 65 0 0 65 0 65
65 0 65 0 0 125 0 125 60 0 60 0 0 65 0 65 65 0 65 0 0 125 0 125 65 0 65 0 0
130 0 130 60 0 60 0 0 60 0 60 65 0 65 0 0 65 0 65 60 0 60 0 0 65 0 65 65 0
65 0 0 60 0 60 65 0 65 0 0 65 0 65 60 0 60 0 0 65 0 65 65 0 65 0 0 60 0 60
65 0 65 0 0 65 0 65 60 0 60 0 0 65 0 65 130 0 130 0 0 60 0 60 190 0 190 0 0
65 0 65 190 0 190 0 0 65 0 65 125 0 125 0 0 60 0 60 760 0 760 0 0 -190z
m500 -500 l0 -190 -60 0 -60 0 0 190 0 190 60 0 60 0 0 -190z m260 -890 l0
-60 -65 0 -65 0 0 -190 0 -190 -65 0 -65 0 0 190 0 190 65 0 65 0 0 60 0 60
65 0 65 0 0 -60z m120 -1140 l0 -60 -125 0 -125 0 0 -190 0 -190 -65 0 -65 0
0 190 0 190 65 0 65 0 0 60 0 60 125 0 125 0 0 -60z m0 -570 l0 -250 -60 0
-60 0 0 250 0 250 60 0 60 0 0 -250z m0 -445 l0 -65 -125 0 -125 0 0 65 0 65
125 0 125 0 0 -65z m0 -250 l0 -65 -60 0 -60 0 0 65 0 65 60 0 60 0 0 -65z
m-120 -315 l0 -130 -65 0 -65 0 0 130 0 130 65 0 65 0 0 -130z m120 -445 l0
-65 -125 0 -125 0 0 65 0 65 125 0 125 0 0 -65z m-370 -315 l0 -130 -65 0 -65
0 0 -60 0 -60 65 0 65 0 0 -65 0 -65 -130 0 -130 0 0 125 0 125 65 0 65 0 0
130 0 130 65 0 65 0 0 -130z m370 65 l0 -65 -60 0 -60 0 0 -190 0 -190 -65 0
-65 0 0 190 0 190 65 0 65 0 0 65 0 65 60 0 60 0 0 -65z m-1890 -380 l0 -65
-65 0 -65 0 0 -125 0 -125 -65 0 -65 0 0 125 0 125 65 0 65 0 0 65 0 65 65 0
65 0 0 -65z m1770 -255 l0 -60 60 0 60 0 0 -65 0 -65 -60 0 -60 0 0 -65 0 -65
-65 0 -65 0 0 -190 0 -190 -60 0 -60 0 0 190 0 190 60 0 60 0 0 65 0 65 65 0
65 0 0 65 0 65 -190 0 -190 0 0 -190 0 -190 -65 0 -65 0 0 190 0 190 65 0 65
0 0 60 0 60 190 0 190 0 0 -60z m-1650 -380 l0 -60 -60 0 -60 0 0 60 0 60 60
0 60 0 0 -60z m-500 -255 l0 -65 -65 0 -65 0 0 65 0 65 65 0 65 0 0 -65z m500
-60 l0 -125 -125 0 -125 0 0 -190 0 -190 -65 0 -65 0 0 190 0 190 65 0 65 0 0
60 0 60 65 0 65 0 0 65 0 65 60 0 60 0 0 -125z m1140 60 l0 -65 65 0 65 0 0
-60 0 -60 65 0 65 0 0 -65 0 -65 -190 0 -190 0 0 -190 0 -190 -65 0 -65 0 0
-65 0 -65 65 0 65 0 0 -60 0 -60 -65 0 -65 0 0 60 0 60 -190 0 -190 0 0 65 0
65 190 0 190 0 0 190 0 190 65 0 65 0 0 65 0 65 60 0 60 0 0 60 0 60 -60 0
-60 0 0 65 0 65 60 0 60 0 0 -65z m-1140 -570 l0 -125 -60 0 -60 0 0 125 0
125 60 0 60 0 0 -125z m1650 65 l0 -60 60 0 60 0 0 -130 0 -130 -125 0 -125 0
0 -60 0 -60 -60 0 -60 0 0 60 0 60 60 0 60 0 0 65 0 65 65 0 65 0 0 65 0 65
-190 0 -190 0 0 -130 0 -130 -65 0 -65 0 0 130 0 130 65 0 65 0 0 60 0 60 190
0 190 0 0 -60z m-2910 -125 l0 -65 -65 0 -65 0 0 65 0 65 65 0 65 0 0 -65z
m380 -635 l0 -60 -65 0 -65 0 0 60 0 60 65 0 65 0 0 -60z m-260 -315 l0 -125
-60 0 -60 0 0 125 0 125 60 0 60 0 0 -125z m380 60 l0 -65 65 0 65 0 0 -125 0
-125 125 0 125 0 0 -60 0 -60 65 0 65 0 0 -65 0 -65 -65 0 -65 0 0 -190 0
-190 -60 0 -60 0 0 190 0 190 60 0 60 0 0 65 0 65 -125 0 -125 0 0 -130 0
-130 -65 0 -65 0 0 315 0 315 -60 0 -60 0 0 -185 0 -185 -65 0 -65 0 0 185 0
185 65 0 65 0 0 65 0 65 60 0 60 0 0 -65z m760 -755 l0 -60 -60 0 -60 0 0
-190 0 -190 -65 0 -65 0 0 190 0 190 65 0 65 0 0 60 0 60 60 0 60 0 0 -60z
m260 -255 l0 -65 -65 0 -65 0 0 -190 0 -190 -65 0 -65 0 0 190 0 190 65 0 65
0 0 65 0 65 65 0 65 0 0 -65z m250 -250 l0 -65 -65 0 -65 0 0 -190 0 -190 -60
0 -60 0 0 190 0 190 60 0 60 0 0 65 0 65 65 0 65 0 0 -65z m250 -255 l0 -60
-60 0 -60 0 0 -190 0 -190 -65 0 -65 0 0 190 0 190 65 0 65 0 0 60 0 60 60 0
60 0 0 -60z m-1390 -255 l0 -65 -65 0 -65 0 0 65 0 65 65 0 65 0 0 -65z m1650
0 l0 -65 -65 0 -65 0 0 -190 0 -190 -65 0 -65 0 0 190 0 190 65 0 65 0 0 65 0
65 65 0 65 0 0 -65z m380 -250 l0 -65 -130 0 -130 0 0 -190 0 -190 -60 0 -60
0 0 190 0 190 60 0 60 0 0 65 0 65 130 0 130 0 0 -65z m370 -255 l0 -60 65 0
65 0 0 -65 0 -65 65 0 65 0 0 -65 0 -65 60 0 60 0 0 -60 0 -60 65 0 65 0 0
-65 0 -65 65 0 65 0 0 -65 0 -65 60 0 60 0 0 -60 0 -60 130 0 130 0 0 -130 0
-130 -190 0 -190 0 0 65 0 65 60 0 60 0 0 65 0 65 -190 0 -190 0 0 60 0 60 65
0 65 0 0 65 0 65 -190 0 -190 0 0 -125 0 -125 -65 0 -65 0 0 125 0 125 65 0
65 0 0 65 0 65 65 0 65 0 0 60 0 60 -190 0 -190 0 0 -190 0 -190 -65 0 -65 0
0 190 0 190 65 0 65 0 0 65 0 65 60 0 60 0 0 65 0 65 -185 0 -185 0 0 -190 0
-190 -65 0 -65 0 0 190 0 190 65 0 65 0 0 60 0 60 185 0 185 0 0 -60z m380
-1015 l0 -65 -60 0 -60 0 0 65 0 65 60 0 60 0 0 -65z m-380 -125 l0 -60 65 0
65 0 0 -65 0 -65 65 0 65 0 0 -65 0 -65 -65 0 -65 0 0 65 0 65 -65 0 -65 0 0
-65 0 -65 -60 0 -60 0 0 -60 0 -60 -65 0 -65 0 0 60 0 60 65 0 65 0 0 65 0 65
60 0 60 0 0 65 0 65 -60 0 -60 0 0 60 0 60 60 0 60 0 0 -60z m640 -190 l0
-130 -65 0 -65 0 0 130 0 130 65 0 65 0 0 -130z m-130 -315 l0 -65 65 0 65 0
0 -65 0 -65 -65 0 -65 0 0 -60 0 -60 -65 0 -65 0 0 -65 0 -65 -60 0 -60 0 0
65 0 65 60 0 60 0 0 60 0 60 65 0 65 0 0 65 0 65 -190 0 -190 0 0 -190 0 -190
-65 0 -65 0 0 190 0 190 65 0 65 0 0 65 0 65 190 0 190 0 0 -65z m-630 -130
l0 -65 -65 0 -65 0 0 65 0 65 65 0 65 0 0 -65z m-630 -440 l0 -125 -65 0 -65
0 0 125 0 125 65 0 65 0 0 -125z m500 60 l0 -65 -60 0 -60 0 0 65 0 65 60 0
60 0 0 -65z m-760 -125 l0 -60 -60 0 -60 0 0 60 0 60 60 0 60 0 0 -60z m1010
0 l0 -60 -60 0 -60 0 0 -65 0 -65 -125 0 -125 0 0 -60 0 -60 -130 0 -130 0 0
125 0 125 65 0 65 0 0 -65 0 -65 65 0 65 0 0 65 0 65 125 0 125 0 0 60 0 60
60 0 60 0 0 -60z"/>
<path d="M8940 14025 l0 -65 -130 0 -130 0 0 -125 0 -125 -60 0 -60 0 0 125 0
125 -65 0 -65 0 0 -65 0 -65 -65 0 -65 0 0 -60 0 -60 -190 0 -190 0 0 -190 0
-190 -60 0 -60 0 0 190 0 190 -65 0 -65 0 0 -130 0 -130 -65 0 -65 0 0 -60 0
-60 65 0 65 0 0 -65 0 -65 -190 0 -190 0 0 -125 0 -125 -65 0 -65 0 0 60 0 60
-60 0 -60 0 0 -60 0 -60 -65 0 -65 0 0 -65 0 -65 -65 0 -65 0 0 65 0 65 -60 0
-60 0 0 -65 0 -65 -65 0 -65 0 0 -65 0 -65 -65 0 -65 0 0 -60 0 -60 -60 0 -60
0 0 -65 0 -65 -65 0 -65 0 0 -65 0 -65 65 0 65 0 0 -60 0 -60 -65 0 -65 0 0
-65 0 -65 -65 0 -65 0 0 -65 0 -65 -60 0 -60 0 0 -60 0 -60 -65 0 -65 0 0 -65
0 -65 -60 0 -60 0 0 -65 0 -65 60 0 60 0 0 -60 0 -60 -60 0 -60 0 0 -65 0 -65
-65 0 -65 0 0 -65 0 -65 -65 0 -65 0 0 -60 0 -60 65 0 65 0 0 -65 0 -65 -65 0
-65 0 0 -65 0 -65 -60 0 -60 0 0 -60 0 -60 60 0 60 0 0 -65 0 -65 -60 0 -60 0
0 -65 0 -65 -65 0 -65 0 0 -60 0 -60 65 0 65 0 0 -65 0 -65 -65 0 -65 0 0 -60
0 -60 -65 0 -65 0 0 -65 0 -65 65 0 65 0 0 -65 0 -65 -65 0 -65 0 0 -60 0 -60
-60 0 -60 0 0 -65 0 -65 60 0 60 0 0 -65 0 -65 -60 0 -60 0 0 -60 0 -60 60 0
60 0 0 -65 0 -65 -60 0 -60 0 0 -65 0 -65 -65 0 -65 0 0 -60 0 -60 -65 0 -65
0 0 -65 0 -65 -60 0 -60 0 0 -65 0 -65 60 0 60 0 0 -60 0 -60 -60 0 -60 0 0
-65 0 -65 60 0 60 0 0 -65 0 -65 -60 0 -60 0 0 -60 0 -60 -65 0 -65 0 0 -65 0
-65 65 0 65 0 0 -65 0 -65 -65 0 -65 0 0 -60 0 -60 65 0 65 0 0 -65 0 -65 -65
0 -65 0 0 -65 0 -65 65 0 65 0 0 -60 0 -60 -65 0 -65 0 0 -65 0 -65 65 0 65 0
0 -65 0 -65 -65 0 -65 0 0 -60 0 -60 65 0 65 0 0 -65 0 -65 -65 0 -65 0 0 -65
0 -65 65 0 65 0 0 -60 0 -60 60 0 60 0 0 -65 0 -65 -60 0 -60 0 0 -65 0 -65
60 0 60 0 0 -60 0 -60 65 0 65 0 0 -65 0 -65 65 0 65 0 0 65 0 65 60 0 60 0 0
-65 0 -65 65 0 65 0 0 65 0 65 65 0 65 0 0 60 0 60 -65 0 -65 0 0 65 0 65 -65
0 -65 0 0 65 0 65 65 0 65 0 0 60 0 60 -65 0 -65 0 0 65 0 65 65 0 65 0 0 65
0 65 -65 0 -65 0 0 60 0 60 65 0 65 0 0 65 0 65 -65 0 -65 0 0 65 0 65 65 0
65 0 0 60 0 60 -65 0 -65 0 0 65 0 65 65 0 65 0 0 65 0 65 -65 0 -65 0 0 60 0
60 65 0 65 0 0 65 0 65 -65 0 -65 0 0 65 0 65 65 0 65 0 0 60 0 60 -65 0 -65
0 0 65 0 65 65 0 65 0 0 65 0 65 -65 0 -65 0 0 60 0 60 65 0 65 0 0 65 0 65
-65 0 -65 0 0 65 0 65 65 0 65 0 0 60 0 60 65 0 65 0 0 65 0 65 -65 0 -65 0 0
65 0 65 65 0 65 0 0 60 0 60 60 0 60 0 0 65 0 65 -60 0 -60 0 0 65 0 65 60 0
60 0 0 60 0 60 65 0 65 0 0 65 0 65 -65 0 -65 0 0 65 0 65 65 0 65 0 0 60 0
60 65 0 65 0 0 65 0 65 60 0 60 0 0 60 0 60 65 0 65 0 0 65 0 65 -65 0 -65 0
0 65 0 65 65 0 65 0 0 60 0 60 60 0 60 0 0 65 0 65 -60 0 -60 0 0 65 0 65 60
0 60 0 0 60 0 60 65 0 65 0 0 65 0 65 65 0 65 0 0 65 0 65 60 0 60 0 0 60 0
60 65 0 65 0 0 65 0 65 -65 0 -65 0 0 65 0 65 65 0 65 0 0 60 0 60 65 0 65 0
0 65 0 65 60 0 60 0 0 65 0 65 65 0 65 0 0 60 0 60 65 0 65 0 0 65 0 65 60 0
60 0 0 65 0 65 -60 0 -60 0 0 60 0 60 125 0 125 0 0 130 0 130 65 0 65 0 0 60
0 60 315 0 315 0 0 65 0 65 65 0 65 0 0 -65 0 -65 60 0 60 0 0 -60 0 -60 65 0
65 0 0 60 0 60 65 0 65 0 0 -60 0 -60 60 0 60 0 0 60 0 60 65 0 65 0 0 -60 0
-60 65 0 65 0 0 -65 0 -65 -65 0 -65 0 0 -65 0 -65 65 0 65 0 0 -60 0 -60 -65
0 -65 0 0 -65 0 -65 65 0 65 0 0 -65 0 -65 -65 0 -65 0 0 -60 0 -60 65 0 65 0
0 -65 0 -65 60 0 60 0 0 -65 0 -65 -60 0 -60 0 0 -60 0 -60 60 0 60 0 0 60 0
60 65 0 65 0 0 -60 0 -60 65 0 65 0 0 -65 0 -65 -65 0 -65 0 0 -65 0 -65 65 0
65 0 0 -60 0 -60 -65 0 -65 0 0 -65 0 -65 65 0 65 0 0 -65 0 -65 60 0 60 0 0
-60 0 -60 -60 0 -60 0 0 -65 0 -65 60 0 60 0 0 -65 0 -65 -60 0 -60 0 0 -60 0
-60 60 0 60 0 0 -65 0 -65 65 0 65 0 0 -65 0 -65 65 0 65 0 0 -60 0 -60 60 0
60 0 0 -65 0 -65 -60 0 -60 0 0 -60 0 -60 60 0 60 0 0 -65 0 -65 -60 0 -60 0
0 -190 0 -190 60 0 60 0 0 65 0 65 65 0 65 0 0 60 0 60 -65 0 -65 0 0 65 0 65
65 0 65 0 0 65 0 65 -65 0 -65 0 0 60 0 60 65 0 65 0 0 65 0 65 -65 0 -65 0 0
60 0 60 65 0 65 0 0 65 0 65 -65 0 -65 0 0 65 0 65 65 0 65 0 0 60 0 60 -65 0
-65 0 0 65 0 65 -60 0 -60 0 0 65 0 65 -65 0 -65 0 0 60 0 60 65 0 65 0 0 65
0 65 60 0 60 0 0 65 0 65 -60 0 -60 0 0 60 0 60 60 0 60 0 0 65 0 65 65 0 65
0 0 65 0 65 60 0 60 0 0 60 0 60 -60 0 -60 0 0 65 0 65 -65 0 -65 0 0 65 0 65
-60 0 -60 0 0 60 0 60 60 0 60 0 0 65 0 65 -60 0 -60 0 0 65 0 65 60 0 60 0 0
60 0 60 -60 0 -60 0 0 65 0 65 -65 0 -65 0 0 65 0 65 -65 0 -65 0 0 60 0 60
65 0 65 0 0 65 0 65 -65 0 -65 0 0 -65 0 -65 -60 0 -60 0 0 65 0 65 -65 0 -65
0 0 65 0 65 -65 0 -65 0 0 60 0 60 -60 0 -60 0 0 65 0 65 -65 0 -65 0 0 125 0
125 65 0 65 0 0 65 0 65 60 0 60 0 0 65 0 65 -60 0 -60 0 0 -65z m-640 -510
l0 -65 -60 0 -60 0 0 -60 0 -60 -65 0 -65 0 0 60 0 60 65 0 65 0 0 65 0 65 60
0 60 0 0 -65z m260 0 l0 -65 60 0 60 0 0 65 0 65 65 0 65 0 0 -65 0 -65 65 0
65 0 0 -60 0 -60 60 0 60 0 0 -65 0 -65 65 0 65 0 0 -65 0 -65 65 0 65 0 0
-60 0 -60 60 0 60 0 0 -65 0 -65 65 0 65 0 0 -65 0 -65 65 0 65 0 0 -60 0 -60
-65 0 -65 0 0 -65 0 -65 65 0 65 0 0 -65 0 -65 -65 0 -65 0 0 -60 0 -60 65 0
65 0 0 -65 0 -65 60 0 60 0 0 -65 0 -65 65 0 65 0 0 -60 0 -60 -65 0 -65 0 0
-65 0 -65 -60 0 -60 0 0 -65 0 -65 -65 0 -65 0 0 -60 0 -60 65 0 65 0 0 -65 0
-65 -65 0 -65 0 0 -65 0 -65 -65 0 -65 0 0 65 0 65 -60 0 -60 0 0 65 0 65 60
0 60 0 0 60 0 60 -60 0 -60 0 0 65 0 65 60 0 60 0 0 65 0 65 -60 0 -60 0 0 60
0 60 -65 0 -65 0 0 65 0 65 -65 0 -65 0 0 65 0 65 -60 0 -60 0 0 60 0 60 60 0
60 0 0 65 0 65 -60 0 -60 0 0 65 0 65 60 0 60 0 0 60 0 60 -60 0 -60 0 0 65 0
65 60 0 60 0 0 65 0 65 -60 0 -60 0 0 60 0 60 -65 0 -65 0 0 65 0 65 -65 0
-65 0 0 -65 0 -65 -60 0 -60 0 0 65 0 65 -65 0 -65 0 0 -65 0 -65 -65 0 -65 0
0 65 0 65 65 0 65 0 0 65 0 65 65 0 65 0 0 60 0 60 -65 0 -65 0 0 65 0 65 65
0 65 0 0 -65z m-1400 -630 l0 -65 -60 0 -60 0 0 -65 0 -65 -65 0 -65 0 0 -60
0 -60 65 0 65 0 0 -65 0 -65 -65 0 -65 0 0 -65 0 -65 -65 0 -65 0 0 -60 0 -60
-60 0 -60 0 0 -65 0 -65 -65 0 -65 0 0 -65 0 -65 -65 0 -65 0 0 -60 0 -60 -60
0 -60 0 0 -65 0 -65 60 0 60 0 0 -65 0 -65 -60 0 -60 0 0 -60 0 -60 -65 0 -65
0 0 -65 0 -65 -65 0 -65 0 0 -65 0 -65 -60 0 -60 0 0 -60 0 -60 -65 0 -65 0 0
-65 0 -65 65 0 65 0 0 -65 0 -65 -65 0 -65 0 0 -60 0 -60 -60 0 -60 0 0 -65 0
-65 60 0 60 0 0 -65 0 -65 -60 0 -60 0 0 -60 0 -60 -65 0 -65 0 0 -65 0 -65
-65 0 -65 0 0 -60 0 -60 -60 0 -60 0 0 -65 0 -65 60 0 60 0 0 -65 0 -65 -60 0
-60 0 0 -60 0 -60 -65 0 -65 0 0 -65 0 -65 65 0 65 0 0 -65 0 -65 -65 0 -65 0
0 -60 0 -60 -65 0 -65 0 0 60 0 60 65 0 65 0 0 65 0 65 -65 0 -65 0 0 65 0 65
65 0 65 0 0 60 0 60 65 0 65 0 0 65 0 65 -65 0 -65 0 0 65 0 65 65 0 65 0 0
60 0 60 60 0 60 0 0 65 0 65 -60 0 -60 0 0 60 0 60 60 0 60 0 0 65 0 65 65 0
65 0 0 65 0 65 -65 0 -65 0 0 60 0 60 65 0 65 0 0 65 0 65 65 0 65 0 0 65 0
65 -65 0 -65 0 0 60 0 60 65 0 65 0 0 65 0 65 60 0 60 0 0 65 0 65 65 0 65 0
0 60 0 60 -65 0 -65 0 0 65 0 65 65 0 65 0 0 65 0 65 60 0 60 0 0 60 0 60 65
0 65 0 0 65 0 65 65 0 65 0 0 65 0 65 60 0 60 0 0 60 0 60 -60 0 -60 0 0 65 0
65 60 0 60 0 0 65 0 65 65 0 65 0 0 60 0 60 65 0 65 0 0 65 0 65 60 0 60 0 0
-65 0 -65 65 0 65 0 0 65 0 65 65 0 65 0 0 65 0 65 60 0 60 0 0 -65z m2410
-1900 l0 -65 65 0 65 0 0 -65 0 -65 60 0 60 0 0 -60 0 -60 -60 0 -60 0 0 -65
0 -65 60 0 60 0 0 -65 0 -65 -60 0 -60 0 0 65 0 65 -65 0 -65 0 0 65 0 65 -65
0 -65 0 0 60 0 60 65 0 65 0 0 65 0 65 -65 0 -65 0 0 65 0 65 65 0 65 0 0 -65z
m-4430 -1900 l0 -65 -65 0 -65 0 0 -60 0 -60 -60 0 -60 0 0 -65 0 -65 60 0 60
0 0 -65 0 -65 -60 0 -60 0 0 -60 0 -60 60 0 60 0 0 -65 0 -65 -60 0 -60 0 0
-65 0 -65 60 0 60 0 0 -60 0 -60 -60 0 -60 0 0 -65 0 -65 60 0 60 0 0 -65 0
-65 -60 0 -60 0 0 -60 0 -60 60 0 60 0 0 -65 0 -65 -60 0 -60 0 0 -65 0 -65
60 0 60 0 0 -60 0 -60 -60 0 -60 0 0 -65 0 -65 60 0 60 0 0 -65 0 -65 -60 0
-60 0 0 -60 0 -60 60 0 60 0 0 -65 0 -65 -60 0 -60 0 0 -65 0 -65 60 0 60 0 0
-60 0 -60 -60 0 -60 0 0 -65 0 -65 60 0 60 0 0 -65 0 -65 65 0 65 0 0 -60 0
-60 -65 0 -65 0 0 60 0 60 -60 0 -60 0 0 -60 0 -60 -65 0 -65 0 0 60 0 60 -65
0 -65 0 0 65 0 65 65 0 65 0 0 65 0 65 -65 0 -65 0 0 60 0 60 -60 0 -60 0 0
65 0 65 60 0 60 0 0 65 0 65 -60 0 -60 0 0 60 0 60 60 0 60 0 0 65 0 65 -60 0
-60 0 0 65 0 65 60 0 60 0 0 60 0 60 -60 0 -60 0 0 65 0 65 60 0 60 0 0 65 0
65 -60 0 -60 0 0 60 0 60 60 0 60 0 0 65 0 65 -60 0 -60 0 0 65 0 65 60 0 60
0 0 60 0 60 65 0 65 0 0 65 0 65 -65 0 -65 0 0 65 0 65 65 0 65 0 0 60 0 60
-65 0 -65 0 0 65 0 65 65 0 65 0 0 65 0 65 65 0 65 0 0 60 0 60 60 0 60 0 0
65 0 65 65 0 65 0 0 -65z"/>
<path d="M8680 13390 l0 -60 -60 0 -60 0 0 -65 0 -65 60 0 60 0 0 65 0 65 65
0 65 0 0 -65 0 -65 65 0 65 0 0 -65 0 -65 60 0 60 0 0 -60 0 -60 65 0 65 0 0
-65 0 -65 -65 0 -65 0 0 -65 0 -65 65 0 65 0 0 -60 0 -60 -65 0 -65 0 0 -65 0
-65 65 0 65 0 0 -65 0 -65 -65 0 -65 0 0 -60 0 -60 65 0 65 0 0 -65 0 -65 65
0 65 0 0 -65 0 -65 60 0 60 0 0 -60 0 -60 65 0 65 0 0 -65 0 -65 -65 0 -65 0
0 -65 0 -65 65 0 65 0 0 65 0 65 65 0 65 0 0 65 0 65 60 0 60 0 0 60 0 60 -60
0 -60 0 0 65 0 65 -65 0 -65 0 0 65 0 65 -65 0 -65 0 0 60 0 60 65 0 65 0 0
65 0 65 -65 0 -65 0 0 65 0 65 65 0 65 0 0 60 0 60 -65 0 -65 0 0 65 0 65 -60
0 -60 0 0 65 0 65 -65 0 -65 0 0 60 0 60 -65 0 -65 0 0 65 0 65 -60 0 -60 0 0
65 0 65 -65 0 -65 0 0 60 0 60 -65 0 -65 0 0 -60z m640 -635 l0 -65 60 0 60 0
0 -60 0 -60 -60 0 -60 0 0 -65 0 -65 60 0 60 0 0 -65 0 -65 -60 0 -60 0 0 -60
0 -60 60 0 60 0 0 -65 0 -65 65 0 65 0 0 -65 0 -65 65 0 65 0 0 -60 0 -60 -65
0 -65 0 0 60 0 60 -65 0 -65 0 0 65 0 65 -60 0 -60 0 0 65 0 65 -65 0 -65 0 0
60 0 60 65 0 65 0 0 65 0 65 -65 0 -65 0 0 65 0 65 65 0 65 0 0 60 0 60 -65 0
-65 0 0 65 0 65 65 0 65 0 0 -65z"/>
<path d="M9440 11365 l0 -65 65 0 65 0 0 65 0 65 -65 0 -65 0 0 -65z"/>
<path d="M6660 12630 l0 -60 -65 0 -65 0 0 -65 0 -65 -65 0 -65 0 0 -65 0 -65
65 0 65 0 0 -60 0 -60 -65 0 -65 0 0 -65 0 -65 -60 0 -60 0 0 -65 0 -65 -65 0
-65 0 0 -60 0 -60 -65 0 -65 0 0 -65 0 -65 -60 0 -60 0 0 -65 0 -65 60 0 60 0
0 -60 0 -60 -60 0 -60 0 0 -65 0 -65 -65 0 -65 0 0 -65 0 -65 -60 0 -60 0 0
-60 0 -60 60 0 60 0 0 60 0 60 65 0 65 0 0 65 0 65 60 0 60 0 0 65 0 65 65 0
65 0 0 60 0 60 65 0 65 0 0 65 0 65 -65 0 -65 0 0 65 0 65 65 0 65 0 0 60 0
60 60 0 60 0 0 65 0 65 65 0 65 0 0 65 0 65 65 0 65 0 0 60 0 60 60 0 60 0 0
65 0 65 65 0 65 0 0 65 0 65 -65 0 -65 0 0 60 0 60 -60 0 -60 0 0 -60z m120
-125 l0 -65 -60 0 -60 0 0 -65 0 -65 -65 0 -65 0 0 65 0 65 65 0 65 0 0 65 0
65 60 0 60 0 0 -65z m-630 -890 l0 -65 -65 0 -65 0 0 65 0 65 65 0 65 0 0 -65z"/>
<path d="M5650 10855 l0 -65 -65 0 -65 0 0 -60 0 -60 65 0 65 0 0 60 0 60 60
0 60 0 0 65 0 65 -60 0 -60 0 0 -65z"/>
<path d="M5520 10475 l0 -65 -65 0 -65 0 0 -60 0 -60 65 0 65 0 0 60 0 60 65
0 65 0 0 65 0 65 -65 0 -65 0 0 -65z"/>
<path d="M9570 10730 l0 -60 65 0 65 0 0 60 0 60 -65 0 -65 0 0 -60z"/>
<path d="M4760 8705 l0 -65 65 0 65 0 0 65 0 65 -65 0 -65 0 0 -65z"/>
<path d="M4760 8455 l0 -65 65 0 65 0 0 65 0 65 -65 0 -65 0 0 -65z"/>
<path d="M4760 8200 l0 -60 -65 0 -65 0 0 -65 0 -65 65 0 65 0 0 -65 0 -65
-65 0 -65 0 0 -60 0 -60 65 0 65 0 0 -65 0 -65 -65 0 -65 0 0 -65 0 -65 65 0
65 0 0 -60 0 -60 -65 0 -65 0 0 -65 0 -65 65 0 65 0 0 -65 0 -65 -65 0 -65 0
0 -60 0 -60 65 0 65 0 0 -65 0 -65 -65 0 -65 0 0 -65 0 -65 65 0 65 0 0 -60 0
-60 65 0 65 0 0 60 0 60 -65 0 -65 0 0 65 0 65 65 0 65 0 0 65 0 65 -65 0 -65
0 0 60 0 60 65 0 65 0 0 65 0 65 -65 0 -65 0 0 65 0 65 65 0 65 0 0 60 0 60
-65 0 -65 0 0 65 0 65 65 0 65 0 0 65 0 65 -65 0 -65 0 0 60 0 60 65 0 65 0 0
65 0 65 -65 0 -65 0 0 65 0 65 65 0 65 0 0 60 0 60 -65 0 -65 0 0 -60z"/>
<path d="M4760 6425 l0 -65 65 0 65 0 0 65 0 65 -65 0 -65 0 0 -65z"/>
<path d="M9060 10730 l0 -60 65 0 65 0 0 60 0 60 -65 0 -65 0 0 -60z"/>
<path d="M8050 9975 l0 -65 65 0 65 0 0 65 0 65 -65 0 -65 0 0 -65z"/>
<path d="M7160 9845 l0 -65 65 0 65 0 0 -60 0 -60 -65 0 -65 0 0 -65 0 -65
-60 0 -60 0 0 -65 0 -65 -65 0 -65 0 0 -60 0 -60 65 0 65 0 0 -65 0 -65 -65 0
-65 0 0 -65 0 -65 65 0 65 0 0 65 0 65 60 0 60 0 0 65 0 65 65 0 65 0 0 -65 0
-65 65 0 65 0 0 65 0 65 60 0 60 0 0 60 0 60 65 0 65 0 0 65 0 65 65 0 65 0 0
65 0 65 -65 0 -65 0 0 60 0 60 -65 0 -65 0 0 65 0 65 -60 0 -60 0 0 -65 0 -65
-65 0 -65 0 0 65 0 65 -65 0 -65 0 0 -65z m380 -125 l0 -60 65 0 65 0 0 -65 0
-65 -65 0 -65 0 0 -65 0 -65 -60 0 -60 0 0 -60 0 -60 -65 0 -65 0 0 60 0 60
-65 0 -65 0 0 -60 0 -60 -60 0 -60 0 0 60 0 60 60 0 60 0 0 65 0 65 65 0 65 0
0 65 0 65 65 0 65 0 0 60 0 60 60 0 60 0 0 -60z"/>
<path d="M7420 9595 l0 -65 -65 0 -65 0 0 -65 0 -65 65 0 65 0 0 65 0 65 60 0
60 0 0 65 0 65 -60 0 -60 0 0 -65z"/>
<path d="M9440 9085 l0 -65 65 0 65 0 0 65 0 65 -65 0 -65 0 0 -65z"/>
<path d="M6660 8835 l0 -65 -65 0 -65 0 0 -65 0 -65 65 0 65 0 0 -60 0 -60
-65 0 -65 0 0 -65 0 -65 -65 0 -65 0 0 -65 0 -65 65 0 65 0 0 -60 0 -60 -65 0
-65 0 0 -65 0 -65 65 0 65 0 0 -65 0 -65 -65 0 -65 0 0 -60 0 -60 -60 0 -60 0
0 -65 0 -65 60 0 60 0 0 -65 0 -65 65 0 65 0 0 -60 0 -60 -65 0 -65 0 0 -65 0
-65 65 0 65 0 0 -65 0 -65 -65 0 -65 0 0 -60 0 -60 65 0 65 0 0 -65 0 -65 -65
0 -65 0 0 -65 0 -65 -60 0 -60 0 0 65 0 65 -65 0 -65 0 0 -65 0 -65 -65 0 -65
0 0 -60 0 -60 65 0 65 0 0 -65 0 -65 65 0 65 0 0 -65 0 -65 60 0 60 0 0 -60 0
-60 -60 0 -60 0 0 -65 0 -65 60 0 60 0 0 -60 0 -60 65 0 65 0 0 -65 0 -65 65
0 65 0 0 -65 0 -65 60 0 60 0 0 -60 0 -60 65 0 65 0 0 -65 0 -65 65 0 65 0 0
-65 0 -65 60 0 60 0 0 -60 0 -60 65 0 65 0 0 -65 0 -65 65 0 65 0 0 65 0 65
-65 0 -65 0 0 60 0 60 65 0 65 0 0 65 0 65 -65 0 -65 0 0 65 0 65 -65 0 -65 0
0 60 0 60 65 0 65 0 0 65 0 65 65 0 65 0 0 65 0 65 -65 0 -65 0 0 -65 0 -65
-65 0 -65 0 0 65 0 65 -60 0 -60 0 0 60 0 60 -65 0 -65 0 0 65 0 65 65 0 65 0
0 60 0 60 -65 0 -65 0 0 65 0 65 -65 0 -65 0 0 65 0 65 65 0 65 0 0 60 0 60
-65 0 -65 0 0 65 0 65 65 0 65 0 0 65 0 65 -65 0 -65 0 0 60 0 60 -60 0 -60 0
0 65 0 65 60 0 60 0 0 65 0 65 65 0 65 0 0 60 0 60 65 0 65 0 0 65 0 65 -65 0
-65 0 0 65 0 65 65 0 65 0 0 60 0 60 -65 0 -65 0 0 65 0 65 -65 0 -65 0 0 65
0 65 65 0 65 0 0 60 0 60 65 0 65 0 0 65 0 65 -65 0 -65 0 0 65 0 65 -65 0
-65 0 0 60 0 60 -60 0 -60 0 0 65 0 65 60 0 60 0 0 65 0 65 -60 0 -60 0 0 -65z
m120 -380 l0 -65 -60 0 -60 0 0 -65 0 -65 -65 0 -65 0 0 65 0 65 65 0 65 0 0
65 0 65 60 0 60 0 0 -65z m-120 -380 l0 -65 60 0 60 0 0 -65 0 -65 65 0 65 0
0 -60 0 -60 -65 0 -65 0 0 -65 0 -65 65 0 65 0 0 -65 0 -65 -65 0 -65 0 0 -60
0 -60 -60 0 -60 0 0 -65 0 -65 -65 0 -65 0 0 65 0 65 65 0 65 0 0 60 0 60 -65
0 -65 0 0 65 0 65 -65 0 -65 0 0 65 0 65 65 0 65 0 0 60 0 60 65 0 65 0 0 65
0 65 -65 0 -65 0 0 65 0 65 65 0 65 0 0 -65z m0 -1015 l0 -60 60 0 60 0 0 -65
0 -65 -60 0 -60 0 0 -65 0 -65 60 0 60 0 0 -60 0 -60 -60 0 -60 0 0 -65 0 -65
60 0 60 0 0 -65 0 -65 65 0 65 0 0 -60 0 -60 -65 0 -65 0 0 -65 0 -65 65 0 65
0 0 -60 0 -60 65 0 65 0 0 -65 0 -65 60 0 60 0 0 -65 0 -65 -60 0 -60 0 0 -60
0 -60 60 0 60 0 0 -65 0 -65 65 0 65 0 0 -65 0 -65 -65 0 -65 0 0 65 0 65 -60
0 -60 0 0 65 0 65 -65 0 -65 0 0 60 0 60 -65 0 -65 0 0 65 0 65 -60 0 -60 0 0
65 0 65 -65 0 -65 0 0 60 0 60 -65 0 -65 0 0 65 0 65 65 0 65 0 0 60 0 60 -65
0 -65 0 0 65 0 65 -60 0 -60 0 0 65 0 65 -65 0 -65 0 0 60 0 60 65 0 65 0 0
-60 0 -60 60 0 60 0 0 60 0 60 65 0 65 0 0 65 0 65 65 0 65 0 0 65 0 65 -65 0
-65 0 0 60 0 60 65 0 65 0 0 -60z"/>
<path d="M6660 7820 l0 -60 -65 0 -65 0 0 -65 0 -65 65 0 65 0 0 -65 0 -65 60
0 60 0 0 65 0 65 -60 0 -60 0 0 65 0 65 60 0 60 0 0 60 0 60 -60 0 -60 0 0
-60z"/>
<path d="M6530 6680 l0 -60 -65 0 -65 0 0 -65 0 -65 65 0 65 0 0 -65 0 -65 65
0 65 0 0 -60 0 -60 -65 0 -65 0 0 -65 0 -65 65 0 65 0 0 -60 0 -60 60 0 60 0
0 -65 0 -65 65 0 65 0 0 -65 0 -65 65 0 65 0 0 65 0 65 -65 0 -65 0 0 65 0 65
-65 0 -65 0 0 60 0 60 -60 0 -60 0 0 65 0 65 60 0 60 0 0 60 0 60 -60 0 -60 0
0 65 0 65 -65 0 -65 0 0 65 0 65 65 0 65 0 0 60 0 60 -65 0 -65 0 0 -60z"/>
<path d="M9440 8580 l0 -60 65 0 65 0 0 60 0 60 -65 0 -65 0 0 -60z"/>
<path d="M4890 5925 l0 -65 60 0 60 0 0 65 0 65 -60 0 -60 0 0 -65z"/>
<path d="M5270 5925 l0 -65 -65 0 -65 0 0 -65 0 -65 -65 0 -65 0 0 -60 0 -60
65 0 65 0 0 -65 0 -65 65 0 65 0 0 -65 0 -65 60 0 60 0 0 -60 0 -60 65 0 65 0
0 -65 0 -65 65 0 65 0 0 -65 0 -65 60 0 60 0 0 -60 0 -60 65 0 65 0 0 -65 0
-65 65 0 65 0 0 -65 0 -65 60 0 60 0 0 -60 0 -60 65 0 65 0 0 -65 0 -65 60 0
60 0 0 -65 0 -65 65 0 65 0 0 -60 0 -60 65 0 65 0 0 60 0 60 60 0 60 0 0 -125
0 -125 130 0 130 0 0 -125 0 -125 125 0 125 0 0 -130 0 -130 125 0 125 0 0
-125 0 -125 130 0 130 0 0 -65 0 -65 60 0 60 0 0 -60 0 -60 65 0 65 0 0 -65 0
-65 65 0 65 0 0 65 0 65 60 0 60 0 0 -65 0 -65 65 0 65 0 0 -65 0 -65 65 0 65
0 0 -60 0 -60 60 0 60 0 0 -65 0 -65 65 0 65 0 0 -65 0 -65 65 0 65 0 0 -60 0
-60 60 0 60 0 0 60 0 60 65 0 65 0 0 65 0 65 65 0 65 0 0 -65 0 -65 60 0 60 0
0 65 0 65 -60 0 -60 0 0 65 0 65 -65 0 -65 0 0 -65 0 -65 -65 0 -65 0 0 65 0
65 -60 0 -60 0 0 60 0 60 -65 0 -65 0 0 65 0 65 -65 0 -65 0 0 -65 0 -65 -60
0 -60 0 0 65 0 65 -65 0 -65 0 0 65 0 65 -65 0 -65 0 0 60 0 60 -60 0 -60 0 0
65 0 65 -65 0 -65 0 0 65 0 65 -65 0 -65 0 0 60 0 60 -60 0 -60 0 0 65 0 65
-65 0 -65 0 0 65 0 65 -65 0 -65 0 0 60 0 60 -60 0 -60 0 0 65 0 65 -65 0 -65
0 0 65 0 65 -65 0 -65 0 0 60 0 60 -60 0 -60 0 0 65 0 65 -65 0 -65 0 0 65 0
65 -65 0 -65 0 0 60 0 60 -60 0 -60 0 0 65 0 65 -65 0 -65 0 0 65 0 65 -65 0
-65 0 0 -65 0 -65 -60 0 -60 0 0 65 0 65 -65 0 -65 0 0 60 0 60 -60 0 -60 0 0
65 0 65 60 0 60 0 0 65 0 65 -60 0 -60 0 0 60 0 60 -65 0 -65 0 0 65 0 65 -65
0 -65 0 0 65 0 65 -60 0 -60 0 0 60 0 60 -65 0 -65 0 0 65 0 65 -65 0 -65 0 0
65 0 65 -60 0 -60 0 0 -65z m120 -130 l0 -65 65 0 65 0 0 -60 0 -60 65 0 65 0
0 -65 0 -65 60 0 60 0 0 -65 0 -65 65 0 65 0 0 -60 0 -60 65 0 65 0 0 -65 0
-65 -65 0 -65 0 0 -65 0 -65 65 0 65 0 0 -60 0 -60 60 0 60 0 0 -65 0 -65 65
0 65 0 0 -65 0 -65 -65 0 -65 0 0 65 0 65 -60 0 -60 0 0 65 0 65 -65 0 -65 0
0 60 0 60 -65 0 -65 0 0 65 0 65 -60 0 -60 0 0 65 0 65 -65 0 -65 0 0 60 0 60
-65 0 -65 0 0 65 0 65 -60 0 -60 0 0 65 0 65 -65 0 -65 0 0 60 0 60 65 0 65 0
0 65 0 65 60 0 60 0 0 -65z m1140 -1140 l0 -65 -65 0 -65 0 0 65 0 65 65 0 65
0 0 -65z m0 -250 l0 -65 -65 0 -65 0 0 65 0 65 65 0 65 0 0 -65z m250 0 l0
-65 65 0 65 0 0 -65 0 -65 65 0 65 0 0 -60 0 -60 -65 0 -65 0 0 60 0 60 -65 0
-65 0 0 65 0 65 -60 0 -60 0 0 65 0 65 60 0 60 0 0 -65z m510 -510 l0 -65 65
0 65 0 0 -60 0 -60 60 0 60 0 0 -65 0 -65 -60 0 -60 0 0 65 0 65 -65 0 -65 0
0 60 0 60 -65 0 -65 0 0 65 0 65 65 0 65 0 0 -65z m510 -505 l0 -60 60 0 60 0
0 -65 0 -65 65 0 65 0 0 -65 0 -65 -65 0 -65 0 0 65 0 65 -60 0 -60 0 0 65 0
65 -65 0 -65 0 0 60 0 60 65 0 65 0 0 -60z m1010 -760 l0 -60 65 0 65 0 0 -65
0 -65 60 0 60 0 0 -65 0 -65 -60 0 -60 0 0 65 0 65 -65 0 -65 0 0 65 0 65 -65
0 -65 0 0 60 0 60 65 0 65 0 0 -60z"/>
<path d="M5270 5670 l0 -60 60 0 60 0 0 -65 0 -65 65 0 65 0 0 -65 0 -65 65 0
65 0 0 -60 0 -60 60 0 60 0 0 -65 0 -65 65 0 65 0 0 65 0 65 -65 0 -65 0 0 60
0 60 -60 0 -60 0 0 65 0 65 -65 0 -65 0 0 65 0 65 -65 0 -65 0 0 60 0 60 -60
0 -60 0 0 -60z"/>
<path d="M8560 4280 l0 -190 -65 0 -65 0 0 -65 0 -65 65 0 65 0 0 -65 0 -65
60 0 60 0 0 190 0 190 65 0 65 0 0 65 0 65 65 0 65 0 0 65 0 65 -190 0 -190 0
0 -190z"/>
<path d="M9060 3770 l0 -190 -60 0 -60 0 0 -65 0 -65 60 0 60 0 0 -60 0 -60
65 0 65 0 0 190 0 190 65 0 65 0 0 60 0 60 60 0 60 0 0 65 0 65 -190 0 -190 0
0 -190z"/>
<path d="M9440 3010 l0 -60 65 0 65 0 0 -65 0 -65 65 0 65 0 0 -65 0 -65 60 0
60 0 0 -60 0 -60 -60 0 -60 0 0 -65 0 -65 60 0 60 0 0 65 0 65 65 0 65 0 0 60
0 60 -65 0 -65 0 0 65 0 65 -60 0 -60 0 0 65 0 65 -65 0 -65 0 0 60 0 60 -65
0 -65 0 0 -60z"/>
</g>
</svg>
