<?xml version="1.0" standalone="no"?>
<!DOCTYPE svg PUBLIC "-//W3C//DTD SVG 20010904//EN"
 "http://www.w3.org/TR/2001/REC-SVG-20010904/DTD/svg10.dtd">
<svg version="1.0" xmlns="http://www.w3.org/2000/svg"
 width="1578.000000pt" height="1509.000000pt" viewBox="0 0 1578.000000 1509.000000"
 preserveAspectRatio="xMidYMid meet">

<g transform="translate(0.000000,1509.000000) scale(0.100000,-0.100000)"
fill="#000000" stroke="none">
<path d="M7390 12335 l0 -65 -125 0 -125 0 0 -60 0 -60 -125 0 -125 0 0 -65 0
-65 -130 0 -130 0 0 -65 0 -65 -60 0 -60 0 0 -60 0 -60 -65 0 -65 0 0 -65 0
-65 -65 0 -65 0 0 -65 0 -65 -60 0 -60 0 0 -190 0 -190 -65 0 -65 0 0 -125 0
-125 -65 0 -65 0 0 -190 0 -190 -60 0 -60 0 0 -65 0 -65 -125 0 -125 0 0 -60
0 -60 -130 0 -130 0 0 -65 0 -65 -125 0 -125 0 0 -60 0 -60 -125 0 -125 0 0
-65 0 -65 -130 0 -130 0 0 -65 0 -65 -125 0 -125 0 0 -60 0 -60 -65 0 -65 0 0
-65 0 -65 -60 0 -60 0 0 -65 0 -65 -130 0 -130 0 0 -60 0 -60 -125 0 -125 0 0
-65 0 -65 -125 0 -125 0 0 -65 0 -65 -65 0 -65 0 0 -60 0 -60 -65 0 -65 0 0
-65 0 -65 -60 0 -60 0 0 -65 0 -65 -130 0 -130 0 0 -60 0 -60 -125 0 -125 0 0
-65 0 -65 -65 0 -65 0 0 -65 0 -65 -60 0 -60 0 0 -60 0 -60 -65 0 -65 0 0 -65
0 -65 -65 0 -65 0 0 -65 0 -65 -60 0 -60 0 0 -190 0 -190 -65 0 -65 0 0 -440
0 -440 65 0 65 0 0 -65 0 -65 60 0 60 0 0 -65 0 -65 65 0 65 0 0 -60 0 -60 65
0 65 0 0 -65 0 -65 60 0 60 0 0 -60 0 -60 65 0 65 0 0 -65 0 -65 65 0 65 0 0
-65 0 -65 60 0 60 0 0 -60 0 -60 65 0 65 0 0 -65 0 -65 65 0 65 0 0 -65 0 -65
60 0 60 0 0 -60 0 -60 65 0 65 0 0 -65 0 -65 65 0 65 0 0 -65 0 -65 60 0 60 0
0 -60 0 -60 65 0 65 0 0 -65 0 -65 65 0 65 0 0 -65 0 -65 60 0 60 0 0 -60 0
-60 65 0 65 0 0 -65 0 -65 65 0 65 0 0 -65 0 -65 60 0 60 0 0 -60 0 -60 65 0
65 0 0 -65 0 -65 65 0 65 0 0 -65 0 -65 125 0 125 0 0 -60 0 -60 190 0 190 0
0 -65 0 -65 255 0 255 0 0 -65 0 -65 185 0 185 0 0 -60 0 -60 255 0 255 0 0
-65 0 -65 2090 0 2090 0 0 65 0 65 380 0 380 0 0 60 0 60 250 0 250 0 0 65 0
65 130 0 130 0 0 65 0 65 125 0 125 0 0 60 0 60 65 0 65 0 0 130 0 130 60 0
60 0 0 60 0 60 65 0 65 0 0 65 0 65 65 0 65 0 0 65 0 65 60 0 60 0 0 125 0
125 65 0 65 0 0 190 0 190 65 0 65 0 0 190 0 190 60 0 60 0 0 255 0 255 65 0
65 0 0 315 0 315 65 0 65 0 0 250 0 250 60 0 60 0 0 320 0 320 65 0 65 0 0
630 0 630 -125 0 -125 0 0 65 0 65 -255 0 -255 0 0 65 0 65 -190 0 -190 0 0
60 0 60 -65 0 -65 0 0 65 0 65 -125 0 -125 0 0 65 0 65 -65 0 -65 0 0 60 0 60
-125 0 -125 0 0 65 0 65 -190 0 -190 0 0 440 0 440 -65 0 -65 0 0 190 0 190
-60 0 -60 0 0 130 0 130 -65 0 -65 0 0 125 0 125 -65 0 -65 0 0 65 0 65 -125
0 -125 0 0 60 0 60 -65 0 -65 0 0 65 0 65 -125 0 -125 0 0 65 0 65 -190 0
-190 0 0 60 0 60 -125 0 -125 0 0 65 0 65 -1205 0 -1205 0 0 -65z m2280 -125
l0 -60 125 0 125 0 0 -65 0 -65 190 0 190 0 0 -65 0 -65 130 0 130 0 0 -60 0
-60 60 0 60 0 0 -65 0 -65 130 0 130 0 0 -65 0 -65 60 0 60 0 0 -125 0 -125
65 0 65 0 0 -125 0 -125 65 0 65 0 0 -190 0 -190 60 0 60 0 0 -380 0 -380 -60
0 -60 0 0 -65 0 -65 -65 0 -65 0 0 -190 0 -190 -65 0 -65 0 0 -60 0 -60 -60 0
-60 0 0 -65 0 -65 -65 0 -65 0 0 -65 0 -65 -65 0 -65 0 0 -60 0 -60 -60 0 -60
0 0 -65 0 -65 -65 0 -65 0 0 -65 0 -65 -65 0 -65 0 0 -60 0 -60 -60 0 -60 0 0
-380 0 -380 -65 0 -65 0 0 440 0 440 65 0 65 0 0 65 0 65 60 0 60 0 0 65 0 65
65 0 65 0 0 60 0 60 65 0 65 0 0 65 0 65 60 0 60 0 0 65 0 65 65 0 65 0 0 60
0 60 65 0 65 0 0 130 0 130 60 0 60 0 0 125 0 125 65 0 65 0 0 380 0 380 -65
0 -65 0 0 190 0 190 -60 0 -60 0 0 125 0 125 -65 0 -65 0 0 125 0 125 -125 0
-125 0 0 65 0 65 -65 0 -65 0 0 65 0 65 -190 0 -190 0 0 60 0 60 -125 0 -125
0 0 65 0 65 -885 0 -885 0 0 -65 0 -65 -380 0 -380 0 0 -60 0 -60 -130 0 -130
0 0 -65 0 -65 -60 0 -60 0 0 -125 0 -125 -65 0 -65 0 0 -130 0 -130 -65 0 -65
0 0 -315 0 -315 65 0 65 0 0 -65 0 -65 65 0 65 0 0 -125 0 -125 60 0 60 0 0
-60 0 -60 65 0 65 0 0 -130 0 -130 65 0 65 0 0 -60 0 -60 60 0 60 0 0 -65 0
-65 130 0 130 0 0 -65 0 -65 60 0 60 0 0 -60 0 -60 130 0 130 0 0 -65 0 -65
125 0 125 0 0 -65 0 -65 65 0 65 0 0 -60 0 -60 125 0 125 0 0 -65 0 -65 125 0
125 0 0 -65 0 -65 190 0 190 0 0 -60 0 -60 255 0 255 0 0 -380 0 -380 -65 0
-65 0 0 315 0 315 -250 0 -250 0 0 65 0 65 -255 0 -255 0 0 60 0 60 -65 0 -65
0 0 65 0 65 -125 0 -125 0 0 65 0 65 -65 0 -65 0 0 60 0 60 -125 0 -125 0 0
65 0 65 -125 0 -125 0 0 65 0 65 -65 0 -65 0 0 60 0 60 -125 0 -125 0 0 65 0
65 -65 0 -65 0 0 65 0 65 -65 0 -65 0 0 60 0 60 -60 0 -60 0 0 130 0 130 -65
0 -65 0 0 60 0 60 -65 0 -65 0 0 125 0 125 -60 0 -60 0 0 130 0 130 -65 0 -65
0 0 125 0 125 -65 0 -65 0 0 65 0 65 65 0 65 0 0 190 0 190 65 0 65 0 0 60 0
60 60 0 60 0 0 65 0 65 65 0 65 0 0 65 0 65 125 0 125 0 0 60 0 60 65 0 65 0
0 65 0 65 125 0 125 0 0 65 0 65 255 0 255 0 0 60 0 60 885 0 885 0 0 -60z
m-3420 -1585 l0 -125 -60 0 -60 0 0 125 0 125 60 0 60 0 0 -125z m-120 -315
l0 -60 -65 0 -65 0 0 60 0 60 65 0 65 0 0 -60z m380 -125 l0 -65 -65 0 -65 0
0 -60 0 -60 65 0 65 0 0 -130 0 -130 -130 0 -130 0 0 65 0 65 65 0 65 0 0 65
0 65 -190 0 -190 0 0 60 0 60 190 0 190 0 0 65 0 65 65 0 65 0 0 -65z m-760
-190 l0 -125 -65 0 -65 0 0 125 0 125 65 0 65 0 0 -125z m-380 -60 l0 -65 65
0 65 0 0 -65 0 -65 60 0 60 0 0 -60 0 -60 -190 0 -190 0 0 -190 0 -190 -60 0
-60 0 0 190 0 190 60 0 60 0 0 60 0 60 65 0 65 0 0 65 0 65 -65 0 -65 0 0 65
0 65 65 0 65 0 0 -65z m630 -190 l0 -125 -65 0 -65 0 0 125 0 125 65 0 65 0 0
-125z m-1010 -130 l0 -125 -65 0 -65 0 0 -65 0 -65 65 0 65 0 0 -60 0 -60
-190 0 -190 0 0 -190 0 -190 -65 0 -65 0 0 190 0 190 65 0 65 0 0 60 0 60 65
0 65 0 0 65 0 65 -65 0 -65 0 0 65 0 65 65 0 65 0 0 -65 0 -65 60 0 60 0 0
125 0 125 65 0 65 0 0 -125z m1520 -60 l0 -65 60 0 60 0 0 65 0 65 65 0 65 0
0 -65 0 -65 65 0 65 0 0 -65 0 -65 60 0 60 0 0 -60 0 -60 190 0 190 0 0 -65 0
-65 65 0 65 0 0 -65 0 -65 125 0 125 0 0 -60 0 -60 130 0 130 0 0 -65 0 -65
60 0 60 0 0 -65 0 -65 65 0 65 0 0 -60 0 -60 125 0 125 0 0 -65 0 -65 130 0
130 0 0 -65 0 -65 60 0 60 0 0 -60 0 -60 65 0 65 0 0 60 0 60 65 0 65 0 0 -60
0 -60 -65 0 -65 0 0 -65 0 -65 -190 0 -190 0 0 -65 0 -65 -65 0 -65 0 0 -380
0 -380 255 0 255 0 0 -60 0 -60 125 0 125 0 0 -635 0 -635 65 0 65 0 0 -250 0
-250 -445 0 -445 0 0 -65 0 -65 -190 0 -190 0 0 -380 0 -380 760 0 760 0 0
-190 0 -190 65 0 65 0 0 -125 0 -125 -65 0 -65 0 0 60 0 60 -60 0 -60 0 0 -60
0 -60 -570 0 -570 0 0 60 0 60 -65 0 -65 0 0 -60 0 -60 -65 0 -65 0 0 60 0 60
-60 0 -60 0 0 -60 0 -60 -65 0 -65 0 0 60 0 60 -65 0 -65 0 0 65 0 65 -60 0
-60 0 0 -65 0 -65 -65 0 -65 0 0 65 0 65 -65 0 -65 0 0 65 0 65 -60 0 -60 0 0
60 0 60 -65 0 -65 0 0 190 0 190 -65 0 -65 0 0 -190 0 -190 -60 0 -60 0 0 -60
0 -60 -65 0 -65 0 0 60 0 60 -65 0 -65 0 0 -60 0 -60 -60 0 -60 0 0 -65 0 -65
-65 0 -65 0 0 65 0 65 -65 0 -65 0 0 60 0 60 -60 0 -60 0 0 65 0 65 -65 0 -65
0 0 -65 0 -65 -65 0 -65 0 0 65 0 65 -60 0 -60 0 0 -65 0 -65 -65 0 -65 0 0
65 0 65 -60 0 -60 0 0 -65 0 -65 -65 0 -65 0 0 65 0 65 65 0 65 0 0 65 0 65
-65 0 -65 0 0 60 0 60 -65 0 -65 0 0 65 0 65 -60 0 -60 0 0 -65 0 -65 -130 0
-130 0 0 -60 0 -60 -60 0 -60 0 0 60 0 60 60 0 60 0 0 65 0 65 130 0 130 0 0
65 0 65 -65 0 -65 0 0 60 0 60 -65 0 -65 0 0 -60 0 -60 -125 0 -125 0 0 -65 0
-65 -65 0 -65 0 0 65 0 65 65 0 65 0 0 125 0 125 -125 0 -125 0 0 -65 0 -65
-65 0 -65 0 0 65 0 65 65 0 65 0 0 125 0 125 -130 0 -130 0 0 -60 0 -60 -60 0
-60 0 0 60 0 60 60 0 60 0 0 130 0 130 -125 0 -125 0 0 -65 0 -65 -65 0 -65 0
0 65 0 65 65 0 65 0 0 125 0 125 -125 0 -125 0 0 -65 0 -65 -65 0 -65 0 0 65
0 65 65 0 65 0 0 65 0 65 125 0 125 0 0 60 0 60 -255 0 -255 0 0 -60 0 -60
-60 0 -60 0 0 60 0 60 60 0 60 0 0 65 0 65 65 0 65 0 0 60 0 60 -190 0 -190 0
0 -60 0 -60 -65 0 -65 0 0 60 0 60 65 0 65 0 0 65 0 65 190 0 190 0 0 -65 0
-65 65 0 65 0 0 -60 0 -60 125 0 125 0 0 60 0 60 -65 0 -65 0 0 65 0 65 -60 0
-60 0 0 65 0 65 60 0 60 0 0 60 0 60 -60 0 -60 0 0 65 0 65 -65 0 -65 0 0 -65
0 -65 -65 0 -65 0 0 65 0 65 65 0 65 0 0 65 0 65 -65 0 -65 0 0 60 0 60 65 0
65 0 0 65 0 65 -125 0 -125 0 0 -190 0 -190 -65 0 -65 0 0 -65 0 -65 65 0 65
0 0 -60 0 -60 -190 0 -190 0 0 -65 0 -65 -65 0 -65 0 0 65 0 65 65 0 65 0 0
60 0 60 60 0 60 0 0 65 0 65 -190 0 -190 0 0 -65 0 -65 -60 0 -60 0 0 65 0 65
60 0 60 0 0 65 0 65 190 0 190 0 0 -65 0 -65 65 0 65 0 0 190 0 190 65 0 65 0
0 65 0 65 125 0 125 0 0 60 0 60 -255 0 -255 0 0 -190 0 -190 -60 0 -60 0 0
190 0 190 60 0 60 0 0 65 0 65 65 0 65 0 0 65 0 65 -190 0 -190 0 0 -190 0
-190 -65 0 -65 0 0 -65 0 -65 65 0 65 0 0 -65 0 -65 -190 0 -190 0 0 -60 0
-60 -65 0 -65 0 0 60 0 60 65 0 65 0 0 65 0 65 65 0 65 0 0 65 0 65 -190 0
-190 0 0 -65 0 -65 -65 0 -65 0 0 65 0 65 65 0 65 0 0 60 0 60 190 0 190 0 0
-60 0 -60 60 0 60 0 0 190 0 190 65 0 65 0 0 60 0 60 190 0 190 0 0 -60 0 -60
65 0 65 0 0 -65 0 -65 125 0 125 0 0 65 0 65 -65 0 -65 0 0 190 0 190 65 0 65
0 0 60 0 60 65 0 65 0 0 65 0 65 -190 0 -190 0 0 -190 0 -190 -65 0 -65 0 0
190 0 190 65 0 65 0 0 65 0 65 190 0 190 0 0 -65 0 -65 60 0 60 0 0 -65 0 -65
65 0 65 0 0 -60 0 -60 -190 0 -190 0 0 -190 0 -190 65 0 65 0 0 60 0 60 60 0
60 0 0 65 0 65 65 0 65 0 0 -65 0 -65 -65 0 -65 0 0 -60 0 -60 65 0 65 0 0
-65 0 -65 65 0 65 0 0 65 0 65 60 0 60 0 0 60 0 60 -60 0 -60 0 0 65 0 65 60
0 60 0 0 -65 0 -65 65 0 65 0 0 -60 0 -60 65 0 65 0 0 -190 0 -190 60 0 60 0
0 60 0 60 65 0 65 0 0 -60 0 -60 65 0 65 0 0 -65 0 -65 60 0 60 0 0 65 0 65
65 0 65 0 0 60 0 60 -125 0 -125 0 0 190 0 190 60 0 60 0 0 65 0 65 130 0 130
0 0 -65 0 -65 -130 0 -130 0 0 -125 0 -125 190 0 190 0 0 65 0 65 65 0 65 0 0
-65 0 -65 65 0 65 0 0 -65 0 -65 60 0 60 0 0 65 0 65 65 0 65 0 0 65 0 65 60
0 60 0 0 60 0 60 -60 0 -60 0 0 65 0 65 -65 0 -65 0 0 -65 0 -65 -60 0 -60 0
0 65 0 65 60 0 60 0 0 65 0 65 -60 0 -60 0 0 60 0 60 -65 0 -65 0 0 -60 0 -60
-65 0 -65 0 0 60 0 60 65 0 65 0 0 65 0 65 -65 0 -65 0 0 65 0 65 65 0 65 0 0
60 0 60 65 0 65 0 0 65 0 65 -65 0 -65 0 0 65 0 65 -65 0 -65 0 0 -65 0 -65
-60 0 -60 0 0 -190 0 -190 -65 0 -65 0 0 190 0 190 65 0 65 0 0 65 0 65 60 0
60 0 0 60 0 60 -190 0 -190 0 0 -190 0 -190 -60 0 -60 0 0 190 0 190 60 0 60
0 0 65 0 65 190 0 190 0 0 -65 0 -65 65 0 65 0 0 190 0 190 65 0 65 0 0 65 0
65 185 0 185 0 0 -65 0 -65 65 0 65 0 0 -60 0 -60 65 0 65 0 0 60 0 60 60 0
60 0 0 -60 0 -60 65 0 65 0 0 -65 0 -65 65 0 65 0 0 -65 0 -65 60 0 60 0 0
-60 0 -60 65 0 65 0 0 -65 0 -65 65 0 65 0 0 -65 0 -65 60 0 60 0 0 -60 0 -60
65 0 65 0 0 -65 0 -65 190 0 190 0 0 -65 0 -65 65 0 65 0 0 -60 0 -60 60 0 60
0 0 -130 0 -130 65 0 65 0 0 65 0 65 65 0 65 0 0 125 0 125 -130 0 -130 0 0
65 0 65 -60 0 -60 0 0 65 0 65 -190 0 -190 0 0 60 0 60 -65 0 -65 0 0 65 0 65
-65 0 -65 0 0 65 0 65 -60 0 -60 0 0 60 0 60 -65 0 -65 0 0 130 0 130 -65 0
-65 0 0 60 0 60 -60 0 -60 0 0 65 0 65 -65 0 -65 0 0 65 0 65 65 0 65 0 0 -65z
m5310 -125 l0 -190 -60 0 -60 0 0 -65 0 -65 60 0 60 0 0 -65 0 -65 65 0 65 0
0 -60 0 -60 65 0 65 0 0 -65 0 -65 -190 0 -190 0 0 -190 0 -190 -65 0 -65 0 0
190 0 190 -65 0 -65 0 0 65 0 65 65 0 65 0 0 -65 0 -65 65 0 65 0 0 65 0 65
60 0 60 0 0 60 0 60 -60 0 -60 0 0 65 0 65 -65 0 -65 0 0 65 0 65 65 0 65 0 0
60 0 60 -65 0 -65 0 0 65 0 65 65 0 65 0 0 65 0 65 60 0 60 0 0 -190z m-380
-5 l0 -65 -60 0 -60 0 0 65 0 65 60 0 60 0 0 -65z m640 -125 l0 -190 -65 0
-65 0 0 190 0 190 65 0 65 0 0 -190z m-7720 -65 l0 -125 -65 0 -65 0 0 125 0
125 65 0 65 0 0 -125z m8100 65 l0 -60 -65 0 -65 0 0 -255 0 -255 -65 0 -65 0
0 255 0 255 65 0 65 0 0 60 0 60 65 0 65 0 0 -60z m-1020 -125 l0 -65 -60 0
-60 0 0 -65 0 -65 -65 0 -65 0 0 -60 0 -60 65 0 65 0 0 -65 0 -65 -65 0 -65 0
0 -65 0 -65 -65 0 -65 0 0 -60 0 -60 65 0 65 0 0 -65 0 -65 125 0 125 0 0 -65
0 -65 -125 0 -125 0 0 65 0 65 -65 0 -65 0 0 -65 0 -65 -60 0 -60 0 0 -60 0
-60 60 0 60 0 0 -65 0 -65 -60 0 -60 0 0 65 0 65 -65 0 -65 0 0 -65 0 -65
-125 0 -125 0 0 -65 0 -65 60 0 60 0 0 -60 0 -60 -60 0 -60 0 0 60 0 60 -130
0 -130 0 0 255 0 255 65 0 65 0 0 65 0 65 65 0 65 0 0 60 0 60 60 0 60 0 0 65
0 65 130 0 130 0 0 65 0 65 60 0 60 0 0 60 0 60 65 0 65 0 0 65 0 65 65 0 65
0 0 65 0 65 60 0 60 0 0 -65z m1520 -130 l0 -65 65 0 65 0 0 -60 0 -60 65 0
65 0 0 -65 0 -65 -190 0 -190 0 0 -255 0 -255 -65 0 -65 0 0 255 0 255 65 0
65 0 0 65 0 65 60 0 60 0 0 60 0 60 -190 0 -190 0 0 -190 0 -190 -60 0 -60 0
0 190 0 190 60 0 60 0 0 65 0 65 190 0 190 0 0 -65z m-8730 -125 l0 -60 65 0
65 0 0 -65 0 -65 60 0 60 0 0 -65 0 -65 -190 0 -190 0 0 -250 0 -250 -60 0
-60 0 0 250 0 250 60 0 60 0 0 65 0 65 65 0 65 0 0 65 0 65 -190 0 -190 0 0
-190 0 -190 -65 0 -65 0 0 190 0 190 65 0 65 0 0 60 0 60 190 0 190 0 0 -60z
m-630 -190 l0 -130 -65 0 -65 0 0 130 0 130 65 0 65 0 0 -130z m10120 -380 l0
-510 -60 0 -60 0 0 -315 0 -315 -65 0 -65 0 0 -255 0 -255 -65 0 -65 0 0 -315
0 -315 -60 0 -60 0 0 -250 0 -250 -65 0 -65 0 0 -190 0 -190 -65 0 -65 0 0
-190 0 -190 -60 0 -60 0 0 -130 0 -130 -65 0 -65 0 0 -60 0 -60 -65 0 -65 0 0
-65 0 -65 -60 0 -60 0 0 -65 0 -65 -65 0 -65 0 0 -125 0 -125 -65 0 -65 0 0
-65 0 -65 -190 0 -190 0 0 -60 0 -60 -60 0 -60 0 0 -65 0 -65 -255 0 -255 0 0
-65 0 -65 -255 0 -255 0 0 65 0 65 -60 0 -60 0 0 255 0 255 -65 0 -65 0 0 190
0 190 65 0 65 0 0 -65 0 -65 60 0 60 0 0 -255 0 -255 65 0 65 0 0 -60 0 -60
445 0 445 0 0 60 0 60 60 0 60 0 0 65 0 65 130 0 130 0 0 65 0 65 60 0 60 0 0
125 0 125 65 0 65 0 0 65 0 65 65 0 65 0 0 60 0 60 60 0 60 0 0 65 0 65 65 0
65 0 0 125 0 125 65 0 65 0 0 190 0 190 60 0 60 0 0 190 0 190 65 0 65 0 0
255 0 255 65 0 65 0 0 315 0 315 60 0 60 0 0 255 0 255 65 0 65 0 0 315 0 315
65 0 65 0 0 445 0 445 60 0 60 0 0 -510z m-10380 315 l0 -65 -60 0 -60 0 0 65
0 65 60 0 60 0 0 -65z m8990 -125 l0 -60 65 0 65 0 0 -65 0 -65 60 0 60 0 0
-65 0 -65 -190 0 -190 0 0 -125 0 -125 -60 0 -60 0 0 125 0 125 60 0 60 0 0
65 0 65 65 0 65 0 0 65 0 65 -190 0 -190 0 0 -190 0 -190 -65 0 -65 0 0 190 0
190 65 0 65 0 0 60 0 60 190 0 190 0 0 -60z m1140 0 l0 -60 -190 0 -190 0 0
-190 0 -190 -65 0 -65 0 0 190 0 190 65 0 65 0 0 60 0 60 190 0 190 0 0 -60z
m-10510 -190 l0 -130 -60 0 -60 0 0 130 0 130 60 0 60 0 0 -130z m1780 65 l0
-65 60 0 60 0 0 -65 0 -65 65 0 65 0 0 -60 0 -60 -190 0 -190 0 0 -255 0 -255
-65 0 -65 0 0 255 0 255 65 0 65 0 0 60 0 60 65 0 65 0 0 65 0 65 -190 0 -190
0 0 -190 0 -190 -65 0 -65 0 0 190 0 190 65 0 65 0 0 65 0 65 190 0 190 0 0
-65z m8730 -130 l0 -65 -65 0 -65 0 0 -250 0 -250 -60 0 -60 0 0 250 0 250 60
0 60 0 0 65 0 65 65 0 65 0 0 -65z m-10760 -125 l0 -60 65 0 65 0 0 -65 0 -65
-190 0 -190 0 0 -190 0 -190 -65 0 -65 0 0 190 0 190 65 0 65 0 0 65 0 65 60
0 60 0 0 60 0 60 65 0 65 0 0 -60z m6710 0 l0 -60 -65 0 -65 0 0 60 0 60 65 0
65 0 0 -60z m2020 -190 l0 -130 65 0 65 0 0 -315 0 -315 -125 0 -125 0 0 315
0 315 -65 0 -65 0 0 130 0 130 125 0 125 0 0 -130z m1400 65 l0 -65 60 0 60 0
0 -65 0 -65 65 0 65 0 0 -60 0 -60 -190 0 -190 0 0 -190 0 -190 -65 0 -65 0 0
190 0 190 65 0 65 0 0 60 0 60 65 0 65 0 0 65 0 65 -190 0 -190 0 0 -125 0
-125 -65 0 -65 0 0 125 0 125 65 0 65 0 0 65 0 65 190 0 190 0 0 -65z m-3290
-130 l0 -65 -190 0 -190 0 0 65 0 65 190 0 190 0 0 -65z m-510 -125 l0 -60
125 0 125 0 0 -65 0 -65 760 0 760 0 0 65 0 65 190 0 190 0 0 -190 0 -190
-255 0 -255 0 0 -65 0 -65 -820 0 -820 0 0 65 0 65 -190 0 -190 0 0 190 0 190
65 0 65 0 0 60 0 60 125 0 125 0 0 -60z m3040 0 l0 -60 60 0 60 0 0 -65 0 -65
65 0 65 0 0 -125 0 -125 -65 0 -65 0 0 60 0 60 -250 0 -250 0 0 190 0 190 190
0 190 0 0 -60z m-9880 -125 l0 -65 -125 0 -125 0 0 65 0 65 125 0 125 0 0 -65z
m11140 -130 l0 -65 -190 0 -190 0 0 -190 0 -190 -60 0 -60 0 0 190 0 190 60 0
60 0 0 65 0 65 190 0 190 0 0 -65z m-1390 -440 l0 -125 -65 0 -65 0 0 -65 0
-65 65 0 65 0 0 -65 0 -65 -190 0 -190 0 0 -190 0 -190 -65 0 -65 0 0 190 0
190 65 0 65 0 0 65 0 65 65 0 65 0 0 65 0 65 60 0 60 0 0 125 0 125 65 0 65 0
0 -125z m630 60 l0 -65 -125 0 -125 0 0 65 0 65 125 0 125 0 0 -65z m640 -60
l0 -125 -65 0 -65 0 0 125 0 125 65 0 65 0 0 -125z m-11270 -65 l0 -60 65 0
65 0 0 -65 0 -65 60 0 60 0 0 -65 0 -65 65 0 65 0 0 -60 0 -60 65 0 65 0 0
-65 0 -65 60 0 60 0 0 -65 0 -65 65 0 65 0 0 -60 0 -60 65 0 65 0 0 -65 0 -65
60 0 60 0 0 -60 0 -60 65 0 65 0 0 -65 0 -65 65 0 65 0 0 -65 0 -65 60 0 60 0
0 -60 0 -60 65 0 65 0 0 -65 0 -65 65 0 65 0 0 -65 0 -65 60 0 60 0 0 -60 0
-60 65 0 65 0 0 -65 0 -65 65 0 65 0 0 -65 0 -65 60 0 60 0 0 -60 0 -60 65 0
65 0 0 -65 0 -65 65 0 65 0 0 -65 0 -65 60 0 60 0 0 -60 0 -60 65 0 65 0 0
-65 0 -65 125 0 125 0 0 -65 0 -65 190 0 190 0 0 -60 0 -60 255 0 255 0 0 -65
0 -65 190 0 190 0 0 -65 0 -65 190 0 190 0 0 -60 0 -60 570 0 570 0 0 -65 0
-65 1135 0 1135 0 0 255 0 255 -60 0 -60 0 0 190 0 190 125 0 125 0 0 -130 0
-130 65 0 65 0 0 -125 0 -125 60 0 60 0 0 -255 0 -255 65 0 65 0 0 -60 0 -60
-1390 0 -1390 0 0 60 0 60 -635 0 -635 0 0 65 0 65 -190 0 -190 0 0 65 0 65
-190 0 -190 0 0 60 0 60 -250 0 -250 0 0 65 0 65 -190 0 -190 0 0 65 0 65
-130 0 -130 0 0 60 0 60 -60 0 -60 0 0 65 0 65 -65 0 -65 0 0 65 0 65 -65 0
-65 0 0 60 0 60 -60 0 -60 0 0 65 0 65 -65 0 -65 0 0 65 0 65 -65 0 -65 0 0
60 0 60 -60 0 -60 0 0 65 0 65 -65 0 -65 0 0 65 0 65 -65 0 -65 0 0 60 0 60
-60 0 -60 0 0 65 0 65 -65 0 -65 0 0 65 0 65 -65 0 -65 0 0 60 0 60 -60 0 -60
0 0 65 0 65 -65 0 -65 0 0 65 0 65 -65 0 -65 0 0 60 0 60 -60 0 -60 0 0 65 0
65 -65 0 -65 0 0 60 0 60 -65 0 -65 0 0 65 0 65 -60 0 -60 0 0 65 0 65 -65 0
-65 0 0 60 0 60 -65 0 -65 0 0 190 0 190 65 0 65 0 0 -60z m9110 -65 l0 -125
-60 0 -60 0 0 125 0 125 60 0 60 0 0 -125z m1140 -65 l0 -190 -60 0 -60 0 0
190 0 190 60 0 60 0 0 -190z m-2530 -565 l0 -635 65 0 65 0 0 -250 0 -250
-125 0 -125 0 0 315 0 315 -65 0 -65 0 0 570 0 570 125 0 125 0 0 -635z m630
-60 l0 -695 -60 0 -60 0 0 -190 0 -190 -65 0 -65 0 0 885 0 885 125 0 125 0 0
-695z m510 565 l0 -130 65 0 65 0 0 -60 0 -60 -65 0 -65 0 0 -65 0 -65 65 0
65 0 0 -65 0 -65 -65 0 -65 0 0 -60 0 -60 65 0 65 0 0 -65 0 -65 60 0 60 0 0
65 0 65 65 0 65 0 0 60 0 60 -65 0 -65 0 0 65 0 65 65 0 65 0 0 -65 0 -65 65
0 65 0 0 -60 0 -60 60 0 60 0 0 -65 0 -65 -190 0 -190 0 0 -60 0 -60 -60 0
-60 0 0 -65 0 -65 60 0 60 0 0 -65 0 -65 65 0 65 0 0 -60 0 -60 -125 0 -125 0
0 -65 0 -65 -130 0 -130 0 0 -65 0 -65 -125 0 -125 0 0 -60 0 -60 -65 0 -65 0
0 125 0 125 65 0 65 0 0 760 0 760 190 0 190 0 0 -130z m510 -60 l0 -190 -65
0 -65 0 0 190 0 190 65 0 65 0 0 -190z m1520 125 l0 -65 60 0 60 0 0 -65 0
-65 65 0 65 0 0 -60 0 -60 -190 0 -190 0 0 -190 0 -190 -65 0 -65 0 0 190 0
190 65 0 65 0 0 60 0 60 65 0 65 0 0 65 0 65 -190 0 -190 0 0 -190 0 -190 -65
0 -65 0 0 -65 0 -65 65 0 65 0 0 -60 0 -60 -190 0 -190 0 0 -190 0 -190 60 0
60 0 0 65 0 65 65 0 65 0 0 60 0 60 190 0 190 0 0 -60 0 -60 65 0 65 0 0 185
0 185 60 0 60 0 0 65 0 65 65 0 65 0 0 -65 0 -65 -65 0 -65 0 0 -185 0 -185
-60 0 -60 0 0 -130 0 -130 -130 0 -130 0 0 -440 0 -440 -60 0 -60 0 0 315 0
315 -65 0 -65 0 0 65 0 65 -255 0 -255 0 0 60 0 60 -60 0 -60 0 0 65 0 65
-190 0 -190 0 0 65 0 65 190 0 190 0 0 -65 0 -65 125 0 125 0 0 190 0 190 65
0 65 0 0 60 0 60 60 0 60 0 0 65 0 65 -190 0 -190 0 0 -190 0 -190 -60 0 -60
0 0 190 0 190 60 0 60 0 0 65 0 65 190 0 190 0 0 -65 0 -65 65 0 65 0 0 190 0
190 65 0 65 0 0 65 0 65 190 0 190 0 0 -65z m-1270 -1265 l0 -60 65 0 65 0 0
-380 0 -380 -130 0 -130 0 0 315 0 315 -60 0 -60 0 0 125 0 125 125 0 125 0 0
-60z m-380 -255 l0 -65 65 0 65 0 0 -125 0 -125 -130 0 -130 0 0 -65 0 -65
-60 0 -60 0 0 -60 0 -60 -190 0 -190 0 0 -65 0 -65 -570 0 -570 0 0 -65 0 -65
-570 0 -570 0 0 190 0 190 190 0 190 0 0 65 0 65 950 0 950 0 0 65 0 65 125 0
125 0 0 60 0 60 125 0 125 0 0 65 0 65 65 0 65 0 0 -65z m1010 0 l0 -65 65 0
65 0 0 -190 0 -190 -65 0 -65 0 0 65 0 65 -190 0 -190 0 0 190 0 190 190 0
190 0 0 -65z m-880 -630 l0 -65 -65 0 -65 0 0 -65 0 -65 65 0 65 0 0 -60 0
-60 -65 0 -65 0 0 -65 0 -65 65 0 65 0 0 -65 0 -65 60 0 60 0 0 65 0 65 65 0
65 0 0 -65 0 -65 -65 0 -65 0 0 -60 0 -60 -60 0 -60 0 0 -65 0 -65 60 0 60 0
0 -65 0 -65 -60 0 -60 0 0 65 0 65 -65 0 -65 0 0 -65 0 -65 -65 0 -65 0 0 65
0 65 -60 0 -60 0 0 65 0 65 -65 0 -65 0 0 60 0 60 65 0 65 0 0 65 0 65 -65 0
-65 0 0 65 0 65 -65 0 -65 0 0 60 0 60 65 0 65 0 0 -60 0 -60 65 0 65 0 0 60
0 60 60 0 60 0 0 130 0 130 130 0 130 0 0 -65z m760 0 l0 -65 -65 0 -65 0 0
-65 0 -65 65 0 65 0 0 -125 0 -125 -130 0 -130 0 0 -125 0 -125 -60 0 -60 0 0
125 0 125 60 0 60 0 0 65 0 65 65 0 65 0 0 60 0 60 -125 0 -125 0 0 65 0 65
125 0 125 0 0 65 0 65 65 0 65 0 0 -65z m250 -130 l0 -65 -65 0 -65 0 0 65 0
65 65 0 65 0 0 -65z m-760 -125 l0 -60 -65 0 -65 0 0 60 0 60 65 0 65 0 0 -60z
m-4430 -635 l0 -65 -190 0 -190 0 0 65 0 65 190 0 190 0 0 -65z"/>
<path d="M6630 9425 l0 -65 65 0 65 0 0 -60 0 -60 65 0 65 0 0 60 0 60 -65 0
-65 0 0 65 0 65 -65 0 -65 0 0 -65z"/>
<path d="M5500 9170 l0 -190 -65 0 -65 0 0 -60 0 -60 65 0 65 0 0 -65 0 -65
60 0 60 0 0 -65 0 -65 -60 0 -60 0 0 -60 0 -60 -65 0 -65 0 0 -65 0 -65 65 0
65 0 0 -65 0 -65 60 0 60 0 0 -60 0 -60 65 0 65 0 0 -65 0 -65 60 0 60 0 0
-65 0 -65 65 0 65 0 0 -60 0 -60 -65 0 -65 0 0 -65 0 -65 65 0 65 0 0 65 0 65
65 0 65 0 0 -65 0 -65 60 0 60 0 0 65 0 65 -60 0 -60 0 0 60 0 60 60 0 60 0 0
65 0 65 -60 0 -60 0 0 65 0 65 -65 0 -65 0 0 60 0 60 -65 0 -65 0 0 65 0 65
-60 0 -60 0 0 65 0 65 60 0 60 0 0 60 0 60 -60 0 -60 0 0 65 0 65 60 0 60 0 0
65 0 65 -60 0 -60 0 0 60 0 60 60 0 60 0 0 65 0 65 65 0 65 0 0 -65 0 -65 65
0 65 0 0 65 0 65 60 0 60 0 0 -65 0 -65 65 0 65 0 0 65 0 65 -65 0 -65 0 0 65
0 65 -60 0 -60 0 0 -65 0 -65 -65 0 -65 0 0 65 0 65 -65 0 -65 0 0 60 0 60
-60 0 -60 0 0 -60 0 -60 -65 0 -65 0 0 60 0 60 -60 0 -60 0 0 -190z m370 5 l0
-65 -60 0 -60 0 0 -65 0 -65 -65 0 -65 0 0 -60 0 -60 65 0 65 0 0 -65 0 -65
-65 0 -65 0 0 65 0 65 -60 0 -60 0 0 60 0 60 60 0 60 0 0 65 0 65 65 0 65 0 0
65 0 65 60 0 60 0 0 -65z m-120 -635 l0 -60 -65 0 -65 0 0 -65 0 -65 65 0 65
0 0 -65 0 -65 60 0 60 0 0 -60 0 -60 65 0 65 0 0 -65 0 -65 65 0 65 0 0 -65 0
-65 -65 0 -65 0 0 65 0 65 -65 0 -65 0 0 65 0 65 -60 0 -60 0 0 60 0 60 -65 0
-65 0 0 65 0 65 -60 0 -60 0 0 65 0 65 60 0 60 0 0 60 0 60 65 0 65 0 0 -60z"/>
<path d="M8030 7845 l0 -125 60 0 60 0 0 125 0 125 -60 0 -60 0 0 -125z"/>
<path d="M3600 7655 l0 -65 -65 0 -65 0 0 -65 0 -65 65 0 65 0 0 -60 0 -60
-65 0 -65 0 0 -65 0 -65 65 0 65 0 0 -65 0 -65 -65 0 -65 0 0 -60 0 -60 65 0
65 0 0 -65 0 -65 60 0 60 0 0 -65 0 -65 65 0 65 0 0 -60 0 -60 -65 0 -65 0 0
-65 0 -65 65 0 65 0 0 -65 0 -65 65 0 65 0 0 -60 0 -60 -65 0 -65 0 0 -65 0
-65 65 0 65 0 0 -60 0 -60 -65 0 -65 0 0 -65 0 -65 65 0 65 0 0 -65 0 -65 60
0 60 0 0 -60 0 -60 65 0 65 0 0 -65 0 -65 65 0 65 0 0 -65 0 -65 60 0 60 0 0
-60 0 -60 65 0 65 0 0 -65 0 -65 65 0 65 0 0 -65 0 -65 60 0 60 0 0 65 0 65
65 0 65 0 0 -65 0 -65 65 0 65 0 0 -60 0 -60 60 0 60 0 0 -65 0 -65 65 0 65 0
0 -65 0 -65 65 0 65 0 0 -60 0 -60 60 0 60 0 0 -65 0 -65 65 0 65 0 0 65 0 65
60 0 60 0 0 -65 0 -65 65 0 65 0 0 65 0 65 65 0 65 0 0 -65 0 -65 60 0 60 0 0
-65 0 -65 65 0 65 0 0 -60 0 -60 65 0 65 0 0 60 0 60 60 0 60 0 0 65 0 65 65
0 65 0 0 -65 0 -65 65 0 65 0 0 65 0 65 -65 0 -65 0 0 65 0 65 -65 0 -65 0 0
-65 0 -65 -60 0 -60 0 0 65 0 65 -65 0 -65 0 0 60 0 60 -65 0 -65 0 0 65 0 65
-60 0 -60 0 0 -65 0 -65 -65 0 -65 0 0 65 0 65 -65 0 -65 0 0 65 0 65 -60 0
-60 0 0 60 0 60 -65 0 -65 0 0 -60 0 -60 -60 0 -60 0 0 60 0 60 -65 0 -65 0 0
65 0 65 -65 0 -65 0 0 65 0 65 -60 0 -60 0 0 -65 0 -65 -65 0 -65 0 0 65 0 65
-65 0 -65 0 0 60 0 60 -60 0 -60 0 0 65 0 65 -65 0 -65 0 0 -65 0 -65 -65 0
-65 0 0 65 0 65 -60 0 -60 0 0 65 0 65 -65 0 -65 0 0 60 0 60 -65 0 -65 0 0
65 0 65 -60 0 -60 0 0 65 0 65 60 0 60 0 0 60 0 60 -60 0 -60 0 0 65 0 65 60
0 60 0 0 60 0 60 65 0 65 0 0 65 0 65 65 0 65 0 0 65 0 65 -65 0 -65 0 0 60 0
60 65 0 65 0 0 65 0 65 60 0 60 0 0 65 0 65 65 0 65 0 0 -65 0 -65 65 0 65 0
0 65 0 65 60 0 60 0 0 -65 0 -65 65 0 65 0 0 65 0 65 65 0 65 0 0 -65 0 -65
60 0 60 0 0 -65 0 -65 65 0 65 0 0 -60 0 -60 65 0 65 0 0 -65 0 -65 60 0 60 0
0 -65 0 -65 65 0 65 0 0 -60 0 -60 60 0 60 0 0 60 0 60 65 0 65 0 0 65 0 65
-65 0 -65 0 0 65 0 65 65 0 65 0 0 60 0 60 -65 0 -65 0 0 65 0 65 -60 0 -60 0
0 65 0 65 -65 0 -65 0 0 60 0 60 65 0 65 0 0 65 0 65 -65 0 -65 0 0 65 0 65
65 0 65 0 0 60 0 60 -65 0 -65 0 0 -60 0 -60 -60 0 -60 0 0 60 0 60 -65 0 -65
0 0 65 0 65 -65 0 -65 0 0 -65 0 -65 -60 0 -60 0 0 -60 0 -60 -65 0 -65 0 0
-65 0 -65 -65 0 -65 0 0 -65 0 -65 -60 0 -60 0 0 65 0 65 -65 0 -65 0 0 65 0
65 -65 0 -65 0 0 -65 0 -65 -60 0 -60 0 0 65 0 65 -65 0 -65 0 0 60 0 60 -65
0 -65 0 0 65 0 65 65 0 65 0 0 65 0 65 -65 0 -65 0 0 -65 0 -65 -60 0 -60 0 0
-65 0 -65 -65 0 -65 0 0 65 0 65 -65 0 -65 0 0 65 0 65 -60 0 -60 0 0 -65z
m120 -130 l0 -65 65 0 65 0 0 -60 0 -60 65 0 65 0 0 60 0 60 60 0 60 0 0 -60
0 -60 65 0 65 0 0 -65 0 -65 65 0 65 0 0 -65 0 -65 60 0 60 0 0 65 0 65 65 0
65 0 0 -65 0 -65 65 0 65 0 0 -60 0 -60 -65 0 -65 0 0 60 0 60 -65 0 -65 0 0
-60 0 -60 -60 0 -60 0 0 -65 0 -65 -65 0 -65 0 0 -65 0 -65 -65 0 -65 0 0 -60
0 -60 65 0 65 0 0 -65 0 -65 -65 0 -65 0 0 -65 0 -65 -60 0 -60 0 0 65 0 65
-65 0 -65 0 0 65 0 65 65 0 65 0 0 60 0 60 -65 0 -65 0 0 65 0 65 -65 0 -65 0
0 65 0 65 -60 0 -60 0 0 60 0 60 60 0 60 0 0 65 0 65 -60 0 -60 0 0 65 0 65
60 0 60 0 0 60 0 60 -60 0 -60 0 0 65 0 65 60 0 60 0 0 -65z m1650 -125 l0
-60 65 0 65 0 0 -65 0 -65 60 0 60 0 0 -65 0 -65 -60 0 -60 0 0 -60 0 -60 60
0 60 0 0 -65 0 -65 65 0 65 0 0 -65 0 -65 60 0 60 0 0 -60 0 -60 -60 0 -60 0
0 -65 0 -65 60 0 60 0 0 -65 0 -65 -60 0 -60 0 0 65 0 65 -65 0 -65 0 0 65 0
65 -60 0 -60 0 0 60 0 60 -65 0 -65 0 0 65 0 65 -65 0 -65 0 0 65 0 65 -60 0
-60 0 0 60 0 60 -65 0 -65 0 0 -60 0 -60 -65 0 -65 0 0 60 0 60 65 0 65 0 0
65 0 65 65 0 65 0 0 65 0 65 60 0 60 0 0 60 0 60 65 0 65 0 0 -60z m-630
-2150 l0 -60 60 0 60 0 0 -65 0 -65 -60 0 -60 0 0 65 0 65 -65 0 -65 0 0 60 0
60 65 0 65 0 0 -60z m500 -255 l0 -65 65 0 65 0 0 -60 0 -60 65 0 65 0 0 -65
0 -65 60 0 60 0 0 65 0 65 65 0 65 0 0 -65 0 -65 60 0 60 0 0 -65 0 -65 65 0
65 0 0 -60 0 -60 -65 0 -65 0 0 60 0 60 -60 0 -60 0 0 -60 0 -60 -65 0 -65 0
0 60 0 60 -60 0 -60 0 0 65 0 65 -65 0 -65 0 0 65 0 65 -65 0 -65 0 0 60 0 60
-60 0 -60 0 0 65 0 65 60 0 60 0 0 -65z m1010 -505 l0 -60 65 0 65 0 0 -65 0
-65 65 0 65 0 0 -65 0 -65 -65 0 -65 0 0 65 0 65 -65 0 -65 0 0 65 0 65 -60 0
-60 0 0 60 0 60 60 0 60 0 0 -60z"/>
<path d="M3720 7275 l0 -65 65 0 65 0 0 -65 0 -65 -65 0 -65 0 0 -60 0 -60 65
0 65 0 0 -65 0 -65 65 0 65 0 0 -65 0 -65 60 0 60 0 0 65 0 65 65 0 65 0 0 65
0 65 65 0 65 0 0 60 0 60 -65 0 -65 0 0 65 0 65 -65 0 -65 0 0 65 0 65 -60 0
-60 0 0 -65 0 -65 -65 0 -65 0 0 65 0 65 -65 0 -65 0 0 -65z m380 -130 l0 -65
65 0 65 0 0 -60 0 -60 -65 0 -65 0 0 -65 0 -65 -60 0 -60 0 0 65 0 65 -65 0
-65 0 0 60 0 60 65 0 65 0 0 65 0 65 60 0 60 0 0 -65z"/>
<path d="M3980 7020 l0 -60 60 0 60 0 0 60 0 60 -60 0 -60 0 0 -60z"/>
<path d="M3980 6515 l0 -65 60 0 60 0 0 65 0 65 -60 0 -60 0 0 -65z"/>
<path d="M5240 7275 l0 -65 -60 0 -60 0 0 -65 0 -65 60 0 60 0 0 -60 0 -60 65
0 65 0 0 -65 0 -65 65 0 65 0 0 -65 0 -65 60 0 60 0 0 -60 0 -60 65 0 65 0 0
60 0 60 -65 0 -65 0 0 65 0 65 -60 0 -60 0 0 65 0 65 -65 0 -65 0 0 60 0 60
65 0 65 0 0 65 0 65 -65 0 -65 0 0 65 0 65 -65 0 -65 0 0 -65z m130 -130 l0
-65 -65 0 -65 0 0 65 0 65 65 0 65 0 0 -65z"/>
<path d="M5620 4615 l0 -65 65 0 65 0 0 65 0 65 -65 0 -65 0 0 -65z"/>
<path d="M7520 3985 l0 -65 65 0 65 0 0 65 0 65 -65 0 -65 0 0 -65z"/>
<path d="M7900 3855 l0 -65 65 0 65 0 0 65 0 65 -65 0 -65 0 0 -65z"/>
<path d="M11060 8795 l0 -65 -60 0 -60 0 0 -65 0 -65 -65 0 -65 0 0 -60 0 -60
65 0 65 0 0 -65 0 -65 -65 0 -65 0 0 -65 0 -65 -65 0 -65 0 0 -60 0 -60 65 0
65 0 0 60 0 60 65 0 65 0 0 65 0 65 60 0 60 0 0 65 0 65 -60 0 -60 0 0 60 0
60 60 0 60 0 0 65 0 65 65 0 65 0 0 65 0 65 -65 0 -65 0 0 -65z"/>
<path d="M10810 6010 l0 -60 65 0 65 0 0 60 0 60 -65 0 -65 0 0 -60z"/>
<path d="M12330 5820 l0 -130 125 0 125 0 0 65 0 65 65 0 65 0 0 65 0 65 -190
0 -190 0 0 -130z"/>
<path d="M11060 4490 l0 -60 -60 0 -60 0 0 -65 0 -65 60 0 60 0 0 -65 0 -65
-60 0 -60 0 0 -60 0 -60 60 0 60 0 0 -65 0 -65 65 0 65 0 0 65 0 65 65 0 65 0
0 60 0 60 -65 0 -65 0 0 65 0 65 -65 0 -65 0 0 65 0 65 65 0 65 0 0 60 0 60
-65 0 -65 0 0 -60z m130 -380 l0 -60 -65 0 -65 0 0 60 0 60 65 0 65 0 0 -60z"/>
</g>
</svg>
