<?xml version="1.0" standalone="no"?>
<!DOCTYPE svg PUBLIC "-//W3C//DTD SVG 20010904//EN"
 "http://www.w3.org/TR/2001/REC-SVG-20010904/DTD/svg10.dtd">
<svg version="1.0" xmlns="http://www.w3.org/2000/svg"
 width="1586.000000pt" height="1485.000000pt" viewBox="0 0 1586.000000 1485.000000"
 preserveAspectRatio="xMidYMid meet">

<g transform="translate(0.000000,1485.000000) scale(0.100000,-0.100000)"
fill="#000000" stroke="none">
<path d="M5560 13435 l0 -65 -60 0 -60 0 0 -60 0 -60 -65 0 -65 0 0 -65 0 -65
-65 0 -65 0 0 -65 0 -65 -60 0 -60 0 0 -60 0 -60 -65 0 -65 0 0 -65 0 -65 -65
0 -65 0 0 -65 0 -65 -60 0 -60 0 0 -60 0 -60 -65 0 -65 0 0 -65 0 -65 -65 0
-65 0 0 -65 0 -65 -60 0 -60 0 0 -60 0 -60 -65 0 -65 0 0 -65 0 -65 -65 0 -65
0 0 -65 0 -65 -60 0 -60 0 0 -60 0 -60 -65 0 -65 0 0 -65 0 -65 -65 0 -65 0 0
-65 0 -65 -60 0 -60 0 0 -60 0 -60 -65 0 -65 0 0 -65 0 -65 -65 0 -65 0 0 -65
0 -65 -60 0 -60 0 0 -60 0 -60 -65 0 -65 0 0 -65 0 -65 -65 0 -65 0 0 -315 0
-315 -60 0 -60 0 0 -65 0 -65 -65 0 -65 0 0 -60 0 -60 -65 0 -65 0 0 -65 0
-65 -60 0 -60 0 0 -65 0 -65 -65 0 -65 0 0 -60 0 -60 -65 0 -65 0 0 -65 0 -65
-60 0 -60 0 0 -65 0 -65 -65 0 -65 0 0 -60 0 -60 -65 0 -65 0 0 -570 0 -570
-60 0 -60 0 0 -65 0 -65 -125 0 -125 0 0 -65 0 -65 -65 0 -65 0 0 -315 0 -315
65 0 65 0 0 -65 0 -65 185 0 185 0 0 65 0 65 65 0 65 0 0 65 0 65 65 0 65 0 0
60 0 60 60 0 60 0 0 65 0 65 190 0 190 0 0 -125 0 -125 -60 0 -60 0 0 -255 0
-255 60 0 60 0 0 -65 0 -65 65 0 65 0 0 -60 0 -60 125 0 125 0 0 -65 0 -65
445 0 445 0 0 -65 0 -65 190 0 190 0 0 -375 0 -375 65 0 65 0 0 -190 0 -190
60 0 60 0 0 -65 0 -65 130 0 130 0 0 -65 0 -65 630 0 630 0 0 -60 0 -60 65 0
65 0 0 -65 0 -65 60 0 60 0 0 -65 0 -65 65 0 65 0 0 -60 0 -60 65 0 65 0 0
-65 0 -65 60 0 60 0 0 -65 0 -65 65 0 65 0 0 -60 0 -60 65 0 65 0 0 -65 0 -65
60 0 60 0 0 -65 0 -65 65 0 65 0 0 -60 0 -60 65 0 65 0 0 -65 0 -65 60 0 60 0
0 -65 0 -65 65 0 65 0 0 -60 0 -60 65 0 65 0 0 -65 0 -65 60 0 60 0 0 -65 0
-65 65 0 65 0 0 -60 0 -60 65 0 65 0 0 -65 0 -65 60 0 60 0 0 -65 0 -65 65 0
65 0 0 -60 0 -60 65 0 65 0 0 -65 0 -65 60 0 60 0 0 -65 0 -65 65 0 65 0 0
-60 0 -60 65 0 65 0 0 -65 0 -65 60 0 60 0 0 -65 0 -65 65 0 65 0 0 -60 0 -60
65 0 65 0 0 -65 0 -65 60 0 60 0 0 -60 0 -60 380 0 380 0 0 60 0 60 65 0 65 0
0 65 0 65 60 0 60 0 0 125 0 125 65 0 65 0 0 -65 0 -65 65 0 65 0 0 -60 0 -60
315 0 315 0 0 60 0 60 65 0 65 0 0 65 0 65 60 0 60 0 0 125 0 125 65 0 65 0 0
130 0 130 255 0 255 0 0 60 0 60 125 0 125 0 0 65 0 65 65 0 65 0 0 380 0 380
315 0 315 0 0 65 0 65 65 0 65 0 0 125 0 125 60 0 60 0 0 255 0 255 -60 0 -60
0 0 125 0 125 -65 0 -65 0 0 255 0 255 255 0 255 0 0 60 0 60 60 0 60 0 0 65
0 65 65 0 65 0 0 380 0 380 -65 0 -65 0 0 60 0 60 -60 0 -60 0 0 65 0 65 -65
0 -65 0 0 65 0 65 -65 0 -65 0 0 60 0 60 -60 0 -60 0 0 65 0 65 -65 0 -65 0 0
65 0 65 -65 0 -65 0 0 60 0 60 -60 0 -60 0 0 65 0 65 -65 0 -65 0 0 65 0 65
-65 0 -65 0 0 60 0 60 -60 0 -60 0 0 65 0 65 -65 0 -65 0 0 65 0 65 -65 0 -65
0 0 60 0 60 190 0 190 0 0 -60 0 -60 65 0 65 0 0 -65 0 -65 65 0 65 0 0 -65 0
-65 60 0 60 0 0 -60 0 -60 65 0 65 0 0 -65 0 -65 65 0 65 0 0 -65 0 -65 60 0
60 0 0 -60 0 -60 65 0 65 0 0 -65 0 -65 65 0 65 0 0 -65 0 -65 60 0 60 0 0
-60 0 -60 65 0 65 0 0 -65 0 -65 190 0 190 0 0 65 0 65 60 0 60 0 0 60 0 60
65 0 65 0 0 65 0 65 65 0 65 0 0 65 0 65 60 0 60 0 0 315 0 315 -60 0 -60 0 0
65 0 65 -65 0 -65 0 0 60 0 60 -65 0 -65 0 0 65 0 65 -60 0 -60 0 0 65 0 65
-65 0 -65 0 0 60 0 60 -65 0 -65 0 0 65 0 65 -60 0 -60 0 0 65 0 65 -65 0 -65
0 0 60 0 60 -60 0 -60 0 0 65 0 65 -65 0 -65 0 0 65 0 65 -65 0 -65 0 0 60 0
60 -60 0 -60 0 0 65 0 65 -65 0 -65 0 0 65 0 65 -65 0 -65 0 0 60 0 60 -60 0
-60 0 0 65 0 65 -65 0 -65 0 0 65 0 65 -65 0 -65 0 0 60 0 60 -60 0 -60 0 0
65 0 65 -65 0 -65 0 0 65 0 65 -125 0 -125 0 0 60 0 60 -130 0 -130 0 0 65 0
65 -60 0 -60 0 0 60 0 60 -130 0 -130 0 0 65 0 65 635 0 635 0 0 65 0 65 125
0 125 0 0 60 0 60 65 0 65 0 0 65 0 65 125 0 125 0 0 65 0 65 65 0 65 0 0 315
0 315 -65 0 -65 0 0 125 0 125 -60 0 -60 0 0 65 0 65 -65 0 -65 0 0 65 0 65
-315 0 -315 0 0 -65 0 -65 -1585 0 -1585 0 0 65 0 65 -380 0 -380 0 0 60 0 60
-250 0 -250 0 0 65 0 65 -255 0 -255 0 0 65 0 65 -125 0 -125 0 0 60 0 60 -65
0 -65 0 0 65 0 65 -125 0 -125 0 0 125 0 125 -65 0 -65 0 0 65 0 65 -65 0 -65
0 0 65 0 65 -125 0 -125 0 0 60 0 60 -125 0 -125 0 0 65 0 65 -255 0 -255 0 0
-65z m380 -125 l0 -60 125 0 125 0 0 -65 0 -65 130 0 130 0 0 -65 0 -65 60 0
60 0 0 -60 0 -60 65 0 65 0 0 -190 0 -190 -65 0 -65 0 0 -65 0 -65 -60 0 -60
0 0 -65 0 -65 -65 0 -65 0 0 -60 0 -60 -65 0 -65 0 0 -65 0 -65 -60 0 -60 0 0
-65 0 -65 -65 0 -65 0 0 65 0 65 -65 0 -65 0 0 65 0 65 -60 0 -60 0 0 60 0 60
-65 0 -65 0 0 65 0 65 -60 0 -60 0 0 65 0 65 -65 0 -65 0 0 -65 0 -65 -65 0
-65 0 0 65 0 65 -60 0 -60 0 0 -65 0 -65 -65 0 -65 0 0 -65 0 -65 -65 0 -65 0
0 -60 0 -60 -60 0 -60 0 0 -65 0 -65 -65 0 -65 0 0 -65 0 -65 -65 0 -65 0 0
-60 0 -60 -60 0 -60 0 0 -65 0 -65 -65 0 -65 0 0 -65 0 -65 -65 0 -65 0 0
-125 0 -125 -60 0 -60 0 0 -65 0 -65 -65 0 -65 0 0 -60 0 -60 -65 0 -65 0 0
-65 0 -65 -125 0 -125 0 0 -65 0 -65 -65 0 -65 0 0 -60 0 -60 -60 0 -60 0 0
60 0 60 60 0 60 0 0 65 0 65 65 0 65 0 0 65 0 65 65 0 65 0 0 60 0 60 60 0 60
0 0 65 0 65 65 0 65 0 0 65 0 65 65 0 65 0 0 60 0 60 60 0 60 0 0 65 0 65 65
0 65 0 0 65 0 65 65 0 65 0 0 60 0 60 60 0 60 0 0 65 0 65 65 0 65 0 0 65 0
65 65 0 65 0 0 60 0 60 60 0 60 0 0 65 0 65 65 0 65 0 0 65 0 65 65 0 65 0 0
60 0 60 60 0 60 0 0 65 0 65 65 0 65 0 0 65 0 65 65 0 65 0 0 60 0 60 60 0 60
0 0 65 0 65 65 0 65 0 0 65 0 65 60 0 60 0 0 60 0 60 65 0 65 0 0 -60z m1010
-760 l0 -60 65 0 65 0 0 -65 0 -65 125 0 125 0 0 -65 0 -65 255 0 255 0 0 -60
0 -60 255 0 255 0 0 -65 0 -65 380 0 380 0 0 -65 0 -65 1705 0 1705 0 0 65 0
65 190 0 190 0 0 -65 0 -65 65 0 65 0 0 -60 0 -60 65 0 65 0 0 -65 0 -65 -65
0 -65 0 0 -65 0 -65 65 0 65 0 0 -60 0 -60 60 0 60 0 0 -65 0 -65 -60 0 -60 0
0 -65 0 -65 -65 0 -65 0 0 -60 0 -60 -65 0 -65 0 0 -65 0 -65 -60 0 -60 0 0
-65 0 -65 -65 0 -65 0 0 65 0 65 -65 0 -65 0 0 -65 0 -65 -60 0 -60 0 0 -60 0
-60 -65 0 -65 0 0 60 0 60 -65 0 -65 0 0 -60 0 -60 -60 0 -60 0 0 60 0 60 -65
0 -65 0 0 -60 0 -60 -65 0 -65 0 0 60 0 60 -60 0 -60 0 0 -60 0 -60 -65 0 -65
0 0 60 0 60 -65 0 -65 0 0 -60 0 -60 -60 0 -60 0 0 60 0 60 -65 0 -65 0 0 -60
0 -60 -65 0 -65 0 0 60 0 60 -60 0 -60 0 0 65 0 65 -65 0 -65 0 0 65 0 65 -65
0 -65 0 0 60 0 60 -60 0 -60 0 0 -60 0 -60 -65 0 -65 0 0 -65 0 -65 65 0 65 0
0 -65 0 -65 60 0 60 0 0 -60 0 -60 65 0 65 0 0 -65 0 -65 65 0 65 0 0 -65 0
-65 60 0 60 0 0 65 0 65 65 0 65 0 0 -65 0 -65 65 0 65 0 0 -60 0 -60 60 0 60
0 0 -65 0 -65 65 0 65 0 0 -60 0 -60 65 0 65 0 0 -65 0 -65 60 0 60 0 0 65 0
65 65 0 65 0 0 -65 0 -65 125 0 125 0 0 -65 0 -65 65 0 65 0 0 -60 0 -60 65 0
65 0 0 -130 0 -130 60 0 60 0 0 -60 0 -60 130 0 130 0 0 -65 0 -65 60 0 60 0
0 -65 0 -65 65 0 65 0 0 -60 0 -60 65 0 65 0 0 -65 0 -65 60 0 60 0 0 -65 0
-65 65 0 65 0 0 -60 0 -60 65 0 65 0 0 -65 0 -65 60 0 60 0 0 -65 0 -65 65 0
65 0 0 -60 0 -60 60 0 60 0 0 -65 0 -65 65 0 65 0 0 -65 0 -65 65 0 65 0 0
-60 0 -60 60 0 60 0 0 -65 0 -65 65 0 65 0 0 -65 0 -65 65 0 65 0 0 -125 0
-125 -65 0 -65 0 0 -65 0 -65 -65 0 -65 0 0 -60 0 -60 -60 0 -60 0 0 -65 0
-65 -65 0 -65 0 0 -65 0 -65 -65 0 -65 0 0 65 0 65 -60 0 -60 0 0 65 0 65 -65
0 -65 0 0 60 0 60 -60 0 -60 0 0 65 0 65 -65 0 -65 0 0 65 0 65 -65 0 -65 0 0
60 0 60 -60 0 -60 0 0 65 0 65 -65 0 -65 0 0 65 0 65 -65 0 -65 0 0 60 0 60
-60 0 -60 0 0 65 0 65 -65 0 -65 0 0 65 0 65 65 0 65 0 0 60 0 60 60 0 60 0 0
65 0 65 -60 0 -60 0 0 65 0 65 60 0 60 0 0 60 0 60 -60 0 -60 0 0 190 0 190
-65 0 -65 0 0 65 0 65 -65 0 -65 0 0 65 0 65 -60 0 -60 0 0 60 0 60 -65 0 -65
0 0 -60 0 -60 -65 0 -65 0 0 60 0 60 -60 0 -60 0 0 -60 0 -60 -65 0 -65 0 0
60 0 60 -65 0 -65 0 0 65 0 65 -60 0 -60 0 0 -65 0 -65 -65 0 -65 0 0 65 0 65
-65 0 -65 0 0 -65 0 -65 -60 0 -60 0 0 65 0 65 -65 0 -65 0 0 -65 0 -65 -65 0
-65 0 0 65 0 65 -60 0 -60 0 0 -65 0 -65 -65 0 -65 0 0 65 0 65 -65 0 -65 0 0
-65 0 -65 -60 0 -60 0 0 65 0 65 -65 0 -65 0 0 65 0 65 -65 0 -65 0 0 -65 0
-65 -60 0 -60 0 0 65 0 65 -65 0 -65 0 0 -65 0 -65 -65 0 -65 0 0 65 0 65 -60
0 -60 0 0 60 0 60 -65 0 -65 0 0 -60 0 -60 -60 0 -60 0 0 60 0 60 -65 0 -65 0
0 -60 0 -60 -65 0 -65 0 0 60 0 60 -60 0 -60 0 0 65 0 65 -65 0 -65 0 0 -65 0
-65 -65 0 -65 0 0 65 0 65 -60 0 -60 0 0 65 0 65 -65 0 -65 0 0 60 0 60 -65 0
-65 0 0 -60 0 -60 -60 0 -60 0 0 60 0 60 -65 0 -65 0 0 65 0 65 -65 0 -65 0 0
60 0 60 -60 0 -60 0 0 -60 0 -60 -65 0 -65 0 0 60 0 60 -65 0 -65 0 0 65 0 65
-60 0 -60 0 0 65 0 65 -65 0 -65 0 0 60 0 60 -65 0 -65 0 0 65 0 65 -60 0 -60
0 0 -65 0 -65 -65 0 -65 0 0 65 0 65 -65 0 -65 0 0 65 0 65 -60 0 -60 0 0 60
0 60 -65 0 -65 0 0 65 0 65 -65 0 -65 0 0 65 0 65 -60 0 -60 0 0 60 0 60 -65
0 -65 0 0 65 0 65 -65 0 -65 0 0 65 0 65 65 0 65 0 0 60 0 60 65 0 65 0 0 65
0 65 60 0 60 0 0 125 0 125 65 0 65 0 0 65 0 65 65 0 65 0 0 125 0 125 60 0
60 0 0 -60z m-1770 -505 l0 -65 65 0 65 0 0 -65 0 -65 65 0 65 0 0 -60 0 -60
60 0 60 0 0 -65 0 -65 65 0 65 0 0 -65 0 -65 60 0 60 0 0 -60 0 -60 65 0 65 0
0 -65 0 -65 65 0 65 0 0 -65 0 -65 60 0 60 0 0 -60 0 -60 -60 0 -60 0 0 -65 0
-65 -65 0 -65 0 0 -65 0 -65 -65 0 -65 0 0 -60 0 -60 -60 0 -60 0 0 -65 0 -65
-65 0 -65 0 0 -125 0 -125 -60 0 -60 0 0 -65 0 -65 -65 0 -65 0 0 -60 0 -60
-65 0 -65 0 0 -65 0 -65 -60 0 -60 0 0 -65 0 -65 -65 0 -65 0 0 -60 0 -60 -65
0 -65 0 0 -65 0 -65 -60 0 -60 0 0 -65 0 -65 -65 0 -65 0 0 -60 0 -60 -65 0
-65 0 0 -65 0 -65 -60 0 -60 0 0 -65 0 -65 -65 0 -65 0 0 -60 0 -60 -65 0 -65
0 0 -65 0 -65 -60 0 -60 0 0 -65 0 -65 -65 0 -65 0 0 -60 0 -60 -65 0 -65 0 0
-65 0 -65 -60 0 -60 0 0 -65 0 -65 -65 0 -65 0 0 -60 0 -60 -65 0 -65 0 0 -65
0 -65 -60 0 -60 0 0 -65 0 -65 -130 0 -130 0 0 -60 0 -60 -60 0 -60 0 0 60 0
60 -65 0 -65 0 0 65 0 65 -65 0 -65 0 0 65 0 65 -60 0 -60 0 0 60 0 60 -65 0
-65 0 0 65 0 65 -125 0 -125 0 0 380 0 380 60 0 60 0 0 65 0 65 65 0 65 0 0
60 0 60 65 0 65 0 0 65 0 65 60 0 60 0 0 65 0 65 65 0 65 0 0 60 0 60 65 0 65
0 0 65 0 65 60 0 60 0 0 65 0 65 65 0 65 0 0 60 0 60 65 0 65 0 0 65 0 65 60
0 60 0 0 60 0 60 65 0 65 0 0 65 0 65 65 0 65 0 0 65 0 65 60 0 60 0 0 60 0
60 65 0 65 0 0 65 0 65 65 0 65 0 0 65 0 65 60 0 60 0 0 60 0 60 65 0 65 0 0
65 0 65 65 0 65 0 0 65 0 65 60 0 60 0 0 60 0 60 65 0 65 0 0 65 0 65 65 0 65
0 0 65 0 65 60 0 60 0 0 60 0 60 65 0 65 0 0 65 0 65 65 0 65 0 0 65 0 65 60
0 60 0 0 -65z m1270 -1270 l0 -65 60 0 60 0 0 -60 0 -60 65 0 65 0 0 60 0 60
65 0 65 0 0 -60 0 -60 60 0 60 0 0 -65 0 -65 65 0 65 0 0 -65 0 -65 65 0 65 0
0 -60 0 -60 60 0 60 0 0 -65 0 -65 65 0 65 0 0 65 0 65 65 0 65 0 0 -65 0 -65
60 0 60 0 0 -60 0 -60 65 0 65 0 0 -65 0 -65 65 0 65 0 0 -65 0 -65 60 0 60 0
0 65 0 65 65 0 65 0 0 -65 0 -65 65 0 65 0 0 -60 0 -60 60 0 60 0 0 -65 0 -65
65 0 65 0 0 65 0 65 65 0 65 0 0 -65 0 -65 190 0 190 0 0 -65 0 -65 250 0 250
0 0 -60 0 -60 315 0 315 0 0 -65 0 -65 380 0 380 0 0 -65 0 -65 65 0 65 0 0
65 0 65 315 0 315 0 0 -65 0 -65 190 0 190 0 0 -60 0 -60 65 0 65 0 0 60 0 60
65 0 65 0 0 -60 0 -60 60 0 60 0 0 -65 0 -65 -60 0 -60 0 0 -65 0 -65 60 0 60
0 0 -60 0 -60 -60 0 -60 0 0 -65 0 -65 -65 0 -65 0 0 -65 0 -65 -65 0 -65 0 0
-60 0 -60 -60 0 -60 0 0 60 0 60 -65 0 -65 0 0 -60 0 -60 -65 0 -65 0 0 -65 0
-65 -60 0 -60 0 0 65 0 65 -65 0 -65 0 0 -65 0 -65 -65 0 -65 0 0 65 0 65 -60
0 -60 0 0 -65 0 -65 -65 0 -65 0 0 -65 0 -65 -65 0 -65 0 0 65 0 65 -60 0 -60
0 0 -65 0 -65 -65 0 -65 0 0 65 0 65 -65 0 -65 0 0 -65 0 -65 -60 0 -60 0 0
65 0 65 -65 0 -65 0 0 -65 0 -65 -65 0 -65 0 0 -60 0 -60 -60 0 -60 0 0 -65 0
-65 60 0 60 0 0 -65 0 -65 65 0 65 0 0 -60 0 -60 -65 0 -65 0 0 -65 0 -65 65
0 65 0 0 -65 0 -65 65 0 65 0 0 -60 0 -60 60 0 60 0 0 -65 0 -65 65 0 65 0 0
-65 0 -65 65 0 65 0 0 -60 0 -60 60 0 60 0 0 -65 0 -65 65 0 65 0 0 -65 0 -65
65 0 65 0 0 -60 0 -60 60 0 60 0 0 -65 0 -65 65 0 65 0 0 -60 0 -60 65 0 65 0
0 -65 0 -65 60 0 60 0 0 -65 0 -65 65 0 65 0 0 -60 0 -60 65 0 65 0 0 -65 0
-65 60 0 60 0 0 -65 0 -65 65 0 65 0 0 -60 0 -60 65 0 65 0 0 -65 0 -65 60 0
60 0 0 -65 0 -65 65 0 65 0 0 -60 0 -60 65 0 65 0 0 -65 0 -65 -65 0 -65 0 0
-65 0 -65 65 0 65 0 0 -60 0 -60 60 0 60 0 0 60 0 60 65 0 65 0 0 -60 0 -60
-65 0 -65 0 0 -65 0 -65 65 0 65 0 0 -65 0 -65 65 0 65 0 0 -60 0 -60 -65 0
-65 0 0 -65 0 -65 -65 0 -65 0 0 -125 0 -125 -315 0 -315 0 0 60 0 60 -65 0
-65 0 0 65 0 65 -60 0 -60 0 0 65 0 65 -65 0 -65 0 0 60 0 60 -65 0 -65 0 0
65 0 65 -60 0 -60 0 0 65 0 65 -65 0 -65 0 0 60 0 60 -65 0 -65 0 0 65 0 65
-60 0 -60 0 0 65 0 65 -65 0 -65 0 0 60 0 60 -65 0 -65 0 0 65 0 65 -60 0 -60
0 0 65 0 65 -65 0 -65 0 0 60 0 60 -65 0 -65 0 0 65 0 65 -60 0 -60 0 0 65 0
65 -65 0 -65 0 0 60 0 60 -65 0 -65 0 0 65 0 65 -60 0 -60 0 0 65 0 65 -65 0
-65 0 0 125 0 125 -65 0 -65 0 0 -65 0 -65 -60 0 -60 0 0 -60 0 -60 60 0 60 0
0 -65 0 -65 65 0 65 0 0 -65 0 -65 65 0 65 0 0 -60 0 -60 60 0 60 0 0 -65 0
-65 65 0 65 0 0 -65 0 -65 65 0 65 0 0 -60 0 -60 60 0 60 0 0 -65 0 -65 65 0
65 0 0 -65 0 -65 65 0 65 0 0 -60 0 -60 60 0 60 0 0 -65 0 -65 65 0 65 0 0
-65 0 -65 65 0 65 0 0 -60 0 -60 60 0 60 0 0 -65 0 -65 65 0 65 0 0 -65 0 -65
65 0 65 0 0 -60 0 -60 60 0 60 0 0 -65 0 -65 65 0 65 0 0 -65 0 -65 65 0 65 0
0 -60 0 -60 60 0 60 0 0 -65 0 -65 65 0 65 0 0 -65 0 -65 -65 0 -65 0 0 -60 0
-60 65 0 65 0 0 -65 0 -65 -65 0 -65 0 0 -65 0 -65 65 0 65 0 0 -60 0 -60 -65
0 -65 0 0 -65 0 -65 -125 0 -125 0 0 -65 0 -65 -125 0 -125 0 0 65 0 65 -130
0 -130 0 0 65 0 65 -60 0 -60 0 0 60 0 60 -65 0 -65 0 0 65 0 65 -65 0 -65 0
0 65 0 65 -60 0 -60 0 0 60 0 60 -65 0 -65 0 0 65 0 65 -65 0 -65 0 0 65 0 65
-60 0 -60 0 0 60 0 60 -65 0 -65 0 0 65 0 65 -65 0 -65 0 0 65 0 65 -60 0 -60
0 0 60 0 60 -65 0 -65 0 0 65 0 65 -65 0 -65 0 0 65 0 65 -60 0 -60 0 0 60 0
60 -65 0 -65 0 0 65 0 65 -60 0 -60 0 0 65 0 65 -65 0 -65 0 0 60 0 60 -65 0
-65 0 0 65 0 65 -60 0 -60 0 0 65 0 65 -130 0 -130 0 0 -65 0 -65 -60 0 -60 0
0 -65 0 -65 60 0 60 0 0 -60 0 -60 65 0 65 0 0 60 0 60 65 0 65 0 0 -60 0 -60
60 0 60 0 0 -65 0 -65 65 0 65 0 0 -65 0 -65 65 0 65 0 0 -60 0 -60 60 0 60 0
0 -65 0 -65 65 0 65 0 0 -65 0 -65 60 0 60 0 0 -60 0 -60 65 0 65 0 0 -65 0
-65 65 0 65 0 0 -65 0 -65 60 0 60 0 0 -60 0 -60 65 0 65 0 0 -65 0 -65 65 0
65 0 0 -65 0 -65 60 0 60 0 0 -60 0 -60 65 0 65 0 0 -65 0 -65 65 0 65 0 0
-65 0 -65 60 0 60 0 0 -60 0 -60 65 0 65 0 0 -65 0 -65 65 0 65 0 0 -65 0 -65
60 0 60 0 0 -60 0 -60 -60 0 -60 0 0 -65 0 -65 -65 0 -65 0 0 -65 0 -65 65 0
65 0 0 -60 0 -60 -65 0 -65 0 0 -65 0 -65 -65 0 -65 0 0 -65 0 -65 -190 0
-190 0 0 65 0 65 -60 0 -60 0 0 65 0 65 -65 0 -65 0 0 60 0 60 -65 0 -65 0 0
65 0 65 -60 0 -60 0 0 65 0 65 -65 0 -65 0 0 60 0 60 -65 0 -65 0 0 65 0 65
-60 0 -60 0 0 65 0 65 -65 0 -65 0 0 60 0 60 -60 0 -60 0 0 65 0 65 -65 0 -65
0 0 65 0 65 -65 0 -65 0 0 60 0 60 -125 0 -125 0 0 65 0 65 -65 0 -65 0 0 65
0 65 -60 0 -60 0 0 60 0 60 -65 0 -65 0 0 65 0 65 -65 0 -65 0 0 65 0 65 -60
0 -60 0 0 60 0 60 -65 0 -65 0 0 65 0 65 -125 0 -125 0 0 -65 0 -65 -65 0 -65
0 0 -60 0 -60 65 0 65 0 0 -65 0 -65 60 0 60 0 0 65 0 65 65 0 65 0 0 -65 0
-65 65 0 65 0 0 -65 0 -65 60 0 60 0 0 -60 0 -60 65 0 65 0 0 -65 0 -65 65 0
65 0 0 -65 0 -65 60 0 60 0 0 -60 0 -60 65 0 65 0 0 -65 0 -65 65 0 65 0 0
-65 0 -65 60 0 60 0 0 -60 0 -60 65 0 65 0 0 -65 0 -65 65 0 65 0 0 -65 0 -65
60 0 60 0 0 -60 0 -60 65 0 65 0 0 -65 0 -65 60 0 60 0 0 -65 0 -65 65 0 65 0
0 -60 0 -60 65 0 65 0 0 -65 0 -65 -65 0 -65 0 0 -125 0 -125 -65 0 -65 0 0
-65 0 -65 -185 0 -185 0 0 65 0 65 -65 0 -65 0 0 60 0 60 -65 0 -65 0 0 65 0
65 -60 0 -60 0 0 65 0 65 -65 0 -65 0 0 60 0 60 -65 0 -65 0 0 65 0 65 -60 0
-60 0 0 65 0 65 -65 0 -65 0 0 60 0 60 -65 0 -65 0 0 65 0 65 -60 0 -60 0 0
65 0 65 -65 0 -65 0 0 60 0 60 -65 0 -65 0 0 65 0 65 -60 0 -60 0 0 65 0 65
-65 0 -65 0 0 60 0 60 -65 0 -65 0 0 65 0 65 -60 0 -60 0 0 65 0 65 -65 0 -65
0 0 60 0 60 -65 0 -65 0 0 65 0 65 -60 0 -60 0 0 65 0 65 -65 0 -65 0 0 60 0
60 -65 0 -65 0 0 65 0 65 -60 0 -60 0 0 65 0 65 -65 0 -65 0 0 60 0 60 -65 0
-65 0 0 65 0 65 -60 0 -60 0 0 65 0 65 -65 0 -65 0 0 60 0 60 -65 0 -65 0 0
65 0 65 -60 0 -60 0 0 65 0 65 -65 0 -65 0 0 60 0 60 -65 0 -65 0 0 65 0 65
-60 0 -60 0 0 65 0 65 -65 0 -65 0 0 60 0 60 -60 0 -60 0 0 65 0 65 -65 0 -65
0 0 65 0 65 -65 0 -65 0 0 60 0 60 -60 0 -60 0 0 65 0 65 -65 0 -65 0 0 60 0
60 -65 0 -65 0 0 65 0 65 -60 0 -60 0 0 65 0 65 -65 0 -65 0 0 60 0 60 -65 0
-65 0 0 65 0 65 -60 0 -60 0 0 65 0 65 -65 0 -65 0 0 60 0 60 -65 0 -65 0 0
65 0 65 -60 0 -60 0 0 65 0 65 -65 0 -65 0 0 60 0 60 -65 0 -65 0 0 65 0 65
-60 0 -60 0 0 65 0 65 -130 0 -130 0 0 60 0 60 65 0 65 0 0 65 0 65 65 0 65 0
0 65 0 65 60 0 60 0 0 60 0 60 65 0 65 0 0 65 0 65 65 0 65 0 0 65 0 65 60 0
60 0 0 60 0 60 65 0 65 0 0 65 0 65 65 0 65 0 0 65 0 65 60 0 60 0 0 60 0 60
65 0 65 0 0 65 0 65 65 0 65 0 0 65 0 65 60 0 60 0 0 60 0 60 65 0 65 0 0 65
0 65 65 0 65 0 0 65 0 65 60 0 60 0 0 60 0 60 65 0 65 0 0 65 0 65 65 0 65 0
0 65 0 65 60 0 60 0 0 60 0 60 65 0 65 0 0 65 0 65 60 0 60 0 0 60 0 60 65 0
65 0 0 65 0 65 65 0 65 0 0 65 0 65 60 0 60 0 0 60 0 60 65 0 65 0 0 65 0 65
65 0 65 0 0 -65z m-4310 -2655 l0 -60 65 0 65 0 0 -65 0 -65 65 0 65 0 0 -65
0 -65 -190 0 -190 0 0 -60 0 -60 -65 0 -65 0 0 -65 0 -65 -65 0 -65 0 0 -65 0
-65 -60 0 -60 0 0 -60 0 -60 -65 0 -65 0 0 125 0 125 65 0 65 0 0 65 0 65 60
0 60 0 0 60 0 60 65 0 65 0 0 65 0 65 65 0 65 0 0 125 0 125 60 0 60 0 0 -60z
m9750 -505 l0 -65 65 0 65 0 0 -65 0 -65 60 0 60 0 0 -60 0 -60 65 0 65 0 0
-65 0 -65 125 0 125 0 0 -65 0 -65 65 0 65 0 0 -60 0 -60 65 0 65 0 0 -65 0
-65 60 0 60 0 0 -65 0 -65 65 0 65 0 0 -60 0 -60 65 0 65 0 0 -65 0 -65 60 0
60 0 0 -65 0 -65 65 0 65 0 0 -60 0 -60 65 0 65 0 0 -65 0 -65 60 0 60 0 0
-250 0 -250 -60 0 -60 0 0 -65 0 -65 -65 0 -65 0 0 -65 0 -65 -65 0 -65 0 0
65 0 65 -60 0 -60 0 0 -65 0 -65 -65 0 -65 0 0 65 0 65 -65 0 -65 0 0 -65 0
-65 -60 0 -60 0 0 65 0 65 -65 0 -65 0 0 65 0 65 -65 0 -65 0 0 60 0 60 -60 0
-60 0 0 65 0 65 -65 0 -65 0 0 65 0 65 -65 0 -65 0 0 60 0 60 -60 0 -60 0 0
65 0 65 -65 0 -65 0 0 60 0 60 -65 0 -65 0 0 65 0 65 -60 0 -60 0 0 65 0 65
-65 0 -65 0 0 60 0 60 -65 0 -65 0 0 65 0 65 -60 0 -60 0 0 65 0 65 -65 0 -65
0 0 60 0 60 -65 0 -65 0 0 65 0 65 -60 0 -60 0 0 65 0 65 -65 0 -65 0 0 60 0
60 65 0 65 0 0 -60 0 -60 60 0 60 0 0 60 0 60 65 0 65 0 0 -60 0 -60 65 0 65
0 0 60 0 60 60 0 60 0 0 65 0 65 65 0 65 0 0 -65 0 -65 65 0 65 0 0 65 0 65
60 0 60 0 0 65 0 65 65 0 65 0 0 -65z m-8990 -380 l0 -315 130 0 130 0 0 -65
0 -65 440 0 440 0 0 -65 0 -65 130 0 130 0 0 -60 0 -60 -190 0 -190 0 0 60 0
60 -445 0 -445 0 0 65 0 65 -125 0 -125 0 0 65 0 65 -65 0 -65 0 0 125 0 125
65 0 65 0 0 190 0 190 60 0 60 0 0 -315z m510 250 l0 -65 65 0 65 0 0 -60 0
-60 60 0 60 0 0 -65 0 -65 65 0 65 0 0 -65 0 -65 65 0 65 0 0 -60 0 -60 -320
0 -320 0 0 60 0 60 -125 0 -125 0 0 255 0 255 190 0 190 0 0 -65z m1140 -1455
l0 -380 65 0 65 0 0 -60 0 -60 60 0 60 0 0 -65 0 -65 65 0 65 0 0 -65 0 -65
380 0 380 0 0 -60 0 -60 -445 0 -445 0 0 60 0 60 -125 0 -125 0 0 130 0 130
-65 0 -65 0 0 440 0 440 65 0 65 0 0 -380z m250 65 l0 -65 65 0 65 0 0 -60 0
-60 65 0 65 0 0 -65 0 -65 60 0 60 0 0 -65 0 -65 65 0 65 0 0 -60 0 -60 65 0
65 0 0 -65 0 -65 -190 0 -190 0 0 65 0 65 -65 0 -65 0 0 60 0 60 -65 0 -65 0
0 65 0 65 -60 0 -60 0 0 190 0 190 60 0 60 0 0 -65z"/>
<path d="M5440 12805 l0 -65 -65 0 -65 0 0 -65 0 -65 -65 0 -65 0 0 -60 0 -60
65 0 65 0 0 60 0 60 65 0 65 0 0 -60 0 -60 60 0 60 0 0 -65 0 -65 65 0 65 0 0
-65 0 -65 60 0 60 0 0 -60 0 -60 65 0 65 0 0 -65 0 -65 65 0 65 0 0 65 0 65
60 0 60 0 0 60 0 60 -60 0 -60 0 0 65 0 65 -65 0 -65 0 0 65 0 65 -65 0 -65 0
0 60 0 60 -60 0 -60 0 0 65 0 65 -65 0 -65 0 0 65 0 65 -60 0 -60 0 0 -65z
m120 -130 l0 -65 65 0 65 0 0 -60 0 -60 60 0 60 0 0 -65 0 -65 65 0 65 0 0
-65 0 -65 65 0 65 0 0 -60 0 -60 -65 0 -65 0 0 60 0 60 -65 0 -65 0 0 65 0 65
-60 0 -60 0 0 65 0 65 -65 0 -65 0 0 60 0 60 -60 0 -60 0 0 65 0 65 60 0 60 0
0 -65z"/>
<path d="M6700 12045 l0 -65 -65 0 -65 0 0 -65 0 -65 -60 0 -60 0 0 -60 0 -60
-65 0 -65 0 0 -65 0 -65 65 0 65 0 0 -65 0 -65 60 0 60 0 0 -60 0 -60 65 0 65
0 0 -65 0 -65 65 0 65 0 0 -65 0 -65 60 0 60 0 0 -60 0 -60 65 0 65 0 0 -65 0
-65 65 0 65 0 0 65 0 65 60 0 60 0 0 -65 0 -65 65 0 65 0 0 -65 0 -65 65 0 65
0 0 -60 0 -60 60 0 60 0 0 -65 0 -65 65 0 65 0 0 -65 0 -65 65 0 65 0 0 65 0
65 60 0 60 0 0 -65 0 -65 65 0 65 0 0 -60 0 -60 65 0 65 0 0 -65 0 -65 60 0
60 0 0 65 0 65 65 0 65 0 0 -65 0 -65 65 0 65 0 0 -60 0 -60 60 0 60 0 0 -65
0 -65 65 0 65 0 0 65 0 65 65 0 65 0 0 -65 0 -65 60 0 60 0 0 -65 0 -65 65 0
65 0 0 65 0 65 65 0 65 0 0 -65 0 -65 60 0 60 0 0 65 0 65 65 0 65 0 0 -65 0
-65 60 0 60 0 0 -60 0 -60 65 0 65 0 0 60 0 60 65 0 65 0 0 -60 0 -60 60 0 60
0 0 60 0 60 65 0 65 0 0 -60 0 -60 65 0 65 0 0 -65 0 -65 60 0 60 0 0 65 0 65
65 0 65 0 0 -65 0 -65 65 0 65 0 0 65 0 65 60 0 60 0 0 -65 0 -65 65 0 65 0 0
65 0 65 65 0 65 0 0 -65 0 -65 60 0 60 0 0 65 0 65 65 0 65 0 0 -65 0 -65 65
0 65 0 0 65 0 65 60 0 60 0 0 -65 0 -65 65 0 65 0 0 -65 0 -65 65 0 65 0 0 65
0 65 60 0 60 0 0 -65 0 -65 65 0 65 0 0 65 0 65 -65 0 -65 0 0 65 0 65 -60 0
-60 0 0 60 0 60 -65 0 -65 0 0 65 0 65 -65 0 -65 0 0 -65 0 -65 -60 0 -60 0 0
65 0 65 -65 0 -65 0 0 65 0 65 -65 0 -65 0 0 60 0 60 -60 0 -60 0 0 65 0 65
-65 0 -65 0 0 60 0 60 -65 0 -65 0 0 -60 0 -60 -60 0 -60 0 0 -65 0 -65 60 0
60 0 0 -60 0 -60 -60 0 -60 0 0 -65 0 -65 -65 0 -65 0 0 65 0 65 -65 0 -65 0
0 -65 0 -65 -60 0 -60 0 0 65 0 65 -65 0 -65 0 0 -65 0 -65 -65 0 -65 0 0 65
0 65 -60 0 -60 0 0 60 0 60 -65 0 -65 0 0 -60 0 -60 -65 0 -65 0 0 60 0 60
-60 0 -60 0 0 -60 0 -60 -65 0 -65 0 0 60 0 60 -60 0 -60 0 0 65 0 65 -65 0
-65 0 0 60 0 60 -65 0 -65 0 0 -60 0 -60 -60 0 -60 0 0 60 0 60 -65 0 -65 0 0
65 0 65 -65 0 -65 0 0 -65 0 -65 -60 0 -60 0 0 65 0 65 -65 0 -65 0 0 65 0 65
-65 0 -65 0 0 60 0 60 -60 0 -60 0 0 65 0 65 -65 0 -65 0 0 -65 0 -65 -65 0
-65 0 0 65 0 65 -60 0 -60 0 0 65 0 65 -65 0 -65 0 0 60 0 60 -65 0 -65 0 0
65 0 65 -60 0 -60 0 0 65 0 65 -65 0 -65 0 0 60 0 60 -65 0 -65 0 0 -60 0 -60
-60 0 -60 0 0 60 0 60 -65 0 -65 0 0 65 0 65 -65 0 -65 0 0 65 0 65 -60 0 -60
0 0 60 0 60 60 0 60 0 0 65 0 65 -60 0 -60 0 0 65 0 65 -65 0 -65 0 0 -65z
m130 -130 l0 -65 -65 0 -65 0 0 -60 0 -60 65 0 65 0 0 -65 0 -65 60 0 60 0 0
-65 0 -65 65 0 65 0 0 -60 0 -60 65 0 65 0 0 -65 0 -65 60 0 60 0 0 65 0 65
65 0 65 0 0 -65 0 -65 65 0 65 0 0 -65 0 -65 60 0 60 0 0 -60 0 -60 65 0 65 0
0 -65 0 -65 65 0 65 0 0 -65 0 -65 60 0 60 0 0 -60 0 -60 65 0 65 0 0 60 0 60
65 0 65 0 0 -60 0 -60 60 0 60 0 0 -65 0 -65 65 0 65 0 0 -65 0 -65 65 0 65 0
0 -60 0 -60 60 0 60 0 0 60 0 60 65 0 65 0 0 -60 0 -60 65 0 65 0 0 -65 0 -65
60 0 60 0 0 65 0 65 65 0 65 0 0 -65 0 -65 65 0 65 0 0 -60 0 -60 60 0 60 0 0
-65 0 -65 -60 0 -60 0 0 65 0 65 -65 0 -65 0 0 -65 0 -65 -65 0 -65 0 0 65 0
65 -60 0 -60 0 0 60 0 60 -65 0 -65 0 0 -60 0 -60 -65 0 -65 0 0 60 0 60 -60
0 -60 0 0 65 0 65 -65 0 -65 0 0 60 0 60 -65 0 -65 0 0 -60 0 -60 -60 0 -60 0
0 60 0 60 -65 0 -65 0 0 65 0 65 -65 0 -65 0 0 65 0 65 -60 0 -60 0 0 -65 0
-65 -65 0 -65 0 0 65 0 65 -65 0 -65 0 0 60 0 60 -60 0 -60 0 0 65 0 65 -65 0
-65 0 0 65 0 65 -65 0 -65 0 0 60 0 60 -60 0 -60 0 0 -60 0 -60 -65 0 -65 0 0
60 0 60 -65 0 -65 0 0 65 0 65 -60 0 -60 0 0 65 0 65 -65 0 -65 0 0 60 0 60
-65 0 -65 0 0 65 0 65 -60 0 -60 0 0 65 0 65 60 0 60 0 0 60 0 60 65 0 65 0 0
65 0 65 65 0 65 0 0 -65z m4300 -1770 l0 -65 65 0 65 0 0 -60 0 -60 60 0 60 0
0 -65 0 -65 65 0 65 0 0 -65 0 -65 65 0 65 0 0 -60 0 -60 -65 0 -65 0 0 60 0
60 -65 0 -65 0 0 -60 0 -60 -60 0 -60 0 0 60 0 60 -65 0 -65 0 0 -60 0 -60
-65 0 -65 0 0 60 0 60 -60 0 -60 0 0 -60 0 -60 -65 0 -65 0 0 60 0 60 -65 0
-65 0 0 -60 0 -60 -60 0 -60 0 0 60 0 60 -65 0 -65 0 0 65 0 65 65 0 65 0 0
-65 0 -65 60 0 60 0 0 65 0 65 65 0 65 0 0 -65 0 -65 65 0 65 0 0 65 0 65 60
0 60 0 0 65 0 65 65 0 65 0 0 60 0 60 -65 0 -65 0 0 65 0 65 65 0 65 0 0 -65z
m-1270 -250 l0 -65 65 0 65 0 0 65 0 65 65 0 65 0 0 -65 0 -65 60 0 60 0 0
-65 0 -65 -60 0 -60 0 0 65 0 65 -65 0 -65 0 0 -65 0 -65 -65 0 -65 0 0 65 0
65 -60 0 -60 0 0 65 0 65 60 0 60 0 0 -65z m2030 -255 l0 -60 65 0 65 0 0 -65
0 -65 -65 0 -65 0 0 65 0 65 -65 0 -65 0 0 60 0 60 65 0 65 0 0 -60z"/>
<path d="M6570 11665 l0 -65 65 0 65 0 0 -65 0 -65 65 0 65 0 0 -60 0 -60 60
0 60 0 0 -65 0 -65 65 0 65 0 0 -65 0 -65 65 0 65 0 0 65 0 65 -65 0 -65 0 0
65 0 65 -65 0 -65 0 0 60 0 60 -60 0 -60 0 0 65 0 65 -65 0 -65 0 0 65 0 65
-65 0 -65 0 0 -65z"/>
<path d="M7330 11155 l0 -65 65 0 65 0 0 -60 0 -60 65 0 65 0 0 -65 0 -65 60
0 60 0 0 -65 0 -65 65 0 65 0 0 -60 0 -60 65 0 65 0 0 60 0 60 -65 0 -65 0 0
65 0 65 -65 0 -65 0 0 65 0 65 -60 0 -60 0 0 60 0 60 -65 0 -65 0 0 65 0 65
-65 0 -65 0 0 -65z"/>
<path d="M8220 10525 l0 -65 65 0 65 0 0 -65 0 -65 60 0 60 0 0 65 0 65 -60 0
-60 0 0 65 0 65 -65 0 -65 0 0 -65z"/>
<path d="M8850 10145 l0 -65 65 0 65 0 0 65 0 65 -65 0 -65 0 0 -65z"/>
<path d="M9230 10020 l0 -60 65 0 65 0 0 60 0 60 -65 0 -65 0 0 -60z"/>
<path d="M11130 9895 l0 -65 -65 0 -65 0 0 -65 0 -65 65 0 65 0 0 65 0 65 65
0 65 0 0 -65 0 -65 60 0 60 0 0 65 0 65 -60 0 -60 0 0 65 0 65 -65 0 -65 0 0
-65z"/>
<path d="M12900 11665 l0 -65 -60 0 -60 0 0 -65 0 -65 -65 0 -65 0 0 65 0 65
-65 0 -65 0 0 -65 0 -65 -60 0 -60 0 0 65 0 65 -65 0 -65 0 0 -65 0 -65 -65 0
-65 0 0 -60 0 -60 -60 0 -60 0 0 -65 0 -65 -65 0 -65 0 0 65 0 65 -65 0 -65 0
0 -65 0 -65 -60 0 -60 0 0 65 0 65 -65 0 -65 0 0 -65 0 -65 -65 0 -65 0 0 65
0 65 -60 0 -60 0 0 -65 0 -65 -65 0 -65 0 0 65 0 65 -65 0 -65 0 0 -65 0 -65
-60 0 -60 0 0 65 0 65 -65 0 -65 0 0 -65 0 -65 -65 0 -65 0 0 65 0 65 -60 0
-60 0 0 -65 0 -65 -65 0 -65 0 0 65 0 65 -65 0 -65 0 0 -65 0 -65 -60 0 -60 0
0 -65 0 -65 60 0 60 0 0 -60 0 -60 65 0 65 0 0 60 0 60 65 0 65 0 0 65 0 65
60 0 60 0 0 -65 0 -65 65 0 65 0 0 -60 0 -60 65 0 65 0 0 -65 0 -65 60 0 60 0
0 -65 0 -65 65 0 65 0 0 65 0 65 65 0 65 0 0 -65 0 -65 60 0 60 0 0 65 0 65
65 0 65 0 0 -65 0 -65 65 0 65 0 0 65 0 65 60 0 60 0 0 -65 0 -65 65 0 65 0 0
65 0 65 65 0 65 0 0 -65 0 -65 60 0 60 0 0 65 0 65 65 0 65 0 0 -65 0 -65 65
0 65 0 0 65 0 65 60 0 60 0 0 65 0 65 65 0 65 0 0 -65 0 -65 65 0 65 0 0 65 0
65 60 0 60 0 0 60 0 60 65 0 65 0 0 65 0 65 65 0 65 0 0 65 0 65 -65 0 -65 0
0 60 0 60 -65 0 -65 0 0 65 0 65 65 0 65 0 0 65 0 65 -65 0 -65 0 0 -65z
m-500 -255 l0 -60 60 0 60 0 0 60 0 60 65 0 65 0 0 -60 0 -60 65 0 65 0 0 60
0 60 60 0 60 0 0 -60 0 -60 65 0 65 0 0 -65 0 -65 -65 0 -65 0 0 -65 0 -65
-60 0 -60 0 0 -60 0 -60 -65 0 -65 0 0 60 0 60 -65 0 -65 0 0 -60 0 -60 -60 0
-60 0 0 -65 0 -65 -65 0 -65 0 0 65 0 65 -65 0 -65 0 0 -65 0 -65 -60 0 -60 0
0 65 0 65 -65 0 -65 0 0 -65 0 -65 -65 0 -65 0 0 65 0 65 -60 0 -60 0 0 -65 0
-65 -65 0 -65 0 0 65 0 65 -65 0 -65 0 0 -65 0 -65 -60 0 -60 0 0 65 0 65 -65
0 -65 0 0 -65 0 -65 -65 0 -65 0 0 65 0 65 -60 0 -60 0 0 60 0 60 -65 0 -65 0
0 65 0 65 65 0 65 0 0 -65 0 -65 60 0 60 0 0 65 0 65 65 0 65 0 0 -65 0 -65
65 0 65 0 0 65 0 65 60 0 60 0 0 -65 0 -65 65 0 65 0 0 65 0 65 65 0 65 0 0
-65 0 -65 60 0 60 0 0 65 0 65 65 0 65 0 0 -65 0 -65 65 0 65 0 0 65 0 65 60
0 60 0 0 65 0 65 65 0 65 0 0 60 0 60 65 0 65 0 0 -60z m-2030 -255 l0 -65
-65 0 -65 0 0 65 0 65 65 0 65 0 0 -65z"/>
<path d="M12270 11285 l0 -65 -65 0 -65 0 0 -65 0 -65 -60 0 -60 0 0 -60 0
-60 60 0 60 0 0 60 0 60 65 0 65 0 0 -60 0 -60 65 0 65 0 0 60 0 60 60 0 60 0
0 65 0 65 65 0 65 0 0 -65 0 -65 65 0 65 0 0 65 0 65 60 0 60 0 0 65 0 65 -60
0 -60 0 0 -65 0 -65 -65 0 -65 0 0 65 0 65 -65 0 -65 0 0 -65 0 -65 -60 0 -60
0 0 65 0 65 -65 0 -65 0 0 -65z m130 -130 l0 -65 -65 0 -65 0 0 65 0 65 65 0
65 0 0 -65z"/>
<path d="M11000 11030 l0 -60 65 0 65 0 0 60 0 60 -65 0 -65 0 0 -60z"/>
<path d="M11260 11030 l0 -60 60 0 60 0 0 60 0 60 -60 0 -60 0 0 -60z"/>
<path d="M11510 11030 l0 -60 65 0 65 0 0 60 0 60 -65 0 -65 0 0 -60z"/>
<path d="M11760 11030 l0 -60 65 0 65 0 0 60 0 60 -65 0 -65 0 0 -60z"/>
<path d="M10240 10775 l0 -65 65 0 65 0 0 -60 0 -60 -65 0 -65 0 0 -65 0 -65
65 0 65 0 0 65 0 65 65 0 65 0 0 -65 0 -65 60 0 60 0 0 65 0 65 -60 0 -60 0 0
60 0 60 -65 0 -65 0 0 65 0 65 -65 0 -65 0 0 -65z"/>
<path d="M12900 8375 l0 -65 65 0 65 0 0 65 0 65 -65 0 -65 0 0 -65z"/>
<path d="M12900 8120 l0 -60 -60 0 -60 0 0 -65 0 -65 60 0 60 0 0 -65 0 -65
65 0 65 0 0 -60 0 -60 65 0 65 0 0 -65 0 -65 60 0 60 0 0 -65 0 -65 65 0 65 0
0 -60 0 -60 65 0 65 0 0 -65 0 -65 60 0 60 0 0 -65 0 -65 65 0 65 0 0 -60 0
-60 60 0 60 0 0 -65 0 -65 65 0 65 0 0 65 0 65 65 0 65 0 0 60 0 60 60 0 60 0
0 65 0 65 65 0 65 0 0 65 0 65 -65 0 -65 0 0 60 0 60 -60 0 -60 0 0 65 0 65
-65 0 -65 0 0 65 0 65 -65 0 -65 0 0 60 0 60 -60 0 -60 0 0 65 0 65 -65 0 -65
0 0 65 0 65 -60 0 -60 0 0 60 0 60 -65 0 -65 0 0 -60 0 -60 -65 0 -65 0 0 60
0 60 -60 0 -60 0 0 -60 0 -60 -65 0 -65 0 0 60 0 60 -65 0 -65 0 0 -60z m130
-125 l0 -65 65 0 65 0 0 65 0 65 60 0 60 0 0 -65 0 -65 65 0 65 0 0 65 0 65
65 0 65 0 0 -65 0 -65 60 0 60 0 0 -65 0 -65 65 0 65 0 0 -60 0 -60 60 0 60 0
0 -65 0 -65 65 0 65 0 0 -65 0 -65 65 0 65 0 0 -60 0 -60 60 0 60 0 0 -65 0
-65 -60 0 -60 0 0 -65 0 -65 -65 0 -65 0 0 -60 0 -60 -65 0 -65 0 0 60 0 60
-60 0 -60 0 0 65 0 65 -65 0 -65 0 0 65 0 65 -60 0 -60 0 0 60 0 60 -65 0 -65
0 0 65 0 65 -65 0 -65 0 0 65 0 65 -60 0 -60 0 0 60 0 60 -65 0 -65 0 0 65 0
65 -65 0 -65 0 0 65 0 65 65 0 65 0 0 -65z"/>
<path d="M13160 7865 l0 -65 60 0 60 0 0 -60 0 -60 65 0 65 0 0 -65 0 -65 65
0 65 0 0 -65 0 -65 60 0 60 0 0 -60 0 -60 65 0 65 0 0 -65 0 -65 60 0 60 0 0
-65 0 -65 65 0 65 0 0 65 0 65 65 0 65 0 0 65 0 65 -65 0 -65 0 0 60 0 60 -65
0 -65 0 0 65 0 65 -60 0 -60 0 0 65 0 65 -65 0 -65 0 0 60 0 60 -60 0 -60 0 0
65 0 65 -65 0 -65 0 0 -65 0 -65 -65 0 -65 0 0 65 0 65 -60 0 -60 0 0 -65z
m380 -125 l0 -60 60 0 60 0 0 -65 0 -65 65 0 65 0 0 -65 0 -65 60 0 60 0 0
-60 0 -60 65 0 65 0 0 -65 0 -65 -65 0 -65 0 0 65 0 65 -60 0 -60 0 0 60 0 60
-65 0 -65 0 0 65 0 65 -60 0 -60 0 0 65 0 65 -65 0 -65 0 0 60 0 60 65 0 65 0
0 -60z"/>
<path d="M5060 11915 l0 -65 -65 0 -65 0 0 -60 0 -60 -65 0 -65 0 0 -65 0 -65
-60 0 -60 0 0 -65 0 -65 -65 0 -65 0 0 -60 0 -60 65 0 65 0 0 60 0 60 60 0 60
0 0 -60 0 -60 65 0 65 0 0 -65 0 -65 65 0 65 0 0 -65 0 -65 60 0 60 0 0 -60 0
-60 -60 0 -60 0 0 -65 0 -65 60 0 60 0 0 -65 0 -65 65 0 65 0 0 -60 0 -60 65
0 65 0 0 60 0 60 60 0 60 0 0 -60 0 -60 65 0 65 0 0 60 0 60 60 0 60 0 0 65 0
65 65 0 65 0 0 65 0 65 65 0 65 0 0 60 0 60 -65 0 -65 0 0 65 0 65 -65 0 -65
0 0 65 0 65 -60 0 -60 0 0 60 0 60 -65 0 -65 0 0 65 0 65 -60 0 -60 0 0 65 0
65 -65 0 -65 0 0 60 0 60 -65 0 -65 0 0 65 0 65 -60 0 -60 0 0 -65z m120 -125
l0 -60 65 0 65 0 0 -65 0 -65 65 0 65 0 0 -65 0 -65 60 0 60 0 0 -60 0 -60 65
0 65 0 0 -65 0 -65 60 0 60 0 0 -65 0 -65 65 0 65 0 0 -60 0 -60 -65 0 -65 0
0 -65 0 -65 -60 0 -60 0 0 -65 0 -65 -65 0 -65 0 0 65 0 65 -60 0 -60 0 0 -65
0 -65 -65 0 -65 0 0 65 0 65 -65 0 -65 0 0 65 0 65 65 0 65 0 0 60 0 60 -65 0
-65 0 0 65 0 65 -60 0 -60 0 0 65 0 65 -65 0 -65 0 0 60 0 60 -65 0 -65 0 0
65 0 65 65 0 65 0 0 65 0 65 65 0 65 0 0 60 0 60 60 0 60 0 0 -60z"/>
<path d="M5060 11665 l0 -65 -65 0 -65 0 0 -65 0 -65 65 0 65 0 0 -60 0 -60
60 0 60 0 0 -65 0 -65 65 0 65 0 0 -65 0 -65 65 0 65 0 0 -60 0 -60 -65 0 -65
0 0 -65 0 -65 65 0 65 0 0 65 0 65 60 0 60 0 0 -65 0 -65 65 0 65 0 0 65 0 65
60 0 60 0 0 60 0 60 -60 0 -60 0 0 65 0 65 -65 0 -65 0 0 65 0 65 -60 0 -60 0
0 60 0 60 -65 0 -65 0 0 65 0 65 -65 0 -65 0 0 65 0 65 -60 0 -60 0 0 -65z
m120 -130 l0 -65 65 0 65 0 0 -60 0 -60 65 0 65 0 0 -65 0 -65 60 0 60 0 0
-65 0 -65 65 0 65 0 0 -60 0 -60 -65 0 -65 0 0 60 0 60 -60 0 -60 0 0 65 0 65
-65 0 -65 0 0 65 0 65 -65 0 -65 0 0 60 0 60 -60 0 -60 0 0 65 0 65 60 0 60 0
0 -65z"/>
<path d="M6320 10650 l0 -60 -65 0 -65 0 0 -65 0 -65 -60 0 -60 0 0 -65 0 -65
-65 0 -65 0 0 -60 0 -60 65 0 65 0 0 60 0 60 60 0 60 0 0 -60 0 -60 65 0 65 0
0 60 0 60 65 0 65 0 0 -60 0 -60 60 0 60 0 0 -65 0 -65 65 0 65 0 0 -60 0 -60
65 0 65 0 0 60 0 60 60 0 60 0 0 -60 0 -60 65 0 65 0 0 -65 0 -65 65 0 65 0 0
65 0 65 60 0 60 0 0 -65 0 -65 65 0 65 0 0 -65 0 -65 65 0 65 0 0 -60 0 -60
60 0 60 0 0 60 0 60 65 0 65 0 0 -60 0 -60 65 0 65 0 0 60 0 60 -65 0 -65 0 0
65 0 65 -65 0 -65 0 0 65 0 65 -60 0 -60 0 0 60 0 60 -65 0 -65 0 0 -60 0 -60
-65 0 -65 0 0 60 0 60 -60 0 -60 0 0 65 0 65 -65 0 -65 0 0 60 0 60 -65 0 -65
0 0 65 0 65 -60 0 -60 0 0 65 0 65 -65 0 -65 0 0 -65 0 -65 -65 0 -65 0 0 65
0 65 -60 0 -60 0 0 60 0 60 -65 0 -65 0 0 -60z m130 -125 l0 -65 60 0 60 0 0
-65 0 -65 65 0 65 0 0 65 0 65 65 0 65 0 0 -65 0 -65 60 0 60 0 0 -60 0 -60
65 0 65 0 0 -65 0 -65 65 0 65 0 0 -60 0 -60 -65 0 -65 0 0 60 0 60 -65 0 -65
0 0 65 0 65 -60 0 -60 0 0 -65 0 -65 -65 0 -65 0 0 65 0 65 -65 0 -65 0 0 60
0 60 -60 0 -60 0 0 65 0 65 -65 0 -65 0 0 -65 0 -65 -65 0 -65 0 0 65 0 65 65
0 65 0 0 65 0 65 65 0 65 0 0 -65z m1140 -630 l0 -65 60 0 60 0 0 -65 0 -65
-60 0 -60 0 0 65 0 65 -65 0 -65 0 0 65 0 65 65 0 65 0 0 -65z"/>
<path d="M6700 10270 l0 -60 65 0 65 0 0 60 0 60 -65 0 -65 0 0 -60z"/>
<path d="M8090 9640 l0 -60 65 0 65 0 0 -65 0 -65 65 0 65 0 0 65 0 65 -65 0
-65 0 0 60 0 60 -65 0 -65 0 0 -60z"/>
<path d="M12270 8755 l0 -65 -65 0 -65 0 0 -65 0 -65 65 0 65 0 0 -60 0 -60
-65 0 -65 0 0 -65 0 -65 -60 0 -60 0 0 -65 0 -65 60 0 60 0 0 65 0 65 65 0 65
0 0 65 0 65 65 0 65 0 0 60 0 60 -65 0 -65 0 0 65 0 65 65 0 65 0 0 65 0 65
-65 0 -65 0 0 -65z"/>
<path d="M9990 8245 l0 -65 -65 0 -65 0 0 -60 0 -60 -60 0 -60 0 0 -65 0 -65
-65 0 -65 0 0 -65 0 -65 -60 0 -60 0 0 -60 0 -60 -65 0 -65 0 0 -65 0 -65 65
0 65 0 0 -65 0 -65 -65 0 -65 0 0 -60 0 -60 65 0 65 0 0 -65 0 -65 60 0 60 0
0 -65 0 -65 65 0 65 0 0 -60 0 -60 -65 0 -65 0 0 -65 0 -65 65 0 65 0 0 -65 0
-65 60 0 60 0 0 -60 0 -60 65 0 65 0 0 -65 0 -65 65 0 65 0 0 65 0 65 60 0 60
0 0 -65 0 -65 65 0 65 0 0 -65 0 -65 65 0 65 0 0 -60 0 -60 60 0 60 0 0 -65 0
-65 65 0 65 0 0 -60 0 -60 65 0 65 0 0 -65 0 -65 60 0 60 0 0 -65 0 -65 65 0
65 0 0 -60 0 -60 65 0 65 0 0 -65 0 -65 60 0 60 0 0 -65 0 -65 65 0 65 0 0
-60 0 -60 65 0 65 0 0 -65 0 -65 60 0 60 0 0 -65 0 -65 65 0 65 0 0 -60 0 -60
65 0 65 0 0 -65 0 -65 60 0 60 0 0 -65 0 -65 65 0 65 0 0 -60 0 -60 65 0 65 0
0 -65 0 -65 60 0 60 0 0 -65 0 -65 65 0 65 0 0 -60 0 -60 65 0 65 0 0 -65 0
-65 60 0 60 0 0 65 0 65 65 0 65 0 0 60 0 60 -65 0 -65 0 0 65 0 65 -60 0 -60
0 0 65 0 65 -65 0 -65 0 0 60 0 60 -65 0 -65 0 0 65 0 65 65 0 65 0 0 65 0 65
-65 0 -65 0 0 60 0 60 -60 0 -60 0 0 65 0 65 -65 0 -65 0 0 65 0 65 -65 0 -65
0 0 60 0 60 -60 0 -60 0 0 65 0 65 -65 0 -65 0 0 65 0 65 -65 0 -65 0 0 60 0
60 -60 0 -60 0 0 65 0 65 -65 0 -65 0 0 65 0 65 -65 0 -65 0 0 60 0 60 -60 0
-60 0 0 65 0 65 -65 0 -65 0 0 60 0 60 -65 0 -65 0 0 65 0 65 -60 0 -60 0 0
65 0 65 -65 0 -65 0 0 60 0 60 -65 0 -65 0 0 65 0 65 -60 0 -60 0 0 65 0 65
-65 0 -65 0 0 60 0 60 -65 0 -65 0 0 65 0 65 -60 0 -60 0 0 65 0 65 60 0 60 0
0 60 0 60 -60 0 -60 0 0 65 0 65 -65 0 -65 0 0 65 0 65 65 0 65 0 0 60 0 60
60 0 60 0 0 65 0 65 65 0 65 0 0 65 0 65 65 0 65 0 0 -65 0 -65 60 0 60 0 0
65 0 65 65 0 65 0 0 -65 0 -65 65 0 65 0 0 65 0 65 60 0 60 0 0 -65 0 -65 65
0 65 0 0 65 0 65 65 0 65 0 0 60 0 60 60 0 60 0 0 -60 0 -60 65 0 65 0 0 60 0
60 65 0 65 0 0 -60 0 -60 60 0 60 0 0 60 0 60 65 0 65 0 0 65 0 65 -65 0 -65
0 0 -65 0 -65 -60 0 -60 0 0 65 0 65 -65 0 -65 0 0 -65 0 -65 -65 0 -65 0 0
65 0 65 -60 0 -60 0 0 -65 0 -65 -65 0 -65 0 0 65 0 65 -65 0 -65 0 0 -65 0
-65 -60 0 -60 0 0 65 0 65 -65 0 -65 0 0 -65 0 -65 -65 0 -65 0 0 65 0 65 -60
0 -60 0 0 -65 0 -65 -65 0 -65 0 0 65 0 65 -65 0 -65 0 0 -65 0 -65 -60 0 -60
0 0 65 0 65 -65 0 -65 0 0 -65z m130 -125 l0 -60 60 0 60 0 0 60 0 60 65 0 65
0 0 -60 0 -60 -65 0 -65 0 0 -65 0 -65 -60 0 -60 0 0 -65 0 -65 -65 0 -65 0 0
-60 0 -60 -65 0 -65 0 0 -65 0 -65 65 0 65 0 0 -65 0 -65 65 0 65 0 0 -60 0
-60 -65 0 -65 0 0 -65 0 -65 65 0 65 0 0 -65 0 -65 60 0 60 0 0 -60 0 -60 65
0 65 0 0 -65 0 -65 65 0 65 0 0 -65 0 -65 60 0 60 0 0 -60 0 -60 65 0 65 0 0
-65 0 -65 65 0 65 0 0 -65 0 -65 60 0 60 0 0 -60 0 -60 65 0 65 0 0 -65 0 -65
65 0 65 0 0 -60 0 -60 60 0 60 0 0 -65 0 -65 65 0 65 0 0 -65 0 -65 65 0 65 0
0 -60 0 -60 60 0 60 0 0 -65 0 -65 65 0 65 0 0 -65 0 -65 65 0 65 0 0 -60 0
-60 60 0 60 0 0 -65 0 -65 65 0 65 0 0 -65 0 -65 65 0 65 0 0 -60 0 -60 60 0
60 0 0 -65 0 -65 -60 0 -60 0 0 -65 0 -65 60 0 60 0 0 -60 0 -60 65 0 65 0 0
-65 0 -65 65 0 65 0 0 -65 0 -65 60 0 60 0 0 -60 0 -60 -60 0 -60 0 0 60 0 60
-65 0 -65 0 0 65 0 65 -65 0 -65 0 0 65 0 65 -60 0 -60 0 0 60 0 60 -65 0 -65
0 0 65 0 65 -65 0 -65 0 0 65 0 65 -60 0 -60 0 0 60 0 60 -65 0 -65 0 0 65 0
65 -65 0 -65 0 0 65 0 65 -60 0 -60 0 0 60 0 60 -65 0 -65 0 0 65 0 65 -65 0
-65 0 0 65 0 65 -60 0 -60 0 0 60 0 60 -65 0 -65 0 0 65 0 65 -65 0 -65 0 0
65 0 65 -60 0 -60 0 0 60 0 60 -65 0 -65 0 0 65 0 65 -65 0 -65 0 0 60 0 60
-60 0 -60 0 0 65 0 65 -65 0 -65 0 0 65 0 65 -65 0 -65 0 0 60 0 60 -60 0 -60
0 0 -60 0 -60 -65 0 -65 0 0 60 0 60 -65 0 -65 0 0 65 0 65 -60 0 -60 0 0 65
0 65 60 0 60 0 0 60 0 60 -60 0 -60 0 0 65 0 65 -65 0 -65 0 0 65 0 65 -60 0
-60 0 0 60 0 60 60 0 60 0 0 65 0 65 -60 0 -60 0 0 65 0 65 60 0 60 0 0 60 0
60 65 0 65 0 0 65 0 65 60 0 60 0 0 65 0 65 65 0 65 0 0 60 0 60 65 0 65 0 0
-60z m500 0 l0 -60 -60 0 -60 0 0 60 0 60 60 0 60 0 0 -60z m260 0 l0 -60 -65
0 -65 0 0 60 0 60 65 0 65 0 0 -60z m250 0 l0 -60 -65 0 -65 0 0 60 0 60 65 0
65 0 0 -60z"/>
<path d="M9990 7995 l0 -65 -65 0 -65 0 0 -65 0 -65 -60 0 -60 0 0 -60 0 -60
-65 0 -65 0 0 -65 0 -65 65 0 65 0 0 -65 0 -65 -65 0 -65 0 0 -60 0 -60 65 0
65 0 0 -65 0 -65 60 0 60 0 0 -65 0 -65 65 0 65 0 0 -60 0 -60 -65 0 -65 0 0
-65 0 -65 65 0 65 0 0 -65 0 -65 65 0 65 0 0 65 0 65 60 0 60 0 0 -65 0 -65
65 0 65 0 0 -60 0 -60 65 0 65 0 0 -65 0 -65 60 0 60 0 0 -65 0 -65 65 0 65 0
0 -60 0 -60 65 0 65 0 0 -65 0 -65 60 0 60 0 0 -60 0 -60 65 0 65 0 0 -65 0
-65 65 0 65 0 0 -65 0 -65 60 0 60 0 0 -60 0 -60 65 0 65 0 0 -65 0 -65 65 0
65 0 0 -65 0 -65 60 0 60 0 0 -60 0 -60 65 0 65 0 0 -65 0 -65 65 0 65 0 0
-65 0 -65 60 0 60 0 0 -60 0 -60 65 0 65 0 0 -65 0 -65 65 0 65 0 0 65 0 65
-65 0 -65 0 0 60 0 60 -65 0 -65 0 0 65 0 65 -60 0 -60 0 0 65 0 65 -65 0 -65
0 0 60 0 60 -65 0 -65 0 0 65 0 65 -60 0 -60 0 0 65 0 65 -65 0 -65 0 0 60 0
60 -65 0 -65 0 0 65 0 65 -60 0 -60 0 0 65 0 65 -65 0 -65 0 0 60 0 60 -65 0
-65 0 0 65 0 65 -60 0 -60 0 0 60 0 60 -65 0 -65 0 0 65 0 65 -65 0 -65 0 0
65 0 65 -60 0 -60 0 0 60 0 60 -65 0 -65 0 0 65 0 65 -65 0 -65 0 0 65 0 65
-60 0 -60 0 0 60 0 60 -65 0 -65 0 0 65 0 65 -65 0 -65 0 0 65 0 65 65 0 65 0
0 60 0 60 -65 0 -65 0 0 65 0 65 -60 0 -60 0 0 65 0 65 60 0 60 0 0 60 0 60
65 0 65 0 0 65 0 65 65 0 65 0 0 65 0 65 -65 0 -65 0 0 -65z m-130 -635 l0
-60 -60 0 -60 0 0 60 0 60 60 0 60 0 0 -60z m260 -505 l0 -65 -65 0 -65 0 0
65 0 65 65 0 65 0 0 -65z"/>
<path d="M8850 6600 l0 -60 -60 0 -60 0 0 -65 0 -65 60 0 60 0 0 -65 0 -65 65
0 65 0 0 -60 0 -60 -65 0 -65 0 0 -65 0 -65 65 0 65 0 0 -60 0 -60 65 0 65 0
0 -65 0 -65 60 0 60 0 0 -65 0 -65 65 0 65 0 0 -60 0 -60 65 0 65 0 0 60 0 60
60 0 60 0 0 -60 0 -60 65 0 65 0 0 -65 0 -65 -65 0 -65 0 0 -65 0 -65 65 0 65
0 0 -60 0 -60 60 0 60 0 0 -65 0 -65 65 0 65 0 0 -65 0 -65 65 0 65 0 0 -60 0
-60 60 0 60 0 0 -65 0 -65 65 0 65 0 0 -65 0 -65 65 0 65 0 0 -60 0 -60 60 0
60 0 0 -65 0 -65 65 0 65 0 0 -65 0 -65 65 0 65 0 0 -60 0 -60 60 0 60 0 0
-65 0 -65 65 0 65 0 0 -65 0 -65 65 0 65 0 0 -60 0 -60 60 0 60 0 0 -65 0 -65
65 0 65 0 0 -65 0 -65 65 0 65 0 0 65 0 65 60 0 60 0 0 -65 0 -65 65 0 65 0 0
-60 0 -60 65 0 65 0 0 -65 0 -65 60 0 60 0 0 65 0 65 -60 0 -60 0 0 60 0 60
60 0 60 0 0 65 0 65 -60 0 -60 0 0 65 0 65 -65 0 -65 0 0 60 0 60 -65 0 -65 0
0 65 0 65 -60 0 -60 0 0 65 0 65 -65 0 -65 0 0 60 0 60 -65 0 -65 0 0 65 0 65
-60 0 -60 0 0 65 0 65 -65 0 -65 0 0 60 0 60 -65 0 -65 0 0 65 0 65 -60 0 -60
0 0 65 0 65 -65 0 -65 0 0 60 0 60 -65 0 -65 0 0 65 0 65 -60 0 -60 0 0 65 0
65 -65 0 -65 0 0 60 0 60 -65 0 -65 0 0 65 0 65 -60 0 -60 0 0 65 0 65 -65 0
-65 0 0 60 0 60 -65 0 -65 0 0 65 0 65 -60 0 -60 0 0 65 0 65 -65 0 -65 0 0
60 0 60 -60 0 -60 0 0 65 0 65 -65 0 -65 0 0 60 0 60 -65 0 -65 0 0 65 0 65
-60 0 -60 0 0 65 0 65 -65 0 -65 0 0 60 0 60 -65 0 -65 0 0 -60z m130 -125 l0
-65 65 0 65 0 0 -65 0 -65 60 0 60 0 0 -60 0 -60 65 0 65 0 0 -65 0 -65 65 0
65 0 0 -60 0 -60 60 0 60 0 0 -65 0 -65 65 0 65 0 0 -65 0 -65 60 0 60 0 0
-60 0 -60 65 0 65 0 0 -65 0 -65 65 0 65 0 0 -65 0 -65 60 0 60 0 0 -60 0 -60
65 0 65 0 0 -65 0 -65 65 0 65 0 0 -65 0 -65 60 0 60 0 0 -60 0 -60 65 0 65 0
0 -65 0 -65 65 0 65 0 0 -65 0 -65 60 0 60 0 0 -60 0 -60 65 0 65 0 0 -65 0
-65 65 0 65 0 0 -65 0 -65 60 0 60 0 0 -60 0 -60 65 0 65 0 0 -65 0 -65 65 0
65 0 0 -65 0 -65 60 0 60 0 0 -60 0 -60 65 0 65 0 0 -65 0 -65 65 0 65 0 0
-65 0 -65 -65 0 -65 0 0 65 0 65 -65 0 -65 0 0 65 0 65 -60 0 -60 0 0 -65 0
-65 -65 0 -65 0 0 65 0 65 -65 0 -65 0 0 60 0 60 -60 0 -60 0 0 65 0 65 -65 0
-65 0 0 65 0 65 -65 0 -65 0 0 60 0 60 -60 0 -60 0 0 65 0 65 -65 0 -65 0 0
65 0 65 -65 0 -65 0 0 60 0 60 -60 0 -60 0 0 65 0 65 -65 0 -65 0 0 65 0 65
-65 0 -65 0 0 60 0 60 -60 0 -60 0 0 65 0 65 -65 0 -65 0 0 65 0 65 -65 0 -65
0 0 60 0 60 -60 0 -60 0 0 65 0 65 60 0 60 0 0 65 0 65 -60 0 -60 0 0 60 0 60
-65 0 -65 0 0 65 0 65 -60 0 -60 0 0 -65 0 -65 -65 0 -65 0 0 65 0 65 -65 0
-65 0 0 65 0 65 -60 0 -60 0 0 60 0 60 -65 0 -65 0 0 65 0 65 65 0 65 0 0 60
0 60 -65 0 -65 0 0 65 0 65 -65 0 -65 0 0 65 0 65 65 0 65 0 0 -65z"/>
<path d="M9110 6095 l0 -65 60 0 60 0 0 -60 0 -60 65 0 65 0 0 -65 0 -65 65 0
65 0 0 65 0 65 -65 0 -65 0 0 60 0 60 -65 0 -65 0 0 65 0 65 -60 0 -60 0 0
-65z"/>
<path d="M9860 5335 l0 -65 65 0 65 0 0 -60 0 -60 65 0 65 0 0 -65 0 -65 60 0
60 0 0 -65 0 -65 65 0 65 0 0 -60 0 -60 65 0 65 0 0 -65 0 -65 60 0 60 0 0
-65 0 -65 65 0 65 0 0 -60 0 -60 65 0 65 0 0 -65 0 -65 60 0 60 0 0 -65 0 -65
65 0 65 0 0 -60 0 -60 65 0 65 0 0 -65 0 -65 60 0 60 0 0 -65 0 -65 65 0 65 0
0 -60 0 -60 65 0 65 0 0 60 0 60 -65 0 -65 0 0 65 0 65 -65 0 -65 0 0 65 0 65
-60 0 -60 0 0 60 0 60 -65 0 -65 0 0 65 0 65 -65 0 -65 0 0 65 0 65 -60 0 -60
0 0 60 0 60 -65 0 -65 0 0 65 0 65 -65 0 -65 0 0 65 0 65 -60 0 -60 0 0 60 0
60 -65 0 -65 0 0 65 0 65 -65 0 -65 0 0 65 0 65 -60 0 -60 0 0 60 0 60 -65 0
-65 0 0 65 0 65 -65 0 -65 0 0 -65z"/>
<path d="M8090 5845 l0 -65 -60 0 -60 0 0 -65 0 -65 -65 0 -65 0 0 -60 0 -60
-65 0 -65 0 0 -65 0 -65 65 0 65 0 0 -65 0 -65 65 0 65 0 0 -60 0 -60 60 0 60
0 0 -65 0 -65 65 0 65 0 0 65 0 65 65 0 65 0 0 -65 0 -65 60 0 60 0 0 65 0 65
65 0 65 0 0 -65 0 -65 65 0 65 0 0 65 0 65 -65 0 -65 0 0 60 0 60 -65 0 -65 0
0 65 0 65 -60 0 -60 0 0 65 0 65 60 0 60 0 0 60 0 60 -60 0 -60 0 0 65 0 65
-65 0 -65 0 0 65 0 65 -65 0 -65 0 0 -65z m130 -130 l0 -65 65 0 65 0 0 -60 0
-60 -65 0 -65 0 0 -65 0 -65 65 0 65 0 0 -65 0 -65 60 0 60 0 0 -60 0 -60 -60
0 -60 0 0 60 0 60 -65 0 -65 0 0 -60 0 -60 -65 0 -65 0 0 60 0 60 -60 0 -60 0
0 65 0 65 -65 0 -65 0 0 65 0 65 65 0 65 0 0 60 0 60 60 0 60 0 0 65 0 65 65
0 65 0 0 -65z"/>
<path d="M8090 5590 l0 -60 -60 0 -60 0 0 -65 0 -65 60 0 60 0 0 -65 0 -65 65
0 65 0 0 65 0 65 -65 0 -65 0 0 65 0 65 65 0 65 0 0 60 0 60 -65 0 -65 0 0
-60z"/>
<path d="M7080 5085 l0 -65 65 0 65 0 0 -65 0 -65 -65 0 -65 0 0 -60 0 -60 65
0 65 0 0 -65 0 -65 -65 0 -65 0 0 -65 0 -65 65 0 65 0 0 -60 0 -60 60 0 60 0
0 -65 0 -65 65 0 65 0 0 -65 0 -65 65 0 65 0 0 -60 0 -60 60 0 60 0 0 60 0 60
65 0 65 0 0 65 0 65 65 0 65 0 0 65 0 65 -65 0 -65 0 0 60 0 60 -65 0 -65 0 0
-60 0 -60 -60 0 -60 0 0 60 0 60 -65 0 -65 0 0 65 0 65 -65 0 -65 0 0 65 0 65
65 0 65 0 0 60 0 60 -65 0 -65 0 0 65 0 65 -60 0 -60 0 0 65 0 65 -65 0 -65 0
0 -65z m250 -255 l0 -60 -60 0 -60 0 0 60 0 60 60 0 60 0 0 -60z m0 -255 l0
-65 65 0 65 0 0 -60 0 -60 65 0 65 0 0 -65 0 -65 60 0 60 0 0 65 0 65 65 0 65
0 0 -65 0 -65 -65 0 -65 0 0 -65 0 -65 -60 0 -60 0 0 65 0 65 -65 0 -65 0 0
65 0 65 -65 0 -65 0 0 60 0 60 -60 0 -60 0 0 65 0 65 60 0 60 0 0 -65z"/>
<path d="M8600 4830 l0 -60 65 0 65 0 0 -65 0 -65 -65 0 -65 0 0 -65 0 -65 65
0 65 0 0 65 0 65 60 0 60 0 0 -65 0 -65 65 0 65 0 0 -60 0 -60 65 0 65 0 0
-65 0 -65 60 0 60 0 0 -65 0 -65 65 0 65 0 0 -60 0 -60 65 0 65 0 0 -65 0 -65
60 0 60 0 0 -65 0 -65 65 0 65 0 0 -60 0 -60 60 0 60 0 0 -65 0 -65 65 0 65 0
0 -65 0 -65 65 0 65 0 0 -60 0 -60 60 0 60 0 0 -65 0 -65 65 0 65 0 0 -65 0
-65 65 0 65 0 0 -60 0 -60 60 0 60 0 0 -65 0 -65 65 0 65 0 0 -65 0 -65 65 0
65 0 0 -60 0 -60 60 0 60 0 0 -65 0 -65 65 0 65 0 0 65 0 65 65 0 65 0 0 60 0
60 -65 0 -65 0 0 65 0 65 -65 0 -65 0 0 65 0 65 -60 0 -60 0 0 60 0 60 -65 0
-65 0 0 65 0 65 -65 0 -65 0 0 65 0 65 -60 0 -60 0 0 60 0 60 -65 0 -65 0 0
65 0 65 -65 0 -65 0 0 65 0 65 -60 0 -60 0 0 60 0 60 -65 0 -65 0 0 65 0 65
-65 0 -65 0 0 65 0 65 -60 0 -60 0 0 60 0 60 -65 0 -65 0 0 65 0 65 -60 0 -60
0 0 65 0 65 -65 0 -65 0 0 60 0 60 -65 0 -65 0 0 65 0 65 -60 0 -60 0 0 65 0
65 -65 0 -65 0 0 -65 0 -65 -65 0 -65 0 0 65 0 65 -60 0 -60 0 0 60 0 60 -65
0 -65 0 0 -60z m510 -255 l0 -65 60 0 60 0 0 -60 0 -60 65 0 65 0 0 -65 0 -65
65 0 65 0 0 -65 0 -65 60 0 60 0 0 -60 0 -60 65 0 65 0 0 -65 0 -65 60 0 60 0
0 -65 0 -65 65 0 65 0 0 -60 0 -60 65 0 65 0 0 -65 0 -65 60 0 60 0 0 -65 0
-65 65 0 65 0 0 -60 0 -60 65 0 65 0 0 -65 0 -65 60 0 60 0 0 -65 0 -65 65 0
65 0 0 -60 0 -60 65 0 65 0 0 -65 0 -65 60 0 60 0 0 -65 0 -65 65 0 65 0 0
-60 0 -60 -65 0 -65 0 0 60 0 60 -60 0 -60 0 0 65 0 65 -65 0 -65 0 0 65 0 65
-65 0 -65 0 0 60 0 60 -60 0 -60 0 0 65 0 65 -65 0 -65 0 0 65 0 65 -65 0 -65
0 0 60 0 60 -60 0 -60 0 0 65 0 65 -65 0 -65 0 0 65 0 65 -65 0 -65 0 0 60 0
60 -60 0 -60 0 0 65 0 65 -65 0 -65 0 0 65 0 65 -60 0 -60 0 0 60 0 60 -65 0
-65 0 0 65 0 65 -65 0 -65 0 0 65 0 65 -60 0 -60 0 0 60 0 60 -65 0 -65 0 0
65 0 65 65 0 65 0 0 -65z"/>
<path d="M7840 3815 l0 -65 65 0 65 0 0 -60 0 -60 60 0 60 0 0 60 0 60 65 0
65 0 0 -60 0 -60 65 0 65 0 0 -65 0 -65 60 0 60 0 0 -65 0 -65 65 0 65 0 0
-60 0 -60 65 0 65 0 0 -65 0 -65 60 0 60 0 0 -65 0 -65 65 0 65 0 0 -60 0 -60
65 0 65 0 0 -65 0 -65 60 0 60 0 0 -65 0 -65 65 0 65 0 0 -60 0 -60 65 0 65 0
0 -65 0 -65 60 0 60 0 0 -65 0 -65 65 0 65 0 0 -60 0 -60 60 0 60 0 0 -65 0
-65 65 0 65 0 0 65 0 65 -65 0 -65 0 0 60 0 60 -60 0 -60 0 0 65 0 65 -65 0
-65 0 0 65 0 65 -60 0 -60 0 0 60 0 60 -65 0 -65 0 0 65 0 65 -65 0 -65 0 0
65 0 65 -60 0 -60 0 0 60 0 60 -65 0 -65 0 0 65 0 65 -65 0 -65 0 0 65 0 65
-60 0 -60 0 0 60 0 60 -65 0 -65 0 0 65 0 65 -65 0 -65 0 0 65 0 65 -60 0 -60
0 0 60 0 60 -65 0 -65 0 0 65 0 65 -65 0 -65 0 0 -65 0 -65 -60 0 -60 0 0 65
0 65 -65 0 -65 0 0 -65z"/>
<path d="M11760 7485 l0 -65 -60 0 -60 0 0 -60 0 -60 -65 0 -65 0 0 60 0 60
-65 0 -65 0 0 -60 0 -60 -60 0 -60 0 0 -65 0 -65 -65 0 -65 0 0 65 0 65 -65 0
-65 0 0 -65 0 -65 65 0 65 0 0 -65 0 -65 65 0 65 0 0 -60 0 -60 60 0 60 0 0
-65 0 -65 65 0 65 0 0 -65 0 -65 65 0 65 0 0 -60 0 -60 60 0 60 0 0 -65 0 -65
65 0 65 0 0 -65 0 -65 65 0 65 0 0 -60 0 -60 60 0 60 0 0 -65 0 -65 65 0 65 0
0 -60 0 -60 65 0 65 0 0 -65 0 -65 60 0 60 0 0 -65 0 -65 65 0 65 0 0 -60 0
-60 65 0 65 0 0 -65 0 -65 60 0 60 0 0 65 0 65 65 0 65 0 0 -65 0 -65 65 0 65
0 0 65 0 65 60 0 60 0 0 -65 0 -65 65 0 65 0 0 65 0 65 -65 0 -65 0 0 60 0 60
-60 0 -60 0 0 65 0 65 60 0 60 0 0 65 0 65 -60 0 -60 0 0 60 0 60 -65 0 -65 0
0 65 0 65 -65 0 -65 0 0 60 0 60 -60 0 -60 0 0 65 0 65 -65 0 -65 0 0 65 0 65
-65 0 -65 0 0 60 0 60 -60 0 -60 0 0 65 0 65 -65 0 -65 0 0 65 0 65 65 0 65 0
0 60 0 60 -65 0 -65 0 0 65 0 65 -65 0 -65 0 0 65 0 65 -60 0 -60 0 0 60 0 60
-65 0 -65 0 0 65 0 65 -65 0 -65 0 0 -65z m130 -125 l0 -60 65 0 65 0 0 -65 0
-65 60 0 60 0 0 -65 0 -65 65 0 65 0 0 -60 0 -60 -65 0 -65 0 0 -65 0 -65 65
0 65 0 0 -65 0 -65 65 0 65 0 0 -60 0 -60 60 0 60 0 0 -65 0 -65 65 0 65 0 0
-65 0 -65 65 0 65 0 0 -60 0 -60 60 0 60 0 0 -65 0 -65 65 0 65 0 0 -60 0 -60
65 0 65 0 0 -65 0 -65 -65 0 -65 0 0 -65 0 -65 65 0 65 0 0 -60 0 -60 -65 0
-65 0 0 60 0 60 -65 0 -65 0 0 -60 0 -60 -60 0 -60 0 0 60 0 60 -65 0 -65 0 0
65 0 65 -65 0 -65 0 0 65 0 65 -60 0 -60 0 0 60 0 60 -65 0 -65 0 0 65 0 65
-65 0 -65 0 0 60 0 60 -60 0 -60 0 0 65 0 65 -65 0 -65 0 0 65 0 65 -65 0 -65
0 0 60 0 60 -60 0 -60 0 0 65 0 65 -65 0 -65 0 0 65 0 65 -65 0 -65 0 0 60 0
60 -60 0 -60 0 0 65 0 65 60 0 60 0 0 65 0 65 65 0 65 0 0 -65 0 -65 65 0 65
0 0 65 0 65 60 0 60 0 0 60 0 60 65 0 65 0 0 -60z"/>
<path d="M11760 7235 l0 -65 -60 0 -60 0 0 -65 0 -65 -65 0 -65 0 0 65 0 65
-65 0 -65 0 0 -65 0 -65 65 0 65 0 0 -60 0 -60 65 0 65 0 0 -65 0 -65 60 0 60
0 0 -65 0 -65 65 0 65 0 0 -60 0 -60 65 0 65 0 0 -65 0 -65 60 0 60 0 0 -65 0
-65 65 0 65 0 0 -60 0 -60 65 0 65 0 0 -65 0 -65 60 0 60 0 0 -60 0 -60 65 0
65 0 0 -65 0 -65 65 0 65 0 0 -65 0 -65 60 0 60 0 0 65 0 65 65 0 65 0 0 65 0
65 -65 0 -65 0 0 60 0 60 -60 0 -60 0 0 65 0 65 -65 0 -65 0 0 60 0 60 -65 0
-65 0 0 65 0 65 -60 0 -60 0 0 65 0 65 -65 0 -65 0 0 60 0 60 -65 0 -65 0 0
65 0 65 -60 0 -60 0 0 65 0 65 60 0 60 0 0 60 0 60 -60 0 -60 0 0 65 0 65 -65
0 -65 0 0 65 0 65 -65 0 -65 0 0 -65z m130 -130 l0 -65 65 0 65 0 0 -60 0 -60
-65 0 -65 0 0 -65 0 -65 65 0 65 0 0 -65 0 -65 60 0 60 0 0 -60 0 -60 65 0 65
0 0 -65 0 -65 65 0 65 0 0 -65 0 -65 60 0 60 0 0 -60 0 -60 65 0 65 0 0 -65 0
-65 65 0 65 0 0 -60 0 -60 60 0 60 0 0 -65 0 -65 -60 0 -60 0 0 65 0 65 -65 0
-65 0 0 60 0 60 -65 0 -65 0 0 65 0 65 -60 0 -60 0 0 60 0 60 -65 0 -65 0 0
65 0 65 -65 0 -65 0 0 65 0 65 -60 0 -60 0 0 60 0 60 -65 0 -65 0 0 65 0 65
-65 0 -65 0 0 65 0 65 -60 0 -60 0 0 60 0 60 60 0 60 0 0 65 0 65 65 0 65 0 0
-65z"/>
<path d="M11760 6980 l0 -60 65 0 65 0 0 60 0 60 -65 0 -65 0 0 -60z"/>
</g>
</svg>
