<?xml version="1.0" encoding="UTF-8" standalone="no"?>
<!-- Uploaded to: SVG Repo, www.svgrepo.com, Generator: SVG Repo Mixer Tools -->

<svg
   height="800px"
   width="800px"
   version="1.1"
   id="Layer_1"
   viewBox="0 0 100 100"
   enable-background="new 0 0 100 100"
   xml:space="preserve"
   sodipodi:docname="spear-middle-age-weapon-svgrepo-com.svg"
   inkscape:version="1.3.2 (091e20e, 2023-11-25, custom)"
   xmlns:inkscape="http://www.inkscape.org/namespaces/inkscape"
   xmlns:sodipodi="http://sodipodi.sourceforge.net/DTD/sodipodi-0.dtd"
   xmlns="http://www.w3.org/2000/svg"
   xmlns:svg="http://www.w3.org/2000/svg"><defs
   id="defs4" /><sodipodi:namedview
   id="namedview4"
   pagecolor="#505050"
   bordercolor="#eeeeee"
   borderopacity="1"
   inkscape:showpageshadow="0"
   inkscape:pageopacity="0"
   inkscape:pagecheckerboard="0"
   inkscape:deskcolor="#505050"
   inkscape:zoom="1.47625"
   inkscape:cx="399.6613"
   inkscape:cy="400"
   inkscape:window-width="2560"
   inkscape:window-height="1377"
   inkscape:window-x="448"
   inkscape:window-y="1432"
   inkscape:window-maximized="1"
   inkscape:current-layer="Layer_1" />
<g
   id="g4"
   transform="matrix(1.4751876,0,0,1.4751876,-23.831622,-23.728168)"
   style="fill:#000000;fill-opacity:1">
	<path
   fill="#231f20"
   d="M 28.8,72.4 C 28.5,72.4 28.3,72.3 28,72.1 27.6,71.7 27.6,71 28,70.6 L 58.3,40.3 c 0.4,-0.4 1.1,-0.4 1.5,0 0.4,0.4 0.4,1.1 0,1.5 L 29.6,72.1 c -0.2,0.2 -0.5,0.3 -0.8,0.3 z"
   id="path1"
   style="fill:#000000;fill-opacity:1" />
	<path
   fill="#231f20"
   d="m 59.2,44 c -0.3,0 -0.5,-0.1 -0.8,-0.3 l -2,-2 c -0.4,-0.4 -0.4,-1.1 0,-1.5 0.4,-0.4 1.1,-0.4 1.5,0 l 2,2 c 0.4,0.4 0.4,1.1 0,1.5 -0.2,0.2 -0.4,0.3 -0.7,0.3 z"
   id="path2"
   style="fill:#000000;fill-opacity:1" />
	<path
   fill="#231f20"
   d="m 58,45.2 c -0.3,0 -0.5,-0.1 -0.8,-0.3 l -2,-2 c -0.4,-0.4 -0.4,-1.1 0,-1.5 0.4,-0.4 1.1,-0.4 1.5,0 l 2,2 c 0.4,0.4 0.4,1.1 0,1.5 -0.2,0.2 -0.4,0.3 -0.7,0.3 z"
   id="path3"
   style="fill:#000000;fill-opacity:1" />
	<path
   fill="#231f20"
   d="m 58.7,42.5 c -0.3,0 -0.6,-0.1 -0.8,-0.3 -0.3,-0.3 -0.4,-0.7 -0.3,-1 l 1.8,-6.7 c 0.1,-0.3 0.3,-0.5 0.5,-0.7 L 71,27.6 c 0.4,-0.2 0.9,-0.2 1.3,0.2 0.3,0.3 0.4,0.9 0.2,1.3 l -6.2,11.1 c -0.1,0.3 -0.4,0.4 -0.7,0.5 L 59,42.4 c -0.1,0.1 -0.2,0.1 -0.3,0.1 z m 2.7,-7.1 -1.2,4.5 4.5,-1.2 4.1,-7.4 z"
   id="path4"
   style="fill:#000000;fill-opacity:1" />
</g>
</svg>
