<?xml version="1.0" encoding="UTF-8" standalone="no"?>
<!-- Uploaded to: SVG Repo, www.svgrepo.com, Generator: SVG Repo Mixer Tools -->

<svg
   height="800px"
   width="800px"
   version="1.1"
   id="Layer_1"
   viewBox="0 0 100 100"
   enable-background="new 0 0 100 100"
   xml:space="preserve"
   sodipodi:docname="spear-throw.svg"
   inkscape:version="1.3.2 (091e20e, 2023-11-25, custom)"
   xmlns:inkscape="http://www.inkscape.org/namespaces/inkscape"
   xmlns:sodipodi="http://sodipodi.sourceforge.net/DTD/sodipodi-0.dtd"
   xmlns="http://www.w3.org/2000/svg"
   xmlns:svg="http://www.w3.org/2000/svg"><defs
   id="defs4" /><sodipodi:namedview
   id="namedview4"
   pagecolor="#ffffff"
   bordercolor="#000000"
   borderopacity="0.25"
   inkscape:showpageshadow="2"
   inkscape:pageopacity="0.0"
   inkscape:pagecheckerboard="0"
   inkscape:deskcolor="#d1d1d1"
   inkscape:zoom="0.73812501"
   inkscape:cx="272.98899"
   inkscape:cy="338.01862"
   inkscape:window-width="2560"
   inkscape:window-height="1377"
   inkscape:window-x="1912"
   inkscape:window-y="1432"
   inkscape:window-maximized="1"
   inkscape:current-layer="g4" />
<g
   id="g4"
   transform="matrix(1.1897144,0.83116545,-0.88587855,1.1817695,35.519081,-52.422084)">
	<path
   fill="#231f20"
   d="M 28.8,72.4 C 28.5,72.4 28.3,72.3 28,72.1 27.6,71.7 27.6,71 28,70.6 L 58.3,40.3 c 0.4,-0.4 1.1,-0.4 1.5,0 0.4,0.4 0.4,1.1 0,1.5 L 29.6,72.1 c -0.2,0.2 -0.5,0.3 -0.8,0.3 z"
   id="path1" /><path
   fill="#231f20"
   d="m 52.372145,68.818688 c -0.185128,0.03802 -0.334982,-0.0033 -0.572993,-0.09868 -0.352599,-0.2161 -0.537687,-0.683022 -0.396619,-1.000551 l 10.686035,-24.05268 c 0.141069,-0.317527 0.57303,-0.406277 0.925629,-0.19018 0.352599,0.216101 0.537687,0.683023 0.396618,1.000551 L 52.786491,68.51715 c -0.07054,0.158765 -0.229219,0.263504 -0.414346,0.301538 z"
   id="path1-7"
   style="stroke-width:0.667189" /><path
   fill="#231f20"
   d="m 63.148757,70.723504 c -0.145076,0.08548 -0.280761,0.09415 -0.503791,0.08301 -0.349354,-0.07936 -0.622227,-0.417719 -0.58473,-0.725053 L 64.900727,46.80099 c 0.03749,-0.307332 0.375993,-0.506808 0.725346,-0.42745 0.349355,0.07936 0.622227,0.417718 0.58473,0.72505 l -2.792132,23.251978 c -0.01875,0.153668 -0.124837,0.287494 -0.269906,0.372983 z"
   id="path1-7-7"
   style="stroke-width:0.587218" /><path
   fill="#231f20"
   d="m 29.566014,46.166346 c -0.04552,0.180167 -0.009,0.328659 0.0794,0.5656 0.207068,0.353765 0.675696,0.552471 1.004206,0.4258 l 24.884474,-9.595502 c 0.328508,-0.126675 0.434769,-0.547058 0.227709,-0.900823 -0.207069,-0.353766 -0.675697,-0.552472 -1.004206,-0.425799 l -24.869304,9.535443 c -0.164254,0.06334 -0.276743,0.215116 -0.322281,0.395281 z"
   id="path1-7-6"
   style="stroke-width:0.667189" /><path
   fill="#231f20"
   d="m 28.245579,37.570489 c -0.08036,0.146404 -0.08318,0.280183 -0.06202,0.498958 0.096,0.339954 0.451539,0.593281 0.761881,0.542842 l 23.508353,-3.820758 c 0.31034,-0.05042 0.497895,-0.392032 0.401904,-0.731986 -0.096,-0.339956 -0.45154,-0.593281 -0.761881,-0.542844 l -23.48156,3.771958 c -0.155175,0.0252 -0.286346,0.135425 -0.366724,0.281826 z"
   id="path1-7-7-8"
   style="stroke-width:0.587218" />
	<path
   fill="#231f20"
   d="m 59.2,44 c -0.3,0 -0.5,-0.1 -0.8,-0.3 l -2,-2 c -0.4,-0.4 -0.4,-1.1 0,-1.5 0.4,-0.4 1.1,-0.4 1.5,0 l 2,2 c 0.4,0.4 0.4,1.1 0,1.5 -0.2,0.2 -0.4,0.3 -0.7,0.3 z"
   id="path2" />
	<path
   fill="#231f20"
   d="m 58,45.2 c -0.3,0 -0.5,-0.1 -0.8,-0.3 l -2,-2 c -0.4,-0.4 -0.4,-1.1 0,-1.5 0.4,-0.4 1.1,-0.4 1.5,0 l 2,2 c 0.4,0.4 0.4,1.1 0,1.5 -0.2,0.2 -0.4,0.3 -0.7,0.3 z"
   id="path3" />
	<path
   fill="#231f20"
   d="m 58.7,42.5 c -0.3,0 -0.6,-0.1 -0.8,-0.3 -0.3,-0.3 -0.4,-0.7 -0.3,-1 l 1.8,-6.7 c 0.1,-0.3 0.3,-0.5 0.5,-0.7 L 71,27.6 c 0.4,-0.2 0.9,-0.2 1.3,0.2 0.3,0.3 0.4,0.9 0.2,1.3 l -6.2,11.1 c -0.1,0.3 -0.4,0.4 -0.7,0.5 L 59,42.4 c -0.1,0.1 -0.2,0.1 -0.3,0.1 z m 2.7,-7.1 -1.2,4.5 4.5,-1.2 4.1,-7.4 z"
   id="path4" />
</g>
</svg>
