<?xml version="1.0" encoding="UTF-8" standalone="no"?>
<!-- Uploaded to: SVG Repo, www.svgrepo.com, Generator: SVG Repo Mixer Tools -->

<svg
   fill="#000000"
   height="800px"
   width="800px"
   version="1.1"
   id="Capa_1"
   viewBox="0 0 290.226 290.226"
   xml:space="preserve"
   sodipodi:docname="sword.svg"
   inkscape:version="1.3.2 (091e20e, 2023-11-25, custom)"
   xmlns:inkscape="http://www.inkscape.org/namespaces/inkscape"
   xmlns:sodipodi="http://sodipodi.sourceforge.net/DTD/sodipodi-0.dtd"
   xmlns="http://www.w3.org/2000/svg"
   xmlns:svg="http://www.w3.org/2000/svg"><defs
   id="defs3" /><sodipodi:namedview
   id="namedview3"
   pagecolor="#505050"
   bordercolor="#eeeeee"
   borderopacity="1"
   inkscape:showpageshadow="0"
   inkscape:pageopacity="0"
   inkscape:pagecheckerboard="0"
   inkscape:deskcolor="#505050"
   inkscape:zoom="1.0438664"
   inkscape:cx="297.93085"
   inkscape:cy="456.47605"
   inkscape:window-width="2560"
   inkscape:window-height="1377"
   inkscape:window-x="448"
   inkscape:window-y="1432"
   inkscape:window-maximized="1"
   inkscape:current-layer="g3" />
<g
   id="g3"
   transform="matrix(0.64550828,0,0,0.64550828,51.441192,51.441169)">
	<path
   d="m 47.572382,263.85293 c -2.018676,-3.36115 -4.531515,-6.46817 -7.530018,-9.20839 -3.144154,-2.86962 -6.677428,-5.18021 -10.443846,-6.97215 -4.500956,-2.14194 -1.156175,-7.1433 -1.156175,-7.1433 4.318603,-6.86089 8.236574,-13.74063 11.466421,-19.72823 L 16.258431,199.2053 -6.0116831,199.91411 c -4.2829799,0.13631 -7.8626459,-3.1378 -7.9954519,-7.31048 -0.132746,-4.17075 3.231472,-7.66587 7.5144515,-7.80219 l 25.4769475,-0.81087 c 2.061956,-0.0656 4.057924,0.66735 5.557144,2.03651 l 86.428472,78.9022 c 1.50128,1.37196 2.37946,3.27019 2.4432,5.27285 l 0.79364,24.93562 c 0.13287,4.17459 -3.23255,7.66305 -7.5165,7.7994 -4.2879,0.13647 -7.868302,-3.12996 -8.001199,-7.30551 L 97.995067,273.82815 74.439214,252.32916 c -6.054377,3.74157 -13.084766,8.31646 -20.035581,13.32251 -0.001,-9.6e-4 -3.980175,2.94894 -6.831251,-1.79874 z"
   id="path1"
   style="stroke-width:0.969544" />
	<path
   d="m 10.710814,258.82924 c -6.9772703,0.22207 -13.4501576,3.07419 -18.2342678,8.03233 -4.7754222,4.95309 -7.2853092,11.41943 -7.0694332,18.20206 0.216026,6.7874 3.132832,13.07528 8.2125478,17.71373 5.0886169,4.64011 11.7308454,7.07768 18.7081762,6.85751 6.97334,-0.22195 13.447027,-3.07984 18.226378,-8.03305 4.779352,-4.95319 7.293288,-11.41584 7.077353,-18.20037 -0.215906,-6.78359 -3.136822,-13.07708 -8.220467,-17.71542 -5.083827,-4.64407 -11.726947,-7.07874 -18.700287,-6.85679 z"
   id="path2"
   style="stroke-width:0.969544" />
	<path
   d="m 83.650264,202.15881 c -4.278053,4.38743 -9.800359,6.08508 -12.272758,3.77364 l -6.219547,-5.81587 c -2.472346,-2.31149 -0.995004,-7.79251 3.282769,-12.17902 L 252.15025,-0.45046357 c 4.27777,-4.38649153 11.76002,-9.52186463 16.62598,-11.41107443 l 36.39105,-14.130195 c 4.86693,-1.889518 7.45405,0.534175 5.75003,5.386847 L 298.19833,15.60989 c -1.704,4.852682 -6.59819,12.411425 -10.8762,16.798882 L 103.5993,220.81669 c -4.277762,4.3865 -9.800109,6.0841 -12.27249,3.77267 l -6.228008,-5.82381 c -2.472355,-2.31151 -0.995015,-7.79251 3.283028,-12.17997 L 242.20282,48.836659 c 2.26368,-2.318569 3.04084,-5.195149 1.7324,-6.417334 -1.30284,-1.226554 -4.19892,-0.336269 -6.46533,1.985736 z"
   id="path3"
   style="stroke-width:0.919911" />
</g>
</svg>
