<?xml version="1.0" standalone="no"?>
<!DOCTYPE svg PUBLIC "-//W3C//DTD SVG 20010904//EN"
 "http://www.w3.org/TR/2001/REC-SVG-20010904/DTD/svg10.dtd">
<svg version="1.0" xmlns="http://www.w3.org/2000/svg"
 width="1600.000000pt" height="1517.000000pt" viewBox="0 0 1600.000000 1517.000000"
 preserveAspectRatio="xMidYMid meet">

<g transform="translate(0.000000,1517.000000) scale(0.100000,-0.100000)"
fill="#000000" stroke="none">
<path d="M2290 13615 l0 -65 -60 0 -60 0 0 -315 0 -315 60 0 60 0 0 -700 0
-700 65 0 65 0 0 -630 0 -630 65 0 65 0 0 -125 0 -125 60 0 60 0 0 -130 0
-130 130 0 130 0 0 -125 0 -125 125 0 125 0 0 -65 0 -65 65 0 65 0 0 -60 0
-60 60 0 60 0 0 -65 0 -65 65 0 65 0 0 -65 0 -65 65 0 65 0 0 -60 0 -60 60 0
60 0 0 -65 0 -65 65 0 65 0 0 -65 0 -65 125 0 125 0 0 -60 0 -60 130 0 130 0
0 -65 0 -65 60 0 60 0 0 -65 0 -65 65 0 65 0 0 -60 0 -60 65 0 65 0 0 -65 0
-65 60 0 60 0 0 -65 0 -65 65 0 65 0 0 -125 0 -125 65 0 65 0 0 -65 0 -65 60
0 60 0 0 -60 0 -60 65 0 65 0 0 -65 0 -65 65 0 65 0 0 -65 0 -65 60 0 60 0 0
-60 0 -60 65 0 65 0 0 -65 0 -65 60 0 60 0 0 -65 0 -65 65 0 65 0 0 -60 0 -60
65 0 65 0 0 -65 0 -65 125 0 125 0 0 -65 0 -65 65 0 65 0 0 -60 0 -60 60 0 60
0 0 -65 0 -65 65 0 65 0 0 -250 0 -250 65 0 65 0 0 -130 0 -130 60 0 60 0 0
-125 0 -125 65 0 65 0 0 -65 0 -65 65 0 65 0 0 -60 0 -60 125 0 125 0 0 -65 0
-65 65 0 65 0 0 -65 0 -65 60 0 60 0 0 -60 0 -60 65 0 65 0 0 -130 0 -130 65
0 65 0 0 -125 0 -125 60 0 60 0 0 -65 0 -65 65 0 65 0 0 -60 0 -60 65 0 65 0
0 -65 0 -65 125 0 125 0 0 -125 0 -125 65 0 65 0 0 -130 0 -130 60 0 60 0 0
-60 0 -60 65 0 65 0 0 -65 0 -65 65 0 65 0 0 -65 0 -65 60 0 60 0 0 -60 0 -60
65 0 65 0 0 -65 0 -65 125 0 125 0 0 -65 0 -65 65 0 65 0 0 -60 0 -60 570 0
570 0 0 -65 0 -65 570 0 570 0 0 65 0 65 190 0 190 0 0 125 0 125 60 0 60 0 0
-65 0 -65 380 0 380 0 0 65 0 65 130 0 130 0 0 65 0 65 60 0 60 0 0 250 0 250
-60 0 -60 0 0 65 0 65 -130 0 -130 0 0 65 0 65 -125 0 -125 0 0 60 0 60 -255
0 -255 0 0 65 0 65 -60 0 -60 0 0 65 0 65 190 0 190 0 0 -65 0 -65 630 0 630
0 0 315 0 315 -65 0 -65 0 0 65 0 65 -60 0 -60 0 0 65 0 65 -125 0 -125 0 0
60 0 60 -320 0 -320 0 0 65 0 65 -60 0 -60 0 0 65 0 65 -65 0 -65 0 0 60 0 60
-65 0 -65 0 0 65 0 65 -60 0 -60 0 0 65 0 65 -65 0 -65 0 0 60 0 60 -65 0 -65
0 0 65 0 65 -60 0 -60 0 0 65 0 65 -190 0 -190 0 0 250 0 250 125 0 125 0 0
-60 0 -60 255 0 255 0 0 -65 0 -65 505 0 505 0 0 65 0 65 65 0 65 0 0 60 0 60
60 0 60 0 0 255 0 255 -60 0 -60 0 0 60 0 60 -65 0 -65 0 0 65 0 65 -125 0
-125 0 0 65 0 65 -130 0 -130 0 0 60 0 60 -125 0 -125 0 0 65 0 65 -65 0 -65
0 0 65 0 65 -125 0 -125 0 0 60 0 60 -65 0 -65 0 0 65 0 65 -190 0 -190 0 0
65 0 65 -125 0 -125 0 0 60 0 60 -125 0 -125 0 0 65 0 65 -190 0 -190 0 0 65
0 65 -130 0 -130 0 0 60 0 60 -315 0 -315 0 0 65 0 65 -315 0 -315 0 0 65 0
65 -65 0 -65 0 0 60 0 60 -60 0 -60 0 0 65 0 65 -65 0 -65 0 0 65 0 65 -125 0
-125 0 0 125 0 125 -65 0 -65 0 0 65 0 65 -65 0 -65 0 0 60 0 60 -60 0 -60 0
0 65 0 65 -65 0 -65 0 0 125 0 125 -65 0 -65 0 0 65 0 65 -60 0 -60 0 0 65 0
65 -65 0 -65 0 0 125 0 125 -65 0 -65 0 0 60 0 60 -60 0 -60 0 0 65 0 65 -65
0 -65 0 0 65 0 65 -65 0 -65 0 0 125 0 125 -60 0 -60 0 0 65 0 65 -65 0 -65 0
0 125 0 125 -65 0 -65 0 0 65 0 65 -60 0 -60 0 0 125 0 125 -65 0 -65 0 0 65
0 65 -65 0 -65 0 0 125 0 125 -60 0 -60 0 0 190 0 190 -65 0 -65 0 0 65 0 65
-65 0 -65 0 0 60 0 60 -60 0 -60 0 0 65 0 65 -65 0 -65 0 0 65 0 65 -65 0 -65
0 0 60 0 60 -440 0 -440 0 0 65 0 65 -255 0 -255 0 0 65 0 65 -250 0 -250 0 0
60 0 60 -255 0 -255 0 0 65 0 65 -125 0 -125 0 0 65 0 65 -510 0 -510 0 0 -65z
m890 -130 l0 -65 125 0 125 0 0 -60 0 -60 255 0 255 0 0 -65 0 -65 65 0 65 0
0 -65 0 -65 60 0 60 0 0 65 0 65 65 0 65 0 0 -65 0 -65 65 0 65 0 0 -60 0 -60
60 0 60 0 0 60 0 60 65 0 65 0 0 -60 0 -60 65 0 65 0 0 60 0 60 60 0 60 0 0
-60 0 -60 65 0 65 0 0 -65 0 -65 65 0 65 0 0 65 0 65 60 0 60 0 0 -65 0 -65
65 0 65 0 0 65 0 65 65 0 65 0 0 -65 0 -65 60 0 60 0 0 65 0 65 65 0 65 0 0
-65 0 -65 60 0 60 0 0 -65 0 -65 65 0 65 0 0 -60 0 -60 65 0 65 0 0 -65 0 -65
60 0 60 0 0 -65 0 -65 -60 0 -60 0 0 65 0 65 -65 0 -65 0 0 65 0 65 -65 0 -65
0 0 60 0 60 -60 0 -60 0 0 -60 0 -60 -65 0 -65 0 0 60 0 60 -60 0 -60 0 0 -60
0 -60 -65 0 -65 0 0 60 0 60 -65 0 -65 0 0 65 0 65 -60 0 -60 0 0 -65 0 -65
-65 0 -65 0 0 65 0 65 -65 0 -65 0 0 -65 0 -65 -60 0 -60 0 0 65 0 65 -65 0
-65 0 0 -65 0 -65 -65 0 -65 0 0 65 0 65 -315 0 -315 0 0 65 0 65 -445 0 -445
0 0 60 0 60 -60 0 -60 0 0 65 0 65 -65 0 -65 0 0 65 0 65 -65 0 -65 0 0 60 0
60 -60 0 -60 0 0 65 0 65 315 0 315 0 0 -65z m-630 -380 l0 -65 60 0 60 0 0
-60 0 -60 65 0 65 0 0 -65 0 -65 65 0 65 0 0 -65 0 -65 -65 0 -65 0 0 -60 0
-60 65 0 65 0 0 -65 0 -65 -65 0 -65 0 0 -65 0 -65 65 0 65 0 0 -60 0 -60 -65
0 -65 0 0 -65 0 -65 65 0 65 0 0 -65 0 -65 -65 0 -65 0 0 -60 0 -60 65 0 65 0
0 -65 0 -65 60 0 60 0 0 -65 0 -65 -60 0 -60 0 0 -60 0 -60 60 0 60 0 0 -65 0
-65 -60 0 -60 0 0 -65 0 -65 60 0 60 0 0 -60 0 -60 -60 0 -60 0 0 -65 0 -65
60 0 60 0 0 -65 0 -65 -60 0 -60 0 0 -60 0 -60 60 0 60 0 0 -65 0 -65 -60 0
-60 0 0 -65 0 -65 60 0 60 0 0 -60 0 -60 -60 0 -60 0 0 -65 0 -65 60 0 60 0 0
-60 0 -60 -125 0 -125 0 0 125 0 125 -65 0 -65 0 0 60 0 60 65 0 65 0 0 65 0
65 -65 0 -65 0 0 65 0 65 65 0 65 0 0 60 0 60 -65 0 -65 0 0 65 0 65 65 0 65
0 0 65 0 65 -65 0 -65 0 0 60 0 60 65 0 65 0 0 65 0 65 -65 0 -65 0 0 65 0 65
65 0 65 0 0 60 0 60 -65 0 -65 0 0 65 0 65 65 0 65 0 0 65 0 65 -65 0 -65 0 0
60 0 60 -60 0 -60 0 0 65 0 65 60 0 60 0 0 65 0 65 -60 0 -60 0 0 60 0 60 60
0 60 0 0 65 0 65 -60 0 -60 0 0 65 0 65 60 0 60 0 0 60 0 60 -60 0 -60 0 0 65
0 65 60 0 60 0 0 65 0 65 -60 0 -60 0 0 60 0 60 -65 0 -65 0 0 65 0 65 65 0
65 0 0 -65z m1260 -380 l0 -65 130 0 130 0 0 -60 0 -60 60 0 60 0 0 60 0 60
130 0 130 0 0 -125 0 -125 60 0 60 0 0 65 0 65 65 0 65 0 0 -65 0 -65 65 0 65
0 0 65 0 65 60 0 60 0 0 -65 0 -65 65 0 65 0 0 65 0 65 65 0 65 0 0 -65 0 -65
60 0 60 0 0 -65 0 -65 65 0 65 0 0 65 0 65 65 0 65 0 0 -65 0 -65 60 0 60 0 0
65 0 65 65 0 65 0 0 -65 0 -65 60 0 60 0 0 -60 0 -60 65 0 65 0 0 -65 0 -65
65 0 65 0 0 65 0 65 60 0 60 0 0 -65 0 -65 65 0 65 0 0 -65 0 -65 65 0 65 0 0
-60 0 -60 -65 0 -65 0 0 -65 0 -65 65 0 65 0 0 -65 0 -65 60 0 60 0 0 -60 0
-60 65 0 65 0 0 -65 0 -65 65 0 65 0 0 -65 0 -65 60 0 60 0 0 -60 0 -60 -60 0
-60 0 0 -65 0 -65 60 0 60 0 0 -65 0 -65 65 0 65 0 0 -60 0 -60 65 0 65 0 0
-65 0 -65 60 0 60 0 0 -65 0 -65 65 0 65 0 0 -60 0 -60 65 0 65 0 0 -65 0 -65
60 0 60 0 0 -60 0 -60 -60 0 -60 0 0 60 0 60 -65 0 -65 0 0 65 0 65 -65 0 -65
0 0 -65 0 -65 -60 0 -60 0 0 65 0 65 -65 0 -65 0 0 60 0 60 -65 0 -65 0 0 -60
0 -60 -60 0 -60 0 0 60 0 60 -190 0 -190 0 0 65 0 65 -320 0 -320 0 0 65 0 65
-185 0 -185 0 0 60 0 60 -65 0 -65 0 0 -60 0 -60 -315 0 -315 0 0 60 0 60 60
0 60 0 0 65 0 65 -125 0 -125 0 0 65 0 65 -65 0 -65 0 0 125 0 125 -60 0 -60
0 0 65 0 65 -65 0 -65 0 0 60 0 60 -65 0 -65 0 0 65 0 65 -60 0 -60 0 0 65 0
65 -65 0 -65 0 0 60 0 60 -65 0 -65 0 0 65 0 65 -60 0 -60 0 0 190 0 190 -65
0 -65 0 0 65 0 65 -125 0 -125 0 0 125 0 125 250 0 250 0 0 -65z m-630 -250
l0 -65 65 0 65 0 0 -65 0 -65 60 0 60 0 0 -60 0 -60 65 0 65 0 0 -65 0 -65
-65 0 -65 0 0 -65 0 -65 65 0 65 0 0 -60 0 -60 65 0 65 0 0 -65 0 -65 60 0 60
0 0 -65 0 -65 65 0 65 0 0 -60 0 -60 65 0 65 0 0 -65 0 -65 60 0 60 0 0 -65 0
-65 65 0 65 0 0 -60 0 -60 65 0 65 0 0 -65 0 -65 60 0 60 0 0 -65 0 -65 65 0
65 0 0 -60 0 -60 -65 0 -65 0 0 -65 0 -65 65 0 65 0 0 -65 0 -65 -65 0 -65 0
0 -60 0 -60 65 0 65 0 0 -65 0 -65 -65 0 -65 0 0 -60 0 -60 65 0 65 0 0 -65 0
-65 -65 0 -65 0 0 -65 0 -65 65 0 65 0 0 -60 0 -60 -65 0 -65 0 0 -65 0 -65
65 0 65 0 0 -65 0 -65 -65 0 -65 0 0 -60 0 -60 65 0 65 0 0 -65 0 -65 -65 0
-65 0 0 -65 0 -65 65 0 65 0 0 -60 0 -60 65 0 65 0 0 -65 0 -65 -65 0 -65 0 0
-65 0 -65 65 0 65 0 0 -60 0 -60 -65 0 -65 0 0 60 0 60 -125 0 -125 0 0 65 0
65 -65 0 -65 0 0 65 0 65 -125 0 -125 0 0 60 0 60 -65 0 -65 0 0 65 0 65 -65
0 -65 0 0 65 0 65 -60 0 -60 0 0 60 0 60 -65 0 -65 0 0 65 0 65 -65 0 -65 0 0
65 0 65 -125 0 -125 0 0 250 0 250 65 0 65 0 0 65 0 65 -65 0 -65 0 0 60 0 60
65 0 65 0 0 65 0 65 -65 0 -65 0 0 65 0 65 65 0 65 0 0 60 0 60 -65 0 -65 0 0
65 0 65 65 0 65 0 0 65 0 65 -65 0 -65 0 0 60 0 60 65 0 65 0 0 65 0 65 -65 0
-65 0 0 65 0 65 65 0 65 0 0 60 0 60 -65 0 -65 0 0 65 0 65 65 0 65 0 0 65 0
65 -65 0 -65 0 0 60 0 60 -65 0 -65 0 0 65 0 65 65 0 65 0 0 65 0 65 -65 0
-65 0 0 60 0 60 65 0 65 0 0 65 0 65 -65 0 -65 0 0 65 0 65 65 0 65 0 0 -65z
m2530 -2030 l0 -65 315 0 315 0 0 -60 0 -60 255 0 255 0 0 -125 0 -125 65 0
65 0 0 60 0 60 60 0 60 0 0 -60 0 -60 65 0 65 0 0 -65 0 -65 65 0 65 0 0 65 0
65 60 0 60 0 0 -65 0 -65 65 0 65 0 0 -65 0 -65 65 0 65 0 0 65 0 65 60 0 60
0 0 -65 0 -65 65 0 65 0 0 -60 0 -60 65 0 65 0 0 -65 0 -65 -65 0 -65 0 0 65
0 65 -65 0 -65 0 0 60 0 60 -60 0 -60 0 0 -60 0 -60 -65 0 -65 0 0 60 0 60
-65 0 -65 0 0 -60 0 -60 -60 0 -60 0 0 60 0 60 -190 0 -190 0 0 65 0 65 -65 0
-65 0 0 -65 0 -65 -65 0 -65 0 0 65 0 65 -190 0 -190 0 0 65 0 65 -60 0 -60 0
0 -65 0 -65 -130 0 -130 0 0 65 0 65 -315 0 -315 0 0 60 0 60 -60 0 -60 0 0
65 0 65 -65 0 -65 0 0 125 0 125 315 0 315 0 0 -65z m-760 -250 l0 -65 65 0
65 0 0 -60 0 -60 65 0 65 0 0 -65 0 -65 60 0 60 0 0 -65 0 -65 -60 0 -60 0 0
-60 0 -60 60 0 60 0 0 -65 0 -65 -60 0 -60 0 0 -65 0 -65 60 0 60 0 0 -60 0
-60 -60 0 -60 0 0 -65 0 -65 60 0 60 0 0 -65 0 -65 65 0 65 0 0 -60 0 -60 -65
0 -65 0 0 -65 0 -65 65 0 65 0 0 -65 0 -65 -65 0 -65 0 0 -60 0 -60 65 0 65 0
0 -65 0 -65 -65 0 -65 0 0 -65 0 -65 65 0 65 0 0 -60 0 -60 65 0 65 0 0 -65 0
-65 -65 0 -65 0 0 -65 0 -65 65 0 65 0 0 -125 0 -125 -65 0 -65 0 0 65 0 65
-65 0 -65 0 0 125 0 125 -60 0 -60 0 0 65 0 65 -65 0 -65 0 0 60 0 60 -65 0
-65 0 0 65 0 65 65 0 65 0 0 65 0 65 -65 0 -65 0 0 60 0 60 65 0 65 0 0 65 0
65 -65 0 -65 0 0 65 0 65 65 0 65 0 0 60 0 60 -65 0 -65 0 0 65 0 65 -60 0
-60 0 0 65 0 65 60 0 60 0 0 60 0 60 -60 0 -60 0 0 65 0 65 60 0 60 0 0 65 0
65 -60 0 -60 0 0 60 0 60 60 0 60 0 0 65 0 65 -60 0 -60 0 0 65 0 65 60 0 60
0 0 60 0 60 -60 0 -60 0 0 65 0 65 60 0 60 0 0 -65z m890 -380 l0 -65 315 0
315 0 0 -60 0 -60 190 0 190 0 0 -65 0 -65 65 0 65 0 0 65 0 65 125 0 125 0 0
-65 0 -65 255 0 255 0 0 -65 0 -65 60 0 60 0 0 -60 0 -60 65 0 65 0 0 60 0 60
65 0 65 0 0 -60 0 -60 60 0 60 0 0 60 0 60 65 0 65 0 0 -60 0 -60 65 0 65 0 0
-65 0 -65 -65 0 -65 0 0 65 0 65 -65 0 -65 0 0 -65 0 -65 -60 0 -60 0 0 65 0
65 -65 0 -65 0 0 -65 0 -65 -65 0 -65 0 0 65 0 65 -60 0 -60 0 0 -65 0 -65
-190 0 -190 0 0 65 0 65 -65 0 -65 0 0 -65 0 -65 -65 0 -65 0 0 65 0 65 -60 0
-60 0 0 -65 0 -65 -445 0 -445 0 0 65 0 65 -65 0 -65 0 0 60 0 60 -60 0 -60 0
0 65 0 65 -65 0 -65 0 0 65 0 65 -60 0 -60 0 0 125 0 125 125 0 125 0 0 -65z
m-250 -505 l0 -60 60 0 60 0 0 -65 0 -65 65 0 65 0 0 -65 0 -65 60 0 60 0 0
-60 0 -60 -60 0 -60 0 0 -65 0 -65 60 0 60 0 0 -65 0 -65 -60 0 -60 0 0 -60 0
-60 60 0 60 0 0 -65 0 -65 -60 0 -60 0 0 -65 0 -65 60 0 60 0 0 -60 0 -60 -60
0 -60 0 0 -65 0 -65 60 0 60 0 0 -65 0 -65 65 0 65 0 0 -60 0 -60 -65 0 -65 0
0 -65 0 -65 65 0 65 0 0 -65 0 -65 -65 0 -65 0 0 -60 0 -60 65 0 65 0 0 -65 0
-65 65 0 65 0 0 -125 0 -125 -65 0 -65 0 0 60 0 60 -65 0 -65 0 0 65 0 65 -60
0 -60 0 0 65 0 65 -65 0 -65 0 0 125 0 125 65 0 65 0 0 65 0 65 -65 0 -65 0 0
60 0 60 65 0 65 0 0 65 0 65 -65 0 -65 0 0 65 0 65 65 0 65 0 0 60 0 60 -65 0
-65 0 0 65 0 65 -60 0 -60 0 0 65 0 65 60 0 60 0 0 60 0 60 -60 0 -60 0 0 65
0 65 60 0 60 0 0 65 0 65 -60 0 -60 0 0 60 0 60 60 0 60 0 0 65 0 65 -60 0
-60 0 0 65 0 65 -65 0 -65 0 0 60 0 60 65 0 65 0 0 -60z m1640 -380 l0 -60 65
0 65 0 0 60 0 60 190 0 190 0 0 -60 0 -60 60 0 60 0 0 60 0 60 65 0 65 0 0
-60 0 -60 65 0 65 0 0 60 0 60 190 0 190 0 0 -60 0 -60 60 0 60 0 0 60 0 60
65 0 65 0 0 -60 0 -60 -65 0 -65 0 0 -65 0 -65 65 0 65 0 0 -65 0 -65 65 0 65
0 0 65 0 65 60 0 60 0 0 -65 0 -65 65 0 65 0 0 -60 0 -60 65 0 65 0 0 -65 0
-65 -65 0 -65 0 0 -65 0 -65 -65 0 -65 0 0 65 0 65 -60 0 -60 0 0 -125 0 -125
-130 0 -130 0 0 -65 0 -65 -60 0 -60 0 0 -65 0 -65 -65 0 -65 0 0 -60 0 -60
-65 0 -65 0 0 -65 0 -65 -60 0 -60 0 0 65 0 65 -65 0 -65 0 0 -130 0 -130 -65
0 -65 0 0 -60 0 -60 -125 0 -125 0 0 60 0 60 -65 0 -65 0 0 65 0 65 -60 0 -60
0 0 65 0 65 -65 0 -65 0 0 60 0 60 -65 0 -65 0 0 65 0 65 -60 0 -60 0 0 125 0
125 -65 0 -65 0 0 65 0 65 -65 0 -65 0 0 65 0 65 -60 0 -60 0 0 60 0 60 -65 0
-65 0 0 130 0 130 -65 0 -65 0 0 60 0 60 445 0 445 0 0 -60z m-1010 -255 l0
-65 60 0 60 0 0 -60 0 -60 65 0 65 0 0 -65 0 -65 65 0 65 0 0 -65 0 -65 60 0
60 0 0 -60 0 -60 65 0 65 0 0 -65 0 -65 -65 0 -65 0 0 -65 0 -65 65 0 65 0 0
-60 0 -60 65 0 65 0 0 -65 0 -65 60 0 60 0 0 -65 0 -65 65 0 65 0 0 -60 0 -60
65 0 65 0 0 -65 0 -65 60 0 60 0 0 -65 0 -65 -60 0 -60 0 0 -60 0 -60 -65 0
-65 0 0 -65 0 -65 65 0 65 0 0 -65 0 -65 -65 0 -65 0 0 -60 0 -60 -65 0 -65 0
0 -65 0 -65 -60 0 -60 0 0 -65 0 -65 60 0 60 0 0 -60 0 -60 -60 0 -60 0 0 60
0 60 -65 0 -65 0 0 65 0 65 -65 0 -65 0 0 65 0 65 -60 0 -60 0 0 60 0 60 -130
0 -130 0 0 130 0 130 65 0 65 0 0 60 0 60 -65 0 -65 0 0 65 0 65 65 0 65 0 0
65 0 65 -65 0 -65 0 0 60 0 60 -60 0 -60 0 0 65 0 65 60 0 60 0 0 65 0 65 -60
0 -60 0 0 60 0 60 60 0 60 0 0 65 0 65 -60 0 -60 0 0 65 0 65 -65 0 -65 0 0
60 0 60 65 0 65 0 0 65 0 65 -65 0 -65 0 0 65 0 65 65 0 65 0 0 60 0 60 -65 0
-65 0 0 65 0 65 65 0 65 0 0 -65z m3160 -570 l0 -125 -125 0 -125 0 0 -65 0
-65 -65 0 -65 0 0 -125 0 -125 -60 0 -60 0 0 -65 0 -65 -65 0 -65 0 0 -250 0
-250 -65 0 -65 0 0 -190 0 -190 -60 0 -60 0 0 -65 0 -65 -190 0 -190 0 0 -65
0 -65 -190 0 -190 0 0 -60 0 -60 -130 0 -130 0 0 -65 0 -65 -60 0 -60 0 0 -60
0 -60 -65 0 -65 0 0 -65 0 -65 -65 0 -65 0 0 125 0 125 130 0 130 0 0 65 0 65
-65 0 -65 0 0 60 0 60 65 0 65 0 0 65 0 65 60 0 60 0 0 65 0 65 65 0 65 0 0
60 0 60 -65 0 -65 0 0 65 0 65 65 0 65 0 0 65 0 65 65 0 65 0 0 60 0 60 60 0
60 0 0 65 0 65 65 0 65 0 0 65 0 65 65 0 65 0 0 60 0 60 60 0 60 0 0 -60 0
-60 65 0 65 0 0 60 0 60 65 0 65 0 0 130 0 130 60 0 60 0 0 60 0 60 130 0 130
0 0 65 0 65 60 0 60 0 0 65 0 65 130 0 130 0 0 60 0 60 60 0 60 0 0 -125z
m380 65 l0 -60 65 0 65 0 0 60 0 60 60 0 60 0 0 -125 0 -125 -60 0 -60 0 0
-65 0 -65 -65 0 -65 0 0 -125 0 -125 -60 0 -60 0 0 -125 0 -125 -65 0 -65 0 0
-130 0 -130 -65 0 -65 0 0 -60 0 -60 65 0 65 0 0 -65 0 -65 -65 0 -65 0 0
-255 0 -255 -60 0 -60 0 0 -315 0 -315 -635 0 -635 0 0 -60 0 -60 -190 0 -190
0 0 -65 0 -65 -190 0 -190 0 0 65 0 65 -65 0 -65 0 0 60 0 60 130 0 130 0 0
65 0 65 60 0 60 0 0 65 0 65 65 0 65 0 0 60 0 60 125 0 125 0 0 65 0 65 65 0
65 0 0 -65 0 -65 65 0 65 0 0 65 0 65 60 0 60 0 0 60 0 60 65 0 65 0 0 -60 0
-60 65 0 65 0 0 60 0 60 60 0 60 0 0 65 0 65 65 0 65 0 0 65 0 65 65 0 65 0 0
60 0 60 -65 0 -65 0 0 65 0 65 65 0 65 0 0 65 0 65 60 0 60 0 0 60 0 60 -60 0
-60 0 0 130 0 130 60 0 60 0 0 60 0 60 65 0 65 0 0 130 0 130 65 0 65 0 0 60
0 60 125 0 125 0 0 190 0 190 125 0 125 0 0 -60z m630 -125 l0 -65 65 0 65 0
0 65 0 65 65 0 65 0 0 -65 0 -65 60 0 60 0 0 -65 0 -65 65 0 65 0 0 -60 0 -60
65 0 65 0 0 60 0 60 60 0 60 0 0 -60 0 -60 65 0 65 0 0 -65 0 -65 65 0 65 0 0
65 0 65 60 0 60 0 0 -65 0 -65 130 0 130 0 0 -65 0 -65 60 0 60 0 0 -60 0 -60
-125 0 -125 0 0 -65 0 -65 -65 0 -65 0 0 -65 0 -65 65 0 65 0 0 -60 0 -60 -65
0 -65 0 0 -65 0 -65 -60 0 -60 0 0 -65 0 -65 -65 0 -65 0 0 -60 0 -60 65 0 65
0 0 -65 0 -65 -65 0 -65 0 0 -65 0 -65 65 0 65 0 0 -60 0 -60 60 0 60 0 0 -65
0 -65 65 0 65 0 0 -315 0 -315 -65 0 -65 0 0 65 0 65 -60 0 -60 0 0 -65 0 -65
-65 0 -65 0 0 -65 0 -65 -65 0 -65 0 0 -125 0 -125 -60 0 -60 0 0 -125 0 -125
-65 0 -65 0 0 60 0 60 -65 0 -65 0 0 -60 0 -60 -60 0 -60 0 0 -65 0 -65 -65 0
-65 0 0 65 0 65 -65 0 -65 0 0 -130 0 -130 -60 0 -60 0 0 -125 0 -125 -65 0
-65 0 0 -65 0 -65 -65 0 -65 0 0 65 0 65 -60 0 -60 0 0 -65 0 -65 -65 0 -65 0
0 -60 0 -60 -60 0 -60 0 0 60 0 60 -65 0 -65 0 0 -125 0 -125 -65 0 -65 0 0
-65 0 -65 -60 0 -60 0 0 -125 0 -125 -65 0 -65 0 0 65 0 65 -65 0 -65 0 0 60
0 60 -60 0 -60 0 0 65 0 65 -65 0 -65 0 0 -65 0 -65 -65 0 -65 0 0 65 0 65
-60 0 -60 0 0 65 0 65 -65 0 -65 0 0 60 0 60 190 0 190 0 0 65 0 65 190 0 190
0 0 65 0 65 190 0 190 0 0 60 0 60 65 0 65 0 0 65 0 65 60 0 60 0 0 65 0 65
125 0 125 0 0 60 0 60 65 0 65 0 0 65 0 65 65 0 65 0 0 65 0 65 60 0 60 0 0
60 0 60 65 0 65 0 0 65 0 65 65 0 65 0 0 65 0 65 60 0 60 0 0 60 0 60 65 0 65
0 0 65 0 65 65 0 65 0 0 250 0 250 60 0 60 0 0 65 0 65 -60 0 -60 0 0 65 0 65
-65 0 -65 0 0 60 0 60 -65 0 -65 0 0 65 0 65 65 0 65 0 0 65 0 65 -65 0 -65 0
0 60 0 60 -60 0 -60 0 0 -60 0 -60 -65 0 -65 0 0 60 0 60 65 0 65 0 0 65 0 65
-65 0 -65 0 0 65 0 65 -65 0 -65 0 0 60 0 60 -60 0 -60 0 0 65 0 65 -190 0
-190 0 0 65 0 65 60 0 60 0 0 60 0 60 65 0 65 0 0 65 0 65 65 0 65 0 0 65 0
65 60 0 60 0 0 -65z m-250 -700 l0 -125 65 0 65 0 0 -65 0 -65 60 0 60 0 0
-315 0 -315 -60 0 -60 0 0 -125 0 -125 -65 0 -65 0 0 -125 0 -125 -65 0 -65 0
0 -65 0 -65 -60 0 -60 0 0 -65 0 -65 -65 0 -65 0 0 -60 0 -60 -60 0 -60 0 0
-65 0 -65 -65 0 -65 0 0 -65 0 -65 -65 0 -65 0 0 -60 0 -60 -125 0 -125 0 0
-65 0 -65 -190 0 -190 0 0 -65 0 -65 -255 0 -255 0 0 65 0 65 -60 0 -60 0 0
-65 0 -65 -65 0 -65 0 0 65 0 65 -65 0 -65 0 0 -65 0 -65 -60 0 -60 0 0 65 0
65 -65 0 -65 0 0 65 0 65 -65 0 -65 0 0 60 0 60 65 0 65 0 0 -60 0 -60 65 0
65 0 0 125 0 125 190 0 190 0 0 65 0 65 630 0 630 0 0 315 0 315 65 0 65 0 0
250 0 250 65 0 65 0 0 255 0 255 60 0 60 0 0 125 0 125 190 0 190 0 0 -125z
m2030 -60 l0 -65 60 0 60 0 0 -190 0 -190 -60 0 -60 0 0 -65 0 -65 -65 0 -65
0 0 -60 0 -60 -65 0 -65 0 0 -65 0 -65 -60 0 -60 0 0 -65 0 -65 -65 0 -65 0 0
65 0 65 -65 0 -65 0 0 65 0 65 65 0 65 0 0 60 0 60 65 0 65 0 0 65 0 65 60 0
60 0 0 65 0 65 -60 0 -60 0 0 60 0 60 60 0 60 0 0 65 0 65 65 0 65 0 0 65 0
65 65 0 65 0 0 -65z m380 -130 l0 -65 60 0 60 0 0 -60 0 -60 130 0 130 0 0
-65 0 -65 125 0 125 0 0 -65 0 -65 125 0 125 0 0 -60 0 -60 65 0 65 0 0 -65 0
-65 65 0 65 0 0 -125 0 -125 -65 0 -65 0 0 -65 0 -65 -65 0 -65 0 0 -60 0 -60
-60 0 -60 0 0 60 0 60 -65 0 -65 0 0 -60 0 -60 -255 0 -255 0 0 125 0 125 -60
0 -60 0 0 -65 0 -65 -190 0 -190 0 0 65 0 65 -65 0 -65 0 0 60 0 60 65 0 65 0
0 65 0 65 60 0 60 0 0 125 0 125 65 0 65 0 0 255 0 255 65 0 65 0 0 -65z
m-1900 -380 l0 -65 -65 0 -65 0 0 65 0 65 65 0 65 0 0 -65z m0 -250 l0 -65 60
0 60 0 0 -65 0 -65 65 0 65 0 0 -185 0 -185 -65 0 -65 0 0 -65 0 -65 -60 0
-60 0 0 -65 0 -65 -65 0 -65 0 0 -60 0 -60 -65 0 -65 0 0 -65 0 -65 -60 0 -60
0 0 -65 0 -65 -65 0 -65 0 0 -60 0 -60 -65 0 -65 0 0 -65 0 -65 -60 0 -60 0 0
-65 0 -65 -125 0 -125 0 0 -60 0 -60 -65 0 -65 0 0 -65 0 -65 -65 0 -65 0 0
-65 0 -65 -190 0 -190 0 0 -60 0 -60 -125 0 -125 0 0 60 0 60 -65 0 -65 0 0
-125 0 -125 -125 0 -125 0 0 65 0 65 -65 0 -65 0 0 60 0 60 -60 0 -60 0 0 65
0 65 -65 0 -65 0 0 65 0 65 315 0 315 0 0 -65 0 -65 65 0 65 0 0 65 0 65 65 0
65 0 0 60 0 60 190 0 190 0 0 65 0 65 125 0 125 0 0 65 0 65 65 0 65 0 0 60 0
60 60 0 60 0 0 65 0 65 65 0 65 0 0 65 0 65 60 0 60 0 0 60 0 60 65 0 65 0 0
65 0 65 65 0 65 0 0 125 0 125 60 0 60 0 0 125 0 125 130 0 130 0 0 65 0 65
-65 0 -65 0 0 65 0 65 65 0 65 0 0 -65z m1390 -1140 l0 -65 65 0 65 0 0 -60 0
-60 60 0 60 0 0 -65 0 -65 65 0 65 0 0 -65 0 -65 65 0 65 0 0 -60 0 -60 60 0
60 0 0 -65 0 -65 65 0 65 0 0 -65 0 -65 65 0 65 0 0 -60 0 -60 60 0 60 0 0
-190 0 -190 -60 0 -60 0 0 -130 0 -130 -130 0 -130 0 0 65 0 65 -60 0 -60 0 0
65 0 65 -65 0 -65 0 0 -65 0 -65 -65 0 -65 0 0 65 0 65 -60 0 -60 0 0 60 0 60
-65 0 -65 0 0 65 0 65 -65 0 -65 0 0 -65 0 -65 -60 0 -60 0 0 65 0 65 -65 0
-65 0 0 65 0 65 -65 0 -65 0 0 60 0 60 -60 0 -60 0 0 65 0 65 -65 0 -65 0 0
65 0 65 -65 0 -65 0 0 60 0 60 65 0 65 0 0 65 0 65 65 0 65 0 0 65 0 65 60 0
60 0 0 60 0 60 65 0 65 0 0 -60 0 -60 65 0 65 0 0 60 0 60 60 0 60 0 0 65 0
65 65 0 65 0 0 -65z m-1010 -760 l0 -65 125 0 125 0 0 -60 0 -60 65 0 65 0 0
-65 0 -65 60 0 60 0 0 -65 0 -65 65 0 65 0 0 -60 0 -60 125 0 125 0 0 -65 0
-65 130 0 130 0 0 -65 0 -65 60 0 60 0 0 -125 0 -125 65 0 65 0 0 -65 0 -65
65 0 65 0 0 -60 0 -60 125 0 125 0 0 -65 0 -65 -65 0 -65 0 0 -65 0 -65 -60 0
-60 0 0 -60 0 -60 -65 0 -65 0 0 -65 0 -65 -125 0 -125 0 0 65 0 65 -65 0 -65
0 0 60 0 60 -65 0 -65 0 0 -60 0 -60 -60 0 -60 0 0 60 0 60 -65 0 -65 0 0 65
0 65 -65 0 -65 0 0 65 0 65 -60 0 -60 0 0 60 0 60 -65 0 -65 0 0 65 0 65 -65
0 -65 0 0 65 0 65 -60 0 -60 0 0 60 0 60 -65 0 -65 0 0 65 0 65 -65 0 -65 0 0
65 0 65 -60 0 -60 0 0 60 0 60 -65 0 -65 0 0 65 0 65 -65 0 -65 0 0 65 0 65
65 0 65 0 0 60 0 60 65 0 65 0 0 -60 0 -60 60 0 60 0 0 60 0 60 65 0 65 0 0
65 0 65 65 0 65 0 0 -65z m2530 -250 l0 -65 125 0 125 0 0 -65 0 -65 65 0 65
0 0 -60 0 -60 60 0 60 0 0 -130 0 -130 -60 0 -60 0 0 -60 0 -60 -65 0 -65 0 0
60 0 60 -60 0 -60 0 0 -60 0 -60 -65 0 -65 0 0 60 0 60 -65 0 -65 0 0 -60 0
-60 -190 0 -190 0 0 60 0 60 65 0 65 0 0 65 0 65 65 0 65 0 0 65 0 65 -65 0
-65 0 0 190 0 190 190 0 190 0 0 -65z m-3420 -380 l0 -65 65 0 65 0 0 65 0 65
60 0 60 0 0 -65 0 -65 65 0 65 0 0 -65 0 -65 125 0 125 0 0 -60 0 -60 65 0 65
0 0 -65 0 -65 65 0 65 0 0 -65 0 -65 60 0 60 0 0 -60 0 -60 65 0 65 0 0 -65 0
-65 65 0 65 0 0 -65 0 -65 60 0 60 0 0 -125 0 -125 -60 0 -60 0 0 -65 0 -65
60 0 60 0 0 -60 0 -60 -60 0 -60 0 0 -190 0 -190 -65 0 -65 0 0 60 0 60 -65 0
-65 0 0 65 0 65 -125 0 -125 0 0 65 0 65 -65 0 -65 0 0 60 0 60 -60 0 -60 0 0
65 0 65 -65 0 -65 0 0 65 0 65 -65 0 -65 0 0 60 0 60 -60 0 -60 0 0 65 0 65
-65 0 -65 0 0 125 0 125 -65 0 -65 0 0 65 0 65 -60 0 -60 0 0 65 0 65 60 0 60
0 0 60 0 60 -60 0 -60 0 0 65 0 65 60 0 60 0 0 65 0 65 65 0 65 0 0 -65z
m-380 -130 l0 -65 -60 0 -60 0 0 -60 0 -60 60 0 60 0 0 -65 0 -65 -60 0 -60 0
0 -65 0 -65 125 0 125 0 0 -60 0 -60 60 0 60 0 0 -130 0 -130 65 0 65 0 0 -60
0 -60 65 0 65 0 0 -65 0 -65 60 0 60 0 0 -65 0 -65 -60 0 -60 0 0 -125 0 -125
-130 0 -130 0 0 65 0 65 -60 0 -60 0 0 60 0 60 -65 0 -65 0 0 65 0 65 -60 0
-60 0 0 65 0 65 -65 0 -65 0 0 60 0 60 -65 0 -65 0 0 65 0 65 -60 0 -60 0 0
65 0 65 -65 0 -65 0 0 60 0 60 65 0 65 0 0 -60 0 -60 60 0 60 0 0 60 0 60 65
0 65 0 0 65 0 65 -65 0 -65 0 0 65 0 65 65 0 65 0 0 60 0 60 65 0 65 0 0 65 0
65 60 0 60 0 0 -65z m2790 -125 l0 -60 -65 0 -65 0 0 60 0 60 65 0 65 0 0 -60z
m760 -635 l0 -65 125 0 125 0 0 -60 0 -60 65 0 65 0 0 -130 0 -130 -65 0 -65
0 0 -60 0 -60 -65 0 -65 0 0 60 0 60 -60 0 -60 0 0 -60 0 -60 -65 0 -65 0 0
-65 0 -65 -65 0 -65 0 0 65 0 65 -60 0 -60 0 0 -65 0 -65 -65 0 -65 0 0 65 0
65 -65 0 -65 0 0 60 0 60 -60 0 -60 0 0 -60 0 -60 -65 0 -65 0 0 60 0 60 65 0
65 0 0 65 0 65 60 0 60 0 0 65 0 65 65 0 65 0 0 60 0 60 65 0 65 0 0 65 0 65
190 0 190 0 0 -65z m-1400 -380 l0 -65 65 0 65 0 0 -60 0 -60 125 0 125 0 0
-130 0 -130 -190 0 -190 0 0 -60 0 -60 -60 0 -60 0 0 60 0 60 -65 0 -65 0 0
-60 0 -60 -65 0 -65 0 0 125 0 125 65 0 65 0 0 125 0 125 65 0 65 0 0 65 0 65
60 0 60 0 0 -65z m-1260 -250 l0 -65 -130 0 -130 0 0 65 0 65 130 0 130 0 0
-65z"/>
<path d="M4830 12855 l0 -65 60 0 60 0 0 65 0 65 -60 0 -60 0 0 -65z"/>
<path d="M5460 12725 l0 -65 65 0 65 0 0 65 0 65 -65 0 -65 0 0 -65z"/>
<path d="M5710 12725 l0 -65 65 0 65 0 0 65 0 65 -65 0 -65 0 0 -65z"/>
<path d="M2670 12725 l0 -65 65 0 65 0 0 65 0 65 -65 0 -65 0 0 -65z"/>
<path d="M2670 12475 l0 -65 65 0 65 0 0 65 0 65 -65 0 -65 0 0 -65z"/>
<path d="M2670 12220 l0 -60 65 0 65 0 0 60 0 60 -65 0 -65 0 0 -60z"/>
<path d="M2670 11965 l0 -65 65 0 65 0 0 65 0 65 -65 0 -65 0 0 -65z"/>
<path d="M2800 11585 l0 -65 65 0 65 0 0 65 0 65 -65 0 -65 0 0 -65z"/>
<path d="M2800 11335 l0 -65 65 0 65 0 0 65 0 65 -65 0 -65 0 0 -65z"/>
<path d="M2800 11080 l0 -60 65 0 65 0 0 60 0 60 -65 0 -65 0 0 -60z"/>
<path d="M2800 10825 l0 -65 65 0 65 0 0 65 0 65 -65 0 -65 0 0 -65z"/>
<path d="M2800 10575 l0 -65 65 0 65 0 0 65 0 65 -65 0 -65 0 0 -65z"/>
<path d="M2800 10320 l0 -60 65 0 65 0 0 60 0 60 -65 0 -65 0 0 -60z"/>
<path d="M4190 12475 l0 -65 -60 0 -60 0 0 -65 0 -65 60 0 60 0 0 65 0 65 65
0 65 0 0 -65 0 -65 65 0 65 0 0 65 0 65 -65 0 -65 0 0 65 0 65 -65 0 -65 0 0
-65z"/>
<path d="M3810 12345 l0 -65 65 0 65 0 0 65 0 65 -65 0 -65 0 0 -65z"/>
<path d="M4570 12345 l0 -65 65 0 65 0 0 65 0 65 -65 0 -65 0 0 -65z"/>
<path d="M4830 12345 l0 -65 60 0 60 0 0 -60 0 -60 65 0 65 0 0 60 0 60 65 0
65 0 0 -60 0 -60 60 0 60 0 0 60 0 60 -60 0 -60 0 0 65 0 65 -65 0 -65 0 0
-65 0 -65 -65 0 -65 0 0 65 0 65 -60 0 -60 0 0 -65z"/>
<path d="M5460 12220 l0 -60 65 0 65 0 0 -65 0 -65 60 0 60 0 0 65 0 65 65 0
65 0 0 -65 0 -65 60 0 60 0 0 65 0 65 -60 0 -60 0 0 60 0 60 -65 0 -65 0 0
-60 0 -60 -60 0 -60 0 0 60 0 60 -65 0 -65 0 0 -60z"/>
<path d="M6220 11965 l0 -65 60 0 60 0 0 -60 0 -60 -60 0 -60 0 0 -65 0 -65
60 0 60 0 0 -65 0 -65 65 0 65 0 0 -60 0 -60 65 0 65 0 0 -65 0 -65 60 0 60 0
0 -65 0 -65 -60 0 -60 0 0 -60 0 -60 -65 0 -65 0 0 60 0 60 -65 0 -65 0 0 -60
0 -60 -60 0 -60 0 0 60 0 60 -65 0 -65 0 0 -60 0 -60 65 0 65 0 0 -65 0 -65
60 0 60 0 0 65 0 65 65 0 65 0 0 -65 0 -65 65 0 65 0 0 -65 0 -65 60 0 60 0 0
65 0 65 65 0 65 0 0 -65 0 -65 65 0 65 0 0 65 0 65 -65 0 -65 0 0 65 0 65 65
0 65 0 0 60 0 60 -65 0 -65 0 0 65 0 65 -65 0 -65 0 0 65 0 65 -60 0 -60 0 0
60 0 60 -65 0 -65 0 0 65 0 65 -65 0 -65 0 0 65 0 65 65 0 65 0 0 60 0 60 -65
0 -65 0 0 65 0 65 -60 0 -60 0 0 -65z m630 -885 l0 -60 -65 0 -65 0 0 -65 0
-65 -60 0 -60 0 0 65 0 65 60 0 60 0 0 60 0 60 65 0 65 0 0 -60z"/>
<path d="M4070 11840 l0 -60 60 0 60 0 0 -65 0 -65 65 0 65 0 0 65 0 65 -65 0
-65 0 0 60 0 60 -60 0 -60 0 0 -60z"/>
<path d="M4450 11715 l0 -65 60 0 60 0 0 65 0 65 -60 0 -60 0 0 -65z"/>
<path d="M4700 11715 l0 -65 65 0 65 0 0 65 0 65 -65 0 -65 0 0 -65z"/>
<path d="M4570 11335 l0 -65 65 0 65 0 0 65 0 65 -65 0 -65 0 0 -65z"/>
<path d="M4830 11335 l0 -65 60 0 60 0 0 65 0 65 -60 0 -60 0 0 -65z"/>
<path d="M5080 11335 l0 -65 65 0 65 0 0 -65 0 -65 60 0 60 0 0 65 0 65 -60 0
-60 0 0 65 0 65 -65 0 -65 0 0 -65z"/>
<path d="M5460 11205 l0 -65 65 0 65 0 0 -60 0 -60 60 0 60 0 0 60 0 60 65 0
65 0 0 -60 0 -60 60 0 60 0 0 60 0 60 -60 0 -60 0 0 65 0 65 -65 0 -65 0 0
-65 0 -65 -60 0 -60 0 0 65 0 65 -65 0 -65 0 0 -65z"/>
<path d="M7360 10320 l0 -60 60 0 60 0 0 60 0 60 -60 0 -60 0 0 -60z"/>
<path d="M3180 12220 l0 -60 65 0 65 0 0 -65 0 -65 -65 0 -65 0 0 -65 0 -65
65 0 65 0 0 -60 0 -60 60 0 60 0 0 -65 0 -65 -60 0 -60 0 0 -65 0 -65 60 0 60
0 0 -60 0 -60 -60 0 -60 0 0 -65 0 -65 60 0 60 0 0 -65 0 -65 -60 0 -60 0 0
-60 0 -60 60 0 60 0 0 -65 0 -65 -60 0 -60 0 0 -65 0 -65 60 0 60 0 0 -60 0
-60 -60 0 -60 0 0 -65 0 -65 60 0 60 0 0 -65 0 -65 -60 0 -60 0 0 -60 0 -60
60 0 60 0 0 -65 0 -65 -60 0 -60 0 0 -60 0 -60 60 0 60 0 0 -65 0 -65 65 0 65
0 0 -65 0 -65 65 0 65 0 0 -60 0 -60 60 0 60 0 0 -65 0 -65 65 0 65 0 0 -65 0
-65 65 0 65 0 0 -60 0 -60 60 0 60 0 0 -65 0 -65 65 0 65 0 0 -65 0 -65 65 0
65 0 0 -60 0 -60 60 0 60 0 0 -65 0 -65 65 0 65 0 0 65 0 65 -65 0 -65 0 0 60
0 60 -60 0 -60 0 0 65 0 65 60 0 60 0 0 65 0 65 -60 0 -60 0 0 60 0 60 60 0
60 0 0 65 0 65 -60 0 -60 0 0 65 0 65 60 0 60 0 0 60 0 60 -60 0 -60 0 0 65 0
65 60 0 60 0 0 65 0 65 -60 0 -60 0 0 60 0 60 60 0 60 0 0 65 0 65 -60 0 -60
0 0 60 0 60 60 0 60 0 0 65 0 65 -60 0 -60 0 0 65 0 65 60 0 60 0 0 60 0 60
-60 0 -60 0 0 65 0 65 -65 0 -65 0 0 65 0 65 -65 0 -65 0 0 60 0 60 -60 0 -60
0 0 65 0 65 -65 0 -65 0 0 65 0 65 -65 0 -65 0 0 60 0 60 -60 0 -60 0 0 65 0
65 -65 0 -65 0 0 65 0 65 -65 0 -65 0 0 60 0 60 -60 0 -60 0 0 65 0 65 60 0
60 0 0 65 0 65 -60 0 -60 0 0 60 0 60 -65 0 -65 0 0 -60z m380 -635 l0 -65 65
0 65 0 0 -60 0 -60 60 0 60 0 0 -65 0 -65 65 0 65 0 0 -65 0 -65 65 0 65 0 0
-60 0 -60 60 0 60 0 0 -65 0 -65 65 0 65 0 0 -65 0 -65 65 0 65 0 0 -60 0 -60
-65 0 -65 0 0 -65 0 -65 65 0 65 0 0 -65 0 -65 -65 0 -65 0 0 -60 0 -60 65 0
65 0 0 -65 0 -65 -65 0 -65 0 0 -60 0 -60 65 0 65 0 0 -65 0 -65 -65 0 -65 0
0 -65 0 -65 65 0 65 0 0 -60 0 -60 -65 0 -65 0 0 -65 0 -65 65 0 65 0 0 -65 0
-65 -65 0 -65 0 0 -60 0 -60 65 0 65 0 0 -65 0 -65 -65 0 -65 0 0 65 0 65 -65
0 -65 0 0 60 0 60 -60 0 -60 0 0 65 0 65 -65 0 -65 0 0 65 0 65 -65 0 -65 0 0
60 0 60 -60 0 -60 0 0 65 0 65 -65 0 -65 0 0 65 0 65 -65 0 -65 0 0 60 0 60
65 0 65 0 0 65 0 65 -65 0 -65 0 0 60 0 60 65 0 65 0 0 65 0 65 -65 0 -65 0 0
65 0 65 65 0 65 0 0 60 0 60 -65 0 -65 0 0 65 0 65 65 0 65 0 0 65 0 65 -65 0
-65 0 0 60 0 60 65 0 65 0 0 65 0 65 -65 0 -65 0 0 65 0 65 65 0 65 0 0 60 0
60 -65 0 -65 0 0 65 0 65 65 0 65 0 0 -65z"/>
<path d="M3560 11335 l0 -65 65 0 65 0 0 -65 0 -65 -65 0 -65 0 0 -60 0 -60
65 0 65 0 0 -65 0 -65 -65 0 -65 0 0 -65 0 -65 65 0 65 0 0 -60 0 -60 -65 0
-65 0 0 -65 0 -65 65 0 65 0 0 -65 0 -65 -65 0 -65 0 0 -60 0 -60 65 0 65 0 0
-65 0 -65 -65 0 -65 0 0 -60 0 -60 65 0 65 0 0 -65 0 -65 60 0 60 0 0 -65 0
-65 65 0 65 0 0 -60 0 -60 65 0 65 0 0 -65 0 -65 60 0 60 0 0 -65 0 -65 65 0
65 0 0 65 0 65 -65 0 -65 0 0 65 0 65 65 0 65 0 0 60 0 60 -65 0 -65 0 0 65 0
65 65 0 65 0 0 65 0 65 -65 0 -65 0 0 60 0 60 65 0 65 0 0 65 0 65 -65 0 -65
0 0 60 0 60 65 0 65 0 0 65 0 65 -65 0 -65 0 0 65 0 65 65 0 65 0 0 60 0 60
-65 0 -65 0 0 65 0 65 -60 0 -60 0 0 65 0 65 -65 0 -65 0 0 60 0 60 -65 0 -65
0 0 65 0 65 -60 0 -60 0 0 65 0 65 -65 0 -65 0 0 -65z m250 -255 l0 -60 65 0
65 0 0 -65 0 -65 65 0 65 0 0 -65 0 -65 60 0 60 0 0 -60 0 -60 -60 0 -60 0 0
-65 0 -65 60 0 60 0 0 -65 0 -65 -60 0 -60 0 0 -60 0 -60 60 0 60 0 0 -65 0
-65 -60 0 -60 0 0 -60 0 -60 60 0 60 0 0 -65 0 -65 -60 0 -60 0 0 -65 0 -65
60 0 60 0 0 -60 0 -60 -60 0 -60 0 0 60 0 60 -65 0 -65 0 0 65 0 65 -65 0 -65
0 0 65 0 65 -60 0 -60 0 0 60 0 60 60 0 60 0 0 65 0 65 -60 0 -60 0 0 60 0 60
60 0 60 0 0 65 0 65 -60 0 -60 0 0 65 0 65 60 0 60 0 0 60 0 60 -60 0 -60 0 0
65 0 65 60 0 60 0 0 65 0 65 -60 0 -60 0 0 60 0 60 60 0 60 0 0 -60z"/>
<path d="M3810 10825 l0 -65 65 0 65 0 0 -60 0 -60 -65 0 -65 0 0 -65 0 -65
65 0 65 0 0 -65 0 -65 -65 0 -65 0 0 -60 0 -60 65 0 65 0 0 -65 0 -65 -65 0
-65 0 0 -60 0 -60 65 0 65 0 0 -65 0 -65 65 0 65 0 0 65 0 65 -65 0 -65 0 0
60 0 60 65 0 65 0 0 65 0 65 -65 0 -65 0 0 60 0 60 65 0 65 0 0 65 0 65 -65 0
-65 0 0 65 0 65 65 0 65 0 0 60 0 60 -65 0 -65 0 0 65 0 65 -65 0 -65 0 0 -65z"/>
<path d="M6980 9945 l0 -65 60 0 60 0 0 65 0 65 -60 0 -60 0 0 -65z"/>
<path d="M4950 9945 l0 -65 65 0 65 0 0 -65 0 -65 -65 0 -65 0 0 -60 0 -60 65
0 65 0 0 -65 0 -65 -65 0 -65 0 0 -65 0 -65 65 0 65 0 0 -60 0 -60 -65 0 -65
0 0 -65 0 -65 65 0 65 0 0 -65 0 -65 65 0 65 0 0 -60 0 -60 -65 0 -65 0 0 -65
0 -65 65 0 65 0 0 -65 0 -65 -65 0 -65 0 0 -60 0 -60 65 0 65 0 0 -65 0 -65
-65 0 -65 0 0 -65 0 -65 65 0 65 0 0 -60 0 -60 60 0 60 0 0 -65 0 -65 65 0 65
0 0 65 0 65 -65 0 -65 0 0 60 0 60 -60 0 -60 0 0 65 0 65 60 0 60 0 0 65 0 65
-60 0 -60 0 0 60 0 60 60 0 60 0 0 65 0 65 -60 0 -60 0 0 65 0 65 60 0 60 0 0
60 0 60 -60 0 -60 0 0 65 0 65 -65 0 -65 0 0 65 0 65 65 0 65 0 0 60 0 60 -65
0 -65 0 0 65 0 65 65 0 65 0 0 65 0 65 -65 0 -65 0 0 60 0 60 65 0 65 0 0 65
0 65 -65 0 -65 0 0 65 0 65 -65 0 -65 0 0 -65z"/>
<path d="M6980 9435 l0 -65 60 0 60 0 0 -60 0 -60 65 0 65 0 0 60 0 60 -65 0
-65 0 0 65 0 65 -60 0 -60 0 0 -65z"/>
<path d="M5710 8930 l0 -60 65 0 65 0 0 60 0 60 -65 0 -65 0 0 -60z"/>
<path d="M5710 8675 l0 -65 65 0 65 0 0 65 0 65 -65 0 -65 0 0 -65z"/>
<path d="M5710 8425 l0 -65 65 0 65 0 0 65 0 65 -65 0 -65 0 0 -65z"/>
<path d="M5840 7790 l0 -60 60 0 60 0 0 60 0 60 -60 0 -60 0 0 -60z"/>
<path d="M5840 7535 l0 -65 60 0 60 0 0 65 0 65 -60 0 -60 0 0 -65z"/>
<path d="M7860 8805 l0 -65 65 0 65 0 0 -65 0 -65 65 0 65 0 0 65 0 65 -65 0
-65 0 0 65 0 65 -65 0 -65 0 0 -65z"/>
<path d="M8620 8550 l0 -60 65 0 65 0 0 -65 0 -65 65 0 65 0 0 65 0 65 60 0
60 0 0 -65 0 -65 65 0 65 0 0 65 0 65 -65 0 -65 0 0 60 0 60 -60 0 -60 0 0
-60 0 -60 -65 0 -65 0 0 60 0 60 -65 0 -65 0 0 -60z"/>
<path d="M7990 8425 l0 -65 65 0 65 0 0 -65 0 -65 60 0 60 0 0 -60 0 -60 65 0
65 0 0 -65 0 -65 65 0 65 0 0 65 0 65 -65 0 -65 0 0 60 0 60 -65 0 -65 0 0 65
0 65 -60 0 -60 0 0 65 0 65 -65 0 -65 0 0 -65z"/>
<path d="M8120 7790 l0 -60 60 0 60 0 0 60 0 60 -60 0 -60 0 0 -60z"/>
<path d="M6220 8425 l0 -65 60 0 60 0 0 -65 0 -65 -60 0 -60 0 0 -60 0 -60 60
0 60 0 0 -65 0 -65 65 0 65 0 0 -65 0 -65 -65 0 -65 0 0 -60 0 -60 65 0 65 0
0 -65 0 -65 -65 0 -65 0 0 -65 0 -65 65 0 65 0 0 -60 0 -60 65 0 65 0 0 -65 0
-65 -65 0 -65 0 0 -65 0 -65 65 0 65 0 0 -60 0 -60 60 0 60 0 0 -65 0 -65 65
0 65 0 0 -65 0 -65 65 0 65 0 0 -60 0 -60 -65 0 -65 0 0 -65 0 -65 65 0 65 0
0 65 0 65 60 0 60 0 0 60 0 60 65 0 65 0 0 65 0 65 -65 0 -65 0 0 65 0 65 65
0 65 0 0 60 0 60 65 0 65 0 0 65 0 65 -65 0 -65 0 0 65 0 65 -65 0 -65 0 0 60
0 60 -60 0 -60 0 0 65 0 65 -65 0 -65 0 0 65 0 65 -65 0 -65 0 0 60 0 60 -60
0 -60 0 0 65 0 65 60 0 60 0 0 65 0 65 -60 0 -60 0 0 60 0 60 -65 0 -65 0 0
65 0 65 -65 0 -65 0 0 65 0 65 -60 0 -60 0 0 -65z m250 -255 l0 -60 65 0 65 0
0 -65 0 -65 -65 0 -65 0 0 65 0 65 -65 0 -65 0 0 60 0 60 65 0 65 0 0 -60z
m130 -380 l0 -60 60 0 60 0 0 -65 0 -65 65 0 65 0 0 -65 0 -65 65 0 65 0 0
-60 0 -60 60 0 60 0 0 -65 0 -65 65 0 65 0 0 -65 0 -65 -65 0 -65 0 0 -60 0
-60 -60 0 -60 0 0 -65 0 -65 60 0 60 0 0 -65 0 -65 -60 0 -60 0 0 65 0 65 -65
0 -65 0 0 65 0 65 -65 0 -65 0 0 60 0 60 -60 0 -60 0 0 65 0 65 60 0 60 0 0
65 0 65 -60 0 -60 0 0 60 0 60 -65 0 -65 0 0 65 0 65 65 0 65 0 0 65 0 65 -65
0 -65 0 0 60 0 60 65 0 65 0 0 -60z"/>
<path d="M6600 7535 l0 -65 60 0 60 0 0 -60 0 -60 65 0 65 0 0 -65 0 -65 -65
0 -65 0 0 -65 0 -65 65 0 65 0 0 -60 0 -60 65 0 65 0 0 60 0 60 60 0 60 0 0
65 0 65 -60 0 -60 0 0 65 0 65 -65 0 -65 0 0 60 0 60 -65 0 -65 0 0 65 0 65
-60 0 -60 0 0 -65z m380 -380 l0 -65 -65 0 -65 0 0 65 0 65 65 0 65 0 0 -65z"/>
<path d="M7990 7155 l0 -65 -65 0 -65 0 0 -60 0 -60 -60 0 -60 0 0 -65 0 -65
-65 0 -65 0 0 -65 0 -65 65 0 65 0 0 -60 0 -60 -65 0 -65 0 0 -65 0 -65 -65 0
-65 0 0 -65 0 -65 -60 0 -60 0 0 -60 0 -60 60 0 60 0 0 60 0 60 65 0 65 0 0
65 0 65 65 0 65 0 0 65 0 65 60 0 60 0 0 60 0 60 65 0 65 0 0 -60 0 -60 65 0
65 0 0 60 0 60 -65 0 -65 0 0 65 0 65 65 0 65 0 0 65 0 65 -65 0 -65 0 0 60 0
60 65 0 65 0 0 65 0 65 -65 0 -65 0 0 -65z m0 -250 l0 -65 -65 0 -65 0 0 -65
0 -65 -60 0 -60 0 0 65 0 65 60 0 60 0 0 65 0 65 65 0 65 0 0 -65z"/>
<path d="M9640 8045 l0 -65 60 0 60 0 0 65 0 65 -60 0 -60 0 0 -65z"/>
<path d="M9000 7155 l0 -65 65 0 65 0 0 65 0 65 -65 0 -65 0 0 -65z"/>
<path d="M8880 6775 l0 -65 60 0 60 0 0 65 0 65 -60 0 -60 0 0 -65z"/>
<path d="M8880 6525 l0 -65 60 0 60 0 0 -65 0 -65 65 0 65 0 0 65 0 65 -65 0
-65 0 0 65 0 65 -60 0 -60 0 0 -65z"/>
<path d="M8620 6270 l0 -60 -60 0 -60 0 0 -65 0 -65 -65 0 -65 0 0 65 0 65
-65 0 -65 0 0 -65 0 -65 -60 0 -60 0 0 -60 0 -60 -65 0 -65 0 0 60 0 60 -65 0
-65 0 0 -60 0 -60 -60 0 -60 0 0 -65 0 -65 -65 0 -65 0 0 -65 0 -65 -65 0 -65
0 0 -60 0 -60 65 0 65 0 0 60 0 60 65 0 65 0 0 65 0 65 60 0 60 0 0 -65 0 -65
65 0 65 0 0 65 0 65 65 0 65 0 0 65 0 65 60 0 60 0 0 -65 0 -65 65 0 65 0 0
65 0 65 65 0 65 0 0 -65 0 -65 60 0 60 0 0 65 0 65 65 0 65 0 0 -65 0 -65 65
0 65 0 0 65 0 65 -65 0 -65 0 0 60 0 60 -65 0 -65 0 0 65 0 65 65 0 65 0 0 60
0 60 -65 0 -65 0 0 -60z m-250 -250 l0 -60 -65 0 -65 0 0 60 0 60 65 0 65 0 0
-60z m250 0 l0 -60 -60 0 -60 0 0 60 0 60 60 0 60 0 0 -60z m-630 -125 l0 -65
-65 0 -65 0 0 65 0 65 65 0 65 0 0 -65z"/>
<path d="M10270 7915 l0 -65 -65 0 -65 0 0 -60 0 -60 65 0 65 0 0 60 0 60 60
0 60 0 0 65 0 65 -60 0 -60 0 0 -65z"/>
<path d="M10520 7915 l0 -65 65 0 65 0 0 65 0 65 -65 0 -65 0 0 -65z"/>
<path d="M10650 7285 l0 -65 60 0 60 0 0 -65 0 -65 65 0 65 0 0 -60 0 -60 65
0 65 0 0 -65 0 -65 -65 0 -65 0 0 -65 0 -65 65 0 65 0 0 -60 0 -60 60 0 60 0
0 -65 0 -65 65 0 65 0 0 65 0 65 -65 0 -65 0 0 60 0 60 65 0 65 0 0 65 0 65
-65 0 -65 0 0 65 0 65 -60 0 -60 0 0 60 0 60 -65 0 -65 0 0 65 0 65 -65 0 -65
0 0 65 0 65 -60 0 -60 0 0 -65z m500 -510 l0 -65 -60 0 -60 0 0 65 0 65 60 0
60 0 0 -65z"/>
<path d="M11150 6270 l0 -60 65 0 65 0 0 60 0 60 -65 0 -65 0 0 -60z"/>
<path d="M11150 5765 l0 -65 -60 0 -60 0 0 -60 0 -60 60 0 60 0 0 -65 0 -65
-60 0 -60 0 0 -65 0 -65 60 0 60 0 0 65 0 65 65 0 65 0 0 65 0 65 65 0 65 0 0
60 0 60 -65 0 -65 0 0 65 0 65 -65 0 -65 0 0 -65z m130 -125 l0 -60 -65 0 -65
0 0 60 0 60 65 0 65 0 0 -60z"/>
<path d="M10520 5135 l0 -65 -65 0 -65 0 0 -65 0 -65 -60 0 -60 0 0 -60 0 -60
60 0 60 0 0 60 0 60 65 0 65 0 0 -60 0 -60 65 0 65 0 0 60 0 60 60 0 60 0 0
65 0 65 -60 0 -60 0 0 65 0 65 -65 0 -65 0 0 -65z m130 -130 l0 -65 -65 0 -65
0 0 65 0 65 65 0 65 0 0 -65z"/>
<path d="M9760 4625 l0 -65 -60 0 -60 0 0 -60 0 -60 -65 0 -65 0 0 -65 0 -65
-65 0 -65 0 0 -65 0 -65 65 0 65 0 0 65 0 65 65 0 65 0 0 -65 0 -65 60 0 60 0
0 65 0 65 65 0 65 0 0 65 0 65 60 0 60 0 0 60 0 60 -60 0 -60 0 0 65 0 65 -65
0 -65 0 0 -65z m130 -125 l0 -60 -65 0 -65 0 0 -65 0 -65 -60 0 -60 0 0 65 0
65 60 0 60 0 0 60 0 60 65 0 65 0 0 -60z"/>
<path d="M8620 3995 l0 -65 65 0 65 0 0 65 0 65 -65 0 -65 0 0 -65z"/>
<path d="M8880 3995 l0 -65 60 0 60 0 0 -65 0 -65 65 0 65 0 0 65 0 65 -65 0
-65 0 0 65 0 65 -60 0 -60 0 0 -65z"/>
<path d="M9890 7285 l0 -65 60 0 60 0 0 -65 0 -65 -60 0 -60 0 0 -60 0 -60
-65 0 -65 0 0 -65 0 -65 65 0 65 0 0 65 0 65 60 0 60 0 0 -65 0 -65 65 0 65 0
0 -65 0 -65 65 0 65 0 0 65 0 65 -65 0 -65 0 0 65 0 65 65 0 65 0 0 60 0 60
-65 0 -65 0 0 65 0 65 -65 0 -65 0 0 65 0 65 -60 0 -60 0 0 -65z m250 -255 l0
-60 -65 0 -65 0 0 60 0 60 65 0 65 0 0 -60z"/>
<path d="M9760 6395 l0 -65 -60 0 -60 0 0 -60 0 -60 60 0 60 0 0 -65 0 -65
-60 0 -60 0 0 -60 0 -60 60 0 60 0 0 -65 0 -65 65 0 65 0 0 65 0 65 -65 0 -65
0 0 60 0 60 65 0 65 0 0 65 0 65 60 0 60 0 0 60 0 60 -60 0 -60 0 0 65 0 65
-65 0 -65 0 0 -65z m130 -125 l0 -60 -65 0 -65 0 0 60 0 60 65 0 65 0 0 -60z"/>
<path d="M8240 5385 l0 -65 -60 0 -60 0 0 -60 0 -60 -65 0 -65 0 0 60 0 60
-65 0 -65 0 0 -60 0 -60 -60 0 -60 0 0 -65 0 -65 60 0 60 0 0 65 0 65 65 0 65
0 0 -65 0 -65 65 0 65 0 0 65 0 65 60 0 60 0 0 -65 0 -65 65 0 65 0 0 65 0 65
65 0 65 0 0 -65 0 -65 60 0 60 0 0 65 0 65 65 0 65 0 0 60 0 60 65 0 65 0 0
-60 0 -60 60 0 60 0 0 60 0 60 65 0 65 0 0 65 0 65 -65 0 -65 0 0 -65 0 -65
-60 0 -60 0 0 65 0 65 -65 0 -65 0 0 -65 0 -65 -65 0 -65 0 0 65 0 65 -60 0
-60 0 0 -65 0 -65 -65 0 -65 0 0 65 0 65 -65 0 -65 0 0 -65z m130 -125 l0 -60
-65 0 -65 0 0 60 0 60 65 0 65 0 0 -60z m250 0 l0 -60 -60 0 -60 0 0 60 0 60
60 0 60 0 0 -60z"/>
<path d="M9260 5385 l0 -65 60 0 60 0 0 65 0 65 -60 0 -60 0 0 -65z"/>
<path d="M12040 7155 l0 -65 -65 0 -65 0 0 -60 0 -60 65 0 65 0 0 -65 0 -65
-65 0 -65 0 0 -65 0 -65 -60 0 -60 0 0 -60 0 -60 -65 0 -65 0 0 -65 0 -65 65
0 65 0 0 65 0 65 60 0 60 0 0 60 0 60 65 0 65 0 0 65 0 65 65 0 65 0 0 65 0
65 -65 0 -65 0 0 60 0 60 65 0 65 0 0 65 0 65 -65 0 -65 0 0 -65z"/>
<path d="M12420 6525 l0 -65 -65 0 -65 0 0 -65 0 -65 -60 0 -60 0 0 -60 0 -60
60 0 60 0 0 60 0 60 65 0 65 0 0 -60 0 -60 65 0 65 0 0 60 0 60 60 0 60 0 0
-60 0 -60 65 0 65 0 0 -65 0 -65 65 0 65 0 0 65 0 65 60 0 60 0 0 -65 0 -65
65 0 65 0 0 65 0 65 -65 0 -65 0 0 60 0 60 -60 0 -60 0 0 -60 0 -60 -65 0 -65
0 0 60 0 60 -65 0 -65 0 0 65 0 65 -60 0 -60 0 0 65 0 65 -65 0 -65 0 0 -65z
m130 -130 l0 -65 -65 0 -65 0 0 65 0 65 65 0 65 0 0 -65z"/>
<path d="M13310 6145 l0 -65 60 0 60 0 0 65 0 65 -60 0 -60 0 0 -65z"/>
<path d="M10390 5765 l0 -65 -60 0 -60 0 0 -60 0 -60 60 0 60 0 0 60 0 60 65
0 65 0 0 65 0 65 -65 0 -65 0 0 -65z"/>
<path d="M9760 5135 l0 -65 65 0 65 0 0 65 0 65 -65 0 -65 0 0 -65z"/>
<path d="M9260 4880 l0 -60 -65 0 -65 0 0 -65 0 -65 65 0 65 0 0 65 0 65 60 0
60 0 0 60 0 60 -60 0 -60 0 0 -60z"/>
<path d="M8880 4755 l0 -65 -65 0 -65 0 0 -65 0 -65 65 0 65 0 0 65 0 65 60 0
60 0 0 65 0 65 -60 0 -60 0 0 -65z"/>
<path d="M8240 4625 l0 -65 65 0 65 0 0 -60 0 -60 65 0 65 0 0 60 0 60 60 0
60 0 0 65 0 65 -60 0 -60 0 0 -65 0 -65 -65 0 -65 0 0 65 0 65 -65 0 -65 0 0
-65z"/>
<path d="M11530 5135 l0 -65 -60 0 -60 0 0 -65 0 -65 -65 0 -65 0 0 -60 0 -60
65 0 65 0 0 -65 0 -65 60 0 60 0 0 -65 0 -65 65 0 65 0 0 -60 0 -60 65 0 65 0
0 -65 0 -65 60 0 60 0 0 65 0 65 65 0 65 0 0 -65 0 -65 65 0 65 0 0 -65 0 -65
60 0 60 0 0 65 0 65 -60 0 -60 0 0 65 0 65 60 0 60 0 0 60 0 60 -60 0 -60 0 0
65 0 65 -65 0 -65 0 0 65 0 65 -65 0 -65 0 0 60 0 60 -60 0 -60 0 0 65 0 65
-65 0 -65 0 0 65 0 65 -65 0 -65 0 0 -65z m130 -130 l0 -65 65 0 65 0 0 -60 0
-60 60 0 60 0 0 -65 0 -65 65 0 65 0 0 -65 0 -65 65 0 65 0 0 -60 0 -60 -65 0
-65 0 0 60 0 60 -65 0 -65 0 0 -60 0 -60 -60 0 -60 0 0 60 0 60 -65 0 -65 0 0
65 0 65 -65 0 -65 0 0 65 0 65 -60 0 -60 0 0 60 0 60 60 0 60 0 0 65 0 65 65
0 65 0 0 -65z"/>
<path d="M11530 4880 l0 -60 65 0 65 0 0 -65 0 -65 65 0 65 0 0 -65 0 -65 60
0 60 0 0 65 0 65 -60 0 -60 0 0 65 0 65 -65 0 -65 0 0 60 0 60 -65 0 -65 0 0
-60z"/>
<path d="M12670 4245 l0 -65 65 0 65 0 0 -60 0 -60 -65 0 -65 0 0 -65 0 -65
65 0 65 0 0 65 0 65 65 0 65 0 0 60 0 60 -65 0 -65 0 0 65 0 65 -65 0 -65 0 0
-65z"/>
<path d="M10900 4500 l0 -60 -65 0 -65 0 0 -65 0 -65 -60 0 -60 0 0 65 0 65
-65 0 -65 0 0 -65 0 -65 65 0 65 0 0 -65 0 -65 60 0 60 0 0 -60 0 -60 65 0 65
0 0 -65 0 -65 65 0 65 0 0 -65 0 -65 60 0 60 0 0 -60 0 -60 65 0 65 0 0 -65 0
-65 65 0 65 0 0 -65 0 -65 60 0 60 0 0 -60 0 -60 65 0 65 0 0 -65 0 -65 65 0
65 0 0 -65 0 -65 60 0 60 0 0 65 0 65 65 0 65 0 0 65 0 65 -65 0 -65 0 0 60 0
60 -60 0 -60 0 0 65 0 65 -65 0 -65 0 0 65 0 65 -65 0 -65 0 0 60 0 60 -60 0
-60 0 0 65 0 65 -65 0 -65 0 0 65 0 65 -65 0 -65 0 0 60 0 60 -60 0 -60 0 0
65 0 65 -65 0 -65 0 0 65 0 65 65 0 65 0 0 60 0 60 -65 0 -65 0 0 -60z m0
-255 l0 -65 65 0 65 0 0 -60 0 -60 60 0 60 0 0 -65 0 -65 65 0 65 0 0 -65 0
-65 65 0 65 0 0 -60 0 -60 60 0 60 0 0 -65 0 -65 65 0 65 0 0 -65 0 -65 65 0
65 0 0 -60 0 -60 60 0 60 0 0 -65 0 -65 -60 0 -60 0 0 65 0 65 -65 0 -65 0 0
60 0 60 -65 0 -65 0 0 65 0 65 -60 0 -60 0 0 65 0 65 -65 0 -65 0 0 60 0 60
-65 0 -65 0 0 65 0 65 -60 0 -60 0 0 65 0 65 -65 0 -65 0 0 60 0 60 -65 0 -65
0 0 65 0 65 65 0 65 0 0 -65z"/>
<path d="M12420 3235 l0 -65 65 0 65 0 0 65 0 65 -65 0 -65 0 0 -65z"/>
<path d="M13560 4120 l0 -60 -65 0 -65 0 0 -65 0 -65 -60 0 -60 0 0 -65 0 -65
60 0 60 0 0 65 0 65 65 0 65 0 0 -65 0 -65 65 0 65 0 0 65 0 65 60 0 60 0 0
-65 0 -65 65 0 65 0 0 65 0 65 -65 0 -65 0 0 65 0 65 -60 0 -60 0 0 60 0 60
-65 0 -65 0 0 -60z m130 -125 l0 -65 -65 0 -65 0 0 65 0 65 65 0 65 0 0 -65z"/>
<path d="M10010 3865 l0 -65 65 0 65 0 0 -60 0 -60 -65 0 -65 0 0 -65 0 -65
65 0 65 0 0 -65 0 -65 65 0 65 0 0 -60 0 -60 60 0 60 0 0 -65 0 -65 65 0 65 0
0 -65 0 -65 65 0 65 0 0 -60 0 -60 60 0 60 0 0 -65 0 -65 65 0 65 0 0 -65 0
-65 65 0 65 0 0 65 0 65 -65 0 -65 0 0 65 0 65 -65 0 -65 0 0 60 0 60 -60 0
-60 0 0 65 0 65 -65 0 -65 0 0 65 0 65 -65 0 -65 0 0 60 0 60 -60 0 -60 0 0
65 0 65 -65 0 -65 0 0 65 0 65 65 0 65 0 0 60 0 60 -65 0 -65 0 0 65 0 65 -65
0 -65 0 0 -65z"/>
<path d="M9510 3615 l0 -65 65 0 65 0 0 65 0 65 -65 0 -65 0 0 -65z"/>
<path d="M9510 3360 l0 -60 -65 0 -65 0 0 -65 0 -65 65 0 65 0 0 -65 0 -65 65
0 65 0 0 -60 0 -60 60 0 60 0 0 -65 0 -65 65 0 65 0 0 65 0 65 60 0 60 0 0
-65 0 -65 65 0 65 0 0 65 0 65 -65 0 -65 0 0 60 0 60 -60 0 -60 0 0 65 0 65
-65 0 -65 0 0 65 0 65 -60 0 -60 0 0 60 0 60 -65 0 -65 0 0 -60z m130 -125 l0
-65 60 0 60 0 0 -65 0 -65 65 0 65 0 0 -60 0 -60 -65 0 -65 0 0 60 0 60 -60 0
-60 0 0 65 0 65 -65 0 -65 0 0 65 0 65 65 0 65 0 0 -65z"/>
<path d="M12800 2855 l0 -65 -65 0 -65 0 0 -65 0 -65 65 0 65 0 0 -60 0 -60
65 0 65 0 0 60 0 60 60 0 60 0 0 -60 0 -60 65 0 65 0 0 60 0 60 65 0 65 0 0
65 0 65 -65 0 -65 0 0 -65 0 -65 -65 0 -65 0 0 65 0 65 -60 0 -60 0 0 65 0 65
-65 0 -65 0 0 -65z m130 -130 l0 -65 -65 0 -65 0 0 65 0 65 65 0 65 0 0 -65z"/>
<path d="M11790 2345 l0 -65 60 0 60 0 0 65 0 65 -60 0 -60 0 0 -65z"/>
</g>
</svg>
