<?xml version="1.0" standalone="no"?>
<!DOCTYPE svg PUBLIC "-//W3C//DTD SVG 20010904//EN"
 "http://www.w3.org/TR/2001/REC-SVG-20010904/DTD/svg10.dtd">
<svg version="1.0" xmlns="http://www.w3.org/2000/svg"
 width="1597.000000pt" height="1528.000000pt" viewBox="0 0 1597.000000 1528.000000"
 preserveAspectRatio="xMidYMid meet">

<g transform="translate(0.000000,1528.000000) scale(0.100000,-0.100000)"
fill="#000000" stroke="none">
<path d="M5730 13725 l0 -65 -125 0 -125 0 0 -65 0 -65 -65 0 -65 0 0 -60 0
-60 -60 0 -60 0 0 -65 0 -65 -130 0 -130 0 0 -65 0 -65 -60 0 -60 0 0 -60 0
-60 -65 0 -65 0 0 -65 0 -65 -125 0 -125 0 0 -65 0 -65 -65 0 -65 0 0 -60 0
-60 -65 0 -65 0 0 -65 0 -65 -125 0 -125 0 0 -65 0 -65 -65 0 -65 0 0 -60 0
-60 -60 0 -60 0 0 -65 0 -65 -65 0 -65 0 0 -65 0 -65 -65 0 -65 0 0 -60 0 -60
-60 0 -60 0 0 -65 0 -65 -65 0 -65 0 0 -65 0 -65 -65 0 -65 0 0 -60 0 -60 -60
0 -60 0 0 -65 0 -65 -65 0 -65 0 0 -65 0 -65 -65 0 -65 0 0 -60 0 -60 -60 0
-60 0 0 -130 0 -130 -65 0 -65 0 0 -60 0 -60 -65 0 -65 0 0 -65 0 -65 -60 0
-60 0 0 -125 0 -125 -65 0 -65 0 0 -65 0 -65 -65 0 -65 0 0 -125 0 -125 -60 0
-60 0 0 -125 0 -125 -65 0 -65 0 0 -445 0 -445 65 0 65 0 0 -125 0 -125 60 0
60 0 0 -130 0 -130 65 0 65 0 0 -60 0 -60 190 0 190 0 0 60 0 60 125 0 125 0
0 -60 0 -60 255 0 255 0 0 -65 0 -65 65 0 65 0 0 -65 0 -65 60 0 60 0 0 -60 0
-60 65 0 65 0 0 -65 0 -65 65 0 65 0 0 -65 0 -65 60 0 60 0 0 -60 0 -60 65 0
65 0 0 -65 0 -65 65 0 65 0 0 -65 0 -65 60 0 60 0 0 -315 0 -315 65 0 65 0 0
-250 0 -250 65 0 65 0 0 -130 0 -130 60 0 60 0 0 -125 0 -125 65 0 65 0 0 -65
0 -65 65 0 65 0 0 -60 0 -60 60 0 60 0 0 -65 0 -65 65 0 65 0 0 -65 0 -65 65
0 65 0 0 -60 0 -60 60 0 60 0 0 -65 0 -65 65 0 65 0 0 -65 0 -65 65 0 65 0 0
-60 0 -60 60 0 60 0 0 -65 0 -65 125 0 125 0 0 -65 0 -65 65 0 65 0 0 -60 0
-60 65 0 65 0 0 -65 0 -65 60 0 60 0 0 -65 0 -65 65 0 65 0 0 -60 0 -60 125 0
125 0 0 -65 0 -65 130 0 130 0 0 -65 0 -65 60 0 60 0 0 -60 0 -60 130 0 130 0
0 -65 0 -65 125 0 125 0 0 -65 0 -65 125 0 125 0 0 -60 0 -60 130 0 130 0 0
-65 0 -65 125 0 125 0 0 -65 0 -65 190 0 190 0 0 -60 0 -60 255 0 255 0 0 -65
0 -65 820 0 820 0 0 65 0 65 190 0 190 0 0 60 0 60 125 0 125 0 0 65 0 65 130
0 130 0 0 65 0 65 125 0 125 0 0 60 0 60 65 0 65 0 0 65 0 65 125 0 125 0 0
65 0 65 65 0 65 0 0 60 0 60 60 0 60 0 0 130 0 130 65 0 65 0 0 60 0 60 65 0
65 0 0 65 0 65 60 0 60 0 0 255 0 255 65 0 65 0 0 125 0 125 65 0 65 0 0 445
0 445 60 0 60 0 0 315 0 315 65 0 65 0 0 760 0 760 -65 0 -65 0 0 630 0 630
130 0 130 0 0 130 0 130 60 0 60 0 0 755 0 755 -125 0 -125 0 0 130 0 130 65
0 65 0 0 60 0 60 60 0 60 0 0 65 0 65 65 0 65 0 0 65 0 65 125 0 125 0 0 60 0
60 65 0 65 0 0 65 0 65 60 0 60 0 0 65 0 65 65 0 65 0 0 315 0 315 -65 0 -65
0 0 315 0 315 -250 0 -250 0 0 -60 0 -60 -125 0 -125 0 0 -65 0 -65 -65 0 -65
0 0 -65 0 -65 -125 0 -125 0 0 -60 0 -60 -65 0 -65 0 0 -65 0 -65 -125 0 -125
0 0 -65 0 -65 -65 0 -65 0 0 -60 0 -60 -65 0 -65 0 0 -65 0 -65 -60 0 -60 0 0
-65 0 -65 -65 0 -65 0 0 -60 0 -60 -65 0 -65 0 0 -65 0 -65 -60 0 -60 0 0 -65
0 -65 -65 0 -65 0 0 -60 0 -60 -65 0 -65 0 0 -65 0 -65 -60 0 -60 0 0 -65 0
-65 -65 0 -65 0 0 -125 0 -125 -65 0 -65 0 0 -65 0 -65 -60 0 -60 0 0 -60 0
-60 -65 0 -65 0 0 -130 0 -130 -65 0 -65 0 0 65 0 65 -60 0 -60 0 0 65 0 65
-255 0 -255 0 0 -65 0 -65 -125 0 -125 0 0 -65 0 -65 -130 0 -130 0 0 -60 0
-60 -315 0 -315 0 0 -65 0 -65 -190 0 -190 0 0 -60 0 -60 -190 0 -190 0 0 -65
0 -65 -190 0 -190 0 0 -65 0 -65 -125 0 -125 0 0 -60 0 -60 -190 0 -190 0 0
-65 0 -65 -65 0 -65 0 0 -65 0 -65 -190 0 -190 0 0 -60 0 -60 -190 0 -190 0 0
-65 0 -65 -125 0 -125 0 0 65 0 65 -65 0 -65 0 0 60 0 60 -60 0 -60 0 0 65 0
65 -65 0 -65 0 0 65 0 65 -65 0 -65 0 0 60 0 60 -60 0 -60 0 0 65 0 65 -65 0
-65 0 0 65 0 65 -60 0 -60 0 0 60 0 60 -65 0 -65 0 0 125 0 125 -65 0 -65 0 0
65 0 65 -60 0 -60 0 0 255 0 255 -65 0 -65 0 0 60 0 60 125 0 125 0 0 65 0 65
65 0 65 0 0 65 0 65 125 0 125 0 0 60 0 60 125 0 125 0 0 65 0 65 130 0 130 0
0 65 0 65 125 0 125 0 0 60 0 60 65 0 65 0 0 65 0 65 60 0 60 0 0 760 0 760
-125 0 -125 0 0 65 0 65 -380 0 -380 0 0 -65z m630 -130 l0 -65 130 0 130 0 0
-630 0 -630 -65 0 -65 0 0 -65 0 -65 -65 0 -65 0 0 -65 0 -65 -125 0 -125 0 0
-60 0 -60 -125 0 -125 0 0 -65 0 -65 -125 0 -125 0 0 -65 0 -65 -130 0 -130 0
0 -60 0 -60 -60 0 -60 0 0 -65 0 -65 -130 0 -130 0 0 -65 0 -65 -125 0 -125 0
0 65 0 65 -255 0 -255 0 0 -65 0 -65 -60 0 -60 0 0 -60 0 -60 -65 0 -65 0 0
-255 0 -255 65 0 65 0 0 -125 0 -125 -65 0 -65 0 0 -125 0 -125 -65 0 -65 0 0
-65 0 -65 -60 0 -60 0 0 -65 0 -65 -65 0 -65 0 0 -60 0 -60 -65 0 -65 0 0
-130 0 -130 -125 0 -125 0 0 65 0 65 -255 0 -255 0 0 -65 0 -65 -60 0 -60 0 0
-60 0 -60 -65 0 -65 0 0 -255 0 -255 65 0 65 0 0 -125 0 -125 -130 0 -130 0 0
-65 0 -65 -60 0 -60 0 0 125 0 125 -65 0 -65 0 0 130 0 130 -65 0 -65 0 0 315
0 315 65 0 65 0 0 125 0 125 65 0 65 0 0 130 0 130 60 0 60 0 0 60 0 60 65 0
65 0 0 125 0 125 65 0 65 0 0 65 0 65 60 0 60 0 0 65 0 65 65 0 65 0 0 125 0
125 65 0 65 0 0 65 0 65 60 0 60 0 0 60 0 60 65 0 65 0 0 65 0 65 65 0 65 0 0
65 0 65 60 0 60 0 0 60 0 60 65 0 65 0 0 65 0 65 65 0 65 0 0 65 0 65 60 0 60
0 0 60 0 60 65 0 65 0 0 65 0 65 65 0 65 0 0 65 0 65 125 0 125 0 0 60 0 60
65 0 65 0 0 65 0 65 60 0 60 0 0 65 0 65 65 0 65 0 0 60 0 60 125 0 125 0 0
65 0 65 65 0 65 0 0 65 0 65 65 0 65 0 0 60 0 60 125 0 125 0 0 65 0 65 65 0
65 0 0 65 0 65 60 0 60 0 0 60 0 60 125 0 125 0 0 65 0 65 190 0 190 0 0 -65z
m7850 -630 l0 -65 65 0 65 0 0 -65 0 -65 -65 0 -65 0 0 -60 0 -60 65 0 65 0 0
-65 0 -65 -65 0 -65 0 0 -65 0 -65 65 0 65 0 0 -60 0 -60 60 0 60 0 0 -65 0
-65 -60 0 -60 0 0 -65 0 -65 -65 0 -65 0 0 -60 0 -60 -65 0 -65 0 0 -65 0 -65
-60 0 -60 0 0 -65 0 -65 -65 0 -65 0 0 65 0 65 65 0 65 0 0 65 0 65 60 0 60 0
0 60 0 60 -60 0 -60 0 0 65 0 65 60 0 60 0 0 65 0 65 -60 0 -60 0 0 60 0 60
-65 0 -65 0 0 65 0 65 -60 0 -60 0 0 -65 0 -65 -65 0 -65 0 0 65 0 65 -65 0
-65 0 0 -65 0 -65 -60 0 -60 0 0 65 0 65 60 0 60 0 0 65 0 65 65 0 65 0 0 -65
0 -65 65 0 65 0 0 65 0 65 60 0 60 0 0 60 0 60 65 0 65 0 0 65 0 65 60 0 60 0
0 65 0 65 65 0 65 0 0 -65z m-1010 -700 l0 -125 -65 0 -65 0 0 125 0 125 65 0
65 0 0 -125z m510 -60 l0 -65 60 0 60 0 0 -65 0 -65 -60 0 -60 0 0 -60 0 -60
-65 0 -65 0 0 -65 0 -65 -65 0 -65 0 0 -65 0 -65 -60 0 -60 0 0 -60 0 -60 -65
0 -65 0 0 -65 0 -65 -65 0 -65 0 0 -65 0 -65 -60 0 -60 0 0 65 0 65 -65 0 -65
0 0 65 0 65 65 0 65 0 0 60 0 60 60 0 60 0 0 65 0 65 65 0 65 0 0 65 0 65 65
0 65 0 0 60 0 60 60 0 60 0 0 130 0 130 130 0 130 0 0 -65z m-640 -255 l0 -60
-60 0 -60 0 0 -65 0 -65 -65 0 -65 0 0 65 0 65 65 0 65 0 0 60 0 60 60 0 60 0
0 -60z m640 -380 l0 -60 -65 0 -65 0 0 -65 0 -65 -65 0 -65 0 0 -65 0 -65 -60
0 -60 0 0 -60 0 -60 -65 0 -65 0 0 60 0 60 65 0 65 0 0 65 0 65 60 0 60 0 0
65 0 65 65 0 65 0 0 60 0 60 65 0 65 0 0 -60z m-9120 -445 l0 -125 -60 0 -60
0 0 -65 0 -65 -65 0 -65 0 0 -60 0 -60 -125 0 -125 0 0 125 0 125 60 0 60 0 0
65 0 65 65 0 65 0 0 60 0 60 125 0 125 0 0 -125z m380 -60 l0 -65 65 0 65 0 0
-190 0 -190 -65 0 -65 0 0 125 0 125 -60 0 -60 0 0 65 0 65 -65 0 -65 0 0 65
0 65 125 0 125 0 0 -65z m7340 -190 l0 -125 65 0 65 0 0 -65 0 -65 -65 0 -65
0 0 -125 0 -125 -60 0 -60 0 0 -125 0 -125 -65 0 -65 0 0 60 0 60 -65 0 -65 0
0 65 0 65 -60 0 -60 0 0 60 0 60 60 0 60 0 0 65 0 65 65 0 65 0 0 65 0 65 65
0 65 0 0 125 0 125 60 0 60 0 0 -125z m-7590 -65 l0 -60 65 0 65 0 0 -65 0
-65 -65 0 -65 0 0 -65 0 -65 -65 0 -65 0 0 65 0 65 -60 0 -60 0 0 65 0 65 60
0 60 0 0 60 0 60 65 0 65 0 0 -60z m8730 -125 l0 -65 -60 0 -60 0 0 -65 0 -65
-65 0 -65 0 0 65 0 65 65 0 65 0 0 65 0 65 60 0 60 0 0 -65z m260 0 l0 -65
-65 0 -65 0 0 65 0 65 65 0 65 0 0 -65z m-9370 -130 l0 -65 65 0 65 0 0 -60 0
-60 125 0 125 0 0 -65 0 -65 -190 0 -190 0 0 65 0 65 -65 0 -65 0 0 125 0 125
65 0 65 0 0 -65z m6450 0 l0 -65 65 0 65 0 0 -60 0 -60 65 0 65 0 0 -65 0 -65
-65 0 -65 0 0 -60 0 -60 190 0 190 0 0 -65 0 -65 65 0 65 0 0 -190 0 -190 -65
0 -65 0 0 -65 0 -65 -65 0 -65 0 0 -125 0 -125 65 0 65 0 0 65 0 65 190 0 190
0 0 -65 0 -65 65 0 65 0 0 -65 0 -65 60 0 60 0 0 190 0 190 -190 0 -190 0 0
65 0 65 190 0 190 0 0 -65 0 -65 65 0 65 0 0 -190 0 -190 -65 0 -65 0 0 -60 0
-60 190 0 190 0 0 -65 0 -65 65 0 65 0 0 -190 0 -190 -65 0 -65 0 0 -65 0 -65
-60 0 -60 0 0 -60 0 -60 -65 0 -65 0 0 190 0 190 -190 0 -190 0 0 60 0 60 190
0 190 0 0 -60 0 -60 65 0 65 0 0 -65 0 -65 60 0 60 0 0 190 0 190 -190 0 -190
0 0 65 0 65 -60 0 -60 0 0 -65 0 -65 -65 0 -65 0 0 190 0 190 -190 0 -190 0 0
-65 0 -65 65 0 65 0 0 -60 0 -60 60 0 60 0 0 -190 0 -190 -60 0 -60 0 0 -65 0
-65 190 0 190 0 0 -65 0 -65 60 0 60 0 0 -190 0 -190 -60 0 -60 0 0 -60 0 -60
-65 0 -65 0 0 -65 0 -65 -65 0 -65 0 0 -125 0 -125 190 0 190 0 0 -65 0 -65
65 0 65 0 0 -190 0 -190 -65 0 -65 0 0 -65 0 -65 -60 0 -60 0 0 -60 0 -60 -65
0 -65 0 0 190 0 190 -65 0 -65 0 0 -65 0 -65 -60 0 -60 0 0 -65 0 -65 60 0 60
0 0 -60 0 -60 -60 0 -60 0 0 -65 0 -65 60 0 60 0 0 -65 0 -65 -60 0 -60 0 0
-60 0 -60 60 0 60 0 0 -125 0 -125 65 0 65 0 0 -65 0 -65 65 0 65 0 0 -65 0
-65 60 0 60 0 0 190 0 190 -125 0 -125 0 0 65 0 65 125 0 125 0 0 -65 0 -65
65 0 65 0 0 -190 0 -190 -65 0 -65 0 0 -60 0 -60 -125 0 -125 0 0 125 0 125
-65 0 -65 0 0 -190 0 -190 65 0 65 0 0 -125 0 -125 -65 0 -65 0 0 -65 0 -65
-60 0 -60 0 0 -190 0 -190 125 0 125 0 0 -65 0 -65 65 0 65 0 0 -190 0 -190
-65 0 -65 0 0 -60 0 -60 190 0 190 0 0 -65 0 -65 65 0 65 0 0 -190 0 -190 -65
0 -65 0 0 -65 0 -65 -65 0 -65 0 0 -60 0 -60 -60 0 -60 0 0 190 0 190 -190 0
-190 0 0 60 0 60 190 0 190 0 0 -60 0 -60 60 0 60 0 0 -65 0 -65 65 0 65 0 0
190 0 190 -190 0 -190 0 0 65 0 65 -65 0 -65 0 0 -65 0 -65 -60 0 -60 0 0 65
0 65 -65 0 -65 0 0 -190 0 -190 -65 0 -65 0 0 -65 0 -65 190 0 190 0 0 -65 0
-65 65 0 65 0 0 -190 0 -190 -65 0 -65 0 0 -60 0 -60 -60 0 -60 0 0 -65 0 -65
-65 0 -65 0 0 190 0 190 -255 0 -255 0 0 -65 0 -65 130 0 130 0 0 -60 0 -60
60 0 60 0 0 -65 0 -65 -60 0 -60 0 0 65 0 65 -130 0 -130 0 0 60 0 60 -60 0
-60 0 0 -60 0 -60 -65 0 -65 0 0 60 0 60 -65 0 -65 0 0 -60 0 -60 -60 0 -60 0
0 -130 0 -130 -65 0 -65 0 0 -60 0 -60 -125 0 -125 0 0 125 0 125 -190 0 -190
0 0 65 0 65 190 0 190 0 0 -65 0 -65 60 0 60 0 0 -65 0 -65 65 0 65 0 0 130 0
130 65 0 65 0 0 60 0 60 60 0 60 0 0 65 0 65 -60 0 -60 0 0 65 0 65 -65 0 -65
0 0 60 0 60 -65 0 -65 0 0 65 0 65 -60 0 -60 0 0 -65 0 -65 -65 0 -65 0 0 65
0 65 -60 0 -60 0 0 -190 0 -190 -65 0 -65 0 0 -65 0 -65 -65 0 -65 0 0 -60 0
-60 -60 0 -60 0 0 190 0 190 -255 0 -255 0 0 60 0 60 255 0 255 0 0 -60 0 -60
60 0 60 0 0 -65 0 -65 65 0 65 0 0 190 0 190 -190 0 -190 0 0 65 0 65 190 0
190 0 0 -65 0 -65 65 0 65 0 0 65 0 65 60 0 60 0 0 60 0 60 -250 0 -250 0 0
65 0 65 250 0 250 0 0 65 0 65 -60 0 -60 0 0 60 0 60 -65 0 -65 0 0 65 0 65
-65 0 -65 0 0 -65 0 -65 -60 0 -60 0 0 65 0 65 60 0 60 0 0 65 0 65 -60 0 -60
0 0 60 0 60 -65 0 -65 0 0 -60 0 -60 -65 0 -65 0 0 60 0 60 -60 0 -60 0 0 65
0 65 -65 0 -65 0 0 -65 0 -65 -65 0 -65 0 0 65 0 65 -60 0 -60 0 0 -65 0 -65
-65 0 -65 0 0 65 0 65 -65 0 -65 0 0 65 0 65 -60 0 -60 0 0 -65 0 -65 -65 0
-65 0 0 65 0 65 -65 0 -65 0 0 -65 0 -65 -60 0 -60 0 0 65 0 65 -65 0 -65 0 0
-190 0 -190 -65 0 -65 0 0 -65 0 -65 190 0 190 0 0 -65 0 -65 65 0 65 0 0
-190 0 -190 -65 0 -65 0 0 -60 0 -60 -60 0 -60 0 0 -65 0 -65 -65 0 -65 0 0
190 0 190 -190 0 -190 0 0 65 0 65 190 0 190 0 0 -65 0 -65 65 0 65 0 0 -65 0
-65 60 0 60 0 0 190 0 190 -190 0 -190 0 0 65 0 65 -60 0 -60 0 0 -65 0 -65
-65 0 -65 0 0 190 0 190 -190 0 -190 0 0 65 0 65 190 0 190 0 0 -65 0 -65 65
0 65 0 0 -60 0 -60 60 0 60 0 0 190 0 190 -60 0 -60 0 0 60 0 60 60 0 60 0 0
65 0 65 -60 0 -60 0 0 65 0 65 60 0 60 0 0 60 0 60 -60 0 -60 0 0 65 0 65 -65
0 -65 0 0 -65 0 -65 -65 0 -65 0 0 65 0 65 -60 0 -60 0 0 65 0 65 -65 0 -65 0
0 60 0 60 65 0 65 0 0 65 0 65 -65 0 -65 0 0 65 0 65 -65 0 -65 0 0 -65 0 -65
-60 0 -60 0 0 65 0 65 -65 0 -65 0 0 60 0 60 -65 0 -65 0 0 -60 0 -60 -60 0
-60 0 0 -65 0 -65 60 0 60 0 0 -65 0 -65 65 0 65 0 0 -60 0 -60 -65 0 -65 0 0
60 0 60 -60 0 -60 0 0 65 0 65 -65 0 -65 0 0 -65 0 -65 -65 0 -65 0 0 -60 0
-60 -60 0 -60 0 0 60 0 60 60 0 60 0 0 65 0 65 -60 0 -60 0 0 65 0 65 -65 0
-65 0 0 60 0 60 65 0 65 0 0 65 0 65 -65 0 -65 0 0 60 0 60 -60 0 -60 0 0 65
0 65 60 0 60 0 0 65 0 65 -60 0 -60 0 0 60 0 60 -65 0 -65 0 0 -60 0 -60 -65
0 -65 0 0 190 0 190 -190 0 -190 0 0 60 0 60 190 0 190 0 0 -60 0 -60 65 0 65
0 0 -65 0 -65 65 0 65 0 0 190 0 190 -190 0 -190 0 0 65 0 65 190 0 190 0 0
-65 0 -65 60 0 60 0 0 -190 0 -190 65 0 65 0 0 65 0 65 60 0 60 0 0 -65 0 -65
65 0 65 0 0 65 0 65 65 0 65 0 0 60 0 60 -65 0 -65 0 0 65 0 65 -65 0 -65 0 0
-65 0 -65 -60 0 -60 0 0 190 0 190 -190 0 -190 0 0 65 0 65 190 0 190 0 0 -65
0 -65 60 0 60 0 0 -60 0 -60 65 0 65 0 0 190 0 190 -190 0 -190 0 0 60 0 60
190 0 190 0 0 -60 0 -60 65 0 65 0 0 -190 0 -190 -65 0 -65 0 0 -65 0 -65 255
0 255 0 0 65 0 65 -130 0 -130 0 0 60 0 60 130 0 130 0 0 130 0 130 -65 0 -65
0 0 -65 0 -65 -65 0 -65 0 0 65 0 65 65 0 65 0 0 60 0 60 -65 0 -65 0 0 65 0
65 -190 0 -190 0 0 65 0 65 190 0 190 0 0 -65 0 -65 65 0 65 0 0 -65 0 -65 65
0 65 0 0 65 0 65 60 0 60 0 0 -65 0 -65 65 0 65 0 0 65 0 65 65 0 65 0 0 65 0
65 -65 0 -65 0 0 60 0 60 65 0 65 0 0 65 0 65 -65 0 -65 0 0 65 0 65 -190 0
-190 0 0 60 0 60 190 0 190 0 0 -60 0 -60 65 0 65 0 0 -65 0 -65 60 0 60 0 0
65 0 65 65 0 65 0 0 60 0 60 -65 0 -65 0 0 65 0 65 -190 0 -190 0 0 65 0 65
190 0 190 0 0 -65 0 -65 65 0 65 0 0 -65 0 -65 65 0 65 0 0 190 0 190 -190 0
-190 0 0 65 0 65 190 0 190 0 0 -65 0 -65 60 0 60 0 0 -60 0 -60 65 0 65 0 0
60 0 60 125 0 125 0 0 65 0 65 65 0 65 0 0 65 0 65 -125 0 -125 0 0 125 0 125
190 0 190 0 0 65 0 65 60 0 60 0 0 -65 0 -65 -60 0 -60 0 0 -65 0 -65 -65 0
-65 0 0 -60 0 -60 125 0 125 0 0 60 0 60 65 0 65 0 0 65 0 65 125 0 125 0 0
-65 0 -65 65 0 65 0 0 65 0 65 65 0 65 0 0 65 0 65 60 0 60 0 0 -65 0 -65 65
0 65 0 0 255 0 255 190 0 190 0 0 60 0 60 315 0 315 0 0 65 0 65 125 0 125 0
0 60 0 60 130 0 130 0 0 65 0 65 60 0 60 0 0 -65z m-5560 -125 l0 -60 60 0 60
0 0 -125 0 -125 65 0 65 0 0 -65 0 -65 65 0 65 0 0 -65 0 -65 60 0 60 0 0 -60
0 -60 65 0 65 0 0 -65 0 -65 60 0 60 0 0 -65 0 -65 65 0 65 0 0 -60 0 -60 65
0 65 0 0 -65 0 -65 60 0 60 0 0 -65 0 -65 65 0 65 0 0 -125 0 -125 -65 0 -65
0 0 -65 0 -65 -125 0 -125 0 0 130 0 130 -65 0 -65 0 0 60 0 60 -60 0 -60 0 0
65 0 65 -65 0 -65 0 0 65 0 65 -60 0 -60 0 0 60 0 60 -65 0 -65 0 0 65 0 65
-65 0 -65 0 0 65 0 65 -60 0 -60 0 0 60 0 60 -65 0 -65 0 0 65 0 65 -65 0 -65
0 0 65 0 65 -60 0 -60 0 0 185 0 185 190 0 190 0 0 -60z m8480 0 l0 -60 -65 0
-65 0 0 -65 0 -65 -65 0 -65 0 0 65 0 65 65 0 65 0 0 60 0 60 65 0 65 0 0 -60z
m-2160 -125 l0 -65 65 0 65 0 0 -60 0 -60 65 0 65 0 0 -65 0 -65 -65 0 -65 0
0 -65 0 -65 -65 0 -65 0 0 190 0 190 -190 0 -190 0 0 65 0 65 190 0 190 0 0
-65z m1520 -60 l0 -125 130 0 130 0 0 -130 0 -130 -65 0 -65 0 0 -60 0 -60
-190 0 -190 0 0 60 0 60 -190 0 -190 0 0 65 0 65 125 0 125 0 0 65 0 65 65 0
65 0 0 60 0 60 65 0 65 0 0 65 0 65 60 0 60 0 0 -125z m260 60 l0 -65 -65 0
-65 0 0 65 0 65 65 0 65 0 0 -65z m-8990 -250 l0 -65 190 0 190 0 0 -65 0 -65
65 0 65 0 0 -60 0 -60 60 0 60 0 0 -65 0 -65 65 0 65 0 0 -65 0 -65 65 0 65 0
0 -60 0 -60 60 0 60 0 0 -65 0 -65 65 0 65 0 0 -65 0 -65 65 0 65 0 0 -60 0
-60 60 0 60 0 0 -65 0 -65 65 0 65 0 0 -255 0 -255 -65 0 -65 0 0 -60 0 -60
-60 0 -60 0 0 -65 0 -65 -130 0 -130 0 0 -65 0 -65 -60 0 -60 0 0 -60 0 -60
-130 0 -130 0 0 -65 0 -65 -125 0 -125 0 0 65 0 65 -65 0 -65 0 0 60 0 60 -60
0 -60 0 0 65 0 65 -65 0 -65 0 0 65 0 65 -65 0 -65 0 0 60 0 60 -60 0 -60 0 0
65 0 65 -65 0 -65 0 0 65 0 65 -65 0 -65 0 0 60 0 60 -60 0 -60 0 0 320 0 320
-65 0 -65 0 0 125 0 125 65 0 65 0 0 65 0 65 60 0 60 0 0 60 0 60 65 0 65 0 0
65 0 65 65 0 65 0 0 65 0 65 125 0 125 0 0 -65z m9240 0 l0 -65 65 0 65 0 0
-65 0 -65 -65 0 -65 0 0 -60 0 -60 65 0 65 0 0 -65 0 -65 -65 0 -65 0 0 65 0
65 -65 0 -65 0 0 60 0 60 65 0 65 0 0 65 0 65 -65 0 -65 0 0 65 0 65 65 0 65
0 0 -65z m-4810 -255 l0 -60 -65 0 -65 0 0 60 0 60 65 0 65 0 0 -60z m3420 0
l0 -60 60 0 60 0 0 -65 0 -65 65 0 65 0 0 65 0 65 65 0 65 0 0 -65 0 -65 -65
0 -65 0 0 -65 0 -65 190 0 190 0 0 -60 0 -60 65 0 65 0 0 -190 0 -190 -65 0
-65 0 0 -65 0 -65 -65 0 -65 0 0 -65 0 -65 -60 0 -60 0 0 190 0 190 -190 0
-190 0 0 65 0 65 190 0 190 0 0 -65 0 -65 60 0 60 0 0 -60 0 -60 65 0 65 0 0
190 0 190 -190 0 -190 0 0 60 0 60 -65 0 -65 0 0 -60 0 -60 -60 0 -60 0 0 190
0 190 -190 0 -190 0 0 60 0 60 190 0 190 0 0 -60z m-9120 -445 l0 -125 -60 0
-60 0 0 -65 0 -65 -65 0 -65 0 0 -60 0 -60 -125 0 -125 0 0 125 0 125 60 0 60
0 0 65 0 65 65 0 65 0 0 60 0 60 125 0 125 0 0 -125z m380 -60 l0 -65 65 0 65
0 0 -190 0 -190 -65 0 -65 0 0 125 0 125 -60 0 -60 0 0 65 0 65 -65 0 -65 0 0
65 0 65 125 0 125 0 0 -65z m9750 0 l0 -65 -65 0 -65 0 0 65 0 65 65 0 65 0 0
-65z m-10000 -255 l0 -60 65 0 65 0 0 -65 0 -65 -65 0 -65 0 0 -65 0 -65 -65
0 -65 0 0 65 0 65 -60 0 -60 0 0 65 0 65 60 0 60 0 0 60 0 60 65 0 65 0 0 -60z
m10130 -125 l0 -65 -130 0 -130 0 0 65 0 65 130 0 130 0 0 -65z m-10510 -130
l0 -65 65 0 65 0 0 -60 0 -60 125 0 125 0 0 -65 0 -65 -190 0 -190 0 0 65 0
65 -65 0 -65 0 0 125 0 125 65 0 65 0 0 -65z m760 -125 l0 -60 65 0 65 0 0
-65 0 -65 60 0 60 0 0 -65 0 -65 65 0 65 0 0 -60 0 -60 65 0 65 0 0 -65 0 -65
60 0 60 0 0 -65 0 -65 65 0 65 0 0 -60 0 -60 65 0 65 0 0 -65 0 -65 60 0 60 0
0 -65 0 -65 65 0 65 0 0 -60 0 -60 65 0 65 0 0 -65 0 -65 -130 0 -130 0 0 -65
0 -65 -60 0 -60 0 0 65 0 65 -65 0 -65 0 0 65 0 65 -65 0 -65 0 0 60 0 60 -60
0 -60 0 0 65 0 65 -65 0 -65 0 0 65 0 65 -65 0 -65 0 0 60 0 60 -60 0 -60 0 0
65 0 65 -65 0 -65 0 0 65 0 65 -65 0 -65 0 0 60 0 60 -60 0 -60 0 0 190 0 190
125 0 125 0 0 -60z m9620 0 l0 -60 65 0 65 0 0 -190 0 -190 -65 0 -65 0 0 190
0 190 -190 0 -190 0 0 60 0 60 190 0 190 0 0 -60z m-6580 -255 l0 -65 60 0 60
0 0 -60 0 -60 -60 0 -60 0 0 60 0 60 -190 0 -190 0 0 65 0 65 190 0 190 0 0
-65z m6330 0 l0 -65 60 0 60 0 0 -190 0 -190 -60 0 -60 0 0 -60 0 -60 -65 0
-65 0 0 -65 0 -65 -65 0 -65 0 0 190 0 190 -190 0 -190 0 0 65 0 65 190 0 190
0 0 -65 0 -65 65 0 65 0 0 -65 0 -65 65 0 65 0 0 190 0 190 -190 0 -190 0 0
65 0 65 190 0 190 0 0 -65z m380 -380 l0 -65 -65 0 -65 0 0 65 0 65 65 0 65 0
0 -65z m-890 -125 l0 -60 65 0 65 0 0 -190 0 -190 -65 0 -65 0 0 -65 0 -65
-65 0 -65 0 0 -65 0 -65 -60 0 -60 0 0 190 0 190 -190 0 -190 0 0 65 0 65 190
0 190 0 0 -65 0 -65 60 0 60 0 0 -60 0 -60 65 0 65 0 0 190 0 190 -190 0 -190
0 0 60 0 60 190 0 190 0 0 -60z m890 -125 l0 -65 -130 0 -130 0 0 65 0 65 130
0 130 0 0 -65z m-130 -255 l0 -60 65 0 65 0 0 -65 0 -65 60 0 60 0 0 -65 0
-65 -60 0 -60 0 0 -60 0 -60 -65 0 -65 0 0 190 0 190 -255 0 -255 0 0 60 0 60
255 0 255 0 0 -60z m-250 -255 l0 -65 60 0 60 0 0 -190 0 -190 -60 0 -60 0 0
-60 0 -60 -65 0 -65 0 0 -65 0 -65 -65 0 -65 0 0 190 0 190 -250 0 -250 0 0
65 0 65 250 0 250 0 0 -65 0 -65 65 0 65 0 0 -65 0 -65 65 0 65 0 0 190 0 190
-190 0 -190 0 0 65 0 65 190 0 190 0 0 -65z m-8360 -250 l0 -65 -60 0 -60 0 0
65 0 65 60 0 60 0 0 -65z m510 -130 l0 -65 65 0 65 0 0 -190 0 -190 -65 0 -65
0 0 -60 0 -60 190 0 190 0 0 -65 0 -65 65 0 65 0 0 -190 0 -190 -65 0 -65 0 0
-60 0 -60 -65 0 -65 0 0 -65 0 -65 -60 0 -60 0 0 190 0 190 -190 0 -190 0 0
65 0 65 190 0 190 0 0 -65 0 -65 60 0 60 0 0 -65 0 -65 65 0 65 0 0 190 0 190
-190 0 -190 0 0 65 0 65 -65 0 -65 0 0 -65 0 -65 -60 0 -60 0 0 190 0 190
-130 0 -130 0 0 65 0 65 130 0 130 0 0 -65 0 -65 60 0 60 0 0 -65 0 -65 65 0
65 0 0 190 0 190 -190 0 -190 0 0 65 0 65 190 0 190 0 0 -65z m7340 -125 l0
-60 65 0 65 0 0 -190 0 -190 -65 0 -65 0 0 -65 0 -65 -65 0 -65 0 0 -60 0 -60
-60 0 -60 0 0 185 0 185 -255 0 -255 0 0 65 0 65 255 0 255 0 0 -65 0 -65 60
0 60 0 0 -60 0 -60 65 0 65 0 0 190 0 190 -190 0 -190 0 0 60 0 60 190 0 190
0 0 -60z m1010 0 l0 -60 -125 0 -125 0 0 60 0 60 125 0 125 0 0 -60z m-7970
-255 l0 -65 -65 0 -65 0 0 65 0 65 65 0 65 0 0 -65z m7850 0 l0 -65 -190 0
-190 0 0 65 0 65 190 0 190 0 0 -65z m-8610 -250 l0 -65 -65 0 -65 0 0 65 0
65 65 0 65 0 0 -65z m8350 0 l0 -65 65 0 65 0 0 -190 0 -190 -65 0 -65 0 0
-60 0 -60 65 0 65 0 0 -65 0 -65 -65 0 -65 0 0 65 0 65 -60 0 -60 0 0 -65 0
-65 -65 0 -65 0 0 190 0 190 -190 0 -190 0 0 65 0 65 190 0 190 0 0 -65 0 -65
65 0 65 0 0 -65 0 -65 60 0 60 0 0 190 0 190 -190 0 -190 0 0 65 0 65 190 0
190 0 0 -65z m-8100 -505 l0 -60 65 0 65 0 0 -65 0 -65 -65 0 -65 0 0 65 0 65
-60 0 -60 0 0 60 0 60 60 0 60 0 0 -60z m7600 0 l0 -60 60 0 60 0 0 -190 0
-190 -60 0 -60 0 0 -65 0 -65 190 0 190 0 0 -65 0 -65 60 0 60 0 0 -190 0
-190 -60 0 -60 0 0 -60 0 -60 -130 0 -130 0 0 125 0 125 -125 0 -125 0 0 65 0
65 125 0 125 0 0 -65 0 -65 65 0 65 0 0 -65 0 -65 65 0 65 0 0 190 0 190 -190
0 -190 0 0 65 0 65 -130 0 -130 0 0 125 0 125 -190 0 -190 0 0 65 0 65 190 0
190 0 0 -65 0 -65 65 0 65 0 0 -60 0 -60 65 0 65 0 0 190 0 190 -190 0 -190 0
0 60 0 60 190 0 190 0 0 -60z m-6710 -255 l0 -65 60 0 60 0 0 -60 0 -60 65 0
65 0 0 125 0 125 65 0 65 0 0 -125 0 -125 190 0 190 0 0 -65 0 -65 60 0 60 0
0 -65 0 -65 65 0 65 0 0 130 0 130 65 0 65 0 0 -130 0 -130 -65 0 -65 0 0 -60
0 -60 -65 0 -65 0 0 -65 0 -65 -60 0 -60 0 0 190 0 190 -190 0 -190 0 0 65 0
65 -65 0 -65 0 0 -65 0 -65 -65 0 -65 0 0 -65 0 -65 -60 0 -60 0 0 190 0 190
-190 0 -190 0 0 65 0 65 190 0 190 0 0 -65z m880 0 l0 -65 -60 0 -60 0 0 65 0
65 60 0 60 0 0 -65z m6460 -125 l0 -60 -190 0 -190 0 0 60 0 60 190 0 190 0 0
-60z m-7590 -125 l0 -65 60 0 60 0 0 -125 0 -125 -60 0 -60 0 0 125 0 125
-130 0 -130 0 0 65 0 65 130 0 130 0 0 -65z m6450 0 l0 -65 -125 0 -125 0 0
65 0 65 125 0 125 0 0 -65z m-5700 -255 l0 -60 65 0 65 0 0 -190 0 -190 -65 0
-65 0 0 -65 0 -65 -60 0 -60 0 0 65 0 65 -65 0 -65 0 0 60 0 60 -125 0 -125 0
0 65 0 65 125 0 125 0 0 -65 0 -65 65 0 65 0 0 -60 0 -60 60 0 60 0 0 190 0
190 -125 0 -125 0 0 60 0 60 125 0 125 0 0 -60z m890 0 l0 -60 -65 0 -65 0 0
60 0 60 65 0 65 0 0 -60z m4680 0 l0 -60 65 0 65 0 0 -65 0 -65 65 0 65 0 0
125 0 125 60 0 60 0 0 -125 0 -125 -60 0 -60 0 0 -65 0 -65 125 0 125 0 0 -60
0 -60 -125 0 -125 0 0 60 0 60 -65 0 -65 0 0 -60 0 -60 -65 0 -65 0 0 190 0
190 -190 0 -190 0 0 60 0 60 190 0 190 0 0 -60z m-3790 -380 l0 -60 60 0 60 0
0 -65 0 -65 65 0 65 0 0 65 0 65 65 0 65 0 0 -65 0 -65 -65 0 -65 0 0 -65 0
-65 -65 0 -65 0 0 -60 0 -60 -60 0 -60 0 0 190 0 190 -190 0 -190 0 0 60 0 60
190 0 190 0 0 -60z m-1140 -125 l0 -65 60 0 60 0 0 -190 0 -190 -60 0 -60 0 0
-65 0 -65 190 0 190 0 0 -60 0 -60 60 0 60 0 0 -130 0 -130 -60 0 -60 0 0 130
0 130 -190 0 -190 0 0 60 0 60 -65 0 -65 0 0 65 0 65 -65 0 -65 0 0 65 0 65
-125 0 -125 0 0 60 0 60 125 0 125 0 0 -60 0 -60 65 0 65 0 0 -65 0 -65 65 0
65 0 0 190 0 190 -190 0 -190 0 0 65 0 65 190 0 190 0 0 -65z m1900 -130 l0
-65 -130 0 -130 0 0 65 0 65 130 0 130 0 0 -65z m3410 0 l0 -65 65 0 65 0 0
-60 0 -60 65 0 65 0 0 125 0 125 60 0 60 0 0 -125 0 -125 -60 0 -60 0 0 -65 0
-65 -65 0 -65 0 0 -65 0 -65 -65 0 -65 0 0 190 0 190 -190 0 -190 0 0 65 0 65
190 0 190 0 0 -65z m-3160 -255 l0 -190 -65 0 -65 0 0 -60 0 -60 -60 0 -60 0
0 -65 0 -65 -65 0 -65 0 0 190 0 190 -190 0 -190 0 0 65 0 65 190 0 190 0 0
-65 0 -65 65 0 65 0 0 -65 0 -65 60 0 60 0 0 190 0 190 65 0 65 0 0 -190z
m-630 -250 l0 -60 60 0 60 0 0 -190 0 -190 -60 0 -60 0 0 -65 0 -65 -65 0 -65
0 0 -65 0 -65 -65 0 -65 0 0 190 0 190 -190 0 -190 0 0 65 0 65 190 0 190 0 0
-65 0 -65 65 0 65 0 0 -60 0 -60 65 0 65 0 0 190 0 190 -190 0 -190 0 0 60 0
60 190 0 190 0 0 -60z m3920 -255 l0 -65 -65 0 -65 0 0 65 0 65 65 0 65 0 0
-65z m-4430 -250 l0 -65 -65 0 -65 0 0 65 0 65 65 0 65 0 0 -65z m1010 -130
l0 -65 65 0 65 0 0 -190 0 -190 -65 0 -65 0 0 190 0 190 -190 0 -190 0 0 65 0
65 190 0 190 0 0 -65z m1010 0 l0 -65 -125 0 -125 0 0 65 0 65 125 0 125 0 0
-65z m-1260 -250 l0 -65 -65 0 -65 0 0 65 0 65 65 0 65 0 0 -65z m2020 -130
l0 -65 -125 0 -125 0 0 65 0 65 125 0 125 0 0 -65z m-1130 -125 l0 -60 -65 0
-65 0 0 60 0 60 65 0 65 0 0 -60z"/>
<path d="M5860 13090 l0 -60 -125 0 -125 0 0 -65 0 -65 -130 0 -130 0 0 -65 0
-65 -60 0 -60 0 0 -60 0 -60 -130 0 -130 0 0 -65 0 -65 -60 0 -60 0 0 -65 0
-65 -65 0 -65 0 0 -60 0 -60 -65 0 -65 0 0 -65 0 -65 -60 0 -60 0 0 -190 0
-190 60 0 60 0 0 -65 0 -65 65 0 65 0 0 -60 0 -60 190 0 190 0 0 60 0 60 65 0
65 0 0 65 0 65 60 0 60 0 0 65 0 65 65 0 65 0 0 60 0 60 125 0 125 0 0 65 0
65 125 0 125 0 0 65 0 65 65 0 65 0 0 125 0 125 65 0 65 0 0 315 0 315 -190 0
-190 0 0 -60z m120 -380 l0 -190 -60 0 -60 0 0 -125 0 -125 -125 0 -125 0 0
-65 0 -65 -130 0 -130 0 0 -65 0 -65 -60 0 -60 0 0 -60 0 -60 -65 0 -65 0 0
-65 0 -65 -65 0 -65 0 0 -65 0 -65 -60 0 -60 0 0 65 0 65 -65 0 -65 0 0 65 0
65 -65 0 -65 0 0 60 0 60 65 0 65 0 0 65 0 65 65 0 65 0 0 65 0 65 60 0 60 0
0 60 0 60 65 0 65 0 0 65 0 65 125 0 125 0 0 65 0 65 65 0 65 0 0 60 0 60 125
0 125 0 0 65 0 65 125 0 125 0 0 -190z"/>
<path d="M3330 11065 l0 -65 -65 0 -65 0 0 -65 0 -65 -65 0 -65 0 0 -60 0 -60
-60 0 -60 0 0 -65 0 -65 -65 0 -65 0 0 -125 0 -125 -65 0 -65 0 0 -65 0 -65
-60 0 -60 0 0 -190 0 -190 60 0 60 0 0 -60 0 -60 255 0 255 0 0 60 0 60 65 0
65 0 0 65 0 65 60 0 60 0 0 65 0 65 65 0 65 0 0 125 0 125 65 0 65 0 0 60 0
60 60 0 60 0 0 190 0 190 -60 0 -60 0 0 130 0 130 -190 0 -190 0 0 -65z m120
-255 l0 -60 65 0 65 0 0 -130 0 -130 -65 0 -65 0 0 -125 0 -125 -60 0 -60 0 0
-60 0 -60 -65 0 -65 0 0 -65 0 -65 -65 0 -65 0 0 -65 0 -65 -125 0 -125 0 0
65 0 65 -65 0 -65 0 0 65 0 65 65 0 65 0 0 60 0 60 65 0 65 0 0 125 0 125 60
0 60 0 0 65 0 65 65 0 65 0 0 65 0 65 65 0 65 0 0 60 0 60 60 0 60 0 0 -60z"/>
<path d="M14080 12835 l0 -65 -60 0 -60 0 0 -60 0 -60 -65 0 -65 0 0 -65 0
-65 65 0 65 0 0 -65 0 -65 60 0 60 0 0 -60 0 -60 65 0 65 0 0 -65 0 -65 -65 0
-65 0 0 -65 0 -65 65 0 65 0 0 65 0 65 65 0 65 0 0 65 0 65 -65 0 -65 0 0 60
0 60 -65 0 -65 0 0 65 0 65 65 0 65 0 0 65 0 65 -65 0 -65 0 0 60 0 60 65 0
65 0 0 65 0 65 -65 0 -65 0 0 -65z m0 -250 l0 -65 -60 0 -60 0 0 65 0 65 60 0
60 0 0 -65z"/>
<path d="M11050 9865 l0 -125 60 0 60 0 0 -65 0 -65 65 0 65 0 0 190 0 190
-125 0 -125 0 0 -125z"/>
<path d="M11300 8850 l0 -130 65 0 65 0 0 130 0 130 -65 0 -65 0 0 -130z"/>
<path d="M7250 8535 l0 -65 -65 0 -65 0 0 -65 0 -65 -60 0 -60 0 0 -60 0 -60
60 0 60 0 0 -65 0 -65 65 0 65 0 0 -65 0 -65 65 0 65 0 0 65 0 65 -65 0 -65 0
0 65 0 65 65 0 65 0 0 60 0 60 -65 0 -65 0 0 65 0 65 65 0 65 0 0 65 0 65 -65
0 -65 0 0 -65z m0 -255 l0 -60 -65 0 -65 0 0 60 0 60 65 0 65 0 0 -60z"/>
<path d="M11430 8280 l0 -60 60 0 60 0 0 -65 0 -65 -60 0 -60 0 0 -65 0 -65
60 0 60 0 0 65 0 65 65 0 65 0 0 -65 0 -65 65 0 65 0 0 190 0 190 -190 0 -190
0 0 -60z"/>
<path d="M11550 7265 l0 -65 -60 0 -60 0 0 -60 0 -60 60 0 60 0 0 60 0 60 65
0 65 0 0 -60 0 -60 65 0 65 0 0 -65 0 -65 60 0 60 0 0 190 0 190 -190 0 -190
0 0 -65z"/>
<path d="M5610 6885 l0 -65 60 0 60 0 0 -60 0 -60 65 0 65 0 0 -65 0 -65 -65
0 -65 0 0 -65 0 -65 65 0 65 0 0 -60 0 -60 60 0 60 0 0 -65 0 -65 -60 0 -60 0
0 -60 0 -60 60 0 60 0 0 -65 0 -65 65 0 65 0 0 65 0 65 65 0 65 0 0 60 0 60
60 0 60 0 0 65 0 65 65 0 65 0 0 -65 0 -65 65 0 65 0 0 -60 0 -60 60 0 60 0 0
60 0 60 65 0 65 0 0 -60 0 -60 65 0 65 0 0 60 0 60 -65 0 -65 0 0 65 0 65 65
0 65 0 0 60 0 60 -65 0 -65 0 0 -60 0 -60 -65 0 -65 0 0 60 0 60 -60 0 -60 0
0 65 0 65 60 0 60 0 0 65 0 65 -60 0 -60 0 0 -65 0 -65 -65 0 -65 0 0 65 0 65
-65 0 -65 0 0 -65 0 -65 -60 0 -60 0 0 65 0 65 -65 0 -65 0 0 60 0 60 -65 0
-65 0 0 65 0 65 -60 0 -60 0 0 -65 0 -65 -65 0 -65 0 0 65 0 65 -60 0 -60 0 0
-65z m370 -125 l0 -60 65 0 65 0 0 -65 0 -65 65 0 65 0 0 -65 0 -65 60 0 60 0
0 65 0 65 65 0 65 0 0 -65 0 -65 65 0 65 0 0 -60 0 -60 60 0 60 0 0 -65 0 -65
-60 0 -60 0 0 65 0 65 -65 0 -65 0 0 60 0 60 -65 0 -65 0 0 -60 0 -60 -60 0
-60 0 0 -65 0 -65 -65 0 -65 0 0 -60 0 -60 -65 0 -65 0 0 60 0 60 65 0 65 0 0
65 0 65 -65 0 -65 0 0 60 0 60 -60 0 -60 0 0 65 0 65 60 0 60 0 0 65 0 65 -60
0 -60 0 0 60 0 60 60 0 60 0 0 -60z"/>
<path d="M5980 6505 l0 -65 65 0 65 0 0 -60 0 -60 65 0 65 0 0 60 0 60 -65 0
-65 0 0 65 0 65 -65 0 -65 0 0 -65z"/>
<path d="M7120 6380 l0 -60 65 0 65 0 0 60 0 60 -65 0 -65 0 0 -60z"/>
<path d="M7120 5625 l0 -65 65 0 65 0 0 65 0 65 -65 0 -65 0 0 -65z"/>
<path d="M7500 5495 l0 -65 65 0 65 0 0 -60 0 -60 -65 0 -65 0 0 -65 0 -65 65
0 65 0 0 -65 0 -65 -65 0 -65 0 0 -60 0 -60 65 0 65 0 0 60 0 60 65 0 65 0 0
-60 0 -60 60 0 60 0 0 60 0 60 65 0 65 0 0 -60 0 -60 65 0 65 0 0 60 0 60 60
0 60 0 0 -60 0 -60 65 0 65 0 0 -65 0 -65 65 0 65 0 0 65 0 65 60 0 60 0 0
-65 0 -65 65 0 65 0 0 65 0 65 65 0 65 0 0 -65 0 -65 60 0 60 0 0 -65 0 -65
65 0 65 0 0 65 0 65 65 0 65 0 0 -65 0 -65 60 0 60 0 0 -60 0 -60 65 0 65 0 0
-65 0 -65 65 0 65 0 0 -65 0 -65 60 0 60 0 0 -60 0 -60 65 0 65 0 0 -65 0 -65
-65 0 -65 0 0 -65 0 -65 65 0 65 0 0 -60 0 -60 -65 0 -65 0 0 -65 0 -65 65 0
65 0 0 65 0 65 60 0 60 0 0 -65 0 -65 65 0 65 0 0 -65 0 -65 65 0 65 0 0 -60
0 -60 60 0 60 0 0 -65 0 -65 65 0 65 0 0 -65 0 -65 65 0 65 0 0 65 0 65 60 0
60 0 0 65 0 65 65 0 65 0 0 60 0 60 65 0 65 0 0 -60 0 -60 125 0 125 0 0 -65
0 -65 65 0 65 0 0 -65 0 -65 60 0 60 0 0 190 0 190 -250 0 -250 0 0 65 0 65
-65 0 -65 0 0 -65 0 -65 -65 0 -65 0 0 65 0 65 -60 0 -60 0 0 65 0 65 -65 0
-65 0 0 60 0 60 65 0 65 0 0 65 0 65 -65 0 -65 0 0 65 0 65 -65 0 -65 0 0 60
0 60 65 0 65 0 0 65 0 65 -65 0 -65 0 0 -65 0 -65 -60 0 -60 0 0 65 0 65 -65
0 -65 0 0 -65 0 -65 -65 0 -65 0 0 65 0 65 -60 0 -60 0 0 65 0 65 -65 0 -65 0
0 60 0 60 -60 0 -60 0 0 -60 0 -60 -65 0 -65 0 0 60 0 60 -65 0 -65 0 0 65 0
65 65 0 65 0 0 65 0 65 -65 0 -65 0 0 -65 0 -65 -60 0 -60 0 0 65 0 65 -65 0
-65 0 0 60 0 60 -65 0 -65 0 0 65 0 65 -60 0 -60 0 0 65 0 65 60 0 60 0 0 60
0 60 -60 0 -60 0 0 -60 0 -60 -65 0 -65 0 0 60 0 60 -65 0 -65 0 0 -60 0 -60
-60 0 -60 0 0 60 0 60 -65 0 -65 0 0 -60 0 -60 -65 0 -65 0 0 60 0 60 -60 0
-60 0 0 65 0 65 -65 0 -65 0 0 -65 0 -65 -65 0 -65 0 0 65 0 65 -60 0 -60 0 0
-65 0 -65 -65 0 -65 0 0 65 0 65 -65 0 -65 0 0 -65z m380 -125 l0 -60 65 0 65
0 0 60 0 60 65 0 65 0 0 -60 0 -60 60 0 60 0 0 -65 0 -65 65 0 65 0 0 65 0 65
65 0 65 0 0 -65 0 -65 60 0 60 0 0 65 0 65 65 0 65 0 0 -65 0 -65 65 0 65 0 0
-65 0 -65 60 0 60 0 0 -60 0 -60 65 0 65 0 0 -65 0 -65 -65 0 -65 0 0 65 0 65
-60 0 -60 0 0 60 0 60 -65 0 -65 0 0 -60 0 -60 -65 0 -65 0 0 60 0 60 -60 0
-60 0 0 -60 0 -60 -65 0 -65 0 0 60 0 60 -65 0 -65 0 0 65 0 65 -60 0 -60 0 0
-65 0 -65 -65 0 -65 0 0 65 0 65 -65 0 -65 0 0 -65 0 -65 -60 0 -60 0 0 65 0
65 -65 0 -65 0 0 65 0 65 65 0 65 0 0 60 0 60 60 0 60 0 0 -60z m1900 -885 l0
-65 65 0 65 0 0 -65 0 -65 60 0 60 0 0 -60 0 -60 65 0 65 0 0 60 0 60 65 0 65
0 0 -60 0 -60 60 0 60 0 0 -65 0 -65 65 0 65 0 0 -65 0 -65 -65 0 -65 0 0 -60
0 -60 65 0 65 0 0 -65 0 -65 65 0 65 0 0 -65 0 -65 60 0 60 0 0 -60 0 -60 -60
0 -60 0 0 -65 0 -65 -65 0 -65 0 0 65 0 65 -65 0 -65 0 0 60 0 60 -60 0 -60 0
0 65 0 65 -65 0 -65 0 0 65 0 65 -65 0 -65 0 0 60 0 60 -60 0 -60 0 0 65 0 65
60 0 60 0 0 65 0 65 -60 0 -60 0 0 60 0 60 -65 0 -65 0 0 65 0 65 -60 0 -60 0
0 65 0 65 60 0 60 0 0 -65z"/>
<path d="M7760 5245 l0 -65 60 0 60 0 0 65 0 65 -60 0 -60 0 0 -65z"/>
<path d="M8010 5245 l0 -65 65 0 65 0 0 65 0 65 -65 0 -65 0 0 -65z"/>
<path d="M8390 5115 l0 -65 65 0 65 0 0 65 0 65 -65 0 -65 0 0 -65z"/>
<path d="M8640 5115 l0 -65 65 0 65 0 0 65 0 65 -65 0 -65 0 0 -65z"/>
<path d="M10160 4105 l0 -65 -65 0 -65 0 0 -65 0 -65 65 0 65 0 0 -60 0 -60
65 0 65 0 0 -65 0 -65 60 0 60 0 0 -65 0 -65 65 0 65 0 0 -60 0 -60 65 0 65 0
0 60 0 60 -65 0 -65 0 0 65 0 65 -65 0 -65 0 0 65 0 65 -60 0 -60 0 0 60 0 60
60 0 60 0 0 65 0 65 -60 0 -60 0 0 65 0 65 -65 0 -65 0 0 -65z m130 -130 l0
-65 -65 0 -65 0 0 65 0 65 65 0 65 0 0 -65z"/>
<path d="M11430 5435 l0 -125 60 0 60 0 0 125 0 125 -60 0 -60 0 0 -125z"/>
<path d="M11300 4735 l0 -65 65 0 65 0 0 -60 0 -60 -65 0 -65 0 0 -65 0 -65
125 0 125 0 0 -65 0 -65 65 0 65 0 0 190 0 190 -125 0 -125 0 0 65 0 65 -65 0
-65 0 0 -65z"/>
</g>
</svg>
