<?xml version="1.0" standalone="no"?>
<!DOCTYPE svg PUBLIC "-//W3C//DTD SVG 20010904//EN"
 "http://www.w3.org/TR/2001/REC-SVG-20010904/DTD/svg10.dtd">
<svg version="1.0" xmlns="http://www.w3.org/2000/svg"
 width="1606.000000pt" height="1505.000000pt" viewBox="0 0 1606.000000 1505.000000"
 preserveAspectRatio="xMidYMid meet">

<g transform="translate(0.000000,1505.000000) scale(0.100000,-0.100000)"
fill="#000000" stroke="none">
<path d="M4210 13055 l0 -65 -250 0 -250 0 0 -60 0 -60 -255 0 -255 0 0 -65 0
-65 -125 0 -125 0 0 -65 0 -65 -130 0 -130 0 0 -60 0 -60 -60 0 -60 0 0 -130
0 -130 -65 0 -65 0 0 -820 0 -820 65 0 65 0 0 -315 0 -315 60 0 60 0 0 -255 0
-255 -60 0 -60 0 0 -125 0 -125 -65 0 -65 0 0 -320 0 -320 255 0 255 0 0 -250
0 -250 60 0 60 0 0 -255 0 -255 65 0 65 0 0 -255 0 -255 65 0 65 0 0 -250 0
-250 60 0 60 0 0 -255 0 -255 65 0 65 0 0 -190 0 -190 65 0 65 0 0 -60 0 -60
60 0 60 0 0 -65 0 -65 -60 0 -60 0 0 -950 0 -950 60 0 60 0 0 -190 0 -190 -60
0 -60 0 0 -315 0 -315 60 0 60 0 0 -190 0 -190 1330 0 1330 0 0 60 0 60 65 0
65 0 0 635 0 635 -65 0 -65 0 0 190 0 190 -65 0 -65 0 0 190 0 190 -60 0 -60
0 0 380 0 380 -65 0 -65 0 0 190 0 190 -65 0 -65 0 0 190 0 190 -60 0 -60 0 0
65 0 65 60 0 60 0 0 440 0 440 -60 0 -60 0 0 65 0 65 60 0 60 0 0 380 0 380
-60 0 -60 0 0 190 0 190 60 0 60 0 0 1645 0 1645 65 0 65 0 0 570 0 570 -65 0
-65 0 0 60 0 60 -60 0 -60 0 0 65 0 65 -65 0 -65 0 0 65 0 65 -190 0 -190 0 0
60 0 60 -190 0 -190 0 0 65 0 65 -380 0 -380 0 0 -65z m1770 -1075 l0 -380
-375 0 -375 0 0 125 0 125 60 0 60 0 0 65 0 65 65 0 65 0 0 65 0 65 65 0 65 0
0 60 0 60 60 0 60 0 0 65 0 65 125 0 125 0 0 -380z m-3030 190 l0 -60 60 0 60
0 0 60 0 60 65 0 65 0 0 -60 0 -60 125 0 125 0 0 -65 0 -65 320 0 320 0 0 -65
0 -65 -65 0 -65 0 0 -190 0 -190 -380 0 -380 0 0 65 0 65 -65 0 -65 0 0 65 0
65 -60 0 -60 0 0 -65 0 -65 -65 0 -65 0 0 65 0 65 -65 0 -65 0 0 60 0 60 65 0
65 0 0 65 0 65 -65 0 -65 0 0 65 0 65 65 0 65 0 0 60 0 60 65 0 65 0 0 -60z
m0 -760 l0 -60 60 0 60 0 0 -65 0 -65 -60 0 -60 0 0 65 0 65 -65 0 -65 0 0 60
0 60 65 0 65 0 0 -60z m2910 0 l0 -60 -190 0 -190 0 0 -65 0 -65 -255 0 -255
0 0 65 0 65 190 0 190 0 0 60 0 60 255 0 255 0 0 -60z m-1900 -125 l0 -65
-380 0 -380 0 0 65 0 65 380 0 380 0 0 -65z m760 -190 l0 -125 -65 0 -65 0 0
-65 0 -65 -60 0 -60 0 0 -65 0 -65 -65 0 -65 0 0 -60 0 -60 -65 0 -65 0 0 -65
0 -65 -60 0 -60 0 0 -65 0 -65 -65 0 -65 0 0 -60 0 -60 -65 0 -65 0 0 -65 0
-65 -60 0 -60 0 0 -60 0 -60 -65 0 -65 0 0 -65 0 -65 -65 0 -65 0 0 -65 0 -65
-60 0 -60 0 0 -60 0 -60 -65 0 -65 0 0 -130 0 -130 -65 0 -65 0 0 -125 0 -125
-60 0 -60 0 0 -125 0 -125 -130 0 -130 0 0 125 0 125 65 0 65 0 0 125 0 125
65 0 65 0 0 65 0 65 60 0 60 0 0 125 0 125 65 0 65 0 0 65 0 65 65 0 65 0 0
65 0 65 60 0 60 0 0 60 0 60 65 0 65 0 0 65 0 65 65 0 65 0 0 60 0 60 60 0 60
0 0 65 0 65 65 0 65 0 0 65 0 65 65 0 65 0 0 60 0 60 60 0 60 0 0 65 0 65 65
0 65 0 0 65 0 65 65 0 65 0 0 60 0 60 60 0 60 0 0 65 0 65 65 0 65 0 0 -125z
m1140 0 l0 -125 -315 0 -315 0 0 60 0 60 190 0 190 0 0 65 0 65 125 0 125 0 0
-125z m-3040 -65 l0 -60 65 0 65 0 0 -65 0 -65 60 0 60 0 0 -65 0 -65 65 0 65
0 0 65 0 65 380 0 380 0 0 -65 0 -65 -65 0 -65 0 0 -60 0 -60 -60 0 -60 0 0
-65 0 -65 -65 0 -65 0 0 -65 0 -65 -65 0 -65 0 0 -60 0 -60 -60 0 -60 0 0 -65
0 -65 -130 0 -130 0 0 -60 0 -60 -60 0 -60 0 0 60 0 60 -65 0 -65 0 0 65 0 65
65 0 65 0 0 60 0 60 -65 0 -65 0 0 65 0 65 65 0 65 0 0 65 0 65 -65 0 -65 0 0
60 0 60 65 0 65 0 0 65 0 65 -65 0 -65 0 0 65 0 65 -65 0 -65 0 0 60 0 60 65
0 65 0 0 -60z m1270 0 l0 -60 -510 0 -510 0 0 60 0 60 510 0 510 0 0 -60z
m760 -255 l0 -65 60 0 60 0 0 -60 0 -60 65 0 65 0 0 -255 0 -255 65 0 65 0 0
-125 0 -125 60 0 60 0 0 -255 0 -255 65 0 65 0 0 -250 0 -250 65 0 65 0 0 315
0 315 -65 0 -65 0 0 255 0 255 -65 0 -65 0 0 125 0 125 -60 0 -60 0 0 250 0
250 -65 0 -65 0 0 65 0 65 380 0 380 0 0 -1330 0 -1330 -65 0 -65 0 0 -315 0
-315 65 0 65 0 0 -255 0 -255 -65 0 -65 0 0 -190 0 -190 65 0 65 0 0 -315 0
-315 -65 0 -65 0 0 -190 0 -190 65 0 65 0 0 -190 0 -190 60 0 60 0 0 -250 0
-250 65 0 65 0 0 -320 0 -320 65 0 65 0 0 -190 0 -190 60 0 60 0 0 -190 0
-190 65 0 65 0 0 -315 0 -315 -190 0 -190 0 0 -65 0 -65 -950 0 -950 0 0 65 0
65 -60 0 -60 0 0 65 0 65 -65 0 -65 0 0 60 0 60 65 0 65 0 0 65 0 65 60 0 60
0 0 65 0 65 -60 0 -60 0 0 60 0 60 60 0 60 0 0 65 0 65 -60 0 -60 0 0 65 0 65
-65 0 -65 0 0 60 0 60 65 0 65 0 0 65 0 65 -65 0 -65 0 0 65 0 65 65 0 65 0 0
60 0 60 -65 0 -65 0 0 65 0 65 65 0 65 0 0 65 0 65 -65 0 -65 0 0 60 0 60 65
0 65 0 0 65 0 65 -65 0 -65 0 0 65 0 65 65 0 65 0 0 60 0 60 -65 0 -65 0 0 65
0 65 65 0 65 0 0 65 0 65 -65 0 -65 0 0 60 0 60 65 0 65 0 0 65 0 65 60 0 60
0 0 65 0 65 -60 0 -60 0 0 60 0 60 -65 0 -65 0 0 65 0 65 -65 0 -65 0 0 65 0
65 65 0 65 0 0 60 0 60 -65 0 -65 0 0 65 0 65 65 0 65 0 0 60 0 60 -65 0 -65
0 0 65 0 65 -60 0 -60 0 0 65 0 65 60 0 60 0 0 60 0 60 -60 0 -60 0 0 65 0 65
-65 0 -65 0 0 65 0 65 65 0 65 0 0 60 0 60 -65 0 -65 0 0 65 0 65 65 0 65 0 0
65 0 65 -65 0 -65 0 0 60 0 60 -65 0 -65 0 0 65 0 65 65 0 65 0 0 65 0 65 -65
0 -65 0 0 60 0 60 -60 0 -60 0 0 65 0 65 60 0 60 0 0 65 0 65 -60 0 -60 0 0
60 0 60 60 0 60 0 0 65 0 65 -60 0 -60 0 0 65 0 65 -65 0 -65 0 0 60 0 60 65
0 65 0 0 65 0 65 -65 0 -65 0 0 65 0 65 -65 0 -65 0 0 60 0 60 65 0 65 0 0 65
0 65 65 0 65 0 0 65 0 65 60 0 60 0 0 60 0 60 -60 0 -60 0 0 65 0 65 60 0 60
0 0 65 0 65 65 0 65 0 0 60 0 60 65 0 65 0 0 65 0 65 60 0 60 0 0 65 0 65 65
0 65 0 0 -190 0 -190 -125 0 -125 0 0 -190 0 -190 190 0 190 0 0 -130 0 -130
-130 0 -130 0 0 -190 0 -190 130 0 130 0 0 -60 0 -60 60 0 60 0 0 -190 0 -190
-190 0 -190 0 0 -190 0 -190 190 0 190 0 0 -65 0 -65 65 0 65 0 0 -125 0 -125
-125 0 -125 0 0 -190 0 -190 60 0 60 0 0 -65 0 -65 130 0 130 0 0 -255 0 -255
60 0 60 0 0 -125 0 -125 190 0 190 0 0 65 0 65 65 0 65 0 0 60 0 60 65 0 65 0
0 320 0 320 190 0 190 0 0 190 0 190 -190 0 -190 0 0 380 0 380 190 0 190 0 0
125 0 125 60 0 60 0 0 255 0 255 -60 0 -60 0 0 -190 0 -190 -65 0 -65 0 0 125
0 125 -65 0 -65 0 0 255 0 255 -60 0 -60 0 0 250 0 250 -65 0 -65 0 0 130 0
130 -65 0 -65 0 0 315 0 315 -60 0 -60 0 0 60 0 60 -65 0 -65 0 0 65 0 65 65
0 65 0 0 -65z m-380 -1450 l0 -125 -65 0 -65 0 0 60 0 60 -255 0 -255 0 0 65
0 65 320 0 320 0 0 -125z m630 -130 l0 -125 -65 0 -65 0 0 -65 0 -65 -60 0
-60 0 0 -60 0 -60 -65 0 -65 0 0 125 0 125 65 0 65 0 0 65 0 65 60 0 60 0 0
60 0 60 65 0 65 0 0 -125z m-630 -440 l0 -65 60 0 60 0 0 -65 0 -65 -125 0
-125 0 0 65 0 65 -190 0 -190 0 0 65 0 65 255 0 255 0 0 -65z m880 -380 l0
-65 65 0 65 0 0 -65 0 -65 -255 0 -255 0 0 -60 0 -60 -60 0 -60 0 0 -65 0 -65
-65 0 -65 0 0 125 0 125 65 0 65 0 0 65 0 65 60 0 60 0 0 65 0 65 190 0 190 0
0 -65z m-1010 -510 l0 -65 -190 0 -190 0 0 65 0 65 190 0 190 0 0 -65z m250
-760 l0 -65 -190 0 -190 0 0 65 0 65 190 0 190 0 0 -65z m890 0 l0 -65 -190 0
-190 0 0 65 0 65 190 0 190 0 0 -65z m1010 -4620 l0 -125 -65 0 -65 0 0 -65 0
-65 -1135 0 -1135 0 0 130 0 130 1075 0 1075 0 0 60 0 60 125 0 125 0 0 -125z"/>
<path d="M2820 12045 l0 -65 65 0 65 0 0 -65 0 -65 -65 0 -65 0 0 -60 0 -60
65 0 65 0 0 60 0 60 60 0 60 0 0 65 0 65 -60 0 -60 0 0 65 0 65 -65 0 -65 0 0
-65z"/>
<path d="M2950 10650 l0 -60 60 0 60 0 0 -65 0 -65 -60 0 -60 0 0 -65 0 -65
60 0 60 0 0 -60 0 -60 -60 0 -60 0 0 -65 0 -65 60 0 60 0 0 65 0 65 65 0 65 0
0 60 0 60 -65 0 -65 0 0 65 0 65 65 0 65 0 0 65 0 65 -65 0 -65 0 0 60 0 60
-60 0 -60 0 0 -60z"/>
<path d="M3450 9385 l0 -65 65 0 65 0 0 65 0 65 -65 0 -65 0 0 -65z"/>
<path d="M3450 9135 l0 -65 -60 0 -60 0 0 -65 0 -65 -65 0 -65 0 0 -60 0 -60
65 0 65 0 0 -65 0 -65 60 0 60 0 0 -65 0 -65 -60 0 -60 0 0 -60 0 -60 60 0 60
0 0 -65 0 -65 65 0 65 0 0 65 0 65 -65 0 -65 0 0 60 0 60 65 0 65 0 0 65 0 65
-65 0 -65 0 0 65 0 65 65 0 65 0 0 60 0 60 -65 0 -65 0 0 65 0 65 65 0 65 0 0
65 0 65 -65 0 -65 0 0 -65z m0 -255 l0 -60 -60 0 -60 0 0 60 0 60 60 0 60 0 0
-60z"/>
<path d="M3450 8120 l0 -60 65 0 65 0 0 -65 0 -65 -65 0 -65 0 0 -65 0 -65 65
0 65 0 0 -60 0 -60 65 0 65 0 0 60 0 60 -65 0 -65 0 0 65 0 65 65 0 65 0 0 65
0 65 -65 0 -65 0 0 60 0 60 -65 0 -65 0 0 -60z"/>
<path d="M3580 7485 l0 -65 65 0 65 0 0 -60 0 -60 60 0 60 0 0 60 0 60 -60 0
-60 0 0 65 0 65 -65 0 -65 0 0 -65z"/>
<path d="M3710 7105 l0 -65 60 0 60 0 0 65 0 65 -60 0 -60 0 0 -65z"/>
<path d="M3710 6855 l0 -65 60 0 60 0 0 65 0 65 -60 0 -60 0 0 -65z"/>
<path d="M3830 6475 l0 -65 65 0 65 0 0 -65 0 -65 65 0 65 0 0 -60 0 -60 -65
0 -65 0 0 -65 0 -65 65 0 65 0 0 -60 0 -60 -65 0 -65 0 0 -65 0 -65 65 0 65 0
0 -65 0 -65 60 0 60 0 0 -60 0 -60 65 0 65 0 0 60 0 60 -65 0 -65 0 0 65 0 65
-60 0 -60 0 0 65 0 65 60 0 60 0 0 60 0 60 65 0 65 0 0 65 0 65 -65 0 -65 0 0
60 0 60 -60 0 -60 0 0 65 0 65 -65 0 -65 0 0 65 0 65 -65 0 -65 0 0 -65z m380
-380 l0 -65 -60 0 -60 0 0 65 0 65 60 0 60 0 0 -65z"/>
<path d="M4210 5335 l0 -65 -60 0 -60 0 0 -60 0 -60 60 0 60 0 0 -65 0 -65
-60 0 -60 0 0 -65 0 -65 60 0 60 0 0 -60 0 -60 -60 0 -60 0 0 -65 0 -65 60 0
60 0 0 -65 0 -65 -60 0 -60 0 0 -60 0 -60 60 0 60 0 0 -65 0 -65 -60 0 -60 0
0 -65 0 -65 60 0 60 0 0 -60 0 -60 -60 0 -60 0 0 -65 0 -65 60 0 60 0 0 -65 0
-65 -60 0 -60 0 0 -60 0 -60 60 0 60 0 0 -65 0 -65 65 0 65 0 0 -65 0 -65 65
0 65 0 0 65 0 65 60 0 60 0 0 65 0 65 65 0 65 0 0 -65 0 -65 65 0 65 0 0 65 0
65 60 0 60 0 0 -65 0 -65 65 0 65 0 0 65 0 65 65 0 65 0 0 -65 0 -65 60 0 60
0 0 65 0 65 65 0 65 0 0 -65 0 -65 65 0 65 0 0 65 0 65 60 0 60 0 0 -65 0 -65
65 0 65 0 0 65 0 65 -65 0 -65 0 0 60 0 60 -60 0 -60 0 0 -60 0 -60 -65 0 -65
0 0 60 0 60 -65 0 -65 0 0 -60 0 -60 -60 0 -60 0 0 60 0 60 -65 0 -65 0 0 -60
0 -60 -65 0 -65 0 0 60 0 60 -60 0 -60 0 0 -60 0 -60 -65 0 -65 0 0 60 0 60
-65 0 -65 0 0 65 0 65 -60 0 -60 0 0 65 0 65 60 0 60 0 0 60 0 60 65 0 65 0 0
-60 0 -60 65 0 65 0 0 60 0 60 60 0 60 0 0 -60 0 -60 65 0 65 0 0 60 0 60 65
0 65 0 0 -60 0 -60 60 0 60 0 0 60 0 60 65 0 65 0 0 -60 0 -60 65 0 65 0 0 60
0 60 60 0 60 0 0 -60 0 -60 65 0 65 0 0 60 0 60 60 0 60 0 0 -60 0 -60 65 0
65 0 0 60 0 60 -65 0 -65 0 0 65 0 65 -60 0 -60 0 0 -65 0 -65 -65 0 -65 0 0
65 0 65 -60 0 -60 0 0 -65 0 -65 -65 0 -65 0 0 65 0 65 -65 0 -65 0 0 -65 0
-65 -60 0 -60 0 0 65 0 65 -65 0 -65 0 0 -65 0 -65 -65 0 -65 0 0 65 0 65 -60
0 -60 0 0 -65 0 -65 -65 0 -65 0 0 65 0 65 -65 0 -65 0 0 65 0 65 -60 0 -60 0
0 60 0 60 60 0 60 0 0 65 0 65 -60 0 -60 0 0 65 0 65 60 0 60 0 0 60 0 60 -60
0 -60 0 0 65 0 65 -65 0 -65 0 0 65 0 65 65 0 65 0 0 60 0 60 -65 0 -65 0 0
65 0 65 -65 0 -65 0 0 -65z m130 -125 l0 -60 -65 0 -65 0 0 60 0 60 65 0 65 0
0 -60z m0 -255 l0 -65 65 0 65 0 0 -60 0 -60 -65 0 -65 0 0 -65 0 -65 65 0 65
0 0 -65 0 -65 -65 0 -65 0 0 -60 0 -60 65 0 65 0 0 -65 0 -65 60 0 60 0 0 -65
0 -65 -60 0 -60 0 0 -60 0 -60 -65 0 -65 0 0 -65 0 -65 65 0 65 0 0 -65 0 -65
60 0 60 0 0 -60 0 -60 -60 0 -60 0 0 -65 0 -65 -65 0 -65 0 0 65 0 65 -65 0
-65 0 0 60 0 60 65 0 65 0 0 65 0 65 -65 0 -65 0 0 65 0 65 65 0 65 0 0 60 0
60 -65 0 -65 0 0 65 0 65 65 0 65 0 0 65 0 65 -65 0 -65 0 0 60 0 60 65 0 65
0 0 65 0 65 -65 0 -65 0 0 65 0 65 65 0 65 0 0 60 0 60 -65 0 -65 0 0 65 0 65
65 0 65 0 0 -65z"/>
<path d="M4340 4195 l0 -65 65 0 65 0 0 65 0 65 -65 0 -65 0 0 -65z"/>
<path d="M4340 3690 l0 -60 65 0 65 0 0 60 0 60 -65 0 -65 0 0 -60z"/>
<path d="M5980 3565 l0 -65 65 0 65 0 0 65 0 65 -65 0 -65 0 0 -65z"/>
<path d="M4090 2930 l0 -60 60 0 60 0 0 60 0 60 -60 0 -60 0 0 -60z"/>
<path d="M7250 12805 l0 -65 -125 0 -125 0 0 -445 0 -445 -130 0 -130 0 0
-250 0 -250 65 0 65 0 0 -65 0 -65 65 0 65 0 0 -695 0 -695 60 0 60 0 0 -380
0 -380 65 0 65 0 0 -255 0 -255 65 0 65 0 0 -250 0 -250 60 0 60 0 0 -320 0
-320 65 0 65 0 0 -505 0 -505 65 0 65 0 0 -65 0 -65 60 0 60 0 0 -375 0 -375
-60 0 -60 0 0 -255 0 -255 60 0 60 0 0 -190 0 -190 65 0 65 0 0 -65 0 -65 -65
0 -65 0 0 -250 0 -250 65 0 65 0 0 -190 0 -190 -65 0 -65 0 0 -445 0 -445
1205 0 1205 0 0 125 0 125 60 0 60 0 0 130 0 130 130 0 130 0 0 -65 0 -65 60
0 60 0 0 -65 0 -65 65 0 65 0 0 -60 0 -60 190 0 190 0 0 -65 0 -65 1770 0
1770 0 0 505 0 505 -60 0 -60 0 0 65 0 65 -65 0 -65 0 0 65 0 65 -65 0 -65 0
0 60 0 60 -190 0 -190 0 0 65 0 65 -185 0 -185 0 0 65 0 65 -130 0 -130 0 0
60 0 60 -380 0 -380 0 0 65 0 65 -125 0 -125 0 0 65 0 65 -65 0 -65 0 0 60 0
60 -60 0 -60 0 0 65 0 65 -130 0 -130 0 0 65 0 65 -60 0 -60 0 0 60 0 60 -65
0 -65 0 0 65 0 65 -65 0 -65 0 0 65 0 65 -60 0 -60 0 0 60 0 60 -130 0 -130 0
0 65 0 65 -60 0 -60 0 0 65 0 65 -65 0 -65 0 0 60 0 60 -65 0 -65 0 0 190 0
190 -60 0 -60 0 0 125 0 125 60 0 60 0 0 130 0 130 -60 0 -60 0 0 60 0 60 -65
0 -65 0 0 190 0 190 65 0 65 0 0 255 0 255 60 0 60 0 0 190 0 190 -60 0 -60 0
0 885 0 885 60 0 60 0 0 -125 0 -125 65 0 65 0 0 -125 0 -125 190 0 190 0 0
315 0 315 -65 0 -65 0 0 125 0 125 -60 0 -60 0 0 65 0 65 -65 0 -65 0 0 60 0
60 -65 0 -65 0 0 65 0 65 -60 0 -60 0 0 65 0 65 -65 0 -65 0 0 125 0 125 65 0
65 0 0 190 0 190 -65 0 -65 0 0 255 0 255 -65 0 -65 0 0 125 0 125 -60 0 -60
0 0 190 0 190 -190 0 -190 0 0 65 0 65 -1330 0 -1330 0 0 -65z m250 -380 l0
-65 65 0 65 0 0 -65 0 -65 65 0 65 0 0 65 0 65 60 0 60 0 0 -65 0 -65 65 0 65
0 0 65 0 65 885 0 885 0 0 -65 0 -65 -250 0 -250 0 0 -60 0 -60 -65 0 -65 0 0
-65 0 -65 -125 0 -125 0 0 -65 0 -65 -510 0 -510 0 0 -60 0 -60 -315 0 -315 0
0 60 0 60 65 0 65 0 0 65 0 65 -65 0 -65 0 0 65 0 65 65 0 65 0 0 60 0 60 -65
0 -65 0 0 65 0 65 65 0 65 0 0 65 0 65 60 0 60 0 0 -65z m2410 -380 l0 -65
-190 0 -190 0 0 -65 0 -65 -65 0 -65 0 0 -60 0 -60 -60 0 -60 0 0 125 0 125
60 0 60 0 0 65 0 65 255 0 255 0 0 -65z m-760 -575 l0 -380 -65 0 -65 0 0
-250 0 -250 -60 0 -60 0 0 -315 0 -315 -65 0 -65 0 0 -130 0 -130 -65 0 -65 0
0 190 0 190 65 0 65 0 0 315 0 315 65 0 65 0 0 255 0 255 60 0 60 0 0 315 0
315 65 0 65 0 0 -380z m760 320 l0 -60 -65 0 -65 0 0 -65 0 -65 -125 0 -125 0
0 65 0 65 65 0 65 0 0 60 0 60 125 0 125 0 0 -60z m-1010 -125 l0 -65 -255 0
-255 0 0 -65 0 -65 -315 0 -315 0 0 -60 0 -60 -320 0 -320 0 0 60 0 60 -60 0
-60 0 0 65 0 65 505 0 505 0 0 65 0 65 445 0 445 0 0 -65z m1260 -65 l0 -130
-65 0 -65 0 0 -60 0 -60 -315 0 -315 0 0 -65 0 -65 -60 0 -60 0 0 125 0 125
315 0 315 0 0 65 0 65 60 0 60 0 0 65 0 65 65 0 65 0 0 -130z m-1260 -190 l0
-60 -65 0 -65 0 0 -65 0 -65 -380 0 -380 0 0 -65 0 -65 -380 0 -380 0 0 65 0
65 315 0 315 0 0 65 0 65 320 0 320 0 0 60 0 60 190 0 190 0 0 -60z m1640 0
l0 -60 -125 0 -125 0 0 60 0 60 125 0 125 0 0 -60z m-760 -380 l0 -190 -60 0
-60 0 0 -65 0 -65 -130 0 -130 0 0 -190 0 -190 190 0 190 0 0 -185 0 -185
-125 0 -125 0 0 -190 0 -190 125 0 125 0 0 -190 0 -190 -60 0 -60 0 0 -190 0
-190 60 0 60 0 0 -190 0 -190 -60 0 -60 0 0 -190 0 -190 125 0 125 0 0 -130 0
-130 -65 0 -65 0 0 -190 0 -190 125 0 125 0 0 -125 0 -125 65 0 65 0 0 -65 0
-65 65 0 65 0 0 -125 0 -125 125 0 125 0 0 -65 0 -65 -65 0 -65 0 0 -125 0
-125 65 0 65 0 0 -65 0 -65 65 0 65 0 0 -185 0 -185 60 0 60 0 0 -65 0 -65 65
0 65 0 0 -65 0 -65 65 0 65 0 0 -60 0 -60 125 0 125 0 0 -65 0 -65 65 0 65 0
0 -65 0 -65 60 0 60 0 0 -60 0 -60 65 0 65 0 0 -65 0 -65 65 0 65 0 0 -65 0
-65 125 0 125 0 0 -60 0 -60 65 0 65 0 0 -65 0 -65 60 0 60 0 0 -65 0 -65 130
0 130 0 0 -60 0 -60 380 0 380 0 0 -65 0 -65 125 0 125 0 0 -65 0 -65 190 0
190 0 0 -60 0 -60 190 0 190 0 0 -65 0 -65 60 0 60 0 0 -65 0 -65 65 0 65 0 0
-60 0 -60 65 0 65 0 0 -130 0 -130 -65 0 -65 0 0 65 0 65 -695 0 -695 0 0 65
0 65 -65 0 -65 0 0 -65 0 -65 -60 0 -60 0 0 65 0 65 -65 0 -65 0 0 -65 0 -65
-65 0 -65 0 0 65 0 65 -60 0 -60 0 0 -65 0 -65 -65 0 -65 0 0 65 0 65 -65 0
-65 0 0 -65 0 -65 -60 0 -60 0 0 65 0 65 -65 0 -65 0 0 -65 0 -65 -65 0 -65 0
0 65 0 65 -60 0 -60 0 0 -65 0 -65 -65 0 -65 0 0 65 0 65 -65 0 -65 0 0 -65 0
-65 -60 0 -60 0 0 65 0 65 -65 0 -65 0 0 60 0 60 -65 0 -65 0 0 -60 0 -60 -60
0 -60 0 0 60 0 60 -65 0 -65 0 0 65 0 65 -65 0 -65 0 0 -65 0 -65 -60 0 -60 0
0 65 0 65 -65 0 -65 0 0 -65 0 -65 -65 0 -65 0 0 65 0 65 -60 0 -60 0 0 -65 0
-65 -65 0 -65 0 0 65 0 65 -65 0 -65 0 0 -65 0 -65 -60 0 -60 0 0 -60 0 -60
-65 0 -65 0 0 60 0 60 -60 0 -60 0 0 -60 0 -60 -65 0 -65 0 0 60 0 60 -65 0
-65 0 0 -60 0 -60 -60 0 -60 0 0 60 0 60 -65 0 -65 0 0 -60 0 -60 -445 0 -445
0 0 60 0 60 65 0 65 0 0 65 0 65 -65 0 -65 0 0 65 0 65 65 0 65 0 0 60 0 60
-65 0 -65 0 0 65 0 65 -60 0 -60 0 0 65 0 65 60 0 60 0 0 60 0 60 65 0 65 0 0
65 0 65 -65 0 -65 0 0 65 0 65 65 0 65 0 0 60 0 60 -65 0 -65 0 0 65 0 65 -60
0 -60 0 0 65 0 65 -65 0 -65 0 0 60 0 60 65 0 65 0 0 65 0 65 60 0 60 0 0 65
0 65 -60 0 -60 0 0 60 0 60 60 0 60 0 0 65 0 65 -60 0 -60 0 0 65 0 65 60 0
60 0 0 60 0 60 -60 0 -60 0 0 65 0 65 60 0 60 0 0 60 0 60 -60 0 -60 0 0 65 0
65 -65 0 -65 0 0 65 0 65 -65 0 -65 0 0 60 0 60 65 0 65 0 0 65 0 65 -65 0
-65 0 0 65 0 65 65 0 65 0 0 60 0 60 -65 0 -65 0 0 65 0 65 65 0 65 0 0 65 0
65 -65 0 -65 0 0 60 0 60 65 0 65 0 0 65 0 65 -65 0 -65 0 0 65 0 65 -60 0
-60 0 0 60 0 60 60 0 60 0 0 65 0 65 -60 0 -60 0 0 65 0 65 60 0 60 0 0 60 0
60 -60 0 -60 0 0 65 0 65 -65 0 -65 0 0 65 0 65 65 0 65 0 0 60 0 60 -65 0
-65 0 0 65 0 65 -65 0 -65 0 0 65 0 65 65 0 65 0 0 60 0 60 -65 0 -65 0 0 65
0 65 65 0 65 0 0 65 0 65 -65 0 -65 0 0 60 0 60 -60 0 -60 0 0 65 0 65 60 0
60 0 0 65 0 65 -60 0 -60 0 0 60 0 60 60 0 60 0 0 65 0 65 -60 0 -60 0 0 65 0
65 60 0 60 0 0 60 0 60 -60 0 -60 0 0 65 0 65 -65 0 -65 0 0 60 0 60 65 0 65
0 0 65 0 65 -65 0 -65 0 0 65 0 65 65 0 65 0 0 60 0 60 -65 0 -65 0 0 65 0 65
65 0 65 0 0 65 0 65 60 0 60 0 0 -65 0 -65 65 0 65 0 0 65 0 65 255 0 255 0 0
60 0 60 315 0 315 0 0 -125 0 -125 -65 0 -65 0 0 -315 0 -315 -60 0 -60 0 0
-315 0 -315 190 0 190 0 0 125 0 125 60 0 60 0 0 315 0 315 65 0 65 0 0 255 0
255 65 0 65 0 0 60 0 60 125 0 125 0 0 65 0 65 125 0 125 0 0 -190z m380 -190
l0 -130 -65 0 -65 0 0 -60 0 -60 -60 0 -60 0 0 -65 0 -65 -190 0 -190 0 0 65
0 65 125 0 125 0 0 60 0 60 65 0 65 0 0 65 0 65 60 0 60 0 0 65 0 65 65 0 65
0 0 -130z m510 -190 l0 -60 60 0 60 0 0 -65 0 -65 65 0 65 0 0 -65 0 -65 65 0
65 0 0 -125 0 -125 60 0 60 0 0 -190 0 -190 -60 0 -60 0 0 130 0 130 -65 0
-65 0 0 125 0 125 -65 0 -65 0 0 60 0 60 -60 0 -60 0 0 65 0 65 -65 0 -65 0 0
65 0 65 -65 0 -65 0 0 60 0 60 130 0 130 0 0 -60z m-510 -695 l0 -125 -65 0
-65 0 0 -65 0 -65 -185 0 -185 0 0 65 0 65 125 0 125 0 0 65 0 65 60 0 60 0 0
60 0 60 65 0 65 0 0 -125z m130 -820 l0 -65 -65 0 -65 0 0 -65 0 -65 -190 0
-190 0 0 65 0 65 125 0 125 0 0 65 0 65 130 0 130 0 0 -65z m-130 -890 l0 -65
-190 0 -190 0 0 65 0 65 190 0 190 0 0 -65z m510 -125 l0 -60 -65 0 -65 0 0
60 0 60 65 0 65 0 0 -60z m-510 -505 l0 -65 -125 0 -125 0 0 65 0 65 125 0
125 0 0 -65z m760 -4050 l0 -65 125 0 125 0 0 -65 0 -65 1645 0 1645 0 0 -60
0 -60 130 0 130 0 0 -190 0 -190 -1645 0 -1645 0 0 60 0 60 -190 0 -190 0 0
65 0 65 -65 0 -65 0 0 65 0 65 -65 0 -65 0 0 60 0 60 -250 0 -250 0 0 -125 0
-125 -65 0 -65 0 0 -125 0 -125 -1010 0 -1010 0 0 315 0 315 945 0 945 0 0 65
0 65 445 0 445 0 0 -65z"/>
<path d="M7380 12295 l0 -65 60 0 60 0 0 -60 0 -60 -60 0 -60 0 0 -65 0 -65
60 0 60 0 0 -65 0 -65 65 0 65 0 0 65 0 65 65 0 65 0 0 -65 0 -65 60 0 60 0 0
65 0 65 -60 0 -60 0 0 65 0 65 60 0 60 0 0 60 0 60 -60 0 -60 0 0 -60 0 -60
-65 0 -65 0 0 60 0 60 -65 0 -65 0 0 65 0 65 -60 0 -60 0 0 -65z m250 -250 l0
-65 -65 0 -65 0 0 65 0 65 65 0 65 0 0 -65z"/>
<path d="M7380 10775 l0 -65 60 0 60 0 0 -60 0 -60 -60 0 -60 0 0 -65 0 -65
60 0 60 0 0 -65 0 -65 -60 0 -60 0 0 -60 0 -60 60 0 60 0 0 -65 0 -65 65 0 65
0 0 -60 0 -60 -65 0 -65 0 0 -65 0 -65 65 0 65 0 0 -65 0 -65 -65 0 -65 0 0
-60 0 -60 65 0 65 0 0 -65 0 -65 -65 0 -65 0 0 -65 0 -65 65 0 65 0 0 -60 0
-60 65 0 65 0 0 -65 0 -65 -65 0 -65 0 0 -65 0 -65 65 0 65 0 0 -60 0 -60 -65
0 -65 0 0 -65 0 -65 65 0 65 0 0 -65 0 -65 60 0 60 0 0 -60 0 -60 -60 0 -60 0
0 -65 0 -65 60 0 60 0 0 -65 0 -65 65 0 65 0 0 -60 0 -60 -65 0 -65 0 0 -65 0
-65 65 0 65 0 0 -65 0 -65 -65 0 -65 0 0 -60 0 -60 65 0 65 0 0 -65 0 -65 65
0 65 0 0 -65 0 -65 -65 0 -65 0 0 -60 0 -60 65 0 65 0 0 -65 0 -65 -65 0 -65
0 0 -65 0 -65 65 0 65 0 0 65 0 65 60 0 60 0 0 65 0 65 -60 0 -60 0 0 60 0 60
60 0 60 0 0 65 0 65 -60 0 -60 0 0 65 0 65 60 0 60 0 0 60 0 60 -60 0 -60 0 0
65 0 65 60 0 60 0 0 65 0 65 -60 0 -60 0 0 60 0 60 60 0 60 0 0 65 0 65 -60 0
-60 0 0 65 0 65 60 0 60 0 0 60 0 60 -60 0 -60 0 0 65 0 65 -65 0 -65 0 0 65
0 65 65 0 65 0 0 60 0 60 -65 0 -65 0 0 65 0 65 -65 0 -65 0 0 65 0 65 65 0
65 0 0 60 0 60 -65 0 -65 0 0 65 0 65 -60 0 -60 0 0 65 0 65 -65 0 -65 0 0 60
0 60 65 0 65 0 0 65 0 65 -65 0 -65 0 0 65 0 65 65 0 65 0 0 60 0 60 -65 0
-65 0 0 65 0 65 65 0 65 0 0 60 0 60 -65 0 -65 0 0 65 0 65 65 0 65 0 0 65 0
65 -65 0 -65 0 0 60 0 60 65 0 65 0 0 65 0 65 -65 0 -65 0 0 -65 0 -65 -65 0
-65 0 0 65 0 65 -60 0 -60 0 0 -65z m250 -250 l0 -65 -65 0 -65 0 0 65 0 65
65 0 65 0 0 -65z m0 -255 l0 -60 -65 0 -65 0 0 60 0 60 65 0 65 0 0 -60z m130
-885 l0 -65 60 0 60 0 0 -60 0 -60 -60 0 -60 0 0 60 0 60 -65 0 -65 0 0 65 0
65 65 0 65 0 0 -65z m120 -380 l0 -65 65 0 65 0 0 -60 0 -60 -65 0 -65 0 0
-65 0 -65 65 0 65 0 0 -65 0 -65 65 0 65 0 0 -60 0 -60 -65 0 -65 0 0 -65 0
-65 65 0 65 0 0 -65 0 -65 -65 0 -65 0 0 65 0 65 -65 0 -65 0 0 65 0 65 65 0
65 0 0 60 0 60 -65 0 -65 0 0 65 0 65 -60 0 -60 0 0 65 0 65 60 0 60 0 0 60 0
60 -60 0 -60 0 0 65 0 65 60 0 60 0 0 -65z m260 -1010 l0 -65 -65 0 -65 0 0
65 0 65 65 0 65 0 0 -65z m0 -255 l0 -60 -65 0 -65 0 0 60 0 60 65 0 65 0 0
-60z"/>
<path d="M8010 6855 l0 -65 65 0 65 0 0 65 0 65 -65 0 -65 0 0 -65z"/>
<path d="M8010 6600 l0 -60 65 0 65 0 0 -65 0 -65 60 0 60 0 0 -65 0 -65 65 0
65 0 0 -60 0 -60 -65 0 -65 0 0 -65 0 -65 65 0 65 0 0 -60 0 -60 -65 0 -65 0
0 -65 0 -65 65 0 65 0 0 -65 0 -65 -65 0 -65 0 0 -60 0 -60 65 0 65 0 0 -65 0
-65 -65 0 -65 0 0 -65 0 -65 -60 0 -60 0 0 -60 0 -60 60 0 60 0 0 -65 0 -65
65 0 65 0 0 -65 0 -65 65 0 65 0 0 -60 0 -60 -65 0 -65 0 0 -65 0 -65 65 0 65
0 0 -65 0 -65 -65 0 -65 0 0 -60 0 -60 -65 0 -65 0 0 -65 0 -65 65 0 65 0 0
-65 0 -65 65 0 65 0 0 65 0 65 60 0 60 0 0 65 0 65 65 0 65 0 0 60 0 60 -65 0
-65 0 0 65 0 65 -60 0 -60 0 0 65 0 65 60 0 60 0 0 60 0 60 -60 0 -60 0 0 65
0 65 60 0 60 0 0 65 0 65 -60 0 -60 0 0 60 0 60 60 0 60 0 0 65 0 65 -60 0
-60 0 0 65 0 65 60 0 60 0 0 60 0 60 -60 0 -60 0 0 65 0 65 60 0 60 0 0 65 0
65 65 0 65 0 0 60 0 60 65 0 65 0 0 65 0 65 -65 0 -65 0 0 60 0 60 -65 0 -65
0 0 -60 0 -60 -60 0 -60 0 0 60 0 60 -65 0 -65 0 0 65 0 65 -65 0 -65 0 0 65
0 65 -60 0 -60 0 0 60 0 60 -65 0 -65 0 0 -60z m510 -505 l0 -65 60 0 60 0 0
65 0 65 65 0 65 0 0 -65 0 -65 -65 0 -65 0 0 -60 0 -60 -60 0 -60 0 0 -65 0
-65 -65 0 -65 0 0 65 0 65 65 0 65 0 0 60 0 60 -65 0 -65 0 0 65 0 65 65 0 65
0 0 -65z m0 -505 l0 -60 -65 0 -65 0 0 60 0 60 65 0 65 0 0 -60z m0 -255 l0
-65 -65 0 -65 0 0 -60 0 -60 65 0 65 0 0 -65 0 -65 -65 0 -65 0 0 65 0 65 -65
0 -65 0 0 60 0 60 65 0 65 0 0 65 0 65 65 0 65 0 0 -65z m120 -885 l0 -60 -60
0 -60 0 0 -65 0 -65 -65 0 -65 0 0 65 0 65 65 0 65 0 0 60 0 60 60 0 60 0 0
-60z"/>
<path d="M10160 3945 l0 -65 65 0 65 0 0 65 0 65 -65 0 -65 0 0 -65z"/>
<path d="M10410 3945 l0 -65 65 0 65 0 0 65 0 65 -65 0 -65 0 0 -65z"/>
<path d="M10670 3945 l0 -65 60 0 60 0 0 65 0 65 -60 0 -60 0 0 -65z"/>
<path d="M9280 3815 l0 -65 60 0 60 0 0 65 0 65 -60 0 -60 0 0 -65z"/>
<path d="M9530 3815 l0 -65 65 0 65 0 0 65 0 65 -65 0 -65 0 0 -65z"/>
<path d="M9780 3815 l0 -65 65 0 65 0 0 65 0 65 -65 0 -65 0 0 -65z"/>
<path d="M11050 3815 l0 -65 60 0 60 0 0 65 0 65 -60 0 -60 0 0 -65z"/>
<path d="M11430 3690 l0 -60 60 0 60 0 0 60 0 60 -60 0 -60 0 0 -60z"/>
<path d="M11680 3690 l0 -60 65 0 65 0 0 60 0 60 -65 0 -65 0 0 -60z"/>
</g>
</svg>
