<?xml version="1.0" standalone="no"?>
<!DOCTYPE svg PUBLIC "-//W3C//DTD SVG 20010904//EN"
 "http://www.w3.org/TR/2001/REC-SVG-20010904/DTD/svg10.dtd">
<svg version="1.0" xmlns="http://www.w3.org/2000/svg"
 width="1585.000000pt" height="1498.000000pt" viewBox="0 0 1585.000000 1498.000000"
 preserveAspectRatio="xMidYMid meet">

<g transform="translate(0.000000,1498.000000) scale(0.100000,-0.100000)"
fill="#000000" stroke="none">
<path d="M5080 13075 l0 -65 -65 0 -65 0 0 -65 0 -65 -65 0 -65 0 0 -60 0 -60
-60 0 -60 0 0 -65 0 -65 -65 0 -65 0 0 -65 0 -65 -65 0 -65 0 0 -125 0 -125
-60 0 -60 0 0 -65 0 -65 -65 0 -65 0 0 -60 0 -60 -65 0 -65 0 0 -130 0 -130
-60 0 -60 0 0 -125 0 -125 -65 0 -65 0 0 -125 0 -125 -65 0 -65 0 0 -130 0
-130 -60 0 -60 0 0 -125 0 -125 -65 0 -65 0 0 -125 0 -125 -65 0 -65 0 0 -130
0 -130 -60 0 -60 0 0 -125 0 -125 -65 0 -65 0 0 -250 0 -250 -65 0 -65 0 0
-65 0 -65 -60 0 -60 0 0 -65 0 -65 -65 0 -65 0 0 -60 0 -60 -65 0 -65 0 0 -65
0 -65 -60 0 -60 0 0 -65 0 -65 -65 0 -65 0 0 -60 0 -60 -65 0 -65 0 0 -65 0
-65 -60 0 -60 0 0 -65 0 -65 -65 0 -65 0 0 -60 0 -60 -65 0 -65 0 0 -65 0 -65
-60 0 -60 0 0 -65 0 -65 -65 0 -65 0 0 -60 0 -60 -60 0 -60 0 0 -255 0 -255
60 0 60 0 0 -65 0 -65 65 0 65 0 0 -60 0 -60 60 0 60 0 0 -65 0 -65 65 0 65 0
0 -65 0 -65 65 0 65 0 0 -60 0 -60 60 0 60 0 0 -65 0 -65 65 0 65 0 0 -65 0
-65 65 0 65 0 0 -60 0 -60 60 0 60 0 0 -65 0 -65 65 0 65 0 0 -65 0 -65 65 0
65 0 0 -60 0 -60 60 0 60 0 0 -65 0 -65 65 0 65 0 0 -60 0 -60 65 0 65 0 0
-65 0 -65 60 0 60 0 0 -65 0 -65 65 0 65 0 0 -60 0 -60 65 0 65 0 0 -65 0 -65
60 0 60 0 0 -65 0 -65 65 0 65 0 0 -60 0 -60 65 0 65 0 0 -65 0 -65 60 0 60 0
0 -65 0 -65 65 0 65 0 0 -60 0 -60 65 0 65 0 0 -65 0 -65 60 0 60 0 0 -65 0
-65 65 0 65 0 0 -60 0 -60 65 0 65 0 0 -65 0 -65 60 0 60 0 0 -65 0 -65 65 0
65 0 0 -60 0 -60 65 0 65 0 0 -65 0 -65 60 0 60 0 0 -65 0 -65 65 0 65 0 0
-60 0 -60 65 0 65 0 0 -65 0 -65 60 0 60 0 0 -65 0 -65 65 0 65 0 0 -60 0 -60
60 0 60 0 0 -65 0 -65 65 0 65 0 0 -65 0 -65 65 0 65 0 0 -60 0 -60 60 0 60 0
0 -65 0 -65 65 0 65 0 0 -65 0 -65 65 0 65 0 0 -60 0 -60 60 0 60 0 0 -65 0
-65 65 0 65 0 0 -65 0 -65 125 0 125 0 0 -60 0 -60 130 0 130 0 0 -65 0 -65
125 0 125 0 0 -65 0 -65 190 0 190 0 0 -60 0 -60 1265 0 1265 0 0 60 0 60 125
0 125 0 0 65 0 65 130 0 130 0 0 65 0 65 60 0 60 0 0 60 0 60 130 0 130 0 0
65 0 65 125 0 125 0 0 65 0 65 65 0 65 0 0 190 0 190 60 0 60 0 0 190 0 190
65 0 65 0 0 570 0 570 125 0 125 0 0 60 0 60 65 0 65 0 0 65 0 65 65 0 65 0 0
65 0 65 60 0 60 0 0 60 0 60 65 0 65 0 0 65 0 65 65 0 65 0 0 65 0 65 60 0 60
0 0 60 0 60 65 0 65 0 0 65 0 65 65 0 65 0 0 65 0 65 60 0 60 0 0 125 0 125
65 0 65 0 0 125 0 125 65 0 65 0 0 125 0 125 60 0 60 0 0 320 0 320 65 0 65 0
0 440 0 440 -65 0 -65 0 0 130 0 130 -60 0 -60 0 0 60 0 60 -65 0 -65 0 0 130
0 130 -65 0 -65 0 0 60 0 60 -60 0 -60 0 0 65 0 65 -65 0 -65 0 0 65 0 65 -65
0 -65 0 0 60 0 60 -60 0 -60 0 0 65 0 65 -65 0 -65 0 0 65 0 65 -65 0 -65 0 0
60 0 60 -60 0 -60 0 0 65 0 65 -65 0 -65 0 0 65 0 65 -65 0 -65 0 0 60 0 60
-60 0 -60 0 0 65 0 65 -65 0 -65 0 0 65 0 65 -65 0 -65 0 0 60 0 60 -60 0 -60
0 0 65 0 65 -65 0 -65 0 0 60 0 60 -65 0 -65 0 0 65 0 65 -125 0 -125 0 0 65
0 65 125 0 125 0 0 60 0 60 65 0 65 0 0 65 0 65 255 0 255 0 0 65 0 65 125 0
125 0 0 60 0 60 65 0 65 0 0 65 0 65 60 0 60 0 0 125 0 125 65 0 65 0 0 380 0
380 -65 0 -65 0 0 65 0 65 -60 0 -60 0 0 65 0 65 -65 0 -65 0 0 60 0 60 -825
0 -825 0 0 -60 0 -60 -1455 0 -1455 0 0 60 0 60 -250 0 -250 0 0 65 0 65 -255
0 -255 0 0 65 0 65 -255 0 -255 0 0 60 0 60 -125 0 -125 0 0 65 0 65 -125 0
-125 0 0 65 0 65 -315 0 -315 0 0 -65z m500 -130 l0 -65 125 0 125 0 0 -60 0
-60 130 0 130 0 0 -65 0 -65 250 0 250 0 0 -65 0 -65 255 0 255 0 0 -60 0 -60
255 0 255 0 0 -65 0 -65 1580 0 1580 0 0 65 0 65 695 0 695 0 0 -65 0 -65 65
0 65 0 0 -65 0 -65 65 0 65 0 0 -125 0 -125 -65 0 -65 0 0 125 0 125 -125 0
-125 0 0 -60 0 -60 60 0 60 0 0 -190 0 -190 190 0 190 0 0 -65 0 -65 -190 0
-190 0 0 65 0 65 -60 0 -60 0 0 -65 0 -65 -65 0 -65 0 0 -65 0 -65 -65 0 -65
0 0 190 0 190 -190 0 -190 0 0 65 0 65 190 0 190 0 0 -65 0 -65 65 0 65 0 0
-60 0 -60 65 0 65 0 0 190 0 190 -190 0 -190 0 0 60 0 60 -130 0 -130 0 0 -60
0 -60 -60 0 -60 0 0 -65 0 -65 -65 0 -65 0 0 125 0 125 -125 0 -125 0 0 -60 0
-60 60 0 60 0 0 -190 0 -190 -60 0 -60 0 0 -65 0 -65 -65 0 -65 0 0 -65 0 -65
-65 0 -65 0 0 190 0 190 -190 0 -190 0 0 65 0 65 190 0 190 0 0 -65 0 -65 65
0 65 0 0 -60 0 -60 65 0 65 0 0 190 0 190 -190 0 -190 0 0 60 0 60 -65 0 -65
0 0 -60 0 -60 -125 0 -125 0 0 -130 0 -130 -65 0 -65 0 0 -60 0 -60 190 0 190
0 0 -65 0 -65 65 0 65 0 0 -190 0 -190 -65 0 -65 0 0 -65 0 -65 -65 0 -65 0 0
-60 0 -60 -60 0 -60 0 0 190 0 190 -190 0 -190 0 0 60 0 60 190 0 190 0 0 -60
0 -60 60 0 60 0 0 -65 0 -65 65 0 65 0 0 190 0 190 -190 0 -190 0 0 65 0 65
-65 0 -65 0 0 -65 0 -65 -60 0 -60 0 0 190 0 190 -190 0 -190 0 0 65 0 65
-190 0 -190 0 0 -130 0 -130 -65 0 -65 0 0 -60 0 -60 -60 0 -60 0 0 -65 0 -65
-65 0 -65 0 0 190 0 190 -255 0 -255 0 0 125 0 125 -60 0 -60 0 0 -125 0 -125
-65 0 -65 0 0 -65 0 -65 -65 0 -65 0 0 -60 0 -60 -60 0 -60 0 0 190 0 190
-190 0 -190 0 0 60 0 60 -130 0 -130 0 0 65 0 65 -60 0 -60 0 0 -190 0 -190
-65 0 -65 0 0 -65 0 -65 -65 0 -65 0 0 -60 0 -60 -60 0 -60 0 0 190 0 190
-190 0 -190 0 0 60 0 60 190 0 190 0 0 -60 0 -60 60 0 60 0 0 -65 0 -65 65 0
65 0 0 190 0 190 -190 0 -190 0 0 65 0 65 -65 0 -65 0 0 -65 0 -65 -60 0 -60
0 0 125 0 125 -130 0 -130 0 0 -60 0 -60 65 0 65 0 0 -190 0 -190 -65 0 -65 0
0 -65 0 -65 190 0 190 0 0 -65 0 -65 65 0 65 0 0 -190 0 -190 -65 0 -65 0 0
-60 0 -60 -60 0 -60 0 0 -65 0 -65 -65 0 -65 0 0 190 0 190 -190 0 -190 0 0
65 0 65 190 0 190 0 0 -65 0 -65 65 0 65 0 0 -65 0 -65 60 0 60 0 0 190 0 190
-190 0 -190 0 0 65 0 65 -60 0 -60 0 0 -65 0 -65 -65 0 -65 0 0 190 0 190
-190 0 -190 0 0 65 0 65 190 0 190 0 0 -65 0 -65 65 0 65 0 0 -60 0 -60 60 0
60 0 0 190 0 190 -185 0 -185 0 0 60 0 60 60 0 60 0 0 65 0 65 -125 0 -125 0
0 -65 0 -65 -65 0 -65 0 0 -60 0 -60 -60 0 -60 0 0 -65 0 -65 -65 0 -65 0 0
-65 0 -65 -65 0 -65 0 0 -60 0 -60 -60 0 -60 0 0 -130 0 -130 190 0 190 0 0
-60 0 -60 60 0 60 0 0 -65 0 -65 -60 0 -60 0 0 65 0 65 -190 0 -190 0 0 60 0
60 -65 0 -65 0 0 -60 0 -60 -65 0 -65 0 0 -65 0 -65 190 0 190 0 0 -65 0 -65
-190 0 -190 0 0 65 0 65 -60 0 -60 0 0 -125 0 -125 125 0 125 0 0 -65 0 -65
-255 0 -255 0 0 -65 0 -65 65 0 65 0 0 -60 0 -60 -125 0 -125 0 0 -65 0 -65
60 0 60 0 0 -65 0 -65 -125 0 -125 0 0 -125 0 -125 -65 0 -65 0 0 -125 0 -125
-125 0 -125 0 0 60 0 60 65 0 65 0 0 130 0 130 60 0 60 0 0 125 0 125 65 0 65
0 0 125 0 125 65 0 65 0 0 130 0 130 60 0 60 0 0 125 0 125 65 0 65 0 0 65 0
65 65 0 65 0 0 125 0 125 60 0 60 0 0 65 0 65 65 0 65 0 0 60 0 60 65 0 65 0
0 130 0 130 60 0 60 0 0 60 0 60 65 0 65 0 0 65 0 65 65 0 65 0 0 65 0 65 60
0 60 0 0 60 0 60 65 0 65 0 0 65 0 65 125 0 125 0 0 -65z m-250 -1010 l0 -65
65 0 65 0 0 -190 0 -190 -65 0 -65 0 0 190 0 190 -190 0 -190 0 0 65 0 65 190
0 190 0 0 -65z m2020 -130 l0 -65 65 0 65 0 0 -190 0 -190 -65 0 -65 0 0 -60
0 -60 -60 0 -60 0 0 -65 0 -65 -65 0 -65 0 0 190 0 190 -190 0 -190 0 0 65 0
65 190 0 190 0 0 -65 0 -65 65 0 65 0 0 -65 0 -65 60 0 60 0 0 190 0 190 -190
0 -190 0 0 65 0 65 190 0 190 0 0 -65z m1020 -125 l0 -60 60 0 60 0 0 -190 0
-190 -60 0 -60 0 0 -65 0 -65 -65 0 -65 0 0 -65 0 -65 -65 0 -65 0 0 190 0
190 -250 0 -250 0 0 65 0 65 250 0 250 0 0 -65 0 -65 65 0 65 0 0 -60 0 -60
65 0 65 0 0 190 0 190 -190 0 -190 0 0 60 0 60 190 0 190 0 0 -60z m1140 0 l0
-60 60 0 60 0 0 -190 0 -190 -60 0 -60 0 0 -65 0 -65 185 0 185 0 0 -65 0 -65
65 0 65 0 0 -190 0 -190 -65 0 -65 0 0 -60 0 -60 -60 0 -60 0 0 -65 0 -65 -65
0 -65 0 0 190 0 190 -190 0 -190 0 0 65 0 65 190 0 190 0 0 -65 0 -65 65 0 65
0 0 -65 0 -65 60 0 60 0 0 190 0 190 -185 0 -185 0 0 65 0 65 -65 0 -65 0 0
-65 0 -65 -65 0 -65 0 0 190 0 190 -190 0 -190 0 0 65 0 65 190 0 190 0 0 -65
0 -65 65 0 65 0 0 -60 0 -60 65 0 65 0 0 190 0 190 -190 0 -190 0 0 60 0 60
190 0 190 0 0 -60z m2020 -125 l0 -65 65 0 65 0 0 -125 0 -125 -65 0 -65 0 0
125 0 125 -190 0 -190 0 0 65 0 65 190 0 190 0 0 -65z m-5820 -255 l0 -60 60
0 60 0 0 -65 0 -65 -60 0 -60 0 0 65 0 65 -125 0 -125 0 0 60 0 60 125 0 125
0 0 -60z m1140 0 l0 -60 60 0 60 0 0 -190 0 -190 -60 0 -60 0 0 -65 0 -65
-130 0 -130 0 0 125 0 125 -190 0 -190 0 0 65 0 65 190 0 190 0 0 -65 0 -65
65 0 65 0 0 -60 0 -60 65 0 65 0 0 190 0 190 -190 0 -190 0 0 60 0 60 190 0
190 0 0 -60z m4430 0 l0 -60 60 0 60 0 0 -65 0 -65 -60 0 -60 0 0 65 0 65
-190 0 -190 0 0 60 0 60 190 0 190 0 0 -60z m1140 0 l0 -60 -65 0 -65 0 0 -65
0 -65 -65 0 -65 0 0 -65 0 -65 -125 0 -125 0 0 -60 0 -60 -255 0 -255 0 0 -65
0 -65 -60 0 -60 0 0 -65 0 -65 -130 0 -130 0 0 -190 0 -190 130 0 130 0 0 -60
0 -60 60 0 60 0 0 -65 0 -65 65 0 65 0 0 -60 0 -60 65 0 65 0 0 -65 0 -65 60
0 60 0 0 -65 0 -65 65 0 65 0 0 -60 0 -60 65 0 65 0 0 -65 0 -65 60 0 60 0 0
-65 0 -65 65 0 65 0 0 -60 0 -60 65 0 65 0 0 -65 0 -65 60 0 60 0 0 -65 0 -65
65 0 65 0 0 -60 0 -60 65 0 65 0 0 -65 0 -65 60 0 60 0 0 -65 0 -65 65 0 65 0
0 -60 0 -60 65 0 65 0 0 -65 0 -65 60 0 60 0 0 -125 0 -125 65 0 65 0 0 -65 0
-65 65 0 65 0 0 -125 0 -125 60 0 60 0 0 -255 0 -255 -60 0 -60 0 0 125 0 125
-65 0 -65 0 0 130 0 130 -65 0 -65 0 0 125 0 125 -60 0 -60 0 0 65 0 65 -65 0
-65 0 0 125 0 125 -65 0 -65 0 0 65 0 65 -60 0 -60 0 0 60 0 60 -65 0 -65 0 0
65 0 65 -65 0 -65 0 0 65 0 65 -60 0 -60 0 0 60 0 60 -65 0 -65 0 0 65 0 65
-65 0 -65 0 0 65 0 65 -60 0 -60 0 0 60 0 60 -65 0 -65 0 0 65 0 65 -65 0 -65
0 0 65 0 65 -60 0 -60 0 0 60 0 60 -65 0 -65 0 0 65 0 65 -65 0 -65 0 0 65 0
65 -60 0 -60 0 0 60 0 60 -65 0 -65 0 0 65 0 65 -125 0 -125 0 0 60 0 60 -65
0 -65 0 0 65 0 65 -65 0 -65 0 0 125 0 125 65 0 65 0 0 65 0 65 65 0 65 0 0
65 0 65 190 0 190 0 0 60 0 60 190 0 190 0 0 65 0 65 190 0 190 0 0 65 0 65
60 0 60 0 0 60 0 60 130 0 130 0 0 -60z m-4560 -125 l0 -65 65 0 65 0 0 -190
0 -190 -65 0 -65 0 0 -65 0 -65 -65 0 -65 0 0 -60 0 -60 -60 0 -60 0 0 190 0
190 -255 0 -255 0 0 60 0 60 255 0 255 0 0 -60 0 -60 60 0 60 0 0 -65 0 -65
65 0 65 0 0 190 0 190 -190 0 -190 0 0 65 0 65 190 0 190 0 0 -65z m1140 0 l0
-65 65 0 65 0 0 -190 0 -190 -65 0 -65 0 0 -65 0 -65 190 0 190 0 0 -60 0 -60
65 0 65 0 0 -190 0 -190 -65 0 -65 0 0 -65 0 -65 -65 0 -65 0 0 -60 0 -60 -60
0 -60 0 0 185 0 185 -190 0 -190 0 0 65 0 65 190 0 190 0 0 -65 0 -65 60 0 60
0 0 -60 0 -60 65 0 65 0 0 190 0 190 -190 0 -190 0 0 60 0 60 -65 0 -65 0 0
-60 0 -60 -60 0 -60 0 0 190 0 190 -190 0 -190 0 0 60 0 60 190 0 190 0 0 -60
0 -60 60 0 60 0 0 -65 0 -65 65 0 65 0 0 190 0 190 -190 0 -190 0 0 65 0 65
190 0 190 0 0 -65z m-3670 -130 l0 -65 125 0 125 0 0 -60 0 -60 65 0 65 0 0
-65 0 -65 60 0 60 0 0 -65 0 -65 130 0 130 0 0 -60 0 -60 125 0 125 0 0 -65 0
-65 125 0 125 0 0 -65 0 -65 190 0 190 0 0 -60 0 -60 255 0 255 0 0 -65 0 -65
255 0 255 0 0 -60 0 -60 190 0 190 0 0 -65 0 -65 190 0 190 0 0 -65 0 -65 125
0 125 0 0 -60 0 -60 315 0 315 0 0 -65 0 -65 570 0 570 0 0 -65 0 -65 190 0
190 0 0 -60 0 -60 190 0 190 0 0 -65 0 -65 65 0 65 0 0 -190 0 -190 60 0 60 0
0 -255 0 -255 -125 0 -125 0 0 130 0 130 -190 0 -190 0 0 125 0 125 -65 0 -65
0 0 -125 0 -125 -60 0 -60 0 0 -65 0 -65 190 0 190 0 0 -65 0 -65 -190 0 -190
0 0 65 0 65 -65 0 -65 0 0 -65 0 -65 -65 0 -65 0 0 190 0 190 -190 0 -190 0 0
65 0 65 190 0 190 0 0 -65 0 -65 65 0 65 0 0 -60 0 -60 65 0 65 0 0 190 0 190
-190 0 -190 0 0 60 0 60 -130 0 -130 0 0 -60 0 -60 -60 0 -60 0 0 -65 0 -65
-65 0 -65 0 0 190 0 190 -190 0 -190 0 0 65 0 65 -60 0 -60 0 0 -65 0 -65 -65
0 -65 0 0 -65 0 -65 -65 0 -65 0 0 190 0 190 -190 0 -190 0 0 65 0 65 -190 0
-190 0 0 -125 0 -125 -60 0 -60 0 0 -65 0 -65 -65 0 -65 0 0 -65 0 -65 -65 0
-65 0 0 190 0 190 -190 0 -190 0 0 65 0 65 190 0 190 0 0 -65 0 -65 65 0 65 0
0 -60 0 -60 65 0 65 0 0 190 0 190 -190 0 -190 0 0 60 0 60 -65 0 -65 0 0 -60
0 -60 -65 0 -65 0 0 125 0 125 -125 0 -125 0 0 -65 0 -65 65 0 65 0 0 -190 0
-190 -65 0 -65 0 0 -60 0 -60 190 0 190 0 0 -65 0 -65 65 0 65 0 0 -190 0
-190 -65 0 -65 0 0 -65 0 -65 -65 0 -65 0 0 -60 0 -60 -60 0 -60 0 0 190 0
190 -190 0 -190 0 0 60 0 60 190 0 190 0 0 -60 0 -60 60 0 60 0 0 -65 0 -65
65 0 65 0 0 190 0 190 -190 0 -190 0 0 65 0 65 -65 0 -65 0 0 -65 0 -65 -60 0
-60 0 0 190 0 190 -190 0 -190 0 0 65 0 65 190 0 190 0 0 -65 0 -65 60 0 60 0
0 -65 0 -65 65 0 65 0 0 190 0 190 -190 0 -190 0 0 65 0 65 190 0 190 0 0 65
0 65 -190 0 -190 0 0 60 0 60 -65 0 -65 0 0 -125 0 -125 -60 0 -60 0 0 -65 0
-65 -65 0 -65 0 0 -60 0 -60 -65 0 -65 0 0 190 0 190 -250 0 -250 0 0 60 0 60
250 0 250 0 0 -60 0 -60 65 0 65 0 0 -65 0 -65 65 0 65 0 0 190 0 190 -190 0
-190 0 0 60 0 60 -130 0 -130 0 0 -60 0 -60 -60 0 -60 0 0 125 0 125 -65 0
-65 0 0 65 0 65 -125 0 -125 0 0 60 0 60 -125 0 -125 0 0 65 0 65 -65 0 -65 0
0 -190 0 -190 -65 0 -65 0 0 -65 0 -65 -125 0 -125 0 0 130 0 130 -255 0 -255
0 0 -65 0 -65 130 0 130 0 0 -65 0 -65 -190 0 -190 0 0 -60 0 -60 125 0 125 0
0 -65 0 -65 65 0 65 0 0 -60 0 -60 60 0 60 0 0 125 0 125 65 0 65 0 0 -125 0
-125 -65 0 -65 0 0 -65 0 -65 -60 0 -60 0 0 -65 0 -65 -65 0 -65 0 0 190 0
190 -255 0 -255 0 0 -60 0 -60 130 0 130 0 0 -65 0 -65 60 0 60 0 0 -190 0
-190 -60 0 -60 0 0 -65 0 -65 -65 0 -65 0 0 -60 0 -60 -65 0 -65 0 0 190 0
190 -250 0 -250 0 0 -65 0 -65 125 0 125 0 0 -65 0 -65 65 0 65 0 0 -190 0
-190 -65 0 -65 0 0 -60 0 -60 -65 0 -65 0 0 -65 0 -65 -60 0 -60 0 0 190 0
190 -190 0 -190 0 0 65 0 65 -65 0 -65 0 0 -130 0 -130 125 0 125 0 0 -60 0
-60 65 0 65 0 0 -190 0 -190 -65 0 -65 0 0 -65 0 -65 -60 0 -60 0 0 -65 0 -65
-65 0 -65 0 0 190 0 190 -255 0 -255 0 0 -60 0 -60 130 0 130 0 0 -65 0 -65
60 0 60 0 0 -190 0 -190 -60 0 -60 0 0 -65 0 -65 -65 0 -65 0 0 -60 0 -60 -65
0 -65 0 0 190 0 190 -250 0 -250 0 0 -65 0 -65 125 0 125 0 0 -65 0 -65 65 0
65 0 0 -190 0 -190 -65 0 -65 0 0 -60 0 -60 -125 0 -125 0 0 125 0 125 -130 0
-130 0 0 65 0 65 -60 0 -60 0 0 125 0 125 60 0 60 0 0 65 0 65 65 0 65 0 0 60
0 60 65 0 65 0 0 65 0 65 60 0 60 0 0 65 0 65 65 0 65 0 0 60 0 60 65 0 65 0
0 65 0 65 60 0 60 0 0 65 0 65 65 0 65 0 0 60 0 60 65 0 65 0 0 65 0 65 60 0
60 0 0 65 0 65 65 0 65 0 0 60 0 60 65 0 65 0 0 65 0 65 60 0 60 0 0 65 0 65
65 0 65 0 0 60 0 60 65 0 65 0 0 65 0 65 60 0 60 0 0 65 0 65 65 0 65 0 0 60
0 60 65 0 65 0 0 65 0 65 60 0 60 0 0 60 0 60 65 0 65 0 0 65 0 65 65 0 65 0
0 65 0 65 60 0 60 0 0 60 0 60 65 0 65 0 0 65 0 65 65 0 65 0 0 65 0 65 60 0
60 0 0 60 0 60 65 0 65 0 0 65 0 65 190 0 190 0 0 -65z m5690 0 l0 -65 -190 0
-190 0 0 65 0 65 190 0 190 0 0 -65z m-380 -250 l0 -65 -125 0 -125 0 0 65 0
65 125 0 125 0 0 -65z m-3290 -130 l0 -65 65 0 65 0 0 -60 0 -60 -65 0 -65 0
0 60 0 60 -190 0 -190 0 0 65 0 65 190 0 190 0 0 -65z m1140 0 l0 -65 65 0 65
0 0 -190 0 -190 -65 0 -65 0 0 -60 0 -60 190 0 190 0 0 -65 0 -65 65 0 65 0 0
-60 0 -60 -65 0 -65 0 0 60 0 60 -190 0 -190 0 0 65 0 65 -125 0 -125 0 0 125
0 125 -190 0 -190 0 0 65 0 65 190 0 190 0 0 -65 0 -65 65 0 65 0 0 -65 0 -65
60 0 60 0 0 190 0 190 -190 0 -190 0 0 65 0 65 190 0 190 0 0 -65z m2030 -125
l0 -60 -190 0 -190 0 0 60 0 60 190 0 190 0 0 -60z m-4690 -255 l0 -65 65 0
65 0 0 -185 0 -185 -65 0 -65 0 0 -65 0 -65 -125 0 -125 0 0 125 0 125 -190 0
-190 0 0 65 0 65 190 0 190 0 0 -65 0 -65 65 0 65 0 0 -60 0 -60 60 0 60 0 0
185 0 185 -185 0 -185 0 0 65 0 65 185 0 185 0 0 -65z m4430 0 l0 -65 65 0 65
0 0 -60 0 -60 65 0 65 0 0 60 0 60 60 0 60 0 0 -60 0 -60 65 0 65 0 0 -65 0
-65 -65 0 -65 0 0 65 0 65 -60 0 -60 0 0 -65 0 -65 -65 0 -65 0 0 -60 0 -60
-65 0 -65 0 0 185 0 185 -190 0 -190 0 0 65 0 65 190 0 190 0 0 -65z m-250
-250 l0 -65 65 0 65 0 0 -190 0 -190 -65 0 -65 0 0 190 0 190 -190 0 -190 0 0
65 0 65 190 0 190 0 0 -65z m-4680 -250 l0 -65 -125 0 -125 0 0 65 0 65 125 0
125 0 0 -65z m4430 0 l0 -65 -190 0 -190 0 0 65 0 65 190 0 190 0 0 -65z
m1010 0 l0 -65 65 0 65 0 0 -125 0 -125 -65 0 -65 0 0 125 0 125 -125 0 -125
0 0 65 0 65 125 0 125 0 0 -65z m380 -65 l0 -130 -65 0 -65 0 0 130 0 130 65
0 65 0 0 -130z m-4810 -65 l0 -65 65 0 65 0 0 -190 0 -190 -65 0 -65 0 0 -60
0 -60 -125 0 -125 0 0 125 0 125 -190 0 -190 0 0 65 0 65 190 0 190 0 0 -65 0
-65 60 0 60 0 0 -65 0 -65 65 0 65 0 0 190 0 190 -190 0 -190 0 0 65 0 65 190
0 190 0 0 -65z m-1140 -125 l0 -60 65 0 65 0 0 -65 0 -65 65 0 65 0 0 125 0
125 60 0 60 0 0 -125 0 -125 -60 0 -60 0 0 -65 0 -65 -65 0 -65 0 0 -60 0 -60
-65 0 -65 0 0 190 0 190 -190 0 -190 0 0 60 0 60 190 0 190 0 0 -60z m6200 0
l0 -60 -60 0 -60 0 0 60 0 60 60 0 60 0 0 -60z m-6450 -255 l0 -65 65 0 65 0
0 -190 0 -190 -65 0 -65 0 0 -60 0 -60 -65 0 -65 0 0 -65 0 -65 -60 0 -60 0 0
190 0 190 -190 0 -190 0 0 65 0 65 190 0 190 0 0 -65 0 -65 60 0 60 0 0 -65 0
-65 65 0 65 0 0 190 0 190 -190 0 -190 0 0 65 0 65 190 0 190 0 0 -65z m6450
0 l0 -65 -60 0 -60 0 0 65 0 65 60 0 60 0 0 -65z m-5570 -125 l0 -60 -125 0
-125 0 0 60 0 60 125 0 125 0 0 -60z m1140 0 l0 -60 65 0 65 0 0 -190 0 -190
-65 0 -65 0 0 -65 0 -65 190 0 190 0 0 -65 0 -65 65 0 65 0 0 -190 0 -190 -65
0 -65 0 0 -60 0 -60 -125 0 -125 0 0 125 0 125 -125 0 -125 0 0 65 0 65 125 0
125 0 0 -65 0 -65 65 0 65 0 0 -65 0 -65 60 0 60 0 0 190 0 190 -190 0 -190 0
0 65 0 65 -125 0 -125 0 0 125 0 125 -190 0 -190 0 0 65 0 65 190 0 190 0 0
-65 0 -65 65 0 65 0 0 -60 0 -60 60 0 60 0 0 190 0 190 -190 0 -190 0 0 60 0
60 190 0 190 0 0 -60z m4810 0 l0 -60 -60 0 -60 0 0 60 0 60 60 0 60 0 0 -60z
m-2780 -125 l0 -65 65 0 65 0 0 -190 0 -190 190 0 190 0 0 -65 0 -65 60 0 60
0 0 -60 0 -60 65 0 65 0 0 190 0 190 -125 0 -125 0 0 60 0 60 125 0 125 0 0
-60 0 -60 60 0 60 0 0 -190 0 -190 -60 0 -60 0 0 -65 0 -65 -65 0 -65 0 0 -65
0 -65 -60 0 -60 0 0 190 0 190 -190 0 -190 0 0 65 0 65 -65 0 -65 0 0 -65 0
-65 -65 0 -65 0 0 -60 0 -60 -60 0 -60 0 0 190 0 190 -190 0 -190 0 0 60 0 60
190 0 190 0 0 -60 0 -60 60 0 60 0 0 -65 0 -65 65 0 65 0 0 190 0 190 -190 0
-190 0 0 65 0 65 190 0 190 0 0 -65z m-3290 -130 l0 -65 60 0 60 0 0 -60 0
-60 65 0 65 0 0 125 0 125 65 0 65 0 0 -125 0 -125 -65 0 -65 0 0 -65 0 -65
-65 0 -65 0 0 -65 0 -65 -60 0 -60 0 0 190 0 190 -255 0 -255 0 0 65 0 65 255
0 255 0 0 -65z m6330 0 l0 -65 60 0 60 0 0 -60 0 -60 65 0 65 0 0 -65 0 -65
-65 0 -65 0 0 -65 0 -65 -60 0 -60 0 0 190 0 190 -130 0 -130 0 0 65 0 65 130
0 130 0 0 -65z m-7600 -125 l0 -60 65 0 65 0 0 -190 0 -190 -65 0 -65 0 0 -65
0 -65 -60 0 -60 0 0 -65 0 -65 -65 0 -65 0 0 190 0 190 -190 0 -190 0 0 65 0
65 190 0 190 0 0 -65 0 -65 65 0 65 0 0 -60 0 -60 60 0 60 0 0 190 0 190 -190
0 -190 0 0 60 0 60 190 0 190 0 0 -60z m1020 -125 l0 -65 60 0 60 0 0 -190 0
-190 -60 0 -60 0 0 -65 0 -65 -65 0 -65 0 0 -60 0 -60 -65 0 -65 0 0 190 0
190 -250 0 -250 0 0 60 0 60 250 0 250 0 0 -60 0 -60 65 0 65 0 0 -65 0 -65
65 0 65 0 0 190 0 190 -190 0 -190 0 0 65 0 65 190 0 190 0 0 -65z m1010 0 l0
-65 -130 0 -130 0 0 65 0 65 130 0 130 0 0 -65z m2020 -130 l0 -65 65 0 65 0
0 -190 0 -190 190 0 190 0 0 -60 0 -60 65 0 65 0 0 -190 0 -190 -65 0 -65 0 0
190 0 190 -190 0 -190 0 0 60 0 60 -65 0 -65 0 0 -60 0 -60 -60 0 -60 0 0 -65
0 -65 -65 0 -65 0 0 190 0 190 -190 0 -190 0 0 65 0 65 190 0 190 0 0 -65 0
-65 65 0 65 0 0 -65 0 -65 60 0 60 0 0 190 0 190 -190 0 -190 0 0 65 0 65 190
0 190 0 0 -65z m-2150 -125 l0 -60 65 0 65 0 0 -65 0 -65 60 0 60 0 0 125 0
125 65 0 65 0 0 -125 0 -125 -65 0 -65 0 0 -65 0 -65 130 0 130 0 0 -60 0 -60
-130 0 -130 0 0 60 0 60 -60 0 -60 0 0 -60 0 -60 -65 0 -65 0 0 190 0 190
-190 0 -190 0 0 60 0 60 190 0 190 0 0 -60z m6200 0 l0 -60 -125 0 -125 0 0
60 0 60 125 0 125 0 0 -60z m-8600 -125 l0 -65 60 0 60 0 0 -190 0 -190 -60 0
-60 0 0 -65 0 -65 -65 0 -65 0 0 -60 0 -60 -65 0 -65 0 0 190 0 190 -190 0
-190 0 0 60 0 60 190 0 190 0 0 -60 0 -60 65 0 65 0 0 -65 0 -65 65 0 65 0 0
190 0 190 -190 0 -190 0 0 65 0 65 190 0 190 0 0 -65z m5310 0 l0 -65 65 0 65
0 0 -190 0 -190 -65 0 -65 0 0 190 0 190 -125 0 -125 0 0 65 0 65 125 0 125 0
0 -65z m1140 0 l0 -65 65 0 65 0 0 -125 0 -125 -65 0 -65 0 0 125 0 125 -190
0 -190 0 0 65 0 65 190 0 190 0 0 -65z m-5440 -130 l0 -65 65 0 65 0 0 -190 0
-190 -65 0 -65 0 0 -60 0 -60 -65 0 -65 0 0 -65 0 -65 -60 0 -60 0 0 190 0
190 -255 0 -255 0 0 65 0 65 255 0 255 0 0 -65 0 -65 60 0 60 0 0 -65 0 -65
65 0 65 0 0 190 0 190 -190 0 -190 0 0 65 0 65 190 0 190 0 0 -65z m1140 0 l0
-65 60 0 60 0 0 -190 0 -190 -60 0 -60 0 0 -60 0 -60 190 0 190 0 0 -65 0 -65
60 0 60 0 0 -190 0 -190 -60 0 -60 0 0 -65 0 -65 -65 0 -65 0 0 -60 0 -60 -65
0 -65 0 0 190 0 190 -190 0 -190 0 0 60 0 60 190 0 190 0 0 -60 0 -60 65 0 65
0 0 -65 0 -65 65 0 65 0 0 190 0 190 -190 0 -190 0 0 65 0 65 -65 0 -65 0 0
-65 0 -65 -65 0 -65 0 0 190 0 190 -185 0 -185 0 0 65 0 65 185 0 185 0 0 -65
0 -65 65 0 65 0 0 -65 0 -65 65 0 65 0 0 190 0 190 -190 0 -190 0 0 65 0 65
190 0 190 0 0 -65z m6330 0 l0 -65 60 0 60 0 0 -190 0 -190 -60 0 -60 0 0 -60
0 -60 -65 0 -65 0 0 -65 0 -65 -65 0 -65 0 0 190 0 190 -125 0 -125 0 0 65 0
65 125 0 125 0 0 -65 0 -65 65 0 65 0 0 -65 0 -65 65 0 65 0 0 190 0 190 -190
0 -190 0 0 65 0 65 190 0 190 0 0 -65z m380 -60 l0 -125 -65 0 -65 0 0 125 0
125 65 0 65 0 0 -125z m-4810 -65 l0 -60 60 0 60 0 0 -190 0 -190 190 0 190 0
0 -65 0 -65 65 0 65 0 0 -65 0 -65 65 0 65 0 0 190 0 190 -130 0 -130 0 0 65
0 65 130 0 130 0 0 -65 0 -65 60 0 60 0 0 -190 0 -190 -60 0 -60 0 0 -60 0
-60 -130 0 -130 0 0 125 0 125 -190 0 -190 0 0 65 0 65 -60 0 -60 0 0 -65 0
-65 -130 0 -130 0 0 125 0 125 -190 0 -190 0 0 65 0 65 190 0 190 0 0 -65 0
-65 65 0 65 0 0 -60 0 -60 65 0 65 0 0 190 0 190 -190 0 -190 0 0 60 0 60 190
0 190 0 0 -60z m2150 0 l0 -60 -190 0 -190 0 0 60 0 60 190 0 190 0 0 -60z
m1390 -125 l0 -65 -65 0 -65 0 0 -65 0 -65 -60 0 -60 0 0 -60 0 -60 -190 0
-190 0 0 -65 0 -65 -255 0 -255 0 0 -65 0 -65 -65 0 -65 0 0 -190 0 -190 65 0
65 0 0 -125 0 -125 65 0 65 0 0 -125 0 -125 60 0 60 0 0 -130 0 -130 65 0 65
0 0 -60 0 -60 65 0 65 0 0 -65 0 -65 60 0 60 0 0 -60 0 -60 65 0 65 0 0 -130
0 -130 65 0 65 0 0 -60 0 -60 60 0 60 0 0 -130 0 -130 65 0 65 0 0 -190 0
-190 65 0 65 0 0 -190 0 -190 60 0 60 0 0 -190 0 -190 -60 0 -60 0 0 130 0
130 -65 0 -65 0 0 190 0 190 -65 0 -65 0 0 125 0 125 -60 0 -60 0 0 125 0 125
-65 0 -65 0 0 65 0 65 -65 0 -65 0 0 125 0 125 -60 0 -60 0 0 65 0 65 -65 0
-65 0 0 65 0 65 -65 0 -65 0 0 60 0 60 -60 0 -60 0 0 65 0 65 -65 0 -65 0 0
125 0 125 -65 0 -65 0 0 65 0 65 -60 0 -60 0 0 60 0 60 -65 0 -65 0 0 65 0 65
-65 0 -65 0 0 125 0 125 -60 0 -60 0 0 65 0 65 -65 0 -65 0 0 65 0 65 -60 0
-60 0 0 190 0 190 -130 0 -130 0 0 60 0 60 505 0 505 0 0 65 0 65 445 0 445 0
0 65 0 65 190 0 190 0 0 -65z m-8100 -130 l0 -65 65 0 65 0 0 -190 0 -190 -65
0 -65 0 0 -60 0 -60 -65 0 -65 0 0 -65 0 -65 -60 0 -60 0 0 190 0 190 -190 0
-190 0 0 65 0 65 190 0 190 0 0 -65 0 -65 60 0 60 0 0 -65 0 -65 65 0 65 0 0
190 0 190 -190 0 -190 0 0 65 0 65 190 0 190 0 0 -65z m3290 0 l0 -65 65 0 65
0 0 -60 0 -60 60 0 60 0 0 125 0 125 65 0 65 0 0 -125 0 -125 -65 0 -65 0 0
-65 0 -65 -60 0 -60 0 0 -65 0 -65 -65 0 -65 0 0 190 0 190 -190 0 -190 0 0
65 0 65 190 0 190 0 0 -65z m6330 0 l0 -65 -190 0 -190 0 0 65 0 65 190 0 190
0 0 -65z m-8610 -125 l0 -60 65 0 65 0 0 -190 0 -190 -65 0 -65 0 0 -65 0 -65
-60 0 -60 0 0 -65 0 -65 -65 0 -65 0 0 190 0 190 -255 0 -255 0 0 65 0 65 255
0 255 0 0 -65 0 -65 65 0 65 0 0 -60 0 -60 60 0 60 0 0 190 0 190 -190 0 -190
0 0 60 0 60 190 0 190 0 0 -60z m1140 0 l0 -60 65 0 65 0 0 -190 0 -190 -65 0
-65 0 0 -65 0 -65 190 0 190 0 0 -65 0 -65 65 0 65 0 0 -190 0 -190 -65 0 -65
0 0 -60 0 -60 -65 0 -65 0 0 -65 0 -65 -60 0 -60 0 0 190 0 190 -190 0 -190 0
0 65 0 65 190 0 190 0 0 -65 0 -65 60 0 60 0 0 -65 0 -65 65 0 65 0 0 190 0
190 -190 0 -190 0 0 65 0 65 -60 0 -60 0 0 -65 0 -65 -65 0 -65 0 0 190 0 190
-190 0 -190 0 0 65 0 65 190 0 190 0 0 -65 0 -65 65 0 65 0 0 -60 0 -60 60 0
60 0 0 190 0 190 -190 0 -190 0 0 60 0 60 190 0 190 0 0 -60z m6330 0 l0 -60
65 0 65 0 0 -190 0 -190 -65 0 -65 0 0 -65 0 -65 -65 0 -65 0 0 -65 0 -65 -60
0 -60 0 0 190 0 190 -130 0 -130 0 0 65 0 65 130 0 130 0 0 -65 0 -65 60 0 60
0 0 -60 0 -60 65 0 65 0 0 190 0 190 -65 0 -65 0 0 60 0 60 65 0 65 0 0 -60z
m-4430 -125 l0 -65 -125 0 -125 0 0 65 0 65 125 0 125 0 0 -65z m5440 0 l0
-65 65 0 65 0 0 -190 0 -190 -65 0 -65 0 0 -65 0 -65 -60 0 -60 0 0 -60 0 -60
-65 0 -65 0 0 190 0 190 -255 0 -255 0 0 60 0 60 255 0 255 0 0 -60 0 -60 65
0 65 0 0 -65 0 -65 60 0 60 0 0 190 0 190 -190 0 -190 0 0 65 0 65 190 0 190
0 0 -65z m-3540 -190 l0 -125 -190 0 -190 0 0 60 0 60 125 0 125 0 0 65 0 65
65 0 65 0 0 -125z m3920 60 l0 -65 -60 0 -60 0 0 65 0 65 60 0 60 0 0 -65z
m-10380 -125 l0 -60 65 0 65 0 0 -190 0 -190 -65 0 -65 0 0 -65 0 -65 -60 0
-60 0 0 -65 0 -65 -65 0 -65 0 0 190 0 190 -190 0 -190 0 0 65 0 65 190 0 190
0 0 -65 0 -65 65 0 65 0 0 -60 0 -60 60 0 60 0 0 190 0 190 -190 0 -190 0 0
60 0 60 190 0 190 0 0 -60z m4430 0 l0 -60 65 0 65 0 0 -65 0 -65 65 0 65 0 0
125 0 125 60 0 60 0 0 -125 0 -125 190 0 190 0 0 -65 0 -65 65 0 65 0 0 -60 0
-60 65 0 65 0 0 125 0 125 60 0 60 0 0 -125 0 -125 -60 0 -60 0 0 -65 0 -65
-65 0 -65 0 0 -65 0 -65 -65 0 -65 0 0 190 0 190 -190 0 -190 0 0 65 0 65 -60
0 -60 0 0 -65 0 -65 -65 0 -65 0 0 -60 0 -60 -65 0 -65 0 0 190 0 190 -190 0
-190 0 0 60 0 60 190 0 190 0 0 -60z m890 0 l0 -60 -125 0 -125 0 0 60 0 60
125 0 125 0 0 -60z m-4300 -125 l0 -65 60 0 60 0 0 -190 0 -190 -60 0 -60 0 0
-65 0 -65 -65 0 -65 0 0 -60 0 -60 -65 0 -65 0 0 190 0 190 -250 0 -250 0 0
60 0 60 250 0 250 0 0 -60 0 -60 65 0 65 0 0 -65 0 -65 65 0 65 0 0 190 0 190
-190 0 -190 0 0 65 0 65 190 0 190 0 0 -65z m1140 0 l0 -65 60 0 60 0 0 -190
0 -190 -60 0 -60 0 0 -65 0 -65 190 0 190 0 0 -60 0 -60 60 0 60 0 0 -190 0
-190 -60 0 -60 0 0 -65 0 -65 -65 0 -65 0 0 -60 0 -60 -65 0 -65 0 0 185 0
185 -190 0 -190 0 0 65 0 65 190 0 190 0 0 -65 0 -65 65 0 65 0 0 -60 0 -60
65 0 65 0 0 190 0 190 -190 0 -190 0 0 60 0 60 -65 0 -65 0 0 -60 0 -60 -65 0
-65 0 0 190 0 190 -190 0 -190 0 0 60 0 60 190 0 190 0 0 -60 0 -60 65 0 65 0
0 -65 0 -65 65 0 65 0 0 190 0 190 -190 0 -190 0 0 65 0 65 190 0 190 0 0 -65z
m6320 0 l0 -65 65 0 65 0 0 -190 0 -190 -65 0 -65 0 0 -65 0 -65 -60 0 -60 0
0 -60 0 -60 -65 0 -65 0 0 190 0 190 -190 0 -190 0 0 60 0 60 190 0 190 0 0
-60 0 -60 65 0 65 0 0 -65 0 -65 60 0 60 0 0 190 0 190 -190 0 -190 0 0 65 0
65 190 0 190 0 0 -65z m-4300 -130 l0 -65 65 0 65 0 0 -190 0 -190 190 0 190
0 0 -60 0 -60 60 0 60 0 0 -65 0 -65 65 0 65 0 0 190 0 190 -125 0 -125 0 0
65 0 65 125 0 125 0 0 -65 0 -65 65 0 65 0 0 -190 0 -190 -65 0 -65 0 0 -65 0
-65 -65 0 -65 0 0 -60 0 -60 -60 0 -60 0 0 190 0 190 -190 0 -190 0 0 60 0 60
-65 0 -65 0 0 -60 0 -60 -65 0 -65 0 0 -65 0 -65 -60 0 -60 0 0 190 0 190
-190 0 -190 0 0 65 0 65 190 0 190 0 0 -65 0 -65 60 0 60 0 0 -65 0 -65 65 0
65 0 0 190 0 190 -190 0 -190 0 0 65 0 65 190 0 190 0 0 -65z m2030 0 l0 -65
60 0 60 0 0 -60 0 -60 65 0 65 0 0 125 0 125 65 0 65 0 0 -125 0 -125 -65 0
-65 0 0 -65 0 -65 190 0 190 0 0 -65 0 -65 60 0 60 0 0 -190 0 -190 -60 0 -60
0 0 -60 0 -60 -125 0 -125 0 0 125 0 125 -130 0 -130 0 0 65 0 65 130 0 130 0
0 -65 0 -65 60 0 60 0 0 -65 0 -65 65 0 65 0 0 190 0 190 -190 0 -190 0 0 65
0 65 -125 0 -125 0 0 125 0 125 -190 0 -190 0 0 65 0 65 190 0 190 0 0 -65z
m3290 0 l0 -65 60 0 60 0 0 -190 0 -190 -60 0 -60 0 0 -60 0 -60 -65 0 -65 0
0 -65 0 -65 -65 0 -65 0 0 190 0 190 -250 0 -250 0 0 65 0 65 250 0 250 0 0
-65 0 -65 65 0 65 0 0 -65 0 -65 65 0 65 0 0 190 0 190 -190 0 -190 0 0 65 0
65 190 0 190 0 0 -65z m1010 0 l0 -65 -125 0 -125 0 0 65 0 65 125 0 125 0 0
-65z m-4560 -250 l0 -65 -125 0 -125 0 0 65 0 65 125 0 125 0 0 -65z m4430 0
l0 -65 65 0 65 0 0 -65 0 -65 65 0 65 0 0 -125 0 -125 -130 0 -130 0 0 190 0
190 -190 0 -190 0 0 65 0 65 190 0 190 0 0 -65z m-9870 -130 l0 -65 65 0 65 0
0 -190 0 -190 -65 0 -65 0 0 -60 0 -60 -125 0 -125 0 0 125 0 125 -130 0 -130
0 0 65 0 65 130 0 130 0 0 -65 0 -65 60 0 60 0 0 -65 0 -65 65 0 65 0 0 190 0
190 -190 0 -190 0 0 65 0 65 190 0 190 0 0 -65z m1140 0 l0 -65 65 0 65 0 0
-190 0 -190 -65 0 -65 0 0 -60 0 -60 190 0 190 0 0 -65 0 -65 65 0 65 0 0
-190 0 -190 -65 0 -65 0 0 -60 0 -60 -65 0 -65 0 0 -65 0 -65 -60 0 -60 0 0
190 0 190 -190 0 -190 0 0 65 0 65 190 0 190 0 0 -65 0 -65 60 0 60 0 0 -65 0
-65 65 0 65 0 0 190 0 190 -190 0 -190 0 0 65 0 65 -65 0 -65 0 0 -65 0 -65
-60 0 -60 0 0 190 0 190 -190 0 -190 0 0 65 0 65 190 0 190 0 0 -65 0 -65 60
0 60 0 0 -65 0 -65 65 0 65 0 0 190 0 190 -190 0 -190 0 0 65 0 65 190 0 190
0 0 -65z m2020 -125 l0 -60 65 0 65 0 0 -190 0 -190 190 0 190 0 0 -65 0 -65
65 0 65 0 0 -60 0 -60 60 0 60 0 0 185 0 185 -125 0 -125 0 0 65 0 65 125 0
125 0 0 -65 0 -65 65 0 65 0 0 -185 0 -185 -65 0 -65 0 0 -65 0 -65 -60 0 -60
0 0 -65 0 -65 -65 0 -65 0 0 190 0 190 -190 0 -190 0 0 65 0 65 -65 0 -65 0 0
-65 0 -65 -60 0 -60 0 0 -60 0 -60 -65 0 -65 0 0 185 0 185 -190 0 -190 0 0
65 0 65 190 0 190 0 0 -65 0 -65 65 0 65 0 0 -60 0 -60 60 0 60 0 0 190 0 190
-190 0 -190 0 0 60 0 60 190 0 190 0 0 -60z m2160 0 l0 -60 60 0 60 0 0 -65 0
-65 65 0 65 0 0 125 0 125 65 0 65 0 0 -125 0 -125 -65 0 -65 0 0 -65 0 -65
125 0 125 0 0 -60 0 -60 -125 0 -125 0 0 60 0 60 -65 0 -65 0 0 -60 0 -60 -60
0 -60 0 0 190 0 190 -190 0 -190 0 0 60 0 60 190 0 190 0 0 -60z m3160 0 l0
-60 65 0 65 0 0 -190 0 -190 -65 0 -65 0 0 -65 0 -65 -65 0 -65 0 0 -60 0 -60
-60 0 -60 0 0 185 0 185 -190 0 -190 0 0 65 0 65 190 0 190 0 0 -65 0 -65 60
0 60 0 0 -60 0 -60 65 0 65 0 0 190 0 190 -190 0 -190 0 0 60 0 60 190 0 190
0 0 -60z m1140 0 l0 -60 65 0 65 0 0 -190 0 -190 -65 0 -65 0 0 -65 0 -65 125
0 125 0 0 -60 0 -60 -125 0 -125 0 0 60 0 60 -65 0 -65 0 0 -60 0 -60 -60 0
-60 0 0 185 0 185 -190 0 -190 0 0 65 0 65 190 0 190 0 0 -65 0 -65 60 0 60 0
0 -60 0 -60 65 0 65 0 0 190 0 190 -190 0 -190 0 0 60 0 60 190 0 190 0 0 -60z
m-4560 -255 l0 -65 65 0 65 0 0 -185 0 -185 -65 0 -65 0 0 -65 0 -65 190 0
190 0 0 -65 0 -65 65 0 65 0 0 -190 0 -190 -65 0 -65 0 0 -60 0 -60 -60 0 -60
0 0 -65 0 -65 -65 0 -65 0 0 190 0 190 -190 0 -190 0 0 65 0 65 190 0 190 0 0
-65 0 -65 65 0 65 0 0 -65 0 -65 60 0 60 0 0 190 0 190 -190 0 -190 0 0 65 0
65 -60 0 -60 0 0 -65 0 -65 -65 0 -65 0 0 190 0 190 -190 0 -190 0 0 65 0 65
190 0 190 0 0 -65 0 -65 65 0 65 0 0 -60 0 -60 60 0 60 0 0 185 0 185 -190 0
-190 0 0 65 0 65 190 0 190 0 0 -65z m-4430 -125 l0 -60 65 0 65 0 0 -190 0
-190 -65 0 -65 0 0 -65 0 -65 190 0 190 0 0 -60 0 -60 65 0 65 0 0 -190 0
-190 -65 0 -65 0 0 -65 0 -65 -60 0 -60 0 0 65 0 65 -65 0 -65 0 0 60 0 60
-65 0 -65 0 0 65 0 65 65 0 65 0 0 -65 0 -65 65 0 65 0 0 -60 0 -60 60 0 60 0
0 190 0 190 -190 0 -190 0 0 60 0 60 -60 0 -60 0 0 -60 0 -60 -65 0 -65 0 0
190 0 190 -190 0 -190 0 0 60 0 60 190 0 190 0 0 -60 0 -60 65 0 65 0 0 -65 0
-65 60 0 60 0 0 190 0 190 -190 0 -190 0 0 60 0 60 190 0 190 0 0 -60z m6200
0 l0 -60 -125 0 -125 0 0 60 0 60 125 0 125 0 0 -60z m3170 0 l0 -60 -65 0
-65 0 0 60 0 60 65 0 65 0 0 -60z m-7340 -125 l0 -65 60 0 60 0 0 -190 0 -190
190 0 190 0 0 -60 0 -60 65 0 65 0 0 -65 0 -65 65 0 65 0 0 190 0 190 -130 0
-130 0 0 65 0 65 130 0 130 0 0 -65 0 -65 60 0 60 0 0 -190 0 -190 -60 0 -60
0 0 -65 0 -65 -65 0 -65 0 0 -60 0 -60 -65 0 -65 0 0 190 0 190 -190 0 -190 0
0 60 0 60 -60 0 -60 0 0 -60 0 -60 -65 0 -65 0 0 -65 0 -65 -65 0 -65 0 0 190
0 190 -185 0 -185 0 0 65 0 65 185 0 185 0 0 -65 0 -65 65 0 65 0 0 -65 0 -65
65 0 65 0 0 190 0 190 -190 0 -190 0 0 65 0 65 190 0 190 0 0 -65z m6450 0 l0
-65 65 0 65 0 0 -190 0 -190 -65 0 -65 0 0 -60 0 -60 190 0 190 0 0 -65 0 -65
-190 0 -190 0 0 65 0 65 -60 0 -60 0 0 -65 0 -65 -65 0 -65 0 0 190 0 190
-190 0 -190 0 0 65 0 65 190 0 190 0 0 -65 0 -65 65 0 65 0 0 -65 0 -65 60 0
60 0 0 190 0 190 -190 0 -190 0 0 65 0 65 190 0 190 0 0 -65z m-3410 -125 l0
-60 60 0 60 0 0 -65 0 -65 65 0 65 0 0 125 0 125 65 0 65 0 0 -125 0 -125 -65
0 -65 0 0 -65 0 -65 -65 0 -65 0 0 -60 0 -60 -60 0 -60 0 0 190 0 190 -190 0
-190 0 0 60 0 60 190 0 190 0 0 -60z m1010 0 l0 -60 60 0 60 0 0 -65 0 -65 65
0 65 0 0 65 0 65 65 0 65 0 0 -65 0 -65 -65 0 -65 0 0 -65 0 -65 -125 0 -125
0 0 130 0 130 -190 0 -190 0 0 60 0 60 190 0 190 0 0 -60z m-2150 -125 l0 -65
60 0 60 0 0 -190 0 -190 -60 0 -60 0 0 -65 0 -65 190 0 190 0 0 -60 0 -60 60
0 60 0 0 -190 0 -190 -60 0 -60 0 0 -65 0 -65 -65 0 -65 0 0 -65 0 -65 -65 0
-65 0 0 190 0 190 -190 0 -190 0 0 65 0 65 190 0 190 0 0 -65 0 -65 65 0 65 0
0 -60 0 -60 65 0 65 0 0 190 0 190 -190 0 -190 0 0 60 0 60 -65 0 -65 0 0 -60
0 -60 -65 0 -65 0 0 190 0 190 -190 0 -190 0 0 60 0 60 190 0 190 0 0 -60 0
-60 65 0 65 0 0 -65 0 -65 65 0 65 0 0 190 0 190 -190 0 -190 0 0 65 0 65 190
0 190 0 0 -65z m1890 -130 l0 -65 -125 0 -125 0 0 65 0 65 125 0 125 0 0 -65z
m3300 0 l0 -65 -190 0 -190 0 0 65 0 65 190 0 190 0 0 -65z m-7600 -125 l0
-60 65 0 65 0 0 -190 0 -190 190 0 190 0 0 -65 0 -65 60 0 60 0 0 -65 0 -65
65 0 65 0 0 190 0 190 -125 0 -125 0 0 65 0 65 125 0 125 0 0 -65 0 -65 65 0
65 0 0 -190 0 -190 -65 0 -65 0 0 -60 0 -60 -65 0 -65 0 0 -65 0 -65 -60 0
-60 0 0 190 0 190 -190 0 -190 0 0 65 0 65 -65 0 -65 0 0 -65 0 -65 -60 0 -60
0 0 -65 0 -65 -65 0 -65 0 0 190 0 190 -190 0 -190 0 0 65 0 65 190 0 190 0 0
-65 0 -65 65 0 65 0 0 -60 0 -60 60 0 60 0 0 190 0 190 -190 0 -190 0 0 60 0
60 190 0 190 0 0 -60z m5190 0 l0 -60 -125 0 -125 0 0 60 0 60 125 0 125 0 0
-60z m1270 0 l0 -60 60 0 60 0 0 -190 0 -190 -60 0 -60 0 0 190 0 190 -130 0
-130 0 0 60 0 60 130 0 130 0 0 -60z m-2280 -125 l0 -65 60 0 60 0 0 -65 0
-65 65 0 65 0 0 130 0 130 65 0 65 0 0 -130 0 -130 -65 0 -65 0 0 -60 0 -60
-65 0 -65 0 0 -65 0 -65 -60 0 -60 0 0 190 0 190 -190 0 -190 0 0 65 0 65 190
0 190 0 0 -65z m-2280 -130 l0 -65 65 0 65 0 0 -190 0 -190 -65 0 -65 0 0 -60
0 -60 190 0 190 0 0 -65 0 -65 65 0 65 0 0 -190 0 -190 -65 0 -65 0 0 -65 0
-65 -65 0 -65 0 0 -60 0 -60 -60 0 -60 0 0 190 0 190 -190 0 -190 0 0 60 0 60
190 0 190 0 0 -60 0 -60 60 0 60 0 0 -65 0 -65 65 0 65 0 0 190 0 190 -190 0
-190 0 0 65 0 65 -65 0 -65 0 0 -65 0 -65 -60 0 -60 0 0 190 0 190 -190 0
-190 0 0 65 0 65 190 0 190 0 0 -65 0 -65 60 0 60 0 0 -65 0 -65 65 0 65 0 0
190 0 190 -190 0 -190 0 0 65 0 65 190 0 190 0 0 -65z m3160 0 l0 -65 65 0 65
0 0 -60 0 -60 65 0 65 0 0 60 0 60 60 0 60 0 0 -60 0 -60 -60 0 -60 0 0 -65 0
-65 -130 0 -130 0 0 125 0 125 -190 0 -190 0 0 65 0 65 190 0 190 0 0 -65z
m-1130 -125 l0 -60 60 0 60 0 0 -190 0 -190 -60 0 -60 0 0 -65 0 -65 -65 0
-65 0 0 -65 0 -65 -65 0 -65 0 0 190 0 190 -190 0 -190 0 0 65 0 65 190 0 190
0 0 -65 0 -65 65 0 65 0 0 -60 0 -60 65 0 65 0 0 190 0 190 -190 0 -190 0 0
60 0 60 190 0 190 0 0 -60z m3160 0 l0 -60 -190 0 -190 0 0 60 0 60 190 0 190
0 0 -60z m-7590 -125 l0 -65 60 0 60 0 0 -190 0 -190 190 0 190 0 0 -65 0 -65
65 0 65 0 0 -60 0 -60 60 0 60 0 0 190 0 190 -125 0 -125 0 0 60 0 60 125 0
125 0 0 -60 0 -60 65 0 65 0 0 -190 0 -190 -65 0 -65 0 0 -65 0 -65 -60 0 -60
0 0 -65 0 -65 -65 0 -65 0 0 190 0 190 -190 0 -190 0 0 65 0 65 -60 0 -60 0 0
-65 0 -65 -130 0 -130 0 0 130 0 130 -125 0 -125 0 0 60 0 60 125 0 125 0 0
-60 0 -60 65 0 65 0 0 -65 0 -65 65 0 65 0 0 190 0 190 -190 0 -190 0 0 65 0
65 190 0 190 0 0 -65z m5310 0 l0 -65 -125 0 -125 0 0 65 0 65 125 0 125 0 0
-65z m2030 -130 l0 -65 -130 0 -130 0 0 65 0 65 130 0 130 0 0 -65z m-5450
-125 l0 -60 65 0 65 0 0 -190 0 -190 -65 0 -65 0 0 -65 0 -65 190 0 190 0 0
-65 0 -65 65 0 65 0 0 -190 0 -190 -65 0 -65 0 0 -60 0 -60 -60 0 -60 0 0 -65
0 -65 -65 0 -65 0 0 190 0 190 -190 0 -190 0 0 65 0 65 190 0 190 0 0 -65 0
-65 65 0 65 0 0 -65 0 -65 60 0 60 0 0 190 0 190 -190 0 -190 0 0 65 0 65 -60
0 -60 0 0 -65 0 -65 -65 0 -65 0 0 190 0 190 -190 0 -190 0 0 65 0 65 190 0
190 0 0 -65 0 -65 65 0 65 0 0 -60 0 -60 60 0 60 0 0 190 0 190 -190 0 -190 0
0 60 0 60 190 0 190 0 0 -60z m3290 0 l0 -60 65 0 65 0 0 -65 0 -65 65 0 65 0
0 125 0 125 60 0 60 0 0 -125 0 -125 -60 0 -60 0 0 -65 0 -65 -65 0 -65 0 0
-60 0 -60 -65 0 -65 0 0 190 0 190 -250 0 -250 0 0 60 0 60 250 0 250 0 0 -60z
m1020 0 l0 -60 -190 0 -190 0 0 60 0 60 190 0 190 0 0 -60z m-2280 -125 l0
-65 65 0 65 0 0 -190 0 -190 -65 0 -65 0 0 -65 0 -65 -65 0 -65 0 0 -60 0 -60
-60 0 -60 0 0 190 0 190 -190 0 -190 0 0 60 0 60 190 0 190 0 0 -60 0 -60 60
0 60 0 0 -65 0 -65 65 0 65 0 0 190 0 190 -190 0 -190 0 0 65 0 65 190 0 190
0 0 -65z m1010 -130 l0 -65 65 0 65 0 0 -190 0 -190 -65 0 -65 0 0 -60 0 -60
-65 0 -65 0 0 -65 0 -65 -60 0 -60 0 0 190 0 190 -255 0 -255 0 0 65 0 65 255
0 255 0 0 -65 0 -65 60 0 60 0 0 -65 0 -65 65 0 65 0 0 190 0 190 -190 0 -190
0 0 65 0 65 190 0 190 0 0 -65z m1010 0 l0 -65 -125 0 -125 0 0 65 0 65 125 0
125 0 0 -65z m380 0 l0 -65 -60 0 -60 0 0 65 0 65 60 0 60 0 0 -65z m-6070
-250 l0 -65 65 0 65 0 0 -125 0 -125 -65 0 -65 0 0 125 0 125 -125 0 -125 0 0
65 0 65 125 0 125 0 0 -65z m1140 0 l0 -65 60 0 60 0 0 -190 0 -190 -60 0 -60
0 0 -65 0 -65 190 0 190 0 0 -60 0 -60 60 0 60 0 0 -190 0 -190 -60 0 -60 0 0
-65 0 -65 -65 0 -65 0 0 -65 0 -65 -65 0 -65 0 0 190 0 190 -190 0 -190 0 0
65 0 65 190 0 190 0 0 -65 0 -65 65 0 65 0 0 -60 0 -60 65 0 65 0 0 190 0 190
-190 0 -190 0 0 60 0 60 -65 0 -65 0 0 -60 0 -60 -65 0 -65 0 0 190 0 190
-190 0 -190 0 0 60 0 60 190 0 190 0 0 -60 0 -60 65 0 65 0 0 -65 0 -65 65 0
65 0 0 190 0 190 -190 0 -190 0 0 65 0 65 190 0 190 0 0 -65z m4430 0 l0 -65
60 0 60 0 0 -65 0 -65 65 0 65 0 0 130 0 130 65 0 65 0 0 -130 0 -130 -65 0
-65 0 0 -60 0 -60 125 0 125 0 0 -65 0 -65 -125 0 -125 0 0 65 0 65 -65 0 -65
0 0 -65 0 -65 -60 0 -60 0 0 190 0 190 -190 0 -190 0 0 65 0 65 190 0 190 0 0
-65z m-2410 -130 l0 -65 65 0 65 0 0 -190 0 -190 -65 0 -65 0 0 -60 0 -60 -60
0 -60 0 0 -65 0 -65 -65 0 -65 0 0 190 0 190 -190 0 -190 0 0 65 0 65 190 0
190 0 0 -65 0 -65 65 0 65 0 0 -65 0 -65 60 0 60 0 0 190 0 190 -190 0 -190 0
0 65 0 65 190 0 190 0 0 -65z m3040 0 l0 -65 -65 0 -65 0 0 65 0 65 65 0 65 0
0 -65z m-2020 -125 l0 -60 60 0 60 0 0 -190 0 -190 -60 0 -60 0 0 -65 0 -65
-65 0 -65 0 0 -65 0 -65 -65 0 -65 0 0 190 0 190 -250 0 -250 0 0 65 0 65 250
0 250 0 0 -65 0 -65 65 0 65 0 0 -60 0 -60 65 0 65 0 0 190 0 190 -190 0 -190
0 0 60 0 60 190 0 190 0 0 -60z m1130 0 l0 -60 65 0 65 0 0 -190 0 -190 -65 0
-65 0 0 -65 0 -65 190 0 190 0 0 -65 0 -65 65 0 65 0 0 -190 0 -190 -65 0 -65
0 0 -60 0 -60 -60 0 -60 0 0 -65 0 -65 -65 0 -65 0 0 190 0 190 -190 0 -190 0
0 65 0 65 190 0 190 0 0 -65 0 -65 65 0 65 0 0 -65 0 -65 60 0 60 0 0 190 0
190 -190 0 -190 0 0 65 0 65 -60 0 -60 0 0 -65 0 -65 -65 0 -65 0 0 190 0 190
-190 0 -190 0 0 65 0 65 190 0 190 0 0 -65 0 -65 65 0 65 0 0 -60 0 -60 60 0
60 0 0 190 0 190 -190 0 -190 0 0 60 0 60 190 0 190 0 0 -60z m-4680 -255 l0
-65 65 0 65 0 0 -190 0 -190 -65 0 -65 0 0 190 0 190 -190 0 -190 0 0 65 0 65
190 0 190 0 0 -65z m5820 -190 l0 -255 -60 0 -60 0 0 -190 0 -190 -65 0 -65 0
0 -190 0 -190 -65 0 -65 0 0 -60 0 -60 -125 0 -125 0 0 -65 0 -65 -190 0 -190
0 0 65 0 65 190 0 190 0 0 60 0 60 -65 0 -65 0 0 65 0 65 130 0 130 0 0 125 0
125 60 0 60 0 0 65 0 65 65 0 65 0 0 125 0 125 -65 0 -65 0 0 -60 0 -60 -60 0
-60 0 0 190 0 190 -190 0 -190 0 0 60 0 60 190 0 190 0 0 -60 0 -60 60 0 60 0
0 -65 0 -65 65 0 65 0 0 125 0 125 65 0 65 0 0 65 0 65 60 0 60 0 0 -255z
m-3790 65 l0 -60 60 0 60 0 0 -190 0 -190 -60 0 -60 0 0 -65 0 -65 -65 0 -65
0 0 -65 0 -65 -65 0 -65 0 0 190 0 190 -190 0 -190 0 0 65 0 65 190 0 190 0 0
-65 0 -65 65 0 65 0 0 -60 0 -60 65 0 65 0 0 190 0 190 -190 0 -190 0 0 60 0
60 190 0 190 0 0 -60z m1010 -125 l0 -65 65 0 65 0 0 -190 0 -190 -65 0 -65 0
0 -65 0 -65 -65 0 -65 0 0 -60 0 -60 -60 0 -60 0 0 190 0 190 -255 0 -255 0 0
60 0 60 255 0 255 0 0 -60 0 -60 60 0 60 0 0 -65 0 -65 65 0 65 0 0 190 0 190
-190 0 -190 0 0 65 0 65 190 0 190 0 0 -65z m1140 0 l0 -65 60 0 60 0 0 -190
0 -190 -60 0 -60 0 0 -65 0 -65 190 0 190 0 0 -60 0 -60 60 0 60 0 0 -190 0
-190 -60 0 -60 0 0 -65 0 -65 -65 0 -65 0 0 -65 0 -65 -65 0 -65 0 0 190 0
190 -190 0 -190 0 0 65 0 65 190 0 190 0 0 -65 0 -65 65 0 65 0 0 -60 0 -60
65 0 65 0 0 190 0 190 -190 0 -190 0 0 60 0 60 -65 0 -65 0 0 -60 0 -60 -65 0
-65 0 0 190 0 190 -185 0 -185 0 0 60 0 60 185 0 185 0 0 -60 0 -60 65 0 65 0
0 -65 0 -65 65 0 65 0 0 190 0 190 -190 0 -190 0 0 65 0 65 190 0 190 0 0 -65z
m-3800 -380 l0 -65 65 0 65 0 0 -65 0 -65 -65 0 -65 0 0 65 0 65 -65 0 -65 0
0 65 0 65 65 0 65 0 0 -65z m1140 0 l0 -65 65 0 65 0 0 -190 0 -190 -65 0 -65
0 0 -65 0 -65 -65 0 -65 0 0 -60 0 -60 -60 0 -60 0 0 190 0 190 -190 0 -190 0
0 60 0 60 190 0 190 0 0 -60 0 -60 60 0 60 0 0 -65 0 -65 65 0 65 0 0 190 0
190 -190 0 -190 0 0 65 0 65 190 0 190 0 0 -65z m1010 -130 l0 -65 65 0 65 0
0 -190 0 -190 -65 0 -65 0 0 -60 0 -60 -60 0 -60 0 0 -65 0 -65 -65 0 -65 0 0
190 0 190 -255 0 -255 0 0 65 0 65 255 0 255 0 0 -65 0 -65 65 0 65 0 0 -65 0
-65 60 0 60 0 0 190 0 190 -190 0 -190 0 0 65 0 65 190 0 190 0 0 -65z m1140
0 l0 -65 65 0 65 0 0 -190 0 -190 -65 0 -65 0 0 -60 0 -60 190 0 190 0 0 -65
0 -65 65 0 65 0 0 -190 0 -190 -65 0 -65 0 0 -65 0 -65 -125 0 -125 0 0 130 0
130 -190 0 -190 0 0 60 0 60 190 0 190 0 0 -60 0 -60 60 0 60 0 0 -65 0 -65
65 0 65 0 0 190 0 190 -190 0 -190 0 0 65 0 65 -60 0 -60 0 0 -65 0 -65 -65 0
-65 0 0 190 0 190 -190 0 -190 0 0 65 0 65 190 0 190 0 0 -65 0 -65 65 0 65 0
0 -65 0 -65 60 0 60 0 0 190 0 190 -190 0 -190 0 0 65 0 65 190 0 190 0 0 -65z
m-2660 -380 l0 -65 65 0 65 0 0 -60 0 -60 -65 0 -65 0 0 60 0 60 -125 0 -125
0 0 65 0 65 125 0 125 0 0 -65z m1020 -125 l0 -60 60 0 60 0 0 -190 0 -190
-60 0 -60 0 0 190 0 190 -190 0 -190 0 0 60 0 60 190 0 190 0 0 -60z m1140 0
l0 -60 60 0 60 0 0 -190 0 -190 -60 0 -60 0 0 -65 0 -65 190 0 190 0 0 -65 0
-65 -190 0 -190 0 0 65 0 65 -65 0 -65 0 0 -65 0 -65 -65 0 -65 0 0 190 0 190
-190 0 -190 0 0 65 0 65 190 0 190 0 0 -65 0 -65 65 0 65 0 0 -60 0 -60 65 0
65 0 0 190 0 190 -190 0 -190 0 0 60 0 60 190 0 190 0 0 -60z m-1400 -255 l0
-65 65 0 65 0 0 -60 0 -60 -65 0 -65 0 0 60 0 60 -190 0 -190 0 0 65 0 65 190
0 190 0 0 -65z m3040 -125 l0 -60 -125 0 -125 0 0 60 0 60 125 0 125 0 0 -60z
m-2150 -125 l0 -65 65 0 65 0 0 -65 0 -65 -65 0 -65 0 0 65 0 65 -190 0 -190
0 0 65 0 65 190 0 190 0 0 -65z"/>
<path d="M7610 12060 l0 -60 60 0 60 0 0 -65 0 -65 65 0 65 0 0 125 0 125
-125 0 -125 0 0 -60z"/>
<path d="M8620 11935 l0 -65 65 0 65 0 0 -65 0 -65 60 0 60 0 0 130 0 130
-125 0 -125 0 0 -65z"/>
<path d="M9760 11935 l0 -65 60 0 60 0 0 -65 0 -65 65 0 65 0 0 130 0 130
-125 0 -125 0 0 -65z"/>
<path d="M4820 10665 l0 -65 65 0 65 0 0 -60 0 -60 65 0 65 0 0 -65 0 -65 60
0 60 0 0 190 0 190 -190 0 -190 0 0 -65z"/>
<path d="M3810 9720 l0 -130 125 0 125 0 0 -60 0 -60 65 0 65 0 0 -65 0 -65
65 0 65 0 0 190 0 190 -190 0 -190 0 0 65 0 65 -65 0 -65 0 0 -130z"/>
<path d="M3180 9150 l0 -60 190 0 190 0 0 -65 0 -65 60 0 60 0 0 -65 0 -65 65
0 65 0 0 190 0 190 -315 0 -315 0 0 -60z"/>
<path d="M10140 8895 l0 -65 60 0 60 0 0 65 0 65 -60 0 -60 0 0 -65z"/>
<path d="M2800 8645 l0 -65 125 0 125 0 0 -65 0 -65 65 0 65 0 0 -60 0 -60 60
0 60 0 0 190 0 190 -250 0 -250 0 0 -65z"/>
<path d="M2290 8135 l0 -65 125 0 125 0 0 -60 0 -60 65 0 65 0 0 -65 0 -65 65
0 65 0 0 190 0 190 -255 0 -255 0 0 -65z"/>
<path d="M1780 7630 l0 -60 130 0 130 0 0 -65 0 -65 60 0 60 0 0 -65 0 -65 65
0 65 0 0 190 0 190 -255 0 -255 0 0 -60z"/>
<path d="M11530 3325 l0 -65 65 0 65 0 0 65 0 65 -65 0 -65 0 0 -65z"/>
</g>
</svg>
