<?xml version="1.0" standalone="no"?>
<!DOCTYPE svg PUBLIC "-//W3C//DTD SVG 20010904//EN"
 "http://www.w3.org/TR/2001/REC-SVG-20010904/DTD/svg10.dtd">
<svg version="1.0" xmlns="http://www.w3.org/2000/svg"
 width="1571.000000pt" height="1505.000000pt" viewBox="0 0 1571.000000 1505.000000"
 preserveAspectRatio="xMidYMid meet">

<g transform="translate(0.000000,1505.000000) scale(0.100000,-0.100000)"
fill="#000000" stroke="none">
<path d="M7140 12140 l0 -60 -570 0 -570 0 0 -65 0 -65 -380 0 -380 0 0 -65 0
-65 -255 0 -255 0 0 -60 0 -60 -250 0 -250 0 0 -130 0 -130 -65 0 -65 0 0 -60
0 -60 -65 0 -65 0 0 -695 0 -695 65 0 65 0 0 -130 0 -130 65 0 65 0 0 -125 0
-125 60 0 60 0 0 -190 0 -190 -125 0 -125 0 0 -65 0 -65 -65 0 -65 0 0 -60 0
-60 -60 0 -60 0 0 -65 0 -65 -65 0 -65 0 0 -65 0 -65 -125 0 -125 0 0 -60 0
-60 -65 0 -65 0 0 -65 0 -65 -65 0 -65 0 0 -65 0 -65 -60 0 -60 0 0 -60 0 -60
-65 0 -65 0 0 -65 0 -65 -65 0 -65 0 0 -65 0 -65 -60 0 -60 0 0 -60 0 -60 -65
0 -65 0 0 -65 0 -65 -65 0 -65 0 0 -65 0 -65 -60 0 -60 0 0 -60 0 -60 -65 0
-65 0 0 -65 0 -65 -65 0 -65 0 0 -65 0 -65 -60 0 -60 0 0 -60 0 -60 -65 0 -65
0 0 -320 0 -320 65 0 65 0 0 -60 0 -60 60 0 60 0 0 -65 0 -65 190 0 190 0 0
-60 0 -60 130 0 130 0 0 -65 0 -65 125 0 125 0 0 -65 0 -65 125 0 125 0 0 -60
0 -60 130 0 130 0 0 -65 0 -65 125 0 125 0 0 -65 0 -65 125 0 125 0 0 -60 0
-60 130 0 130 0 0 -65 0 -65 60 0 60 0 0 -65 0 -65 130 0 130 0 0 -60 0 -60
125 0 125 0 0 -65 0 -65 125 0 125 0 0 -65 0 -65 65 0 65 0 0 -60 0 -60 125 0
125 0 0 -65 0 -65 130 0 130 0 0 -65 0 -65 125 0 125 0 0 -60 0 -60 125 0 125
0 0 -65 0 -65 125 0 125 0 0 -65 0 -65 130 0 130 0 0 -60 0 -60 125 0 125 0 0
-65 0 -65 125 0 125 0 0 -65 0 -65 65 0 65 0 0 -60 0 -60 125 0 125 0 0 -65 0
-65 130 0 130 0 0 -65 0 -65 125 0 125 0 0 -60 0 -60 65 0 65 0 0 -65 0 -65
125 0 125 0 0 -65 0 -65 125 0 125 0 0 -60 0 -60 65 0 65 0 0 -65 0 -65 125 0
125 0 0 -65 0 -65 65 0 65 0 0 -60 0 -60 125 0 125 0 0 -65 0 -65 65 0 65 0 0
-65 0 -65 250 0 250 0 0 65 0 65 65 0 65 0 0 65 0 65 65 0 65 0 0 60 0 60 60
0 60 0 0 130 0 130 65 0 65 0 0 125 0 125 65 0 65 0 0 125 0 125 60 0 60 0 0
130 0 130 65 0 65 0 0 60 0 60 65 0 65 0 0 65 0 65 60 0 60 0 0 125 0 125 65
0 65 0 0 65 0 65 65 0 65 0 0 65 0 65 60 0 60 0 0 60 0 60 65 0 65 0 0 130 0
130 65 0 65 0 0 60 0 60 60 0 60 0 0 65 0 65 65 0 65 0 0 125 0 125 65 0 65 0
0 65 0 65 60 0 60 0 0 125 0 125 65 0 65 0 0 65 0 65 65 0 65 0 0 380 0 380
-65 0 -65 0 0 125 0 125 -65 0 -65 0 0 190 0 190 -60 0 -60 0 0 65 0 65 -65 0
-65 0 0 125 0 125 -65 0 -65 0 0 65 0 65 -60 0 -60 0 0 60 0 60 -65 0 -65 0 0
65 0 65 -65 0 -65 0 0 65 0 65 -60 0 -60 0 0 60 0 60 -65 0 -65 0 0 65 0 65
-65 0 -65 0 0 65 0 65 -60 0 -60 0 0 60 0 60 -65 0 -65 0 0 130 0 130 65 0 65
0 0 60 0 60 60 0 60 0 0 65 0 65 65 0 65 0 0 65 0 65 65 0 65 0 0 60 0 60 60
0 60 0 0 130 0 130 65 0 65 0 0 60 0 60 65 0 65 0 0 65 0 65 60 0 60 0 0 125
0 125 65 0 65 0 0 190 0 190 65 0 65 0 0 125 0 125 60 0 60 0 0 320 0 320 -60
0 -60 0 0 315 0 315 -130 0 -130 0 0 65 0 65 -125 0 -125 0 0 60 0 60 -190 0
-190 0 0 65 0 65 -255 0 -255 0 0 65 0 65 -505 0 -505 0 0 60 0 60 -1390 0
-1390 0 0 -60z m-2530 -885 l0 -65 125 0 125 0 0 -65 0 -65 190 0 190 0 0 -60
0 -60 190 0 190 0 0 -65 0 -65 190 0 190 0 0 -65 0 -65 380 0 380 0 0 -60 0
-60 885 0 885 0 0 60 0 60 125 0 125 0 0 65 0 65 130 0 130 0 0 65 0 65 190 0
190 0 0 60 0 60 125 0 125 0 0 65 0 65 60 0 60 0 0 65 0 65 65 0 65 0 0 -65 0
-65 65 0 65 0 0 65 0 65 60 0 60 0 0 -65 0 -65 190 0 190 0 0 -65 0 -65 190 0
190 0 0 -60 0 -60 320 0 320 0 0 60 0 60 190 0 190 0 0 65 0 65 125 0 125 0 0
-125 0 -125 -190 0 -190 0 0 -65 0 -65 -125 0 -125 0 0 -65 0 -65 -380 0 -380
0 0 65 0 65 -190 0 -190 0 0 65 0 65 -65 0 -65 0 0 60 0 60 -255 0 -255 0 0
-60 0 -60 -125 0 -125 0 0 -65 0 -65 -60 0 -60 0 0 -65 0 -65 -65 0 -65 0 0
-60 0 -60 -125 0 -125 0 0 -65 0 -65 -65 0 -65 0 0 -65 0 -65 -1205 0 -1205 0
0 65 0 65 -315 0 -315 0 0 65 0 65 -250 0 -250 0 0 60 0 60 -190 0 -190 0 0
65 0 65 -190 0 -190 0 0 65 0 65 -65 0 -65 0 0 -65 0 -65 -65 0 -65 0 0 65 0
65 -60 0 -60 0 0 60 0 60 60 0 60 0 0 130 0 130 130 0 130 0 0 -65z m5560
-445 l0 -130 65 0 65 0 0 -60 0 -60 65 0 65 0 0 60 0 60 60 0 60 0 0 -60 0
-60 65 0 65 0 0 -65 0 -65 65 0 65 0 0 65 0 65 60 0 60 0 0 -65 0 -65 65 0 65
0 0 65 0 65 65 0 65 0 0 -65 0 -65 60 0 60 0 0 65 0 65 65 0 65 0 0 -65 0 -65
65 0 65 0 0 65 0 65 60 0 60 0 0 60 0 60 65 0 65 0 0 -60 0 -60 65 0 65 0 0
60 0 60 60 0 60 0 0 65 0 65 65 0 65 0 0 -65 0 -65 65 0 65 0 0 -60 0 -60 -65
0 -65 0 0 -65 0 -65 -65 0 -65 0 0 -65 0 -65 65 0 65 0 0 -60 0 -60 -65 0 -65
0 0 -65 0 -65 -60 0 -60 0 0 -60 0 -60 60 0 60 0 0 -65 0 -65 -60 0 -60 0 0
-65 0 -65 -65 0 -65 0 0 -60 0 -60 -65 0 -65 0 0 -65 0 -65 -60 0 -60 0 0 -65
0 -65 -65 0 -65 0 0 -60 0 -60 65 0 65 0 0 -65 0 -65 -65 0 -65 0 0 -65 0 -65
-65 0 -65 0 0 -60 0 -60 -60 0 -60 0 0 -65 0 -65 -65 0 -65 0 0 -65 0 -65 -65
0 -65 0 0 65 0 65 -60 0 -60 0 0 -65 0 -65 -65 0 -65 0 0 -60 0 -60 -65 0 -65
0 0 -65 0 -65 -60 0 -60 0 0 65 0 65 -65 0 -65 0 0 -65 0 -65 -65 0 -65 0 0
65 0 65 -60 0 -60 0 0 -65 0 -65 -65 0 -65 0 0 65 0 65 -60 0 -60 0 0 -65 0
-65 -65 0 -65 0 0 -65 0 -65 -65 0 -65 0 0 65 0 65 -60 0 -60 0 0 -65 0 -65
-65 0 -65 0 0 65 0 65 -65 0 -65 0 0 -65 0 -65 -60 0 -60 0 0 65 0 65 -65 0
-65 0 0 -65 0 -65 -65 0 -65 0 0 65 0 65 -60 0 -60 0 0 -65 0 -65 -65 0 -65 0
0 65 0 65 -65 0 -65 0 0 -65 0 -65 -60 0 -60 0 0 65 0 65 -65 0 -65 0 0 -65 0
-65 -65 0 -65 0 0 65 0 65 -60 0 -60 0 0 65 0 65 -65 0 -65 0 0 -65 0 -65 -65
0 -65 0 0 65 0 65 -60 0 -60 0 0 -65 0 -65 -65 0 -65 0 0 65 0 65 -125 0 -125
0 0 60 0 60 -130 0 -130 0 0 65 0 65 -315 0 -315 0 0 65 0 65 -125 0 -125 0 0
60 0 60 -65 0 -65 0 0 65 0 65 -125 0 -125 0 0 65 0 65 -65 0 -65 0 0 60 0 60
-60 0 -60 0 0 65 0 65 -65 0 -65 0 0 65 0 65 -65 0 -65 0 0 -65 0 -65 -60 0
-60 0 0 65 0 65 -65 0 -65 0 0 60 0 60 -65 0 -65 0 0 65 0 65 -60 0 -60 0 0
-65 0 -65 -65 0 -65 0 0 65 0 65 -65 0 -65 0 0 65 0 65 65 0 65 0 0 60 0 60
-65 0 -65 0 0 65 0 65 -60 0 -60 0 0 60 0 60 60 0 60 0 0 65 0 65 -60 0 -60 0
0 65 0 65 60 0 60 0 0 60 0 60 65 0 65 0 0 -60 0 -60 65 0 65 0 0 60 0 60 60
0 60 0 0 -60 0 -60 65 0 65 0 0 -65 0 -65 65 0 65 0 0 65 0 65 60 0 60 0 0
-65 0 -65 315 0 315 0 0 -65 0 -65 320 0 320 0 0 -60 0 -60 1330 0 1330 0 0
60 0 60 60 0 60 0 0 65 0 65 190 0 190 0 0 65 0 65 65 0 65 0 0 60 0 60 60 0
60 0 0 65 0 65 65 0 65 0 0 65 0 65 125 0 125 0 0 -130z m-5690 -1960 l0 -60
65 0 65 0 0 -65 0 -65 60 0 60 0 0 65 0 65 65 0 65 0 0 -65 0 -65 65 0 65 0 0
-65 0 -65 60 0 60 0 0 -60 0 -60 65 0 65 0 0 60 0 60 65 0 65 0 0 -60 0 -60
60 0 60 0 0 -65 0 -65 65 0 65 0 0 -65 0 -65 60 0 60 0 0 -60 0 -60 130 0 130
0 0 -65 0 -65 60 0 60 0 0 -65 0 -65 130 0 130 0 0 -60 0 -60 125 0 125 0 0
-65 0 -65 125 0 125 0 0 -65 0 -65 130 0 130 0 0 -60 0 -60 125 0 125 0 0 -65
0 -65 255 0 255 0 0 -65 0 -65 125 0 125 0 0 -60 0 -60 65 0 65 0 0 60 0 60
60 0 60 0 0 -60 0 -60 65 0 65 0 0 -65 0 -65 65 0 65 0 0 65 0 65 60 0 60 0 0
-65 0 -65 65 0 65 0 0 65 0 65 65 0 65 0 0 -65 0 -65 60 0 60 0 0 65 0 65 65
0 65 0 0 -65 0 -65 65 0 65 0 0 65 0 65 60 0 60 0 0 -65 0 -65 65 0 65 0 0 65
0 65 65 0 65 0 0 -65 0 -65 60 0 60 0 0 65 0 65 65 0 65 0 0 60 0 60 60 0 60
0 0 -60 0 -60 65 0 65 0 0 60 0 60 65 0 65 0 0 65 0 65 -65 0 -65 0 0 65 0 65
-65 0 -65 0 0 -65 0 -65 -60 0 -60 0 0 65 0 65 -65 0 -65 0 0 -65 0 -65 -60 0
-60 0 0 65 0 65 -65 0 -65 0 0 -65 0 -65 -65 0 -65 0 0 65 0 65 -60 0 -60 0 0
60 0 60 -65 0 -65 0 0 -60 0 -60 -65 0 -65 0 0 60 0 60 -60 0 -60 0 0 -60 0
-60 -65 0 -65 0 0 60 0 60 65 0 65 0 0 65 0 65 60 0 60 0 0 -65 0 -65 65 0 65
0 0 65 0 65 65 0 65 0 0 -65 0 -65 60 0 60 0 0 65 0 65 65 0 65 0 0 -65 0 -65
65 0 65 0 0 65 0 65 60 0 60 0 0 65 0 65 65 0 65 0 0 -65 0 -65 60 0 60 0 0
65 0 65 65 0 65 0 0 60 0 60 -65 0 -65 0 0 65 0 65 -60 0 -60 0 0 65 0 65 60
0 60 0 0 -65 0 -65 65 0 65 0 0 65 0 65 65 0 65 0 0 -65 0 -65 60 0 60 0 0 65
0 65 65 0 65 0 0 -65 0 -65 65 0 65 0 0 65 0 65 60 0 60 0 0 -65 0 -65 65 0
65 0 0 -65 0 -65 65 0 65 0 0 -60 0 -60 60 0 60 0 0 -65 0 -65 65 0 65 0 0
-65 0 -65 65 0 65 0 0 -60 0 -60 60 0 60 0 0 -65 0 -65 65 0 65 0 0 -65 0 -65
-65 0 -65 0 0 65 0 65 -60 0 -60 0 0 -65 0 -65 -65 0 -65 0 0 -60 0 -60 -65 0
-65 0 0 -65 0 -65 -60 0 -60 0 0 -65 0 -65 -65 0 -65 0 0 -60 0 -60 -65 0 -65
0 0 -65 0 -65 -60 0 -60 0 0 -65 0 -65 -65 0 -65 0 0 -60 0 -60 -65 0 -65 0 0
-65 0 -65 -60 0 -60 0 0 65 0 65 -65 0 -65 0 0 -65 0 -65 -65 0 -65 0 0 -60 0
-60 -60 0 -60 0 0 -65 0 -65 -65 0 -65 0 0 65 0 65 -60 0 -60 0 0 -65 0 -65
-65 0 -65 0 0 -65 0 -65 -65 0 -65 0 0 65 0 65 -60 0 -60 0 0 -65 0 -65 -65 0
-65 0 0 65 0 65 -65 0 -65 0 0 -65 0 -65 -440 0 -440 0 0 65 0 65 -65 0 -65 0
0 65 0 65 -190 0 -190 0 0 60 0 60 -190 0 -190 0 0 65 0 65 -190 0 -190 0 0
60 0 60 -125 0 -125 0 0 65 0 65 -130 0 -130 0 0 65 0 65 -125 0 -125 0 0 60
0 60 -65 0 -65 0 0 65 0 65 -190 0 -190 0 0 65 0 65 -125 0 -125 0 0 60 0 60
-60 0 -60 0 0 65 0 65 -130 0 -130 0 0 65 0 65 -60 0 -60 0 0 60 0 60 -65 0
-65 0 0 65 0 65 -125 0 -125 0 0 65 0 65 -190 0 -190 0 0 60 0 60 -65 0 -65 0
0 65 0 65 -65 0 -65 0 0 65 0 65 -60 0 -60 0 0 60 0 60 -65 0 -65 0 0 65 0 65
65 0 65 0 0 65 0 65 60 0 60 0 0 60 0 60 65 0 65 0 0 65 0 65 65 0 65 0 0 65
0 65 60 0 60 0 0 60 0 60 65 0 65 0 0 -60z m-890 -885 l0 -65 65 0 65 0 0 -65
0 -65 65 0 65 0 0 -60 0 -60 125 0 125 0 0 -130 0 -130 190 0 190 0 0 -60 0
-60 125 0 125 0 0 -65 0 -65 65 0 65 0 0 -65 0 -65 65 0 65 0 0 -60 0 -60 125
0 125 0 0 -65 0 -65 65 0 65 0 0 -65 0 -65 125 0 125 0 0 -60 0 -60 190 0 190
0 0 -65 0 -65 60 0 60 0 0 -65 0 -65 130 0 130 0 0 -60 0 -60 125 0 125 0 0
-65 0 -65 125 0 125 0 0 -60 0 -60 190 0 190 0 0 -65 0 -65 190 0 190 0 0 -65
0 -65 190 0 190 0 0 -60 0 -60 700 0 700 0 0 -65 0 -65 60 0 60 0 0 65 0 65
65 0 65 0 0 -65 0 -65 65 0 65 0 0 65 0 65 60 0 60 0 0 60 0 60 65 0 65 0 0
-60 0 -60 60 0 60 0 0 60 0 60 65 0 65 0 0 65 0 65 65 0 65 0 0 65 0 65 60 0
60 0 0 -65 0 -65 65 0 65 0 0 65 0 65 65 0 65 0 0 60 0 60 60 0 60 0 0 65 0
65 65 0 65 0 0 60 0 60 65 0 65 0 0 65 0 65 60 0 60 0 0 65 0 65 65 0 65 0 0
60 0 60 65 0 65 0 0 65 0 65 60 0 60 0 0 65 0 65 65 0 65 0 0 -65 0 -65 65 0
65 0 0 65 0 65 60 0 60 0 0 -65 0 -65 65 0 65 0 0 -65 0 -65 65 0 65 0 0 -60
0 -60 -65 0 -65 0 0 -65 0 -65 65 0 65 0 0 -65 0 -65 60 0 60 0 0 -60 0 -60
-60 0 -60 0 0 -65 0 -65 -65 0 -65 0 0 -60 0 -60 65 0 65 0 0 -65 0 -65 -65 0
-65 0 0 -65 0 -65 -65 0 -65 0 0 -60 0 -60 -60 0 -60 0 0 -65 0 -65 -65 0 -65
0 0 -65 0 -65 -65 0 -65 0 0 -60 0 -60 65 0 65 0 0 -65 0 -65 -65 0 -65 0 0
-65 0 -65 -60 0 -60 0 0 -60 0 -60 -65 0 -65 0 0 -65 0 -65 -65 0 -65 0 0 -65
0 -65 -60 0 -60 0 0 -60 0 -60 -65 0 -65 0 0 -65 0 -65 -65 0 -65 0 0 -65 0
-65 -60 0 -60 0 0 -60 0 -60 60 0 60 0 0 -65 0 -65 -60 0 -60 0 0 -65 0 -65
-65 0 -65 0 0 -60 0 -60 -65 0 -65 0 0 -65 0 -65 -60 0 -60 0 0 -65 0 -65 -65
0 -65 0 0 -60 0 -60 65 0 65 0 0 -65 0 -65 -65 0 -65 0 0 -65 0 -65 -65 0 -65
0 0 -60 0 -60 -60 0 -60 0 0 -65 0 -65 60 0 60 0 0 -65 0 -65 -60 0 -60 0 0
-60 0 -60 -65 0 -65 0 0 60 0 60 -60 0 -60 0 0 65 0 65 -65 0 -65 0 0 65 0 65
-65 0 -65 0 0 60 0 60 -60 0 -60 0 0 -60 0 -60 -65 0 -65 0 0 60 0 60 -65 0
-65 0 0 65 0 65 -60 0 -60 0 0 65 0 65 -65 0 -65 0 0 60 0 60 -65 0 -65 0 0
-60 0 -60 -60 0 -60 0 0 60 0 60 -65 0 -65 0 0 65 0 65 -65 0 -65 0 0 65 0 65
-60 0 -60 0 0 60 0 60 -65 0 -65 0 0 -60 0 -60 -65 0 -65 0 0 60 0 60 -125 0
-125 0 0 65 0 65 -65 0 -65 0 0 65 0 65 -125 0 -125 0 0 60 0 60 -125 0 -125
0 0 65 0 65 -130 0 -130 0 0 65 0 65 -125 0 -125 0 0 60 0 60 -125 0 -125 0 0
65 0 65 -130 0 -130 0 0 65 0 65 -125 0 -125 0 0 60 0 60 -125 0 -125 0 0 65
0 65 -65 0 -65 0 0 65 0 65 -125 0 -125 0 0 60 0 60 -125 0 -125 0 0 65 0 65
-130 0 -130 0 0 65 0 65 -60 0 -60 0 0 60 0 60 -130 0 -130 0 0 65 0 65 -125
0 -125 0 0 65 0 65 -65 0 -65 0 0 60 0 60 -190 0 -190 0 0 65 0 65 -125 0
-125 0 0 125 0 125 -65 0 -65 0 0 -65 0 -65 -60 0 -60 0 0 65 0 65 -65 0 -65
0 0 65 0 65 -65 0 -65 0 0 60 0 60 -60 0 -60 0 0 -60 0 -60 -65 0 -65 0 0 60
0 60 -65 0 -65 0 0 65 0 65 -60 0 -60 0 0 -65 0 -65 -65 0 -65 0 0 65 0 65 65
0 65 0 0 65 0 65 60 0 60 0 0 60 0 60 65 0 65 0 0 65 0 65 65 0 65 0 0 65 0
65 60 0 60 0 0 60 0 60 65 0 65 0 0 65 0 65 65 0 65 0 0 65 0 65 60 0 60 0 0
60 0 60 65 0 65 0 0 65 0 65 65 0 65 0 0 65 0 65 60 0 60 0 0 -65z m6330 0 l0
-65 -60 0 -60 0 0 -65 0 -65 -65 0 -65 0 0 65 0 65 65 0 65 0 0 65 0 65 60 0
60 0 0 -65z m-630 -130 l0 -65 -65 0 -65 0 0 65 0 65 65 0 65 0 0 -65z m250 0
l0 -65 -60 0 -60 0 0 65 0 65 60 0 60 0 0 -65z m-1140 -380 l0 -65 -60 0 -60
0 0 65 0 65 60 0 60 0 0 -65z m380 -125 l0 -60 -60 0 -60 0 0 60 0 60 60 0 60
0 0 -60z m-6450 -885 l0 -65 190 0 190 0 0 -65 0 -65 125 0 125 0 0 -60 0 -60
125 0 125 0 0 -65 0 -65 130 0 130 0 0 -60 0 -60 125 0 125 0 0 -65 0 -65 125
0 125 0 0 -65 0 -65 130 0 130 0 0 -60 0 -60 125 0 125 0 0 -65 0 -65 65 0 65
0 0 -65 0 -65 125 0 125 0 0 -60 0 -60 125 0 125 0 0 -65 0 -65 130 0 130 0 0
-65 0 -65 60 0 60 0 0 -60 0 -60 130 0 130 0 0 -65 0 -65 125 0 125 0 0 -65 0
-65 125 0 125 0 0 -60 0 -60 125 0 125 0 0 -65 0 -65 130 0 130 0 0 -65 0 -65
125 0 125 0 0 -60 0 -60 125 0 125 0 0 -65 0 -65 130 0 130 0 0 -65 0 -65 60
0 60 0 0 -60 0 -60 130 0 130 0 0 -65 0 -65 125 0 125 0 0 -65 0 -65 65 0 65
0 0 -60 0 -60 125 0 125 0 0 -65 0 -65 125 0 125 0 0 -65 0 -65 65 0 65 0 0
-60 0 -60 65 0 65 0 0 -65 0 -65 190 0 190 0 0 -65 0 -65 60 0 60 0 0 -60 0
-60 65 0 65 0 0 -65 0 -65 125 0 125 0 0 -65 0 -65 125 0 125 0 0 130 0 130
65 0 65 0 0 125 0 125 65 0 65 0 0 125 0 125 60 0 60 0 0 130 0 130 65 0 65 0
0 125 0 125 65 0 65 0 0 65 0 65 60 0 60 0 0 60 0 60 65 0 65 0 0 130 0 130
65 0 65 0 0 60 0 60 60 0 60 0 0 65 0 65 65 0 65 0 0 65 0 65 65 0 65 0 0 125
0 125 60 0 60 0 0 65 0 65 65 0 65 0 0 60 0 60 65 0 65 0 0 130 0 130 60 0 60
0 0 60 0 60 65 0 65 0 0 130 0 130 65 0 65 0 0 60 0 60 60 0 60 0 0 190 0 190
65 0 65 0 0 -250 0 -250 -65 0 -65 0 0 -65 0 -65 -60 0 -60 0 0 -125 0 -125
-65 0 -65 0 0 -65 0 -65 -65 0 -65 0 0 -125 0 -125 -60 0 -60 0 0 -65 0 -65
-65 0 -65 0 0 -65 0 -65 -65 0 -65 0 0 -125 0 -125 -60 0 -60 0 0 -65 0 -65
-65 0 -65 0 0 -60 0 -60 -65 0 -65 0 0 -65 0 -65 -60 0 -60 0 0 -125 0 -125
-65 0 -65 0 0 -65 0 -65 -65 0 -65 0 0 -65 0 -65 -60 0 -60 0 0 -125 0 -125
-65 0 -65 0 0 -125 0 -125 -65 0 -65 0 0 -130 0 -130 -60 0 -60 0 0 -125 0
-125 -65 0 -65 0 0 -65 0 -65 -65 0 -65 0 0 -60 0 -60 -60 0 -60 0 0 -65 0
-65 -65 0 -65 0 0 65 0 65 -60 0 -60 0 0 60 0 60 -65 0 -65 0 0 65 0 65 -125
0 -125 0 0 65 0 65 -65 0 -65 0 0 60 0 60 -125 0 -125 0 0 65 0 65 -65 0 -65
0 0 65 0 65 -125 0 -125 0 0 60 0 60 -130 0 -130 0 0 65 0 65 -60 0 -60 0 0
65 0 65 -130 0 -130 0 0 60 0 60 -125 0 -125 0 0 65 0 65 -125 0 -125 0 0 65
0 65 -65 0 -65 0 0 60 0 60 -125 0 -125 0 0 65 0 65 -130 0 -130 0 0 65 0 65
-125 0 -125 0 0 60 0 60 -125 0 -125 0 0 65 0 65 -130 0 -130 0 0 65 0 65
-125 0 -125 0 0 60 0 60 -125 0 -125 0 0 65 0 65 -125 0 -125 0 0 65 0 65 -65
0 -65 0 0 60 0 60 -125 0 -125 0 0 65 0 65 -130 0 -130 0 0 65 0 65 -125 0
-125 0 0 60 0 60 -65 0 -65 0 0 65 0 65 -125 0 -125 0 0 65 0 65 -125 0 -125
0 0 60 0 60 -130 0 -130 0 0 65 0 65 -125 0 -125 0 0 65 0 65 -125 0 -125 0 0
60 0 60 -130 0 -130 0 0 65 0 65 -125 0 -125 0 0 60 0 60 -190 0 -190 0 0 65
0 65 -65 0 -65 0 0 65 0 65 130 0 130 0 0 -65z"/>
<path d="M4350 11000 l0 -60 65 0 65 0 0 60 0 60 -65 0 -65 0 0 -60z"/>
<path d="M9920 10745 l0 -65 -65 0 -65 0 0 -60 0 -60 -60 0 -60 0 0 -65 0 -65
-65 0 -65 0 0 -65 0 -65 65 0 65 0 0 -60 0 -60 60 0 60 0 0 -65 0 -65 -60 0
-60 0 0 -60 0 -60 60 0 60 0 0 60 0 60 65 0 65 0 0 -60 0 -60 -60 0 -60 0 0
-65 0 -65 60 0 60 0 0 -65 0 -65 65 0 65 0 0 65 0 65 -65 0 -65 0 0 65 0 65
65 0 65 0 0 60 0 60 60 0 60 0 0 -60 0 -60 65 0 65 0 0 -65 0 -65 65 0 65 0 0
-65 0 -65 -65 0 -65 0 0 -60 0 -60 65 0 65 0 0 -65 0 -65 60 0 60 0 0 -65 0
-65 -60 0 -60 0 0 -60 0 -60 60 0 60 0 0 -65 0 -65 -60 0 -60 0 0 -65 0 -65
-65 0 -65 0 0 -60 0 -60 -65 0 -65 0 0 -65 0 -65 -60 0 -60 0 0 -65 0 -65 -65
0 -65 0 0 65 0 65 -60 0 -60 0 0 -65 0 -65 -65 0 -65 0 0 65 0 65 -65 0 -65 0
0 -65 0 -65 -60 0 -60 0 0 -60 0 -60 -65 0 -65 0 0 60 0 60 -65 0 -65 0 0 -60
0 -60 -60 0 -60 0 0 -65 0 -65 60 0 60 0 0 65 0 65 65 0 65 0 0 -65 0 -65 65
0 65 0 0 65 0 65 60 0 60 0 0 -65 0 -65 65 0 65 0 0 65 0 65 65 0 65 0 0 60 0
60 60 0 60 0 0 -60 0 -60 65 0 65 0 0 60 0 60 60 0 60 0 0 -60 0 -60 65 0 65
0 0 60 0 60 65 0 65 0 0 -60 0 -60 60 0 60 0 0 60 0 60 65 0 65 0 0 65 0 65
65 0 65 0 0 65 0 65 60 0 60 0 0 -65 0 -65 65 0 65 0 0 65 0 65 65 0 65 0 0
60 0 60 60 0 60 0 0 65 0 65 65 0 65 0 0 65 0 65 -65 0 -65 0 0 60 0 60 65 0
65 0 0 65 0 65 65 0 65 0 0 65 0 65 60 0 60 0 0 60 0 60 65 0 65 0 0 65 0 65
65 0 65 0 0 65 0 65 -65 0 -65 0 0 60 0 60 65 0 65 0 0 65 0 65 60 0 60 0 0
60 0 60 -60 0 -60 0 0 65 0 65 60 0 60 0 0 65 0 65 65 0 65 0 0 60 0 60 -65 0
-65 0 0 -60 0 -60 -60 0 -60 0 0 -65 0 -65 -65 0 -65 0 0 65 0 65 -65 0 -65 0
0 -65 0 -65 -60 0 -60 0 0 -65 0 -65 -65 0 -65 0 0 65 0 65 -65 0 -65 0 0 -65
0 -65 -60 0 -60 0 0 65 0 65 -65 0 -65 0 0 -65 0 -65 -65 0 -65 0 0 65 0 65
-60 0 -60 0 0 -65 0 -65 -65 0 -65 0 0 65 0 65 -65 0 -65 0 0 65 0 65 -60 0
-60 0 0 -65 0 -65 -65 0 -65 0 0 65 0 65 -65 0 -65 0 0 60 0 60 -60 0 -60 0 0
65 0 65 -65 0 -65 0 0 -65z m130 -125 l0 -60 60 0 60 0 0 -65 0 -65 65 0 65 0
0 -65 0 -65 65 0 65 0 0 65 0 65 60 0 60 0 0 -65 0 -65 65 0 65 0 0 -60 0 -60
65 0 65 0 0 60 0 60 60 0 60 0 0 -60 0 -60 65 0 65 0 0 60 0 60 65 0 65 0 0
-60 0 -60 60 0 60 0 0 60 0 60 65 0 65 0 0 -60 0 -60 65 0 65 0 0 60 0 60 60
0 60 0 0 65 0 65 65 0 65 0 0 -65 0 -65 65 0 65 0 0 -60 0 -60 -65 0 -65 0 0
-65 0 -65 -65 0 -65 0 0 -60 0 -60 65 0 65 0 0 -65 0 -65 -65 0 -65 0 0 -65 0
-65 -60 0 -60 0 0 -60 0 -60 -65 0 -65 0 0 -65 0 -65 -65 0 -65 0 0 -65 0 -65
-60 0 -60 0 0 -60 0 -60 60 0 60 0 0 -65 0 -65 -60 0 -60 0 0 -65 0 -65 -65 0
-65 0 0 -60 0 -60 -65 0 -65 0 0 60 0 60 -60 0 -60 0 0 -60 0 -60 -65 0 -65 0
0 -65 0 -65 -65 0 -65 0 0 -65 0 -65 -60 0 -60 0 0 65 0 65 -65 0 -65 0 0 -65
0 -65 -65 0 -65 0 0 65 0 65 65 0 65 0 0 65 0 65 65 0 65 0 0 60 0 60 60 0 60
0 0 65 0 65 65 0 65 0 0 65 0 65 -65 0 -65 0 0 60 0 60 65 0 65 0 0 65 0 65
-65 0 -65 0 0 65 0 65 -60 0 -60 0 0 60 0 60 60 0 60 0 0 65 0 65 -60 0 -60 0
0 65 0 65 -65 0 -65 0 0 60 0 60 -65 0 -65 0 0 65 0 65 -60 0 -60 0 0 -65 0
-65 -65 0 -65 0 0 65 0 65 -65 0 -65 0 0 60 0 60 -60 0 -60 0 0 65 0 65 60 0
60 0 0 65 0 65 65 0 65 0 0 60 0 60 65 0 65 0 0 -60z m-380 -2150 l0 -60 -65
0 -65 0 0 60 0 60 65 0 65 0 0 -60z"/>
<path d="M9920 10495 l0 -65 -65 0 -65 0 0 -65 0 -65 65 0 65 0 0 -60 0 -60
65 0 65 0 0 60 0 60 60 0 60 0 0 -60 0 -60 65 0 65 0 0 -65 0 -65 65 0 65 0 0
-60 0 -60 60 0 60 0 0 -65 0 -65 65 0 65 0 0 -65 0 -65 -65 0 -65 0 0 -60 0
-60 65 0 65 0 0 -65 0 -65 65 0 65 0 0 -65 0 -65 -65 0 -65 0 0 -60 0 -60 65
0 65 0 0 -65 0 -65 -65 0 -65 0 0 -65 0 -65 -65 0 -65 0 0 -60 0 -60 -60 0
-60 0 0 -65 0 -65 60 0 60 0 0 65 0 65 65 0 65 0 0 60 0 60 65 0 65 0 0 65 0
65 60 0 60 0 0 -65 0 -65 65 0 65 0 0 65 0 65 65 0 65 0 0 65 0 65 -65 0 -65
0 0 60 0 60 65 0 65 0 0 65 0 65 60 0 60 0 0 65 0 65 65 0 65 0 0 60 0 60 65
0 65 0 0 65 0 65 60 0 60 0 0 65 0 65 -60 0 -60 0 0 60 0 60 60 0 60 0 0 65 0
65 65 0 65 0 0 60 0 60 -65 0 -65 0 0 -60 0 -60 -60 0 -60 0 0 -65 0 -65 -65
0 -65 0 0 65 0 65 -65 0 -65 0 0 -65 0 -65 -60 0 -60 0 0 65 0 65 -65 0 -65 0
0 -65 0 -65 -65 0 -65 0 0 65 0 65 -60 0 -60 0 0 -65 0 -65 -65 0 -65 0 0 65
0 65 -65 0 -65 0 0 60 0 60 -60 0 -60 0 0 -60 0 -60 -65 0 -65 0 0 60 0 60
-65 0 -65 0 0 65 0 65 -60 0 -60 0 0 65 0 65 -65 0 -65 0 0 -65z m130 -130 l0
-65 -65 0 -65 0 0 65 0 65 65 0 65 0 0 -65z m500 -250 l0 -65 65 0 65 0 0 -60
0 -60 65 0 65 0 0 60 0 60 60 0 60 0 0 -60 0 -60 65 0 65 0 0 60 0 60 65 0 65
0 0 -60 0 -60 60 0 60 0 0 60 0 60 65 0 65 0 0 -60 0 -60 65 0 65 0 0 -65 0
-65 -65 0 -65 0 0 -65 0 -65 -65 0 -65 0 0 -60 0 -60 -60 0 -60 0 0 -65 0 -65
-65 0 -65 0 0 -65 0 -65 -65 0 -65 0 0 -60 0 -60 65 0 65 0 0 -65 0 -65 -65 0
-65 0 0 65 0 65 -60 0 -60 0 0 60 0 60 60 0 60 0 0 65 0 65 -60 0 -60 0 0 65
0 65 -65 0 -65 0 0 60 0 60 65 0 65 0 0 65 0 65 -65 0 -65 0 0 65 0 65 -65 0
-65 0 0 60 0 60 -60 0 -60 0 0 65 0 65 60 0 60 0 0 -65z"/>
<path d="M10810 9865 l0 -65 60 0 60 0 0 -65 0 -65 -60 0 -60 0 0 -60 0 -60
60 0 60 0 0 -65 0 -65 65 0 65 0 0 65 0 65 65 0 65 0 0 60 0 60 60 0 60 0 0
65 0 65 65 0 65 0 0 65 0 65 -65 0 -65 0 0 -65 0 -65 -60 0 -60 0 0 65 0 65
-65 0 -65 0 0 -65 0 -65 -65 0 -65 0 0 65 0 65 -60 0 -60 0 0 -65z m380 -130
l0 -65 -65 0 -65 0 0 -60 0 -60 -65 0 -65 0 0 60 0 60 65 0 65 0 0 65 0 65 65
0 65 0 0 -65z"/>
<path d="M4350 10495 l0 -65 65 0 65 0 0 -65 0 -65 -65 0 -65 0 0 -60 0 -60
65 0 65 0 0 -65 0 -65 65 0 65 0 0 -60 0 -60 -65 0 -65 0 0 -65 0 -65 65 0 65
0 0 65 0 65 60 0 60 0 0 -65 0 -65 65 0 65 0 0 -65 0 -65 65 0 65 0 0 -60 0
-60 60 0 60 0 0 60 0 60 -60 0 -60 0 0 65 0 65 -65 0 -65 0 0 65 0 65 65 0 65
0 0 60 0 60 -65 0 -65 0 0 65 0 65 65 0 65 0 0 60 0 60 -65 0 -65 0 0 65 0 65
-65 0 -65 0 0 65 0 65 -60 0 -60 0 0 -65 0 -65 -65 0 -65 0 0 65 0 65 -65 0
-65 0 0 -65z m380 -130 l0 -65 65 0 65 0 0 -60 0 -60 -65 0 -65 0 0 -65 0 -65
65 0 65 0 0 -60 0 -60 -65 0 -65 0 0 60 0 60 -60 0 -60 0 0 65 0 65 -65 0 -65
0 0 60 0 60 65 0 65 0 0 65 0 65 60 0 60 0 0 -65z"/>
<path d="M4610 10240 l0 -60 60 0 60 0 0 60 0 60 -60 0 -60 0 0 -60z"/>
<path d="M8020 8345 l0 -65 65 0 65 0 0 65 0 65 -65 0 -65 0 0 -65z"/>
<path d="M8280 8345 l0 -65 60 0 60 0 0 65 0 65 -60 0 -60 0 0 -65z"/>
<path d="M8530 8345 l0 -65 65 0 65 0 0 65 0 65 -65 0 -65 0 0 -65z"/>
<path d="M8780 8345 l0 -65 65 0 65 0 0 65 0 65 -65 0 -65 0 0 -65z"/>
<path d="M4350 8725 l0 -65 -60 0 -60 0 0 -65 0 -65 -65 0 -65 0 0 -60 0 -60
-65 0 -65 0 0 -65 0 -65 -60 0 -60 0 0 -65 0 -65 60 0 60 0 0 -60 0 -60 65 0
65 0 0 -65 0 -65 65 0 65 0 0 65 0 65 -65 0 -65 0 0 60 0 60 65 0 65 0 0 65 0
65 60 0 60 0 0 65 0 65 -60 0 -60 0 0 60 0 60 60 0 60 0 0 65 0 65 65 0 65 0
0 -65 0 -65 65 0 65 0 0 65 0 65 -65 0 -65 0 0 65 0 65 -65 0 -65 0 0 -65z
m-120 -380 l0 -65 -65 0 -65 0 0 -65 0 -65 -65 0 -65 0 0 65 0 65 65 0 65 0 0
65 0 65 65 0 65 0 0 -65z"/>
<path d="M4730 8595 l0 -65 65 0 65 0 0 -60 0 -60 65 0 65 0 0 60 0 60 -65 0
-65 0 0 65 0 65 -65 0 -65 0 0 -65z"/>
<path d="M10300 7835 l0 -65 65 0 65 0 0 -60 0 -60 -65 0 -65 0 0 -65 0 -65
-65 0 -65 0 0 -65 0 -65 -60 0 -60 0 0 65 0 65 -65 0 -65 0 0 -65 0 -65 -60 0
-60 0 0 -60 0 -60 60 0 60 0 0 60 0 60 65 0 65 0 0 -60 0 -60 60 0 60 0 0 60
0 60 65 0 65 0 0 -60 0 -60 65 0 65 0 0 -65 0 -65 60 0 60 0 0 -65 0 -65 -60
0 -60 0 0 -60 0 -60 -65 0 -65 0 0 -65 0 -65 -65 0 -65 0 0 65 0 65 -60 0 -60
0 0 -65 0 -65 -65 0 -65 0 0 -65 0 -65 -60 0 -60 0 0 65 0 65 -65 0 -65 0 0
-65 0 -65 -65 0 -65 0 0 65 0 65 -60 0 -60 0 0 -65 0 -65 -65 0 -65 0 0 65 0
65 -65 0 -65 0 0 -65 0 -65 65 0 65 0 0 -60 0 -60 65 0 65 0 0 -65 0 -65 -65
0 -65 0 0 -65 0 -65 65 0 65 0 0 -60 0 -60 60 0 60 0 0 -65 0 -65 -60 0 -60 0
0 -60 0 -60 60 0 60 0 0 -65 0 -65 65 0 65 0 0 65 0 65 65 0 65 0 0 60 0 60
60 0 60 0 0 -60 0 -60 65 0 65 0 0 60 0 60 60 0 60 0 0 65 0 65 65 0 65 0 0
60 0 60 65 0 65 0 0 -60 0 -60 60 0 60 0 0 60 0 60 65 0 65 0 0 65 0 65 65 0
65 0 0 65 0 65 60 0 60 0 0 60 0 60 65 0 65 0 0 65 0 65 65 0 65 0 0 65 0 65
60 0 60 0 0 60 0 60 65 0 65 0 0 65 0 65 65 0 65 0 0 65 0 65 -65 0 -65 0 0
60 0 60 -65 0 -65 0 0 65 0 65 -60 0 -60 0 0 65 0 65 -65 0 -65 0 0 60 0 60
-65 0 -65 0 0 65 0 65 -60 0 -60 0 0 -65 0 -65 -65 0 -65 0 0 65 0 65 -65 0
-65 0 0 -65 0 -65 -60 0 -60 0 0 65 0 65 -65 0 -65 0 0 -65z m380 -125 l0 -60
65 0 65 0 0 60 0 60 60 0 60 0 0 -60 0 -60 65 0 65 0 0 -65 0 -65 65 0 65 0 0
-65 0 -65 60 0 60 0 0 -60 0 -60 65 0 65 0 0 -65 0 -65 -65 0 -65 0 0 -65 0
-65 -60 0 -60 0 0 -60 0 -60 -65 0 -65 0 0 -65 0 -65 -65 0 -65 0 0 -65 0 -65
-60 0 -60 0 0 -60 0 -60 -65 0 -65 0 0 -65 0 -65 -65 0 -65 0 0 -65 0 -65 -60
0 -60 0 0 65 0 65 -65 0 -65 0 0 -65 0 -65 -65 0 -65 0 0 -60 0 -60 -60 0 -60
0 0 -65 0 -65 -65 0 -65 0 0 65 0 65 -60 0 -60 0 0 -65 0 -65 -65 0 -65 0 0
-60 0 -60 -65 0 -65 0 0 60 0 60 65 0 65 0 0 65 0 65 -65 0 -65 0 0 60 0 60
-60 0 -60 0 0 65 0 65 60 0 60 0 0 65 0 65 -60 0 -60 0 0 60 0 60 60 0 60 0 0
-60 0 -60 65 0 65 0 0 60 0 60 65 0 65 0 0 -60 0 -60 60 0 60 0 0 60 0 60 65
0 65 0 0 65 0 65 60 0 60 0 0 -65 0 -65 65 0 65 0 0 65 0 65 65 0 65 0 0 65 0
65 60 0 60 0 0 60 0 60 65 0 65 0 0 65 0 65 -65 0 -65 0 0 65 0 65 -60 0 -60
0 0 60 0 60 -65 0 -65 0 0 65 0 65 65 0 65 0 0 65 0 65 60 0 60 0 0 60 0 60
65 0 65 0 0 -60z"/>
<path d="M10550 7585 l0 -65 -60 0 -60 0 0 -65 0 -65 60 0 60 0 0 -60 0 -60
65 0 65 0 0 -65 0 -65 65 0 65 0 0 -65 0 -65 -65 0 -65 0 0 -60 0 -60 -65 0
-65 0 0 -65 0 -65 -60 0 -60 0 0 -65 0 -65 -65 0 -65 0 0 -60 0 -60 -65 0 -65
0 0 60 0 60 -60 0 -60 0 0 -60 0 -60 -65 0 -65 0 0 -65 0 -65 -60 0 -60 0 0
65 0 65 -65 0 -65 0 0 -65 0 -65 -65 0 -65 0 0 -65 0 -65 65 0 65 0 0 -60 0
-60 65 0 65 0 0 60 0 60 60 0 60 0 0 -60 0 -60 65 0 65 0 0 60 0 60 60 0 60 0
0 65 0 65 65 0 65 0 0 65 0 65 65 0 65 0 0 -65 0 -65 60 0 60 0 0 65 0 65 65
0 65 0 0 60 0 60 65 0 65 0 0 65 0 65 60 0 60 0 0 65 0 65 65 0 65 0 0 60 0
60 65 0 65 0 0 65 0 65 60 0 60 0 0 65 0 65 -60 0 -60 0 0 60 0 60 -65 0 -65
0 0 65 0 65 -65 0 -65 0 0 65 0 65 -60 0 -60 0 0 -65 0 -65 -65 0 -65 0 0 65
0 65 -65 0 -65 0 0 -65z m130 -130 l0 -65 65 0 65 0 0 65 0 65 60 0 60 0 0
-65 0 -65 65 0 65 0 0 -60 0 -60 65 0 65 0 0 -65 0 -65 -65 0 -65 0 0 -65 0
-65 -65 0 -65 0 0 -60 0 -60 -60 0 -60 0 0 -65 0 -65 -65 0 -65 0 0 -65 0 -65
-65 0 -65 0 0 -60 0 -60 -60 0 -60 0 0 60 0 60 60 0 60 0 0 65 0 65 65 0 65 0
0 65 0 65 65 0 65 0 0 60 0 60 60 0 60 0 0 65 0 65 -60 0 -60 0 0 65 0 65 -65
0 -65 0 0 60 0 60 -65 0 -65 0 0 65 0 65 65 0 65 0 0 -65z m-510 -1010 l0 -65
-60 0 -60 0 0 -65 0 -65 -65 0 -65 0 0 65 0 65 65 0 65 0 0 65 0 65 60 0 60 0
0 -65z m-370 -130 l0 -65 -65 0 -65 0 0 65 0 65 65 0 65 0 0 -65z"/>
<path d="M10810 7330 l0 -60 60 0 60 0 0 -65 0 -65 65 0 65 0 0 65 0 65 -65 0
-65 0 0 60 0 60 -60 0 -60 0 0 -60z"/>
<path d="M9540 7330 l0 -60 65 0 65 0 0 60 0 60 -65 0 -65 0 0 -60z"/>
<path d="M8280 6825 l0 -65 60 0 60 0 0 -65 0 -65 65 0 65 0 0 65 0 65 -65 0
-65 0 0 65 0 65 -60 0 -60 0 0 -65z"/>
<path d="M8660 6695 l0 -65 60 0 60 0 0 65 0 65 -60 0 -60 0 0 -65z"/>
<path d="M8910 6695 l0 -65 65 0 65 0 0 65 0 65 -65 0 -65 0 0 -65z"/>
<path d="M3470 7835 l0 -65 -65 0 -65 0 0 -60 0 -60 -65 0 -65 0 0 -65 0 -65
-60 0 -60 0 0 -65 0 -65 -65 0 -65 0 0 -60 0 -60 -65 0 -65 0 0 -65 0 -65 -60
0 -60 0 0 -65 0 -65 -65 0 -65 0 0 -60 0 -60 -65 0 -65 0 0 -65 0 -65 65 0 65
0 0 -65 0 -65 65 0 65 0 0 65 0 65 60 0 60 0 0 -65 0 -65 65 0 65 0 0 -60 0
-60 65 0 65 0 0 -65 0 -65 60 0 60 0 0 65 0 65 -60 0 -60 0 0 60 0 60 -65 0
-65 0 0 65 0 65 65 0 65 0 0 65 0 65 -65 0 -65 0 0 60 0 60 65 0 65 0 0 65 0
65 60 0 60 0 0 65 0 65 -60 0 -60 0 0 60 0 60 60 0 60 0 0 65 0 65 65 0 65 0
0 65 0 65 65 0 65 0 0 -65 0 -65 60 0 60 0 0 65 0 65 65 0 65 0 0 -65 0 -65
65 0 65 0 0 65 0 65 -65 0 -65 0 0 60 0 60 -65 0 -65 0 0 65 0 65 -60 0 -60 0
0 -65z m120 -125 l0 -60 -60 0 -60 0 0 60 0 60 60 0 60 0 0 -60z m-500 -505
l0 -65 -65 0 -65 0 0 -65 0 -65 -65 0 -65 0 0 -60 0 -60 65 0 65 0 0 -65 0
-65 -65 0 -65 0 0 65 0 65 -60 0 -60 0 0 -65 0 -65 -65 0 -65 0 0 65 0 65 65
0 65 0 0 60 0 60 60 0 60 0 0 65 0 65 65 0 65 0 0 65 0 65 65 0 65 0 0 -65z"/>
<path d="M11690 6695 l0 -65 -60 0 -60 0 0 -60 0 -60 -65 0 -65 0 0 -65 0 -65
-65 0 -65 0 0 -65 0 -65 -60 0 -60 0 0 -60 0 -60 -65 0 -65 0 0 -65 0 -65 -65
0 -65 0 0 -60 0 -60 -60 0 -60 0 0 -65 0 -65 -65 0 -65 0 0 -65 0 -65 -65 0
-65 0 0 65 0 65 -60 0 -60 0 0 -65 0 -65 -65 0 -65 0 0 -60 0 -60 -65 0 -65 0
0 -65 0 -65 -60 0 -60 0 0 65 0 65 -65 0 -65 0 0 -65 0 -65 -60 0 -60 0 0 -65
0 -65 60 0 60 0 0 -60 0 -60 -60 0 -60 0 0 -65 0 -65 60 0 60 0 0 -65 0 -65
-60 0 -60 0 0 -60 0 -60 60 0 60 0 0 -65 0 -65 65 0 65 0 0 -65 0 -65 60 0 60
0 0 -60 0 -60 -60 0 -60 0 0 -65 0 -65 60 0 60 0 0 -65 0 -65 -60 0 -60 0 0
-60 0 -60 -65 0 -65 0 0 -65 0 -65 -60 0 -60 0 0 -65 0 -65 60 0 60 0 0 -60 0
-60 -60 0 -60 0 0 -65 0 -65 -65 0 -65 0 0 -65 0 -65 65 0 65 0 0 -60 0 -60
-65 0 -65 0 0 -65 0 -65 -65 0 -65 0 0 65 0 65 -60 0 -60 0 0 -65 0 -65 -65 0
-65 0 0 65 0 65 -65 0 -65 0 0 60 0 60 -60 0 -60 0 0 -60 0 -60 60 0 60 0 0
-65 0 -65 65 0 65 0 0 -65 0 -65 65 0 65 0 0 65 0 65 60 0 60 0 0 -65 0 -65
65 0 65 0 0 -60 0 -60 65 0 65 0 0 -65 0 -65 60 0 60 0 0 -65 0 -65 65 0 65 0
0 65 0 65 -65 0 -65 0 0 65 0 65 65 0 65 0 0 60 0 60 60 0 60 0 0 65 0 65 65
0 65 0 0 65 0 65 -65 0 -65 0 0 60 0 60 65 0 65 0 0 65 0 65 65 0 65 0 0 65 0
65 60 0 60 0 0 60 0 60 65 0 65 0 0 65 0 65 65 0 65 0 0 65 0 65 -65 0 -65 0
0 60 0 60 65 0 65 0 0 65 0 65 60 0 60 0 0 65 0 65 65 0 65 0 0 60 0 60 65 0
65 0 0 65 0 65 60 0 60 0 0 65 0 65 65 0 65 0 0 60 0 60 65 0 65 0 0 65 0 65
60 0 60 0 0 65 0 65 -60 0 -60 0 0 60 0 60 60 0 60 0 0 65 0 65 65 0 65 0 0
65 0 65 65 0 65 0 0 60 0 60 60 0 60 0 0 65 0 65 65 0 65 0 0 65 0 65 -65 0
-65 0 0 60 0 60 65 0 65 0 0 65 0 65 65 0 65 0 0 60 0 60 -65 0 -65 0 0 65 0
65 -65 0 -65 0 0 65 0 65 65 0 65 0 0 60 0 60 -65 0 -65 0 0 65 0 65 -60 0
-60 0 0 -65 0 -65 -65 0 -65 0 0 65 0 65 -65 0 -65 0 0 -65z m130 -125 l0 -60
65 0 65 0 0 60 0 60 60 0 60 0 0 -60 0 -60 -60 0 -60 0 0 -65 0 -65 60 0 60 0
0 -65 0 -65 65 0 65 0 0 -60 0 -60 -65 0 -65 0 0 -65 0 -65 -60 0 -60 0 0 -60
0 -60 60 0 60 0 0 -65 0 -65 -60 0 -60 0 0 -65 0 -65 -65 0 -65 0 0 -60 0 -60
-65 0 -65 0 0 -65 0 -65 -60 0 -60 0 0 -65 0 -65 -65 0 -65 0 0 -60 0 -60 65
0 65 0 0 -65 0 -65 -65 0 -65 0 0 -65 0 -65 -65 0 -65 0 0 -60 0 -60 -60 0
-60 0 0 -65 0 -65 -65 0 -65 0 0 -65 0 -65 -65 0 -65 0 0 -60 0 -60 -60 0 -60
0 0 -65 0 -65 -65 0 -65 0 0 -65 0 -65 -65 0 -65 0 0 -60 0 -60 65 0 65 0 0
-65 0 -65 -65 0 -65 0 0 -65 0 -65 -60 0 -60 0 0 -60 0 -60 -65 0 -65 0 0 -65
0 -65 -65 0 -65 0 0 -65 0 -65 -60 0 -60 0 0 -60 0 -60 60 0 60 0 0 -65 0 -65
-60 0 -60 0 0 -65 0 -65 -65 0 -65 0 0 -60 0 -60 -60 0 -60 0 0 60 0 60 -65 0
-65 0 0 65 0 65 65 0 65 0 0 65 0 65 60 0 60 0 0 60 0 60 -60 0 -60 0 0 65 0
65 60 0 60 0 0 65 0 65 65 0 65 0 0 60 0 60 -65 0 -65 0 0 65 0 65 65 0 65 0
0 65 0 65 60 0 60 0 0 60 0 60 65 0 65 0 0 65 0 65 -65 0 -65 0 0 65 0 65 65
0 65 0 0 60 0 60 -65 0 -65 0 0 65 0 65 -60 0 -60 0 0 65 0 65 -65 0 -65 0 0
60 0 60 65 0 65 0 0 65 0 65 -65 0 -65 0 0 65 0 65 65 0 65 0 0 60 0 60 -65 0
-65 0 0 65 0 65 65 0 65 0 0 -65 0 -65 60 0 60 0 0 65 0 65 65 0 65 0 0 65 0
65 65 0 65 0 0 60 0 60 60 0 60 0 0 -60 0 -60 65 0 65 0 0 60 0 60 65 0 65 0
0 65 0 65 60 0 60 0 0 65 0 65 65 0 65 0 0 60 0 60 65 0 65 0 0 65 0 65 60 0
60 0 0 60 0 60 65 0 65 0 0 65 0 65 65 0 65 0 0 65 0 65 60 0 60 0 0 60 0 60
65 0 65 0 0 -60z"/>
<path d="M11690 6445 l0 -65 -60 0 -60 0 0 -65 0 -65 -65 0 -65 0 0 -60 0 -60
-65 0 -65 0 0 -65 0 -65 -60 0 -60 0 0 -60 0 -60 -65 0 -65 0 0 -65 0 -65 -65
0 -65 0 0 -65 0 -65 -60 0 -60 0 0 -60 0 -60 -65 0 -65 0 0 -65 0 -65 -65 0
-65 0 0 65 0 65 -60 0 -60 0 0 -65 0 -65 -65 0 -65 0 0 -65 0 -65 -65 0 -65 0
0 -60 0 -60 -60 0 -60 0 0 -65 0 -65 60 0 60 0 0 -65 0 -65 -60 0 -60 0 0 -60
0 -60 60 0 60 0 0 -65 0 -65 65 0 65 0 0 -65 0 -65 65 0 65 0 0 -60 0 -60 -65
0 -65 0 0 -65 0 -65 65 0 65 0 0 -65 0 -65 -65 0 -65 0 0 -60 0 -60 -65 0 -65
0 0 -65 0 -65 -60 0 -60 0 0 -65 0 -65 60 0 60 0 0 -60 0 -60 -60 0 -60 0 0
-65 0 -65 -65 0 -65 0 0 -65 0 -65 65 0 65 0 0 65 0 65 60 0 60 0 0 65 0 65
65 0 65 0 0 60 0 60 65 0 65 0 0 65 0 65 60 0 60 0 0 65 0 65 -60 0 -60 0 0
60 0 60 60 0 60 0 0 65 0 65 65 0 65 0 0 65 0 65 65 0 65 0 0 60 0 60 60 0 60
0 0 65 0 65 65 0 65 0 0 65 0 65 65 0 65 0 0 60 0 60 60 0 60 0 0 65 0 65 65
0 65 0 0 65 0 65 -65 0 -65 0 0 60 0 60 65 0 65 0 0 65 0 65 65 0 65 0 0 65 0
65 60 0 60 0 0 60 0 60 65 0 65 0 0 65 0 65 65 0 65 0 0 65 0 65 -65 0 -65 0
0 60 0 60 65 0 65 0 0 65 0 65 60 0 60 0 0 60 0 60 -60 0 -60 0 0 65 0 65 -65
0 -65 0 0 65 0 65 -65 0 -65 0 0 -65z m130 -130 l0 -65 65 0 65 0 0 -60 0 -60
-65 0 -65 0 0 -65 0 -65 -65 0 -65 0 0 -60 0 -60 65 0 65 0 0 -65 0 -65 -65 0
-65 0 0 -65 0 -65 -60 0 -60 0 0 -60 0 -60 -65 0 -65 0 0 -65 0 -65 -65 0 -65
0 0 -65 0 -65 -60 0 -60 0 0 -60 0 -60 60 0 60 0 0 -65 0 -65 -60 0 -60 0 0
-65 0 -65 -65 0 -65 0 0 -60 0 -60 -65 0 -65 0 0 -65 0 -65 -60 0 -60 0 0 -65
0 -65 -65 0 -65 0 0 -60 0 -60 -65 0 -65 0 0 -65 0 -65 -60 0 -60 0 0 65 0 65
60 0 60 0 0 60 0 60 -60 0 -60 0 0 65 0 65 -65 0 -65 0 0 65 0 65 -65 0 -65 0
0 60 0 60 65 0 65 0 0 65 0 65 -65 0 -65 0 0 65 0 65 65 0 65 0 0 60 0 60 65
0 65 0 0 65 0 65 60 0 60 0 0 -65 0 -65 65 0 65 0 0 65 0 65 65 0 65 0 0 65 0
65 60 0 60 0 0 60 0 60 65 0 65 0 0 65 0 65 65 0 65 0 0 65 0 65 60 0 60 0 0
60 0 60 65 0 65 0 0 65 0 65 65 0 65 0 0 60 0 60 60 0 60 0 0 65 0 65 65 0 65
0 0 -65z m-1390 -2400 l0 -65 -65 0 -65 0 0 -65 0 -65 -65 0 -65 0 0 65 0 65
65 0 65 0 0 65 0 65 65 0 65 0 0 -65z"/>
<path d="M11690 6190 l0 -60 -60 0 -60 0 0 -65 0 -65 -65 0 -65 0 0 -60 0 -60
-65 0 -65 0 0 -65 0 -65 -60 0 -60 0 0 -65 0 -65 -65 0 -65 0 0 -60 0 -60 -65
0 -65 0 0 -65 0 -65 -60 0 -60 0 0 -65 0 -65 -65 0 -65 0 0 -60 0 -60 -65 0
-65 0 0 60 0 60 -60 0 -60 0 0 -60 0 -60 -65 0 -65 0 0 -65 0 -65 65 0 65 0 0
-65 0 -65 -65 0 -65 0 0 -60 0 -60 65 0 65 0 0 -65 0 -65 60 0 60 0 0 -65 0
-65 65 0 65 0 0 65 0 65 65 0 65 0 0 65 0 65 60 0 60 0 0 60 0 60 65 0 65 0 0
65 0 65 65 0 65 0 0 65 0 65 -65 0 -65 0 0 60 0 60 65 0 65 0 0 65 0 65 60 0
60 0 0 65 0 65 65 0 65 0 0 60 0 60 65 0 65 0 0 65 0 65 60 0 60 0 0 65 0 65
-60 0 -60 0 0 60 0 60 60 0 60 0 0 65 0 65 65 0 65 0 0 60 0 60 -65 0 -65 0 0
-60z m-120 -375 l0 -65 -65 0 -65 0 0 -65 0 -65 -65 0 -65 0 0 -60 0 -60 -60
0 -60 0 0 -65 0 -65 -65 0 -65 0 0 -65 0 -65 -65 0 -65 0 0 -60 0 -60 65 0 65
0 0 -65 0 -65 -65 0 -65 0 0 -65 0 -65 -60 0 -60 0 0 -60 0 -60 -65 0 -65 0 0
-65 0 -65 -65 0 -65 0 0 65 0 65 -60 0 -60 0 0 60 0 60 60 0 60 0 0 65 0 65
-60 0 -60 0 0 65 0 65 60 0 60 0 0 -65 0 -65 65 0 65 0 0 65 0 65 65 0 65 0 0
60 0 60 60 0 60 0 0 65 0 65 65 0 65 0 0 65 0 65 65 0 65 0 0 60 0 60 60 0 60
0 0 65 0 65 65 0 65 0 0 65 0 65 65 0 65 0 0 -65z"/>
<path d="M10810 5055 l0 -65 -65 0 -65 0 0 -65 0 -65 -65 0 -65 0 0 -60 0 -60
65 0 65 0 0 60 0 60 65 0 65 0 0 65 0 65 60 0 60 0 0 65 0 65 -60 0 -60 0 0
-65z"/>
<path d="M9920 3155 l0 -65 -60 0 -60 0 0 -65 0 -65 60 0 60 0 0 65 0 65 65 0
65 0 0 65 0 65 -65 0 -65 0 0 -65z"/>
<path d="M3340 6445 l0 -65 65 0 65 0 0 65 0 65 -65 0 -65 0 0 -65z"/>
<path d="M8020 3785 l0 -65 65 0 65 0 0 65 0 65 -65 0 -65 0 0 -65z"/>
<path d="M8660 3405 l0 -65 60 0 60 0 0 65 0 65 -60 0 -60 0 0 -65z"/>
</g>
</svg>
