<?xml version="1.0" standalone="no"?>
<!DOCTYPE svg PUBLIC "-//W3C//DTD SVG 20010904//EN"
 "http://www.w3.org/TR/2001/REC-SVG-20010904/DTD/svg10.dtd">
<svg version="1.0" xmlns="http://www.w3.org/2000/svg"
 width="1605.000000pt" height="1525.000000pt" viewBox="0 0 1605.000000 1525.000000"
 preserveAspectRatio="xMidYMid meet">

<g transform="translate(0.000000,1525.000000) scale(0.100000,-0.100000)"
fill="#000000" stroke="none">
<path d="M9650 11065 l0 -65 -130 0 -130 0 0 -65 0 -65 -125 0 -125 0 0 -60 0
-60 -190 0 -190 0 0 -65 0 -65 -125 0 -125 0 0 -65 0 -65 -65 0 -65 0 0 -60 0
-60 -315 0 -315 0 0 -65 0 -65 -380 0 -380 0 0 -60 0 -60 -380 0 -380 0 0 -65
0 -65 -380 0 -380 0 0 -65 0 -65 -255 0 -255 0 0 -60 0 -60 -190 0 -190 0 0
-65 0 -65 -250 0 -250 0 0 -65 0 -65 -320 0 -320 0 0 -60 0 -60 -190 0 -190 0
0 -65 0 -65 -190 0 -190 0 0 -65 0 -65 -60 0 -60 0 0 -1140 0 -1140 60 0 60 0
0 -440 0 -440 65 0 65 0 0 -65 0 -65 65 0 65 0 0 -60 0 -60 60 0 60 0 0 -65 0
-65 130 0 130 0 0 -65 0 -65 250 0 250 0 0 -60 0 -60 65 0 65 0 0 -65 0 -65
65 0 65 0 0 -65 0 -65 60 0 60 0 0 -60 0 -60 130 0 130 0 0 -65 0 -65 125 0
125 0 0 -65 0 -65 65 0 65 0 0 -60 0 -60 125 0 125 0 0 -65 0 -65 125 0 125 0
0 -65 0 -65 130 0 130 0 0 -60 0 -60 125 0 125 0 0 -65 0 -65 125 0 125 0 0
-65 0 -65 125 0 125 0 0 -60 0 -60 190 0 190 0 0 -65 0 -65 65 0 65 0 0 -65 0
-65 190 0 190 0 0 -60 0 -60 125 0 125 0 0 -65 0 -65 130 0 130 0 0 -65 0 -65
190 0 190 0 0 -60 0 -60 190 0 190 0 0 -65 0 -65 1325 0 1325 0 0 65 0 65 130
0 130 0 0 60 0 60 125 0 125 0 0 65 0 65 65 0 65 0 0 65 0 65 60 0 60 0 0 60
0 60 65 0 65 0 0 65 0 65 65 0 65 0 0 65 0 65 60 0 60 0 0 60 0 60 65 0 65 0
0 65 0 65 65 0 65 0 0 65 0 65 60 0 60 0 0 60 0 60 65 0 65 0 0 255 0 255 65
0 65 0 0 190 0 190 60 0 60 0 0 255 0 255 65 0 65 0 0 440 0 440 65 0 65 0 0
1075 0 1075 -65 0 -65 0 0 255 0 255 -65 0 -65 0 0 125 0 125 -60 0 -60 0 0
65 0 65 -65 0 -65 0 0 65 0 65 -65 0 -65 0 0 60 0 60 -60 0 -60 0 0 65 0 65
-65 0 -65 0 0 65 0 65 -125 0 -125 0 0 60 0 60 -130 0 -130 0 0 65 0 65 -60 0
-60 0 0 60 0 60 -130 0 -130 0 0 65 0 65 -60 0 -60 0 0 65 0 65 -65 0 -65 0 0
60 0 60 -125 0 -125 0 0 65 0 65 -190 0 -190 0 0 65 0 65 -505 0 -505 0 0 -65z
m880 -130 l0 -65 190 0 190 0 0 -60 0 -60 -65 0 -65 0 0 -255 0 -255 65 0 65
0 0 65 0 65 65 0 65 0 0 60 0 60 -65 0 -65 0 0 65 0 65 65 0 65 0 0 65 0 65
60 0 60 0 0 -65 0 -65 65 0 65 0 0 -65 0 -65 65 0 65 0 0 -60 0 -60 125 0 125
0 0 -65 0 -65 65 0 65 0 0 -60 0 -60 125 0 125 0 0 -65 0 -65 65 0 65 0 0 -65
0 -65 60 0 60 0 0 -60 0 -60 65 0 65 0 0 -65 0 -65 65 0 65 0 0 -65 0 -65 60
0 60 0 0 -60 0 -60 65 0 65 0 0 -65 0 -65 65 0 65 0 0 -65 0 -65 60 0 60 0 0
-250 0 -250 65 0 65 0 0 -950 0 -950 -65 0 -65 0 0 -445 0 -445 -60 0 -60 0 0
-250 0 -250 -65 0 -65 0 0 -190 0 -190 -65 0 -65 0 0 -190 0 -190 -60 0 -60 0
0 -65 0 -65 -65 0 -65 0 0 -65 0 -65 -65 0 -65 0 0 -60 0 -60 -60 0 -60 0 0
-65 0 -65 -65 0 -65 0 0 -65 0 -65 -65 0 -65 0 0 -60 0 -60 -60 0 -60 0 0 -65
0 -65 -65 0 -65 0 0 -65 0 -65 -65 0 -65 0 0 -60 0 -60 -60 0 -60 0 0 -65 0
-65 -65 0 -65 0 0 -65 0 -65 -65 0 -65 0 0 65 0 65 -60 0 -60 0 0 -65 0 -65
-65 0 -65 0 0 -60 0 -60 -65 0 -65 0 0 60 0 60 -60 0 -60 0 0 -60 0 -60 -65 0
-65 0 0 60 0 60 -65 0 -65 0 0 -60 0 -60 -60 0 -60 0 0 60 0 60 -65 0 -65 0 0
-60 0 -60 -65 0 -65 0 0 60 0 60 -60 0 -60 0 0 -60 0 -60 -65 0 -65 0 0 60 0
60 -60 0 -60 0 0 -60 0 -60 -65 0 -65 0 0 60 0 60 -65 0 -65 0 0 -60 0 -60
-60 0 -60 0 0 60 0 60 -65 0 -65 0 0 65 0 65 -65 0 -65 0 0 -65 0 -65 -60 0
-60 0 0 65 0 65 -65 0 -65 0 0 65 0 65 -65 0 -65 0 0 -65 0 -65 -60 0 -60 0 0
65 0 65 -65 0 -65 0 0 60 0 60 -65 0 -65 0 0 -60 0 -60 -60 0 -60 0 0 60 0 60
60 0 60 0 0 65 0 65 -60 0 -60 0 0 65 0 65 60 0 60 0 0 60 0 60 -60 0 -60 0 0
65 0 65 -65 0 -65 0 0 -65 0 -65 -65 0 -65 0 0 -60 0 -60 65 0 65 0 0 -65 0
-65 -65 0 -65 0 0 -65 0 -65 65 0 65 0 0 -60 0 -60 -65 0 -65 0 0 60 0 60 -60
0 -60 0 0 65 0 65 -65 0 -65 0 0 65 0 65 -65 0 -65 0 0 -65 0 -65 -60 0 -60 0
0 65 0 65 -65 0 -65 0 0 60 0 60 -65 0 -65 0 0 65 0 65 -60 0 -60 0 0 -65 0
-65 -65 0 -65 0 0 65 0 65 -65 0 -65 0 0 65 0 65 65 0 65 0 0 60 0 60 -65 0
-65 0 0 190 0 190 -60 0 -60 0 0 -60 0 -60 -65 0 -65 0 0 -65 0 -65 65 0 65 0
0 -65 0 -65 -65 0 -65 0 0 -60 0 -60 65 0 65 0 0 -65 0 -65 -65 0 -65 0 0 65
0 65 -65 0 -65 0 0 60 0 60 -60 0 -60 0 0 65 0 65 -65 0 -65 0 0 -65 0 -65
-65 0 -65 0 0 65 0 65 -60 0 -60 0 0 65 0 65 -65 0 -65 0 0 -65 0 -65 -60 0
-60 0 0 65 0 65 -65 0 -65 0 0 60 0 60 -65 0 -65 0 0 65 0 65 -60 0 -60 0 0
65 0 65 -65 0 -65 0 0 60 0 60 65 0 65 0 0 65 0 65 -65 0 -65 0 0 65 0 65 65
0 65 0 0 60 0 60 -65 0 -65 0 0 65 0 65 65 0 65 0 0 -65 0 -65 60 0 60 0 0 65
0 65 65 0 65 0 0 -65 0 -65 65 0 65 0 0 65 0 65 60 0 60 0 0 -65 0 -65 65 0
65 0 0 65 0 65 60 0 60 0 0 65 0 65 -60 0 -60 0 0 60 0 60 60 0 60 0 0 65 0
65 -60 0 -60 0 0 250 0 250 -65 0 -65 0 0 65 0 65 -315 0 -315 0 0 315 0 315
190 0 190 0 0 65 0 65 65 0 65 0 0 65 0 65 60 0 60 0 0 505 0 505 -315 0 -315
0 0 255 0 255 65 0 65 0 0 60 0 60 190 0 190 0 0 65 0 65 125 0 125 0 0 65 0
65 190 0 190 0 0 -130 0 -130 60 0 60 0 0 130 0 130 190 0 190 0 0 60 0 60
130 0 130 0 0 65 0 65 190 0 190 0 0 65 0 65 60 0 60 0 0 60 0 60 190 0 190 0
0 65 0 65 130 0 130 0 0 65 0 65 190 0 190 0 0 60 0 60 60 0 60 0 0 65 0 65
65 0 65 0 0 -65 0 -65 65 0 65 0 0 -60 0 -60 60 0 60 0 0 185 0 185 130 0 130
0 0 65 0 65 125 0 125 0 0 65 0 65 125 0 125 0 0 60 0 60 65 0 65 0 0 65 0 65
315 0 315 0 0 -65z m-7590 -2150 l0 -65 190 0 190 0 0 -60 0 -60 60 0 60 0 0
-190 0 -190 65 0 65 0 0 190 0 190 255 0 255 0 0 60 0 60 60 0 60 0 0 65 0 65
380 0 380 0 0 -190 0 -190 -60 0 -60 0 0 65 0 65 -190 0 -190 0 0 -65 0 -65
-130 0 -130 0 0 -65 0 -65 -60 0 -60 0 0 -60 0 -60 -65 0 -65 0 0 -65 0 -65
-65 0 -65 0 0 -255 0 -255 65 0 65 0 0 -60 0 -60 65 0 65 0 0 -65 0 -65 125 0
125 0 0 -65 0 -65 315 0 315 0 0 -250 0 -250 -60 0 -60 0 0 -65 0 -65 -320 0
-320 0 0 -65 0 -65 -60 0 -60 0 0 -60 0 -60 -65 0 -65 0 0 -65 0 -65 -65 0
-65 0 0 -60 0 -60 65 0 65 0 0 -65 0 -65 -65 0 -65 0 0 -65 0 -65 65 0 65 0 0
-60 0 -60 65 0 65 0 0 -65 0 -65 60 0 60 0 0 -65 0 -65 65 0 65 0 0 65 0 65
65 0 65 0 0 -65 0 -65 60 0 60 0 0 -60 0 -60 65 0 65 0 0 60 0 60 65 0 65 0 0
65 0 65 60 0 60 0 0 -65 0 -65 -60 0 -60 0 0 -60 0 -60 60 0 60 0 0 -65 0 -65
-60 0 -60 0 0 -65 0 -65 60 0 60 0 0 -60 0 -60 -60 0 -60 0 0 60 0 60 -65 0
-65 0 0 65 0 65 -65 0 -65 0 0 -65 0 -65 -60 0 -60 0 0 65 0 65 -65 0 -65 0 0
65 0 65 -65 0 -65 0 0 60 0 60 -60 0 -60 0 0 65 0 65 -65 0 -65 0 0 65 0 65
-65 0 -65 0 0 60 0 60 -60 0 -60 0 0 65 0 65 60 0 60 0 0 65 0 65 -60 0 -60 0
0 60 0 60 -65 0 -65 0 0 -60 0 -60 -65 0 -65 0 0 -65 0 -65 65 0 65 0 0 -65 0
-65 -65 0 -65 0 0 65 0 65 -60 0 -60 0 0 -65 0 -65 -65 0 -65 0 0 65 0 65 -65
0 -65 0 0 65 0 65 -60 0 -60 0 0 60 0 60 60 0 60 0 0 65 0 65 -60 0 -60 0 0
60 0 60 60 0 60 0 0 65 0 65 -60 0 -60 0 0 65 0 65 60 0 60 0 0 60 0 60 -60 0
-60 0 0 65 0 65 -65 0 -65 0 0 65 0 65 65 0 65 0 0 60 0 60 -65 0 -65 0 0 825
0 825 65 0 65 0 0 -65z m1770 -820 l0 -505 -65 0 -65 0 0 505 0 505 65 0 65 0
0 -505z m-250 -65 l0 -440 -65 0 -65 0 0 60 0 60 -65 0 -65 0 0 65 0 65 -60 0
-60 0 0 65 0 65 -65 0 -65 0 0 60 0 60 65 0 65 0 0 65 0 65 60 0 60 0 0 65 0
65 65 0 65 0 0 60 0 60 65 0 65 0 0 -440z m1140 125 l0 -315 -65 0 -65 0 0
-65 0 -65 -65 0 -65 0 0 -60 0 -60 -250 0 -250 0 0 440 0 440 380 0 380 0 0
-315z m-1140 -1900 l0 -315 -65 0 -65 0 0 65 0 65 -65 0 -65 0 0 65 0 65 -60
0 -60 0 0 60 0 60 60 0 60 0 0 65 0 65 65 0 65 0 0 60 0 60 65 0 65 0 0 -315z
m250 -60 l0 -375 -65 0 -65 0 0 375 0 375 65 0 65 0 0 -375z m890 315 l0 -60
60 0 60 0 0 -255 0 -255 -440 0 -440 0 0 315 0 315 380 0 380 0 0 -60z"/>
<path d="M11040 10555 l0 -65 60 0 60 0 0 -60 0 -60 -60 0 -60 0 0 -65 0 -65
-65 0 -65 0 0 -60 0 -60 -65 0 -65 0 0 -255 0 -255 130 0 130 0 0 -65 0 -65
-65 0 -65 0 0 -190 0 -190 65 0 65 0 0 -60 0 -60 -65 0 -65 0 0 -190 0 -190
65 0 65 0 0 -65 0 -65 60 0 60 0 0 -65 0 -65 -125 0 -125 0 0 -60 0 -60 125 0
125 0 0 -65 0 -65 -60 0 -60 0 0 -190 0 -190 60 0 60 0 0 -65 0 -65 -60 0 -60
0 0 -190 0 -190 60 0 60 0 0 -60 0 -60 -60 0 -60 0 0 -190 0 -190 60 0 60 0 0
-65 0 -65 -60 0 -60 0 0 -315 0 -315 60 0 60 0 0 -65 0 -65 -60 0 -60 0 0
-190 0 -190 60 0 60 0 0 -60 0 -60 -60 0 -60 0 0 -190 0 -190 -65 0 -65 0 0
-65 0 -65 -65 0 -65 0 0 -65 0 -65 65 0 65 0 0 -60 0 -60 -65 0 -65 0 0 -65 0
-65 65 0 65 0 0 -65 0 -65 -65 0 -65 0 0 -60 0 -60 -60 0 -60 0 0 -65 0 -65
-65 0 -65 0 0 65 0 65 -65 0 -65 0 0 -65 0 -65 65 0 65 0 0 -65 0 -65 -65 0
-65 0 0 -60 0 -60 -60 0 -60 0 0 -65 0 -65 -65 0 -65 0 0 65 0 65 -65 0 -65 0
0 -65 0 -65 -60 0 -60 0 0 125 0 125 -125 0 -125 0 0 65 0 65 125 0 125 0 0
255 0 255 -65 0 -65 0 0 60 0 60 -60 0 -60 0 0 65 0 65 60 0 60 0 0 695 0 695
-60 0 -60 0 0 65 0 65 60 0 60 0 0 315 0 315 -60 0 -60 0 0 315 0 315 -65 0
-65 0 0 65 0 65 -65 0 -65 0 0 -65 0 -65 65 0 65 0 0 -60 0 -60 -65 0 -65 0 0
-65 0 -65 65 0 65 0 0 -65 0 -65 -65 0 -65 0 0 -60 0 -60 65 0 65 0 0 -65 0
-65 -65 0 -65 0 0 -65 0 -65 65 0 65 0 0 -60 0 -60 -65 0 -65 0 0 -65 0 -65
65 0 65 0 0 -65 0 -65 -65 0 -65 0 0 -60 0 -60 65 0 65 0 0 -65 0 -65 -65 0
-65 0 0 -60 0 -60 65 0 65 0 0 -65 0 -65 -65 0 -65 0 0 -65 0 -65 65 0 65 0 0
-60 0 -60 -65 0 -65 0 0 -65 0 -65 65 0 65 0 0 -65 0 -65 -65 0 -65 0 0 -60 0
-60 -60 0 -60 0 0 -65 0 -65 60 0 60 0 0 -65 0 -65 -60 0 -60 0 0 -60 0 -60
60 0 60 0 0 -65 0 -65 -60 0 -60 0 0 -65 0 -65 60 0 60 0 0 -60 0 -60 -60 0
-60 0 0 -65 0 -65 60 0 60 0 0 -65 0 -65 -60 0 -60 0 0 -60 0 -60 60 0 60 0 0
-65 0 -65 -60 0 -60 0 0 -65 0 -65 -65 0 -65 0 0 -60 0 -60 -65 0 -65 0 0 -65
0 -65 -60 0 -60 0 0 -65 0 -65 -65 0 -65 0 0 65 0 65 -65 0 -65 0 0 -65 0 -65
-60 0 -60 0 0 65 0 65 -65 0 -65 0 0 65 0 65 -65 0 -65 0 0 -65 0 -65 65 0 65
0 0 -65 0 -65 65 0 65 0 0 -60 0 -60 60 0 60 0 0 60 0 60 65 0 65 0 0 -60 0
-60 65 0 65 0 0 -65 0 -65 60 0 60 0 0 65 0 65 65 0 65 0 0 -65 0 -65 65 0 65
0 0 -65 0 -65 60 0 60 0 0 65 0 65 65 0 65 0 0 -65 0 -65 65 0 65 0 0 65 0 65
60 0 60 0 0 -65 0 -65 65 0 65 0 0 65 0 65 60 0 60 0 0 -65 0 -65 65 0 65 0 0
65 0 65 65 0 65 0 0 -65 0 -65 60 0 60 0 0 65 0 65 65 0 65 0 0 -65 0 -65 65
0 65 0 0 65 0 65 60 0 60 0 0 -65 0 -65 65 0 65 0 0 65 0 65 65 0 65 0 0 65 0
65 60 0 60 0 0 -65 0 -65 65 0 65 0 0 65 0 65 65 0 65 0 0 60 0 60 60 0 60 0
0 65 0 65 65 0 65 0 0 65 0 65 -65 0 -65 0 0 60 0 60 65 0 65 0 0 65 0 65 -65
0 -65 0 0 65 0 65 65 0 65 0 0 60 0 60 -65 0 -65 0 0 65 0 65 65 0 65 0 0 65
0 65 -65 0 -65 0 0 60 0 60 65 0 65 0 0 65 0 65 -65 0 -65 0 0 65 0 65 65 0
65 0 0 60 0 60 65 0 65 0 0 65 0 65 -65 0 -65 0 0 65 0 65 65 0 65 0 0 60 0
60 -65 0 -65 0 0 65 0 65 65 0 65 0 0 65 0 65 -65 0 -65 0 0 60 0 60 65 0 65
0 0 65 0 65 -65 0 -65 0 0 65 0 65 65 0 65 0 0 60 0 60 -65 0 -65 0 0 65 0 65
65 0 65 0 0 60 0 60 -65 0 -65 0 0 65 0 65 65 0 65 0 0 65 0 65 -65 0 -65 0 0
60 0 60 65 0 65 0 0 65 0 65 -65 0 -65 0 0 65 0 65 65 0 65 0 0 60 0 60 60 0
60 0 0 65 0 65 -60 0 -60 0 0 65 0 65 -65 0 -65 0 0 60 0 60 65 0 65 0 0 65 0
65 -65 0 -65 0 0 65 0 65 65 0 65 0 0 60 0 60 -65 0 -65 0 0 65 0 65 65 0 65
0 0 65 0 65 -65 0 -65 0 0 60 0 60 65 0 65 0 0 65 0 65 -65 0 -65 0 0 65 0 65
65 0 65 0 0 60 0 60 -65 0 -65 0 0 65 0 65 65 0 65 0 0 65 0 65 -65 0 -65 0 0
60 0 60 65 0 65 0 0 65 0 65 -65 0 -65 0 0 65 0 65 -65 0 -65 0 0 60 0 60 65
0 65 0 0 65 0 65 -65 0 -65 0 0 65 0 65 65 0 65 0 0 60 0 60 -65 0 -65 0 0 65
0 65 65 0 65 0 0 65 0 65 -65 0 -65 0 0 60 0 60 -60 0 -60 0 0 65 0 65 -65 0
-65 0 0 60 0 60 -65 0 -65 0 0 65 0 65 -60 0 -60 0 0 -65z m250 -250 l0 -65
65 0 65 0 0 -60 0 -60 60 0 60 0 0 -65 0 -65 -60 0 -60 0 0 -65 0 -65 60 0 60
0 0 -60 0 -60 -60 0 -60 0 0 -65 0 -65 60 0 60 0 0 -65 0 -65 -60 0 -60 0 0
-60 0 -60 60 0 60 0 0 -65 0 -65 65 0 65 0 0 -65 0 -65 -65 0 -65 0 0 -60 0
-60 65 0 65 0 0 -65 0 -65 -65 0 -65 0 0 -65 0 -65 65 0 65 0 0 -60 0 -60 -65
0 -65 0 0 -65 0 -65 65 0 65 0 0 -65 0 -65 -65 0 -65 0 0 -60 0 -60 65 0 65 0
0 -65 0 -65 -65 0 -65 0 0 -65 0 -65 65 0 65 0 0 -60 0 -60 -65 0 -65 0 0 -65
0 -65 65 0 65 0 0 -65 0 -65 -65 0 -65 0 0 -60 0 -60 65 0 65 0 0 -65 0 -65
65 0 65 0 0 -65 0 -65 -65 0 -65 0 0 -60 0 -60 -65 0 -65 0 0 -65 0 -65 65 0
65 0 0 -65 0 -65 -65 0 -65 0 0 -60 0 -60 65 0 65 0 0 -65 0 -65 -65 0 -65 0
0 -65 0 -65 65 0 65 0 0 -60 0 -60 -65 0 -65 0 0 -65 0 -65 65 0 65 0 0 -60 0
-60 -65 0 -65 0 0 -65 0 -65 65 0 65 0 0 -65 0 -65 -65 0 -65 0 0 -60 0 -60
65 0 65 0 0 -65 0 -65 -65 0 -65 0 0 -65 0 -65 65 0 65 0 0 -60 0 -60 -65 0
-65 0 0 -65 0 -65 65 0 65 0 0 -65 0 -65 -65 0 -65 0 0 -60 0 -60 -60 0 -60 0
0 -65 0 -65 60 0 60 0 0 -65 0 -65 -60 0 -60 0 0 -60 0 -60 60 0 60 0 0 -65 0
-65 -60 0 -60 0 0 -65 0 -65 60 0 60 0 0 -60 0 -60 -60 0 -60 0 0 -65 0 -65
60 0 60 0 0 -65 0 -65 -60 0 -60 0 0 -60 0 -60 60 0 60 0 0 -65 0 -65 -60 0
-60 0 0 -65 0 -65 -65 0 -65 0 0 -60 0 -60 -65 0 -65 0 0 60 0 60 -60 0 -60 0
0 -60 0 -60 -65 0 -65 0 0 -65 0 -65 -65 0 -65 0 0 65 0 65 65 0 65 0 0 60 0
60 -65 0 -65 0 0 65 0 65 -60 0 -60 0 0 -65 0 -65 -65 0 -65 0 0 -60 0 -60 65
0 65 0 0 -65 0 -65 -65 0 -65 0 0 65 0 65 -65 0 -65 0 0 -65 0 -65 -60 0 -60
0 0 65 0 65 -65 0 -65 0 0 -65 0 -65 -65 0 -65 0 0 65 0 65 -60 0 -60 0 0 -65
0 -65 -65 0 -65 0 0 65 0 65 65 0 65 0 0 60 0 60 -65 0 -65 0 0 65 0 65 -60 0
-60 0 0 -65 0 -65 -65 0 -65 0 0 -60 0 -60 65 0 65 0 0 -65 0 -65 -65 0 -65 0
0 65 0 65 -65 0 -65 0 0 -65 0 -65 -60 0 -60 0 0 65 0 65 -65 0 -65 0 0 60 0
60 -65 0 -65 0 0 -60 0 -60 -60 0 -60 0 0 60 0 60 60 0 60 0 0 65 0 65 65 0
65 0 0 65 0 65 65 0 65 0 0 60 0 60 60 0 60 0 0 65 0 65 65 0 65 0 0 65 0 65
-65 0 -65 0 0 60 0 60 65 0 65 0 0 65 0 65 -65 0 -65 0 0 65 0 65 65 0 65 0 0
60 0 60 -65 0 -65 0 0 65 0 65 65 0 65 0 0 65 0 65 -65 0 -65 0 0 60 0 60 65
0 65 0 0 65 0 65 -65 0 -65 0 0 65 0 65 65 0 65 0 0 60 0 60 65 0 65 0 0 -60
0 -60 -65 0 -65 0 0 -65 0 -65 65 0 65 0 0 -65 0 -65 -65 0 -65 0 0 -60 0 -60
65 0 65 0 0 -65 0 -65 -65 0 -65 0 0 -65 0 -65 65 0 65 0 0 -60 0 -60 60 0 60
0 0 -65 0 -65 -60 0 -60 0 0 -65 0 -65 60 0 60 0 0 -60 0 -60 -60 0 -60 0 0
-65 0 -65 -65 0 -65 0 0 -65 0 -65 65 0 65 0 0 -60 0 -60 60 0 60 0 0 -65 0
-65 65 0 65 0 0 -65 0 -65 60 0 60 0 0 65 0 65 65 0 65 0 0 -65 0 -65 65 0 65
0 0 65 0 65 60 0 60 0 0 65 0 65 65 0 65 0 0 60 0 60 65 0 65 0 0 65 0 65 60
0 60 0 0 65 0 65 65 0 65 0 0 60 0 60 65 0 65 0 0 65 0 65 60 0 60 0 0 65 0
65 -60 0 -60 0 0 60 0 60 -65 0 -65 0 0 65 0 65 65 0 65 0 0 -65 0 -65 60 0
60 0 0 65 0 65 65 0 65 0 0 65 0 65 -65 0 -65 0 0 60 0 60 65 0 65 0 0 65 0
65 -65 0 -65 0 0 65 0 65 65 0 65 0 0 60 0 60 -65 0 -65 0 0 65 0 65 65 0 65
0 0 65 0 65 -65 0 -65 0 0 60 0 60 65 0 65 0 0 65 0 65 -65 0 -65 0 0 65 0 65
65 0 65 0 0 60 0 60 -65 0 -65 0 0 65 0 65 65 0 65 0 0 60 0 60 -65 0 -65 0 0
65 0 65 65 0 65 0 0 65 0 65 -65 0 -65 0 0 60 0 60 65 0 65 0 0 65 0 65 -65 0
-65 0 0 65 0 65 65 0 65 0 0 60 0 60 -65 0 -65 0 0 65 0 65 65 0 65 0 0 65 0
65 -65 0 -65 0 0 60 0 60 65 0 65 0 0 65 0 65 -65 0 -65 0 0 65 0 65 65 0 65
0 0 60 0 60 -65 0 -65 0 0 65 0 65 65 0 65 0 0 65 0 65 -65 0 -65 0 0 60 0 60
65 0 65 0 0 65 0 65 -65 0 -65 0 0 65 0 65 -60 0 -60 0 0 60 0 60 60 0 60 0 0
65 0 65 -60 0 -60 0 0 65 0 65 60 0 60 0 0 60 0 60 -60 0 -60 0 0 65 0 65 60
0 60 0 0 65 0 65 -60 0 -60 0 0 60 0 60 60 0 60 0 0 65 0 65 -60 0 -60 0 0 65
0 65 -65 0 -65 0 0 60 0 60 65 0 65 0 0 65 0 65 -65 0 -65 0 0 65 0 65 65 0
65 0 0 60 0 60 60 0 60 0 0 65 0 65 65 0 65 0 0 -65z m-1640 -3420 l0 -65 -65
0 -65 0 0 65 0 65 65 0 65 0 0 -65z m0 -250 l0 -65 -65 0 -65 0 0 65 0 65 65
0 65 0 0 -65z m0 -255 l0 -60 -65 0 -65 0 0 60 0 60 65 0 65 0 0 -60z m0 -250
l0 -60 -65 0 -65 0 0 60 0 60 65 0 65 0 0 -60z m0 -255 l0 -65 -65 0 -65 0 0
65 0 65 65 0 65 0 0 -65z m0 -250 l0 -65 -65 0 -65 0 0 65 0 65 65 0 65 0 0
-65z"/>
<path d="M11160 10180 l0 -60 -60 0 -60 0 0 -65 0 -65 60 0 60 0 0 -65 0 -65
-60 0 -60 0 0 -60 0 -60 60 0 60 0 0 -65 0 -65 65 0 65 0 0 -65 0 -65 -65 0
-65 0 0 -60 0 -60 65 0 65 0 0 -65 0 -65 -65 0 -65 0 0 -65 0 -65 65 0 65 0 0
-60 0 -60 -65 0 -65 0 0 -65 0 -65 65 0 65 0 0 -65 0 -65 -65 0 -65 0 0 -60 0
-60 65 0 65 0 0 -65 0 -65 65 0 65 0 0 -65 0 -65 -65 0 -65 0 0 -60 0 -60 65
0 65 0 0 -65 0 -65 -65 0 -65 0 0 -65 0 -65 65 0 65 0 0 -60 0 -60 -65 0 -65
0 0 -65 0 -65 65 0 65 0 0 -65 0 -65 -65 0 -65 0 0 -60 0 -60 65 0 65 0 0 -65
0 -65 -65 0 -65 0 0 -65 0 -65 65 0 65 0 0 -60 0 -60 -65 0 -65 0 0 -65 0 -65
65 0 65 0 0 -65 0 -65 -65 0 -65 0 0 -60 0 -60 65 0 65 0 0 -65 0 -65 -65 0
-65 0 0 -65 0 -65 65 0 65 0 0 -60 0 -60 -65 0 -65 0 0 -65 0 -65 65 0 65 0 0
-60 0 -60 -65 0 -65 0 0 -65 0 -65 65 0 65 0 0 -65 0 -65 -65 0 -65 0 0 -60 0
-60 65 0 65 0 0 -65 0 -65 -65 0 -65 0 0 -65 0 -65 65 0 65 0 0 -60 0 -60 -65
0 -65 0 0 -65 0 -65 65 0 65 0 0 -65 0 -65 -65 0 -65 0 0 -60 0 -60 65 0 65 0
0 60 0 60 60 0 60 0 0 65 0 65 -60 0 -60 0 0 65 0 65 60 0 60 0 0 60 0 60 -60
0 -60 0 0 65 0 65 60 0 60 0 0 65 0 65 -60 0 -60 0 0 60 0 60 60 0 60 0 0 65
0 65 -60 0 -60 0 0 65 0 65 60 0 60 0 0 60 0 60 -60 0 -60 0 0 65 0 65 60 0
60 0 0 60 0 60 -60 0 -60 0 0 65 0 65 60 0 60 0 0 65 0 65 -60 0 -60 0 0 60 0
60 60 0 60 0 0 65 0 65 -60 0 -60 0 0 65 0 65 60 0 60 0 0 60 0 60 65 0 65 0
0 65 0 65 -65 0 -65 0 0 65 0 65 -60 0 -60 0 0 60 0 60 60 0 60 0 0 65 0 65
-60 0 -60 0 0 65 0 65 60 0 60 0 0 60 0 60 -60 0 -60 0 0 65 0 65 60 0 60 0 0
65 0 65 -60 0 -60 0 0 60 0 60 60 0 60 0 0 65 0 65 -60 0 -60 0 0 65 0 65 60
0 60 0 0 60 0 60 -60 0 -60 0 0 65 0 65 60 0 60 0 0 65 0 65 -60 0 -60 0 0 60
0 60 60 0 60 0 0 65 0 65 -60 0 -60 0 0 65 0 65 -65 0 -65 0 0 60 0 60 65 0
65 0 0 65 0 65 -65 0 -65 0 0 65 0 65 65 0 65 0 0 60 0 60 -65 0 -65 0 0 65 0
65 65 0 65 0 0 65 0 65 -65 0 -65 0 0 60 0 60 -65 0 -65 0 0 -60z m130 -125
l0 -65 -65 0 -65 0 0 65 0 65 65 0 65 0 0 -65z m0 -255 l0 -60 -65 0 -65 0 0
60 0 60 65 0 65 0 0 -60z m130 -635 l0 -65 -65 0 -65 0 0 65 0 65 65 0 65 0 0
-65z m0 -250 l0 -65 -65 0 -65 0 0 65 0 65 65 0 65 0 0 -65z m0 -255 l0 -60
-65 0 -65 0 0 60 0 60 65 0 65 0 0 -60z m120 -1395 l0 -65 -60 0 -60 0 0 65 0
65 60 0 60 0 0 -65z"/>
<path d="M11290 4735 l0 -65 -65 0 -65 0 0 -60 0 -60 65 0 65 0 0 -65 0 -65
-65 0 -65 0 0 -65 0 -65 -60 0 -60 0 0 -60 0 -60 -65 0 -65 0 0 -65 0 -65 -65
0 -65 0 0 -65 0 -65 -60 0 -60 0 0 -60 0 -60 -65 0 -65 0 0 -65 0 -65 -65 0
-65 0 0 -65 0 -65 -60 0 -60 0 0 -60 0 -60 60 0 60 0 0 60 0 60 65 0 65 0 0
65 0 65 65 0 65 0 0 65 0 65 60 0 60 0 0 -65 0 -65 65 0 65 0 0 -65 0 -65 65
0 65 0 0 65 0 65 60 0 60 0 0 -65 0 -65 65 0 65 0 0 65 0 65 65 0 65 0 0 65 0
65 -65 0 -65 0 0 60 0 60 65 0 65 0 0 65 0 65 -65 0 -65 0 0 65 0 65 65 0 65
0 0 60 0 60 -65 0 -65 0 0 65 0 65 65 0 65 0 0 65 0 65 -65 0 -65 0 0 60 0 60
65 0 65 0 0 65 0 65 -65 0 -65 0 0 -65z m0 -505 l0 -60 -65 0 -65 0 0 -65 0
-65 65 0 65 0 0 -65 0 -65 -65 0 -65 0 0 -60 0 -60 65 0 65 0 0 -65 0 -65 -65
0 -65 0 0 65 0 65 -60 0 -60 0 0 -65 0 -65 -65 0 -65 0 0 65 0 65 65 0 65 0 0
60 0 60 -65 0 -65 0 0 65 0 65 65 0 65 0 0 65 0 65 60 0 60 0 0 60 0 60 65 0
65 0 0 -60z"/>
<path d="M11040 3975 l0 -65 60 0 60 0 0 65 0 65 -60 0 -60 0 0 -65z"/>
<path d="M9520 4485 l0 -65 65 0 65 0 0 65 0 65 -65 0 -65 0 0 -65z"/>
<path d="M9520 4230 l0 -60 65 0 65 0 0 60 0 60 -65 0 -65 0 0 -60z"/>
<path d="M9390 3850 l0 -60 -60 0 -60 0 0 -65 0 -65 -65 0 -65 0 0 -65 0 -65
65 0 65 0 0 -60 0 -60 60 0 60 0 0 60 0 60 65 0 65 0 0 65 0 65 65 0 65 0 0
65 0 65 -65 0 -65 0 0 60 0 60 -65 0 -65 0 0 -60z m130 -125 l0 -65 -65 0 -65
0 0 -65 0 -65 -60 0 -60 0 0 65 0 65 60 0 60 0 0 65 0 65 65 0 65 0 0 -65z"/>
<path d="M10020 3470 l0 -60 65 0 65 0 0 60 0 60 -65 0 -65 0 0 -60z"/>
<path d="M9010 9990 l0 -130 65 0 65 0 0 130 0 130 -65 0 -65 0 0 -130z"/>
<path d="M11920 9800 l0 -190 65 0 65 0 0 -65 0 -65 -65 0 -65 0 0 -190 0
-190 65 0 65 0 0 -60 0 -60 -65 0 -65 0 0 -255 0 -255 65 0 65 0 0 -255 0
-255 65 0 65 0 0 -60 0 -60 -65 0 -65 0 0 -320 0 -320 65 0 65 0 0 -60 0 -60
-65 0 -65 0 0 -65 0 -65 65 0 65 0 0 -65 0 -65 -65 0 -65 0 0 -60 0 -60 65 0
65 0 0 -65 0 -65 -65 0 -65 0 0 -190 0 -190 65 0 65 0 0 -60 0 -60 -65 0 -65
0 0 -190 0 -190 65 0 65 0 0 -65 0 -65 -130 0 -130 0 0 -125 0 -125 65 0 65 0
0 -65 0 -65 -65 0 -65 0 0 -315 0 -315 65 0 65 0 0 -65 0 -65 -65 0 -65 0 0
-190 0 -190 65 0 65 0 0 65 0 65 65 0 65 0 0 60 0 60 60 0 60 0 0 65 0 65 65
0 65 0 0 65 0 65 65 0 65 0 0 60 0 60 -65 0 -65 0 0 65 0 65 65 0 65 0 0 65 0
65 60 0 60 0 0 60 0 60 -60 0 -60 0 0 65 0 65 60 0 60 0 0 65 0 65 -60 0 -60
0 0 60 0 60 60 0 60 0 0 65 0 65 65 0 65 0 0 65 0 65 -65 0 -65 0 0 60 0 60
65 0 65 0 0 65 0 65 -65 0 -65 0 0 65 0 65 65 0 65 0 0 60 0 60 -65 0 -65 0 0
65 0 65 65 0 65 0 0 60 0 60 65 0 65 0 0 65 0 65 -65 0 -65 0 0 65 0 65 65 0
65 0 0 60 0 60 -65 0 -65 0 0 65 0 65 65 0 65 0 0 65 0 65 -65 0 -65 0 0 60 0
60 65 0 65 0 0 65 0 65 -65 0 -65 0 0 65 0 65 65 0 65 0 0 60 0 60 -65 0 -65
0 0 65 0 65 65 0 65 0 0 65 0 65 -65 0 -65 0 0 60 0 60 65 0 65 0 0 65 0 65
-65 0 -65 0 0 65 0 65 65 0 65 0 0 60 0 60 -65 0 -65 0 0 65 0 65 65 0 65 0 0
65 0 65 -65 0 -65 0 0 60 0 60 65 0 65 0 0 65 0 65 -65 0 -65 0 0 65 0 65 65
0 65 0 0 60 0 60 -65 0 -65 0 0 65 0 65 -65 0 -65 0 0 65 0 65 -60 0 -60 0 0
60 0 60 -65 0 -65 0 0 65 0 65 -65 0 -65 0 0 65 0 65 -60 0 -60 0 0 60 0 60
-65 0 -65 0 0 65 0 65 -65 0 -65 0 0 -190z m260 -125 l0 -65 60 0 60 0 0 -65
0 -65 65 0 65 0 0 -60 0 -60 65 0 65 0 0 -65 0 -65 60 0 60 0 0 -65 0 -65 65
0 65 0 0 -60 0 -60 -65 0 -65 0 0 -65 0 -65 65 0 65 0 0 -65 0 -65 -65 0 -65
0 0 -60 0 -60 65 0 65 0 0 -65 0 -65 -65 0 -65 0 0 -65 0 -65 65 0 65 0 0 -60
0 -60 -65 0 -65 0 0 -65 0 -65 65 0 65 0 0 -65 0 -65 -65 0 -65 0 0 -60 0 -60
65 0 65 0 0 -65 0 -65 -65 0 -65 0 0 -65 0 -65 65 0 65 0 0 -60 0 -60 -65 0
-65 0 0 -65 0 -65 65 0 65 0 0 -65 0 -65 -65 0 -65 0 0 -60 0 -60 65 0 65 0 0
-65 0 -65 -65 0 -65 0 0 -65 0 -65 65 0 65 0 0 -60 0 -60 -65 0 -65 0 0 -65 0
-65 65 0 65 0 0 -65 0 -65 -65 0 -65 0 0 -60 0 -60 -60 0 -60 0 0 -65 0 -65
60 0 60 0 0 -60 0 -60 -60 0 -60 0 0 -65 0 -65 60 0 60 0 0 -65 0 -65 -60 0
-60 0 0 -60 0 -60 60 0 60 0 0 -65 0 -65 -60 0 -60 0 0 -65 0 -65 -65 0 -65 0
0 -60 0 -60 65 0 65 0 0 -65 0 -65 -65 0 -65 0 0 -65 0 -65 65 0 65 0 0 -60 0
-60 -65 0 -65 0 0 -65 0 -65 -65 0 -65 0 0 -65 0 -65 65 0 65 0 0 -60 0 -60
-65 0 -65 0 0 -65 0 -65 -60 0 -60 0 0 -65 0 -65 -65 0 -65 0 0 65 0 65 65 0
65 0 0 65 0 65 -65 0 -65 0 0 60 0 60 65 0 65 0 0 65 0 65 -65 0 -65 0 0 65 0
65 65 0 65 0 0 60 0 60 -65 0 -65 0 0 65 0 65 65 0 65 0 0 65 0 65 -65 0 -65
0 0 60 0 60 65 0 65 0 0 65 0 65 60 0 60 0 0 65 0 65 -60 0 -60 0 0 60 0 60
60 0 60 0 0 65 0 65 -60 0 -60 0 0 65 0 65 60 0 60 0 0 60 0 60 -60 0 -60 0 0
65 0 65 60 0 60 0 0 60 0 60 -60 0 -60 0 0 65 0 65 60 0 60 0 0 65 0 65 -60 0
-60 0 0 60 0 60 60 0 60 0 0 65 0 65 -60 0 -60 0 0 65 0 65 60 0 60 0 0 60 0
60 -60 0 -60 0 0 65 0 65 60 0 60 0 0 65 0 65 -60 0 -60 0 0 60 0 60 60 0 60
0 0 65 0 65 -60 0 -60 0 0 65 0 65 60 0 60 0 0 60 0 60 -60 0 -60 0 0 65 0 65
60 0 60 0 0 65 0 65 -60 0 -60 0 0 60 0 60 60 0 60 0 0 65 0 65 -60 0 -60 0 0
65 0 65 -65 0 -65 0 0 60 0 60 65 0 65 0 0 65 0 65 -65 0 -65 0 0 65 0 65 65
0 65 0 0 60 0 60 -65 0 -65 0 0 65 0 65 65 0 65 0 0 65 0 65 -65 0 -65 0 0 60
0 60 65 0 65 0 0 65 0 65 -65 0 -65 0 0 65 0 65 65 0 65 0 0 -65z"/>
<path d="M12180 9420 l0 -60 60 0 60 0 0 -65 0 -65 -60 0 -60 0 0 -65 0 -65
60 0 60 0 0 -60 0 -60 -60 0 -60 0 0 -65 0 -65 60 0 60 0 0 -65 0 -65 -60 0
-60 0 0 -60 0 -60 60 0 60 0 0 -65 0 -65 65 0 65 0 0 -65 0 -65 -65 0 -65 0 0
-60 0 -60 65 0 65 0 0 -65 0 -65 -65 0 -65 0 0 -65 0 -65 65 0 65 0 0 -60 0
-60 -65 0 -65 0 0 -65 0 -65 65 0 65 0 0 -65 0 -65 -65 0 -65 0 0 -60 0 -60
65 0 65 0 0 -65 0 -65 -65 0 -65 0 0 -65 0 -65 65 0 65 0 0 -60 0 -60 -65 0
-65 0 0 -65 0 -65 65 0 65 0 0 -65 0 -65 -65 0 -65 0 0 -60 0 -60 65 0 65 0 0
-65 0 -65 -65 0 -65 0 0 -65 0 -65 65 0 65 0 0 -60 0 -60 -65 0 -65 0 0 -65 0
-65 65 0 65 0 0 -60 0 -60 -65 0 -65 0 0 -65 0 -65 65 0 65 0 0 -65 0 -65 -65
0 -65 0 0 -60 0 -60 65 0 65 0 0 -65 0 -65 -65 0 -65 0 0 -65 0 -65 -60 0 -60
0 0 -60 0 -60 60 0 60 0 0 -65 0 -65 -60 0 -60 0 0 -65 0 -65 60 0 60 0 0 -60
0 -60 -60 0 -60 0 0 -65 0 -65 60 0 60 0 0 65 0 65 65 0 65 0 0 60 0 60 -65 0
-65 0 0 65 0 65 65 0 65 0 0 65 0 65 -65 0 -65 0 0 60 0 60 65 0 65 0 0 65 0
65 65 0 65 0 0 65 0 65 -65 0 -65 0 0 60 0 60 65 0 65 0 0 65 0 65 -65 0 -65
0 0 65 0 65 65 0 65 0 0 60 0 60 -65 0 -65 0 0 65 0 65 65 0 65 0 0 60 0 60
60 0 60 0 0 65 0 65 -60 0 -60 0 0 65 0 65 60 0 60 0 0 60 0 60 -60 0 -60 0 0
65 0 65 60 0 60 0 0 65 0 65 -60 0 -60 0 0 60 0 60 60 0 60 0 0 65 0 65 -60 0
-60 0 0 65 0 65 60 0 60 0 0 60 0 60 -60 0 -60 0 0 65 0 65 60 0 60 0 0 65 0
65 -60 0 -60 0 0 60 0 60 60 0 60 0 0 65 0 65 -60 0 -60 0 0 65 0 65 60 0 60
0 0 60 0 60 -60 0 -60 0 0 65 0 65 60 0 60 0 0 65 0 65 -60 0 -60 0 0 60 0 60
60 0 60 0 0 65 0 65 -60 0 -60 0 0 65 0 65 60 0 60 0 0 60 0 60 -60 0 -60 0 0
65 0 65 -65 0 -65 0 0 65 0 65 -65 0 -65 0 0 60 0 60 -60 0 -60 0 0 -60z m250
-255 l0 -65 65 0 65 0 0 -60 0 -60 -65 0 -65 0 0 -65 0 -65 65 0 65 0 0 -65 0
-65 -65 0 -65 0 0 -60 0 -60 65 0 65 0 0 -65 0 -65 -65 0 -65 0 0 65 0 65 -65
0 -65 0 0 60 0 60 65 0 65 0 0 65 0 65 -65 0 -65 0 0 65 0 65 65 0 65 0 0 60
0 60 -65 0 -65 0 0 65 0 65 65 0 65 0 0 -65z m130 -885 l0 -60 -65 0 -65 0 0
60 0 60 65 0 65 0 0 -60z m0 -255 l0 -65 -65 0 -65 0 0 65 0 65 65 0 65 0 0
-65z m0 -250 l0 -65 -65 0 -65 0 0 65 0 65 65 0 65 0 0 -65z m0 -255 l0 -60
-65 0 -65 0 0 60 0 60 65 0 65 0 0 -60z m0 -255 l0 -65 -65 0 -65 0 0 65 0 65
65 0 65 0 0 -65z m0 -250 l0 -65 -65 0 -65 0 0 65 0 65 65 0 65 0 0 -65z m0
-255 l0 -60 -65 0 -65 0 0 60 0 60 65 0 65 0 0 -60z m0 -255 l0 -65 -65 0 -65
0 0 65 0 65 65 0 65 0 0 -65z"/>
<path d="M12180 4610 l0 -60 60 0 60 0 0 60 0 60 -60 0 -60 0 0 -60z"/>
<path d="M9010 9675 l0 -65 65 0 65 0 0 65 0 65 -65 0 -65 0 0 -65z"/>
<path d="M7240 9355 l0 -125 65 0 65 0 0 -190 0 -190 -65 0 -65 0 0 -65 0 -65
65 0 65 0 0 -60 0 -60 60 0 60 0 0 -65 0 -65 -60 0 -60 0 0 -65 0 -65 60 0 60
0 0 -60 0 -60 -60 0 -60 0 0 -65 0 -65 60 0 60 0 0 -65 0 -65 65 0 65 0 0 -60
0 -60 -65 0 -65 0 0 -65 0 -65 65 0 65 0 0 -65 0 -65 125 0 125 0 0 65 0 65
-60 0 -60 0 0 125 0 125 -65 0 -65 0 0 445 0 445 -65 0 -65 0 0 190 0 190 -60
0 -60 0 0 125 0 125 -65 0 -65 0 0 -125z m250 -570 l0 -65 -60 0 -60 0 0 65 0
65 60 0 60 0 0 -65z"/>
<path d="M9140 9105 l0 -125 65 0 65 0 0 125 0 125 -65 0 -65 0 0 -125z"/>
<path d="M6230 8595 l0 -255 60 0 60 0 0 -125 0 -125 65 0 65 0 0 190 0 190
-65 0 -65 0 0 190 0 190 -60 0 -60 0 0 -255z"/>
<path d="M9140 8725 l0 -125 65 0 65 0 0 -190 0 -190 60 0 60 0 0 190 0 190
-60 0 -60 0 0 60 0 60 60 0 60 0 0 65 0 65 -125 0 -125 0 0 -125z"/>
<path d="M9270 8025 l0 -65 60 0 60 0 0 -60 0 -60 65 0 65 0 0 125 0 125 -125
0 -125 0 0 -65z"/>
<path d="M6350 7835 l0 -125 65 0 65 0 0 125 0 125 -65 0 -65 0 0 -125z"/>
<path d="M6350 7330 l0 -130 65 0 65 0 0 -125 0 -125 -65 0 -65 0 0 -65 0 -65
-60 0 -60 0 0 -60 0 -60 60 0 60 0 0 -65 0 -65 65 0 65 0 0 -65 0 -65 -65 0
-65 0 0 -60 0 -60 65 0 65 0 0 -65 0 -65 -65 0 -65 0 0 -60 0 -60 -60 0 -60 0
0 -65 0 -65 -65 0 -65 0 0 -65 0 -65 -65 0 -65 0 0 -60 0 -60 65 0 65 0 0 -65
0 -65 -65 0 -65 0 0 -65 0 -65 -60 0 -60 0 0 -60 0 -60 -65 0 -65 0 0 60 0 60
-60 0 -60 0 0 -60 0 -60 -65 0 -65 0 0 60 0 60 -65 0 -65 0 0 -60 0 -60 -60 0
-60 0 0 -65 0 -65 60 0 60 0 0 -65 0 -65 -60 0 -60 0 0 -60 0 -60 60 0 60 0 0
-65 0 -65 65 0 65 0 0 -65 0 -65 65 0 65 0 0 -60 0 -60 60 0 60 0 0 60 0 60
65 0 65 0 0 -60 0 -60 60 0 60 0 0 -65 0 -65 65 0 65 0 0 65 0 65 65 0 65 0 0
-65 0 -65 60 0 60 0 0 -65 0 -65 65 0 65 0 0 65 0 65 -65 0 -65 0 0 65 0 65
65 0 65 0 0 60 0 60 -65 0 -65 0 0 65 0 65 65 0 65 0 0 65 0 65 -65 0 -65 0 0
60 0 60 65 0 65 0 0 65 0 65 -65 0 -65 0 0 65 0 65 65 0 65 0 0 60 0 60 -65 0
-65 0 0 65 0 65 65 0 65 0 0 65 0 65 -65 0 -65 0 0 60 0 60 65 0 65 0 0 65 0
65 -65 0 -65 0 0 65 0 65 130 0 130 0 0 250 0 250 -65 0 -65 0 0 65 0 65 -65
0 -65 0 0 60 0 60 130 0 130 0 0 190 0 190 -65 0 -65 0 0 130 0 130 -65 0 -65
0 0 -130z m0 -1455 l0 -65 -60 0 -60 0 0 -60 0 -60 60 0 60 0 0 -65 0 -65 -60
0 -60 0 0 -65 0 -65 60 0 60 0 0 -60 0 -60 -60 0 -60 0 0 -65 0 -65 60 0 60 0
0 -65 0 -65 -60 0 -60 0 0 -60 0 -60 60 0 60 0 0 -65 0 -65 -60 0 -60 0 0 -65
0 -65 60 0 60 0 0 -60 0 -60 -60 0 -60 0 0 60 0 60 -65 0 -65 0 0 -60 0 -60
-65 0 -65 0 0 60 0 60 -60 0 -60 0 0 65 0 65 -65 0 -65 0 0 -65 0 -65 -60 0
-60 0 0 65 0 65 -65 0 -65 0 0 65 0 65 -65 0 -65 0 0 60 0 60 65 0 65 0 0 65
0 65 -65 0 -65 0 0 65 0 65 65 0 65 0 0 -65 0 -65 65 0 65 0 0 65 0 65 60 0
60 0 0 -65 0 -65 65 0 65 0 0 65 0 65 60 0 60 0 0 60 0 60 65 0 65 0 0 65 0
65 65 0 65 0 0 65 0 65 -65 0 -65 0 0 60 0 60 65 0 65 0 0 65 0 65 60 0 60 0
0 -65z"/>
<path d="M6100 5370 l0 -60 -65 0 -65 0 0 -65 0 -65 -60 0 -60 0 0 -65 0 -65
-65 0 -65 0 0 65 0 65 -60 0 -60 0 0 -65 0 -65 -65 0 -65 0 0 -60 0 -60 65 0
65 0 0 -65 0 -65 60 0 60 0 0 65 0 65 65 0 65 0 0 -65 0 -65 60 0 60 0 0 -65
0 -65 65 0 65 0 0 65 0 65 65 0 65 0 0 65 0 65 -65 0 -65 0 0 60 0 60 65 0 65
0 0 65 0 65 -65 0 -65 0 0 65 0 65 65 0 65 0 0 60 0 60 -65 0 -65 0 0 -60z m0
-255 l0 -65 -65 0 -65 0 0 -60 0 -60 65 0 65 0 0 -65 0 -65 -65 0 -65 0 0 65
0 65 -60 0 -60 0 0 60 0 60 60 0 60 0 0 65 0 65 65 0 65 0 0 -65z m-380 -125
l0 -60 -60 0 -60 0 0 60 0 60 60 0 60 0 0 -60z"/>
<path d="M7620 7395 l0 -65 65 0 65 0 0 -65 0 -65 -65 0 -65 0 0 -60 0 -60 65
0 65 0 0 -65 0 -65 -65 0 -65 0 0 -65 0 -65 65 0 65 0 0 -60 0 -60 -65 0 -65
0 0 -65 0 -65 65 0 65 0 0 -65 0 -65 -65 0 -65 0 0 -60 0 -60 65 0 65 0 0 -65
0 -65 -65 0 -65 0 0 -60 0 -60 65 0 65 0 0 -65 0 -65 -65 0 -65 0 0 -65 0 -65
65 0 65 0 0 -60 0 -60 -65 0 -65 0 0 -65 0 -65 65 0 65 0 0 -65 0 -65 -65 0
-65 0 0 -60 0 -60 65 0 65 0 0 -65 0 -65 -65 0 -65 0 0 -65 0 -65 65 0 65 0 0
-60 0 -60 -65 0 -65 0 0 -65 0 -65 -65 0 -65 0 0 -65 0 -65 65 0 65 0 0 -60 0
-60 -65 0 -65 0 0 -65 0 -65 -60 0 -60 0 0 -65 0 -65 -65 0 -65 0 0 65 0 65
-65 0 -65 0 0 -65 0 -65 -60 0 -60 0 0 65 0 65 -65 0 -65 0 0 -65 0 -65 65 0
65 0 0 -60 0 -60 -65 0 -65 0 0 -65 0 -65 65 0 65 0 0 65 0 65 60 0 60 0 0
-65 0 -65 65 0 65 0 0 -65 0 -65 65 0 65 0 0 -60 0 -60 60 0 60 0 0 60 0 60
65 0 65 0 0 -60 0 -60 65 0 65 0 0 -65 0 -65 60 0 60 0 0 65 0 65 -60 0 -60 0
0 60 0 60 60 0 60 0 0 65 0 65 65 0 65 0 0 65 0 65 65 0 65 0 0 -65 0 -65 60
0 60 0 0 65 0 65 -60 0 -60 0 0 60 0 60 -65 0 -65 0 0 65 0 65 65 0 65 0 0
505 0 505 -130 0 -130 0 0 65 0 65 65 0 65 0 0 315 0 315 -65 0 -65 0 0 65 0
65 -60 0 -60 0 0 60 0 60 60 0 60 0 0 190 0 190 -60 0 -60 0 0 65 0 65 60 0
60 0 0 190 0 190 -60 0 -60 0 0 65 0 65 -65 0 -65 0 0 -65z m250 -1265 l0 -60
-60 0 -60 0 0 60 0 60 60 0 60 0 0 -60z m0 -255 l0 -65 -60 0 -60 0 0 65 0 65
60 0 60 0 0 -65z m0 -250 l0 -65 -60 0 -60 0 0 65 0 65 60 0 60 0 0 -65z m0
-255 l0 -60 65 0 65 0 0 -65 0 -65 -65 0 -65 0 0 -65 0 -65 65 0 65 0 0 -60 0
-60 -65 0 -65 0 0 -65 0 -65 65 0 65 0 0 -65 0 -65 -65 0 -65 0 0 -60 0 -60
65 0 65 0 0 -65 0 -65 -65 0 -65 0 0 -65 0 -65 65 0 65 0 0 -60 0 -60 -65 0
-65 0 0 -65 0 -65 -60 0 -60 0 0 -65 0 -65 -65 0 -65 0 0 65 0 65 -65 0 -65 0
0 -65 0 -65 -60 0 -60 0 0 65 0 65 -65 0 -65 0 0 65 0 65 -65 0 -65 0 0 60 0
60 65 0 65 0 0 -60 0 -60 65 0 65 0 0 60 0 60 60 0 60 0 0 65 0 65 65 0 65 0
0 65 0 65 65 0 65 0 0 60 0 60 -65 0 -65 0 0 65 0 65 65 0 65 0 0 65 0 65 60
0 60 0 0 60 0 60 -60 0 -60 0 0 65 0 65 60 0 60 0 0 65 0 65 -60 0 -60 0 0 60
0 60 60 0 60 0 0 -60z"/>
<path d="M7750 4735 l0 -65 60 0 60 0 0 65 0 65 -60 0 -60 0 0 -65z"/>
<path d="M7750 4485 l0 -65 -65 0 -65 0 0 -65 0 -65 -65 0 -65 0 0 -60 0 -60
-60 0 -60 0 0 -65 0 -65 60 0 60 0 0 65 0 65 65 0 65 0 0 -65 0 -65 65 0 65 0
0 65 0 65 60 0 60 0 0 60 0 60 -60 0 -60 0 0 65 0 65 60 0 60 0 0 65 0 65 -60
0 -60 0 0 -65z m0 -255 l0 -60 -65 0 -65 0 0 60 0 60 65 0 65 0 0 -60z"/>
<path d="M6610 5750 l0 -60 60 0 60 0 0 60 0 60 -60 0 -60 0 0 -60z"/>
<path d="M6610 5495 l0 -65 60 0 60 0 0 65 0 65 -60 0 -60 0 0 -65z"/>
<path d="M6610 4990 l0 -190 60 0 60 0 0 190 0 190 -60 0 -60 0 0 -190z"/>
<path d="M3440 7835 l0 -125 65 0 65 0 0 125 0 125 -65 0 -65 0 0 -125z"/>
<path d="M3570 7520 l0 -60 65 0 65 0 0 60 0 60 -65 0 -65 0 0 -60z"/>
<path d="M3570 6950 l0 -250 65 0 65 0 0 250 0 250 -65 0 -65 0 0 -250z"/>
<path d="M2940 7015 l0 -65 60 0 60 0 0 65 0 65 -60 0 -60 0 0 -65z"/>
<path d="M3060 6635 l0 -65 65 0 65 0 0 -65 0 -65 -65 0 -65 0 0 -60 0 -60 65
0 65 0 0 -65 0 -65 -65 0 -65 0 0 -60 0 -60 65 0 65 0 0 -65 0 -65 65 0 65 0
0 65 0 65 60 0 60 0 0 60 0 60 65 0 65 0 0 65 0 65 65 0 65 0 0 -65 0 -65 60
0 60 0 0 65 0 65 -60 0 -60 0 0 60 0 60 -65 0 -65 0 0 -60 0 -60 -65 0 -65 0
0 60 0 60 -60 0 -60 0 0 65 0 65 -65 0 -65 0 0 65 0 65 -65 0 -65 0 0 -65z
m260 -255 l0 -60 60 0 60 0 0 -65 0 -65 -60 0 -60 0 0 -60 0 -60 -65 0 -65 0
0 60 0 60 65 0 65 0 0 65 0 65 -65 0 -65 0 0 60 0 60 65 0 65 0 0 -60z"/>
<path d="M4330 5370 l0 -60 65 0 65 0 0 -65 0 -65 60 0 60 0 0 65 0 65 -60 0
-60 0 0 60 0 60 -65 0 -65 0 0 -60z"/>
<path d="M4710 5245 l0 -65 65 0 65 0 0 65 0 65 -65 0 -65 0 0 -65z"/>
</g>
</svg>
