<?xml version="1.0" encoding="UTF-8"?>
<svg version="1.1" xmlns="http://www.w3.org/2000/svg" width="512" height="512">
<path d="M0 0 C8.06847403 3.67382968 13.54281236 10.10744529 16.7109375 18.234375 C19.0424474 26.42659814 17.46865289 32.78285095 13.7109375 40.234375 C11.5859375 43.359375 11.5859375 43.359375 9.7109375 45.234375 C9.0509375 45.234375 8.3909375 45.234375 7.7109375 45.234375 C7.7109375 45.894375 7.7109375 46.554375 7.7109375 47.234375 C-6.56142117 54.22860502 -6.56142117 54.22860502 -14.2890625 52.234375 C-15.64644531 52.46833984 -15.64644531 52.46833984 -17.03125 52.70703125 C-20.2414313 53.22666491 -23.10731432 53.26620839 -26.3515625 53.171875 C-32.16555247 53.11200554 -37.6033187 53.75681861 -43.31640625 54.796875 C-46.3534593 55.24385258 -49.22420298 55.24268085 -52.2890625 55.234375 C-54.44381379 55.57015132 -54.44381379 55.57015132 -56.4765625 56.109375 C-59.86067528 56.91997488 -63.23316514 57.58945448 -66.6640625 58.171875 C-71.46172084 59.02089881 -76.10118695 60.20264368 -80.78125 61.55078125 C-83.27149457 62.22958623 -85.75480734 62.74891703 -88.2890625 63.234375 C-93.8833232 64.48826102 -99.12181904 66.1960179 -104.48046875 68.234375 C-107.2890625 69.234375 -107.2890625 69.234375 -110.421875 70.078125 C-115.63837592 71.53501766 -120.59905186 73.67818875 -125.6015625 75.734375 C-126.60251953 76.13785156 -127.60347656 76.54132813 -128.63476562 76.95703125 C-129.58931641 77.34761719 -130.54386719 77.73820312 -131.52734375 78.140625 C-132.39399658 78.49447266 -133.26064941 78.84832031 -134.15356445 79.21289062 C-136.43533947 80.15881004 -136.43533947 80.15881004 -138.2890625 82.234375 C-138.9490625 81.904375 -139.6090625 81.574375 -140.2890625 81.234375 C-140.6190625 81.894375 -140.9490625 82.554375 -141.2890625 83.234375 C-143.06761454 84.17646517 -144.88757215 85.04151453 -146.7265625 85.859375 C-147.71527344 86.30539063 -148.70398438 86.75140625 -149.72265625 87.2109375 C-152.2890625 88.234375 -152.2890625 88.234375 -154.2890625 88.234375 C-154.2890625 88.894375 -154.2890625 89.554375 -154.2890625 90.234375 C-160.0390625 93.234375 -160.0390625 93.234375 -162.2890625 93.234375 C-162.6190625 93.894375 -162.9490625 94.554375 -163.2890625 95.234375 C-165.26795211 95.96131404 -167.26860808 96.63253751 -169.2890625 97.234375 C-169.2890625 97.894375 -169.2890625 98.554375 -169.2890625 99.234375 C-171.40625 100.7421875 -171.40625 100.7421875 -174.1640625 102.359375 C-175.06898438 102.89820313 -175.97390625 103.43703125 -176.90625 103.9921875 C-179.2890625 105.234375 -179.2890625 105.234375 -181.2890625 105.234375 C-181.2890625 105.894375 -181.2890625 106.554375 -181.2890625 107.234375 C-183.15234375 108.70703125 -183.15234375 108.70703125 -185.6015625 110.296875 C-186.40207031 110.82410156 -187.20257813 111.35132813 -188.02734375 111.89453125 C-190.2890625 113.234375 -190.2890625 113.234375 -193.2890625 114.234375 C-193.2890625 114.894375 -193.2890625 115.554375 -193.2890625 116.234375 C-193.9284375 116.523125 -194.5678125 116.811875 -195.2265625 117.109375 C-197.44112329 118.06260951 -197.44112329 118.06260951 -198.2890625 120.234375 C-198.9490625 120.234375 -199.6090625 120.234375 -200.2890625 120.234375 C-200.2890625 120.894375 -200.2890625 121.554375 -200.2890625 122.234375 C-202.28190388 123.5783843 -204.28325921 124.90978792 -206.2890625 126.234375 C-207.1553125 127.100625 -208.0215625 127.966875 -208.9140625 128.859375 C-211.0689855 131.014298 -212.63802188 131.90885469 -215.2890625 133.234375 C-215.6190625 134.224375 -215.9490625 135.214375 -216.2890625 136.234375 C-216.9490625 136.234375 -217.6090625 136.234375 -218.2890625 136.234375 C-218.2890625 136.894375 -218.2890625 137.554375 -218.2890625 138.234375 C-219.6640625 139.859375 -219.6640625 139.859375 -221.2890625 141.234375 C-221.9490625 141.234375 -222.6090625 141.234375 -223.2890625 141.234375 C-223.2890625 141.894375 -223.2890625 142.554375 -223.2890625 143.234375 C-223.9490625 143.234375 -224.6090625 143.234375 -225.2890625 143.234375 C-225.5365625 143.79125 -225.7840625 144.348125 -226.0390625 144.921875 C-228.6203459 149.69724929 -232.31508424 153.57413186 -236.2890625 157.234375 C-236.9490625 157.234375 -237.6090625 157.234375 -238.2890625 157.234375 C-238.6190625 158.554375 -238.9490625 159.874375 -239.2890625 161.234375 C-239.9490625 161.234375 -240.6090625 161.234375 -241.2890625 161.234375 C-241.2890625 161.894375 -241.2890625 162.554375 -241.2890625 163.234375 C-241.9490625 163.234375 -242.6090625 163.234375 -243.2890625 163.234375 C-243.6190625 164.554375 -243.9490625 165.874375 -244.2890625 167.234375 C-244.9490625 167.234375 -245.6090625 167.234375 -246.2890625 167.234375 C-246.5365625 167.976875 -246.7840625 168.719375 -247.0390625 169.484375 C-248.40715212 172.49417217 -249.96716356 173.91247606 -252.2890625 176.234375 C-253.24100152 177.87564917 -254.18869303 179.51991471 -255.09375 181.1875 C-256.50430612 183.60296211 -258.09618559 185.8367284 -259.7265625 188.109375 C-263.82063188 193.87270013 -267.15471289 199.90894547 -270.2890625 206.234375 C-270.9490625 206.234375 -271.6090625 206.234375 -272.2890625 206.234375 C-272.38058594 206.89824219 -272.47210938 207.56210937 -272.56640625 208.24609375 C-273.50269529 212.11777545 -275.12387993 215.47176949 -276.8515625 219.046875 C-277.18091797 219.73974609 -277.51027344 220.43261719 -277.84960938 221.14648438 C-278.65778501 222.84482448 -279.47274627 224.53993269 -280.2890625 226.234375 C-280.9490625 226.234375 -281.6090625 226.234375 -282.2890625 226.234375 C-282.4025 226.935625 -282.5159375 227.636875 -282.6328125 228.359375 C-283.5951036 232.5751265 -285.40011563 236.34793795 -287.1328125 240.296875 C-288.18341635 242.96597667 -288.83236111 245.41113002 -289.2890625 248.234375 C-289.9490625 248.234375 -290.6090625 248.234375 -291.2890625 248.234375 C-291.39605469 249.20632813 -291.50304687 250.17828125 -291.61328125 251.1796875 C-292.25646789 255.66960336 -293.66373283 259.82063804 -295.1015625 264.109375 C-299.89883452 278.90323722 -303.06286396 293.85120737 -305.2890625 309.234375 C-305.38960937 309.9145166 -305.49015625 310.5946582 -305.59375 311.29541016 C-306.71034203 319.10212371 -307.31514071 326.83522181 -307.4921875 334.72265625 C-307.50776703 335.3846402 -307.52334656 336.04662415 -307.53939819 336.72866821 C-307.61503354 340.05015769 -307.66699826 343.36784477 -307.68408203 346.69042969 C-307.81516488 354.1184579 -308.5694833 359.75329003 -312.2890625 366.234375 C-312.6190625 366.894375 -312.9490625 367.554375 -313.2890625 368.234375 C-313.9490625 368.234375 -314.6090625 368.234375 -315.2890625 368.234375 C-315.6190625 369.224375 -315.9490625 370.214375 -316.2890625 371.234375 C-316.9490625 371.234375 -317.6090625 371.234375 -318.2890625 371.234375 C-318.2890625 371.894375 -318.2890625 372.554375 -318.2890625 373.234375 C-327.8435683 377.25732481 -334.94552406 379.96506829 -345.01171875 376.3515625 C-352.17402591 372.83797785 -357.67397571 366.7209643 -360.2890625 359.234375 C-361.82283092 349.53109987 -361.24914872 339.68310631 -360.6640625 329.921875 C-360.62127167 329.17324188 -360.57848083 328.42460876 -360.53439331 327.65328979 C-359.39031688 308.23475215 -356.89342525 288.78024339 -351.98754883 269.93432617 C-351.36520807 267.52871048 -350.79679279 265.12154483 -350.26171875 262.6953125 C-348.72728158 255.77717411 -347.12530878 249.19988202 -344.28515625 242.6796875 C-343.10634171 239.78581337 -342.23374985 236.85668624 -341.3515625 233.859375 C-339.77246327 228.60795197 -337.89209345 223.61298445 -335.7265625 218.578125 C-333.92993646 214.3990166 -332.2032833 210.19273877 -330.4765625 205.984375 C-329.86598593 204.49995865 -329.2553172 203.01558021 -328.64453125 201.53125 C-328.19722656 200.44328125 -327.74992187 199.3553125 -327.2890625 198.234375 C-326.6290625 198.234375 -325.9690625 198.234375 -325.2890625 198.234375 C-325.18722656 197.54988281 -325.08539063 196.86539063 -324.98046875 196.16015625 C-324.15136258 192.65167874 -322.7718393 189.67681974 -321.2265625 186.421875 C-320.67871094 185.26042969 -320.13085938 184.09898437 -319.56640625 182.90234375 C-318.93412109 181.58169922 -318.93412109 181.58169922 -318.2890625 180.234375 C-317.6290625 180.234375 -316.9690625 180.234375 -316.2890625 180.234375 C-315.2990625 177.264375 -314.3090625 174.294375 -313.2890625 171.234375 C-312.6290625 171.234375 -311.9690625 171.234375 -311.2890625 171.234375 C-310.21381056 168.58208688 -309.19450099 165.95069046 -308.2890625 163.234375 C-307.6290625 163.234375 -306.9690625 163.234375 -306.2890625 163.234375 C-306.0828125 162.409375 -305.8765625 161.584375 -305.6640625 160.734375 C-304.2136201 157.0423398 -302.43938102 154.55331587 -300.015625 151.4609375 C-298.09032737 148.97808761 -296.27873406 146.43284632 -294.4765625 143.859375 C-293.89261719 143.02664062 -293.30867188 142.19390625 -292.70703125 141.3359375 C-291.26958054 139.30336556 -291.26958054 139.30336556 -290.2890625 137.234375 C-289.6290625 137.234375 -288.9690625 137.234375 -288.2890625 137.234375 C-287.9796875 136.2134375 -287.9796875 136.2134375 -287.6640625 135.171875 C-286.12486167 131.88358232 -284.22034368 129.63308353 -281.8125 126.94921875 C-280.48635297 125.45645325 -279.25324065 123.88205202 -278.0390625 122.296875 C-277.4615625 121.61625 -276.8840625 120.935625 -276.2890625 120.234375 C-275.6290625 120.234375 -274.9690625 120.234375 -274.2890625 120.234375 C-273.7940625 118.254375 -273.7940625 118.254375 -273.2890625 116.234375 C-272.6290625 116.234375 -271.9690625 116.234375 -271.2890625 116.234375 C-271.2890625 115.574375 -271.2890625 114.914375 -271.2890625 114.234375 C-270.6290625 114.234375 -269.9690625 114.234375 -269.2890625 114.234375 C-269.0209375 113.595 -268.7528125 112.955625 -268.4765625 112.296875 C-267.2890625 110.234375 -267.2890625 110.234375 -264.2890625 109.234375 C-263.18069827 107.35121341 -263.18069827 107.35121341 -262.2890625 105.234375 C-261.2990625 103.749375 -261.2990625 103.749375 -260.2890625 102.234375 C-259.2990625 102.234375 -258.3090625 102.234375 -257.2890625 102.234375 C-257.0209375 101.595 -256.7528125 100.955625 -256.4765625 100.296875 C-255.2890625 98.234375 -255.2890625 98.234375 -252.2890625 97.234375 C-251.9590625 96.574375 -251.6290625 95.914375 -251.2890625 95.234375 C-250.2890625 93.234375 -250.2890625 93.234375 -247.2890625 92.234375 C-247.2890625 91.574375 -247.2890625 90.914375 -247.2890625 90.234375 C-246.6290625 90.234375 -245.9690625 90.234375 -245.2890625 90.234375 C-244.7940625 88.749375 -244.7940625 88.749375 -244.2890625 87.234375 C-240.84461806 84.234375 -240.84461806 84.234375 -238.2890625 84.234375 C-238.2890625 83.574375 -238.2890625 82.914375 -238.2890625 82.234375 C-233.81847426 78.234375 -233.81847426 78.234375 -231.2890625 78.234375 C-231.2890625 77.574375 -231.2890625 76.914375 -231.2890625 76.234375 C-229.609375 74.7265625 -229.609375 74.7265625 -227.4140625 73.109375 C-226.69476563 72.57054687 -225.97546875 72.03171875 -225.234375 71.4765625 C-223.2890625 70.234375 -223.2890625 70.234375 -221.2890625 70.234375 C-220.9590625 69.244375 -220.6290625 68.254375 -220.2890625 67.234375 C-219.2990625 66.904375 -218.3090625 66.574375 -217.2890625 66.234375 C-216.5465625 65.4609375 -216.5465625 65.4609375 -215.7890625 64.671875 C-214.2890625 63.234375 -214.2890625 63.234375 -211.2890625 63.234375 C-211.2890625 62.574375 -211.2890625 61.914375 -211.2890625 61.234375 C-210.6496875 60.945625 -210.0103125 60.656875 -209.3515625 60.359375 C-207.13700171 59.40614049 -207.13700171 59.40614049 -206.2890625 57.234375 C-204.9737284 56.53286348 -203.63788658 55.86911575 -202.2890625 55.234375 C-201.2990625 54.574375 -200.3090625 53.914375 -199.2890625 53.234375 C-197.95969993 52.37404156 -196.62612125 51.52019826 -195.2890625 50.671875 C-194.6084375 50.23746094 -193.9278125 49.80304688 -193.2265625 49.35546875 C-191.2890625 48.234375 -191.2890625 48.234375 -188.2890625 47.234375 C-187.9590625 46.574375 -187.6290625 45.914375 -187.2890625 45.234375 C-185.390625 44.12109375 -185.390625 44.12109375 -182.9140625 42.921875 C-182.01945313 42.48617187 -181.12484375 42.05046875 -180.203125 41.6015625 C-176.34152697 39.7898208 -172.44888825 38.05265129 -168.5390625 36.34765625 C-166.16239739 35.32116728 -166.16239739 35.32116728 -164.2890625 33.234375 C-162.75736548 32.46296516 -161.19764654 31.74656999 -159.625 31.0625 C-158.67512207 30.64814697 -157.72524414 30.23379395 -156.74658203 29.80688477 C-155.72935059 29.37045654 -154.71211914 28.93402832 -153.6640625 28.484375 C-152.10921143 27.81329712 -152.10921143 27.81329712 -150.52294922 27.12866211 C-142.20144611 23.5653386 -133.82116619 20.25574348 -125.2890625 17.234375 C-124.39960938 16.91855469 -123.51015625 16.60273437 -122.59375 16.27734375 C-118.53844831 14.88204503 -114.48036363 13.75302615 -110.30859375 12.765625 C-108.14911548 12.19756108 -106.08037202 11.48173184 -103.9765625 10.734375 C-99.73912416 9.28070833 -95.52911413 8.50279838 -91.1171875 7.76953125 C-88.23698244 7.22452007 -85.47920592 6.48575026 -82.6640625 5.671875 C-78.55059724 4.50247559 -74.61928655 3.78545753 -70.359375 3.4453125 C-68.22750049 3.26465753 -68.22750049 3.26465753 -65.921875 2.73828125 C-61.92123487 1.9725801 -57.89734954 1.8460695 -53.8359375 1.61328125 C-51.07215852 1.31803173 -48.69218589 0.87165793 -46.01953125 0.203125 C-40.92958324 -0.98510382 -36.05373905 -0.95538358 -30.8515625 -0.828125 C-29.08211115 -0.79377907 -27.31257202 -0.76361845 -25.54296875 -0.73828125 C-24.77283447 -0.72031494 -24.0027002 -0.70234863 -23.20922852 -0.68383789 C-4.82909654 -1.466717 -4.82909654 -1.466717 0 0 Z " fill="#000000" transform="translate(427.2890625,67.765625)"/>
<path d="M0 0 C1.21945312 -0.03738281 2.43890625 -0.07476562 3.6953125 -0.11328125 C12.33185498 -0.19722173 18.50632475 1.04238838 24.83911133 7.14819336 C30.66329312 13.45934378 33 19.82845366 33 28.375 C32.33025927 34.70614279 30.02575111 39.82778962 27 45.375 C26.34 45.375 25.68 45.375 25 45.375 C25 46.035 25 46.695 25 47.375 C16.74973527 55.15168458 4.58067188 54.51648462 -5.98828125 54.3125 C-9.54096642 54.38622628 -12.67199087 55.04257459 -16.09375 55.94140625 C-18 56.375 -18 56.375 -20.9375 56.3125 C-24.78468512 56.39101398 -27.96334288 57.48039727 -31.609375 58.6484375 C-34.37952501 59.49034584 -37.14372321 59.92059233 -40 60.375 C-42.00894394 61.01420943 -44.00779443 61.68539038 -46 62.375 C-47.45305502 62.78019896 -48.90618903 63.1851147 -50.359375 63.58984375 C-56.95902959 65.55892102 -63.19326427 68.31658978 -69.5 71.0625 C-71.8215343 72.06959885 -74.14438402 73.0736727 -76.46875 74.07421875 C-77.48388672 74.51596436 -78.49902344 74.95770996 -79.54492188 75.4128418 C-82 76.375 -82 76.375 -84 76.375 C-84 77.035 -84 77.695 -84 78.375 C-85.56119422 79.16923861 -87.12401964 79.96027123 -88.6875 80.75 C-89.55761719 81.19085938 -90.42773438 81.63171875 -91.32421875 82.0859375 C-93.84772799 83.30164268 -96.38737532 84.36760958 -99 85.375 C-99 86.035 -99 86.695 -99 87.375 C-100.79296875 88.8125 -100.79296875 88.8125 -103.1875 90.375 C-103.96480469 90.890625 -104.74210938 91.40625 -105.54296875 91.9375 C-107.9699247 93.35740427 -110.36607951 94.40189971 -113 95.375 C-113 96.035 -113 96.695 -113 97.375 C-114.97290587 99.72369747 -116.00306862 100.37602287 -119 101.375 C-120.45074215 102.8398693 -120.45074215 102.8398693 -121.8125 104.625 C-124.58096903 107.98817719 -127.65007663 110.58339719 -131 113.375 C-132.62270112 115.21792485 -134.17729294 117.09583438 -135.703125 119.01953125 C-136.13109375 119.46683594 -136.5590625 119.91414063 -137 120.375 C-137.66 120.375 -138.32 120.375 -139 120.375 C-139 121.035 -139 121.695 -139 122.375 C-139.66 122.375 -140.32 122.375 -141 122.375 C-141.495 124.355 -141.495 124.355 -142 126.375 C-142.66 126.375 -143.32 126.375 -144 126.375 C-144.26039063 126.94605469 -144.52078125 127.51710938 -144.7890625 128.10546875 C-146.09676744 130.55636092 -147.623015 132.53385905 -149.375 134.6875 C-153.27521347 139.61749956 -156.27761812 144.70337108 -159 150.375 C-159.66 150.375 -160.32 150.375 -161 150.375 C-161 151.695 -161 153.015 -161 154.375 C-161.66 154.375 -162.32 154.375 -163 154.375 C-163.33 156.025 -163.66 157.675 -164 159.375 C-164.66 159.375 -165.32 159.375 -166 159.375 C-166 160.695 -166 162.015 -166 163.375 C-166.66 163.375 -167.32 163.375 -168 163.375 C-168 165.025 -168 166.675 -168 168.375 C-168.66 168.375 -169.32 168.375 -170 168.375 C-170.18175781 168.99246094 -170.36351562 169.60992187 -170.55078125 170.24609375 C-172.6466762 177.30764751 -174.78742029 184.33541062 -177.5 191.1875 C-179.49324369 196.44715874 -180.80188563 201.88625614 -182 207.375 C-182.15903809 208.08438721 -182.31807617 208.79377441 -182.48193359 209.5246582 C-184.57360783 219.75360073 -184.98336499 230.19722596 -185.67724609 240.59301758 C-185.84997398 243.14726084 -186.03375111 245.70052694 -186.21875 248.25390625 C-186.26777466 249.04027969 -186.31679932 249.82665314 -186.36730957 250.63685608 C-186.77363004 256.14863004 -186.77363004 256.14863004 -189 258.375 C-189.13664062 259.00921875 -189.27328125 259.6434375 -189.4140625 260.296875 C-190.15977688 262.94167532 -191.28349097 263.87766334 -193.375 265.625 C-193.98085937 266.14578125 -194.58671875 266.6665625 -195.2109375 267.203125 C-197 268.375 -197 268.375 -200 268.375 C-200.33 269.035 -200.66 269.695 -201 270.375 C-208.4920003 273.40747631 -215.38055322 274.15670279 -223 271.375 C-225.53735814 269.87762167 -227.68307566 268.21908264 -230 266.375 C-230.66 266.045 -231.32 265.715 -232 265.375 C-238.47058425 256.13464474 -238.85908554 247.17001992 -238.5625 236.375 C-238.5392101 234.80730376 -238.516756 233.2395949 -238.49511719 231.671875 C-238.29969307 221.1673168 -237.57674354 210.87628059 -235.44873047 200.56835938 C-234.98815348 198.31709512 -234.58671552 196.06043986 -234.19140625 193.796875 C-230.04269651 171.13451838 -221.42285427 149.77724237 -210.99951172 129.34179688 C-209.31558227 126.02823175 -207.65928527 122.70096157 -206 119.375 C-205.34 119.375 -204.68 119.375 -204 119.375 C-203.9175 118.859375 -203.835 118.34375 -203.75 117.8125 C-202.67859775 114.33044268 -200.86476395 111.50299115 -199 108.375 C-198.34 108.375 -197.68 108.375 -197 108.375 C-196.9175 107.83875 -196.835 107.3025 -196.75 106.75 C-195.72418729 103.50159309 -194.03436106 101.08748141 -192 98.375 C-191.34 98.375 -190.68 98.375 -190 98.375 C-189.505 96.395 -189.505 96.395 -189 94.375 C-188.34 94.375 -187.68 94.375 -187 94.375 C-186.731875 93.6325 -186.46375 92.89 -186.1875 92.125 C-185.04723249 89.48438051 -183.90619694 87.51947156 -182 85.375 C-181.34 85.375 -180.68 85.375 -180 85.375 C-180 84.715 -180 84.055 -180 83.375 C-178.35570171 81.68626121 -176.68615782 80.02194485 -175 78.375 C-174.443125 77.611875 -173.88625 76.84875 -173.3125 76.0625 C-172.6628125 75.2271875 -172.6628125 75.2271875 -172 74.375 C-171.34 74.375 -170.68 74.375 -170 74.375 C-170 73.715 -170 73.055 -170 72.375 C-168.625 70.75 -168.625 70.75 -167 69.375 C-166.34 69.375 -165.68 69.375 -165 69.375 C-165 68.715 -165 68.055 -165 67.375 C-163.5390625 65.8671875 -163.5390625 65.8671875 -161.625 64.25 C-160.99851562 63.71117187 -160.37203125 63.17234375 -159.7265625 62.6171875 C-158 61.375 -158 61.375 -156 61.375 C-156 60.715 -156 60.055 -156 59.375 C-154.57421875 57.8671875 -154.57421875 57.8671875 -152.6875 56.25 C-152.07261719 55.71117187 -151.45773437 55.17234375 -150.82421875 54.6171875 C-149 53.375 -149 53.375 -146 53.375 C-145.67 52.385 -145.34 51.395 -145 50.375 C-142.9375 49.6875 -142.9375 49.6875 -141 49.375 C-141 48.715 -141 48.055 -141 47.375 C-135.58823529 43.375 -135.58823529 43.375 -133 43.375 C-133 42.715 -133 42.055 -133 41.375 C-131.02 40.715 -129.04 40.055 -127 39.375 C-127 38.715 -127 38.055 -127 37.375 C-126.48050781 37.12105469 -125.96101563 36.86710937 -125.42578125 36.60546875 C-122.24949435 35.03787429 -119.1531247 33.46820634 -116.125 31.625 C-114 30.375 -114 30.375 -112 30.375 C-111.67 29.715 -111.34 29.055 -111 28.375 C-101.75892515 23.2790375 -91.67709148 19.51153255 -81.9375 15.5 C-80.76010254 15.01152588 -79.58270508 14.52305176 -78.36962891 14.01977539 C-77.2460498 13.56207764 -76.1224707 13.10437988 -74.96484375 12.6328125 C-73.9605835 12.2217627 -72.95632324 11.81071289 -71.92163086 11.38720703 C-68.94183684 10.35484921 -66.11307866 9.83894897 -63 9.375 C-60.99504414 8.72338935 -58.9950615 8.05630322 -57 7.375 C-54.8400094 6.82713831 -52.67292324 6.30658136 -50.5 5.8125 C-49.4171875 5.56371094 -48.334375 5.31492188 -47.21875 5.05859375 C-42.66661121 4.0918167 -38.12923267 3.3446323 -33.5 2.875 C-30.97656188 2.60583327 -28.5050453 2.29250755 -26 1.875 C-17.33918022 0.43153004 -8.76734241 0.10194584 0 0 Z " fill="#FDC689" transform="translate(410,169.625)"/>
<path d="M0 0 C0.90621094 0.06574219 1.81242188 0.13148438 2.74609375 0.19921875 C12.13353807 1.22451409 17.2893052 6.62597746 23.20703125 13.6015625 C27.90312239 19.88347963 27.52898306 27.47216411 27 35 C26.51812361 37.47584764 25.86450008 39.62262478 25 42 C24.34 42 23.68 42 23 42 C22.89945313 42.59683594 22.79890625 43.19367188 22.6953125 43.80859375 C21.15749384 48.65531437 16.07471315 51.37666637 11.875 53.8125 C6.53362792 55.85128265 0.64312566 55.71563197 -5 56 C-7.31309535 56.13606443 -9.62565578 56.28161565 -11.9375 56.4375 C-12.95714844 56.49808594 -13.97679687 56.55867188 -15.02734375 56.62109375 C-18.25406002 57.03238347 -20.94804084 57.88030033 -24 59 C-25.15757812 59.41378906 -26.31515625 59.82757813 -27.5078125 60.25390625 C-29.92470956 61.12826966 -32.34137536 62.00327258 -34.7578125 62.87890625 C-37.17512756 63.71477303 -39.50807632 64.44830545 -42 65 C-42 65.66 -42 66.32 -42 67 C-43.134375 67.45375 -44.26875 67.9075 -45.4375 68.375 C-49.04721692 69.57095806 -49.04721692 69.57095806 -50 72 C-51.485 72.495 -51.485 72.495 -53 73 C-54.71108689 74.62102968 -56.37253306 76.29503463 -58 78 C-59.62836738 79.7041054 -61.28769752 81.38025441 -63 83 C-63.66 83 -64.32 83 -65 83 C-65.4021875 83.8971875 -65.4021875 83.8971875 -65.8125 84.8125 C-66.99308761 86.98726664 -68.26816512 88.26816512 -70 90 C-70.495 91.485 -70.495 91.485 -71 93 C-71.99 93.495 -71.99 93.495 -73 94 C-73.495 95.485 -73.495 95.485 -74 97 C-74.66 97 -75.32 97 -76 97 C-76 98.32 -76 99.64 -76 101 C-76.66 101 -77.32 101 -78 101 C-78.103125 101.680625 -78.20625 102.36125 -78.3125 103.0625 C-79 106 -79 106 -80.375 108.9375 C-85.06437698 119.3736625 -86.03884883 131.86509616 -86.60546875 143.16601562 C-86.80908631 146.86272749 -87.15608965 150.39228324 -88 154 C-88.66 154 -89.32 154 -90 154 C-90.226875 154.886875 -90.45375 155.77375 -90.6875 156.6875 C-92.88862097 162.24271007 -96.2374098 164.87646355 -101.5625 167.3125 C-107.96033498 169.64852022 -114.81703053 170.41736982 -121.36328125 168.19921875 C-123.3342197 167.23787589 -125.1557654 166.18374128 -127 165 C-127.928125 164.484375 -128.85625 163.96875 -129.8125 163.4375 C-133.93418266 160.72896568 -135.64436937 158.02021224 -137.625 153.5 C-138.05039062 152.5409375 -138.47578125 151.581875 -138.9140625 150.59375 C-145.26338729 135.42845625 -140.61651627 115.43934851 -137 100 C-136.73832031 98.78183594 -136.47664063 97.56367188 -136.20703125 96.30859375 C-135.04077545 91.16031537 -133.58195396 86.65577675 -131.05078125 82.0234375 C-129.04450401 78.16004862 -127.5634322 74.05827083 -126 70 C-125.34 70 -124.68 70 -124 70 C-124 68.68 -124 67.36 -124 66 C-123.34 66 -122.68 66 -122 66 C-121.7628125 65.31550781 -121.525625 64.63101563 -121.28125 63.92578125 C-119.73491106 60.39465972 -117.69619934 57.33445017 -115.5 54.1875 C-115.09652344 53.59001953 -114.69304687 52.99253906 -114.27734375 52.37695312 C-113.23960218 50.87856389 -112.12524203 49.43384386 -111 48 C-110.34 48 -109.68 48 -109 48 C-108.67 46.68 -108.34 45.36 -108 44 C-107.34 44 -106.68 44 -106 44 C-106 43.34 -106 42.68 -106 42 C-105.34 42 -104.68 42 -104 42 C-103.731875 41.360625 -103.46375 40.72125 -103.1875 40.0625 C-102 38 -102 38 -99 37 C-98.67 36.01 -98.34 35.02 -98 34 C-94.55555556 31 -94.55555556 31 -92 31 C-92 30.34 -92 29.68 -92 29 C-90.01310269 27.64721885 -88.01254782 26.31431695 -86 25 C-85.67 24.34 -85.34 23.68 -85 23 C-82.6859378 22.26924352 -80.35171131 21.59861742 -78 21 C-78 20.34 -78 19.68 -78 19 C-76.88625 18.54625 -75.7725 18.0925 -74.625 17.625 C-71.03800992 16.27534014 -71.03800992 16.27534014 -69 14 C-66.47195679 12.77358087 -63.95046234 11.61712432 -61.375 10.5 C-60.68792969 10.19191406 -60.00085938 9.88382812 -59.29296875 9.56640625 C-54.58728243 7.50932386 -50.00365917 6.15222855 -45 5 C-44.01 4.67 -43.02 4.34 -42 4 C-35.33792755 1.77930918 -29.2318536 0.6917238 -22.25 0.4375 C-2.7943417 -0.3576443 -2.7943417 -0.3576443 0 0 Z " fill="#000000" transform="translate(419,273)"/>
<path d="" fill="#FDC689" transform="translate(0,0)"/>
<path d="" fill="#000000" transform="translate(0,0)"/>
</svg>
